<svg width="354" height="99" viewBox="0 0 354 99" fill="none" xmlns="http://www.w3.org/2000/svg">
<g clip-path="url(#clip0_24697_480580)">
<path d="M175.333 28.4522H170.167V30.4488H173.833V31.9463H170.167V34.9413H168V28.4522L167.167 27.1211H175.333V28.4522Z" fill="white"/>
<path d="M185.5 30.9487C185.5 33.1118 183.667 35.1084 180.834 35.1084C178 35.1084 176.167 33.2782 176.167 30.9487C176.167 28.7857 178 26.7891 180.834 26.7891C183.5 26.7891 185.5 28.7857 185.5 30.9487ZM183.334 30.9487C183.334 29.4513 182.167 28.2866 180.834 28.2866C179.333 28.2866 178.333 29.4513 178.333 30.9487C178.333 32.4462 179.5 33.611 180.834 33.611C182.167 33.611 183.334 32.4462 183.334 30.9487Z" fill="white"/>
<path d="M196.333 30.9487C196.333 33.1118 194.5 35.1084 191.666 35.1084C188.833 35.1084 186.999 33.2782 186.999 30.9487C186.999 28.7857 188.833 26.7891 191.666 26.7891C194.5 26.7891 196.333 28.7857 196.333 30.9487ZM194.166 30.9487C194.166 29.4513 193 28.2866 191.666 28.2866C190.166 28.2866 189.166 29.4513 189.166 30.9487C189.166 32.4462 190.333 33.611 191.666 33.611C193.166 33.611 194.166 32.4462 194.166 30.9487Z" fill="white"/>
<path d="M204.833 27.1211V28.4522H201.999V34.9413H199.832V28.4522H197.499L196.666 27.1211H204.833Z" fill="white"/>
<path d="M212.832 30.6156C212.832 30.6156 214.499 31.1148 214.499 32.6122C214.499 33.7769 213.499 34.7753 211.166 34.7753H206.999V28.4526L206.166 26.9551H210.832C212.999 26.9551 213.833 27.9534 213.833 28.9517C213.999 30.1164 212.832 30.6156 212.832 30.6156ZM208.999 28.2862V30.1164H210.666C211.499 30.1164 211.832 29.7837 211.832 29.2845C211.832 28.7853 211.499 28.4526 210.666 28.4526H208.999V28.2862ZM208.999 31.2811V33.4442H210.832C211.832 33.4442 212.332 32.945 212.332 32.2795C212.332 31.6139 211.832 31.1148 210.832 31.1148H208.999V31.2811Z" fill="white"/>
<path d="M215.332 34.7753L218.166 28.2862L217.499 26.9551H220.999L224.499 34.7753H222.166L221.499 33.4442H217.666L216.999 34.7753H215.332ZM218.332 31.9467H221.166L219.832 28.7853L218.332 31.9467Z" fill="white"/>
<path d="M228.333 27.1211V33.4438H232.666V34.9413H226.166V28.4522L225.333 27.1211H228.333Z" fill="white"/>
<path d="M236.499 27.1211V33.4438H240.833V34.9413H234.333V28.4522L233.499 27.1211H236.499Z" fill="white"/>
<path d="M247.666 30.9475C247.666 32.445 248.833 33.6097 250.333 33.6097C252.166 33.6097 253 32.1122 253 32.1122L254.333 32.7778C254.333 32.7778 252.999 34.9408 250.333 34.9408C247.499 34.9408 245.666 33.1106 245.666 30.7811C245.666 28.6181 247.499 26.6215 250.333 26.6215C251.666 26.6215 252.666 27.1206 252.666 27.1206L253.666 26.4551V28.7845L252.666 29.2837C252.666 29.2837 251.833 27.9526 250.333 27.9526C248.833 28.2853 247.666 29.45 247.666 30.9475Z" fill="white"/>
<path d="M258.166 27.1211V33.4438H262.667V34.9413H256.166V28.4522L255.333 27.1211H258.166Z" fill="white"/>
<path d="M271.665 27.1211V31.4472C271.665 33.6102 270.165 35.1077 267.665 35.1077C265.332 35.1077 263.665 33.6102 263.665 31.4472V28.6186L262.832 27.1211H265.665V31.4472C265.665 32.9446 266.499 33.7766 267.665 33.7766C268.832 33.7766 269.665 32.9446 269.665 31.4472V27.1211H271.665Z" fill="white"/>
<path d="M279.667 30.6156C279.667 30.6156 281.333 31.1148 281.333 32.6122C281.333 33.7769 280.333 34.7753 278 34.7753H273.833V28.4526L273 26.9551H277.667C279.833 26.9551 280.667 27.9534 280.667 28.9517C280.833 30.1164 279.667 30.6156 279.667 30.6156ZM276 28.2862V30.1164H277.667C278.5 30.1164 278.833 29.7837 278.833 29.2845C278.833 28.7853 278.5 28.4526 277.667 28.4526H276V28.2862ZM276 31.2811V33.4442H277.833C278.833 33.4442 279.333 32.945 279.333 32.2795C279.333 31.6139 278.833 31.1148 277.833 31.1148H276V31.2811Z" fill="white"/>
<path d="M182.167 81.5293V93.3428H179V85.5226L174.5 93.3428L170.166 85.5226V93.3428H168V83.6923L166.833 81.5293H171.667L175.333 87.852L178.833 81.5293H182.167Z" fill="white"/>
<path d="M199.167 87.3536C199.167 90.6813 196.333 93.5099 192.166 93.5099C188 93.5099 185.166 90.6813 185.166 87.3536C185.166 84.0258 188 81.1973 192.166 81.1973C196.333 81.1973 199.167 84.0258 199.167 87.3536ZM196 87.3536C196 85.0242 194.333 83.3603 192.166 83.3603C190 83.3603 188.333 85.1906 188.333 87.3536C188.333 89.683 190 91.3469 192.166 91.3469C194.333 91.5133 196 89.683 196 87.3536Z" fill="white"/>
<path d="M206.833 81.197C209.667 81.197 211.333 81.8626 211.333 81.8626L213 80.8643V84.192L211.5 85.0239C211.5 85.0239 209.833 83.3601 207 83.3601C205 83.3601 204.333 84.0256 204.333 84.6912C204.333 86.8542 213.167 84.8576 213.167 89.8492C213.167 91.8458 211.333 93.6761 207 93.6761C202.333 93.6761 200.5 90.3483 200.5 90.3483L202.5 89.1836C202.5 89.1836 204 91.5131 207 91.5131C209.333 91.5131 210.167 90.6811 210.167 90.0156C210.167 87.8525 201.333 89.8492 201.333 84.8576C201.333 83.0273 203.166 81.197 206.833 81.197Z" fill="white"/>
<path d="M218.666 87.354C218.666 89.6834 220.499 91.3473 222.666 91.3473C225.499 91.3473 226.833 89.1842 226.833 89.1842L228.833 90.3489C228.833 90.3489 226.833 93.6767 222.666 93.6767C218.499 93.6767 215.666 90.8481 215.666 87.5203C215.666 84.1926 218.499 81.364 222.666 81.364C224.666 81.364 226.166 82.0296 226.166 82.0296L227.833 81.0312V84.6918L226.333 85.5237C226.333 85.5237 225.166 83.5271 222.833 83.5271C220.333 83.3607 218.666 85.1909 218.666 87.354Z" fill="white"/>
<path d="M244.166 87.3536C244.166 90.6813 241.333 93.5099 237.166 93.5099C232.999 93.5099 230.166 90.6813 230.166 87.3536C230.166 84.0258 232.999 81.1973 237.166 81.1973C241.333 81.1973 244.166 84.0258 244.166 87.3536ZM240.999 87.3536C240.999 85.0242 239.333 83.3603 237.166 83.3603C234.999 83.3603 233.332 85.1906 233.332 87.3536C233.332 89.683 234.999 91.3469 237.166 91.3469C239.333 91.5133 240.999 89.683 240.999 87.3536Z" fill="white"/>
<path d="M260.666 81.5293H263L258.666 93.3428H256L254.166 88.3512L252.333 93.3428H249.666L245.166 81.5293H248.999L251.666 88.8503L254.333 81.5293H255.333L258 88.8503L260.666 81.5293Z" fill="white"/>
<path d="M178 45.922C183.667 45.922 186.833 47.2531 186.833 47.2531L190 45.4229V51.912L187.167 53.5758C187.167 53.5758 183.833 50.0817 178.333 50.0817C174.5 50.0817 173.166 51.4128 173.166 52.5775C173.166 56.9036 190.834 52.9103 190.834 62.8935C190.834 66.8868 187.167 70.5473 178.666 70.5473C169.499 70.5473 165.666 64.0582 165.666 64.0582L169.499 61.8952C169.499 61.8952 172.333 66.3877 178.5 66.3877C183.167 66.3877 184.667 64.8902 184.667 63.5591C184.667 59.233 166.999 63.2263 166.999 53.2431C166.833 49.5825 170.666 45.922 178 45.922Z" fill="white"/>
<path d="M207.834 46.5889C215.001 46.5889 218.667 50.2494 218.667 54.7418C218.667 59.2343 215.001 62.8948 207.834 62.8948H203.334V69.8831H197.167V50.9149L194.667 46.5889H207.834ZM203.334 59.0679H207.167C210.5 59.0679 212.501 57.0713 212.501 54.7418C212.501 52.4124 210.5 50.4158 207.167 50.4158H203.334V59.0679Z" fill="white"/>
<path d="M219.5 69.8831L228.167 50.4158L226 46.5889H236.667L247.001 69.8831H240.167L238.334 65.7234H226.333L224.5 69.8831H219.5ZM228.167 61.3973H236.5L232.333 51.9133L228.167 61.3973Z" fill="white"/>
<path d="M262.334 46.5889C269.334 46.5889 272.834 50.083 272.834 54.4091C272.834 59.5671 267.834 61.231 267.834 61.231L274.668 69.8831H267.334L261.667 62.2293H257.501V69.8831H251.334V50.9149L248.833 46.5889H262.334ZM257.501 58.4024H261.667C264.834 58.4024 266.668 56.5721 266.668 54.4091C266.668 52.246 264.834 50.4158 261.667 50.4158H257.501V58.4024Z" fill="white"/>
<path d="M298.834 46.5889V50.9149H290.167V69.8831H284V50.9149H277.166L274.666 46.5889H298.834Z" fill="white"/>
<path d="M298.5 69.8831L307.167 50.4158L305 46.5889H315.667L326.001 69.8831H319.334L317.5 65.7234H305.5L303.667 69.8831H298.5ZM307.167 61.3973H315.5L311.334 51.9133L307.167 61.3973Z" fill="white"/>
<path d="M336.666 55.5738H339.166L347.333 46.5889H353.333L343.833 56.9049L354 69.8831H346.5L338.999 59.8999H336.666V69.8831H330.332V50.9149L327.832 46.5889H336.666V55.5738Z" fill="white"/>
<path d="M68.071 5.43202L62.7738 4.85644L60.5757 0L58.4136 4.85644L53.0803 5.43202L57.0442 8.99341L55.9632 14.2456L60.5757 11.5475L65.2242 14.2456L64.1072 8.99341L68.071 5.43202Z" fill="white"/>
<path d="M108.755 5.43202L103.457 4.85644L101.259 0L99.097 4.85644L93.7638 5.43202L97.7637 8.99341L96.6466 14.2456L101.259 11.5475L105.908 14.2456L104.791 8.99341L108.755 5.43202Z" fill="white"/>
<path d="M88.4304 5.43202L83.0972 4.85644L80.9351 0L78.7369 4.85644L73.4397 5.43202L77.4036 8.99341L76.2865 14.2456L80.9351 11.5475L85.5476 14.2456L84.4305 8.99341L88.4304 5.43202Z" fill="white"/>
<path d="M47.7463 5.43202L42.4131 4.85644L40.251 0L38.0528 4.85644L32.7556 5.43202L36.7195 8.99341L35.6024 14.2456L40.251 11.5475L44.8635 14.2456L43.7464 8.99341L47.7463 5.43202Z" fill="white"/>
<path fill-rule="evenodd" clip-rule="evenodd" d="M0 58.2062L70.7374 17.4121L141.511 58.2062L70.7374 99.0003L0 58.2062ZM88.7184 68.5668L84.7906 66.3004C81.2231 70.6533 76.1421 72.9556 70.7728 72.9196C62.5928 72.9196 55.9983 66.3364 55.9983 58.2064C55.9983 50.0763 62.6288 43.4931 70.7728 43.4931C75.7457 43.4931 80.142 45.9394 82.8086 49.7166L85.7635 48.0258V39.3922L81.9438 41.5865C79.5294 40.5433 75.2052 39.1403 70.7728 39.1403C56.9352 39.1403 48.5029 48.2057 48.5029 57.8107C48.5029 70.7612 59.6379 77.4163 70.7728 77.4163C77.2231 77.4163 84.3221 74.4305 88.7184 68.5668ZM70.7728 93.8922L132.682 58.2064L70.7728 22.5205L8.86401 58.2064L70.7728 93.8922ZM123.781 58.2064L70.7368 88.784L53.0794 78.6034L56.6469 76.5529C50.8452 73.1714 47.3498 68.0272 46.1967 62.1635L35.3861 68.3869L17.6927 58.2064L70.7368 27.6288L88.4301 37.8093V49.5727L84.1419 52.0549C85.259 54.5011 85.7275 57.2351 85.4032 59.9691L106.087 48.0258L123.781 58.2064ZM72.1782 68.8546L70.2683 70.2216C73.7637 70.3655 77.1871 68.9625 79.6375 66.3724V63.3146L82.3041 61.7678C83.0609 59.3935 83.0248 56.9113 82.3041 54.645L79.6375 53.0981V50.0404C78.0159 48.3136 75.8898 47.0186 73.4394 46.479L70.7728 48.0258L68.1062 46.479C64.6468 47.2704 61.7279 49.5367 60.1063 52.6305L62.2324 51.6951L63.7459 56.4077L60.4306 60.077L58.701 58.1344C58.6649 62.4513 60.9712 66.5523 64.827 68.7107L64.0342 66.2285L68.8629 65.1853L72.1782 68.8546ZM76.6826 54.8248L76.07 60.5806L70.4125 61.8037L67.4936 56.7674L71.3854 52.4506L76.6826 54.8248Z" fill="white"/>
</g>
<defs>
<clipPath id="clip0_24697_480580">
<rect width="354" height="99" fill="white"/>
</clipPath>
</defs>
</svg>
