<svg width="354" height="99" viewBox="0 0 354 99" fill="none" xmlns="http://www.w3.org/2000/svg">
<path d="M67.5582 5.48615L62.2377 4.86272L60.0105 0L57.9071 4.86272L52.5865 5.48615L56.546 8.97733L55.4324 14.2141L60.0105 11.5957L64.7124 14.2141L63.5988 8.97733L67.5582 5.48615Z" fill="white"/>
<path d="M107.771 5.48615L102.575 4.86272L100.347 0L98.244 4.86272L92.9235 5.48615L96.8829 8.97733L95.7693 14.2141L100.347 11.5957L105.049 14.2141L103.936 8.97733L107.771 5.48615Z" fill="white"/>
<path d="M87.603 5.48615L82.4062 4.86272L80.179 0L78.0755 4.86272L72.755 5.48615L76.7145 8.97733L75.6009 14.2141L80.179 11.5957L84.8808 14.2141L83.7672 8.97733L87.603 5.48615Z" fill="white"/>
<path d="M47.3898 5.48615L42.0693 4.86272L39.8421 0L37.7386 4.86272L32.4181 5.48615L36.3775 8.97733L35.2639 14.2141L39.8421 11.5957L44.5439 14.2141L43.4303 8.97733L47.3898 5.48615Z" fill="white"/>
<path d="M85.8498 67.686L90.291 70.2581C85.3201 76.9128 77.2934 80.3014 70 80.3014C57.4098 80.3014 44.8196 72.7485 44.8196 58.0509C44.8196 47.1502 54.3539 36.8619 70 36.8619C75.0116 36.8619 79.901 38.4541 82.631 39.6381L86.9499 37.1477V46.9461L83.6088 48.8649C80.5937 44.5781 75.6228 41.8019 70 41.8019C60.7916 41.8019 53.2945 49.2732 53.2945 58.5C53.2945 67.7268 60.7509 75.1981 70 75.1981C76.071 75.2389 81.8161 72.626 85.8498 67.686ZM140 58.5L70 99L0 58.5L70 18L140 58.5ZM69.9592 93.2026L129.936 58.5L109.93 46.9461L86.5425 60.5005C86.9092 57.3977 86.3795 54.2949 85.1164 51.5187L89.9651 48.7016V35.3513L69.9592 23.7974L9.98254 58.5L29.9884 70.0539L42.2119 62.9909C43.5157 69.6457 47.468 75.4839 54.0279 79.3216L49.9942 81.6487L69.9592 93.2026ZM69.4296 72.1361L71.5891 70.5847L67.8405 66.4204L62.3807 67.6043L63.2771 70.4214C58.9173 67.9718 56.3097 63.3175 56.3504 58.4183L58.3062 60.623L62.0547 56.4587L60.3434 51.1104L57.9395 52.1719C59.773 48.6608 63.0733 46.0887 66.9849 45.1905L70 46.9461L73.0151 45.1905C75.7858 45.8029 78.1898 47.2727 80.0233 49.2324V52.7026L83.0384 54.4582C83.8533 57.0302 83.8941 59.8473 83.0384 62.5418L80.0233 64.2974V67.7676C77.2526 70.7072 73.3818 72.2994 69.4296 72.1361ZM75.9895 61.1946L76.6822 54.6623L70.6927 51.9677L66.2922 56.8669L69.5925 62.5827L75.9895 61.1946Z" fill="white"/>
<path d="M169.019 33.6646C166.668 33.6646 165.555 32.5425 165.555 31.0462C165.555 29.55 166.668 28.4279 169.019 28.4279H170.38L169.514 26.9316H172.36V28.4279H173.721C176.072 28.4279 177.186 29.55 177.186 31.0462C177.186 32.5425 176.072 33.6646 173.721 33.6646H172.36V34.9115H170.257V33.6646H169.019ZM170.38 32.4178V29.7994H169.267C168.277 29.7994 167.658 30.4228 167.658 31.1709C167.658 31.919 168.277 32.5425 169.267 32.5425H170.38V32.4178ZM173.474 32.4178C174.463 32.4178 175.082 31.7944 175.082 31.0462C175.082 30.2981 174.463 29.6747 173.474 29.6747H172.36V32.4178H173.474Z" fill="white"/>
<path d="M177.557 27.0566H180.031L182.382 31.0466L184.61 27.0566H186.218L181.887 34.9118H180.155L181.145 33.0415L177.557 27.0566Z" fill="white"/>
<path d="M194.756 27.0566V28.5529H191.91V34.9118H189.93V28.5529H187.084V27.0566H194.756Z" fill="white"/>
<path d="M200.819 34.9118H196.735V28.5529L195.869 27.0566H203.417V28.5529H198.839V29.9244H200.942C203.169 29.9244 204.283 31.0466 204.283 32.4181C204.159 33.7896 203.046 34.9118 200.819 34.9118ZM200.571 33.665C201.561 33.665 202.18 33.1662 202.18 32.4181C202.18 31.7947 201.685 31.1712 200.571 31.1712H198.715V33.665H200.571Z" fill="white"/>
<path d="M214.924 31.0462C214.924 33.2906 213.068 35.1609 210.346 35.1609C207.624 35.1609 205.768 33.2906 205.768 31.0462C205.768 28.8019 207.624 26.9316 210.346 26.9316C212.944 26.9316 214.924 28.8019 214.924 31.0462ZM212.821 31.0462C212.821 29.55 211.707 28.4279 210.222 28.4279C208.737 28.4279 207.624 29.55 207.624 31.0462C207.624 32.5425 208.737 33.6646 210.222 33.6646C211.707 33.6646 212.821 32.5425 212.821 31.0462Z" fill="white"/>
<path d="M217.275 34.9118H215.667L218.512 28.4282L217.77 27.0566H221.358L224.699 34.9118H222.472L219.873 28.9269L217.275 34.9118Z" fill="white"/>
<path d="M230.267 29.675C232.618 29.675 233.732 30.7972 233.732 32.2934C233.732 33.7896 232.618 34.9118 230.267 34.9118H226.308V28.5529L225.442 27.0566H228.287V29.675H230.267ZM228.411 30.9219V33.665H230.143C231.133 33.665 231.752 33.0415 231.752 32.2934C231.752 31.5453 231.133 30.9219 230.143 30.9219H228.411Z" fill="white"/>
<path d="M243.506 34.9118H241.527V31.5453H237.691V34.9118H235.711V28.5529L234.845 27.0566H237.691V30.1738H241.527V27.0566H243.506V34.9118Z" fill="white"/>
<path d="M249.941 29.675C252.292 29.675 253.405 30.7972 253.405 32.2934C253.405 33.7896 252.292 34.9118 249.941 34.9118H246.352V28.5529L245.486 27.0566H248.332V29.675H249.941ZM248.332 30.9219V33.665H249.693C250.683 33.665 251.302 33.0415 251.302 32.2934C251.302 31.5453 250.683 30.9219 249.693 30.9219H248.332ZM256.622 34.9118H254.519V28.5529L253.653 27.0566H256.498V34.9118H256.622Z" fill="white"/>
<path d="M267.387 34.9117H265.283V29.3009L261.571 34.9117H259.344V28.5527L258.478 27.0565H261.324V32.6674L265.036 27.0565H267.263V34.9117H267.387ZM263.056 26.3084C261.943 26.3084 261.2 25.685 261.2 24.6875H262.685C262.685 25.1862 262.933 25.4356 263.304 25.4356H263.551C263.922 25.4356 264.17 25.1862 264.17 24.6875H265.655C265.655 25.685 265.036 26.3084 263.799 26.3084H263.056Z" fill="white"/>
<path d="M275.801 30.1738H276.543L279.265 27.0566H281.245L278.152 30.5478L281.492 34.9118H279.018L276.543 31.5453H275.801V34.9118H273.697V28.5529L272.831 27.0566H275.801V30.1738Z" fill="white"/>
<path d="M284.215 34.9118H282.482L285.452 28.4282L284.709 27.0566H288.174L291.639 34.9118H289.411L286.813 28.9269L284.215 34.9118Z" fill="white"/>
<path d="M291.267 27.0566H293.742L296.093 31.0466L298.32 27.0566H300.052L295.598 34.9118H293.866L294.979 33.0415L291.267 27.0566Z" fill="white"/>
<path d="M306.115 34.9118H301.908V28.5529L301.042 27.0566H308.59V28.5529H304.012V29.9244H306.115C308.342 29.9244 309.456 31.0466 309.456 32.4181C309.456 33.7896 308.342 34.9118 306.115 34.9118ZM305.868 33.665C306.858 33.665 307.476 33.1662 307.476 32.4181C307.476 31.7947 306.981 31.1712 305.868 31.1712H304.012V33.665H305.868Z" fill="white"/>
<path d="M180.155 81.5439V93.2644H177.062V85.6585L172.731 93.2644L168.401 85.6585V93.2644H166.297V83.7883L165.06 81.5439H169.885L173.35 87.9029L176.938 81.5439H180.155Z" fill="white"/>
<path d="M197.107 87.4045C197.107 90.771 194.261 93.5141 190.178 93.5141C186.094 93.5141 183.249 90.6463 183.249 87.4045C183.249 84.038 186.094 81.2949 190.178 81.2949C194.261 81.2949 197.107 84.1627 197.107 87.4045ZM193.89 87.4045C193.89 85.1602 192.281 83.4146 190.054 83.4146C187.95 83.4146 186.218 85.1602 186.218 87.4045C186.218 89.6488 187.827 91.3944 190.054 91.3944C192.281 91.3944 193.89 89.6488 193.89 87.4045Z" fill="white"/>
<path d="M202.303 87.4039C202.303 89.6482 204.036 91.3938 206.139 91.3938C208.861 91.3938 210.222 89.1495 210.222 89.1495L212.078 90.2716C212.078 90.2716 210.222 93.5134 206.015 93.5134C201.932 93.5134 199.086 90.6457 199.086 87.4039C199.086 84.0374 201.932 81.2943 206.015 81.2943C207.995 81.2943 209.356 81.9177 209.356 81.9177L210.965 81.0449V84.6608L209.604 85.5336C209.604 85.5336 208.49 83.5386 206.139 83.5386C204.036 83.4139 202.303 85.1595 202.303 87.4039Z" fill="white"/>
<path d="M217.77 86.1573H219.007L223.09 81.5439H226.06L221.358 86.7807L226.431 93.2644H222.596L219.007 88.2769H217.77V93.2644H214.677V83.7883L213.439 81.5439H217.77V86.1573Z" fill="white"/>
<path d="M237.691 86.9057C237.691 86.9057 240.289 87.5292 240.289 89.8982C240.289 91.6438 238.681 93.2647 235.464 93.2647H229.153V83.7886L227.916 81.6689H234.969C238.062 81.6689 239.547 83.0405 239.547 84.6614C239.423 86.1576 237.691 86.9057 237.691 86.9057ZM232.123 83.5392V86.1576H234.598C235.835 86.1576 236.454 85.5342 236.454 84.7861C236.454 84.038 235.835 83.4145 234.598 83.4145H232.123V83.5392ZM232.123 88.0279V91.3944H234.969C236.33 91.3944 237.072 90.6463 237.072 89.7735C237.072 88.9007 236.33 88.1526 234.969 88.1526H232.123V88.0279Z" fill="white"/>
<path d="M241.403 93.2647L245.734 83.5392L244.62 81.6689H249.941L255.014 93.3894H251.673L250.807 91.2697H244.868L244.001 93.3894H241.403V93.2647ZM245.734 89.0254H249.817L247.713 84.2873L245.734 89.0254Z" fill="white"/>
<path d="M169.514 58.2283C169.514 62.717 172.979 66.2082 177.309 66.2082C182.754 66.2082 185.476 61.8442 185.476 61.8442L189.311 64.0885C189.311 64.0885 185.476 70.5721 177.186 70.5721C168.895 70.5721 163.328 64.9613 163.328 58.2283C163.328 51.4953 168.895 45.8845 177.186 45.8845C181.145 45.8845 183.991 47.256 183.991 47.256L187.084 45.3857V52.6175L184.238 54.2384C184.238 54.2384 181.887 50.2485 177.309 50.2485C172.979 50.2485 169.514 53.7396 169.514 58.2283Z" fill="white"/>
<path d="M216.904 69.948H210.841V50.8711H200.571V69.948H194.384V50.8711L191.91 46.6318H216.904V69.948Z" fill="white"/>
<path d="M221.111 69.948L229.772 50.4971L227.669 46.6318H238.31L248.58 69.948H241.774L239.918 65.8333H228.04L226.184 69.948H221.111ZM229.772 61.4694H238.062L233.979 51.9933L229.772 61.4694Z" fill="white"/>
<path d="M263.304 46.6325C270.48 46.6325 274.068 50.2484 274.068 54.8617C274.068 59.3504 270.48 63.0909 263.304 63.0909H258.849V70.0733H252.786V50.8718L250.312 46.5078H263.304V46.6325ZM258.849 59.101H262.685C266.026 59.101 268.006 57.1061 268.006 54.737C268.006 52.368 266.026 50.3731 262.685 50.3731H258.849V59.101Z" fill="white"/>
<path d="M299.31 46.6318V50.8711H290.896V69.948H284.71V50.8711H278.028L275.43 46.6318H299.31Z" fill="white"/>
<path d="M299.062 69.948L307.724 50.4971L305.62 46.6318H316.261L326.531 69.948H319.726L317.87 65.8333H305.992L304.136 69.948H299.062ZM307.724 61.4694H316.014L311.931 51.9933L307.724 61.4694Z" fill="white"/>
<path d="M336.801 55.6092H339.276L347.318 46.6318H353.381L343.854 56.856L354 69.948H346.576L339.152 59.9731H336.801V69.948H330.615V50.8711L328.14 46.6318H336.801V55.6092Z" fill="white"/>
</svg>
