<svg width="286" height="79" viewBox="0 0 286 79" fill="none" xmlns="http://www.w3.org/2000/svg">
<g clip-path="url(#clip0_20904_429681)">
<path d="M136.552 26.864C134.653 26.864 133.753 25.9685 133.753 24.7746C133.753 23.5806 134.653 22.6852 136.552 22.6852H137.652L136.952 21.4912H139.251V22.6852H140.351C142.25 22.6852 143.15 23.5806 143.15 24.7746C143.15 25.9685 142.25 26.864 140.351 26.864H139.251V27.859H137.552V26.864H136.552ZM137.652 25.869V23.7796H136.752C135.953 23.7796 135.453 24.2771 135.453 24.8741C135.453 25.4711 135.953 25.9685 136.752 25.9685H137.652V25.869ZM140.151 25.869C140.951 25.869 141.451 25.3716 141.451 24.7746C141.451 24.1776 140.951 23.6801 140.151 23.6801H139.251V25.869H140.151Z" fill="white"/>
<path d="M143.45 21.5908H145.449L147.349 24.7747L149.148 21.5908H150.448L146.949 27.8591H145.549L146.349 26.3666L143.45 21.5908Z" fill="white"/>
<path d="M157.345 21.5908V22.7848H155.046V27.8591H153.447V22.7848H151.147V21.5908H157.345Z" fill="white"/>
<path d="M162.244 27.8591H158.945V22.7848L158.245 21.5908H164.343V22.7848H160.644V23.8792H162.344C164.143 23.8792 165.043 24.7747 165.043 25.8692C164.943 26.9636 164.043 27.8591 162.244 27.8591ZM162.044 26.8641C162.844 26.8641 163.343 26.4661 163.343 25.8692C163.343 25.3717 162.943 24.8742 162.044 24.8742H160.544V26.8641H162.044Z" fill="white"/>
<path d="M173.64 24.7746C173.64 26.5655 172.14 28.058 169.941 28.058C167.742 28.058 166.242 26.5655 166.242 24.7746C166.242 22.9837 167.742 21.4912 169.941 21.4912C172.04 21.4912 173.64 22.9837 173.64 24.7746ZM171.94 24.7746C171.94 23.5806 171.041 22.6852 169.841 22.6852C168.641 22.6852 167.742 23.5806 167.742 24.7746C167.742 25.9685 168.641 26.864 169.841 26.864C171.041 26.864 171.94 25.9685 171.94 24.7746Z" fill="white"/>
<path d="M175.539 27.8591H174.239L176.538 22.6853L175.939 21.5908H178.838L181.537 27.8591H179.737L177.638 23.0833L175.539 27.8591Z" fill="white"/>
<path d="M186.035 23.6802C187.935 23.6802 188.834 24.5757 188.834 25.7697C188.834 26.9636 187.935 27.8591 186.035 27.8591H182.836V22.7848L182.137 21.5908H184.436V23.6802H186.035ZM184.536 24.6752V26.8641H185.935C186.735 26.8641 187.235 26.3666 187.235 25.7697C187.235 25.1727 186.735 24.6752 185.935 24.6752H184.536Z" fill="white"/>
<path d="M196.731 27.8591H195.132V25.1727H192.033V27.8591H190.434V22.7848L189.734 21.5908H192.033V24.0782H195.132V21.5908H196.731V27.8591Z" fill="white"/>
<path d="M201.93 23.6802C203.829 23.6802 204.729 24.5757 204.729 25.7697C204.729 26.9636 203.829 27.8591 201.93 27.8591H199.031V22.7848L198.331 21.5908H200.63V23.6802H201.93ZM200.63 24.6752V26.8641H201.73C202.53 26.8641 203.029 26.3666 203.029 25.7697C203.029 25.1727 202.53 24.6752 201.73 24.6752H200.63ZM207.328 27.8591H205.629V22.7848L204.929 21.5908H207.228V27.8591H207.328Z" fill="white"/>
<path d="M216.025 27.8589H214.325V23.3816L211.326 27.8589H209.527V22.7846L208.827 21.5906H211.126V26.068L214.125 21.5906H215.925V27.8589H216.025ZM212.526 20.9936C211.626 20.9936 211.026 20.4962 211.026 19.7002H212.226C212.226 20.0982 212.426 20.2972 212.726 20.2972H212.926C213.226 20.2972 213.426 20.0982 213.426 19.7002H214.625C214.625 20.4962 214.125 20.9936 213.126 20.9936H212.526Z" fill="white"/>
<path d="M222.822 24.0782H223.422L225.622 21.5908H227.221L224.722 24.3767L227.421 27.8591H225.422L223.422 25.1727H222.822V27.8591H221.123V22.7848L220.423 21.5908H222.822V24.0782Z" fill="white"/>
<path d="M229.62 27.8591H228.22L230.619 22.6853L230.02 21.5908H232.819L235.618 27.8591H233.818L231.719 23.0833L229.62 27.8591Z" fill="white"/>
<path d="M235.318 21.5908H237.317L239.217 24.7747L241.016 21.5908H242.415L238.817 27.8591H237.417L238.317 26.3666L235.318 21.5908Z" fill="white"/>
<path d="M247.314 27.8591H243.915V22.7848L243.215 21.5908H249.313V22.7848H245.614V23.8792H247.314C249.113 23.8792 250.013 24.7747 250.013 25.8692C250.013 26.9636 249.113 27.8591 247.314 27.8591ZM247.114 26.8641C247.914 26.8641 248.414 26.4661 248.414 25.8692C248.414 25.3717 248.014 24.8742 247.114 24.8742H245.614V26.8641H247.114Z" fill="white"/>
<path d="M145.549 65.0703V74.423H143.05V68.3537L139.551 74.423L136.053 68.3537V74.423H134.353V66.8612L133.354 65.0703H137.252L140.051 70.1446L142.95 65.0703H145.549Z" fill="white"/>
<path d="M159.244 69.7469C159.244 72.4333 156.945 74.6222 153.646 74.6222C150.348 74.6222 148.048 72.3338 148.048 69.7469C148.048 67.0605 150.348 64.8716 153.646 64.8716C156.945 64.8716 159.244 67.16 159.244 69.7469ZM156.645 69.7469C156.645 67.956 155.346 66.563 153.546 66.563C151.847 66.563 150.447 67.956 150.447 69.7469C150.447 71.5378 151.747 72.9308 153.546 72.9308C155.346 72.9308 156.645 71.5378 156.645 69.7469Z" fill="white"/>
<path d="M163.443 69.7467C163.443 71.5376 164.842 72.9306 166.542 72.9306C168.741 72.9306 169.841 71.1396 169.841 71.1396L171.34 72.0351C171.34 72.0351 169.841 74.622 166.442 74.622C163.143 74.622 160.844 72.3336 160.844 69.7467C160.844 67.0603 163.143 64.8714 166.442 64.8714C168.041 64.8714 169.141 65.3688 169.141 65.3688L170.44 64.6724V67.5578L169.341 68.2542C169.341 68.2542 168.441 66.6623 166.542 66.6623C164.842 66.5628 163.443 67.9557 163.443 69.7467Z" fill="white"/>
<path d="M175.939 68.7517H176.938L180.237 65.0703H182.636L178.838 69.2492L182.936 74.423H179.837L176.938 70.4431H175.939V74.423H173.44V66.8612L172.44 65.0703H175.939V68.7517Z" fill="white"/>
<path d="M192.033 69.3488C192.033 69.3488 194.132 69.8462 194.132 71.7367C194.132 73.1296 192.833 74.4231 190.234 74.4231H185.135V66.8614L184.136 65.1699H189.834C192.333 65.1699 193.532 66.2644 193.532 67.5578C193.432 68.7518 192.033 69.3488 192.033 69.3488ZM187.535 66.6624V68.7518H189.534C190.534 68.7518 191.033 68.2543 191.033 67.6573C191.033 67.0604 190.534 66.5629 189.534 66.5629H187.535V66.6624ZM187.535 70.2442V72.9306H189.834C190.933 72.9306 191.533 72.3337 191.533 71.6372C191.533 70.9407 190.933 70.3437 189.834 70.3437H187.535V70.2442Z" fill="white"/>
<path d="M195.032 74.4231L198.531 66.6624L197.631 65.1699H201.93L206.028 74.5226H203.329L202.63 72.8311H197.831L197.131 74.5226H195.032V74.4231ZM198.531 71.0402H201.83L200.13 67.2593L198.531 71.0402Z" fill="white"/>
<path d="M136.952 46.4649C136.952 50.0468 139.751 52.8327 143.25 52.8327C147.649 52.8327 149.848 49.3503 149.848 49.3503L152.947 51.1412C152.947 51.1412 149.848 56.315 143.15 56.315C136.453 56.315 131.954 51.8377 131.954 46.4649C131.954 41.0921 136.453 36.6148 143.15 36.6148C146.349 36.6148 148.648 37.7092 148.648 37.7092L151.147 36.2168V41.9876L148.848 43.281C148.848 43.281 146.949 40.0971 143.25 40.0971C139.751 40.0971 136.952 42.883 136.952 46.4649Z" fill="white"/>
<path d="M175.239 55.8172H170.341V40.5943H162.043V55.8172H157.045V40.5943L155.046 37.2114H175.239V55.8172Z" fill="white"/>
<path d="M178.638 55.8172L185.635 40.2958L183.936 37.2114H192.533L200.83 55.8172H195.332L193.832 52.5338H184.236L182.736 55.8172H178.638ZM185.635 49.0515H192.333L189.034 41.4898L185.635 49.0515Z" fill="white"/>
<path d="M212.726 37.2113C218.524 37.2113 221.423 40.0967 221.423 43.7781C221.423 47.3599 218.524 50.3448 212.726 50.3448H209.127V55.9166H204.229V40.5942L202.229 37.1118H212.726V37.2113ZM209.127 47.1609H212.226C214.925 47.1609 216.525 45.569 216.525 43.6786C216.525 41.7881 214.925 40.1962 212.226 40.1962H209.127V47.1609Z" fill="white"/>
<path d="M241.816 37.2114V40.5943H235.018V55.8172H230.02V40.5943H224.622L222.522 37.2114H241.816Z" fill="white"/>
<path d="M241.616 55.8172L248.613 40.2958L246.914 37.2114H255.511L263.808 55.8172H258.31L256.81 52.5338H247.214L245.714 55.8172H241.616ZM248.613 49.0515H255.311L252.012 41.4898L248.613 49.0515Z" fill="white"/>
<path d="M272.105 44.3752H274.104L280.602 37.2114H285.5L277.803 45.3701L286 55.8172H280.002L274.004 47.8575H272.105V55.8172H267.107V40.5943L265.107 37.2114H272.105V44.3752Z" fill="white"/>
<path d="M56.226 4.33464L52.0062 3.87534L50.2551 0L48.5327 3.87534L44.2842 4.33464L47.4419 7.17656L46.5807 11.3677L50.2551 9.2147L53.9582 11.3677L53.0683 7.17656L56.226 4.33464Z" fill="#C5B783"/>
<path d="M88.6351 4.33464L84.4153 3.87534L82.6643 0L80.9419 3.87534L76.6934 4.33464L79.8797 7.17656L78.9899 11.3677L82.6643 9.2147L86.3673 11.3677L85.4775 7.17656L88.6351 4.33464Z" fill="#C5B783"/>
<path d="M72.4447 4.33464L68.1962 3.87534L66.4738 0L64.7227 3.87534L60.5029 4.33464L63.6606 7.17656L62.7707 11.3677L66.4738 9.2147L70.1482 11.3677L69.2583 7.17656L72.4447 4.33464Z" fill="#C5B783"/>
<path d="M40.0351 4.33464L35.7865 3.87534L34.0642 0L32.3131 3.87534L28.0933 4.33464L31.2509 7.17656L30.3611 11.3677L34.0642 9.2147L37.7386 11.3677L36.8487 7.17656L40.0351 4.33464Z" fill="#C5B783"/>
<path d="M58.3503 13.8945L2 46.4474L58.3503 79.0003L114.729 46.4474L58.3503 13.8945Z" fill="#C8102E"/>
<path d="M69.5451 52.9062L72.6741 54.7147C69.1719 59.3938 63.5168 61.7764 58.3784 61.7764C49.5081 61.7764 40.6379 56.4658 40.6379 46.1315C40.6379 38.467 47.3552 31.233 58.3784 31.233C61.9092 31.233 65.354 32.3525 67.2773 33.185L70.3202 31.4339V38.3234L67.9662 39.6726C65.842 36.6585 62.3398 34.7064 58.3784 34.7064C51.8907 34.7064 46.6088 39.9597 46.6088 46.4473C46.6088 52.9349 51.862 58.1881 58.3784 58.1881C62.6556 58.2168 66.7032 56.3797 69.5451 52.9062ZM107.696 46.4473L58.3784 74.9239L9.06104 46.4473L58.3784 17.9707L107.696 46.4473ZM58.3496 70.8476L100.605 46.4473L86.5105 38.3234L70.0331 47.8539C70.2914 45.6722 69.9183 43.4905 69.0284 41.5385L72.4444 39.5578V30.1709L58.3496 22.047L16.0941 46.4473L30.1888 54.5712L38.8007 49.605C39.7193 54.2841 42.5038 58.3891 47.1255 61.0875L44.2836 62.7237L58.3496 70.8476ZM57.9765 56.0352L59.4979 54.9443L56.8569 52.0163L53.0103 52.8488L53.6418 54.8295C50.5703 53.1071 48.7331 49.8346 48.7618 46.3899L50.1397 47.94L52.7806 45.012L51.575 41.2515L49.8813 41.9978C51.1731 39.5291 53.4983 37.7206 56.2541 37.0891L58.3784 38.3234L60.5026 37.0891C62.4546 37.5197 64.1483 38.5531 65.4401 39.931V42.371L67.5644 43.6054C68.1385 45.4139 68.1672 47.3946 67.5644 49.2892L65.4401 50.5236V52.9636C63.4881 55.0304 60.761 56.15 57.9765 56.0352ZM62.5982 48.3419L63.0862 43.7489L58.8664 41.8543L55.7661 45.299L58.0913 49.3179L62.5982 48.3419Z" fill="white"/>
</g>
<defs>
<clipPath id="clip0_20904_429681">
<rect width="286" height="79" fill="white"/>
</clipPath>
</defs>
</svg>
