<svg width="239" height="43" viewBox="0 0 239 43" fill="none" xmlns="http://www.w3.org/2000/svg">
<rect x="1" y="1" width="237" height="40.32" rx="9" fill="#FA541C" stroke="white" stroke-width="2"/>
<path d="M80.7402 28.7637H91.9375V33H75.4668V7.40625H80.7402V28.7637ZM114.877 20.7832C114.877 23.3027 114.432 25.5117 113.541 27.4102C112.65 29.3086 111.373 30.7734 109.709 31.8047C108.057 32.8359 106.158 33.3516 104.014 33.3516C101.893 33.3516 100 32.8418 98.3359 31.8223C96.6719 30.8027 95.3828 29.3496 94.4688 27.4629C93.5547 25.5645 93.0918 23.3848 93.0801 20.9238V19.6582C93.0801 17.1387 93.5312 14.9238 94.4336 13.0137C95.3477 11.0918 96.6309 9.62109 98.2832 8.60156C99.9473 7.57031 101.846 7.05469 103.979 7.05469C106.111 7.05469 108.004 7.57031 109.656 8.60156C111.32 9.62109 112.604 11.0918 113.506 13.0137C114.42 14.9238 114.877 17.1328 114.877 19.6406V20.7832ZM109.533 19.623C109.533 16.9395 109.053 14.9004 108.092 13.5059C107.131 12.1113 105.76 11.4141 103.979 11.4141C102.209 11.4141 100.844 12.1055 99.8828 13.4883C98.9219 14.8594 98.4355 16.875 98.4238 19.5352V20.7832C98.4238 23.3965 98.9043 25.4238 99.8652 26.8652C100.826 28.3066 102.209 29.0273 104.014 29.0273C105.783 29.0273 107.143 28.3359 108.092 26.9531C109.041 25.5586 109.521 23.5312 109.533 20.8711V19.623ZM138.959 29.7656C138.01 30.9023 136.668 31.7871 134.934 32.4199C133.199 33.041 131.277 33.3516 129.168 33.3516C126.953 33.3516 125.008 32.8711 123.332 31.9102C121.668 30.9375 120.379 29.5312 119.465 27.6914C118.562 25.8516 118.1 23.6895 118.076 21.2051V19.4648C118.076 16.9102 118.504 14.7012 119.359 12.8379C120.227 10.9629 121.469 9.5332 123.086 8.54883C124.715 7.55273 126.619 7.05469 128.799 7.05469C131.834 7.05469 134.207 7.78125 135.918 9.23438C137.629 10.6758 138.643 12.7793 138.959 15.5449H133.826C133.592 14.0801 133.07 13.0078 132.262 12.3281C131.465 11.6484 130.363 11.3086 128.957 11.3086C127.164 11.3086 125.799 11.9824 124.861 13.3301C123.924 14.6777 123.449 16.6816 123.438 19.3418V20.9766C123.438 23.6602 123.947 25.6875 124.967 27.0586C125.986 28.4297 127.48 29.1152 129.449 29.1152C131.43 29.1152 132.842 28.6934 133.686 27.8496V23.4375H128.887V19.5527H138.959V29.7656ZM164.271 20.7832C164.271 23.3027 163.826 25.5117 162.936 27.4102C162.045 29.3086 160.768 30.7734 159.104 31.8047C157.451 32.8359 155.553 33.3516 153.408 33.3516C151.287 33.3516 149.395 32.8418 147.73 31.8223C146.066 30.8027 144.777 29.3496 143.863 27.4629C142.949 25.5645 142.486 23.3848 142.475 20.9238V19.6582C142.475 17.1387 142.926 14.9238 143.828 13.0137C144.742 11.0918 146.025 9.62109 147.678 8.60156C149.342 7.57031 151.24 7.05469 153.373 7.05469C155.506 7.05469 157.398 7.57031 159.051 8.60156C160.715 9.62109 161.998 11.0918 162.9 13.0137C163.814 14.9238 164.271 17.1328 164.271 19.6406V20.7832ZM158.928 19.623C158.928 16.9395 158.447 14.9004 157.486 13.5059C156.525 12.1113 155.154 11.4141 153.373 11.4141C151.604 11.4141 150.238 12.1055 149.277 13.4883C148.316 14.8594 147.83 16.875 147.818 19.5352V20.7832C147.818 23.3965 148.299 25.4238 149.26 26.8652C150.221 28.3066 151.604 29.0273 153.408 29.0273C155.178 29.0273 156.537 28.3359 157.486 26.9531C158.436 25.5586 158.916 23.5312 158.928 20.8711V19.623Z" fill="white"/>
</svg>
