<svg width="24" height="24" viewBox="0 0 24 24" fill="none" xmlns="http://www.w3.org/2000/svg">
<path d="M19.6443 7.53748L16.4895 10.4998L19.4895 18.7498L17.2395 20.9998L12.7575 14.4392L10.4895 16.4998V18.7498L8.2395 20.9998L6.90896 17.076L2.9895 15.7498L5.2395 13.4998H7.4895L9.7395 11.2498L2.9895 6.7498L5.2395 4.4998L13.4895 7.4998L16.4624 4.3555L16.3985 4.40881C16.6074 4.1995 16.8554 4.03341 17.1285 3.92003C17.4016 3.80665 17.6943 3.74821 17.99 3.74805C18.2857 3.74788 18.5785 3.806 18.8517 3.91908C19.1249 4.03216 19.3732 4.19798 19.5822 4.40706C19.7913 4.61614 19.9571 4.86438 20.0702 5.13758C20.1833 5.41079 20.2414 5.7036 20.2412 5.99928C20.2411 6.29497 20.1826 6.58772 20.0693 6.8608C19.9559 7.13388 19.7898 7.38194 19.5805 7.59078L19.6443 7.53748Z" stroke="#A5ACB8" stroke-width="2" stroke-linecap="round" stroke-linejoin="round"/>
</svg>
