<svg width="24" height="24" viewBox="0 0 24 24" fill="none" xmlns="http://www.w3.org/2000/svg">
<path d="M18.323 22.1716C17.1242 23.3328 15.8016 23.1518 14.5408 22.6043C13.2005 22.0457 11.9752 22.0104 10.5596 22.6043C8.79679 23.3637 7.8612 23.1429 6.79954 22.1716C0.805555 16.0122 1.69028 6.62956 8.50262 6.27633C10.1548 6.36464 11.3116 7.1881 12.2848 7.25654C13.7313 6.96292 15.1159 6.1218 16.6642 6.23218C18.5243 6.3823 19.9155 7.11525 20.8445 8.43323C17.0181 10.7292 17.9249 15.7627 21.4395 17.1756C20.7361 19.019 19.8337 20.8403 18.3208 22.187L18.323 22.1716ZM12.1521 6.2101C11.9729 3.47259 14.1958 1.22077 16.7526 1C17.1043 4.15697 13.8773 6.51918 12.1521 6.2101Z" fill="black"/>
</svg>
