<svg width="57" height="46" viewBox="0 0 57 46" fill="none" xmlns="http://www.w3.org/2000/svg">
<rect width="57" height="46" fill="#CC122D"/>
<path d="M25.5 16.25V29.75" stroke="white" stroke-width="2" stroke-linecap="round" stroke-linejoin="round"/>
<path d="M18.75 26.6741C18.75 26.5013 18.8097 26.3338 18.919 26.2C19.0284 26.0662 19.1806 25.9744 19.3499 25.94C20.0275 25.8016 20.6365 25.4334 21.0738 24.8976C21.5111 24.3619 21.75 23.6916 21.75 23C21.75 22.3084 21.5111 21.6381 21.0738 21.1024C20.6365 20.5666 20.0275 20.1984 19.3499 20.06C19.1806 20.0256 19.0284 19.9338 18.919 19.8C18.8097 19.6662 18.75 19.4987 18.75 19.3259V17C18.75 16.8011 18.829 16.6103 18.9697 16.4697C19.1103 16.329 19.3011 16.25 19.5 16.25H37.5C37.6989 16.25 37.8897 16.329 38.0303 16.4697C38.171 16.6103 38.25 16.8011 38.25 17V19.3259C38.25 19.4987 38.1903 19.6662 38.081 19.8C37.9716 19.9338 37.8194 20.0256 37.6501 20.06C36.9725 20.1984 36.3635 20.5667 35.9262 21.1024C35.4889 21.6381 35.25 22.3084 35.25 23C35.25 23.6916 35.4889 24.3619 35.9262 24.8976C36.3635 25.4334 36.9725 25.8016 37.6501 25.94C37.8194 25.9744 37.9716 26.0662 38.081 26.2C38.1903 26.3338 38.25 26.5013 38.25 26.6741V29C38.25 29.1989 38.171 29.3897 38.0303 29.5303C37.8897 29.671 37.6989 29.75 37.5 29.75H19.5C19.3011 29.75 19.1103 29.671 18.9697 29.5303C18.829 29.3897 18.75 29.1989 18.75 29V26.6741Z" stroke="white" stroke-width="2" stroke-linecap="round" stroke-linejoin="round"/>
</svg>
