<svg width="24" height="24" viewBox="0 0 24 24" fill="none" xmlns="http://www.w3.org/2000/svg">
<g clip-path="url(#clip0_5390_100334)">
<path d="M22.7664 12.2478C22.7664 11.5237 22.7022 10.8362 22.5922 10.167H12.2339V14.3012H18.1647C17.8989 15.6578 17.1197 16.8037 15.9647 17.5828V20.3328H19.5031C21.5747 18.417 22.7664 15.5937 22.7664 12.2478Z" fill="#4285F4"/>
<path d="M12.234 23.0004C15.204 23.0004 17.6882 22.0104 19.5032 20.3329L15.9648 17.5829C14.9748 18.2429 13.719 18.6463 12.234 18.6463C9.36484 18.6463 6.93567 16.7121 6.06484 14.0996H2.4165V16.9321C4.22234 20.5254 7.93484 23.0004 12.234 23.0004Z" fill="#34A853"/>
<path d="M6.06472 14.0992C5.83555 13.4392 5.71639 12.7334 5.71639 12C5.71639 11.2667 5.84472 10.5609 6.06472 9.90086V7.06836H2.41639C1.66472 8.55336 1.23389 10.2217 1.23389 12C1.23389 13.7784 1.66472 15.4467 2.41639 16.9317L6.06472 14.0992Z" fill="#FBBC05"/>
<path d="M12.234 5.35417C13.8565 5.35417 15.3048 5.91334 16.4507 7.00417L19.5857 3.86917C17.6882 2.09083 15.204 1 12.234 1C7.93484 1 4.22234 3.475 2.4165 7.06834L6.06484 9.90084C6.93567 7.28834 9.36484 5.35417 12.234 5.35417Z" fill="#EA4335"/>
</g>
<defs>
<clipPath id="clip0_5390_100334">
<rect width="22" height="22" fill="white" transform="translate(1 1)"/>
</clipPath>
</defs>
</svg>
