<svg width="32" height="23" viewBox="0 0 32 23" fill="none" xmlns="http://www.w3.org/2000/svg">
<path d="M0.8875 15.12V9.88H9.4075V15.12H0.8875ZM12.2347 4.32C12.2347 3.30667 12.5814 2.44 13.2747 1.72C13.9947 0.999999 14.9014 0.639998 15.9947 0.639998C17.088 0.639998 17.9947 0.999999 18.7147 1.72C19.4347 2.44 19.7947 3.30667 19.7947 4.32C19.7947 5.33333 19.4347 6.21333 18.7147 6.96C17.9947 7.68 17.088 8.04 15.9947 8.04C14.9014 8.04 13.9947 7.68 13.2747 6.96C12.5814 6.21333 12.2347 5.33333 12.2347 4.32ZM12.2347 19.28C12.2347 18.2667 12.5814 17.4 13.2747 16.68C13.9947 15.9333 14.9014 15.56 15.9947 15.56C17.088 15.56 17.9947 15.9333 18.7147 16.68C19.4347 17.4 19.7947 18.2667 19.7947 19.28C19.7947 20.2933 19.4347 21.16 18.7147 21.88C17.9947 22.6 17.088 22.96 15.9947 22.96C14.9014 22.96 13.9947 22.6 13.2747 21.88C12.5814 21.16 12.2347 20.2933 12.2347 19.28ZM22.6453 15.12V9.88H31.1653V15.12H22.6453Z" fill="#5C6168"/>
</svg>
