<svg width="24" height="24" viewBox="0 0 24 24" fill="none" xmlns="http://www.w3.org/2000/svg">
<path fill-rule="evenodd" clip-rule="evenodd" d="M23.0795 5.13227C22.263 5.49261 21.3869 5.73724 20.4679 5.84634C21.4068 5.28434 22.1274 4.39176 22.4646 3.33058C21.5853 3.85291 20.6134 4.22978 19.5786 4.43474C18.7489 3.55208 17.5687 3 16.2596 3C13.7504 3 11.714 5.0364 11.714 7.54554C11.714 7.90257 11.7537 8.24969 11.833 8.58027C8.05443 8.39184 4.70561 6.58023 2.46424 3.82977C2.07415 4.50086 1.84935 5.28104 1.84935 6.11411C1.84935 7.691 2.65268 9.08276 3.87253 9.896C3.12872 9.87286 2.42788 9.6679 1.81299 9.32739C1.81299 9.34723 1.81299 9.36376 1.81299 9.38359C1.81299 11.5853 3.37996 13.4233 5.45934 13.8399C5.07917 13.9424 4.67585 13.9986 4.26262 13.9986C3.9684 13.9986 3.6841 13.9688 3.40641 13.9159C3.98493 15.7209 5.6643 17.0366 7.65112 17.073C6.09406 18.2929 4.137 19.0201 2.00473 19.0201C1.63778 19.0201 1.27744 18.997 0.92041 18.9573C2.93037 20.2466 5.3205 21.0003 7.88914 21.0003C16.2496 21.0003 20.8216 14.0746 20.8216 8.06787C20.8216 7.86952 20.8183 7.67447 20.8084 7.47943C21.6977 6.83809 22.4679 6.03808 23.0762 5.12566L23.0795 5.13227Z" fill="#41ABE1"/>
</svg>
