<svg width="24" height="24" viewBox="0 0 24 24" fill="none" xmlns="http://www.w3.org/2000/svg">
<path d="M6.6875 18.25H6.8335C7.0057 17.4115 7.30892 16.6403 7.74316 15.9365C8.17741 15.2327 8.70524 14.6263 9.32666 14.1172C9.94808 13.6081 10.6481 13.2113 11.4268 12.9268C12.2054 12.6423 13.0215 12.5 13.875 12.5C14.5339 12.5 15.1702 12.5861 15.7842 12.7583C16.3981 12.9305 16.9709 13.1701 17.5024 13.4771C18.034 13.784 18.5169 14.1584 18.9512 14.6001C19.3854 15.0418 19.7598 15.5285 20.0742 16.0601C20.3887 16.5916 20.632 17.1644 20.8042 17.7783C20.9764 18.3923 21.0625 19.0286 21.0625 19.6875H22.5C22.5 18.7891 22.369 17.9243 22.1069 17.0933C21.8449 16.2622 21.4668 15.4948 20.9727 14.791C20.4785 14.0872 19.8945 13.4621 19.2207 12.9155C18.5469 12.369 17.7832 11.9385 16.9297 11.624C17.7757 11.07 18.4346 10.3737 18.9062 9.53516C19.3779 8.69661 19.6175 7.76823 19.625 6.75C19.625 5.95638 19.4753 5.21143 19.1758 4.51514C18.8763 3.81885 18.4683 3.20866 17.9517 2.68457C17.4351 2.16048 16.8249 1.7487 16.1211 1.44922C15.4173 1.14974 14.6686 1 13.875 1C13.0814 1 12.3364 1.14974 11.6401 1.44922C10.9438 1.7487 10.3337 2.15674 9.80957 2.67334C9.28548 3.18994 8.8737 3.80013 8.57422 4.50391C8.27474 5.20768 8.125 5.95638 8.125 6.75C8.125 7.24414 8.1849 7.72705 8.30469 8.19873C8.42448 8.67041 8.60417 9.11589 8.84375 9.53516C9.08333 9.95443 9.3641 10.34 9.68604 10.6919C10.008 11.0438 10.3861 11.3545 10.8203 11.624C9.98177 11.946 9.21061 12.3877 8.50684 12.9492C7.80306 13.5107 7.19661 14.1696 6.6875 14.9258V18.25ZM18.1875 6.75C18.1875 7.34896 18.0752 7.90674 17.8506 8.42334C17.626 8.93994 17.319 9.39665 16.9297 9.79346C16.5404 10.1903 16.0837 10.501 15.5596 10.7256C15.0355 10.9502 14.474 11.0625 13.875 11.0625C13.2835 11.0625 12.7257 10.9502 12.2017 10.7256C11.6776 10.501 11.2209 10.194 10.8315 9.80469C10.4422 9.41536 10.1315 8.95866 9.89941 8.43457C9.66732 7.91048 9.55501 7.34896 9.5625 6.75C9.5625 6.15853 9.6748 5.60075 9.89941 5.07666C10.124 4.55257 10.431 4.09587 10.8203 3.70654C11.2096 3.31722 11.6701 3.00651 12.2017 2.77441C12.7332 2.54232 13.291 2.43001 13.875 2.4375C14.474 2.4375 15.0317 2.5498 15.5483 2.77441C16.0649 2.99902 16.5216 3.30599 16.9185 3.69531C17.3153 4.08464 17.626 4.54508 17.8506 5.07666C18.0752 5.60824 18.1875 6.16602 18.1875 6.75ZM3.8125 19.6875H0.9375V21.125H3.8125V24H5.25V21.125H8.125V19.6875H5.25V16.8125H3.8125V19.6875Z" />
</svg>
