<svg width="24" height="24" viewBox="0 0 24 24" fill="none" xmlns="http://www.w3.org/2000/svg">
<path d="M6.52157 3.17449C6.52157 4.18822 6.65098 5.166 6.9098 6.10783C7.16863 7.04966 7.54248 7.92678 8.03137 8.7392C8.52026 9.55162 9.09543 10.2957 9.75686 10.9716C10.4183 11.6474 11.1624 12.2261 11.9892 12.7078C12.816 13.1895 13.6967 13.5598 14.6314 13.8186C15.566 14.0774 16.5438 14.2104 17.5647 14.2176C18.5209 14.2176 19.4591 14.0954 20.3794 13.851C21.2997 13.6065 22.1732 13.2506 23 12.7833C22.885 13.7036 22.6657 14.5843 22.3422 15.4255C22.0186 16.2667 21.6052 17.0467 21.102 17.7657C20.5987 18.4846 20.0199 19.1353 19.3657 19.7176C18.7114 20.3 17.9961 20.7961 17.2196 21.2059C16.4431 21.6157 15.6199 21.9356 14.75 22.1657C13.8801 22.3957 12.9778 22.5072 12.0431 22.5C11.0294 22.5 10.0516 22.3706 9.1098 22.1117C8.16797 21.8529 7.29085 21.4791 6.47843 20.9902C5.66601 20.5013 4.9219 19.9261 4.24608 19.2647C3.57026 18.6033 2.9915 17.8591 2.5098 17.0323C2.02811 16.2055 1.65784 15.3248 1.39902 14.3902C1.1402 13.4555 1.00719 12.4778 1 11.4568C1 10.4647 1.12941 9.49769 1.38824 8.55586C1.64706 7.61403 2.01732 6.72972 2.49902 5.90292C2.98072 5.07613 3.57026 4.31403 4.26765 3.61665C4.96503 2.91926 5.7451 2.32972 6.60784 1.84802C6.57909 2.0709 6.55752 2.29018 6.54314 2.50586C6.52876 2.72155 6.52157 2.94443 6.52157 3.17449ZM2.38039 11.4568C2.38039 12.3483 2.49543 13.2039 2.72549 14.0235C2.95556 14.8431 3.27909 15.6124 3.69608 16.3314C4.11307 17.0503 4.61634 17.701 5.20588 18.2833C5.79543 18.8657 6.44608 19.3689 7.15784 19.7931C7.86961 20.2173 8.63889 20.5444 9.46569 20.7745C10.2925 21.0046 11.1516 21.1196 12.0431 21.1196C13.0209 21.1196 13.9663 20.9758 14.8794 20.6882C15.7925 20.4006 16.6408 19.998 17.4245 19.4804C18.2082 18.9627 18.9056 18.33 19.5167 17.5823C20.1278 16.8346 20.6167 16.0114 20.9833 15.1127C19.869 15.4363 18.7294 15.598 17.5647 15.598C16.515 15.598 15.5013 15.4722 14.5235 15.2206C13.5458 14.9689 12.6183 14.6095 11.7412 14.1421C10.8641 13.6748 10.0552 13.1104 9.31471 12.449C8.57418 11.7876 7.91994 11.0506 7.35196 10.2382C6.78399 9.4258 6.32026 8.54868 5.96079 7.60685C5.60131 6.66502 5.35686 5.66926 5.22745 4.61959C4.30719 5.53985 3.60262 6.58234 3.11373 7.74704C2.62484 8.91175 2.38039 10.1483 2.38039 11.4568Z" />
</svg>
