<svg width="69" height="35" viewBox="0 0 69 35" fill="none" xmlns="http://www.w3.org/2000/svg">
<path d="M45.9434 20.4725H31.4808C32.1594 22.3456 33.7894 23.2821 36.3698 23.2821C38.0263 23.2821 39.3293 22.7746 40.2807 21.7565L45.1697 24.5268C43.1861 27.2841 40.2254 28.6615 36.2879 28.6615C32.8929 28.6615 30.15 27.6576 28.0591 25.6506C26.0224 23.6437 25.0034 21.1151 25.0034 18.0638C25.0034 15.067 26.0079 12.5515 28.0182 10.5173C30.0549 8.48316 32.6619 7.46606 35.8402 7.46606C38.7997 7.46606 41.2586 8.48316 43.2135 10.5173C45.1961 12.4981 46.1874 15.0125 46.1874 18.0638C46.1877 18.9208 46.1058 19.7233 45.9434 20.4725ZM31.3592 15.9762H40.1172C39.5204 13.8626 38.0805 12.8052 35.7994 12.8052C33.4367 12.8052 31.9559 13.8626 31.3592 15.9762Z" fill="white"/>
<path d="M58.2041 13.3274H65.21L69 8.02856H61.9924L58.2041 13.3274Z" fill="#FF0024"/>
<path d="M68.751 28.1002H61.7434L58.2013 23.1255L54.6593 28.1002H47.6518L54.6981 18.2273L54.696 18.2245L47.4033 8.02856H54.4109L58.1992 13.3274L58.2013 13.3303L58.2034 13.3274L61.7066 18.2245L61.7045 18.2273L68.751 28.1002Z" fill="white"/>
<path d="M21.5427 18.0646C21.5427 18.0643 21.5426 18.0637 21.5426 18.0632V0H15.4313V8.99281C14.439 8.0151 12.4585 7.46691 10.7877 7.46691C4.84789 7.46691 0.0327148 12.2117 0.0327148 18.0646C0.0327148 23.9176 4.84789 28.6624 10.7877 28.6624C12.7014 28.6624 14.1679 28.1847 15.4313 27.1338V28.1004H21.5426V18.0659C21.5426 18.0655 21.5427 18.065 21.5427 18.0646ZM10.7877 22.5249C8.28772 22.5249 6.26123 20.528 6.26123 18.0646C6.26123 15.6013 8.28772 13.6043 10.7877 13.6043C13.2876 13.6043 15.3142 15.6013 15.3142 18.0646C15.3142 20.528 13.2876 22.5249 10.7877 22.5249Z" fill="white"/>
</svg>
