<svg width="24" height="24" viewBox="0 0 24 24" fill="none" xmlns="http://www.w3.org/2000/svg">
<circle cx="12.0555" cy="12.0662" r="11.3968" fill="#C8122D"/>
<path d="M7.77518 16.9223C5.18026 11.1683 11.4196 8.00444 14.5202 8.13266L13.7052 10.2373C13.7052 10.2373 15.5779 10.4774 16.1378 11.6655C16.6977 12.8536 17.5625 17.3202 17.5991 18.1443C17.6356 18.9683 12.548 18.8838 10.882 18.4087C10.882 18.4087 10.0886 19.9954 8.08808 20.4866C8.08808 20.4866 8.66455 19.6857 8.50426 18.8838C8.34397 18.0819 7.77518 16.9223 7.77518 16.9223Z" fill="#7D0006"/>
<path d="M14.169 12.5686L15.4242 9.37333C15.4388 9.33612 15.485 9.32314 15.5164 9.34782C16.6368 10.2267 17.1943 11.6464 17.5718 12.9008C17.582 12.9348 17.5608 12.97 17.526 12.9771L15.7341 13.3439C15.6947 13.352 15.674 13.3956 15.6927 13.4313L16.3151 14.6165C16.3256 14.6364 16.3462 14.6489 16.3687 14.6489H17.8258C17.8509 14.6489 17.8733 14.6642 17.8822 14.6877C18.3465 15.9208 18.8442 17.5396 20.0165 17.9029C20.073 17.9204 20.0822 18.0006 20.0273 18.0226C19.4782 18.2425 17.7511 18.8506 16.409 18.4092C14.9737 17.9372 14.2486 17.0444 13.3633 15.8089C13.3249 15.7554 13.3891 15.6854 13.4464 15.7178C14.3737 16.2415 15.5895 16.6955 16.1206 16.3236C16.1441 16.3071 16.15 16.2754 16.1363 16.2501L14.1721 12.6195C14.1636 12.6038 14.1624 12.5852 14.169 12.5686Z" fill="white"/>
<path d="M7.1253 17.4367L6.18071 18.9107C-1.00941 12.7882 6.18072 2.15545 16.2318 3.74373L14.9057 7.15367C10.2777 6.74109 3.80739 11.2843 7.1253 17.4367Z" fill="white"/>
</svg>
