<svg xmlns="http://www.w3.org/2000/svg">
  <g id="FirstHalfOfAdditionalTimeStart">
    <path d="M3.75 13C3.75 17.5563 7.44365 21.25 12 21.25C16.5563 21.25 20.25 17.5563 20.25 13C20.25 8.44365 16.5563 4.75 12 4.75C8.82571 4.75 6.07014 6.54273 4.69052 9.17095" stroke="#CC122D" stroke-width="2" stroke-miterlimit="10" stroke-linecap="round"/>
    <path d="M9.75 1.75H14.25" stroke="#CC122D" stroke-width="2" stroke-linecap="round" stroke-linejoin="round"/>
    <path d="M8.63729 8.29518L4.34207 9.63725L3 5.34204" stroke="#CC122D" stroke-width="2" stroke-linecap="round" stroke-linejoin="round"/>
    <path d="M11.5001 16.25C11.5001 16.6642 11.8359 17 12.2501 17C12.6644 17 13.0001 16.6642 13.0001 16.25V9.77941C13.0001 9.34895 12.6512 9 12.2207 9C12.0765 9 11.9351 9.04002 11.8123 9.11561L11.0001 9.61538L10.5 9.92308L10.4759 9.93791C10.1802 10.1199 10 10.4423 10 10.7896V10.8462C10 11.4848 10.6988 11.8774 11.2442 11.5453L11.5001 11.3894V16.25Z" fill="#CC122D"/>
  </g>

  <g id="GetPenalty">
    <path fill-rule="evenodd" clip-rule="evenodd" d="M8.36872 2.67985C8.7403 2.53497 9.12268 2.41167 9.51431 2.31149C10.309 2.1082 11.1419 2.00012 12 2.00012C12.8581 2.00012 13.691 2.1082 14.4857 2.31149C14.8773 2.41167 15.2597 2.53497 15.6313 2.67985C17.1082 3.2557 18.4146 4.17247 19.4537 5.33346C19.7266 5.63841 19.9811 5.96021 20.2154 6.2971C21.291 7.84357 21.9411 9.70813 21.9962 11.7213C21.9987 11.8139 22 11.9069 22 12.0001C22 12.3227 21.9847 12.6418 21.9549 12.9566C21.9546 12.9587 21.9544 12.9609 21.9542 12.963C20.7953 11.1796 18.7854 10.0001 16.5 10.0001C15.3025 10.0001 14.1807 10.3239 13.2173 10.8888L11.9636 9.98462L9.88964 11.2981L10.725 13.5139C10.2912 14.3511 10.0342 15.2947 10.0032 16.2952L9.20121 17.255L9.78831 19.6905C10.1748 19.8014 10.5732 19.884 10.9812 19.9359C11.486 20.745 12.1638 21.4351 12.9629 21.9544C12.646 21.9846 12.3248 22.0001 12 22.0001C11.0361 22.0001 10.1041 21.8638 9.22222 21.6093C8.8372 21.4982 8.46172 21.3645 8.09731 21.2099C6.46317 20.5166 5.05154 19.401 3.99927 18.0001C3.7596 17.6811 3.53858 17.3472 3.33782 17.0001C2.57798 15.6866 2.10833 14.1842 2.01656 12.5805C2.00557 12.3885 2 12.1949 2 12.0001C2 11.7782 2.00723 11.5579 2.02147 11.3395C2.13694 9.56896 2.71321 7.92411 3.63152 6.52369C3.85278 6.18627 4.09389 5.86305 4.3532 5.55568C5.42156 4.28929 6.79879 3.29196 8.36872 2.67985ZM9.09524 4.54322L9.10572 4.53914L11 6.03934V8.22755L8.53261 9.79023L6.67146 9.16985L5.8674 6.86219C6.72385 5.84078 7.83104 5.03613 9.09524 4.54322ZM13 8.26617V6.03934L14.8943 4.53915L14.9048 4.54322C16.1097 5.01301 17.1719 5.76597 18.0104 6.71989L17.2969 9.1804L15.2252 9.87098L13 8.26617ZM12 4.00012C12.1154 4.00012 12.2302 4.00255 12.3443 4.00737L12 4.28006L11.6557 4.00737C11.7698 4.00255 11.8846 4.00012 12 4.00012ZM19.2603 9.59061L19.4261 9.01897C19.5489 9.32473 19.6534 9.6398 19.7382 9.9628L19.2603 9.59061ZM7.32353 18.0001L7.4663 18.5923C7.20169 18.41 6.9486 18.2122 6.70835 18.0001H7.32353ZM7.64351 16.0001H5.07026C4.45491 14.9364 4.07746 13.7178 4.01068 12.4171L6.03665 11.0664L7.89889 11.6872L8.93995 14.4484L7.64351 16.0001ZM4.68971 9.56068L4.30066 9.82005C4.36819 9.58106 4.44656 9.34658 4.53519 9.1172L4.68971 9.56068Z" fill="#C8122D"/>
    <path d="M15 20V14H19V20" stroke="#C8122D" stroke-width="1.5" stroke-linecap="round"/>
  </g>

  <g id="PenaltyShootoutStart">
    <path d="M12 21C16.9706 21 21 16.9706 21 12C21 7.02944 16.9706 3 12 3C7.02944 3 3 7.02944 3 12C3 16.9706 7.02944 21 12 21Z" stroke="currentColor" stroke-width="2" stroke-miterlimit="10"/>
    <path d="M9.50014 15.25C9.50014 15.6642 9.83592 16 10.2501 16C10.6644 16 11.0001 15.6642 11.0001 15.25V8.77941C11.0001 8.34895 10.6512 8 10.2207 8C10.0765 8 9.9351 8.04002 9.81226 8.11561L9.00007 8.61538L8.50003 8.92308L8.47593 8.93791C8.18017 9.11991 8 9.44231 8 9.78958V9.84615C8 10.4848 8.69876 10.8774 9.24421 10.5453L9.50014 10.3894V15.25Z" fill="currentColor"/>
    <path d="M13.5 15.25C13.5 15.6642 13.8358 16 14.25 16C14.6642 16 15 15.6642 15 15.25V8.77941C15 8.34895 14.651 8 14.2206 8C14.0764 8 13.935 8.04002 13.8121 8.11561L12.9999 8.61538L12.4999 8.92308L12.4758 8.93791C12.18 9.11991 11.9999 9.44231 11.9999 9.78958V9.84615C11.9999 10.4848 12.6986 10.8774 13.2441 10.5453L13.5 10.3894V15.25Z" fill="currentColor"/>
  </g>

  <g id="MatchEnd">
    <path d="M3.71123 16.9472C3.5876 16.4305 3.52198 15.8899 3.52198 15.3333C3.52198 12.92 4.75593 10.8061 6.60392 9.63599L10.52 7.45455C10.52 7.45455 11.6863 8.99275 13.4359 8.06061C15.1854 7.12846 14.6022 5.0303 14.6022 5.0303L20.4339 2L22.9999 6.84848L18.1012 10.4848C16.8527 11.345 16.3517 12.9091 16.3517 15.3333C16.3517 19.0152 13.5428 22 10 22C8.07936 22 6.29273 21.1228 5.11708 19.7329M3.71123 16.9472L2.20767 17.859C1.52299 18.2742 1.26633 19.1419 1.61499 19.8628V19.8628C2.01265 20.6849 3.03052 20.988 3.81311 20.5172L5.11708 19.7329M3.71123 16.9472C3.96212 17.9959 4.45191 18.9465 5.11708 19.7329" stroke="currentColor" stroke-width="2" stroke-linecap="round" stroke-linejoin="round"/>
    <circle cx="10" cy="15" r="3" stroke="currentColor" stroke-width="2"/>
  </g>

  <g id="MatchStart">
    <path d="M12 22.25C16.5563 22.25 20.25 18.5563 20.25 14C20.25 9.44365 16.5563 5.75 12 5.75C7.44365 5.75 3.75 9.44365 3.75 14C3.75 18.5563 7.44365 22.25 12 22.25Z" stroke="currentColor" stroke-width="2" stroke-miterlimit="10"/>
    <path d="M12 13.9999L15.7123 10.2876" stroke="currentColor" stroke-width="2" stroke-linecap="round" stroke-linejoin="round"/>
    <path d="M9.75 2.75H14.25" stroke="currentColor" stroke-width="2" stroke-linecap="round" stroke-linejoin="round"/>
  </g>

  <g id="MissedPenalty">
    <path d="M10.6682 3.78115L2.20701 18.6506C2.07162 18.8885 2.00022 19.1585 2 19.4334C1.99978 19.7083 2.07074 19.9785 2.20574 20.2166C2.34074 20.4548 2.53502 20.6526 2.76904 20.7901C3.00306 20.9276 3.26855 21 3.53882 21H20.4612C20.7314 21 20.9969 20.9276 21.231 20.7901C21.465 20.6526 21.6593 20.4548 21.7943 20.2166C21.9293 19.9785 22.0002 19.7083 22 19.4334C21.9998 19.1585 21.9284 18.8885 21.793 18.6506L13.3318 3.78115C13.1966 3.5436 13.0024 3.34638 12.7687 3.20928C12.5349 3.07217 12.2698 3 12 3C11.7302 3 11.4651 3.07217 11.2313 3.20928C10.9976 3.34638 10.8034 3.5436 10.6682 3.78115V3.78115Z" stroke="#CC122D" stroke-width="2" stroke-linecap="round" stroke-linejoin="round"/>
    <path fill-rule="evenodd" clip-rule="evenodd" d="M12 8C12.5523 8 13 8.44772 13 9V14C13 14.5523 12.5523 15 12 15C11.4477 15 11 14.5523 11 14V9C11 8.44772 11.4477 8 12 8Z" fill="#CC122D"/>
    <path d="M13.1004 17.1C13.1004 17.7075 12.6079 18.2 12.0004 18.2C11.3929 18.2 10.9004 17.7075 10.9004 17.1C10.9004 16.4925 11.3929 16 12.0004 16C12.6079 16 13.1004 16.4925 13.1004 17.1Z" fill="#CC122D"/>
  </g>

  <g id="PenaltyShootoutStart">
    <path d="M12 21C16.9706 21 21 16.9706 21 12C21 7.02944 16.9706 3 12 3C7.02944 3 3 7.02944 3 12C3 16.9706 7.02944 21 12 21Z" stroke="currentColor" stroke-width="2" stroke-miterlimit="10"/>
    <path d="M9.50014 15.25C9.50014 15.6642 9.83592 16 10.2501 16C10.6644 16 11.0001 15.6642 11.0001 15.25V8.77941C11.0001 8.34895 10.6512 8 10.2207 8C10.0765 8 9.9351 8.04002 9.81226 8.11561L9.00007 8.61538L8.50003 8.92308L8.47593 8.93791C8.18017 9.11991 8 9.44231 8 9.78958V9.84615C8 10.4848 8.69876 10.8774 9.24421 10.5453L9.50014 10.3894V15.25Z" fill="currentColor"/>
    <path d="M13.5 15.25C13.5 15.6642 13.8358 16 14.25 16C14.6642 16 15 15.6642 15 15.25V8.77941C15 8.34895 14.651 8 14.2206 8C14.0764 8 13.935 8.04002 13.8121 8.11561L12.9999 8.61538L12.4999 8.92308L12.4758 8.93791C12.18 9.11991 11.9999 9.44231 11.9999 9.78958V9.84615C11.9999 10.4848 12.6986 10.8774 13.2441 10.5453L13.5 10.3894V15.25Z" fill="currentColor"/>
  </g>

  <g id="RedCard">
    <path d="M8.47664 4.35189L18.6326 6.48122L15.8298 19.8493L5.67385 17.7199L8.47664 4.35189Z" fill="#CC122D" fill-opacity="0.1" stroke="#CC122D" stroke-width="2" stroke-linecap="round" stroke-linejoin="round"/>
  </g>

  <g id="Replace">
    <path d="M7.48437 9.34839L2.98437 9.34839L2.98438 4.84839" stroke="#A2141B" stroke-width="2" stroke-linecap="round" stroke-linejoin="round"/>
    <path d="M17.8336 6.16637C17.0675 5.40029 16.1581 4.7926 15.1571 4.37799C14.1562 3.96339 13.0834 3.75 12 3.75C10.9166 3.75 9.84378 3.96339 8.84285 4.37799C7.84191 4.7926 6.93244 5.40029 6.16635 6.16637L2.98437 9.34835" stroke="#A2141B" stroke-width="2" stroke-linecap="round" stroke-linejoin="round"/>
    <path d="M16.5156 14.6516L21.0156 14.6516L21.0156 19.1516" stroke="#05C84A" stroke-width="2" stroke-linecap="round" stroke-linejoin="round"/>
    <path d="M6.16602 17.8336C6.9321 18.5997 7.84157 19.2074 8.84251 19.622C9.84344 20.0366 10.9162 20.25 11.9996 20.25C13.0831 20.25 14.1558 20.0366 15.1568 19.622C16.1577 19.2074 17.0672 18.5997 17.8333 17.8336L21.0153 14.6516" stroke="#05C84A" stroke-width="2" stroke-linecap="round" stroke-linejoin="round"/>
  </g>

  <g id="SecondHalfOfAdditionalTimeStart">
    <path d="M3.75 13C3.75 17.5563 7.44365 21.25 12 21.25C16.5563 21.25 20.25 17.5563 20.25 13C20.25 8.44365 16.5563 4.75 12 4.75C8.82571 4.75 6.07014 6.54273 4.69052 9.17095" stroke="#CC122D" stroke-width="2" stroke-miterlimit="10" stroke-linecap="round"/>
    <path d="M9.75 1.75H14.25" stroke="#CC122D" stroke-width="2" stroke-linecap="round" stroke-linejoin="round"/>
    <path d="M8.63729 8.29518L4.34207 9.63725L3 5.34204" stroke="#CC122D" stroke-width="2" stroke-linecap="round" stroke-linejoin="round"/>
    <path d="M10.021 12.2049C9.99413 12.5071 10.1574 12.7892 10.4158 12.9482C10.4709 12.9821 10.5342 13 10.5989 13H10.7798C10.9203 13 11.0547 12.9421 11.1512 12.8399C11.2407 12.7451 11.289 12.6194 11.295 12.4891C11.3218 11.9127 11.4785 11.4893 11.9883 11.4893C12.7008 11.4893 12.6362 12.0591 12.6362 12.4947C12.6362 12.9136 11.7897 13.7055 11.7247 13.7657C11.7218 13.7684 11.7194 13.7707 11.7165 13.7734L10.3156 15.0884C10.1142 15.2774 10 15.5413 10 15.8175V16C10 16.5523 10.4477 17 11 17H13.1923C13.6384 17 14 16.6384 14 16.1923C14 15.7463 13.6384 15.3847 13.1923 15.3847H11.946L13.4416 13.7697C13.8718 13.2308 14.072 12.522 13.8718 11.6153C13.6193 10.4719 13.0114 10.0002 11.946 10C10.572 9.99977 10.1171 11.1219 10.021 12.2049Z" fill="#CC122D"/>
  </g>

  <g id="SecondPeriodStart">
    <path d="M19.25 13C19.25 12.4477 19.6977 12 20.25 12C20.8023 12 21.25 12.4477 21.25 13H19.25ZM20.1949 8.70616C20.4516 9.19517 20.2633 9.79968 19.7743 10.0564C19.2853 10.3131 18.6807 10.1247 18.4241 9.63573L20.1949 8.70616ZM4.75 13C4.75 17.0041 7.99594 20.25 12 20.25V22.25C6.89137 22.25 2.75 18.1086 2.75 13H4.75ZM12 20.25C16.0041 20.25 19.25 17.0041 19.25 13H21.25C21.25 18.1086 17.1086 22.25 12 22.25V20.25ZM12 5.75C7.99594 5.75 4.75 8.99594 4.75 13H2.75C2.75 7.89137 6.89137 3.75 12 3.75V5.75ZM18.4241 9.63573C17.2103 7.32356 14.7881 5.75 12 5.75V3.75C15.5605 3.75 18.6494 5.76189 20.1949 8.70616L18.4241 9.63573Z" fill="#05C84A"/>
    <path d="M9.75 1.75H14.25" stroke="#05C84A" stroke-width="2" stroke-linecap="round" stroke-linejoin="round"/>
    <path d="M14.9994 8.29518L19.2946 9.63725L20.6367 5.34204" stroke="#05C84A" stroke-width="1.5" stroke-linecap="round" stroke-linejoin="round"/>
    <path d="M10.021 11.7049C9.99413 12.0071 10.1574 12.2892 10.4158 12.4482C10.4709 12.4821 10.5342 12.5 10.5989 12.5H10.7798C10.9203 12.5 11.0547 12.4421 11.1512 12.3399C11.2407 12.2451 11.289 12.1194 11.295 11.9891C11.3218 11.4127 11.4785 10.9893 11.9883 10.9893C12.7008 10.9893 12.6362 11.5591 12.6362 11.9947C12.6362 12.4136 11.7897 13.2055 11.7247 13.2657C11.7218 13.2684 11.7194 13.2707 11.7165 13.2734L10.3156 14.5884C10.1142 14.7774 10 15.0413 10 15.3175V15.5C10 16.0523 10.4477 16.5 11 16.5H13.1923C13.6384 16.5 14 16.1384 14 15.6923C14 15.2463 13.6384 14.8847 13.1923 14.8847H11.946L13.4416 13.2697C13.8718 12.7308 14.072 12.022 13.8718 11.1153C13.6193 9.97187 13.0114 9.50018 11.946 9.5C10.572 9.49977 10.1171 10.6219 10.021 11.7049Z" fill="#05C84A"/>
  </g>

  <g id="SecondYellowCard">
    <path d="M5.1617 7.28062L15.2447 9.56369L12.5537 21.4486L2.47064 19.1655L5.1617 7.28062Z" fill="#FFBD3E" fill-opacity="0.4" stroke="#FFBD3E" stroke-width="2" stroke-linecap="round" stroke-linejoin="round"/>
    <mask id="path-2-inside-1_5582_71784" fill="white">
    <path fill-rule="evenodd" clip-rule="evenodd" d="M9.21885 5.7536L17.1664 7.55314C17.7051 7.6751 18.0429 8.21064 17.9209 8.74929L16.0284 17.1072L18.0081 17.5555C18.5467 17.6775 19.0822 17.3397 19.2042 16.801L21.8953 4.91611C22.0172 4.37746 21.6794 3.84193 21.1408 3.71997L11.2136 1.47218C10.6749 1.35021 10.1394 1.688 10.0174 2.22665L9.21885 5.7536Z"/>
    </mask>
    <path fill-rule="evenodd" clip-rule="evenodd" d="M9.21885 5.7536L17.1664 7.55314C17.7051 7.6751 18.0429 8.21064 17.9209 8.74929L16.0284 17.1072L18.0081 17.5555C18.5467 17.6775 19.0822 17.3397 19.2042 16.801L21.8953 4.91611C22.0172 4.37746 21.6794 3.84193 21.1408 3.71997L11.2136 1.47218C10.6749 1.35021 10.1394 1.688 10.0174 2.22665L9.21885 5.7536Z" fill="#CC122D" fill-opacity="0.4"/>
    <path d="M9.21885 5.7536L7.26823 5.31192C7.0243 6.38922 7.69988 7.46029 8.77718 7.70422L9.21885 5.7536ZM17.9209 8.74929L19.8715 9.19096L17.9209 8.74929ZM16.0284 17.1072L14.0778 16.6656C13.9607 17.1829 14.0538 17.7256 14.3368 18.1742C14.6198 18.6229 15.0694 18.9407 15.5868 19.0579L16.0284 17.1072ZM18.0081 17.5555L18.4497 15.6049L18.0081 17.5555ZM19.2042 16.801L21.1548 17.2427L19.2042 16.801ZM21.8953 4.91611L19.9447 4.47444L21.8953 4.91611ZM21.1408 3.71997L21.5825 1.76934L21.1408 3.71997ZM11.2136 1.47218L10.7719 3.4228L11.2136 1.47218ZM17.6081 5.60252L9.66052 3.80297L8.77718 7.70422L16.7247 9.50376L17.6081 5.60252ZM19.8715 9.19096C20.2374 7.57501 19.224 5.96841 17.6081 5.60252L16.7247 9.50376C16.1861 9.3818 15.8483 8.84626 15.9703 8.30761L19.8715 9.19096ZM17.9791 17.5489L19.8715 9.19096L15.9703 8.30761L14.0778 16.6656L17.9791 17.5489ZM15.5868 19.0579L17.5664 19.5061L18.4497 15.6049L16.4701 15.1566L15.5868 19.0579ZM17.5664 19.5061C19.1823 19.872 20.7889 18.8586 21.1548 17.2427L17.2536 16.3593C17.3756 15.8207 17.9111 15.4829 18.4497 15.6049L17.5664 19.5061ZM21.1548 17.2427L23.8459 5.35779L19.9447 4.47444L17.2536 16.3593L21.1548 17.2427ZM23.8459 5.35779C24.2118 3.74184 23.1984 2.13524 21.5825 1.76934L20.6991 5.67059C20.1605 5.54862 19.8227 5.01309 19.9447 4.47444L23.8459 5.35779ZM21.5825 1.76934L11.6553 -0.478442L10.7719 3.4228L20.6991 5.67059L21.5825 1.76934ZM11.6553 -0.478442C10.0393 -0.844336 8.43272 0.16903 8.06682 1.78498L11.9681 2.66833C11.8461 3.20698 11.3106 3.54477 10.7719 3.4228L11.6553 -0.478442ZM8.06682 1.78498L7.26823 5.31192L11.1695 6.19527L11.9681 2.66833L8.06682 1.78498Z" fill="#CC122D" mask="url(#path-2-inside-1_5582_71784)"/>
  </g>

  <g id="TextTranslation">
    <path d="M12 15C11.4477 15 11 15.4477 11 16C11 16.5523 11.4477 17 12 17V15ZM5.10982 15.9616L5.30491 14.9808L5.10982 15.9616ZM19.9142 15.4142L20.6213 16.1213L19.9142 15.4142ZM19.9142 4.58579L20.6213 3.87868L19.9142 4.58579ZM7.5 5H16.5V3H7.5V5ZM19.5 8V12H21.5V8H19.5ZM4.5 13.5V8H2.5V13.5H4.5ZM16.5 15H12V17H16.5V15ZM2.5 13.5C2.5 13.9167 2.49516 14.2711 2.55764 14.5853L4.51921 14.1951C4.50484 14.1228 4.5 14.0126 4.5 13.5H2.5ZM6 15C5.48741 15 5.37716 14.9952 5.30491 14.9808L4.91473 16.9424C5.22888 17.0048 5.58328 17 6 17V15ZM2.55764 14.5853C2.79436 15.7753 3.72466 16.7056 4.91473 16.9424L5.30491 14.9808C4.90822 14.9019 4.59812 14.5918 4.51921 14.1951L2.55764 14.5853ZM19.5 12C19.5 12.9711 19.4979 13.5988 19.4357 14.0613C19.3774 14.495 19.2832 14.631 19.2071 14.7071L20.6213 16.1213C21.131 15.6117 21.3297 14.9833 21.4179 14.3278C21.5021 13.701 21.5 12.9145 21.5 12H19.5ZM16.5 17C17.4145 17 18.201 17.0021 18.8278 16.9179C19.4833 16.8297 20.1117 16.631 20.6213 16.1213L19.2071 14.7071C19.131 14.7832 18.995 14.8774 18.5613 14.9357C18.0988 14.9979 17.4711 15 16.5 15V17ZM16.5 5C17.4711 5 18.0988 5.00212 18.5613 5.06431C18.995 5.12262 19.131 5.21677 19.2071 5.29289L20.6213 3.87868C20.1117 3.36902 19.4833 3.17027 18.8278 3.08214C18.201 2.99788 17.4145 3 16.5 3V5ZM21.5 8C21.5 7.08546 21.5021 6.29896 21.4179 5.67221C21.3297 5.01669 21.131 4.38834 20.6213 3.87868L19.2071 5.29289C19.2832 5.36902 19.3774 5.50496 19.4357 5.9387C19.4979 6.40121 19.5 7.02892 19.5 8H21.5ZM7.5 3C6.58546 3 5.79896 2.99788 5.17221 3.08214C4.51669 3.17027 3.88834 3.36902 3.37868 3.87868L4.79289 5.29289C4.86902 5.21677 5.00496 5.12262 5.4387 5.06431C5.90121 5.00212 6.52892 5 7.5 5V3ZM4.5 8C4.5 7.02892 4.50212 6.40121 4.56431 5.9387C4.62262 5.50496 4.71677 5.36902 4.79289 5.29289L3.37868 3.87868C2.86902 4.38834 2.67027 5.01669 2.58214 5.67221C2.49788 6.29896 2.5 7.08546 2.5 8H4.5Z" fill="currentColor"/>
    <path d="M6 16V20L12 16" stroke="currentColor" stroke-width="2" stroke-linecap="round" stroke-linejoin="round"/>
  </g>

  <g id="TimeAddStart">
    <path d="M19.25 13C19.25 12.4477 19.6977 12 20.25 12C20.8023 12 21.25 12.4477 21.25 13H19.25ZM20.1949 8.70616C20.4516 9.19517 20.2633 9.79968 19.7743 10.0564C19.2853 10.3131 18.6807 10.1247 18.4241 9.63573L20.1949 8.70616ZM4.75 13C4.75 17.0041 7.99594 20.25 12 20.25V22.25C6.89137 22.25 2.75 18.1086 2.75 13H4.75ZM12 20.25C16.0041 20.25 19.25 17.0041 19.25 13H21.25C21.25 18.1086 17.1086 22.25 12 22.25V20.25ZM12 5.75C7.99594 5.75 4.75 8.99594 4.75 13H2.75C2.75 7.89137 6.89137 3.75 12 3.75V5.75ZM18.4241 9.63573C17.2103 7.32356 14.7881 5.75 12 5.75V3.75C15.5605 3.75 18.6494 5.76189 20.1949 8.70616L18.4241 9.63573Z" fill="#05C84A"/>
    <path d="M9.75 1.75H14.25" stroke="#05C84A" stroke-width="2" stroke-linecap="round" stroke-linejoin="round"/>
    <path d="M14.9994 8.29518L19.2946 9.63725L20.6367 5.34204" stroke="#05C84A" stroke-width="2" stroke-linecap="round" stroke-linejoin="round"/>
    <path d="M12 10V13.4286V16" stroke="#05C84A" stroke-width="2" stroke-linecap="round"/>
    <path d="M15 13H11.5714H9" stroke="#05C84A" stroke-width="2" stroke-linecap="round"/>
  </g>

  <g id="Timeout">
    <path d="M12 21C16.9706 21 21 16.9706 21 12C21 7.02944 16.9706 3 12 3C7.02944 3 3 7.02944 3 12C3 16.9706 7.02944 21 12 21Z" stroke="currentColor" stroke-width="2" stroke-miterlimit="10"/>
    <path d="M10.1509 15V9.12328" stroke="currentColor" stroke-width="2" stroke-linecap="round" stroke-linejoin="round"/>
    <path d="M13.6216 14.8767V8.99999" stroke="currentColor" stroke-width="2" stroke-linecap="round" stroke-linejoin="round"/>
  </g>

  <g id="Var">
    <path d="M6.17676 20H18.3532" stroke="currentColor" stroke-width="2" stroke-linecap="round"/>
    <rect x="3" y="4" width="18" height="13" rx="2" stroke="currentColor" stroke-width="2"/>
    <path d="M7.5004 13.6367C8.09641 13.6367 8.62438 13.2523 8.80735 12.685L10.0743 8.75729C10.195 8.38316 9.91597 8 9.52285 8C9.27342 8 9.05199 8.15962 8.97314 8.39626L7.69705 12.2261C7.63678 12.407 7.38162 12.409 7.31856 12.2291L5.97046 8.38275C5.8901 8.15348 5.67367 8 5.43073 8C5.04106 8 4.76548 8.38118 4.88764 8.75121L6.18696 12.6871C6.37405 13.2539 6.90357 13.6367 7.5004 13.6367Z" fill="currentColor"/>
    <path d="M13.5872 13.3103C13.6872 13.5104 13.8916 13.6367 14.1153 13.6367C14.5364 13.6367 14.8221 13.2084 14.6603 12.8195L12.8994 8.58819C12.7512 8.23204 12.4033 8 12.0176 8C11.6213 8 11.2662 8.24471 11.125 8.61503L9.49536 12.8914C9.35826 13.2511 9.62396 13.6367 10.009 13.6367C10.2308 13.6367 10.431 13.5033 10.5163 13.2985L10.9491 12.2598C10.9801 12.1853 11.053 12.1367 11.1337 12.1367H12.8769C12.9526 12.1367 13.0219 12.1795 13.0558 12.2473L13.5872 13.3103ZM11.8247 9.65045C11.8849 9.4745 12.1316 9.46869 12.2 9.64162L12.7462 11.0233C12.7981 11.1546 12.7013 11.2969 12.5602 11.2969H11.5416C11.4044 11.2969 11.308 11.162 11.3523 11.0322L11.8247 9.65045Z" fill="currentColor"/>
    <path d="M16.1941 9.13115C16.1941 9.02069 16.2837 8.93115 16.3941 8.93115H17.0005C17.7271 8.93115 18.0005 9.01084 18.0005 9.68662C18.0005 10.378 17.8945 10.5347 17.1719 10.5347H16.3941C16.2837 10.5347 16.1941 10.4452 16.1941 10.3347V9.13115ZM16.1941 11.6561C16.1941 11.5457 16.2837 11.4561 16.3941 11.4561H16.7835C16.8617 11.4561 16.9327 11.5018 16.9653 11.5729L17.7796 13.3509C17.8594 13.525 18.0334 13.6367 18.2249 13.6367C18.5849 13.6367 18.8219 13.2615 18.6672 12.9364L18.0094 11.5544C17.9571 11.4447 18.0149 11.3151 18.1242 11.2619C18.6944 10.9845 19.0005 10.3886 19.0005 9.68662C19.0005 8.67099 18.317 8 17.231 8H16.1332C15.5809 8 15.1332 8.44772 15.1332 9V13.1062C15.1332 13.3992 15.3707 13.6367 15.6637 13.6367C15.9566 13.6367 16.1941 13.3992 16.1941 13.1062V11.6561Z" fill="currentColor"/>
  </g>

  <g id="YellowCard">
    <path d="M8.47664 4.35189L18.6326 6.48122L15.8298 19.8493L5.67385 17.7199L8.47664 4.35189Z" fill="#FFBD3E" fill-opacity="0.4" stroke="#FFBD3E" stroke-width="2" stroke-linecap="round" stroke-linejoin="round"/>
  </g>

  <g id="Goal">
    <path fill-rule="evenodd" clip-rule="evenodd" d="M7.51431 0.311372C7.12268 0.41155 6.7403 0.534849 6.36872 0.679727C4.79879 1.29184 3.42156 2.28917 2.3532 3.55556C2.09389 3.86293 1.85278 4.18615 1.63152 4.52357C0.713207 5.92398 0.136941 7.56884 0.0214729 9.33939C0.00723189 9.55776 0 9.77803 0 10C0 10.1948 0.00557099 10.3883 0.0165624 10.5804C0.108334 12.184 0.577977 13.6865 1.33782 15C1.53858 15.3471 1.7596 15.6809 1.99927 16C3.05154 17.4009 4.46317 18.5165 6.09731 19.2098C6.46172 19.3644 6.8372 19.498 7.22222 19.6091C8.10414 19.8636 9.03615 20 10 20C10.8941 20 11.7609 19.8826 12.5857 19.6625C12.9673 19.5606 13.3399 19.4368 13.7022 19.2923C15.2136 18.6896 16.5434 17.7289 17.5869 16.5148C17.8485 16.2104 18.0921 15.8901 18.3161 15.5556C19.2128 14.2159 19.7944 12.6475 19.9549 10.9565C19.9847 10.6417 20 10.3226 20 10C20 9.90675 19.9987 9.8138 19.9962 9.72116C19.9411 7.70801 19.291 5.84344 18.2154 4.29698C17.9811 3.96008 17.7266 3.63828 17.4537 3.33333C16.4146 2.17235 15.1082 1.25557 13.6313 0.679727C13.2597 0.534849 12.8773 0.41155 12.4857 0.311372C11.691 0.108081 10.8581 0 10 0C9.1419 0 8.30905 0.108081 7.51431 0.311372ZM7.10572 2.53902C7.10223 2.54038 7.09873 2.54174 7.09524 2.5431C5.83104 3.03601 4.72385 3.84065 3.8674 4.86207L4.67146 7.16973L6.53261 7.79011L9 6.22743V4.03921L7.10572 2.53902ZM11 4.03921V6.26605L13.2252 7.87086L15.2969 7.18028L16.0104 4.71976C15.1719 3.76585 14.1097 3.01289 12.9048 2.5431C12.9013 2.54174 12.8978 2.54038 12.8943 2.53902L11 4.03921ZM10.3443 2.00724C10.2302 2.00243 10.1154 2 10 2C9.88458 2 9.76979 2.00243 9.65567 2.00724L10 2.27994L10.3443 2.00724ZM17.4261 7.01885L17.2603 7.59048L17.7382 7.96268C17.6534 7.63967 17.5489 7.32461 17.4261 7.01885ZM17.9716 10.6794L15.9192 9.08102L13.8432 9.77301L12.9235 12.488L14.1781 14.3132L16.6446 14.4567C17.3819 13.3597 17.8546 12.0701 17.9716 10.6794ZM14.8586 16.3562L14.4094 16.3301L14.3116 16.7399C14.4994 16.6195 14.6819 16.4914 14.8586 16.3562ZM12.0156 17.7439L12.5554 15.4832L11.2895 13.6416H8.54915L7.20121 15.2549L7.78831 17.6903C8.49073 17.892 9.23275 18 10 18C10.6962 18 11.3717 17.9111 12.0156 17.7439ZM5.4663 16.5922L5.32353 16H4.70835C4.9486 16.2121 5.20169 16.4099 5.4663 16.5922ZM3.07026 14H5.64351L6.93995 12.4483L5.89888 9.68705L4.03665 9.06631L2.01068 10.417C2.07746 11.7176 2.45491 12.9362 3.07026 14ZM2.30066 7.81993L2.68971 7.56056L2.53519 7.11708C2.44656 7.34646 2.36819 7.58093 2.30066 7.81993ZM7.88964 9.29803L8.77323 11.6416H11.0986L11.8714 9.36038L9.96364 7.98449L7.88964 9.29803Z" fill="#C8122D"/>
  </g>

  <g id="AutoGoal">
    <path fill-rule="evenodd" clip-rule="evenodd" d="M7.51431 0.311372C7.12268 0.41155 6.7403 0.534849 6.36872 0.679727C4.79879 1.29184 3.42156 2.28917 2.3532 3.55556C2.09389 3.86293 1.85278 4.18615 1.63152 4.52357C0.713207 5.92398 0.136941 7.56884 0.0214729 9.33939C0.00723189 9.55776 0 9.77803 0 10C0 10.1948 0.00557099 10.3883 0.0165624 10.5804C0.108334 12.184 0.577977 13.6865 1.33782 15C1.53858 15.3471 1.7596 15.6809 1.99927 16C3.05154 17.4009 4.46317 18.5165 6.09731 19.2098C6.46172 19.3644 6.8372 19.498 7.22222 19.6091C8.10414 19.8636 9.03615 20 10 20C10.8941 20 11.7609 19.8826 12.5857 19.6625C12.9673 19.5606 13.3399 19.4368 13.7022 19.2923C15.2136 18.6896 16.5434 17.7289 17.5869 16.5148C17.8485 16.2104 18.0921 15.8901 18.3161 15.5556C19.2128 14.2159 19.7944 12.6475 19.9549 10.9565C19.9847 10.6417 20 10.3226 20 10C20 9.90675 19.9987 9.8138 19.9962 9.72116C19.9411 7.70801 19.291 5.84344 18.2154 4.29698C17.9811 3.96008 17.7266 3.63828 17.4537 3.33333C16.4146 2.17235 15.1082 1.25557 13.6313 0.679727C13.2597 0.534849 12.8773 0.41155 12.4857 0.311372C11.691 0.108081 10.8581 0 10 0C9.1419 0 8.30905 0.108081 7.51431 0.311372ZM7.10572 2.53902C7.10223 2.54038 7.09873 2.54174 7.09524 2.5431C5.83104 3.03601 4.72385 3.84065 3.8674 4.86207L4.67146 7.16973L6.53261 7.79011L9 6.22743V4.03921L7.10572 2.53902ZM11 4.03921V6.26605L13.2252 7.87086L15.2969 7.18028L16.0104 4.71976C15.1719 3.76585 14.1097 3.01289 12.9048 2.5431C12.9013 2.54174 12.8978 2.54038 12.8943 2.53902L11 4.03921ZM10.3443 2.00724C10.2302 2.00243 10.1154 2 10 2C9.88458 2 9.76979 2.00243 9.65567 2.00724L10 2.27994L10.3443 2.00724ZM17.4261 7.01885L17.2603 7.59048L17.7382 7.96268C17.6534 7.63967 17.5489 7.32461 17.4261 7.01885ZM17.9716 10.6794L15.9192 9.08102L13.8432 9.77301L12.9235 12.488L14.1781 14.3132L16.6446 14.4567C17.3819 13.3597 17.8546 12.0701 17.9716 10.6794ZM14.8586 16.3562L14.4094 16.3301L14.3116 16.7399C14.4994 16.6195 14.6819 16.4914 14.8586 16.3562ZM12.0156 17.7439L12.5554 15.4832L11.2895 13.6416H8.54915L7.20121 15.2549L7.78831 17.6903C8.49073 17.892 9.23275 18 10 18C10.6962 18 11.3717 17.9111 12.0156 17.7439ZM5.4663 16.5922L5.32353 16H4.70835C4.9486 16.2121 5.20169 16.4099 5.4663 16.5922ZM3.07026 14H5.64351L6.93995 12.4483L5.89888 9.68705L4.03665 9.06631L2.01068 10.417C2.07746 11.7176 2.45491 12.9362 3.07026 14ZM2.30066 7.81993L2.68971 7.56056L2.53519 7.11708C2.44656 7.34646 2.36819 7.58093 2.30066 7.81993ZM7.88964 9.29803L8.77323 11.6416H11.0986L11.8714 9.36038L9.96364 7.98449L7.88964 9.29803Z" fill="#C8122D"/>
  </g>

  <g id="GoalPenaltyInGameTime">
    <path fill-rule="evenodd" clip-rule="evenodd" d="M8.36872 2.67973C8.7403 2.53485 9.12268 2.41155 9.51431 2.31137C10.309 2.10808 11.1419 2 12 2C12.8581 2 13.691 2.10808 14.4857 2.31137C14.8773 2.41155 15.2597 2.53485 15.6313 2.67973C17.1082 3.25557 18.4146 4.17235 19.4537 5.33333C19.7266 5.63828 19.9811 5.96008 20.2154 6.29698C21.291 7.84344 21.9411 9.70801 21.9962 11.7212C21.9987 11.8138 22 11.9067 22 12C22 12.3226 21.9847 12.6417 21.9549 12.9565C21.9546 12.9586 21.9544 12.9607 21.9542 12.9629C20.7953 11.1795 18.7854 10 16.5 10C15.3025 10 14.1807 10.3238 13.2173 10.8886L11.9636 9.98449L9.88964 11.298L10.725 13.5138C10.2912 14.351 10.0342 15.2945 10.0032 16.2951L9.20121 17.2549L9.78831 19.6903C10.1748 19.8013 10.5732 19.8839 10.9812 19.9357C11.486 20.7449 12.1638 21.435 12.9629 21.9542C12.646 21.9845 12.3248 22 12 22C11.0361 22 10.1041 21.8636 9.22222 21.6091C8.8372 21.498 8.46172 21.3644 8.09731 21.2098C6.46317 20.5165 5.05154 19.4009 3.99927 18C3.7596 17.6809 3.53858 17.3471 3.33782 17C2.57798 15.6865 2.10833 14.184 2.01656 12.5804C2.00557 12.3883 2 12.1948 2 12C2 11.778 2.00723 11.5578 2.02147 11.3394C2.13694 9.56884 2.71321 7.92399 3.63152 6.52357C3.85278 6.18615 4.09389 5.86293 4.3532 5.55556C5.42156 4.28917 6.79879 3.29184 8.36872 2.67973ZM9.09524 4.5431L9.10572 4.53902L11 6.03921V8.22743L8.53261 9.79011L6.67146 9.16973L5.8674 6.86207C6.72385 5.84065 7.83104 5.03601 9.09524 4.5431ZM13 8.26605V6.03921L14.8943 4.53902L14.9048 4.5431C16.1097 5.01289 17.1719 5.76585 18.0104 6.71976L17.2969 9.18028L15.2252 9.87086L13 8.26605ZM12 4C12.1154 4 12.2302 4.00243 12.3443 4.00724L12 4.27994L11.6557 4.00724C11.7698 4.00243 11.8846 4 12 4ZM19.2603 9.59048L19.4261 9.01885C19.5489 9.32461 19.6534 9.63967 19.7382 9.96268L19.2603 9.59048ZM7.32353 18L7.4663 18.5922C7.20169 18.4099 6.9486 18.2121 6.70835 18H7.32353ZM7.64351 16H5.07026C4.45491 14.9362 4.07746 13.7176 4.01068 12.417L6.03665 11.0663L7.89889 11.6871L8.93995 14.4483L7.64351 16ZM4.68971 9.56056L4.30066 9.81993C4.36819 9.58093 4.44656 9.34646 4.53519 9.11708L4.68971 9.56056Z" fill="#C8122D"/>
    <path d="M15 20V14H19V20" stroke="#C8122D" stroke-width="1.5" stroke-linecap="round"/>
  </g>

  <g id="MissedPenaltyInGameTime">
    <path d="M10.6682 3.78115L2.20701 18.6506C2.07162 18.8885 2.00022 19.1585 2 19.4334C1.99978 19.7083 2.07074 19.9785 2.20574 20.2166C2.34074 20.4548 2.53502 20.6526 2.76904 20.7901C3.00306 20.9276 3.26855 21 3.53882 21H20.4612C20.7314 21 20.9969 20.9276 21.231 20.7901C21.465 20.6526 21.6593 20.4548 21.7943 20.2166C21.9293 19.9785 22.0002 19.7083 22 19.4334C21.9998 19.1585 21.9284 18.8885 21.793 18.6506L13.3318 3.78115C13.1966 3.5436 13.0024 3.34638 12.7687 3.20928C12.5349 3.07217 12.2698 3 12 3C11.7302 3 11.4651 3.07217 11.2313 3.20928C10.9976 3.34638 10.8034 3.5436 10.6682 3.78115V3.78115Z" stroke="#C8122D" stroke-width="2" stroke-linecap="round" stroke-linejoin="round"/>
    <path fill-rule="evenodd" clip-rule="evenodd" d="M12 8C12.5523 8 13 8.44772 13 9V14C13 14.5523 12.5523 15 12 15C11.4477 15 11 14.5523 11 14V9C11 8.44772 11.4477 8 12 8Z" fill="#C8122D"/>
    <path d="M13.0999 17.1C13.0999 17.7075 12.6074 18.2 11.9999 18.2C11.3924 18.2 10.8999 17.7075 10.8999 17.1C10.8999 16.4925 11.3924 16 11.9999 16C12.6074 16 13.0999 16.4925 13.0999 17.1Z" fill="#C8122D"/>
  </g>
</svg>