<svg width="144" height="185" viewBox="0 0 144 185" fill="none" xmlns="http://www.w3.org/2000/svg">
<path d="M28.9703 135.711C6.54864 127.267 -4.78097 102.247 3.66225 79.8256L21.686 29.1734C30.1292 6.75177 55.1493 -4.57784 77.571 3.86538C99.9927 12.3086 111.322 37.3288 102.879 59.7504L84.8626 110.403C76.4193 132.824 51.3992 144.154 28.9775 135.711H28.9703Z" fill="#90DB85"/>
<path d="M92.4208 89.0806L85.9354 107.543C76.4557 133.478 51.3923 144.152 28.9706 135.702C6.54896 127.266 -4.29838 100.964 4.74227 76.9664L11.4292 58.6836L92.4208 89.0806Z" fill="#6DC07B"/>
<path d="M66.3211 36.8697L66.278 36.8553C65.1263 36.4018 63.8234 36.9705 63.37 38.1221L62.3983 40.6126C61.9448 41.7643 62.5134 43.0671 63.6651 43.5206L63.7083 43.535C64.86 43.9885 66.1628 43.4198 66.6163 42.2682L67.588 39.7777C68.0415 38.626 67.4728 37.3232 66.3211 36.8697Z" fill="black"/>
<path d="M66.0785 39.7496C66.4816 39.908 66.935 39.7065 67.0934 39.3034C67.2517 38.9003 67.0502 38.4468 66.6471 38.2885C66.244 38.1301 65.7906 38.3316 65.6322 38.7347C65.4738 39.1378 65.6754 39.5913 66.0785 39.7496Z" fill="#BAD8B2"/>
<path d="M82.6883 43.3736L82.6451 43.3592C81.4935 42.9057 80.1906 43.4744 79.7372 44.626L78.7654 47.1165C78.312 48.2682 78.8806 49.571 80.0323 50.0245L80.0755 50.0389C81.2271 50.4924 82.53 49.9237 82.9835 48.7721L83.9552 46.2816C84.4086 45.1299 83.84 43.8271 82.6883 43.3736Z" fill="black"/>
<path d="M82.4457 46.2457C82.8488 46.4041 83.3022 46.2025 83.4606 45.7995C83.6189 45.3964 83.4174 44.9429 83.0143 44.7845C82.6112 44.6262 82.1577 44.8277 81.9994 45.2308C81.841 45.6339 82.0426 46.0874 82.4457 46.2457Z" fill="#BAD8B2"/>
<path d="M56.9219 49.7891C57.8144 53.9855 60.8808 57.6564 64.854 59.2832C68.8273 60.9099 73.9595 60.9027 76.7019 59.0744" stroke="black" stroke-width="1.26695" stroke-miterlimit="10"/>
<path d="M58.6148 49.1406C57.5207 49.2126 56.4554 49.4069 55.1094 50.2131" stroke="black" stroke-width="1.26695" stroke-miterlimit="10"/>
<path d="M44.9744 133.656L26.9297 124.102L36.5282 63.168L54.6214 70.5105L44.9744 133.656Z" fill="#3F8E76"/>
<path d="M74.0417 129.183L44.5547 133.656L54.4128 70.4168L83.9944 67.3633L74.0417 129.183Z" fill="#53A979"/>
<path d="M92.0328 137.012L73.875 129.094L83.6435 67.3633L101.567 76.2878L92.0328 137.012Z" fill="#3F8E76"/>
<path d="M128.416 134.913L114.57 129.878L123.801 69.8789L136.808 75.7529L128.416 134.913Z" fill="#3F8E76"/>
<path d="M114.569 129.88L91.4922 137.013L101.361 76.7615L123.799 70.3008L114.569 129.88Z" fill="#53A979"/>
<path d="M27.8486 118.132L26.9297 124.02L45.2222 133.561L73.6684 129.096L91.4921 137.013L114.506 130.11L127.995 134.915L132.61 104.286M33.5912 80.79L36.5282 63.168L55.0017 70.4987L84.2323 67.3782L101.562 76.5943L123.854 70.2182L136.857 75.5028L135.547 84.9857" stroke="black" stroke-width="1.26695" stroke-miterlimit="10"/>
<path d="M29.0474 135.069H29.0402C6.60017 126.666 -4.73873 101.765 3.71142 79.4502L21.7499 29.0395C30.2001 6.72469 55.2407 -4.55092 77.6808 3.85206C100.121 12.255 111.46 37.1559 103.01 59.4708L97.7835 74.0758" stroke="black" stroke-width="1.26695" stroke-miterlimit="10"/>
<path d="M16.8672 128.621V181.842C16.8672 183.034 17.837 184.005 19.0271 184.005H53.9829C56.6571 184.005 58.8244 181.835 58.8244 179.158C58.8244 176.48 56.6571 174.311 53.9829 174.311H50.3389V137.763" stroke="black" stroke-width="1.26695" stroke-miterlimit="10"/>
<path d="M42.875 184.001H79.2484C81.8691 184.001 83.993 181.883 83.993 179.269C83.993 176.655 81.8691 174.537 79.2484 174.537H75.6773V129.457" stroke="black" stroke-width="1.26695" stroke-miterlimit="10"/>
<path d="M136.017 84.8765C133.455 85.2829 130.439 85.2354 127.982 84.4295C127.359 84.2263 124.846 83.6235 123.818 85.188C122.845 86.6578 123.958 88.053 124.378 88.5203C125.959 90.3084 129.179 91.5817 131.607 91.6968" stroke="black" stroke-width="1.26695" stroke-miterlimit="10"/>
<path d="M123.911 87.5039C121.999 89.7679 122.352 92.4615 123.798 94.2159C124.748 95.3661 127.568 97.6447 129.307 97.5719" stroke="black" stroke-width="1.26695" stroke-miterlimit="10"/>
<path d="M123.982 94.4977C120.225 97.4506 124.924 101.88 128.246 103.249C131.397 104.547 135.468 104.918 137.963 102.607C143.981 97.044 143.91 84.1555 139.953 80.3324C138.819 79.234 137.422 78.8132 135.924 79.3267" stroke="black" stroke-width="1.26695" stroke-miterlimit="10"/>
<path d="M37.3672 79.9496C41.9318 77.9739 44.0862 77.1472 48.8888 76.016C50.352 75.6691 52.0953 75.4882 53.1384 76.6495C54.3636 78.0069 53.7055 80.4577 52.2913 81.5814C50.8771 82.705 48.4688 83.6853 45.8644 84.1453" stroke="black" stroke-width="1.26695" stroke-miterlimit="10"/>
<path d="M22.7344 92.5377C23.6904 84.898 27.7521 77.5421 34.4308 74.4961" stroke="black" stroke-width="1.26695" stroke-miterlimit="10"/>
<path d="M52.8941 81.2092C53.8912 81.069 56.2538 81.047 57.0898 82.8875C57.3082 83.3682 57.4911 84.9655 56.2538 86.2809C54.3833 88.284 51.5448 89.3857 48.75 90.02" stroke="black" stroke-width="1.26695" stroke-miterlimit="10"/>
<path d="M1.75781 103.224C2.52294 108.426 5.56157 113.25 9.91913 116.183C14.2767 119.116 19.8803 120.109 24.9811 118.861C29.8998 117.657 34.1772 114.49 37.5364 110.696C40.8957 106.901 43.3222 102.804 45.8289 98.3963C49.0861 98.1919 52.2851 96.5793 54.5805 94.4194C56.8758 92.2595 57.5899 90.085 56.8758 88.8226C56.1617 87.5603 55.0693 87.8186 54.1526 87.9215" stroke="black" stroke-width="1.26695" stroke-miterlimit="10"/>
</svg>
