<svg width="80" height="80" viewBox="0 0 80 80" fill="none" xmlns="http://www.w3.org/2000/svg">
<path d="M32.5 55C38.0228 55 42.5 50.5228 42.5 45C42.5 39.4772 38.0228 35 32.5 35C26.9772 35 22.5 39.4772 22.5 45C22.5 50.5228 26.9772 55 32.5 55Z" stroke="#C8122D" stroke-width="7" stroke-linecap="round" stroke-linejoin="round"/>
<path d="M16.6843 64.9996C18.1046 62.0075 20.3446 59.4796 23.1441 57.7096C25.9436 55.9396 29.1879 55 32.5 55C35.8121 55 39.0564 55.9396 41.8559 57.7096C44.6554 59.4796 46.8954 62.0075 48.3157 64.9996L67.5 65C67.8283 65 68.1534 64.9353 68.4567 64.8097C68.76 64.6841 69.0356 64.4999 69.2677 64.2678C69.4999 64.0356 69.6841 63.76 69.8097 63.4567C69.9353 63.1534 70 62.8283 70 62.5V17.5C70 16.837 69.7366 16.2011 69.2678 15.7322C68.7989 15.2634 68.163 15 67.5 15H12.5C11.837 15 11.2011 15.2634 10.7322 15.7322C10.2634 16.2011 10 16.837 10 17.5V62.5002C10 62.8285 10.0647 63.1536 10.1903 63.4569C10.3159 63.7602 10.5001 64.0358 10.7322 64.2679C10.9644 64.5 11.24 64.6842 11.5433 64.8098C11.8466 64.9354 12.1717 65 12.5 65L16.6843 64.9996Z" stroke="#C8122D" stroke-width="7" stroke-linecap="round" stroke-linejoin="round"/>
<path d="M55 55H60V25H20V30" stroke="black" stroke-width="7" stroke-linecap="round" stroke-linejoin="round"/>
</svg>
