<svg width="81" height="80" viewBox="0 0 81 80" fill="none" xmlns="http://www.w3.org/2000/svg">
<path d="M60.5 37.5H68.9549C69.4192 37.5 69.8743 37.3707 70.2692 37.1266C70.6642 36.8825 70.9834 36.5333 71.191 36.118L76.9424 24.6153C77.2281 24.0437 77.2842 23.3844 77.099 22.7728C76.9138 22.1612 76.5015 21.6437 75.9466 21.3266L60.5 12.5" stroke="white" stroke-width="7" stroke-linecap="round" stroke-linejoin="round"/>
<path d="M20.5002 37.5H12.0453C11.581 37.5 11.1259 37.3707 10.731 37.1266C10.3361 36.8825 10.0169 36.5333 9.80925 36.118L4.05788 24.6153C3.7721 24.0437 3.71604 23.3844 3.90122 22.7728C4.0864 22.1612 4.49876 21.6437 5.0536 21.3266L20.5002 12.5" stroke="white" stroke-width="7" stroke-linecap="round" stroke-linejoin="round"/>
<path d="M50.5 12.5C50.5 15.1522 49.4464 17.6957 47.5711 19.5711C45.6957 21.4464 43.1522 22.5 40.5 22.5C37.8478 22.5 35.3043 21.4464 33.4289 19.5711C31.5536 17.6957 30.5 15.1522 30.5 12.5H20.5V65C20.5 65.663 20.7634 66.2989 21.2322 66.7678C21.7011 67.2366 22.337 67.5 23 67.5H58C58.663 67.5 59.2989 67.2366 59.7678 66.7678C60.2366 66.2989 60.5 65.663 60.5 65V12.5H50.5Z" stroke="#C8122D" stroke-width="7" stroke-linecap="round" stroke-linejoin="round"/>
</svg>
