<svg width="24" height="24" viewBox="0 0 24 24" fill="none" xmlns="http://www.w3.org/2000/svg">
    <path fill-rule="evenodd" clip-rule="evenodd" d="M9.51431 2.31137C9.12268 2.41155 8.7403 2.53485 8.36872 2.67973C6.79879 3.29184 5.42156 4.28917 4.3532 5.55556C4.09389 5.86293 3.85278 6.18615 3.63152 6.52357C2.71321 7.92398 2.13694 9.56884 2.02147 11.3394C2.00723 11.5578 2 11.778 2 12C2 12.1948 2.00557 12.3883 2.01656 12.5804C2.10833 14.184 2.57798 15.6865 3.33782 17C3.53858 17.3471 3.7596 17.6809 3.99927 18C5.05154 19.4009 6.46317 20.5165 8.09731 21.2098C8.46172 21.3644 8.8372 21.498 9.22222 21.6091C10.1041 21.8636 11.0361 22 12 22C12.8941 22 13.7609 21.8826 14.5857 21.6625C14.9673 21.5606 15.3399 21.4368 15.7022 21.2923C17.2136 20.6896 18.5434 19.7289 19.5869 18.5148C19.8485 18.2104 20.0921 17.8901 20.3161 17.5556C21.2128 16.2159 21.7944 14.6475 21.9549 12.9565C21.9847 12.6417 22 12.3226 22 12C22 11.9067 21.9987 11.8138 21.9962 11.7212C21.9411 9.70801 21.291 7.84344 20.2154 6.29698C19.9811 5.96008 19.7266 5.63828 19.4537 5.33333C18.4146 4.17235 17.1082 3.25557 15.6313 2.67973C15.2597 2.53485 14.8773 2.41155 14.4857 2.31137C13.691 2.10808 12.8581 2 12 2C11.1419 2 10.309 2.10808 9.51431 2.31137ZM9.10572 4.53902C9.10223 4.54038 9.09873 4.54174 9.09524 4.5431C7.83104 5.03601 6.72385 5.84065 5.8674 6.86207L6.67146 9.16973L8.53261 9.79011L11 8.22743V6.03921L9.10572 4.53902ZM13 6.03921V8.26605L15.2252 9.87086L17.2969 9.18028L18.0104 6.71976C17.1719 5.76585 16.1097 5.01289 14.9048 4.5431C14.9013 4.54174 14.8978 4.54038 14.8943 4.53902L13 6.03921ZM12.3443 4.00724C12.2302 4.00243 12.1154 4 12 4C11.8846 4 11.7698 4.00243 11.6557 4.00724L12 4.27994L12.3443 4.00724ZM19.4261 9.01885L19.2603 9.59048L19.7382 9.96268C19.6534 9.63967 19.5489 9.32461 19.4261 9.01885ZM19.9716 12.6794L17.9192 11.081L15.8432 11.773L14.9235 14.488L16.1781 16.3132L18.6446 16.4567C19.3819 15.3597 19.8546 14.0701 19.9716 12.6794ZM16.8586 18.3562L16.4094 18.3301L16.3116 18.7399C16.4994 18.6195 16.6819 18.4914 16.8586 18.3562ZM14.0156 19.7439L14.5554 17.4832L13.2895 15.6416H10.5491L9.20121 17.2549L9.78831 19.6903C10.4907 19.892 11.2328 20 12 20C12.6962 20 13.3717 19.9111 14.0156 19.7439ZM7.4663 18.5922L7.32353 18H6.70835C6.9486 18.2121 7.20169 18.4099 7.4663 18.5922ZM5.07026 16H7.64351L8.93995 14.4483L7.89888 11.6871L6.03665 11.0663L4.01068 12.417C4.07746 13.7176 4.45491 14.9362 5.07026 16ZM4.30066 9.81993L4.68971 9.56056L4.53519 9.11708C4.44656 9.34646 4.36819 9.58093 4.30066 9.81993ZM9.88964 11.298L10.7732 13.6416H13.0986L13.8714 11.3604L11.9636 9.98449L9.88964 11.298Z" fill="#DC001F"/>
</svg>

