<svg width="24" height="24" viewBox="0 0 24 24" fill="none" xmlns="http://www.w3.org/2000/svg">
<path d="M3.75 13C3.75 17.5563 7.44365 21.25 12 21.25C16.5563 21.25 20.25 17.5563 20.25 13C20.25 8.44365 16.5563 4.75 12 4.75C8.82571 4.75 6.07014 6.54273 4.69052 9.17095" stroke="#CC122D" stroke-width="2" stroke-miterlimit="10" stroke-linecap="round"/>
<path d="M9.75 1.75H14.25" stroke="#CC122D" stroke-width="2" stroke-linecap="round" stroke-linejoin="round"/>
<path d="M8.63729 8.29518L4.34207 9.63725L3 5.34204" stroke="#CC122D" stroke-width="2" stroke-linecap="round" stroke-linejoin="round"/>
<path d="M11.5001 16.25C11.5001 16.6642 11.8359 17 12.2501 17C12.6644 17 13.0001 16.6642 13.0001 16.25V9.77941C13.0001 9.34895 12.6512 9 12.2207 9C12.0765 9 11.9351 9.04002 11.8123 9.11561L11.0001 9.61538L10.5 9.92308L10.4759 9.93791C10.1802 10.1199 10 10.4423 10 10.7896V10.8462C10 11.4848 10.6988 11.8774 11.2442 11.5453L11.5001 11.3894V16.25Z" fill="#CC122D"/>
</svg>
