<svg width="24" height="24" viewBox="0 0 24 24" fill="none" xmlns="http://www.w3.org/2000/svg">
<path fill-rule="evenodd" clip-rule="evenodd" d="M8.36872 2.67973C8.7403 2.53485 9.12268 2.41155 9.51431 2.31137C10.309 2.10808 11.1419 2 12 2C12.8581 2 13.691 2.10808 14.4857 2.31137C14.8773 2.41155 15.2597 2.53485 15.6313 2.67973C17.1082 3.25557 18.4146 4.17235 19.4537 5.33333C19.7266 5.63828 19.9811 5.96008 20.2154 6.29698C21.291 7.84344 21.9411 9.70801 21.9962 11.7212C21.9987 11.8138 22 11.9067 22 12C22 12.3226 21.9847 12.6417 21.9549 12.9565C21.9546 12.9586 21.9544 12.9607 21.9542 12.9629C20.7953 11.1795 18.7854 10 16.5 10C15.3025 10 14.1807 10.3238 13.2173 10.8886L11.9636 9.98449L9.88964 11.298L10.725 13.5138C10.2912 14.351 10.0342 15.2945 10.0032 16.2951L9.20121 17.2549L9.78831 19.6903C10.1748 19.8013 10.5732 19.8839 10.9812 19.9357C11.486 20.7449 12.1638 21.435 12.9629 21.9542C12.646 21.9845 12.3248 22 12 22C11.0361 22 10.1041 21.8636 9.22222 21.6091C8.8372 21.498 8.46172 21.3644 8.09731 21.2098C6.46317 20.5165 5.05154 19.4009 3.99927 18C3.7596 17.6809 3.53858 17.3471 3.33782 17C2.57798 15.6865 2.10833 14.184 2.01656 12.5804C2.00557 12.3883 2 12.1948 2 12C2 11.778 2.00723 11.5578 2.02147 11.3394C2.13694 9.56884 2.71321 7.92399 3.63152 6.52357C3.85278 6.18615 4.09389 5.86293 4.3532 5.55556C5.42156 4.28917 6.79879 3.29184 8.36872 2.67973ZM9.09524 4.5431L9.10572 4.53902L11 6.03921V8.22743L8.53261 9.79011L6.67146 9.16973L5.8674 6.86207C6.72385 5.84065 7.83104 5.03601 9.09524 4.5431ZM13 8.26605V6.03921L14.8943 4.53902L14.9048 4.5431C16.1097 5.01289 17.1719 5.76585 18.0104 6.71976L17.2969 9.18028L15.2252 9.87086L13 8.26605ZM12 4C12.1154 4 12.2302 4.00243 12.3443 4.00724L12 4.27994L11.6557 4.00724C11.7698 4.00243 11.8846 4 12 4ZM19.2603 9.59048L19.4261 9.01885C19.5489 9.32461 19.6534 9.63967 19.7382 9.96268L19.2603 9.59048ZM7.32353 18L7.4663 18.5922C7.20169 18.4099 6.9486 18.2121 6.70835 18H7.32353ZM7.64351 16H5.07026C4.45491 14.9362 4.07746 13.7176 4.01068 12.417L6.03665 11.0663L7.89889 11.6871L8.93995 14.4483L7.64351 16ZM4.68971 9.56056L4.30066 9.81993C4.36819 9.58093 4.44656 9.34646 4.53519 9.11708L4.68971 9.56056Z" fill="#C8122D"/>
<path d="M15 20V14H19V20" stroke="#C8122D" stroke-width="1.5" stroke-linecap="round"/>
</svg>