<svg width="24" height="24" viewBox="0 0 24 24" fill="none" xmlns="http://www.w3.org/2000/svg">
    <path fill-rule="evenodd" clip-rule="evenodd" d="M8.36872 2.67985C8.7403 2.53497 9.12268 2.41167 9.51431 2.31149C10.309 2.1082 11.1419 2.00012 12 2.00012C12.8581 2.00012 13.691 2.1082 14.4857 2.31149C14.8773 2.41167 15.2597 2.53497 15.6313 2.67985C17.1082 3.2557 18.4146 4.17247 19.4537 5.33346C19.7266 5.63841 19.9811 5.96021 20.2154 6.2971C21.291 7.84357 21.9411 9.70813 21.9962 11.7213C21.9987 11.8139 22 11.9069 22 12.0001C22 12.3227 21.9847 12.6418 21.9549 12.9566C21.9546 12.9587 21.9544 12.9609 21.9542 12.963C20.7953 11.1796 18.7854 10.0001 16.5 10.0001C15.3025 10.0001 14.1807 10.3239 13.2173 10.8888L11.9636 9.98462L9.88964 11.2981L10.725 13.5139C10.2912 14.3511 10.0342 15.2947 10.0032 16.2952L9.20121 17.255L9.78831 19.6905C10.1748 19.8014 10.5732 19.884 10.9812 19.9359C11.486 20.745 12.1638 21.4351 12.9629 21.9544C12.646 21.9846 12.3248 22.0001 12 22.0001C11.0361 22.0001 10.1041 21.8638 9.22222 21.6093C8.8372 21.4982 8.46172 21.3645 8.09731 21.2099C6.46317 20.5166 5.05154 19.401 3.99927 18.0001C3.7596 17.6811 3.53858 17.3472 3.33782 17.0001C2.57798 15.6866 2.10833 14.1842 2.01656 12.5805C2.00557 12.3885 2 12.1949 2 12.0001C2 11.7782 2.00723 11.5579 2.02147 11.3395C2.13694 9.56896 2.71321 7.92411 3.63152 6.52369C3.85278 6.18627 4.09389 5.86305 4.3532 5.55568C5.42156 4.28929 6.79879 3.29196 8.36872 2.67985ZM9.09524 4.54322L9.10572 4.53914L11 6.03934V8.22755L8.53261 9.79023L6.67146 9.16985L5.8674 6.86219C6.72385 5.84078 7.83104 5.03613 9.09524 4.54322ZM13 8.26617V6.03934L14.8943 4.53915L14.9048 4.54322C16.1097 5.01301 17.1719 5.76597 18.0104 6.71989L17.2969 9.1804L15.2252 9.87098L13 8.26617ZM12 4.00012C12.1154 4.00012 12.2302 4.00255 12.3443 4.00737L12 4.28006L11.6557 4.00737C11.7698 4.00255 11.8846 4.00012 12 4.00012ZM19.2603 9.59061L19.4261 9.01897C19.5489 9.32473 19.6534 9.6398 19.7382 9.9628L19.2603 9.59061ZM7.32353 18.0001L7.4663 18.5923C7.20169 18.41 6.9486 18.2122 6.70835 18.0001H7.32353ZM7.64351 16.0001H5.07026C4.45491 14.9364 4.07746 13.7178 4.01068 12.4171L6.03665 11.0664L7.89889 11.6872L8.93995 14.4484L7.64351 16.0001ZM4.68971 9.56068L4.30066 9.82005C4.36819 9.58106 4.44656 9.34658 4.53519 9.1172L4.68971 9.56068Z" fill="#0D1116"/>
    <path d="M15 20V14H19V20" stroke="#0D1116" stroke-width="1.5" stroke-linecap="round"/>
</svg>
