<svg width="24" height="24" viewBox="0 0 24 24" fill="none" xmlns="http://www.w3.org/2000/svg">
<path d="M3.71123 16.9472C3.5876 16.4305 3.52198 15.8899 3.52198 15.3333C3.52198 12.92 4.75593 10.8061 6.60392 9.63599L10.52 7.45455C10.52 7.45455 11.6863 8.99275 13.4359 8.06061C15.1854 7.12846 14.6022 5.0303 14.6022 5.0303L20.4339 2L22.9999 6.84848L18.1012 10.4848C16.8527 11.345 16.3517 12.9091 16.3517 15.3333C16.3517 19.0152 13.5428 22 10 22C8.07936 22 6.29273 21.1228 5.11708 19.7329M3.71123 16.9472L2.20767 17.859C1.52299 18.2742 1.26633 19.1419 1.61499 19.8628V19.8628C2.01265 20.6849 3.03052 20.988 3.81311 20.5172L5.11708 19.7329M3.71123 16.9472C3.96212 17.9959 4.45191 18.9465 5.11708 19.7329" stroke="#0D1116" stroke-width="2" stroke-linecap="round" stroke-linejoin="round"/>
<circle cx="10" cy="15" r="3" stroke="#0D1116" stroke-width="2"/>
</svg>
