<svg width="24" height="24" viewBox="0 0 24 24" fill="none" xmlns="http://www.w3.org/2000/svg">
<path d="M10.6682 3.78115L2.20701 18.6506C2.07162 18.8885 2.00022 19.1585 2 19.4334C1.99978 19.7083 2.07074 19.9785 2.20574 20.2166C2.34074 20.4548 2.53502 20.6526 2.76904 20.7901C3.00306 20.9276 3.26855 21 3.53882 21H20.4612C20.7314 21 20.9969 20.9276 21.231 20.7901C21.465 20.6526 21.6593 20.4548 21.7943 20.2166C21.9293 19.9785 22.0002 19.7083 22 19.4334C21.9998 19.1585 21.9284 18.8885 21.793 18.6506L13.3318 3.78115C13.1966 3.5436 13.0024 3.34638 12.7687 3.20928C12.5349 3.07217 12.2698 3 12 3C11.7302 3 11.4651 3.07217 11.2313 3.20928C10.9976 3.34638 10.8034 3.5436 10.6682 3.78115V3.78115Z" stroke="#C8122D" stroke-width="2" stroke-linecap="round" stroke-linejoin="round"/>
<path fill-rule="evenodd" clip-rule="evenodd" d="M12 8C12.5523 8 13 8.44772 13 9V14C13 14.5523 12.5523 15 12 15C11.4477 15 11 14.5523 11 14V9C11 8.44772 11.4477 8 12 8Z" fill="#C8122D"/>
<path d="M13.0999 17.1C13.0999 17.7075 12.6074 18.2 11.9999 18.2C11.3924 18.2 10.8999 17.7075 10.8999 17.1C10.8999 16.4925 11.3924 16 11.9999 16C12.6074 16 13.0999 16.4925 13.0999 17.1Z" fill="#C8122D"/>
</svg>