<svg width="24" height="24" viewBox="0 0 24 24" fill="none" xmlns="http://www.w3.org/2000/svg">
    <path d="M12 21C16.9706 21 21 16.9706 21 12C21 7.02944 16.9706 3 12 3C7.02944 3 3 7.02944 3 12C3 16.9706 7.02944 21 12 21Z" stroke="#0D1116" stroke-width="2" stroke-miterlimit="10"/>
    <path d="M9.50014 15.25C9.50014 15.6642 9.83592 16 10.2501 16C10.6644 16 11.0001 15.6642 11.0001 15.25V8.77941C11.0001 8.34895 10.6512 8 10.2207 8C10.0765 8 9.9351 8.04002 9.81226 8.11561L9.00007 8.61538L8.50003 8.92308L8.47593 8.93791C8.18017 9.11991 8 9.44231 8 9.78958V9.84615C8 10.4848 8.69876 10.8774 9.24421 10.5453L9.50014 10.3894V15.25Z" fill="#0D1116"/>
    <path d="M13.5 15.25C13.5 15.6642 13.8358 16 14.25 16C14.6642 16 15 15.6642 15 15.25V8.77941C15 8.34895 14.651 8 14.2206 8C14.0764 8 13.935 8.04002 13.8121 8.11561L12.9999 8.61538L12.4999 8.92308L12.4758 8.93791C12.18 9.11991 11.9999 9.44231 11.9999 9.78958V9.84615C11.9999 10.4848 12.6986 10.8774 13.2441 10.5453L13.5 10.3894V15.25Z" fill="#0D1116"/>
</svg>
