<svg width="24" height="24" viewBox="0 0 24 24" fill="none" xmlns="http://www.w3.org/2000/svg">
<path d="M19.25 13C19.25 12.4477 19.6977 12 20.25 12C20.8023 12 21.25 12.4477 21.25 13H19.25ZM20.1949 8.70616C20.4516 9.19517 20.2633 9.79968 19.7743 10.0564C19.2853 10.3131 18.6807 10.1247 18.4241 9.63573L20.1949 8.70616ZM4.75 13C4.75 17.0041 7.99594 20.25 12 20.25V22.25C6.89137 22.25 2.75 18.1086 2.75 13H4.75ZM12 20.25C16.0041 20.25 19.25 17.0041 19.25 13H21.25C21.25 18.1086 17.1086 22.25 12 22.25V20.25ZM12 5.75C7.99594 5.75 4.75 8.99594 4.75 13H2.75C2.75 7.89137 6.89137 3.75 12 3.75V5.75ZM18.4241 9.63573C17.2103 7.32356 14.7881 5.75 12 5.75V3.75C15.5605 3.75 18.6494 5.76189 20.1949 8.70616L18.4241 9.63573Z" fill="#05C84A"/>
<path d="M9.75 1.75H14.25" stroke="#05C84A" stroke-width="2" stroke-linecap="round" stroke-linejoin="round"/>
<path d="M14.9994 8.29518L19.2946 9.63725L20.6367 5.34204" stroke="#05C84A" stroke-width="1.5" stroke-linecap="round" stroke-linejoin="round"/>
<path d="M10.021 11.7049C9.99413 12.0071 10.1574 12.2892 10.4158 12.4482C10.4709 12.4821 10.5342 12.5 10.5989 12.5H10.7798C10.9203 12.5 11.0547 12.4421 11.1512 12.3399C11.2407 12.2451 11.289 12.1194 11.295 11.9891C11.3218 11.4127 11.4785 10.9893 11.9883 10.9893C12.7008 10.9893 12.6362 11.5591 12.6362 11.9947C12.6362 12.4136 11.7897 13.2055 11.7247 13.2657C11.7218 13.2684 11.7194 13.2707 11.7165 13.2734L10.3156 14.5884C10.1142 14.7774 10 15.0413 10 15.3175V15.5C10 16.0523 10.4477 16.5 11 16.5H13.1923C13.6384 16.5 14 16.1384 14 15.6923C14 15.2463 13.6384 14.8847 13.1923 14.8847H11.946L13.4416 13.2697C13.8718 12.7308 14.072 12.022 13.8718 11.1153C13.6193 9.97187 13.0114 9.50018 11.946 9.5C10.572 9.49977 10.1171 10.6219 10.021 11.7049Z" fill="#05C84A"/>
</svg>
