<svg width="24" height="24" viewBox="0 0 24 24" fill="none" xmlns="http://www.w3.org/2000/svg">
<path d="M3.75 13C3.75 17.5563 7.44365 21.25 12 21.25C16.5563 21.25 20.25 17.5563 20.25 13C20.25 8.44365 16.5563 4.75 12 4.75C8.82571 4.75 6.07014 6.54273 4.69052 9.17095" stroke="#CC122D" stroke-width="2" stroke-miterlimit="10" stroke-linecap="round"/>
<path d="M9.75 1.75H14.25" stroke="#CC122D" stroke-width="2" stroke-linecap="round" stroke-linejoin="round"/>
<path d="M8.63729 8.29518L4.34207 9.63725L3 5.34204" stroke="#CC122D" stroke-width="2" stroke-linecap="round" stroke-linejoin="round"/>
<path d="M10.021 12.2049C9.99413 12.5071 10.1574 12.7892 10.4158 12.9482C10.4709 12.9821 10.5342 13 10.5989 13H10.7798C10.9203 13 11.0547 12.9421 11.1512 12.8399C11.2407 12.7451 11.289 12.6194 11.295 12.4891C11.3218 11.9127 11.4785 11.4893 11.9883 11.4893C12.7008 11.4893 12.6362 12.0591 12.6362 12.4947C12.6362 12.9136 11.7897 13.7055 11.7247 13.7657C11.7218 13.7684 11.7194 13.7707 11.7165 13.7734L10.3156 15.0884C10.1142 15.2774 10 15.5413 10 15.8175V16C10 16.5523 10.4477 17 11 17H13.1923C13.6384 17 14 16.6384 14 16.1923C14 15.7463 13.6384 15.3847 13.1923 15.3847H11.946L13.4416 13.7697C13.8718 13.2308 14.072 12.522 13.8718 11.6153C13.6193 10.4719 13.0114 10.0002 11.946 10C10.572 9.99977 10.1171 11.1219 10.021 12.2049Z" fill="#CC122D"/>
</svg>
