<svg width="24" height="24" viewBox="0 0 24 24" fill="none" xmlns="http://www.w3.org/2000/svg">
<path d="M5.1617 7.28062L15.2447 9.56369L12.5537 21.4486L2.47064 19.1655L5.1617 7.28062Z" fill="#FFBD3E" fill-opacity="0.4" stroke="#FFBD3E" stroke-width="2" stroke-linecap="round" stroke-linejoin="round"/>
<mask id="path-2-inside-1_5582_71784" fill="white">
<path fill-rule="evenodd" clip-rule="evenodd" d="M9.21885 5.7536L17.1664 7.55314C17.7051 7.6751 18.0429 8.21064 17.9209 8.74929L16.0284 17.1072L18.0081 17.5555C18.5467 17.6775 19.0822 17.3397 19.2042 16.801L21.8953 4.91611C22.0172 4.37746 21.6794 3.84193 21.1408 3.71997L11.2136 1.47218C10.6749 1.35021 10.1394 1.688 10.0174 2.22665L9.21885 5.7536Z"/>
</mask>
<path fill-rule="evenodd" clip-rule="evenodd" d="M9.21885 5.7536L17.1664 7.55314C17.7051 7.6751 18.0429 8.21064 17.9209 8.74929L16.0284 17.1072L18.0081 17.5555C18.5467 17.6775 19.0822 17.3397 19.2042 16.801L21.8953 4.91611C22.0172 4.37746 21.6794 3.84193 21.1408 3.71997L11.2136 1.47218C10.6749 1.35021 10.1394 1.688 10.0174 2.22665L9.21885 5.7536Z" fill="#CC122D" fill-opacity="0.4"/>
<path d="M9.21885 5.7536L7.26823 5.31192C7.0243 6.38922 7.69988 7.46029 8.77718 7.70422L9.21885 5.7536ZM17.9209 8.74929L19.8715 9.19096L17.9209 8.74929ZM16.0284 17.1072L14.0778 16.6656C13.9607 17.1829 14.0538 17.7256 14.3368 18.1742C14.6198 18.6229 15.0694 18.9407 15.5868 19.0579L16.0284 17.1072ZM18.0081 17.5555L18.4497 15.6049L18.0081 17.5555ZM19.2042 16.801L21.1548 17.2427L19.2042 16.801ZM21.8953 4.91611L19.9447 4.47444L21.8953 4.91611ZM21.1408 3.71997L21.5825 1.76934L21.1408 3.71997ZM11.2136 1.47218L10.7719 3.4228L11.2136 1.47218ZM17.6081 5.60252L9.66052 3.80297L8.77718 7.70422L16.7247 9.50376L17.6081 5.60252ZM19.8715 9.19096C20.2374 7.57501 19.224 5.96841 17.6081 5.60252L16.7247 9.50376C16.1861 9.3818 15.8483 8.84626 15.9703 8.30761L19.8715 9.19096ZM17.9791 17.5489L19.8715 9.19096L15.9703 8.30761L14.0778 16.6656L17.9791 17.5489ZM15.5868 19.0579L17.5664 19.5061L18.4497 15.6049L16.4701 15.1566L15.5868 19.0579ZM17.5664 19.5061C19.1823 19.872 20.7889 18.8586 21.1548 17.2427L17.2536 16.3593C17.3756 15.8207 17.9111 15.4829 18.4497 15.6049L17.5664 19.5061ZM21.1548 17.2427L23.8459 5.35779L19.9447 4.47444L17.2536 16.3593L21.1548 17.2427ZM23.8459 5.35779C24.2118 3.74184 23.1984 2.13524 21.5825 1.76934L20.6991 5.67059C20.1605 5.54862 19.8227 5.01309 19.9447 4.47444L23.8459 5.35779ZM21.5825 1.76934L11.6553 -0.478442L10.7719 3.4228L20.6991 5.67059L21.5825 1.76934ZM11.6553 -0.478442C10.0393 -0.844336 8.43272 0.16903 8.06682 1.78498L11.9681 2.66833C11.8461 3.20698 11.3106 3.54477 10.7719 3.4228L11.6553 -0.478442ZM8.06682 1.78498L7.26823 5.31192L11.1695 6.19527L11.9681 2.66833L8.06682 1.78498Z" fill="#CC122D" mask="url(#path-2-inside-1_5582_71784)"/>
</svg>
