<svg width="24" height="24" viewBox="0 0 24 24" fill="none" xmlns="http://www.w3.org/2000/svg">
<path d="M12 15C11.4477 15 11 15.4477 11 16C11 16.5523 11.4477 17 12 17V15ZM5.10982 15.9616L5.30491 14.9808L5.10982 15.9616ZM19.9142 15.4142L20.6213 16.1213L19.9142 15.4142ZM19.9142 4.58579L20.6213 3.87868L19.9142 4.58579ZM7.5 5H16.5V3H7.5V5ZM19.5 8V12H21.5V8H19.5ZM4.5 13.5V8H2.5V13.5H4.5ZM16.5 15H12V17H16.5V15ZM2.5 13.5C2.5 13.9167 2.49516 14.2711 2.55764 14.5853L4.51921 14.1951C4.50484 14.1228 4.5 14.0126 4.5 13.5H2.5ZM6 15C5.48741 15 5.37716 14.9952 5.30491 14.9808L4.91473 16.9424C5.22888 17.0048 5.58328 17 6 17V15ZM2.55764 14.5853C2.79436 15.7753 3.72466 16.7056 4.91473 16.9424L5.30491 14.9808C4.90822 14.9019 4.59812 14.5918 4.51921 14.1951L2.55764 14.5853ZM19.5 12C19.5 12.9711 19.4979 13.5988 19.4357 14.0613C19.3774 14.495 19.2832 14.631 19.2071 14.7071L20.6213 16.1213C21.131 15.6117 21.3297 14.9833 21.4179 14.3278C21.5021 13.701 21.5 12.9145 21.5 12H19.5ZM16.5 17C17.4145 17 18.201 17.0021 18.8278 16.9179C19.4833 16.8297 20.1117 16.631 20.6213 16.1213L19.2071 14.7071C19.131 14.7832 18.995 14.8774 18.5613 14.9357C18.0988 14.9979 17.4711 15 16.5 15V17ZM16.5 5C17.4711 5 18.0988 5.00212 18.5613 5.06431C18.995 5.12262 19.131 5.21677 19.2071 5.29289L20.6213 3.87868C20.1117 3.36902 19.4833 3.17027 18.8278 3.08214C18.201 2.99788 17.4145 3 16.5 3V5ZM21.5 8C21.5 7.08546 21.5021 6.29896 21.4179 5.67221C21.3297 5.01669 21.131 4.38834 20.6213 3.87868L19.2071 5.29289C19.2832 5.36902 19.3774 5.50496 19.4357 5.9387C19.4979 6.40121 19.5 7.02892 19.5 8H21.5ZM7.5 3C6.58546 3 5.79896 2.99788 5.17221 3.08214C4.51669 3.17027 3.88834 3.36902 3.37868 3.87868L4.79289 5.29289C4.86902 5.21677 5.00496 5.12262 5.4387 5.06431C5.90121 5.00212 6.52892 5 7.5 5V3ZM4.5 8C4.5 7.02892 4.50212 6.40121 4.56431 5.9387C4.62262 5.50496 4.71677 5.36902 4.79289 5.29289L3.37868 3.87868C2.86902 4.38834 2.67027 5.01669 2.58214 5.67221C2.49788 6.29896 2.5 7.08546 2.5 8H4.5Z" fill="#0D1116"/>
<path d="M6 16V20L12 16" stroke="#0D1116" stroke-width="2" stroke-linecap="round" stroke-linejoin="round"/>
</svg>
