<svg width="24" height="24" viewBox="0 0 24 24" fill="none" xmlns="http://www.w3.org/2000/svg">
<path d="M19.25 13C19.25 12.4477 19.6977 12 20.25 12C20.8023 12 21.25 12.4477 21.25 13H19.25ZM20.1949 8.70616C20.4516 9.19517 20.2633 9.79968 19.7743 10.0564C19.2853 10.3131 18.6807 10.1247 18.4241 9.63573L20.1949 8.70616ZM4.75 13C4.75 17.0041 7.99594 20.25 12 20.25V22.25C6.89137 22.25 2.75 18.1086 2.75 13H4.75ZM12 20.25C16.0041 20.25 19.25 17.0041 19.25 13H21.25C21.25 18.1086 17.1086 22.25 12 22.25V20.25ZM12 5.75C7.99594 5.75 4.75 8.99594 4.75 13H2.75C2.75 7.89137 6.89137 3.75 12 3.75V5.75ZM18.4241 9.63573C17.2103 7.32356 14.7881 5.75 12 5.75V3.75C15.5605 3.75 18.6494 5.76189 20.1949 8.70616L18.4241 9.63573Z" fill="#05C84A"/>
<path d="M9.75 1.75H14.25" stroke="#05C84A" stroke-width="2" stroke-linecap="round" stroke-linejoin="round"/>
<path d="M14.9994 8.29518L19.2946 9.63725L20.6367 5.34204" stroke="#05C84A" stroke-width="2" stroke-linecap="round" stroke-linejoin="round"/>
<path d="M12 10V13.4286V16" stroke="#05C84A" stroke-width="2" stroke-linecap="round"/>
<path d="M15 13H11.5714H9" stroke="#05C84A" stroke-width="2" stroke-linecap="round"/>
</svg>
