<svg width="24" height="24" viewBox="0 0 24 24" fill="none" xmlns="http://www.w3.org/2000/svg">
<path d="M6.17676 20H18.3532" stroke="#0D1116" stroke-width="2" stroke-linecap="round"/>
<rect x="3" y="4" width="18" height="13" rx="2" stroke="#0D1116" stroke-width="2"/>
<path d="M7.5004 13.6367C8.09641 13.6367 8.62438 13.2523 8.80735 12.685L10.0743 8.75729C10.195 8.38316 9.91597 8 9.52285 8C9.27342 8 9.05199 8.15962 8.97314 8.39626L7.69705 12.2261C7.63678 12.407 7.38162 12.409 7.31856 12.2291L5.97046 8.38275C5.8901 8.15348 5.67367 8 5.43073 8C5.04106 8 4.76548 8.38118 4.88764 8.75121L6.18696 12.6871C6.37405 13.2539 6.90357 13.6367 7.5004 13.6367Z" fill="#0D1116"/>
<path d="M13.5872 13.3103C13.6872 13.5104 13.8916 13.6367 14.1153 13.6367C14.5364 13.6367 14.8221 13.2084 14.6603 12.8195L12.8994 8.58819C12.7512 8.23204 12.4033 8 12.0176 8C11.6213 8 11.2662 8.24471 11.125 8.61503L9.49536 12.8914C9.35826 13.2511 9.62396 13.6367 10.009 13.6367C10.2308 13.6367 10.431 13.5033 10.5163 13.2985L10.9491 12.2598C10.9801 12.1853 11.053 12.1367 11.1337 12.1367H12.8769C12.9526 12.1367 13.0219 12.1795 13.0558 12.2473L13.5872 13.3103ZM11.8247 9.65045C11.8849 9.4745 12.1316 9.46869 12.2 9.64162L12.7462 11.0233C12.7981 11.1546 12.7013 11.2969 12.5602 11.2969H11.5416C11.4044 11.2969 11.308 11.162 11.3523 11.0322L11.8247 9.65045Z" fill="#0D1116"/>
<path d="M16.1941 9.13115C16.1941 9.02069 16.2837 8.93115 16.3941 8.93115H17.0005C17.7271 8.93115 18.0005 9.01084 18.0005 9.68662C18.0005 10.378 17.8945 10.5347 17.1719 10.5347H16.3941C16.2837 10.5347 16.1941 10.4452 16.1941 10.3347V9.13115ZM16.1941 11.6561C16.1941 11.5457 16.2837 11.4561 16.3941 11.4561H16.7835C16.8617 11.4561 16.9327 11.5018 16.9653 11.5729L17.7796 13.3509C17.8594 13.525 18.0334 13.6367 18.2249 13.6367C18.5849 13.6367 18.8219 13.2615 18.6672 12.9364L18.0094 11.5544C17.9571 11.4447 18.0149 11.3151 18.1242 11.2619C18.6944 10.9845 19.0005 10.3886 19.0005 9.68662C19.0005 8.67099 18.317 8 17.231 8H16.1332C15.5809 8 15.1332 8.44772 15.1332 9V13.1062C15.1332 13.3992 15.3707 13.6367 15.6637 13.6367C15.9566 13.6367 16.1941 13.3992 16.1941 13.1062V11.6561Z" fill="#0D1116"/>
</svg>
