<svg xmlns="http://www.w3.org/2000/svg">
	<g id="array-left">
		<path fill-rule="evenodd" clip-rule="evenodd" d="M3.33229 8.94536L8.19896 14.0587L6.75024 15.4375L0.275641 8.63478C-0.0939611 8.24644 -0.0915788 7.63574 0.281043 7.2503L6.75564 0.553024L8.19356 1.94313L3.35765 6.94536L19 6.94536L19 8.94536L3.33229 8.94536Z" fill="#5383C7"/>
	</g>

	<g id="array-right">
		<path fill-rule="evenodd" clip-rule="evenodd" d="M15.6677 7.05464L10.801 1.94134L12.2498 0.5625L18.7244 7.36522C19.094 7.75355 19.0916 8.36426 18.719 8.7497L12.2444 15.447L10.8064 14.0569L15.6423 9.05464H0L0 7.05464H15.6677Z" fill="#5383C7"/>
	</g>

	<g  id="array-small">
		<path d="M1 1.33073L5.66667 5.9974L1 10.6641" stroke="#5383C7" stroke-width="2" stroke-linecap="round" stroke-linejoin="round"/>
	</g>
    <g id="vk">
        <path d="M8.62519 13C3.98839 13 1.28267 9.82533 1.01778 4.51003C1.00384 4.23028 1.23011 4 1.51021 4H2.90545C3.17787 4 3.39914 4.21957 3.41384 4.4916C3.61774 8.26597 5.29795 9.88853 6.64018 10.2342V4.5C6.64018 4.22386 6.86404 4 7.14018 4H8.39636C8.6725 4 8.89636 4.22386 8.89636 4.5V7.55856C10.1834 7.41589 11.531 5.999 12.1053 4.36376C12.1799 4.15132 12.3752 4 12.6003 4H13.8825C14.1923 4 14.4286 4.27978 14.346 4.57842C13.82 6.48196 12.4246 7.87973 11.4059 8.48649C12.4311 8.98158 14.0212 10.2098 14.8055 12.3787C14.9172 12.6876 14.6777 13 14.3492 13H12.8844C12.6655 13 12.4743 12.8567 12.3953 12.6526C11.7982 11.1116 10.5331 9.95157 8.89636 9.78378V12.7288C8.89636 12.8786 8.77495 13 8.62519 13Z"
             />
    </g>
    <g id="telegram">
        <path d="M13.8069 2.10595C13.8069 2.10595 15.1019 1.58652 14.9936 2.84789C14.9579 3.36731 14.6342 5.18548 14.3822 7.15176L13.5189 12.9769C13.5189 12.9769 13.4469 13.8302 12.7993 13.9787C12.1519 14.1268 11.1806 13.4593 11.0006 13.3108C10.8566 13.1994 8.30266 11.5297 7.40334 10.7137C7.15134 10.4908 6.86335 10.0458 7.43934 9.52637L11.2163 5.81599C11.6479 5.37096 12.0796 4.33211 10.281 5.59348L5.24437 9.11803C5.24437 9.11803 4.66871 9.48935 3.58973 9.1554L1.25109 8.41312C1.25109 8.41312 0.387773 7.85667 1.86275 7.30021C5.46037 5.55645 9.8853 3.77566 13.8062 2.10595H13.8069Z"
              />
    </g>
    <g id="ok">
        <path fill-rule="evenodd" clip-rule="evenodd"
              d="M4.69589 10.6726C4.28501 10.4828 4 10.0733 4 9.59853C4 8.94369 4.54125 8.4124 5.20746 8.4124C5.40796 8.4124 5.59676 8.46094 5.76399 8.54567C6.4392 8.87044 7.19802 9.05224 8 9.05224C8.80378 9.05224 9.5635 8.86956 10.2405 8.5439C10.4059 8.46006 10.5938 8.4124 10.7925 8.4124C11.4588 8.4124 12 8.94369 12 9.59853C12 10.0733 11.7141 10.4846 11.3023 10.6735C10.8474 10.8932 10.3655 11.0688 9.86379 11.1942L11.5136 13.0298C11.955 13.5205 11.9074 14.2707 11.4075 14.704C10.9076 15.1364 10.1434 15.0897 9.70196 14.599L7.9991 12.7051L6.29625 14.599C5.8548 15.0897 5.09058 15.1364 4.59069 14.704C4.09081 14.2707 4.04316 13.5205 4.4846 13.0298L6.13441 11.1942C5.63273 11.068 5.15172 10.8923 4.69589 10.6726ZM7.99987 1C10.0408 1 11.6987 2.62739 11.6987 4.63075C11.6987 6.6341 10.0408 8.2615 7.99987 8.2615C5.95896 8.2615 4.30106 6.6341 4.30106 4.63075C4.30106 2.62739 5.95896 1 7.99987 1ZM8.00011 3.20544C8.80119 3.20544 9.45212 3.8444 9.45212 4.63074C9.45212 5.41707 8.80119 6.05603 8.00011 6.05603C7.19903 6.05603 6.5481 5.41707 6.5481 4.63074C6.5481 3.8444 7.19903 3.20544 8.00011 3.20544Z"
              />
    </g>
    <g id="dzen">
        <path fill-rule="evenodd" clip-rule="evenodd"
              d="M1 7.85848C3.87962 7.82535 5.49133 7.63687 6.5641 6.5641C7.63687 5.49133 7.82535 3.87962 7.85848 1C4.10413 1.07453 1.07453 4.10413 1 7.85848ZM8.27658 1.00395C8.3098 3.88109 8.4986 5.49182 9.57088 6.5641C10.6268 7.62003 12.2049 7.81922 15.0003 7.85677C14.9258 4.14822 11.9679 1.14725 8.27658 1.00395ZM14.9963 8.27826C12.2034 8.31596 10.6263 8.51545 9.57088 9.57088C8.51545 10.6263 8.31596 12.2034 8.27826 14.9963C11.924 14.8539 14.8539 11.924 14.9963 8.27826ZM7.8568 15.0003C7.81922 12.2049 7.62003 10.6268 6.5641 9.57088C5.49182 8.4986 3.88109 8.3098 1.00395 8.27658C1.14725 11.9679 4.14823 14.9258 7.8568 15.0003Z"
              />
    </g>


   <g id="google-pay">
       <path fill-rule="evenodd" clip-rule="evenodd" d="M0.820312 1.68543V16.318C0.820312 16.8258 1.10766 17.2648 1.53019 17.48L9.85416 9.0017L1.53019 0.523438C1.10766 0.730015 0.820312 1.1776 0.820312 1.68543ZM3.39778 17.041L12.4908 11.6872L10.5725 9.73328L3.39778 17.041ZM15.3218 7.97743C15.609 8.20983 15.8203 8.57129 15.8203 9.0017C15.8203 9.43211 15.6344 9.77633 15.3386 10.0174L13.4034 11.1536L11.2908 9.0017L13.4034 6.84982L15.3218 7.97743ZM12.4908 6.31616L3.39778 0.962414L10.5725 8.27012L12.4908 6.31616Z" fill="white"/>
   </g>

    <g id="app-store">
        <path fill-rule="evenodd" clip-rule="evenodd" d="M11.6059 0.445312C10.6506 0.483526 9.49476 1.08535 8.79736 1.87823C8.18604 2.60428 7.65105 3.75059 7.79435 4.84913C8.86423 4.93511 9.95322 4.30469 10.6124 3.49265C11.2811 2.69026 11.7301 1.56299 11.6059 0.445312ZM11.3385 19.5223C12.6185 19.5031 13.4591 18.3473 14.2521 17.1628C15.0722 15.9752 15.4568 14.8029 15.5495 14.5206C15.5604 14.4873 15.5672 14.4664 15.5703 14.4593C15.5417 14.4497 13.0389 13.4849 13.0102 10.6C12.9917 8.26671 14.8429 7.09981 15.0484 6.97031C15.0558 6.96564 15.061 6.96235 15.064 6.96033C13.9463 5.31725 12.2077 5.09752 11.5867 5.06886C10.6793 4.97523 9.79675 5.32298 9.07802 5.60619C8.62412 5.78505 8.23562 5.93822 7.94721 5.93822C7.61878 5.93822 7.21244 5.77719 6.75759 5.59684C6.16719 5.36279 5.49495 5.09624 4.80434 5.10707C3.18991 5.13573 1.69968 6.05276 0.868535 7.50488C-0.812742 10.428 0.438631 14.7745 2.07216 17.1341C2.87465 18.29 3.82034 19.5987 5.07184 19.5509C5.6356 19.5287 6.03429 19.3579 6.44636 19.1815C6.92096 18.9783 7.41317 18.7676 8.1956 18.7676C8.93525 18.7676 9.40474 18.9709 9.85662 19.1665C10.2917 19.355 10.7105 19.5364 11.3385 19.5223Z" fill="white"/>
    </g>
    <g id="copy">
            <path fill-rule="evenodd" clip-rule="evenodd" d="M5 2C3.34315 2 2 3.34315 2 5V11C2 12.4865 3.08114 13.7205 4.5 13.9585V8C4.5 6.067 6.067 4.5 8 4.5H13.9585C13.7205 3.08114 12.4865 2 11 2H5Z" />
            <rect x="6" y="6" width="12" height="12" rx="3" />
    </g>

</svg>
