<svg width="43" height="43" viewBox="0 0 43 43" fill="none" xmlns="http://www.w3.org/2000/svg">
<path d="M21.5 0C9.6106 0 0 9.6106 0 21.5C0 33.3894 9.6106 43 21.5 43C33.3894 43 43 33.3894 43 21.5C43 9.6106 33.3894 0 21.5 0ZM18.5277 30.6152L16.9424 35.2719C10.9977 33.2903 7.03456 27.6429 7.03456 21.3018C7.03456 14.9608 10.9977 9.41244 17.0415 7.3318L18.6267 11.9885C14.6636 13.2765 12.0876 17.0415 12.0876 21.2028C11.8894 25.5622 14.5645 29.3272 18.5277 30.6152ZM25.8594 35.371L24.3733 30.6152C28.4355 29.3272 31.1106 25.5622 31.1106 21.3018C31.1106 17.0415 28.4355 13.3756 24.4724 12.0876L26.0576 7.3318C32.1014 9.31336 36.1636 14.9608 36.1636 21.3018C36.1636 27.841 32.0023 33.4885 25.8594 35.371Z" fill="#00BEF0"/>
</svg>
