<svg width="200" height="200" viewBox="0 0 200 200" fill="none" xmlns="http://www.w3.org/2000/svg">
<g clip-path="url(#clip0_86_10120)">
<rect width="200" height="200" rx="30" fill="#FAFAFA"/>
<path d="M185.567 16.3486V48.1114H144.488L143.008 16.5718L185.567 16.3486Z" fill="#E0E0E0"/>
<path d="M143.007 16.5354V48.1108H184.086V16.5354L143.007 16.5354Z" fill="white"/>
<path d="M184.242 48.2665H142.852V16.3762H184.242V48.2665ZM143.163 47.9516H183.927V16.6911H143.163V47.9556V47.9516Z" fill="#E0E0E0"/>
<path d="M179.635 19.7795H147.455V43.9543H179.635V19.7795Z" fill="white"/>
<path d="M179.636 19.7798C179.636 19.7798 179.58 19.7798 179.48 19.7838C179.376 19.7838 179.225 19.7838 179.029 19.7878C178.626 19.7878 178.04 19.7918 177.277 19.7958C175.745 19.7997 173.51 19.8077 170.677 19.8157C165.018 19.8237 156.981 19.8356 147.46 19.8516L147.532 19.7798C147.532 27.033 147.536 35.2627 147.54 43.9506L147.46 43.8709C159.443 43.8749 170.553 43.8828 179.64 43.8868L179.572 43.9546C179.588 36.6495 179.6 30.6118 179.608 26.3994C179.616 24.2912 179.62 22.6413 179.624 21.5094C179.624 20.9475 179.628 20.5171 179.632 20.2222C179.632 19.9313 179.64 19.7758 179.64 19.7758C179.64 19.7758 179.644 19.9193 179.648 20.2062C179.648 20.4972 179.652 20.9236 179.656 21.4815C179.656 22.6054 179.664 24.2513 179.672 26.3555C179.68 30.5799 179.692 36.6296 179.708 43.9506V44.0183H179.64C170.553 44.0223 159.443 44.0263 147.46 44.0343H147.38V43.9546C147.38 35.2627 147.384 27.0291 147.388 19.7798V19.7041H147.46C157.005 19.72 165.054 19.732 170.725 19.74C173.55 19.7479 175.781 19.7559 177.309 19.7599C178.068 19.7599 178.65 19.7679 179.049 19.7679C179.241 19.7679 179.388 19.7679 179.492 19.7719C179.592 19.7719 179.64 19.7758 179.64 19.7758L179.636 19.7798Z" fill="#E0E0E0"/>
<path d="M143.008 16.4603C143.008 16.4603 143.287 16.6077 143.702 16.8867C144.117 17.1657 144.688 17.5642 145.306 18.0185C145.925 18.4729 146.468 18.9033 146.855 19.2261C147.242 19.5489 147.469 19.7601 147.457 19.776C147.441 19.796 147.19 19.6126 146.787 19.3137C146.336 18.979 145.801 18.5844 145.211 18.1461C144.62 17.7077 144.085 17.3091 143.638 16.9744C143.239 16.6715 142.996 16.4722 143.012 16.4563L143.008 16.4603Z" fill="#E0E0E0"/>
<path d="M184.087 16.536C184.115 16.5719 183.137 17.3291 181.912 18.2258C180.683 19.1224 179.665 19.8199 179.637 19.784C179.609 19.7481 180.583 18.9909 181.812 18.0942C183.041 17.1975 184.059 16.5001 184.083 16.536H184.087Z" fill="#E0E0E0"/>
<path d="M179.473 43.9547C179.505 43.9228 180.559 44.8235 181.836 45.9712C183.109 47.119 184.118 48.0755 184.087 48.1113C184.055 48.1432 183.001 47.2425 181.724 46.0948C180.451 44.947 179.441 43.9905 179.473 43.9547Z" fill="#E0E0E0"/>
<path d="M143.008 48.1111C142.976 48.0792 143.937 47.1626 145.155 46.0666C146.372 44.9707 147.381 44.1098 147.409 44.1417C147.441 44.1736 146.479 45.0902 145.262 46.1862C144.045 47.2821 143.036 48.143 143.008 48.1111Z" fill="#E0E0E0"/>
<path d="M171.315 31.6482C170.868 33.7445 168.805 35.0835 166.71 34.6372C164.614 34.1908 163.27 32.1304 163.717 30.0382C164.164 27.9419 166.227 26.6028 168.322 27.0492C170.421 27.4955 171.762 29.5559 171.315 31.6482Z" fill="#F5F5F5"/>
<path d="M166.25 34.5256C166.21 34.5057 166.374 34.1072 166.585 33.4536C166.793 32.804 167.044 31.8714 166.941 30.8472C166.833 29.827 166.306 28.9941 165.807 28.5597C165.304 28.1093 164.865 28.0177 164.885 27.9619C164.885 27.934 165.36 27.9539 165.943 28.3923C166.522 28.8187 167.124 29.7074 167.244 30.8114C167.356 31.9113 167.052 32.8797 166.789 33.5253C166.518 34.1749 166.286 34.5416 166.25 34.5256Z" fill="#E0E0E0"/>
<path d="M171.267 30.3726C171.247 30.4603 170.217 30.0897 169.008 30.4483C167.795 30.799 167.128 31.6678 167.068 31.6041C167.037 31.5841 167.156 31.337 167.464 31.0222C167.767 30.7114 168.274 30.3487 168.924 30.1574C169.575 29.9661 170.197 29.998 170.62 30.0936C171.047 30.1893 171.279 30.3328 171.267 30.3686V30.3726Z" fill="#E0E0E0"/>
<path d="M169.511 30.1734C169.463 30.1734 169.483 29.9024 169.343 29.5198C169.211 29.1452 168.872 28.6511 168.317 28.4279C167.755 28.2127 167.172 28.3482 166.821 28.5355C166.462 28.7228 166.294 28.934 166.254 28.9021C166.226 28.8862 166.334 28.6152 166.709 28.3522C167.068 28.0931 167.743 27.8859 168.425 28.1449C169.099 28.4159 169.455 29.0217 169.546 29.4561C169.646 29.9024 169.538 30.1774 169.511 30.1694V30.1734Z" fill="#E0E0E0"/>
<path d="M168.274 30.5839C168.186 30.564 168.25 30.0339 168.094 29.4162C167.95 28.7945 167.655 28.3482 167.723 28.2924C167.779 28.2326 168.222 28.6431 168.389 29.3445C168.561 30.0419 168.349 30.6118 168.274 30.5839Z" fill="#E0E0E0"/>
<path d="M168.238 29.3685C168.234 29.4601 167.899 29.4761 167.58 29.6435C167.257 29.8188 166.989 30.042 166.925 29.9743C166.874 29.9264 167.033 29.6036 167.44 29.3765C167.875 29.1573 168.254 29.2968 168.238 29.3685Z" fill="#E0E0E0"/>
<path d="M162.024 31.1862C163.269 32.2304 163.433 34.0875 162.383 35.3309C161.338 36.5743 159.478 36.7377 158.233 35.6896C156.988 34.6455 156.824 32.7883 157.874 31.5449C158.923 30.3015 160.779 30.1381 162.024 31.1862Z" fill="#F5F5F5"/>
<path d="M162.148 35.5976C162.12 35.6175 161.912 35.3664 161.549 34.9878C161.186 34.6172 160.651 34.1151 159.929 33.8201C159.207 33.5292 158.46 33.581 157.99 33.7643C157.511 33.9437 157.291 34.1987 157.259 34.1708C157.239 34.1629 157.423 33.852 157.926 33.6169C158.417 33.3818 159.227 33.2941 160.013 33.6129C160.791 33.9317 161.33 34.4817 161.669 34.8842C162.008 35.2947 162.168 35.5856 162.148 35.6016V35.5976Z" fill="#E0E0E0"/>
<path d="M161.15 30.7639C161.202 30.8077 160.587 31.3617 160.396 32.3022C160.196 33.2387 160.543 33.992 160.479 34.0119C160.456 34.0238 160.332 33.8565 160.232 33.5416C160.132 33.2268 160.068 32.7565 160.172 32.2544C160.276 31.7522 160.519 31.3457 160.735 31.0986C160.954 30.8476 161.13 30.7439 161.15 30.7639Z" fill="#E0E0E0"/>
<path d="M160.391 31.8678C160.371 31.8997 160.2 31.7881 159.893 31.7482C159.597 31.7044 159.142 31.7482 158.795 32.0471C158.452 32.346 158.332 32.7844 158.336 33.0873C158.332 33.3942 158.416 33.5815 158.38 33.5974C158.36 33.6134 158.216 33.442 158.173 33.0953C158.129 32.7645 158.228 32.2384 158.647 31.8758C159.07 31.5211 159.605 31.5012 159.928 31.5928C160.264 31.6845 160.411 31.8558 160.391 31.8718V31.8678Z" fill="#E0E0E0"/>
<path d="M160.224 32.8401C160.18 32.8919 159.845 32.6607 159.378 32.5412C158.911 32.4137 158.504 32.4535 158.492 32.3897C158.472 32.334 158.907 32.1825 159.434 32.318C159.964 32.4535 160.268 32.7962 160.224 32.8361V32.8401Z" fill="#E0E0E0"/>
<path d="M159.398 32.4296C159.458 32.4655 159.351 32.6926 159.351 32.9676C159.351 33.2466 159.406 33.5056 159.339 33.5216C159.287 33.5375 159.127 33.3183 159.123 32.9636C159.131 32.597 159.358 32.3898 159.402 32.4256L159.398 32.4296Z" fill="#E0E0E0"/>
<path d="M162.147 30.1739C161.106 29.4964 160.467 28.2889 160.052 27.1172C159.637 25.9456 159.621 24.6384 160.004 23.4587C161.15 23.9689 162.075 24.9572 162.51 26.1329C162.945 27.3085 162.69 29.0421 162.147 30.1739Z" fill="#EBEBEB"/>
<path d="M160.938 25.3794C161.397 26.8978 161.773 28.4401 162.056 30.0023L160.938 25.3794Z" fill="white"/>
<path d="M162.056 30.002C162.032 30.006 161.968 29.747 161.869 29.3285C161.757 28.8463 161.625 28.3003 161.485 27.6945C161.334 27.0888 161.198 26.5428 161.082 26.0646C160.979 25.6461 160.919 25.3871 160.943 25.3791C160.963 25.3711 161.062 25.6222 161.194 26.0327C161.326 26.4432 161.493 27.017 161.645 27.6547C161.801 28.2963 161.916 28.8782 161.984 29.3046C162.052 29.731 162.08 29.998 162.06 30.002H162.056Z" fill="#E0E0E0"/>
<path d="M164.785 35.4545C166.002 35.1995 167.307 35.602 168.433 36.136C169.554 36.6701 170.492 37.5827 171.058 38.6906C169.885 39.1409 168.532 39.0971 167.391 38.571C166.25 38.045 165.204 36.6382 164.785 35.4585" fill="#EBEBEB"/>
<path d="M169.04 37.9886C167.639 37.2394 166.282 36.4104 164.978 35.5098L169.04 37.9886Z" fill="white"/>
<path d="M164.973 35.51C164.973 35.51 165.217 35.6256 165.584 35.8527C166.003 36.1118 166.486 36.4107 167.012 36.7375C167.547 37.0603 168.03 37.3512 168.453 37.6063C168.82 37.8294 169.048 37.9689 169.036 37.9889C169.024 38.0088 168.78 37.9012 168.393 37.7059C168.01 37.5106 167.487 37.2197 166.925 36.877C166.362 36.5342 165.867 36.1995 165.516 35.9484C165.165 35.6973 164.957 35.526 164.969 35.51H164.973Z" fill="#E0E0E0"/>
<path d="M163.609 36.0322C163.832 36.7416 163.669 37.5387 163.417 38.2361C163.166 38.9335 162.675 39.5433 162.049 39.9458C161.713 39.2762 161.658 38.4672 161.905 37.7618C162.152 37.0525 162.927 36.351 163.609 36.0322Z" fill="#EBEBEB"/>
<path d="M162.347 38.7065C162.71 37.8297 163.125 36.9769 163.584 36.1479L162.347 38.7065Z" fill="white"/>
<path d="M163.584 36.1478C163.624 36.1717 163.34 36.7416 163.001 37.447C162.658 38.1524 162.387 38.7262 162.347 38.7103C162.307 38.6943 162.51 38.0886 162.858 37.3752C163.201 36.6658 163.548 36.1278 163.588 36.1478H163.584Z" fill="#E0E0E0"/>
<path d="M57.7178 13.9136H24.584V68.6873H57.7178V13.9136Z" fill="#E0E0E0"/>
<path d="M56.6124 13.9136H23.4785V68.6873H56.6124V13.9136Z" fill="#EBEBEB"/>
<path d="M55.2031 15.0254H24.8906V67.5754H55.2031V15.0254Z" fill="#FAFAFA"/>
<path d="M49.3021 21.8525H30.6621V60.7449H49.3021V21.8525Z" fill="#EBEBEB"/>
<path d="M30.6616 46.9837C30.6177 43.3492 33.89 39.8023 37.4935 39.2961C39.2094 39.053 41.0371 39.3958 42.6413 38.7382C45.5066 37.5665 46.4164 33.7646 49.3016 32.6367L49.4333 60.7489H30.6616V46.9877V46.9837Z" fill="#E0E0E0"/>
<rect x="10" y="24.7827" width="177.826" height="198.696" rx="12.1739" fill="#BEBEBE"/>
<rect x="13.4775" y="52.1741" width="170.87" height="171.438" rx="5.21739" fill="#FAFAFA"/>
<path d="M147.912 69.6133H48.5861C46.9653 69.6133 45.6514 70.9272 45.6514 72.5481V209.413C45.6514 211.034 46.9653 212.348 48.5861 212.348H147.912C149.533 212.348 150.847 211.034 150.847 209.413V72.5481C150.847 70.9272 149.533 69.6133 147.912 69.6133Z" fill="#A5A5A5"/>
<path d="M53.8862 73.5132H49.2471V208.722L146.512 209.487L149.199 206.387L146.843 78.8436L53.8862 73.5132Z" fill="#EBEBEB"/>
<path d="M149.199 206.387H53.0253V73.5132H49.2471V209.487H146.512L149.199 206.387Z" fill="#E0E0E0"/>
<path d="M157.39 389.565H62.4946C53.2513 336.995 51.6145 203.269 53.0776 73.4785H147.296C146.527 203.194 148.381 319.671 157.386 389.565H157.39Z" fill="white" stroke="#263238" stroke-width="0.434783" stroke-miterlimit="10"/>
<path d="M62.1852 99.7849C62.2891 102.126 63.1368 104.289 64.4955 106.044C66.5481 108.705 69.7642 110.435 73.3044 110.435C76.8445 110.435 79.9027 108.705 81.7143 106.044C82.9152 104.289 83.5717 102.126 83.4678 99.7849C83.206 93.9005 78.2282 89.1306 72.3528 89.1306C66.4775 89.1306 61.9193 93.9005 62.1852 99.7849Z" fill="#EBEBEB"/>
<path d="M68.191 96.2471C68.2989 98.6215 70.3079 100.548 72.6823 100.548C75.0566 100.548 76.8955 98.6215 76.7917 96.2471C76.6838 93.8728 74.6747 91.9468 72.3004 91.9468C69.9261 91.9468 68.0872 93.8728 68.191 96.2471Z" fill="#A5A5A5"/>
<path d="M64.3307 106.052C66.3813 108.708 69.5941 110.435 73.1307 110.435C76.6673 110.435 79.7224 108.708 81.5322 106.052C79.5149 104.043 76.3228 102.739 72.7862 102.739C69.2496 102.739 66.1696 104.043 64.3307 106.052Z" fill="#A5A5A5"/>
<path opacity="0.1" d="M68.191 96.2471C68.2989 98.6215 70.3079 100.548 72.6823 100.548C75.0566 100.548 76.8955 98.6215 76.7917 96.2471C76.6838 93.8728 74.6747 91.9468 72.3004 91.9468C69.9261 91.9468 68.0872 93.8728 68.191 96.2471Z" fill="#EBEBEB"/>
<path opacity="0.1" d="M64.3307 106.052C66.3813 108.708 69.5941 110.435 73.1307 110.435C76.6673 110.435 79.7224 108.708 81.5322 106.052C79.5149 104.043 76.3228 102.739 72.7862 102.739C69.2496 102.739 66.1696 104.043 64.3307 106.052Z" fill="#EBEBEB"/>
<path d="M87.5907 103.387H137.899C138.321 103.387 138.321 102.735 137.899 102.735H87.5907C87.169 102.735 87.169 103.387 87.5907 103.387Z" fill="#263238"/>
<path d="M65.829 116.992H137.899C138.32 116.992 138.32 116.339 137.899 116.339H65.829C65.4073 116.339 65.4073 116.992 65.829 116.992Z" fill="#263238"/>
<path d="M65.829 128.883H100.829C101.251 128.883 101.251 128.231 100.829 128.231H65.829C65.4073 128.231 65.4073 128.883 65.829 128.883Z" fill="#263238"/>
<path d="M67.2255 140.77H116.03C116.452 140.77 116.452 140.118 116.03 140.118H67.2255C66.8037 140.118 66.8037 140.77 67.2255 140.77Z" fill="#263238"/>
<path d="M68.6259 152.657H93.4824C93.9041 152.657 93.9041 152.004 93.4824 152.004H68.6259C68.2041 152.004 68.2041 152.657 68.6259 152.657Z" fill="#263238"/>
<path d="M97.8085 152.657H138.756C139.178 152.657 139.178 152.004 138.756 152.004H97.8085C97.3868 152.004 97.3868 152.657 97.8085 152.657Z" fill="#263238"/>
<path d="M70.0214 164.544H99.6518C100.074 164.544 100.074 163.892 99.6518 163.892H70.0214C69.5996 163.892 69.5996 164.544 70.0214 164.544Z" fill="#A5A5A5"/>
<path d="M71.4218 176.435H118.422C118.844 176.435 118.844 175.783 118.422 175.783H71.4218C71 175.783 71 176.435 71.4218 176.435Z" fill="#263238"/>
<path d="M73.8261 189.626H105.622C106.043 189.626 106.043 188.974 105.622 188.974H73.8261C73.4043 188.974 73.4043 189.626 73.8261 189.626Z" fill="#263238"/>
<path d="M107.112 182.126C102.465 181.426 97.5907 182.174 93.4255 184.387C91.7125 185.3 89.8516 187.135 90.8342 189.244C91.8168 191.352 94.4212 191.617 96.3733 192.065C101.334 193.209 106.465 194.157 111.556 193.348C113.591 193.026 116.012 192.504 117.612 191.109C119.212 189.713 118.969 187.809 117.652 186.396C116.03 184.661 113.447 183.848 111.165 183.483C108.63 183.074 106.052 183.161 103.495 183.27C103.078 183.287 103.073 183.939 103.495 183.922C107.447 183.748 111.734 183.574 115.33 185.5C116.826 186.3 118.943 188.048 117.769 189.944C116.773 191.552 114.36 192.096 112.656 192.478C108.226 193.461 103.634 192.926 99.2386 192.026C98.0994 191.791 96.9646 191.535 95.8299 191.27C94.769 191.022 93.6299 190.83 92.6777 190.265C91.856 189.783 91.1777 188.948 91.2342 187.948C91.3038 186.809 92.1603 185.926 93.069 185.348C95.0255 184.1 97.3777 183.339 99.6429 182.9C102.043 182.435 104.526 182.387 106.947 182.752C107.356 182.813 107.534 182.187 107.121 182.122L107.112 182.126Z" fill="#A5A5A5"/>
<path d="M124.125 184.992H143.968C144.39 184.992 144.39 184.339 143.968 184.339H124.125C123.703 184.339 123.703 184.992 124.125 184.992Z" fill="#A5A5A5"/>
<path d="M125.516 186.683H143.138C143.56 186.683 143.56 186.031 143.138 186.031H125.516C125.095 186.031 125.095 186.683 125.516 186.683Z" fill="#A5A5A5"/>
<path d="M57.1904 67.5962H81.3556" stroke="#A5A5A5" stroke-width="0.326087" stroke-linejoin="round"/>
<path d="M104.66 164.544H140.756C141.177 164.544 141.177 163.892 140.756 163.892H104.66C104.238 163.892 104.238 164.544 104.66 164.544Z" fill="#263238"/>
<path d="M124.126 176.435H143.135C143.556 176.435 143.556 175.783 143.135 175.783H124.126C123.704 175.783 123.704 176.435 124.126 176.435Z" fill="#263238"/>
<path d="M122.504 140.77H138.756C139.178 140.77 139.178 140.118 138.756 140.118H122.504C122.082 140.118 122.082 140.77 122.504 140.77Z" fill="#263238"/>
<path d="M105.02 128.883H119.16C119.581 128.883 119.581 128.231 119.16 128.231H105.02C104.599 128.231 104.599 128.883 105.02 128.883Z" fill="#A5A5A5"/>
<path d="M124.126 128.809H138.756C139.178 128.809 139.178 128.157 138.756 128.157H124.126C123.704 128.157 123.704 128.809 124.126 128.809Z" fill="#263238"/>
<path d="M145.058 160.201C143.959 160.662 142.861 161.131 141.77 161.592C141.224 161.822 140.671 162.053 140.125 162.291C139.703 162.468 139.234 162.729 138.765 162.76C138.358 162.79 138.32 162.491 138.358 162.145C138.404 161.623 138.558 161.1 138.658 160.585C138.896 159.402 139.134 158.219 139.372 157.035C139.518 156.313 138.404 155.998 138.258 156.728C137.974 158.127 137.697 159.525 137.413 160.931C137.206 161.945 136.883 163.459 138.228 163.851C138.742 163.997 139.303 163.866 139.787 163.674C140.417 163.42 141.04 163.144 141.662 162.883C142.984 162.322 144.313 161.761 145.634 161.2C145.926 161.077 145.98 160.654 145.842 160.409C145.673 160.109 145.335 160.078 145.05 160.201H145.058Z" fill="#A5A5A5"/>
<path d="M55.8243 67.5962H52.0635" stroke="#A5A5A5" stroke-width="0.326087" stroke-linejoin="round"/>
<path opacity="0.4" d="M173.488 76.9716C173.554 77.2198 173.931 77.2198 173.996 76.9716C174.92 73.4605 175.938 72.5095 179.695 71.6461C179.961 71.5852 179.961 71.2331 179.695 71.1721C175.938 70.3088 174.92 69.3577 173.996 65.8467C173.931 65.5985 173.554 65.5985 173.488 65.8467C172.565 69.3577 171.547 70.3088 167.789 71.1721C167.523 71.2331 167.523 71.5852 167.789 71.6461C171.547 72.5095 172.565 73.4605 173.488 76.9716Z" fill="#CDCDCD"/>
<path d="M19.6756 188.004C19.6104 187.756 19.2335 187.756 19.1683 188.004C18.2443 191.515 17.2265 192.466 13.4688 193.33C13.2032 193.391 13.2032 193.743 13.4688 193.804C17.2265 194.667 18.2443 195.618 19.1683 199.129C19.2335 199.377 19.6104 199.377 19.6756 199.129C20.5996 195.618 21.6174 194.667 25.3751 193.804C25.6406 193.743 25.6406 193.391 25.3751 193.33C21.6174 192.466 20.5996 191.515 19.6756 188.004Z" fill="#CDCDCD"/>
<path opacity="0.2" d="M125.295 163.68C125.36 163.928 125.737 163.928 125.802 163.68C126.726 160.169 127.744 159.217 131.502 158.354C131.768 158.293 131.768 157.941 131.502 157.88C127.744 157.017 126.726 156.066 125.802 152.555C125.737 152.306 125.36 152.306 125.295 152.555C124.371 156.066 123.353 157.017 119.596 157.88C119.33 157.941 119.33 158.293 119.596 158.354C123.353 159.217 124.371 160.169 125.295 163.68Z" fill="#CDCDCD"/>
<path opacity="0.2" d="M102.223 199.129C102.288 199.377 102.665 199.377 102.73 199.129C103.654 195.618 104.672 194.667 108.43 193.803C108.695 193.742 108.695 193.39 108.43 193.329C104.672 192.466 103.654 191.515 102.73 188.004C102.665 187.756 102.288 187.756 102.223 188.004C101.299 191.515 100.281 192.466 96.5234 193.329C96.2578 193.39 96.2578 193.742 96.5234 193.803C100.281 194.667 101.299 195.618 102.223 199.129Z" fill="#CDCDCD"/>
<path d="M114.528 94.2174C114.593 94.4656 114.97 94.4656 115.035 94.2174C115.959 90.7064 116.977 89.7553 120.734 88.892C121 88.831 121 88.4789 120.734 88.418C116.977 87.5546 115.959 86.6036 115.035 83.0926C114.97 82.8443 114.593 82.8443 114.528 83.0926C113.604 86.6036 112.586 87.5546 108.828 88.418C108.563 88.4789 108.563 88.831 108.828 88.892C112.586 89.7553 113.604 90.7064 114.528 94.2174Z" fill="#CDCDCD"/>
<path opacity="0.8" d="M67.867 101.296C67.8018 101.048 67.4249 101.048 67.3597 101.296C66.4357 104.807 65.4179 105.758 61.6603 106.622C61.3946 106.683 61.3946 107.035 61.6603 107.096C65.4179 107.959 66.4357 108.91 67.3597 112.421C67.4249 112.669 67.8018 112.669 67.867 112.421C68.791 108.91 69.8088 107.959 73.5665 107.096C73.832 107.035 73.832 106.683 73.5665 106.622C69.8088 105.758 68.791 104.807 67.867 101.296Z" fill="#CDCDCD"/>
<path opacity="0.2" d="M163.853 93.8162C163.891 93.961 164.111 93.961 164.149 93.8162C164.688 91.7681 165.282 91.2133 167.474 90.7097C167.629 90.6742 167.629 90.4688 167.474 90.4332C165.282 89.9296 164.688 89.3748 164.149 87.3267C164.111 87.1819 163.891 87.1819 163.853 87.3267C163.314 89.3748 162.72 89.9296 160.528 90.4332C160.373 90.4688 160.373 90.6742 160.528 90.7097C162.72 91.2133 163.314 91.7681 163.853 93.8162Z" fill="#CDCDCD"/>
<path opacity="0.4" d="M29.3111 171.16C29.273 171.015 29.0532 171.015 29.0152 171.16C28.4762 173.208 27.8824 173.763 25.6905 174.267C25.5355 174.302 25.5355 174.508 25.6905 174.543C27.8824 175.047 28.4762 175.602 29.0152 177.65C29.0532 177.794 29.273 177.794 29.3111 177.65C29.8501 175.602 30.4438 175.047 32.6358 174.543C32.7907 174.508 32.7907 174.302 32.6358 174.267C30.4438 173.763 29.8501 173.208 29.3111 171.16Z" fill="#CDCDCD"/>
<path opacity="0.2" d="M106.213 109.363C106.175 109.218 105.956 109.218 105.917 109.363C105.379 111.411 104.785 111.965 102.593 112.469C102.438 112.505 102.438 112.71 102.593 112.746C104.785 113.249 105.379 113.804 105.917 115.852C105.956 115.997 106.175 115.997 106.213 115.852C106.752 113.804 107.346 113.249 109.538 112.746C109.693 112.71 109.693 112.505 109.538 112.469C107.346 111.965 106.752 111.411 106.213 109.363Z" fill="#CDCDCD"/>
<path opacity="0.4" d="M172.568 117.289C172.606 117.434 172.826 117.434 172.864 117.289C173.403 115.241 173.996 114.686 176.188 114.183C176.343 114.147 176.343 113.942 176.188 113.906C173.996 113.403 173.403 112.848 172.864 110.8C172.826 110.655 172.606 110.655 172.568 110.8C172.029 112.848 171.435 113.403 169.243 113.906C169.088 113.942 169.088 114.147 169.243 114.183C171.435 114.686 172.029 115.241 172.568 117.289Z" fill="#CDCDCD"/>
<path opacity="0.4" d="M176.158 185.793C176.196 185.938 176.416 185.938 176.454 185.793C176.993 183.745 177.586 183.19 179.778 182.687C179.933 182.651 179.933 182.446 179.778 182.41C177.586 181.907 176.993 181.352 176.454 179.304C176.416 179.159 176.196 179.159 176.158 179.304C175.619 181.352 175.025 181.907 172.833 182.41C172.678 182.446 172.678 182.651 172.833 182.687C175.025 183.19 175.619 183.745 176.158 185.793Z" fill="#CDCDCD"/>
<path opacity="0.2" d="M20.5953 147.687C20.5572 147.542 20.3374 147.542 20.2993 147.687C19.7604 149.735 19.1666 150.29 16.9747 150.793C16.8197 150.829 16.8197 151.034 16.9747 151.07C19.1666 151.573 19.7604 152.128 20.2993 154.176C20.3374 154.321 20.5572 154.321 20.5953 154.176C21.1342 152.128 21.728 151.573 23.92 151.07C24.0749 151.034 24.0749 150.829 23.92 150.793C21.728 150.29 21.1342 149.735 20.5953 147.687Z" fill="#CDCDCD"/>
<path opacity="0.4" d="M143.857 110.583C143.895 110.727 144.115 110.727 144.153 110.583C144.692 108.534 145.286 107.98 147.477 107.476C147.632 107.441 147.632 107.235 147.477 107.2C145.286 106.696 144.692 106.141 144.153 104.093C144.115 103.948 143.895 103.948 143.857 104.093C143.318 106.141 142.724 106.696 140.532 107.2C140.377 107.235 140.377 107.441 140.532 107.476C142.724 107.98 143.318 108.534 143.857 110.583Z" fill="#CDCDCD"/>
<path d="M49.3062 154.393C49.2682 154.248 49.0483 154.248 49.0103 154.393C48.4713 156.441 47.8775 156.996 45.6856 157.5C45.5306 157.535 45.5306 157.741 45.6856 157.776C47.8775 158.28 48.4713 158.835 49.0103 160.883C49.0483 161.028 49.2682 161.028 49.3062 160.883C49.8452 158.835 50.4389 158.28 52.6309 157.776C52.7858 157.741 52.7858 157.535 52.6309 157.5C50.4389 156.996 49.8452 156.441 49.3062 154.393Z" fill="#CDCDCD"/>
<path d="M101.086 164.453C101.048 164.308 100.829 164.308 100.791 164.453C100.252 166.501 99.6578 167.056 97.4659 167.559C97.3109 167.595 97.3109 167.8 97.4659 167.836C99.6578 168.339 100.252 168.894 100.791 170.942C100.829 171.087 101.048 171.087 101.086 170.942C101.625 168.894 102.219 168.339 104.411 167.836C104.566 167.8 104.566 167.595 104.411 167.559C102.219 167.056 101.625 166.501 101.086 164.453Z" fill="#CDCDCD"/>
<path opacity="0.4" d="M40.5904 82.0571C40.5523 81.9123 40.3325 81.9123 40.2945 82.0571C39.7555 84.1052 39.1617 84.66 36.9698 85.1636C36.8148 85.1991 36.8148 85.4045 36.9698 85.4401C39.1617 85.9437 39.7555 86.4985 40.2945 88.5466C40.3325 88.6914 40.5523 88.6914 40.5904 88.5466C41.1294 86.4985 41.7231 85.9437 43.9151 85.4401C44.07 85.4045 44.07 85.1991 43.9151 85.1636C41.7231 84.66 41.1294 84.1052 40.5904 82.0571Z" fill="#CDCDCD"/>
<path d="M170.048 140.315C170.075 140.418 170.232 140.418 170.259 140.315C170.644 138.852 171.068 138.456 172.634 138.096C172.744 138.07 172.744 137.924 172.634 137.898C171.068 137.539 170.644 137.142 170.259 135.679C170.232 135.576 170.075 135.576 170.048 135.679C169.663 137.142 169.239 137.539 167.673 137.898C167.562 137.924 167.562 138.07 167.673 138.096C169.239 138.456 169.663 138.852 170.048 140.315Z" fill="#CDCDCD"/>
<path d="M23.1165 124.661C23.0893 124.558 22.9323 124.558 22.9051 124.661C22.5201 126.124 22.096 126.52 20.5303 126.88C20.4196 126.905 20.4196 127.052 20.5303 127.077C22.096 127.437 22.5201 127.833 22.9051 129.296C22.9323 129.4 23.0893 129.4 23.1165 129.296C23.5014 127.833 23.9256 127.437 25.4912 127.077C25.6019 127.052 25.6019 126.905 25.4912 126.88C23.9256 126.52 23.5014 126.124 23.1165 124.661Z" fill="#CDCDCD"/>
<path d="M26.1926 60.9477C26.1655 60.8443 26.0084 60.8443 25.9812 60.9477C25.5963 62.4106 25.1722 62.8069 23.6065 63.1666C23.4958 63.192 23.4958 63.3387 23.6065 63.3641C25.1722 63.7238 25.5963 64.1201 25.9812 65.583C26.0084 65.6865 26.1655 65.6865 26.1926 65.583C26.5776 64.1201 27.0017 63.7238 28.5674 63.3641C28.6781 63.3387 28.6781 63.192 28.5674 63.1666C27.0017 62.8069 26.5776 62.4106 26.1926 60.9477Z" fill="#CDCDCD"/>
<path d="M172.822 156.278C172.794 156.175 172.637 156.175 172.61 156.278C172.225 157.741 171.801 158.137 170.235 158.497C170.125 158.523 170.125 158.669 170.235 158.695C171.801 159.054 172.225 159.451 172.61 160.914C172.637 161.017 172.794 161.017 172.822 160.914C173.207 159.451 173.631 159.054 175.196 158.695C175.307 158.669 175.307 158.523 175.196 158.497C173.631 158.137 173.207 157.741 172.822 156.278Z" fill="#CDCDCD"/>
<path opacity="0.5" d="M49.3374 129.306C35.0547 115.023 35.0547 91.8737 49.3341 77.5943C63.6135 63.3149 86.7666 63.3117 101.049 77.5943C115.325 91.8704 115.325 115.023 101.046 129.306C86.7698 143.582 63.6168 143.582 49.3374 129.306Z" fill="#BEBEBE" fill-opacity="0.6"/>
<path d="M128.182 149.804C128.032 149.079 127.742 148.499 127.35 148.016C126.505 147.115 125.605 146.267 124.717 145.409C123.823 144.554 122.923 143.709 122.003 142.887C121.093 142.052 120.157 141.24 119.223 140.431C117.338 138.822 115.407 137.263 113.407 135.772C112.493 135.097 111.567 134.431 110.624 133.785C111.061 132.588 110.803 131.195 109.844 130.233L108.471 128.859C108.223 128.611 107.949 128.412 107.655 128.259C119.922 112.244 118.734 89.2279 104.083 74.5734C88.1298 58.6204 62.2625 58.6204 46.3095 74.5734C30.3566 90.5264 30.3631 116.39 46.3128 132.343C60.9674 146.998 83.9834 148.189 99.9983 135.916C100.152 136.209 100.354 136.483 100.599 136.731L101.972 138.105C102.934 139.067 104.328 139.322 105.525 138.884C106.171 139.827 106.836 140.754 107.512 141.667C109.002 143.667 110.565 145.598 112.17 147.484C112.983 148.42 113.792 149.357 114.627 150.264C115.452 151.184 116.297 152.087 117.149 152.978C118.01 153.865 118.855 154.766 119.755 155.611C120.235 156.002 120.819 156.296 121.543 156.443C122.277 156.583 123.112 156.619 124.264 156.338C126.081 155.891 127.601 154.472 128.074 152.528C128.355 151.373 128.319 150.538 128.179 149.807L128.182 149.804ZM48.2735 130.373C33.4036 115.503 33.4036 91.3941 48.2702 76.5275C63.1401 61.6577 87.249 61.6577 102.119 76.5275C116.986 91.3941 116.985 115.5 102.116 130.373C87.249 145.24 63.1434 145.24 48.2767 130.373H48.2735Z" fill="#BEBEBE"/>
<path opacity="0.2" d="M128.182 149.804C128.032 149.079 127.742 148.499 127.35 148.016C126.505 147.115 125.605 146.267 124.717 145.409C123.823 144.554 122.923 143.709 122.003 142.887C121.093 142.052 120.157 141.24 119.223 140.431C117.338 138.822 115.407 137.263 113.407 135.772C112.493 135.097 111.567 134.431 110.624 133.785C111.061 132.588 110.803 131.195 109.844 130.233L108.471 128.859C108.223 128.611 107.949 128.412 107.655 128.259C119.922 112.244 118.734 89.2279 104.083 74.5734C88.1298 58.6204 62.2625 58.6204 46.3095 74.5734C30.3566 90.5264 30.3631 116.39 46.3128 132.343C60.9674 146.998 83.9834 148.189 99.9983 135.916C100.152 136.209 100.354 136.483 100.599 136.731L101.972 138.105C102.934 139.067 104.328 139.322 105.525 138.884C106.171 139.827 106.836 140.754 107.512 141.667C109.002 143.667 110.565 145.598 112.17 147.484C112.983 148.42 113.792 149.357 114.627 150.264C115.452 151.184 116.297 152.087 117.149 152.978C118.01 153.865 118.855 154.766 119.755 155.611C120.235 156.002 120.819 156.296 121.543 156.443C122.277 156.583 123.112 156.619 124.264 156.338C126.081 155.891 127.601 154.472 128.074 152.528C128.355 151.373 128.319 150.538 128.179 149.807L128.182 149.804ZM48.2735 130.373C33.4036 115.503 33.4036 91.3941 48.2702 76.5275C63.1401 61.6577 87.249 61.6577 102.119 76.5275C116.986 91.3941 116.985 115.5 102.116 130.373C87.249 145.24 63.1434 145.24 48.2767 130.373H48.2735Z" fill="black"/>
<path opacity="0.3" d="M105.524 138.878L110.623 133.779C110.623 133.779 109.27 137.661 105.524 138.878Z" fill="black"/>
<path d="M113.365 86.6475C112.879 85.535 112.337 84.4323 111.756 83.3721L112.063 83.2057C112.647 84.2757 113.195 85.3849 113.684 86.5072L113.365 86.6475ZM110.344 80.984C108.729 78.4491 106.827 76.0839 104.693 73.9503L104.941 73.7024C107.091 75.8523 109.009 78.2403 110.637 80.7948L110.344 80.9807V80.984Z" fill="#BEBEBE"/>
<path opacity="0.2" d="M113.365 86.6475C112.879 85.535 112.337 84.4323 111.756 83.3721L112.063 83.2057C112.647 84.2757 113.195 85.3849 113.684 86.5072L113.365 86.6475ZM110.344 80.984C108.729 78.4491 106.827 76.0839 104.693 73.9503L104.941 73.7024C107.091 75.8523 109.009 78.2403 110.637 80.7948L110.344 80.9807V80.984Z" fill="black"/>
<path d="M100 218.424C166.755 218.424 220.87 210.054 220.87 199.728C220.87 189.403 166.755 181.033 100 181.033C33.246 181.033 -20.8691 189.403 -20.8691 199.728C-20.8691 210.054 33.246 218.424 100 218.424Z" fill="#F5F5F5"/>
<circle cx="23.9127" cy="39.1307" r="5.21739" fill="#FF4747"/>
<circle cx="37.3912" cy="39.1307" r="5.21739" fill="#FAAD14"/>
<circle cx="50.8697" cy="39.1307" r="5.21739" fill="#52C41A"/>
<path d="M145.643 73.8872C157.797 68.8765 171.782 74.5182 176.868 86.5083C181.954 98.4858 176.224 112.268 164.07 117.279C154.68 121.153 144.23 118.642 137.603 111.801L130.435 112.028L133.009 105.011C132.959 104.885 132.896 104.784 132.833 104.658C127.746 92.6801 133.476 78.8978 145.63 73.8872H145.643Z" fill="#01A6FF"/>
<path d="M150.658 91.6405H144.026V91.3391C144.026 88.5004 145.094 86.3023 147.229 84.7448C149.037 83.4637 151.738 82.8231 155.33 82.8231C158.897 82.8231 161.51 83.3632 163.168 84.4434C165.353 85.7497 166.446 87.7217 166.446 90.3593C166.446 92.5449 165.454 94.1651 163.469 95.2202L161.811 96.1622C161.61 96.2878 161.259 96.4888 160.756 96.7651C160.254 97.0163 159.852 97.2424 159.551 97.4434C159.274 97.6444 159.023 97.8705 158.797 98.1217C158.119 98.8502 157.779 99.742 157.779 100.797V101.174H152.127V100.684C152.127 99.0511 152.441 97.7574 153.069 96.8028C153.522 96.0492 154.351 95.283 155.556 94.5043L156.649 93.7883C157.629 93.1603 158.269 92.6956 158.571 92.3941C159.098 91.8415 159.362 91.1632 159.362 90.3593C159.362 89.455 158.91 88.7642 158.006 88.2869C157.277 87.8849 156.31 87.684 155.104 87.684C153.647 87.684 152.579 87.9603 151.901 88.513C151.072 89.1661 150.658 90.1584 150.658 91.4898V91.6405ZM151.298 109.652V104.075H158.232V109.652H151.298Z" fill="white"/>
<path d="M169.762 73.4331C163.628 68.7507 155.033 67.4128 147.726 69.9875" stroke="#01A6FF" stroke-width="0.869565" stroke-linecap="round" stroke-linejoin="round"/>
<path d="M144.419 71.2871C143.283 71.6026 142.21 72.1454 141.289 72.8774L144.419 71.2871Z" fill="#01A6FF"/>
<path d="M144.419 71.2871C143.283 71.6026 142.21 72.1454 141.289 72.8774" stroke="#01A6FF" stroke-width="0.869565" stroke-linecap="round" stroke-linejoin="round"/>
<path d="M56.0541 102.681C46.3215 98.6688 35.1234 103.186 31.0505 112.788C26.9776 122.379 31.566 133.415 41.2985 137.427C48.8178 140.53 57.186 138.519 62.4919 133.041L68.2324 133.223L66.1707 127.604C66.2111 127.503 66.2617 127.422 66.3122 127.321C70.3851 117.73 65.7967 106.693 56.0642 102.681H56.0541Z" fill="#01A6FF"/>
<path d="M45.2073 116.664H39.8968V116.423C39.8968 114.149 40.7517 112.389 42.4615 111.142C43.9098 110.116 46.0723 109.603 48.9488 109.603C51.8052 109.603 53.8973 110.036 55.2249 110.901C56.975 111.947 57.85 113.526 57.85 115.638C57.85 117.388 57.0554 118.686 55.4663 119.53L54.1387 120.285C53.9777 120.385 53.6961 120.546 53.2938 120.768C52.8915 120.969 52.5696 121.15 52.3283 121.311C52.107 121.472 51.9058 121.653 51.7248 121.854C51.1817 122.437 50.9101 123.151 50.9101 123.996V124.298H46.3841V123.906C46.3841 122.598 46.6355 121.562 47.1384 120.798C47.5005 120.194 48.1643 119.581 49.1299 118.957L50.0049 118.384C50.7894 117.881 51.3024 117.509 51.5437 117.267C51.9662 116.825 52.1774 116.282 52.1774 115.638C52.1774 114.914 51.8153 114.361 51.0911 113.979C50.5078 113.657 49.7333 113.496 48.7678 113.496C47.6011 113.496 46.7461 113.717 46.203 114.16C45.5392 114.683 45.2073 115.477 45.2073 116.543V116.664ZM45.7202 131.087L45.7202 126.621H51.2722V131.087H45.7202Z" fill="white"/>
<path d="M36.7397 102.318C41.6515 98.5681 48.5341 97.4968 54.3857 99.5585" stroke="#01A6FF" stroke-width="0.696312" stroke-linecap="round" stroke-linejoin="round"/>
<path d="M57.0346 100.599C57.9442 100.852 58.8032 101.287 59.541 101.873L57.0346 100.599Z" fill="#01A6FF"/>
<path d="M57.0346 100.599C57.9442 100.852 58.8032 101.287 59.541 101.873" stroke="#01A6FF" stroke-width="0.696312" stroke-linecap="round" stroke-linejoin="round"/>
<path d="M112.79 175.828C120.232 178.895 128.794 175.441 131.908 168.1C135.022 160.767 131.514 152.328 124.072 149.261C118.323 146.888 111.925 148.426 107.868 152.614L103.479 152.475L105.055 156.772C105.024 156.849 104.985 156.911 104.947 156.988C101.833 164.321 105.341 172.76 112.782 175.828H112.79Z" fill="#01A6FF"/>
<path d="M115.862 159.885H111.802V159.701C111.802 157.963 112.455 156.617 113.763 155.663C114.87 154.879 116.523 154.487 118.723 154.487C120.907 154.487 122.506 154.817 123.521 155.479C124.859 156.279 125.529 157.486 125.529 159.101C125.529 160.439 124.921 161.431 123.706 162.077L122.691 162.654C122.568 162.731 122.352 162.854 122.045 163.023C121.737 163.177 121.491 163.315 121.307 163.438C121.137 163.561 120.984 163.7 120.845 163.853C120.43 164.3 120.222 164.846 120.222 165.491V165.722H116.762V165.422C116.762 164.423 116.954 163.63 117.338 163.046C117.615 162.585 118.123 162.115 118.861 161.639L119.53 161.2C120.13 160.816 120.522 160.531 120.707 160.347C121.03 160.008 121.191 159.593 121.191 159.101C121.191 158.547 120.914 158.124 120.361 157.832C119.915 157.586 119.323 157.463 118.584 157.463C117.692 157.463 117.039 157.632 116.623 157.97C116.116 158.37 115.862 158.978 115.862 159.793V159.885ZM116.254 170.913V167.499H120.499V170.913H116.254Z" fill="white"/>
<path d="M127.557 176.106C123.801 178.973 118.539 179.792 114.064 178.215" stroke="#01A6FF" stroke-width="0.532398" stroke-linecap="round" stroke-linejoin="round"/>
<path d="M112.04 177.419C111.345 177.226 110.688 176.894 110.124 176.446L112.04 177.419Z" fill="#01A6FF"/>
<path d="M112.04 177.419C111.345 177.226 110.688 176.894 110.124 176.446" stroke="#01A6FF" stroke-width="0.532398" stroke-linecap="round" stroke-linejoin="round"/>
</g>
<defs>
<clipPath id="clip0_86_10120">
<rect width="200" height="200" rx="30" fill="white"/>
</clipPath>
</defs>
</svg>
