<svg width="200" height="200" viewBox="0 0 200 200" fill="none" xmlns="http://www.w3.org/2000/svg">
<g clip-path="url(#clip0_86_9973)">
<rect width="200" height="200" rx="30" fill="#FAFAFA"/>
<path d="M185.566 16.3481V48.1109H144.487L143.007 16.5713L185.566 16.3481Z" fill="#E0E0E0"/>
<path d="M143.007 16.5354V48.1108H184.086V16.5354L143.007 16.5354Z" fill="white"/>
<path d="M184.242 48.2662H142.852V16.376H184.242V48.2662ZM143.163 47.9514H183.927V16.6908H143.163V47.9554V47.9514Z" fill="#E0E0E0"/>
<path d="M179.637 19.7793H147.457V43.954H179.637V19.7793Z" fill="white"/>
<path d="M179.637 19.7796C179.637 19.7796 179.581 19.7796 179.481 19.7836C179.377 19.7836 179.226 19.7836 179.03 19.7875C178.627 19.7875 178.041 19.7915 177.278 19.7955C175.746 19.7995 173.511 19.8075 170.678 19.8154C165.019 19.8234 156.982 19.8354 147.461 19.8513L147.533 19.7796C147.533 27.0328 147.536 35.2624 147.54 43.9503L147.461 43.8706C159.444 43.8746 170.554 43.8826 179.641 43.8866L179.573 43.9543C179.589 36.6493 179.601 30.6116 179.609 26.3991C179.617 24.2909 179.621 22.641 179.625 21.5092C179.625 20.9473 179.629 20.5169 179.633 20.2219C179.633 19.931 179.641 19.7756 179.641 19.7756C179.641 19.7756 179.645 19.9191 179.649 20.206C179.649 20.4969 179.653 20.9234 179.657 21.4813C179.657 22.6051 179.665 24.2511 179.673 26.3553C179.681 30.5797 179.693 36.6294 179.709 43.9503V44.0181H179.641C170.554 44.0221 159.444 44.0261 147.461 44.034H147.381V43.9543C147.381 35.2624 147.385 27.0288 147.389 19.7796V19.7039H147.461C157.006 19.7198 165.055 19.7318 170.726 19.7397C173.551 19.7477 175.782 19.7557 177.31 19.7597C178.068 19.7597 178.651 19.7676 179.05 19.7676C179.242 19.7676 179.389 19.7676 179.493 19.7716C179.593 19.7716 179.641 19.7756 179.641 19.7756L179.637 19.7796Z" fill="#E0E0E0"/>
<path d="M143.007 16.4598C143.007 16.4598 143.286 16.6073 143.701 16.8862C144.116 17.1652 144.687 17.5637 145.305 18.018C145.924 18.4724 146.467 18.9028 146.854 19.2256C147.241 19.5484 147.468 19.7596 147.456 19.7756C147.44 19.7955 147.189 19.6122 146.786 19.3133C146.335 18.9785 145.8 18.584 145.21 18.1456C144.619 17.7072 144.084 17.3087 143.637 16.9739C143.238 16.671 142.995 16.4718 143.011 16.4558L143.007 16.4598Z" fill="#E0E0E0"/>
<path d="M184.086 16.5355C184.114 16.5714 183.136 17.3286 181.911 18.2253C180.682 19.122 179.664 19.8194 179.636 19.7835C179.608 19.7476 180.582 18.9904 181.811 18.0937C183.04 17.1971 184.058 16.4996 184.082 16.5355H184.086Z" fill="#E0E0E0"/>
<path d="M179.473 43.9542C179.505 43.9223 180.559 44.823 181.836 45.9707C183.109 47.1185 184.118 48.075 184.087 48.1108C184.055 48.1427 183.001 47.2421 181.724 46.0943C180.451 44.9465 179.441 43.9901 179.473 43.9542Z" fill="#E0E0E0"/>
<path d="M143.008 48.1108C142.976 48.0789 143.937 47.1623 145.155 46.0664C146.372 44.9704 147.381 44.1096 147.409 44.1415C147.441 44.1734 146.479 45.09 145.262 46.1859C144.045 47.2819 143.036 48.1427 143.008 48.1108Z" fill="#E0E0E0"/>
<path d="M171.313 31.6477C170.866 33.744 168.803 35.083 166.708 34.6367C164.613 34.1903 163.268 32.1299 163.715 30.0377C164.162 27.9414 166.225 26.6024 168.32 27.0487C170.419 27.4951 171.76 29.5555 171.313 31.6477Z" fill="#F5F5F5"/>
<path d="M166.248 34.5252C166.208 34.5052 166.372 34.1067 166.583 33.4531C166.791 32.8035 167.042 31.871 166.939 30.8467C166.831 29.8265 166.304 28.9936 165.805 28.5592C165.302 28.1088 164.864 28.0172 164.883 27.9614C164.883 27.9335 165.358 27.9534 165.941 28.3918C166.52 28.8182 167.122 29.7069 167.242 30.8109C167.354 31.9108 167.05 32.8792 166.787 33.5248C166.516 34.1744 166.284 34.5411 166.248 34.5252Z" fill="#E0E0E0"/>
<path d="M171.265 30.3724C171.245 30.46 170.215 30.0894 169.006 30.4481C167.793 30.7988 167.126 31.6676 167.067 31.6038C167.035 31.5839 167.154 31.3368 167.462 31.022C167.765 30.7111 168.272 30.3484 168.922 30.1572C169.573 29.9659 170.195 29.9977 170.618 30.0934C171.045 30.189 171.277 30.3325 171.265 30.3684V30.3724Z" fill="#E0E0E0"/>
<path d="M169.51 30.1732C169.462 30.1732 169.482 29.9022 169.342 29.5196C169.21 29.145 168.871 28.6508 168.316 28.4276C167.754 28.2124 167.171 28.3479 166.82 28.5352C166.461 28.7225 166.293 28.9338 166.253 28.9019C166.225 28.8859 166.333 28.6149 166.708 28.3519C167.067 28.0929 167.742 27.8856 168.424 28.1447C169.098 28.4157 169.454 29.0214 169.545 29.4558C169.645 29.9022 169.537 30.1772 169.51 30.1692V30.1732Z" fill="#E0E0E0"/>
<path d="M168.272 30.5837C168.184 30.5637 168.248 30.0337 168.092 29.416C167.948 28.7943 167.653 28.3479 167.721 28.2921C167.777 28.2323 168.22 28.6428 168.387 29.3442C168.559 30.0417 168.347 30.6116 168.272 30.5837Z" fill="#E0E0E0"/>
<path d="M168.236 29.3682C168.232 29.4599 167.897 29.4758 167.578 29.6432C167.255 29.8186 166.987 30.0418 166.924 29.974C166.872 29.9262 167.031 29.6034 167.438 29.3762C167.873 29.157 168.252 29.2965 168.236 29.3682Z" fill="#E0E0E0"/>
<path d="M162.022 31.1853C163.267 32.2294 163.431 34.0865 162.381 35.33C161.336 36.5734 159.476 36.7368 158.231 35.6886C156.986 34.6445 156.822 32.7873 157.872 31.5439C158.921 30.3005 160.777 30.1371 162.022 31.1853Z" fill="#F5F5F5"/>
<path d="M162.146 35.5968C162.118 35.6168 161.91 35.3657 161.547 34.9871C161.184 34.6165 160.649 34.1143 159.927 33.8194C159.205 33.5285 158.458 33.5803 157.988 33.7636C157.509 33.943 157.289 34.198 157.257 34.1701C157.237 34.1621 157.421 33.8513 157.924 33.6162C158.415 33.381 159.225 33.2934 160.011 33.6122C160.789 33.931 161.328 34.481 161.667 34.8835C162.006 35.294 162.166 35.5849 162.146 35.6008V35.5968Z" fill="#E0E0E0"/>
<path d="M161.148 30.7629C161.2 30.8067 160.585 31.3607 160.394 32.3012C160.194 33.2378 160.541 33.991 160.478 34.0109C160.454 34.0229 160.33 33.8555 160.23 33.5406C160.13 33.2258 160.066 32.7555 160.17 32.2534C160.274 31.7512 160.517 31.3447 160.733 31.0977C160.952 30.8466 161.128 30.743 161.148 30.7629Z" fill="#E0E0E0"/>
<path d="M160.389 31.8668C160.369 31.8987 160.198 31.7871 159.891 31.7473C159.595 31.7034 159.14 31.7473 158.793 32.0462C158.45 32.3451 158.33 32.7834 158.334 33.0863C158.33 33.3932 158.414 33.5805 158.378 33.5964C158.358 33.6124 158.215 33.441 158.171 33.0943C158.127 32.7635 158.227 32.2375 158.646 31.8748C159.069 31.5201 159.603 31.5002 159.927 31.5918C160.262 31.6835 160.409 31.8549 160.389 31.8708V31.8668Z" fill="#E0E0E0"/>
<path d="M160.222 32.8394C160.178 32.8912 159.843 32.66 159.376 32.5405C158.909 32.4129 158.502 32.4528 158.49 32.389C158.47 32.3332 158.905 32.1818 159.432 32.3173C159.962 32.4528 160.266 32.7955 160.222 32.8354V32.8394Z" fill="#E0E0E0"/>
<path d="M159.395 32.4286C159.455 32.4645 159.348 32.6917 159.348 32.9667C159.348 33.2456 159.403 33.5047 159.336 33.5206C159.284 33.5366 159.124 33.3174 159.12 32.9627C159.128 32.596 159.356 32.3888 159.399 32.4247L159.395 32.4286Z" fill="#E0E0E0"/>
<path d="M162.146 30.1732C161.105 29.4957 160.466 28.2882 160.051 27.1165C159.636 25.9448 159.62 24.6377 160.003 23.458C161.149 23.9681 162.074 24.9565 162.509 26.1321C162.944 27.3078 162.689 29.0414 162.146 30.1732Z" fill="#EBEBEB"/>
<path d="M160.938 25.3789C161.396 26.8973 161.772 28.4396 162.055 30.0018L160.938 25.3789Z" fill="white"/>
<path d="M162.054 30.0018C162.03 30.0058 161.966 29.7467 161.867 29.3283C161.755 28.846 161.623 28.3001 161.484 27.6943C161.332 27.0885 161.196 26.5425 161.08 26.0643C160.977 25.6459 160.917 25.3868 160.941 25.3788C160.961 25.3709 161.061 25.6219 161.192 26.0324C161.324 26.4429 161.492 27.0168 161.643 27.6544C161.799 28.2961 161.915 28.8779 161.982 29.3044C162.05 29.7308 162.078 29.9978 162.058 30.0018H162.054Z" fill="#E0E0E0"/>
<path d="M164.784 35.4536C166.001 35.1985 167.306 35.601 168.432 36.1351C169.553 36.6691 170.491 37.5817 171.057 38.6896C169.884 39.14 168.531 39.0961 167.39 38.5701C166.249 38.044 165.203 36.6372 164.784 35.4576" fill="#EBEBEB"/>
<path d="M169.038 37.9881C167.637 37.2389 166.281 36.41 164.976 35.5093L169.038 37.9881Z" fill="white"/>
<path d="M164.971 35.5095C164.971 35.5095 165.215 35.6251 165.582 35.8523C166.001 36.1113 166.484 36.4102 167.01 36.737C167.545 37.0598 168.028 37.3507 168.451 37.6058C168.818 37.829 169.046 37.9684 169.034 37.9884C169.022 38.0083 168.778 37.9007 168.391 37.7054C168.008 37.5101 167.485 37.2192 166.923 36.8765C166.36 36.5337 165.865 36.199 165.514 35.9479C165.163 35.6968 164.955 35.5255 164.967 35.5095H164.971Z" fill="#E0E0E0"/>
<path d="M163.606 36.0315C163.83 36.7409 163.666 37.5379 163.415 38.2354C163.163 38.9328 162.672 39.5425 162.046 39.945C161.711 39.2755 161.655 38.4665 161.902 37.7611C162.149 37.0517 162.924 36.3503 163.606 36.0315Z" fill="#EBEBEB"/>
<path d="M162.345 38.7058C162.708 37.829 163.123 36.9762 163.582 36.1472L162.345 38.7058Z" fill="white"/>
<path d="M163.582 36.147C163.622 36.1709 163.338 36.7408 162.999 37.4462C162.656 38.1516 162.385 38.7255 162.345 38.7096C162.305 38.6936 162.508 38.0879 162.856 37.3745C163.199 36.6651 163.546 36.1271 163.586 36.147H163.582Z" fill="#E0E0E0"/>
<path d="M57.7169 13.9131H24.583V68.6868H57.7169V13.9131Z" fill="#E0E0E0"/>
<path d="M56.6114 13.9131H23.4775V68.6868H56.6114V13.9131Z" fill="#EBEBEB"/>
<path d="M55.2031 15.0249H24.8906V67.5749H55.2031V15.0249Z" fill="#FAFAFA"/>
<path d="M49.3002 21.8518H30.6602V60.7442H49.3002V21.8518Z" fill="#EBEBEB"/>
<path d="M30.6606 46.983C30.6167 43.3484 33.889 39.8015 37.4925 39.2954C39.2084 39.0523 41.0361 39.395 42.6403 38.7375C45.5056 37.5658 46.4154 33.7638 49.3006 32.636L49.4323 60.7482H30.6606V46.987V46.983Z" fill="#E0E0E0"/>
<rect x="10" y="24.7827" width="177.826" height="198.696" rx="12.1739" fill="#214FE2"/>
<rect x="13.4775" y="52.1741" width="170.87" height="171.438" rx="5.21739" fill="#FAFAFA"/>
<path d="M147.912 69.613H48.5861C46.9653 69.613 45.6514 70.927 45.6514 72.5478V209.413C45.6514 211.034 46.9653 212.348 48.5861 212.348H147.912C149.533 212.348 150.847 211.034 150.847 209.413V72.5478C150.847 70.927 149.533 69.613 147.912 69.613Z" fill="#A5A5A5"/>
<path d="M53.8862 73.5132H49.2471V208.722L146.512 209.487L149.199 206.387L146.843 78.8436L53.8862 73.5132Z" fill="#EBEBEB"/>
<path d="M149.199 206.387H53.0253V73.5132H49.2471V209.487H146.512L149.199 206.387Z" fill="#E0E0E0"/>
<path d="M157.39 389.565H62.4946C53.2513 336.995 51.6145 203.269 53.0776 73.4783H147.296C146.527 203.194 148.381 319.671 157.386 389.565H157.39Z" fill="white" stroke="#263238" stroke-width="0.434783" stroke-miterlimit="10"/>
<path d="M62.1843 99.7846C62.2881 102.126 63.1358 104.288 64.4945 106.043C66.5471 108.705 69.7632 110.435 73.3034 110.435C76.8435 110.435 79.9017 108.705 81.7134 106.043C82.9142 104.288 83.5707 102.126 83.4668 99.7846C83.2051 93.9002 78.2272 89.1304 72.3518 89.1304C66.4765 89.1304 61.9183 93.9002 62.1843 99.7846Z" fill="#EBEBEB"/>
<path d="M68.191 96.2469C68.2989 98.6212 70.3079 100.547 72.6823 100.547C75.0566 100.547 76.8955 98.6212 76.7917 96.2469C76.6838 93.8726 74.6747 91.9465 72.3004 91.9465C69.9261 91.9465 68.0872 93.8726 68.191 96.2469Z" fill="#A5A5A5"/>
<path d="M64.3307 106.051C66.3813 108.708 69.5941 110.435 73.1307 110.435C76.6673 110.435 79.7224 108.708 81.5322 106.051C79.5149 104.042 76.3228 102.739 72.7862 102.739C69.2496 102.739 66.1696 104.042 64.3307 106.051Z" fill="#A5A5A5"/>
<path opacity="0.1" d="M68.191 96.2469C68.2989 98.6212 70.3079 100.547 72.6823 100.547C75.0566 100.547 76.8955 98.6212 76.7917 96.2469C76.6838 93.8726 74.6747 91.9465 72.3004 91.9465C69.9261 91.9465 68.0872 93.8726 68.191 96.2469Z" fill="#EBEBEB"/>
<path opacity="0.1" d="M64.3307 106.051C66.3813 108.708 69.5941 110.435 73.1307 110.435C76.6673 110.435 79.7224 108.708 81.5322 106.051C79.5149 104.042 76.3228 102.739 72.7862 102.739C69.2496 102.739 66.1696 104.042 64.3307 106.051Z" fill="#EBEBEB"/>
<path d="M87.5897 103.387H137.898C138.32 103.387 138.32 102.735 137.898 102.735H87.5897C87.168 102.735 87.168 103.387 87.5897 103.387Z" fill="#263238"/>
<path d="M65.829 116.991H137.899C138.32 116.991 138.32 116.339 137.899 116.339H65.829C65.4073 116.339 65.4073 116.991 65.829 116.991Z" fill="#263238"/>
<path d="M65.829 128.883H100.829C101.251 128.883 101.251 128.23 100.829 128.23H65.829C65.4073 128.23 65.4073 128.883 65.829 128.883Z" fill="#263238"/>
<path d="M67.2255 140.77H116.03C116.452 140.77 116.452 140.117 116.03 140.117H67.2255C66.8037 140.117 66.8037 140.77 67.2255 140.77Z" fill="#263238"/>
<path d="M68.6249 152.657H93.4814C93.9032 152.657 93.9032 152.004 93.4814 152.004H68.6249C68.2032 152.004 68.2032 152.657 68.6249 152.657Z" fill="#263238"/>
<path d="M97.8085 152.657H138.756C139.178 152.657 139.178 152.004 138.756 152.004H97.8085C97.3868 152.004 97.3868 152.657 97.8085 152.657Z" fill="#263238"/>
<path d="M70.0214 164.544H99.6518C100.074 164.544 100.074 163.891 99.6518 163.891H70.0214C69.5996 163.891 69.5996 164.544 70.0214 164.544Z" fill="#A5A5A5"/>
<path d="M71.4208 176.435H118.421C118.843 176.435 118.843 175.782 118.421 175.782H71.4208C70.9991 175.782 70.9991 176.435 71.4208 176.435Z" fill="#263238"/>
<path d="M73.8251 189.626H105.621C106.042 189.626 106.042 188.974 105.621 188.974H73.8251C73.4034 188.974 73.4034 189.626 73.8251 189.626Z" fill="#263238"/>
<path d="M107.112 182.126C102.465 181.426 97.5907 182.174 93.4255 184.387C91.7125 185.3 89.8516 187.135 90.8342 189.244C91.8168 191.352 94.4212 191.617 96.3733 192.065C101.334 193.209 106.465 194.157 111.556 193.348C113.591 193.026 116.012 192.504 117.612 191.109C119.212 189.713 118.969 187.809 117.652 186.396C116.03 184.661 113.447 183.848 111.165 183.483C108.63 183.074 106.052 183.161 103.495 183.27C103.078 183.287 103.073 183.939 103.495 183.922C107.447 183.748 111.734 183.574 115.33 185.5C116.826 186.3 118.943 188.048 117.769 189.944C116.773 191.552 114.36 192.096 112.656 192.478C108.226 193.461 103.634 192.926 99.2386 192.026C98.0994 191.791 96.9646 191.535 95.8299 191.27C94.769 191.022 93.6299 190.83 92.6777 190.265C91.856 189.783 91.1777 188.948 91.2342 187.948C91.3038 186.809 92.1603 185.926 93.069 185.348C95.0255 184.1 97.3777 183.339 99.6429 182.9C102.043 182.435 104.526 182.387 106.947 182.752C107.356 182.813 107.534 182.187 107.121 182.122L107.112 182.126Z" fill="#A5A5A5"/>
<path d="M124.125 184.991H143.968C144.39 184.991 144.39 184.339 143.968 184.339H124.125C123.703 184.339 123.703 184.991 124.125 184.991Z" fill="#A5A5A5"/>
<path d="M125.516 186.683H143.138C143.56 186.683 143.56 186.031 143.138 186.031H125.516C125.095 186.031 125.095 186.683 125.516 186.683Z" fill="#A5A5A5"/>
<path d="M57.1904 67.5957H81.3556" stroke="#A5A5A5" stroke-width="0.326087" stroke-linejoin="round"/>
<path d="M104.66 164.544H140.756C141.177 164.544 141.177 163.891 140.756 163.891H104.66C104.238 163.891 104.238 164.544 104.66 164.544Z" fill="#263238"/>
<path d="M124.125 176.435H143.134C143.555 176.435 143.555 175.783 143.134 175.783H124.125C123.703 175.783 123.703 176.435 124.125 176.435Z" fill="#263238"/>
<path d="M122.504 140.77H138.756C139.178 140.77 139.178 140.117 138.756 140.117H122.504C122.082 140.117 122.082 140.77 122.504 140.77Z" fill="#263238"/>
<path d="M105.02 128.883H119.16C119.581 128.883 119.581 128.23 119.16 128.23H105.02C104.599 128.23 104.599 128.883 105.02 128.883Z" fill="#A5A5A5"/>
<path d="M124.125 128.809H138.755C139.177 128.809 139.177 128.156 138.755 128.156H124.125C123.703 128.156 123.703 128.809 124.125 128.809Z" fill="#263238"/>
<path d="M145.057 160.201C143.958 160.662 142.86 161.13 141.769 161.591C141.223 161.822 140.67 162.052 140.124 162.291C139.702 162.467 139.233 162.728 138.764 162.759C138.357 162.79 138.319 162.49 138.357 162.145C138.403 161.622 138.557 161.1 138.657 160.585C138.895 159.402 139.133 158.218 139.371 157.035C139.517 156.313 138.403 155.998 138.257 156.728C137.973 158.126 137.696 159.524 137.412 160.931C137.205 161.945 136.882 163.458 138.227 163.85C138.741 163.996 139.302 163.866 139.786 163.674C140.416 163.42 141.039 163.143 141.661 162.882C142.983 162.321 144.312 161.76 145.633 161.199C145.925 161.077 145.979 160.654 145.841 160.408C145.672 160.108 145.334 160.078 145.05 160.201H145.057Z" fill="#A5A5A5"/>
<path d="M55.8253 67.5957H52.0645" stroke="#A5A5A5" stroke-width="0.326087" stroke-linejoin="round"/>
<path opacity="0.4" d="M173.489 76.9711C173.555 77.2193 173.932 77.2193 173.997 76.9711C174.921 73.46 175.939 72.509 179.696 71.6457C179.962 71.5847 179.962 71.2326 179.696 71.1716C175.939 70.3083 174.921 69.3572 173.997 65.8462C173.932 65.598 173.555 65.598 173.489 65.8462C172.565 69.3572 171.548 70.3083 167.79 71.1716C167.524 71.2326 167.524 71.5847 167.79 71.6457C171.548 72.509 172.565 73.46 173.489 76.9711Z" fill="#CDCDCD"/>
<path d="M19.6766 188.004C19.6113 187.756 19.2345 187.756 19.1693 188.004C18.2453 191.515 17.2274 192.466 13.4698 193.329C13.2042 193.39 13.2042 193.742 13.4698 193.803C17.2274 194.667 18.2453 195.618 19.1693 199.129C19.2345 199.377 19.6113 199.377 19.6766 199.129C20.6005 195.618 21.6184 194.667 25.376 193.803C25.6416 193.742 25.6416 193.39 25.376 193.329C21.6184 192.466 20.6005 191.515 19.6766 188.004Z" fill="#CDCDCD"/>
<path opacity="0.2" d="M125.296 163.679C125.361 163.927 125.738 163.927 125.803 163.679C126.727 160.168 127.745 159.217 131.503 158.354C131.768 158.293 131.768 157.941 131.503 157.88C127.745 157.016 126.727 156.065 125.803 152.554C125.738 152.306 125.361 152.306 125.296 152.554C124.372 156.065 123.354 157.016 119.597 157.88C119.331 157.941 119.331 158.293 119.597 158.354C123.354 159.217 124.372 160.168 125.296 163.679Z" fill="#CDCDCD"/>
<path opacity="0.2" d="M102.226 199.129C102.291 199.377 102.668 199.377 102.733 199.129C103.657 195.618 104.675 194.666 108.433 193.803C108.698 193.742 108.698 193.39 108.433 193.329C104.675 192.466 103.657 191.515 102.733 188.004C102.668 187.755 102.291 187.755 102.226 188.004C101.302 191.515 100.284 192.466 96.5263 193.329C96.2608 193.39 96.2608 193.742 96.5263 193.803C100.284 194.666 101.302 195.618 102.226 199.129Z" fill="#CDCDCD"/>
<path d="M114.53 94.2169C114.596 94.4651 114.973 94.4651 115.038 94.2169C115.962 90.7059 116.98 89.7548 120.737 88.8915C121.003 88.8306 121.003 88.4784 120.737 88.4175C116.98 87.5542 115.962 86.6031 115.038 83.0921C114.973 82.8439 114.596 82.8439 114.53 83.0921C113.606 86.6031 112.589 87.5542 108.831 88.4175C108.565 88.4784 108.565 88.8306 108.831 88.8915C112.589 89.7548 113.606 90.7059 114.53 94.2169Z" fill="#CDCDCD"/>
<path opacity="0.8" d="M67.8699 101.296C67.8047 101.048 67.4279 101.048 67.3626 101.296C66.4387 104.807 65.4208 105.758 61.6632 106.621C61.3975 106.682 61.3975 107.034 61.6632 107.095C65.4208 107.959 66.4387 108.91 67.3626 112.421C67.4279 112.669 67.8047 112.669 67.8699 112.421C68.7939 108.91 69.8118 107.959 73.5694 107.095C73.8349 107.034 73.8349 106.682 73.5694 106.621C69.8118 105.758 68.7939 104.807 67.8699 101.296Z" fill="#CDCDCD"/>
<path opacity="0.2" d="M163.854 93.8155C163.892 93.9603 164.112 93.9603 164.15 93.8155C164.689 91.7674 165.283 91.2126 167.475 90.709C167.63 90.6734 167.63 90.468 167.475 90.4325C165.283 89.9289 164.689 89.3741 164.15 87.326C164.112 87.1812 163.892 87.1812 163.854 87.326C163.315 89.3741 162.721 89.9289 160.529 90.4325C160.374 90.468 160.374 90.6734 160.529 90.709C162.721 91.2126 163.315 91.7674 163.854 93.8155Z" fill="#CDCDCD"/>
<path opacity="0.4" d="M29.3121 171.16C29.274 171.015 29.0542 171.015 29.0161 171.16C28.4772 173.208 27.8834 173.763 25.6915 174.266C25.5365 174.302 25.5365 174.507 25.6915 174.543C27.8834 175.046 28.4772 175.601 29.0161 177.649C29.0542 177.794 29.274 177.794 29.3121 177.649C29.851 175.601 30.4448 175.046 32.6368 174.543C32.7917 174.507 32.7917 174.302 32.6368 174.266C30.4448 173.763 29.851 173.208 29.3121 171.16Z" fill="#CDCDCD"/>
<path opacity="0.2" d="M106.216 109.362C106.178 109.217 105.958 109.217 105.92 109.362C105.381 111.41 104.788 111.965 102.596 112.469C102.441 112.504 102.441 112.709 102.596 112.745C104.788 113.249 105.381 113.803 105.92 115.852C105.958 115.996 106.178 115.996 106.216 115.852C106.755 113.803 107.349 113.249 109.541 112.745C109.696 112.709 109.696 112.504 109.541 112.469C107.349 111.965 106.755 111.41 106.216 109.362Z" fill="#CDCDCD"/>
<path opacity="0.4" d="M172.57 117.289C172.608 117.434 172.828 117.434 172.866 117.289C173.405 115.241 173.998 114.686 176.19 114.182C176.345 114.147 176.345 113.941 176.19 113.906C173.998 113.402 173.405 112.847 172.866 110.799C172.828 110.655 172.608 110.655 172.57 110.799C172.031 112.847 171.437 113.402 169.245 113.906C169.09 113.941 169.09 114.147 169.245 114.182C171.437 114.686 172.031 115.241 172.57 117.289Z" fill="#CDCDCD"/>
<path opacity="0.4" d="M176.159 185.793C176.197 185.938 176.417 185.938 176.455 185.793C176.994 183.745 177.587 183.19 179.779 182.686C179.934 182.651 179.934 182.445 179.779 182.41C177.587 181.906 176.994 181.351 176.455 179.303C176.417 179.158 176.197 179.158 176.159 179.303C175.62 181.351 175.026 181.906 172.834 182.41C172.679 182.445 172.679 182.651 172.834 182.686C175.026 183.19 175.62 183.745 176.159 185.793Z" fill="#CDCDCD"/>
<path opacity="0.2" d="M20.5963 147.686C20.5582 147.541 20.3384 147.541 20.3003 147.686C19.7613 149.734 19.1676 150.289 16.9756 150.792C16.8207 150.828 16.8207 151.033 16.9756 151.069C19.1676 151.573 19.7613 152.127 20.3003 154.175C20.3384 154.32 20.5582 154.32 20.5963 154.175C21.1352 152.127 21.729 151.573 23.9209 151.069C24.0758 151.033 24.0758 150.828 23.9209 150.792C21.729 150.289 21.1352 149.734 20.5963 147.686Z" fill="#CDCDCD"/>
<path opacity="0.4" d="M143.859 110.582C143.897 110.727 144.117 110.727 144.155 110.582C144.694 108.534 145.287 107.979 147.479 107.476C147.634 107.44 147.634 107.235 147.479 107.199C145.287 106.695 144.694 106.141 144.155 104.093C144.117 103.948 143.897 103.948 143.859 104.093C143.32 106.141 142.726 106.695 140.534 107.199C140.379 107.235 140.379 107.44 140.534 107.476C142.726 107.979 143.32 108.534 143.859 110.582Z" fill="#CDCDCD"/>
<path d="M49.3072 154.393C49.2691 154.248 49.0493 154.248 49.0112 154.393C48.4723 156.441 47.8785 156.996 45.6866 157.499C45.5316 157.535 45.5316 157.74 45.6866 157.776C47.8785 158.279 48.4723 158.834 49.0112 160.882C49.0493 161.027 49.2691 161.027 49.3072 160.882C49.8462 158.834 50.4399 158.279 52.6319 157.776C52.7868 157.74 52.7868 157.535 52.6319 157.499C50.4399 156.996 49.8462 156.441 49.3072 154.393Z" fill="#CDCDCD"/>
<path d="M101.089 164.453C101.051 164.308 100.832 164.308 100.793 164.453C100.254 166.501 99.6607 167.056 97.4688 167.559C97.3138 167.595 97.3138 167.8 97.4688 167.836C99.6607 168.339 100.254 168.894 100.793 170.942C100.832 171.087 101.051 171.087 101.089 170.942C101.628 168.894 102.222 168.339 104.414 167.836C104.569 167.8 104.569 167.595 104.414 167.559C102.222 167.056 101.628 166.501 101.089 164.453Z" fill="#CDCDCD"/>
<path opacity="0.4" d="M40.5914 82.0563C40.5533 81.9116 40.3335 81.9116 40.2954 82.0563C39.7565 84.1044 39.1627 84.6592 36.9708 85.1628C36.8158 85.1984 36.8158 85.4038 36.9708 85.4394C39.1627 85.943 39.7565 86.4977 40.2954 88.5458C40.3335 88.6906 40.5533 88.6906 40.5914 88.5458C41.1303 86.4977 41.7241 85.943 43.916 85.4394C44.071 85.4038 44.071 85.1984 43.916 85.1628C41.7241 84.6592 41.1303 84.1044 40.5914 82.0563Z" fill="#CDCDCD"/>
<path d="M170.049 140.314C170.076 140.418 170.233 140.418 170.26 140.314C170.645 138.851 171.069 138.455 172.635 138.095C172.745 138.07 172.745 137.923 172.635 137.898C171.069 137.538 170.645 137.142 170.26 135.679C170.233 135.576 170.076 135.576 170.049 135.679C169.664 137.142 169.239 137.538 167.674 137.898C167.563 137.923 167.563 138.07 167.674 138.095C169.239 138.455 169.664 138.851 170.049 140.314Z" fill="#CDCDCD"/>
<path d="M23.1174 124.661C23.0903 124.557 22.9332 124.557 22.9061 124.661C22.5211 126.123 22.097 126.52 20.5313 126.879C20.4206 126.905 20.4206 127.052 20.5313 127.077C22.097 127.437 22.5211 127.833 22.9061 129.296C22.9332 129.399 23.0903 129.399 23.1174 129.296C23.5024 127.833 23.9265 127.437 25.4922 127.077C25.6029 127.052 25.6029 126.905 25.4922 126.879C23.9265 126.52 23.5024 126.123 23.1174 124.661Z" fill="#CDCDCD"/>
<path d="M26.1936 60.9472C26.1664 60.8438 26.0094 60.8438 25.9822 60.9472C25.5972 62.4101 25.1731 62.8064 23.6075 63.1661C23.4968 63.1915 23.4968 63.3382 23.6075 63.3636C25.1731 63.7233 25.5972 64.1196 25.9822 65.5826C26.0094 65.686 26.1664 65.686 26.1936 65.5826C26.5786 64.1196 27.0027 63.7233 28.5684 63.3636C28.679 63.3382 28.679 63.1915 28.5684 63.1661C27.0027 62.8064 26.5786 62.4101 26.1936 60.9472Z" fill="#CDCDCD"/>
<path d="M172.823 156.278C172.796 156.175 172.639 156.175 172.612 156.278C172.227 157.741 171.803 158.137 170.237 158.497C170.127 158.522 170.127 158.669 170.237 158.694C171.803 159.054 172.227 159.45 172.612 160.913C172.639 161.017 172.796 161.017 172.823 160.913C173.208 159.45 173.633 159.054 175.198 158.694C175.309 158.669 175.309 158.522 175.198 158.497C173.633 158.137 173.208 157.741 172.823 156.278Z" fill="#CDCDCD"/>
<path opacity="0.5" d="M49.3374 129.306C35.0547 115.023 35.0547 91.8737 49.3341 77.5943C63.6135 63.3149 86.7666 63.3117 101.049 77.5943C115.325 91.8704 115.325 115.023 101.046 129.306C86.7698 143.582 63.6168 143.582 49.3374 129.306Z" fill="#214FE2" fill-opacity="0.6"/>
<path d="M128.182 149.804C128.032 149.079 127.742 148.499 127.35 148.016C126.505 147.115 125.605 146.267 124.717 145.409C123.823 144.554 122.923 143.709 122.003 142.887C121.093 142.052 120.157 141.24 119.223 140.431C117.338 138.822 115.407 137.263 113.407 135.772C112.493 135.097 111.567 134.431 110.624 133.785C111.061 132.588 110.803 131.195 109.844 130.233L108.471 128.859C108.223 128.611 107.949 128.412 107.655 128.259C119.922 112.244 118.734 89.2279 104.083 74.5734C88.1298 58.6204 62.2625 58.6204 46.3095 74.5734C30.3566 90.5264 30.3631 116.39 46.3128 132.343C60.9674 146.998 83.9834 148.189 99.9983 135.916C100.152 136.209 100.354 136.483 100.599 136.731L101.972 138.105C102.934 139.067 104.328 139.322 105.525 138.884C106.171 139.827 106.836 140.754 107.512 141.667C109.002 143.667 110.565 145.598 112.17 147.484C112.983 148.42 113.792 149.357 114.627 150.264C115.452 151.184 116.297 152.087 117.149 152.978C118.01 153.865 118.855 154.766 119.755 155.611C120.235 156.002 120.819 156.296 121.543 156.443C122.277 156.583 123.112 156.619 124.264 156.338C126.081 155.891 127.601 154.472 128.074 152.528C128.355 151.373 128.319 150.538 128.179 149.807L128.182 149.804ZM48.2735 130.373C33.4036 115.503 33.4036 91.3942 48.2702 76.5275C63.1401 61.6577 87.249 61.6577 102.119 76.5275C116.985 91.3942 116.985 115.5 102.116 130.373C87.249 145.24 63.1434 145.24 48.2767 130.373H48.2735Z" fill="#214FE2"/>
<path opacity="0.2" d="M128.182 149.804C128.032 149.079 127.742 148.499 127.35 148.016C126.505 147.115 125.605 146.267 124.717 145.409C123.823 144.554 122.923 143.709 122.003 142.887C121.093 142.052 120.157 141.24 119.223 140.431C117.338 138.822 115.407 137.263 113.407 135.772C112.493 135.097 111.567 134.431 110.624 133.785C111.061 132.588 110.803 131.195 109.844 130.233L108.471 128.859C108.223 128.611 107.949 128.412 107.655 128.259C119.922 112.244 118.734 89.2279 104.083 74.5734C88.1298 58.6204 62.2625 58.6204 46.3095 74.5734C30.3566 90.5264 30.3631 116.39 46.3128 132.343C60.9674 146.998 83.9834 148.189 99.9983 135.916C100.152 136.209 100.354 136.483 100.599 136.731L101.972 138.105C102.934 139.067 104.328 139.322 105.525 138.884C106.171 139.827 106.836 140.754 107.512 141.667C109.002 143.667 110.565 145.598 112.17 147.484C112.983 148.42 113.792 149.357 114.627 150.264C115.452 151.184 116.297 152.087 117.149 152.978C118.01 153.865 118.855 154.766 119.755 155.611C120.235 156.002 120.819 156.296 121.543 156.443C122.277 156.583 123.112 156.619 124.264 156.338C126.081 155.891 127.601 154.472 128.074 152.528C128.355 151.373 128.319 150.538 128.179 149.807L128.182 149.804ZM48.2735 130.373C33.4036 115.503 33.4036 91.3942 48.2702 76.5275C63.1401 61.6577 87.249 61.6577 102.119 76.5275C116.985 91.3942 116.985 115.5 102.116 130.373C87.249 145.24 63.1434 145.24 48.2767 130.373H48.2735Z" fill="black"/>
<path opacity="0.3" d="M105.524 138.878L110.623 133.779C110.623 133.779 109.27 137.661 105.524 138.878Z" fill="black"/>
<path d="M113.365 86.6475C112.879 85.535 112.337 84.4323 111.756 83.3721L112.063 83.2057C112.647 84.2757 113.195 85.3849 113.684 86.5072L113.365 86.6475ZM110.344 80.984C108.729 78.4491 106.827 76.0839 104.693 73.9503L104.941 73.7024C107.091 75.8523 109.009 78.2403 110.637 80.7948L110.344 80.9807V80.984Z" fill="#214FE2"/>
<path opacity="0.2" d="M113.365 86.6475C112.879 85.535 112.337 84.4323 111.756 83.3721L112.063 83.2057C112.647 84.2757 113.195 85.3849 113.684 86.5072L113.365 86.6475ZM110.344 80.984C108.729 78.4491 106.827 76.0839 104.693 73.9503L104.941 73.7024C107.091 75.8523 109.009 78.2403 110.637 80.7948L110.344 80.9807V80.984Z" fill="black"/>
<path d="M99.9994 218.424C166.754 218.424 220.869 210.054 220.869 199.728C220.869 189.403 166.754 181.033 99.9994 181.033C33.245 181.033 -20.8701 189.403 -20.8701 199.728C-20.8701 210.054 33.245 218.424 99.9994 218.424Z" fill="#F5F5F5"/>
<circle cx="23.9127" cy="39.1305" r="5.21739" fill="#FF4747"/>
<circle cx="37.3912" cy="39.1305" r="5.21739" fill="#FAAD14"/>
<circle cx="50.8688" cy="39.1305" r="5.21739" fill="#52C41A"/>
<path d="M145.643 73.8872C157.797 68.8765 171.782 74.5182 176.868 86.5083C181.954 98.4858 176.224 112.268 164.07 117.279C154.68 121.153 144.23 118.642 137.603 111.801L130.435 112.028L133.009 105.011C132.959 104.885 132.896 104.784 132.833 104.658C127.746 92.6801 133.476 78.8978 145.63 73.8872H145.643Z" fill="#214FE2"/>
<path d="M169.762 73.4329C163.628 68.7504 155.033 67.4126 147.726 69.9873" stroke="#214FE2" stroke-width="0.869565" stroke-linecap="round" stroke-linejoin="round"/>
<path d="M144.419 71.2874C143.283 71.6029 142.21 72.1456 141.289 72.8776" stroke="#214FE2" stroke-width="0.869565" stroke-linecap="round" stroke-linejoin="round"/>
<circle cx="143.913" cy="95.6521" r="3.91304" fill="white"/>
<circle cx="154.782" cy="95.6521" r="3.91304" fill="white"/>
<circle cx="165.652" cy="95.6521" r="3.91304" fill="white"/>
</g>
<defs>
<clipPath id="clip0_86_9973">
<rect width="200" height="200" rx="30" fill="white"/>
</clipPath>
</defs>
</svg>
