<svg width="160" height="160" viewBox="0 0 160 160" fill="none" xmlns="http://www.w3.org/2000/svg">
<g clip-path="url(#clip0_78_11841)">
<rect width="160" height="160" rx="24" fill="#FAFAFA"/>
<path d="M148.454 13.0784V38.4885H115.59L114.406 13.2569L148.454 13.0784Z" fill="#E0E0E0"/>
<path d="M114.406 13.2279V38.4883H147.269V13.2279L114.406 13.2279Z" fill="white"/>
<path d="M147.394 38.613H114.281V13.1008H147.394V38.613ZM114.53 38.3612H147.141V13.3527H114.53V38.3643V38.3612Z" fill="#E0E0E0"/>
<path d="M143.71 15.8232H117.966V35.163H143.71V15.8232Z" fill="white"/>
<path d="M143.71 15.8235C143.71 15.8235 143.665 15.8235 143.585 15.8267C143.502 15.8267 143.381 15.8267 143.225 15.8299C142.902 15.8299 142.433 15.8331 141.823 15.8363C140.597 15.8395 138.809 15.8458 136.543 15.8522C132.016 15.8586 125.586 15.8682 117.969 15.8809L118.026 15.8235C118.026 21.6261 118.03 28.2098 118.033 35.1601L117.969 35.0964C127.556 35.0995 136.444 35.1059 143.713 35.1091L143.659 35.1633C143.671 29.3193 143.681 24.4891 143.687 21.1192C143.694 19.4326 143.697 18.1127 143.7 17.2072C143.7 16.7577 143.703 16.4133 143.707 16.1774C143.707 15.9447 143.713 15.8203 143.713 15.8203C143.713 15.8203 143.716 15.9351 143.719 16.1647C143.719 16.3974 143.723 16.7385 143.726 17.1849C143.726 18.084 143.732 19.4007 143.739 21.0841C143.745 24.4636 143.754 29.3033 143.767 35.1601V35.2143H143.713C136.444 35.2175 127.556 35.2207 117.969 35.2271H117.905V35.1633C117.905 28.2098 117.908 21.6229 117.911 15.8235V15.7629H117.969C125.605 15.7757 132.044 15.7853 136.581 15.7916C138.841 15.798 140.626 15.8044 141.849 15.8076C142.455 15.8076 142.921 15.814 143.24 15.814C143.394 15.814 143.512 15.814 143.595 15.8171C143.675 15.8171 143.713 15.8203 143.713 15.8203L143.71 15.8235Z" fill="#E0E0E0"/>
<path d="M114.406 13.1677C114.406 13.1677 114.63 13.2857 114.962 13.5089C115.294 13.7321 115.75 14.0509 116.245 14.4143C116.74 14.7778 117.174 15.1221 117.484 15.3804C117.793 15.6386 117.975 15.8076 117.966 15.8203C117.953 15.8363 117.752 15.6896 117.429 15.4505C117.069 15.1827 116.641 14.8671 116.168 14.5164C115.696 14.1657 115.268 13.8468 114.91 13.579C114.591 13.3367 114.396 13.1773 114.409 13.1646L114.406 13.1677Z" fill="#E0E0E0"/>
<path d="M147.269 13.2286C147.292 13.2573 146.51 13.8631 145.53 14.5804C144.546 15.2978 143.732 15.8557 143.71 15.827C143.688 15.7983 144.467 15.1925 145.45 14.4752C146.433 13.7578 147.247 13.1999 147.266 13.2286H147.269Z" fill="#E0E0E0"/>
<path d="M143.579 35.1635C143.604 35.138 144.447 35.8585 145.469 36.7767C146.487 37.695 147.295 38.4601 147.269 38.4888C147.244 38.5143 146.401 37.7938 145.379 36.8756C144.361 35.9574 143.553 35.1922 143.579 35.1635Z" fill="#E0E0E0"/>
<path d="M114.406 38.4884C114.38 38.4629 115.15 37.7296 116.123 36.8529C117.097 35.9761 117.905 35.2874 117.927 35.3129C117.953 35.3384 117.183 36.0717 116.21 36.9485C115.236 37.8253 114.428 38.5139 114.406 38.4884Z" fill="#E0E0E0"/>
<path d="M137.05 25.3179C136.693 26.9949 135.042 28.0662 133.366 27.7091C131.69 27.352 130.614 25.7037 130.972 24.0299C131.329 22.3529 132.98 21.2816 134.656 21.6387C136.335 21.9958 137.408 23.6441 137.05 25.3179Z" fill="#F5F5F5"/>
<path d="M132.999 27.6199C132.967 27.604 133.098 27.2852 133.267 26.7623C133.433 26.2426 133.634 25.4966 133.551 24.6772C133.465 23.861 133.044 23.1947 132.644 22.8472C132.242 22.4869 131.891 22.4136 131.907 22.3689C131.907 22.3466 132.287 22.3625 132.753 22.7132C133.216 23.0544 133.698 23.7654 133.794 24.6485C133.883 25.5285 133.641 26.3032 133.43 26.8197C133.213 27.3394 133.028 27.6327 132.999 27.6199Z" fill="#E0E0E0"/>
<path d="M137.012 24.2979C136.996 24.3681 136.173 24.0716 135.205 24.3585C134.235 24.6391 133.702 25.3341 133.654 25.2831C133.628 25.2672 133.724 25.0695 133.97 24.8176C134.212 24.5689 134.618 24.2788 135.138 24.1258C135.659 23.9727 136.157 23.9982 136.495 24.0748C136.837 24.1513 137.022 24.2661 137.012 24.2947V24.2979Z" fill="#E0E0E0"/>
<path d="M135.608 24.1387C135.57 24.1387 135.586 23.9219 135.474 23.6158C135.368 23.3161 135.097 22.9208 134.653 22.7423C134.203 22.5701 133.737 22.6785 133.456 22.8283C133.169 22.9782 133.035 23.1472 133.003 23.1217C132.98 23.1089 133.067 22.8921 133.367 22.6817C133.654 22.4744 134.194 22.3087 134.739 22.5159C135.279 22.7327 135.563 23.2173 135.637 23.5648C135.716 23.9219 135.63 24.1419 135.608 24.1355V24.1387Z" fill="#E0E0E0"/>
<path d="M134.618 24.4667C134.548 24.4508 134.599 24.0268 134.474 23.5326C134.359 23.0352 134.123 22.6781 134.177 22.6335C134.222 22.5857 134.576 22.9141 134.71 23.4752C134.848 24.0331 134.678 24.4891 134.618 24.4667Z" fill="#E0E0E0"/>
<path d="M134.589 23.4944C134.586 23.5677 134.317 23.5805 134.062 23.7144C133.803 23.8547 133.59 24.0332 133.539 23.979C133.497 23.9408 133.625 23.6825 133.95 23.5008C134.298 23.3254 134.602 23.437 134.589 23.4944Z" fill="#E0E0E0"/>
<path d="M129.618 24.9479C130.614 25.7832 130.745 27.2689 129.905 28.2637C129.069 29.2584 127.581 29.3891 126.585 28.5506C125.589 27.7153 125.458 26.2296 126.298 25.2349C127.137 24.2401 128.622 24.1094 129.618 24.9479Z" fill="#F5F5F5"/>
<path d="M129.717 28.4773C129.695 28.4933 129.529 28.2924 129.238 27.9895C128.948 27.693 128.52 27.2913 127.942 27.0554C127.364 26.8226 126.767 26.8641 126.39 27.0107C126.007 27.1542 125.832 27.3583 125.806 27.3359C125.79 27.3296 125.937 27.0809 126.339 26.8928C126.732 26.7047 127.38 26.6345 128.009 26.8896C128.631 27.1447 129.062 27.5846 129.334 27.9066C129.605 28.235 129.733 28.4678 129.717 28.4805V28.4773Z" fill="#E0E0E0"/>
<path d="M128.919 24.6103C128.96 24.6454 128.469 25.0886 128.315 25.841C128.156 26.5902 128.433 27.1928 128.382 27.2087C128.363 27.2183 128.264 27.0844 128.184 26.8325C128.105 26.5806 128.053 26.2044 128.136 25.8027C128.219 25.401 128.414 25.0758 128.587 24.8781C128.762 24.6773 128.903 24.5944 128.919 24.6103Z" fill="#E0E0E0"/>
<path d="M128.312 25.4935C128.296 25.519 128.159 25.4297 127.913 25.3978C127.677 25.3627 127.313 25.3978 127.035 25.6369C126.761 25.876 126.665 26.2268 126.668 26.4691C126.665 26.7146 126.732 26.8644 126.703 26.8772C126.687 26.8899 126.572 26.7528 126.537 26.4754C126.502 26.2108 126.582 25.79 126.917 25.4998C127.255 25.2161 127.683 25.2001 127.942 25.2735C128.21 25.3468 128.328 25.4839 128.312 25.4966V25.4935Z" fill="#E0E0E0"/>
<path d="M128.178 26.2713C128.143 26.3128 127.875 26.1279 127.501 26.0322C127.128 25.9302 126.802 25.9621 126.793 25.9111C126.777 25.8664 127.125 25.7453 127.546 25.8537C127.971 25.9621 128.213 26.2363 128.178 26.2681V26.2713Z" fill="#E0E0E0"/>
<path d="M127.517 25.9429C127.565 25.9716 127.479 26.1533 127.479 26.3733C127.479 26.5965 127.523 26.8037 127.469 26.8165C127.428 26.8292 127.3 26.6539 127.297 26.3701C127.303 26.0768 127.485 25.911 127.52 25.9397L127.517 25.9429Z" fill="#E0E0E0"/>
<path d="M129.717 24.1383C128.884 23.5963 128.373 22.6302 128.041 21.6929C127.709 20.7556 127.696 19.7098 128.003 18.7661C128.919 19.1742 129.66 19.9649 130.008 20.9054C130.355 21.8459 130.151 23.2328 129.717 24.1383Z" fill="#EBEBEB"/>
<path d="M128.75 20.3032C129.117 21.5179 129.417 22.7518 129.644 24.0016L128.75 20.3032Z" fill="white"/>
<path d="M129.644 24.0015C129.625 24.0047 129.574 23.7974 129.494 23.4627C129.405 23.0769 129.299 22.6401 129.188 22.1555C129.066 21.6709 128.958 21.2341 128.865 20.8515C128.782 20.5167 128.734 20.3095 128.753 20.3031C128.769 20.2967 128.849 20.4976 128.954 20.826C129.06 21.1544 129.194 21.6135 129.315 22.1236C129.44 22.6369 129.532 23.1024 129.587 23.4435C129.641 23.7847 129.663 23.9983 129.647 24.0015H129.644Z" fill="#E0E0E0"/>
<path d="M131.827 28.3627C132.801 28.1586 133.845 28.4806 134.745 28.9078C135.642 29.3351 136.393 30.0652 136.846 30.9515C135.907 31.3118 134.825 31.2767 133.912 30.8559C132.999 30.435 132.162 29.3096 131.827 28.3658" fill="#EBEBEB"/>
<path d="M135.231 30.3908C134.11 29.7914 133.025 29.1283 131.981 28.4077L135.231 30.3908Z" fill="white"/>
<path d="M131.977 28.4075C131.977 28.4075 132.172 28.4999 132.466 28.6817C132.801 28.8889 133.187 29.128 133.609 29.3894C134.037 29.6477 134.423 29.8804 134.761 30.0845C135.055 30.263 135.237 30.3746 135.227 30.3905C135.218 30.4065 135.023 30.3204 134.713 30.1642C134.407 30.008 133.989 29.7752 133.539 29.501C133.088 29.2268 132.693 28.959 132.412 28.7582C132.131 28.5573 131.965 28.4202 131.974 28.4075H131.977Z" fill="#E0E0E0"/>
<path d="M130.885 28.825C131.064 29.3925 130.933 30.0301 130.732 30.588C130.531 31.146 130.138 31.6338 129.637 31.9558C129.369 31.4202 129.324 30.773 129.522 30.2086C129.72 29.6411 130.339 29.08 130.885 28.825Z" fill="#EBEBEB"/>
<path d="M129.876 30.9643C130.167 30.2629 130.499 29.5806 130.866 28.9175L129.876 30.9643Z" fill="white"/>
<path d="M130.866 28.9174C130.898 28.9366 130.671 29.3925 130.4 29.9568C130.126 30.5211 129.908 30.9802 129.877 30.9675C129.845 30.9547 130.007 30.4701 130.285 29.8994C130.56 29.3319 130.837 28.9015 130.869 28.9174H130.866Z" fill="#E0E0E0"/>
<path d="M46.1741 11.1304H19.667V54.9494H46.1741V11.1304Z" fill="#E0E0E0"/>
<path d="M45.2894 11.1304H18.7823V54.9494H45.2894V11.1304Z" fill="#EBEBEB"/>
<path d="M44.1625 12.0198H19.9125V54.0597H44.1625V12.0198Z" fill="#FAFAFA"/>
<path d="M39.4403 17.4819H24.5283V48.5958H39.4403V17.4819Z" fill="#EBEBEB"/>
<path d="M24.5286 37.5865C24.4935 34.6788 27.1113 31.8413 29.9941 31.4364C31.3669 31.2419 32.829 31.5161 34.1124 30.9901C36.4046 30.0527 37.1325 27.0112 39.4406 26.1089L39.546 48.5986H24.5286V37.5897V37.5865Z" fill="#E0E0E0"/>
<rect x="7.99976" y="19.8264" width="142.261" height="158.957" rx="10" fill="#878787"/>
<rect x="10.7822" y="41.7397" width="136.696" height="137.151" rx="4" fill="#FAFAFA"/>
<path opacity="0.4" d="M138.791 61.5774C138.844 61.776 139.145 61.776 139.197 61.5774C139.936 58.7686 140.751 58.0077 143.757 57.3171C143.969 57.2683 143.969 56.9866 143.757 56.9378C140.751 56.2472 139.936 55.4863 139.197 52.6775C139.145 52.4789 138.844 52.4789 138.791 52.6775C138.052 55.4863 137.238 56.2472 134.232 56.9378C134.019 56.9866 134.019 57.2683 134.232 57.3171C137.238 58.0077 138.052 58.7686 138.791 61.5774Z" fill="#CDCDCD"/>
<path d="M15.7409 150.404C15.6887 150.205 15.3872 150.205 15.335 150.404C14.5959 153.213 13.7816 153.973 10.7755 154.664C10.563 154.713 10.563 154.995 10.7755 155.043C13.7816 155.734 14.5959 156.495 15.335 159.304C15.3872 159.502 15.6887 159.502 15.7409 159.304C16.4801 156.495 17.2943 155.734 20.3004 155.043C20.5129 154.995 20.5129 154.713 20.3004 154.664C17.2943 153.973 16.4801 153.213 15.7409 150.404Z" fill="#CDCDCD"/>
<path opacity="0.2" d="M100.237 130.944C100.289 131.143 100.591 131.143 100.643 130.944C101.382 128.135 102.196 127.374 105.202 126.684C105.415 126.635 105.415 126.353 105.202 126.305C102.196 125.614 101.382 124.853 100.643 122.044C100.591 121.846 100.289 121.846 100.237 122.044C99.4979 124.853 98.6836 125.614 95.6775 126.305C95.465 126.353 95.465 126.635 95.6775 126.684C98.6836 127.374 99.4979 128.135 100.237 130.944Z" fill="#CDCDCD"/>
<path opacity="0.2" d="M81.78 159.304C81.8322 159.503 82.1337 159.503 82.1859 159.304C82.925 156.495 83.7393 155.734 86.7454 155.044C86.9579 154.995 86.9579 154.713 86.7454 154.664C83.7393 153.974 82.925 153.213 82.1859 150.404C82.1337 150.206 81.8322 150.206 81.78 150.404C81.0408 153.213 80.2265 153.974 77.2204 154.664C77.008 154.713 77.008 154.995 77.2204 155.044C80.2265 155.734 81.0408 156.495 81.78 159.304Z" fill="#CDCDCD"/>
<path d="M91.624 75.3738C91.6762 75.5723 91.9777 75.5723 92.0298 75.3738C92.769 72.565 93.5833 71.8041 96.5894 71.1134C96.8019 71.0647 96.8019 70.783 96.5894 70.7342C93.5833 70.0436 92.769 69.2827 92.0298 66.4739C91.9777 66.2753 91.6762 66.2753 91.624 66.4739C90.8848 69.2827 90.0705 70.0436 87.0644 70.7342C86.852 70.783 86.852 71.0647 87.0644 71.1134C90.0705 71.8041 90.8848 72.565 91.624 75.3738Z" fill="#CDCDCD"/>
<path opacity="0.8" d="M54.2953 81.0374C54.2431 80.8388 53.9417 80.8388 53.8895 81.0374C53.1503 83.8462 52.336 84.607 49.3299 85.2977C49.1174 85.3464 49.1174 85.6281 49.3299 85.6769C52.336 86.3676 53.1503 87.1284 53.8895 89.9372C53.9417 90.1358 54.2431 90.1358 54.2953 89.9372C55.0345 87.1284 55.8488 86.3676 58.8549 85.6769C59.0673 85.6281 59.0673 85.3464 58.8549 85.2977C55.8488 84.607 55.0345 83.8462 54.2953 81.0374Z" fill="#CDCDCD"/>
<path opacity="0.2" d="M131.083 75.0535C131.113 75.1693 131.289 75.1693 131.32 75.0535C131.751 73.415 132.226 72.9712 133.979 72.5683C134.103 72.5399 134.103 72.3755 133.979 72.3471C132.226 71.9442 131.751 71.5004 131.32 69.8619C131.289 69.7461 131.113 69.7461 131.083 69.8619C130.652 71.5004 130.177 71.9442 128.423 72.3471C128.299 72.3755 128.299 72.5399 128.423 72.5683C130.177 72.9712 130.652 73.415 131.083 75.0535Z" fill="#CDCDCD"/>
<path opacity="0.4" d="M23.4493 136.928C23.4188 136.813 23.243 136.813 23.2125 136.928C22.7813 138.567 22.3063 139.011 20.5528 139.414C20.4288 139.442 20.4288 139.606 20.5528 139.635C22.3063 140.038 22.7813 140.482 23.2125 142.12C23.243 142.236 23.4188 142.236 23.4493 142.12C23.8805 140.482 24.3555 140.038 26.109 139.635C26.2329 139.606 26.2329 139.442 26.109 139.414C24.3555 139.011 23.8805 138.567 23.4493 136.928Z" fill="#CDCDCD"/>
<path opacity="0.2" d="M84.9725 87.4904C84.942 87.3746 84.7662 87.3746 84.7357 87.4904C84.3045 89.1289 83.8295 89.5727 82.076 89.9756C81.952 90.0041 81.952 90.1684 82.076 90.1968C83.8295 90.5997 84.3045 91.0436 84.7357 92.682C84.7662 92.7979 84.942 92.7979 84.9725 92.682C85.4037 91.0436 85.8787 90.5997 87.6322 90.1968C87.7561 90.1684 87.7561 90.0041 87.6322 89.9756C85.8787 89.5727 85.4037 89.1289 84.9725 87.4904Z" fill="#CDCDCD"/>
<path opacity="0.4" d="M138.056 93.8316C138.086 93.9474 138.262 93.9474 138.292 93.8316C138.724 92.1931 139.199 91.7493 140.952 91.3464C141.076 91.3179 141.076 91.1536 140.952 91.1252C139.199 90.7223 138.724 90.2785 138.292 88.64C138.262 88.5242 138.086 88.5242 138.056 88.64C137.624 90.2785 137.149 90.7223 135.396 91.1252C135.272 91.1536 135.272 91.3179 135.396 91.3464C137.149 91.7493 137.624 92.1931 138.056 93.8316Z" fill="#CDCDCD"/>
<path opacity="0.4" d="M140.927 148.635C140.957 148.751 141.133 148.751 141.163 148.635C141.594 146.997 142.069 146.553 143.823 146.15C143.947 146.122 143.947 145.957 143.823 145.929C142.069 145.526 141.594 145.082 141.163 143.444C141.133 143.328 140.957 143.328 140.927 143.444C140.495 145.082 140.02 145.526 138.267 145.929C138.143 145.957 138.143 146.122 138.267 146.15C140.02 146.553 140.495 146.997 140.927 148.635Z" fill="#CDCDCD"/>
<path opacity="0.2" d="M16.4766 118.15C16.4462 118.034 16.2703 118.034 16.2399 118.15C15.8087 119.788 15.3337 120.232 13.5801 120.635C13.4562 120.663 13.4562 120.828 13.5801 120.856C15.3337 121.259 15.8087 121.703 16.2399 123.341C16.2703 123.457 16.4462 123.457 16.4766 123.341C16.9078 121.703 17.3828 121.259 19.1364 120.856C19.2603 120.828 19.2603 120.663 19.1364 120.635C17.3828 120.232 16.9078 119.788 16.4766 118.15Z" fill="#CDCDCD"/>
<path opacity="0.4" d="M115.087 88.4663C115.117 88.5822 115.293 88.5822 115.324 88.4663C115.755 86.8279 116.23 86.384 117.983 85.9812C118.107 85.9527 118.107 85.7884 117.983 85.7599C116.23 85.3571 115.755 84.9132 115.324 83.2748C115.293 83.1589 115.117 83.1589 115.087 83.2748C114.656 84.9132 114.181 85.3571 112.427 85.7599C112.303 85.7884 112.303 85.9527 112.427 85.9812C114.181 86.384 114.656 86.8279 115.087 88.4663Z" fill="#CDCDCD"/>
<path d="M39.4454 123.515C39.4149 123.399 39.2391 123.399 39.2086 123.515C38.7774 125.154 38.3024 125.597 36.5489 126C36.4249 126.029 36.4249 126.193 36.5489 126.222C38.3024 126.624 38.7774 127.068 39.2086 128.707C39.2391 128.823 39.4149 128.823 39.4454 128.707C39.8766 127.068 40.3516 126.624 42.1051 126.222C42.229 126.193 42.229 126.029 42.1051 126C40.3516 125.597 39.8766 125.154 39.4454 123.515Z" fill="#CDCDCD"/>
<path d="M80.8712 131.563C80.8407 131.447 80.6648 131.447 80.6344 131.563C80.2032 133.201 79.7282 133.645 77.9747 134.048C77.8507 134.076 77.8507 134.241 77.9747 134.269C79.7282 134.672 80.2032 135.116 80.6344 136.754C80.6648 136.87 80.8407 136.87 80.8712 136.754C81.3023 135.116 81.7773 134.672 83.5309 134.269C83.6548 134.241 83.6548 134.076 83.5309 134.048C81.7773 133.645 81.3023 133.201 80.8712 131.563Z" fill="#CDCDCD"/>
<path opacity="0.4" d="M32.4727 65.646C32.4423 65.5301 32.2664 65.5301 32.236 65.646C31.8048 67.2844 31.3298 67.7283 29.5762 68.1311C29.4523 68.1596 29.4523 68.3239 29.5762 68.3524C31.3298 68.7552 31.8048 69.1991 32.236 70.8376C32.2664 70.9534 32.4423 70.9534 32.4727 70.8376C32.9039 69.1991 33.3789 68.7552 35.1325 68.3524C35.2564 68.3239 35.2564 68.1596 35.1325 68.1311C33.3789 67.7283 32.9039 67.2844 32.4727 65.646Z" fill="#CDCDCD"/>
<path d="M136.038 112.252C136.06 112.335 136.186 112.335 136.208 112.252C136.516 111.082 136.855 110.765 138.107 110.477C138.196 110.457 138.196 110.339 138.107 110.319C136.855 110.031 136.516 109.714 136.208 108.544C136.186 108.461 136.06 108.461 136.038 108.544C135.73 109.714 135.391 110.031 134.139 110.319C134.05 110.339 134.05 110.457 134.139 110.477C135.391 110.765 135.73 111.082 136.038 112.252Z" fill="#CDCDCD"/>
<path d="M18.4936 99.7295C18.4718 99.6468 18.3462 99.6468 18.3245 99.7295C18.0165 100.9 17.6772 101.217 16.4247 101.505C16.3361 101.525 16.3361 101.642 16.4247 101.663C17.6772 101.95 18.0165 102.267 18.3245 103.438C18.3462 103.521 18.4718 103.521 18.4936 103.438C18.8016 102.267 19.1408 101.95 20.3934 101.663C20.4819 101.642 20.4819 101.525 20.3934 101.505C19.1408 101.217 18.8016 100.9 18.4936 99.7295Z" fill="#CDCDCD"/>
<path d="M20.9545 48.7586C20.9328 48.6758 20.8071 48.6758 20.7854 48.7586C20.4774 49.9289 20.1381 50.2459 18.8856 50.5337C18.797 50.554 18.797 50.6714 18.8856 50.6917C20.1381 50.9795 20.4774 51.2965 20.7854 52.4669C20.8071 52.5496 20.9328 52.5496 20.9545 52.4669C21.2625 51.2965 21.6018 50.9795 22.8543 50.6917C22.9428 50.6714 22.9428 50.554 22.8543 50.5337C21.6018 50.2459 21.2625 49.9289 20.9545 48.7586Z" fill="#CDCDCD"/>
<path d="M138.259 125.023C138.237 124.94 138.111 124.94 138.09 125.023C137.782 126.193 137.442 126.51 136.19 126.798C136.101 126.818 136.101 126.936 136.19 126.956C137.442 127.244 137.782 127.561 138.09 128.731C138.111 128.814 138.237 128.814 138.259 128.731C138.567 127.561 138.906 127.244 140.158 126.956C140.247 126.936 140.247 126.818 140.158 126.798C138.906 126.51 138.567 126.193 138.259 125.023Z" fill="#CDCDCD"/>
<path d="M118.33 55.6904H38.869C37.5723 55.6904 36.5212 56.7416 36.5212 58.0383V167.53C36.5212 168.827 37.5723 169.878 38.869 169.878H118.33C119.627 169.878 120.678 168.827 120.678 167.53V58.0383C120.678 56.7416 119.627 55.6904 118.33 55.6904Z" fill="#A5A5A5"/>
<path d="M43.1087 58.8108H39.3974V166.978L117.21 167.59L119.359 165.11L117.474 63.0751L43.1087 58.8108Z" fill="#EBEBEB"/>
<path d="M119.359 165.11H42.42V58.8108H39.3974V167.59H117.21L119.359 165.11Z" fill="#E0E0E0"/>
<path d="M125.912 311.652H49.9959C42.6013 269.596 41.2918 162.615 42.4623 58.7825H117.837C117.222 162.555 118.705 255.736 125.909 311.652H125.912Z" fill="white" stroke="#A5A5A5" stroke-width="0.347826" stroke-miterlimit="10"/>
<path d="M49.7477 79.8278C49.8308 81.7009 50.5089 83.4308 51.5959 84.8348C53.238 86.964 55.8108 88.3479 58.643 88.3479C61.4751 88.3479 63.9216 86.964 65.3709 84.8348C66.3316 83.4308 66.8568 81.7009 66.7737 79.8278C66.5643 75.1203 62.582 71.3044 57.8817 71.3044C53.1815 71.3044 49.5349 75.1203 49.7477 79.8278Z" fill="#EBEBEB"/>
<path d="M54.553 76.9979C54.6393 78.8974 56.2465 80.4382 58.146 80.4382C60.0455 80.4382 61.5166 78.8974 61.4335 76.9979C61.3472 75.0984 59.74 73.5576 57.8405 73.5576C55.941 73.5576 54.4699 75.0984 54.553 76.9979Z" fill="#A5A5A5"/>
<path d="M51.4645 84.8414C53.105 86.9666 55.6752 88.3481 58.5045 88.3481C61.3338 88.3481 63.7779 86.9666 65.2257 84.8414C63.6118 83.2341 61.0582 82.1914 58.2289 82.1914C55.3996 82.1914 52.9356 83.2341 51.4645 84.8414Z" fill="#A5A5A5"/>
<path opacity="0.1" d="M54.553 76.9979C54.6393 78.8974 56.2465 80.4382 58.146 80.4382C60.0455 80.4382 61.5166 78.8974 61.4335 76.9979C61.3472 75.0984 59.74 73.5576 57.8405 73.5576C55.941 73.5576 54.4699 75.0984 54.553 76.9979Z" fill="#EBEBEB"/>
<path opacity="0.1" d="M51.4645 84.8414C53.105 86.9666 55.6752 88.3481 58.5045 88.3481C61.3338 88.3481 63.7779 86.9666 65.2257 84.8414C63.6118 83.2341 61.0582 82.1914 58.2289 82.1914C55.3996 82.1914 52.9356 83.2341 51.4645 84.8414Z" fill="#EBEBEB"/>
<path d="M70.0718 82.7097H110.319C110.656 82.7097 110.656 82.188 110.319 82.188H70.0718C69.7344 82.188 69.7344 82.7097 70.0718 82.7097Z" fill="#A5A5A5"/>
<path d="M53.7804 112.616H92.8239C93.1613 112.616 93.1613 112.094 92.8239 112.094H53.7804C53.443 112.094 53.443 112.616 53.7804 112.616Z" fill="#A5A5A5"/>
<path d="M54.8999 122.125H74.7851C75.1225 122.125 75.1225 121.604 74.7851 121.604H54.8999C54.5625 121.604 54.5625 122.125 54.8999 122.125Z" fill="#A5A5A5"/>
<path d="M56.0168 131.635H79.7212C80.0586 131.635 80.0586 131.113 79.7212 131.113H56.0168C55.6794 131.113 55.6794 131.635 56.0168 131.635Z" fill="#407BFF"/>
<path d="M57.1364 141.148H94.7364C95.0738 141.148 95.0738 140.626 94.7364 140.626H57.1364C56.799 140.626 56.799 141.148 57.1364 141.148Z" fill="#A5A5A5"/>
<path d="M59.0601 151.701H84.4966C84.834 151.701 84.834 151.179 84.4966 151.179H59.0601C58.7227 151.179 58.7227 151.701 59.0601 151.701Z" fill="#263238"/>
<path d="M62.9699 107.245C60.6394 106.827 58.2464 106.887 55.9403 107.436C53.8881 107.927 51.6829 108.772 50.1977 110.33C48.869 111.725 48.1803 113.937 49.1507 115.725C50.0446 117.367 51.9994 117.982 53.7316 118.219C56.1073 118.546 58.5455 118.445 60.8968 117.989C62.9177 117.6 65.2968 117.019 66.7647 115.467C67.9751 114.187 68.316 112.316 68.0029 110.622C67.6899 108.928 66.6012 107.541 65.0881 106.64C63.2064 105.523 60.9629 105.245 58.8133 105.457C56.1386 105.721 53.516 106.525 51.109 107.714C50.8064 107.864 51.0707 108.313 51.3733 108.167C53.349 107.189 55.4638 106.501 57.6377 106.142C59.5542 105.826 61.5438 105.787 63.3977 106.434C64.8551 106.942 66.302 107.885 67.0116 109.294C67.7212 110.702 67.822 112.612 67.1055 114.076C66.2533 115.826 64.3333 116.563 62.5733 117.061C60.4342 117.666 58.2047 117.941 55.982 117.881C54.1907 117.833 52.1107 117.69 50.6081 116.598C48.9664 115.405 48.8864 113.21 49.8951 111.568C51.0673 109.659 53.3977 108.681 55.4638 108.104C57.8568 107.436 60.382 107.318 62.8273 107.753C63.1542 107.812 63.2968 107.307 62.9664 107.248L62.9699 107.245Z" fill="#407BFF"/>
<path d="M85.69 145.701C81.9717 145.141 78.0726 145.739 74.7404 147.51C73.37 148.24 71.8813 149.708 72.6674 151.395C73.4535 153.082 75.5369 153.294 77.0987 153.652C81.0674 154.567 85.1717 155.325 89.2448 154.678C90.8726 154.421 92.81 154.004 94.09 152.887C95.37 151.77 95.1752 150.247 94.1213 149.117C92.8239 147.729 90.7578 147.078 88.9317 146.786C86.9039 146.459 84.8413 146.529 82.7961 146.616C82.4622 146.63 82.4587 147.151 82.7961 147.137C85.9578 146.998 89.3874 146.859 92.2639 148.4C93.4604 149.04 95.1543 150.438 94.2152 151.955C93.4187 153.242 91.4882 153.677 90.1248 153.983C86.5804 154.769 82.9074 154.341 79.3908 153.621C78.4795 153.433 77.5717 153.228 76.6639 153.016C75.8152 152.817 74.9039 152.664 74.1422 152.212C73.4848 151.826 72.9422 151.158 72.9874 150.358C73.043 149.447 73.7282 148.741 74.4552 148.278C76.0204 147.28 77.9022 146.671 79.7143 146.32C81.6343 145.948 83.6204 145.91 85.5578 146.202C85.8848 146.25 86.0274 145.75 85.6969 145.697L85.69 145.701Z" fill="#407BFF"/>
<path d="M99.3002 147.993H115.175C115.512 147.993 115.512 147.471 115.175 147.471H99.3002C98.9628 147.471 98.9628 147.993 99.3002 147.993Z" fill="#407BFF"/>
<path d="M100.413 149.346H114.511C114.848 149.346 114.848 148.824 114.511 148.824H100.413C100.076 148.824 100.076 149.346 100.413 149.346Z" fill="#407BFF"/>
<path d="M45.7527 54.0771H65.0849" stroke="#A5A5A5" stroke-width="0.26087" stroke-linejoin="round"/>
<path d="M83.7284 131.635H112.605C112.942 131.635 112.942 131.113 112.605 131.113H83.7284C83.391 131.113 83.391 131.635 83.7284 131.635Z" fill="#A5A5A5"/>
<path d="M99.3005 141.148H114.507C114.845 141.148 114.845 140.626 114.507 140.626H99.3005C98.9631 140.626 98.9631 141.148 99.3005 141.148Z" fill="#A5A5A5"/>
<path d="M84.0169 103.107H95.3282C95.6656 103.107 95.6656 102.585 95.3282 102.585H84.0169C83.6795 102.585 83.6795 103.107 84.0169 103.107Z" fill="#407BFF"/>
<path d="M99.3005 103.047H111.005C111.342 103.047 111.342 102.525 111.005 102.525H99.3005C98.9631 102.525 98.9631 103.047 99.3005 103.047Z" fill="#A5A5A5"/>
<path d="M112.149 117.607C113.439 118.772 114.163 120.487 114.048 122.226C113.933 123.965 112.998 125.537 111.592 126.497C111.318 126.685 111.578 127.137 111.857 126.95C113.387 125.903 114.392 124.209 114.559 122.358C114.726 120.508 113.933 118.515 112.518 117.238C112.267 117.016 111.898 117.381 112.149 117.607Z" fill="#407BFF"/>
<path d="M114.834 125.579C114.337 125.788 113.839 126 113.346 126.209C113.099 126.313 112.848 126.417 112.601 126.525C112.41 126.605 112.198 126.724 111.986 126.737C111.801 126.751 111.784 126.616 111.801 126.459C111.822 126.223 111.892 125.986 111.937 125.753C112.045 125.217 112.153 124.682 112.26 124.146C112.326 123.819 111.822 123.677 111.756 124.007C111.627 124.64 111.502 125.273 111.373 125.91C111.279 126.369 111.133 127.054 111.742 127.231C111.975 127.297 112.229 127.238 112.448 127.151C112.733 127.037 113.015 126.911 113.297 126.793C113.895 126.539 114.497 126.285 115.095 126.031C115.227 125.976 115.252 125.784 115.189 125.673C115.113 125.537 114.959 125.524 114.831 125.579H114.834Z" fill="#407BFF"/>
<path d="M44.6603 54.0771H41.6516" stroke="#A5A5A5" stroke-width="0.26087" stroke-linejoin="round"/>
<rect x="83.3911" y="64.6958" width="52" height="16" rx="8" fill="#878787"/>
<path d="M90.1281 71.1619H91.2967V72.0871C91.2967 72.2865 91.3385 72.428 91.422 72.5115C91.5147 72.6042 91.7211 72.6506 92.0411 72.6506C92.2544 72.6506 92.4608 72.632 92.6602 72.5949V71.1619H93.8846V74.6958H92.6602V73.3671C92.3866 73.4181 92.0967 73.4436 91.7907 73.4436C91.0904 73.4436 90.622 73.33 90.3854 73.1028C90.2139 72.9312 90.1281 72.6784 90.1281 72.3445V71.1619ZM95.8639 72.5323H97.8187C97.8002 72.2912 97.7167 72.1103 97.5683 71.9897C97.4106 71.8506 97.1694 71.781 96.8448 71.781C96.5526 71.781 96.3231 71.8459 96.1561 71.9758C95.9799 72.1196 95.8825 72.3051 95.8639 72.5323ZM97.7978 73.541H99.0291C98.9735 74.0697 98.7184 74.4361 98.2639 74.6401C97.9764 74.7654 97.5335 74.828 96.9352 74.828C96.4807 74.828 96.1097 74.7932 95.8222 74.7236C95.5346 74.6541 95.2865 74.5149 95.0778 74.3062C94.7532 73.9816 94.5909 73.541 94.5909 72.9845C94.5909 72.3862 94.7671 71.9178 95.1196 71.5793C95.5045 71.2129 96.0773 71.0297 96.8378 71.0297C97.6309 71.0297 98.2175 71.2199 98.5978 71.6001C98.9178 71.9201 99.0778 72.3978 99.0778 73.0332V73.1584H95.8431V73.1793C95.8431 73.4483 95.9196 73.6593 96.0726 73.8123C96.2303 73.97 96.49 74.0488 96.8517 74.0488C97.1393 74.0488 97.3503 74.0164 97.4848 73.9515C97.6517 73.8726 97.7561 73.7358 97.7978 73.541ZM101.942 71.8297C101.664 71.8297 101.436 71.9201 101.26 72.101C101.061 72.3236 100.961 72.6042 100.961 72.9428C100.961 73.2952 101.054 73.5665 101.239 73.7567C101.42 73.9375 101.661 74.028 101.963 74.028C102.269 74.028 102.503 73.9329 102.665 73.7428C102.837 73.548 102.923 73.2744 102.923 72.9219C102.923 72.588 102.837 72.3213 102.665 72.1219C102.484 71.9271 102.243 71.8297 101.942 71.8297ZM99.7714 71.1619H100.94V71.6071H100.961C101.086 71.4401 101.239 71.3103 101.42 71.2175C101.647 71.1062 101.94 71.0506 102.297 71.0506C102.886 71.0506 103.345 71.199 103.674 71.4958C104.017 71.8251 104.189 72.2935 104.189 72.901C104.189 73.5364 104.017 74.021 103.674 74.3549C103.484 74.5451 103.275 74.668 103.048 74.7236C102.825 74.7793 102.57 74.8071 102.283 74.8071C101.921 74.8071 101.65 74.7677 101.469 74.6888C101.283 74.6146 101.126 74.4917 100.996 74.3201V75.9828H99.7714L99.7714 71.1619ZM106.111 73.2558V74.6958H104.887L104.887 71.1619H106.111V72.4349H107.788V71.1619H109.012V74.6958H107.788V73.2558H106.111ZM112.781 72.0871C112.605 71.9109 112.354 71.8228 112.03 71.8228C111.705 71.8228 111.454 71.9109 111.278 72.0871C111.083 72.2819 110.986 72.5625 110.986 72.9288C110.986 73.2952 111.083 73.5758 111.278 73.7706C111.454 73.9468 111.705 74.0349 112.03 74.0349C112.354 74.0349 112.605 73.9468 112.781 73.7706C112.976 73.5758 113.073 73.2952 113.073 72.9288C113.073 72.5625 112.976 72.2819 112.781 72.0871ZM113.727 71.4958C114.135 71.8251 114.339 72.3028 114.339 72.9288C114.339 73.5549 114.135 74.0326 113.727 74.3619C113.342 74.6726 112.776 74.828 112.03 74.828C111.283 74.828 110.717 74.6726 110.332 74.3619C109.924 74.0326 109.72 73.5549 109.72 72.9288C109.72 72.3028 109.924 71.8251 110.332 71.4958C110.726 71.1851 111.292 71.0297 112.03 71.0297C112.767 71.0297 113.333 71.1851 113.727 71.4958ZM116.261 73.2141V74.0001H117.144C117.339 74.0001 117.499 73.9746 117.624 73.9236C117.754 73.8401 117.819 73.7265 117.819 73.5828C117.819 73.4344 117.742 73.33 117.589 73.2697C117.506 73.2326 117.353 73.2141 117.13 73.2141H116.261ZM116.261 71.8436V72.5741H116.97C117.253 72.5741 117.436 72.5462 117.52 72.4906C117.622 72.4303 117.673 72.3375 117.673 72.2123C117.673 72.0778 117.62 71.9781 117.513 71.9132C117.374 71.8668 117.239 71.8436 117.109 71.8436H116.261ZM115.036 71.1619H117.52C117.988 71.1619 118.315 71.2152 118.501 71.3219C118.756 71.4703 118.883 71.7022 118.883 72.0175C118.883 72.2633 118.814 72.4558 118.675 72.5949C118.559 72.7109 118.392 72.7874 118.174 72.8245V72.8593C118.438 72.8825 118.651 72.9659 118.814 73.1097C118.981 73.2581 119.064 73.4575 119.064 73.708C119.064 74.0048 118.978 74.2344 118.807 74.3967C118.709 74.4894 118.584 74.559 118.431 74.6054C118.278 74.6517 118.148 74.6796 118.042 74.6888C117.935 74.6935 117.784 74.6958 117.589 74.6958H115.036V71.1619ZM120.962 73.5271L122.764 71.1619H124.051V74.6958H122.826V72.3306L121.017 74.6958H119.737V71.1619H120.962V73.5271ZM126.152 72.7062L127.509 71.1619H128.9L127.265 72.8106L129.004 74.6958H127.543L126.152 73.0541V74.6958H124.928V71.1619H126.152V72.7062Z" fill="white"/>
<path d="M79.9998 174.739C133.403 174.739 176.695 168.043 176.695 159.783C176.695 151.523 133.403 144.826 79.9998 144.826C26.5963 144.826 -16.6959 151.523 -16.6959 159.783C-16.6959 168.043 26.5963 174.739 79.9998 174.739Z" fill="#F5F5F5"/>
<circle cx="19.1299" cy="31.3043" r="4.17391" fill="#FF4747"/>
<circle cx="29.9127" cy="31.3043" r="4.17391" fill="#FAAD14"/>
<circle cx="40.6953" cy="31.3043" r="4.17391" fill="#52C41A"/>
<path d="M52.174 97.2493C53.2174 94.6406 57.287 90.4667 65.2174 94.6406C75.1305 99.858 72.3479 94.6406 85.2174 94.6406C95.5131 94.6406 106.551 96.3797 110.783 97.2493" stroke="#A5A5A5" stroke-width="0.695652"/>
<path d="M110.957 119.304C108.348 121.913 105.391 124 97.9131 121.913C87.1231 118.902 90.7826 121.913 77.9131 121.913" stroke="black" stroke-width="0.695652"/>
<path d="M110.957 119.304C108.348 121.913 105.391 124 97.9131 121.913C87.1231 118.902 90.7826 121.913 77.9131 121.913" stroke="#A5A5A5" stroke-width="0.695652"/>
</g>
<defs>
<clipPath id="clip0_78_11841">
<rect width="160" height="160" rx="24" fill="white"/>
</clipPath>
</defs>
</svg>
