<svg width="160" height="160" viewBox="0 0 160 160" fill="none" xmlns="http://www.w3.org/2000/svg">
<g clip-path="url(#clip0_78_12246)">
<rect width="160" height="160" rx="24" fill="#FAFAFA"/>
<path d="M148.454 13.0786V38.4888H115.59L114.406 13.2572L148.454 13.0786Z" fill="#E0E0E0"/>
<path d="M114.406 13.2284V38.4888H147.269V13.2284L114.406 13.2284Z" fill="white"/>
<path d="M147.394 38.6133H114.281V13.1011H147.394V38.6133ZM114.53 38.3614H147.141V13.3529H114.53V38.3646V38.3614Z" fill="#E0E0E0"/>
<path d="M143.71 15.8237H117.966V35.1635H143.71V15.8237Z" fill="white"/>
<path d="M143.71 15.8238C143.71 15.8238 143.665 15.8238 143.585 15.8269C143.502 15.8269 143.381 15.8269 143.224 15.8301C142.902 15.8301 142.433 15.8333 141.823 15.8365C140.597 15.8397 138.809 15.8461 136.542 15.8525C132.016 15.8588 125.586 15.8684 117.969 15.8811L118.026 15.8238C118.026 21.6263 118.029 28.21 118.032 35.1604L117.969 35.0966C127.556 35.0998 136.443 35.1062 143.713 35.1094L143.658 35.1636C143.671 29.3195 143.681 24.4894 143.687 21.1194C143.694 19.4328 143.697 18.1129 143.7 17.2075C143.7 16.7579 143.703 16.4136 143.706 16.1777C143.706 15.9449 143.713 15.8206 143.713 15.8206C143.713 15.8206 143.716 15.9353 143.719 16.1649C143.719 16.3976 143.722 16.7388 143.725 17.1851C143.725 18.0842 143.732 19.401 143.738 21.0843C143.745 24.4639 143.754 29.3036 143.767 35.1604V35.2146H143.713C136.443 35.2178 127.556 35.2209 117.969 35.2273H117.905V35.1636C117.905 28.21 117.908 21.6231 117.911 15.8238V15.7632H117.969C125.605 15.7759 132.044 15.7855 136.581 15.7919C138.841 15.7983 140.626 15.8046 141.848 15.8078C142.455 15.8078 142.921 15.8142 143.24 15.8142C143.393 15.8142 143.512 15.8142 143.595 15.8174C143.674 15.8174 143.713 15.8206 143.713 15.8206L143.71 15.8238Z" fill="#E0E0E0"/>
<path d="M114.406 13.1677C114.406 13.1677 114.629 13.2857 114.962 13.5089C115.294 13.7321 115.75 14.0509 116.245 14.4143C116.74 14.7778 117.174 15.1221 117.484 15.3804C117.793 15.6386 117.975 15.8076 117.966 15.8203C117.953 15.8363 117.752 15.6896 117.429 15.4505C117.069 15.1827 116.641 14.8671 116.168 14.5164C115.696 14.1657 115.268 13.8468 114.91 13.579C114.591 13.3367 114.396 13.1773 114.409 13.1646L114.406 13.1677Z" fill="#E0E0E0"/>
<path d="M147.269 13.2286C147.292 13.2573 146.509 13.8631 145.529 14.5804C144.546 15.2978 143.732 15.8557 143.71 15.827C143.687 15.7983 144.466 15.1925 145.45 14.4752C146.433 13.7578 147.247 13.1999 147.266 13.2286H147.269Z" fill="#E0E0E0"/>
<path d="M143.579 35.1633C143.604 35.1377 144.447 35.8583 145.469 36.7765C146.487 37.6947 147.295 38.4599 147.269 38.4886C147.244 38.5141 146.401 37.7935 145.379 36.8753C144.361 35.9571 143.553 35.1919 143.579 35.1633Z" fill="#E0E0E0"/>
<path d="M114.406 38.4887C114.38 38.4632 115.15 37.7299 116.123 36.8531C117.097 35.9763 117.905 35.2877 117.927 35.3132C117.953 35.3387 117.183 36.072 116.21 36.9487C115.236 37.8255 114.428 38.5142 114.406 38.4887Z" fill="#E0E0E0"/>
<path d="M137.05 25.3182C136.693 26.9952 135.042 28.0664 133.366 27.7094C131.69 27.3523 130.614 25.704 130.972 24.0301C131.329 22.3531 132.98 21.2819 134.656 21.639C136.335 21.996 137.408 23.6444 137.05 25.3182Z" fill="#F5F5F5"/>
<path d="M132.999 27.6199C132.967 27.604 133.098 27.2852 133.267 26.7623C133.433 26.2426 133.634 25.4966 133.551 24.6772C133.465 23.861 133.043 23.1947 132.644 22.8472C132.242 22.4869 131.891 22.4136 131.907 22.3689C131.907 22.3466 132.287 22.3625 132.753 22.7132C133.216 23.0544 133.698 23.7654 133.794 24.6485C133.883 25.5285 133.64 26.3032 133.43 26.8197C133.213 27.3394 133.027 27.6327 132.999 27.6199Z" fill="#E0E0E0"/>
<path d="M137.012 24.2977C136.996 24.3678 136.172 24.0713 135.205 24.3583C134.234 24.6388 133.701 25.3339 133.653 25.2829C133.628 25.2669 133.724 25.0692 133.969 24.8174C134.212 24.5687 134.618 24.2786 135.138 24.1255C135.658 23.9725 136.156 23.998 136.495 24.0745C136.836 24.151 137.021 24.2658 137.012 24.2945V24.2977Z" fill="#E0E0E0"/>
<path d="M135.607 24.1385C135.569 24.1385 135.585 23.9217 135.473 23.6156C135.368 23.3159 135.097 22.9205 134.653 22.742C134.203 22.5698 133.737 22.6782 133.456 22.8281C133.168 22.9779 133.034 23.1469 133.002 23.1214C132.98 23.1087 133.066 22.8919 133.366 22.6814C133.654 22.4742 134.193 22.3084 134.739 22.5156C135.278 22.7324 135.563 23.2171 135.636 23.5646C135.716 23.9217 135.63 24.1416 135.607 24.1353V24.1385Z" fill="#E0E0E0"/>
<path d="M134.617 24.4667C134.547 24.4508 134.598 24.0268 134.474 23.5326C134.359 23.0352 134.123 22.6781 134.177 22.6335C134.222 22.5857 134.576 22.9141 134.71 23.4752C134.847 24.0331 134.678 24.4891 134.617 24.4667Z" fill="#E0E0E0"/>
<path d="M134.589 23.4944C134.586 23.5677 134.318 23.5805 134.062 23.7144C133.804 23.8547 133.59 24.0332 133.539 23.979C133.497 23.9408 133.625 23.6825 133.95 23.5008C134.298 23.3254 134.602 23.437 134.589 23.4944Z" fill="#E0E0E0"/>
<path d="M129.618 24.9484C130.614 25.7837 130.745 27.2694 129.905 28.2642C129.069 29.2589 127.581 29.3896 126.585 28.5511C125.589 27.7158 125.458 26.2301 126.298 25.2353C127.137 24.2406 128.622 24.1099 129.618 24.9484Z" fill="#F5F5F5"/>
<path d="M129.717 28.4776C129.694 28.4935 129.528 28.2927 129.238 27.9898C128.947 27.6933 128.52 27.2916 127.942 27.0556C127.364 26.8229 126.767 26.8643 126.39 27.011C126.007 27.1545 125.832 27.3585 125.806 27.3362C125.79 27.3298 125.937 27.0811 126.339 26.893C126.732 26.7049 127.38 26.6348 128.009 26.8898C128.631 27.1449 129.062 27.5849 129.334 27.9069C129.605 28.2353 129.733 28.468 129.717 28.4808V28.4776Z" fill="#E0E0E0"/>
<path d="M128.919 24.6108C128.96 24.6459 128.468 25.089 128.315 25.8415C128.156 26.5907 128.433 27.1933 128.382 27.2092C128.363 27.2188 128.264 27.0849 128.184 26.833C128.104 26.5811 128.053 26.2049 128.136 25.8032C128.219 25.4015 128.414 25.0763 128.587 24.8786C128.762 24.6778 128.903 24.5949 128.919 24.6108Z" fill="#E0E0E0"/>
<path d="M128.312 25.4935C128.296 25.519 128.159 25.4297 127.913 25.3978C127.677 25.3627 127.313 25.3978 127.035 25.6369C126.76 25.876 126.664 26.2268 126.668 26.4691C126.664 26.7146 126.732 26.8644 126.703 26.8772C126.687 26.8899 126.572 26.7528 126.537 26.4754C126.502 26.2108 126.581 25.79 126.917 25.4998C127.255 25.2161 127.683 25.2001 127.941 25.2735C128.21 25.3468 128.328 25.4839 128.312 25.4966V25.4935Z" fill="#E0E0E0"/>
<path d="M128.178 26.2716C128.143 26.313 127.875 26.1281 127.501 26.0325C127.128 25.9304 126.802 25.9623 126.793 25.9113C126.777 25.8667 127.125 25.7455 127.546 25.8539C127.971 25.9623 128.213 26.2365 128.178 26.2684V26.2716Z" fill="#E0E0E0"/>
<path d="M127.517 25.9434C127.565 25.9721 127.479 26.1538 127.479 26.3738C127.479 26.597 127.523 26.8042 127.469 26.817C127.427 26.8297 127.3 26.6544 127.297 26.3706C127.303 26.0773 127.485 25.9115 127.52 25.9402L127.517 25.9434Z" fill="#E0E0E0"/>
<path d="M129.717 24.1388C128.884 23.5968 128.373 22.6307 128.041 21.6934C127.709 20.7561 127.696 19.7103 128.003 18.7666C128.919 19.1747 129.659 19.9654 130.007 20.9059C130.355 21.8464 130.151 23.2333 129.717 24.1388Z" fill="#EBEBEB"/>
<path d="M128.75 20.3032C129.117 21.5179 129.417 22.7518 129.644 24.0016L128.75 20.3032Z" fill="white"/>
<path d="M129.644 24.0017C129.625 24.0049 129.573 23.7977 129.494 23.4629C129.404 23.0771 129.299 22.6403 129.187 22.1557C129.066 21.6711 128.957 21.2343 128.865 20.8517C128.782 20.517 128.734 20.3097 128.753 20.3034C128.769 20.297 128.849 20.4979 128.954 20.8262C129.059 21.1546 129.194 21.6137 129.315 22.1238C129.439 22.6372 129.532 23.1026 129.586 23.4438C129.64 23.7849 129.663 23.9985 129.647 24.0017H129.644Z" fill="#E0E0E0"/>
<path d="M131.827 28.3631C132.801 28.1591 133.845 28.4811 134.745 28.9083C135.642 29.3356 136.393 30.0657 136.846 30.952C135.907 31.3123 134.825 31.2772 133.912 30.8563C132.999 30.4355 132.162 29.3101 131.827 28.3663" fill="#EBEBEB"/>
<path d="M135.23 30.3908C134.11 29.7914 133.024 29.1283 131.98 28.4077L135.23 30.3908Z" fill="white"/>
<path d="M131.977 28.4077C131.977 28.4077 132.172 28.5002 132.466 28.6819C132.801 28.8891 133.187 29.1283 133.609 29.3897C134.036 29.6479 134.423 29.8807 134.761 30.0847C135.055 30.2633 135.237 30.3749 135.227 30.3908C135.218 30.4067 135.023 30.3207 134.713 30.1644C134.407 30.0082 133.988 29.7755 133.538 29.5013C133.088 29.2271 132.692 28.9593 132.411 28.7584C132.13 28.5576 131.964 28.4205 131.974 28.4077H131.977Z" fill="#E0E0E0"/>
<path d="M130.885 28.8252C131.064 29.3927 130.933 30.0303 130.732 30.5883C130.531 31.1462 130.138 31.634 129.637 31.956C129.369 31.4204 129.324 30.7732 129.522 30.2089C129.72 29.6414 130.339 29.0803 130.885 28.8252Z" fill="#EBEBEB"/>
<path d="M129.876 30.9648C130.167 30.2634 130.499 29.5811 130.866 28.918L129.876 30.9648Z" fill="white"/>
<path d="M130.866 28.9179C130.898 28.937 130.672 29.393 130.4 29.9573C130.126 30.5216 129.909 30.9807 129.877 30.9679C129.845 30.9552 130.007 30.4706 130.285 29.8999C130.56 29.3324 130.838 28.902 130.869 28.9179H130.866Z" fill="#E0E0E0"/>
<path d="M46.1737 11.1304H19.6666V54.9494H46.1737V11.1304Z" fill="#E0E0E0"/>
<path d="M45.2893 11.1304H18.7822V54.9494H45.2893V11.1304Z" fill="#EBEBEB"/>
<path d="M44.1622 12.02H19.9122V54.06H44.1622V12.02Z" fill="#FAFAFA"/>
<path d="M39.4405 17.4814H24.5284V48.5954H39.4405V17.4814Z" fill="#EBEBEB"/>
<path d="M24.5286 37.5865C24.4935 34.6788 27.1113 31.8413 29.9941 31.4364C31.3669 31.2419 32.829 31.5161 34.1124 30.9901C36.4046 30.0527 37.1325 27.0112 39.4406 26.1089L39.546 48.5986H24.5286V37.5897V37.5865Z" fill="#E0E0E0"/>
<rect x="7.99976" y="19.8262" width="142.261" height="158.957" rx="10" fill="#FF4D4F"/>
<rect x="10.7823" y="41.7393" width="136.696" height="137.151" rx="4" fill="#FAFAFA"/>
<path opacity="0.4" d="M138.791 61.5771C138.844 61.7757 139.145 61.7757 139.197 61.5771C139.936 58.7683 140.751 58.0075 143.757 57.3168C143.969 57.2681 143.969 56.9864 143.757 56.9376C140.751 56.2469 139.936 55.4861 139.197 52.6773C139.145 52.4787 138.844 52.4787 138.791 52.6773C138.052 55.4861 137.238 56.2469 134.232 56.9376C134.019 56.9864 134.019 57.2681 134.232 57.3168C137.238 58.0075 138.052 58.7683 138.791 61.5771Z" fill="#CDCDCD"/>
<path d="M15.7411 150.403C15.6889 150.205 15.3875 150.205 15.3353 150.403C14.5961 153.212 13.7818 153.973 10.7757 154.664C10.5632 154.712 10.5632 154.994 10.7757 155.043C13.7818 155.734 14.5961 156.494 15.3353 159.303C15.3875 159.502 15.6889 159.502 15.7411 159.303C16.4803 156.494 17.2946 155.734 20.3007 155.043C20.5131 154.994 20.5131 154.712 20.3007 154.664C17.2946 153.973 16.4803 153.212 15.7411 150.403Z" fill="#CDCDCD"/>
<path opacity="0.2" d="M100.237 130.943C100.289 131.142 100.591 131.142 100.643 130.943C101.382 128.135 102.196 127.374 105.202 126.683C105.415 126.634 105.415 126.353 105.202 126.304C102.196 125.613 101.382 124.852 100.643 122.043C100.591 121.845 100.289 121.845 100.237 122.043C99.4979 124.852 98.6836 125.613 95.6775 126.304C95.465 126.353 95.465 126.634 95.6775 126.683C98.6836 127.374 99.4979 128.135 100.237 130.943Z" fill="#CDCDCD"/>
<path opacity="0.2" d="M81.78 159.303C81.8322 159.501 82.1337 159.501 82.1859 159.303C82.925 156.494 83.7393 155.733 86.7454 155.042C86.9579 154.994 86.9579 154.712 86.7454 154.663C83.7393 153.973 82.925 153.212 82.1859 150.403C82.1337 150.204 81.8322 150.204 81.78 150.403C81.0408 153.212 80.2265 153.973 77.2204 154.663C77.008 154.712 77.008 154.994 77.2204 155.042C80.2265 155.733 81.0408 156.494 81.78 159.303Z" fill="#CDCDCD"/>
<path d="M91.6237 75.3735C91.6759 75.5721 91.9774 75.5721 92.0296 75.3735C92.7688 72.5647 93.5831 71.8039 96.5891 71.1132C96.8017 71.0644 96.8017 70.7827 96.5891 70.734C93.5831 70.0433 92.7688 69.2825 92.0296 66.4737C91.9774 66.2751 91.6759 66.2751 91.6237 66.4737C90.8846 69.2825 90.0703 70.0433 87.0642 70.734C86.8517 70.7827 86.8517 71.0644 87.0642 71.1132C90.0703 71.8039 90.8846 72.5647 91.6237 75.3735Z" fill="#CDCDCD"/>
<path opacity="0.8" d="M54.2953 81.0366C54.2431 80.8381 53.9417 80.8381 53.8895 81.0366C53.1503 83.8454 52.336 84.6063 49.3299 85.297C49.1174 85.3457 49.1174 85.6274 49.3299 85.6762C52.336 86.3668 53.1503 87.1277 53.8895 89.9365C53.9417 90.1351 54.2431 90.1351 54.2953 89.9365C55.0345 87.1277 55.8488 86.3668 58.8549 85.6762C59.0673 85.6274 59.0673 85.3457 58.8549 85.297C55.8488 84.6063 55.0345 83.8454 54.2953 81.0366Z" fill="#CDCDCD"/>
<path opacity="0.2" d="M131.083 75.0523C131.113 75.1681 131.289 75.1681 131.32 75.0523C131.751 73.4138 132.226 72.97 133.979 72.5671C134.103 72.5386 134.103 72.3743 133.979 72.3459C132.226 71.943 131.751 71.4992 131.32 69.8607C131.289 69.7449 131.113 69.7449 131.083 69.8607C130.652 71.4992 130.177 71.943 128.423 72.3459C128.299 72.3743 128.299 72.5386 128.423 72.5671C130.177 72.97 130.652 73.4138 131.083 75.0523Z" fill="#CDCDCD"/>
<path opacity="0.4" d="M23.4495 136.928C23.4191 136.812 23.2432 136.812 23.2128 136.928C22.7816 138.566 22.3066 139.01 20.553 139.413C20.4291 139.441 20.4291 139.606 20.553 139.634C22.3066 140.037 22.7816 140.481 23.2128 142.119C23.2432 142.235 23.4191 142.235 23.4495 142.119C23.8807 140.481 24.3557 140.037 26.1093 139.634C26.2332 139.606 26.2332 139.441 26.1093 139.413C24.3557 139.01 23.8807 138.566 23.4495 136.928Z" fill="#CDCDCD"/>
<path opacity="0.2" d="M84.9725 87.4897C84.942 87.3739 84.7662 87.3739 84.7357 87.4897C84.3045 89.1282 83.8295 89.572 82.076 89.9749C81.952 90.0033 81.952 90.1677 82.076 90.1961C83.8295 90.599 84.3045 91.0428 84.7357 92.6813C84.7662 92.7971 84.942 92.7971 84.9725 92.6813C85.4037 91.0428 85.8787 90.599 87.6322 90.1961C87.7561 90.1677 87.7561 90.0033 87.6322 89.9749C85.8787 89.572 85.4037 89.1282 84.9725 87.4897Z" fill="#CDCDCD"/>
<path opacity="0.4" d="M138.056 93.8311C138.086 93.9469 138.262 93.9469 138.292 93.8311C138.724 92.1926 139.199 91.7488 140.952 91.3459C141.076 91.3175 141.076 91.1531 140.952 91.1247C139.199 90.7218 138.724 90.278 138.292 88.6395C138.262 88.5237 138.086 88.5237 138.056 88.6395C137.624 90.278 137.149 90.7218 135.396 91.1247C135.272 91.1531 135.272 91.3175 135.396 91.3459C137.149 91.7488 137.624 92.1926 138.056 93.8311Z" fill="#CDCDCD"/>
<path opacity="0.4" d="M140.927 148.634C140.957 148.75 141.133 148.75 141.164 148.634C141.595 146.996 142.07 146.552 143.823 146.149C143.947 146.121 143.947 145.956 143.823 145.928C142.07 145.525 141.595 145.081 141.164 143.443C141.133 143.327 140.957 143.327 140.927 143.443C140.496 145.081 140.021 145.525 138.267 145.928C138.143 145.956 138.143 146.121 138.267 146.149C140.021 146.552 140.496 146.996 140.927 148.634Z" fill="#CDCDCD"/>
<path opacity="0.2" d="M16.4769 118.149C16.4464 118.033 16.2706 118.033 16.2401 118.149C15.8089 119.787 15.3339 120.231 13.5804 120.634C13.4564 120.663 13.4564 120.827 13.5804 120.855C15.3339 121.258 15.8089 121.702 16.2401 123.34C16.2706 123.456 16.4464 123.456 16.4769 123.34C16.908 121.702 17.383 121.258 19.1366 120.855C19.2605 120.827 19.2605 120.663 19.1366 120.634C17.383 120.231 16.908 119.787 16.4769 118.149Z" fill="#CDCDCD"/>
<path opacity="0.4" d="M115.087 88.4659C115.117 88.5817 115.293 88.5817 115.324 88.4659C115.755 86.8274 116.23 86.3836 117.983 85.9807C118.107 85.9522 118.107 85.7879 117.983 85.7595C116.23 85.3566 115.755 84.9127 115.324 83.2743C115.293 83.1584 115.117 83.1584 115.087 83.2743C114.656 84.9127 114.181 85.3566 112.427 85.7595C112.303 85.7879 112.303 85.9522 112.427 85.9807C114.181 86.3836 114.656 86.8274 115.087 88.4659Z" fill="#CDCDCD"/>
<path d="M39.4456 123.514C39.4152 123.398 39.2393 123.398 39.2089 123.514C38.7777 125.153 38.3027 125.596 36.5491 125.999C36.4252 126.028 36.4252 126.192 36.5491 126.221C38.3027 126.623 38.7777 127.067 39.2089 128.706C39.2393 128.822 39.4152 128.822 39.4456 128.706C39.8768 127.067 40.3518 126.623 42.1054 126.221C42.2293 126.192 42.2293 126.028 42.1054 125.999C40.3518 125.596 39.8768 125.153 39.4456 123.514Z" fill="#CDCDCD"/>
<path d="M80.8709 131.562C80.8405 131.447 80.6646 131.447 80.6342 131.562C80.203 133.201 79.728 133.645 77.9744 134.048C77.8505 134.076 77.8505 134.24 77.9744 134.269C79.728 134.672 80.203 135.116 80.6342 136.754C80.6646 136.87 80.8405 136.87 80.8709 136.754C81.3021 135.116 81.7771 134.672 83.5307 134.269C83.6546 134.24 83.6546 134.076 83.5307 134.048C81.7771 133.645 81.3021 133.201 80.8709 131.562Z" fill="#CDCDCD"/>
<path opacity="0.4" d="M32.473 65.645C32.4425 65.5291 32.2667 65.5291 32.2362 65.645C31.805 67.2835 31.33 67.7273 29.5765 68.1302C29.4525 68.1586 29.4525 68.3229 29.5765 68.3514C31.33 68.7543 31.805 69.1981 32.2362 70.8366C32.2667 70.9524 32.4425 70.9524 32.473 70.8366C32.9041 69.1981 33.3791 68.7543 35.1327 68.3514C35.2566 68.3229 35.2566 68.1586 35.1327 68.1302C33.3791 67.7273 32.9041 67.2835 32.473 65.645Z" fill="#CDCDCD"/>
<path d="M136.039 112.251C136.06 112.334 136.186 112.334 136.208 112.251C136.516 111.081 136.855 110.764 138.108 110.476C138.196 110.456 138.196 110.339 138.108 110.318C136.855 110.031 136.516 109.713 136.208 108.543C136.186 108.46 136.06 108.46 136.039 108.543C135.731 109.713 135.391 110.031 134.139 110.318C134.05 110.339 134.05 110.456 134.139 110.476C135.391 110.764 135.731 111.081 136.039 112.251Z" fill="#CDCDCD"/>
<path d="M18.4938 99.7286C18.4721 99.6458 18.3465 99.6458 18.3247 99.7286C18.0167 100.899 17.6774 101.216 16.4249 101.504C16.3363 101.524 16.3363 101.641 16.4249 101.662C17.6774 101.949 18.0167 102.267 18.3247 103.437C18.3465 103.52 18.4721 103.52 18.4938 103.437C18.8018 102.267 19.1411 101.949 20.3936 101.662C20.4822 101.641 20.4822 101.524 20.3936 101.504C19.1411 101.216 18.8018 100.899 18.4938 99.7286Z" fill="#CDCDCD"/>
<path d="M20.9548 48.7579C20.933 48.6751 20.8074 48.6751 20.7856 48.7579C20.4777 49.9282 20.1384 50.2452 18.8858 50.533C18.7973 50.5533 18.7973 50.6707 18.8858 50.691C20.1384 50.9788 20.4777 51.2958 20.7856 52.4661C20.8074 52.5489 20.933 52.5489 20.9548 52.4661C21.2627 51.2958 21.602 50.9788 22.8546 50.691C22.9431 50.6707 22.9431 50.5533 22.8546 50.533C21.602 50.2452 21.2627 49.9282 20.9548 48.7579Z" fill="#CDCDCD"/>
<path d="M138.259 125.023C138.237 124.94 138.111 124.94 138.09 125.023C137.782 126.193 137.442 126.51 136.19 126.798C136.101 126.818 136.101 126.935 136.19 126.956C137.442 127.243 137.782 127.56 138.09 128.731C138.111 128.814 138.237 128.814 138.259 128.731C138.567 127.56 138.906 127.243 140.158 126.956C140.247 126.935 140.247 126.818 140.158 126.798C138.906 126.51 138.567 126.193 138.259 125.023Z" fill="#CDCDCD"/>
<path d="M118.33 55.6904H38.8691C37.5725 55.6904 36.5213 56.7416 36.5213 58.0383V167.53C36.5213 168.827 37.5725 169.878 38.8691 169.878H118.33C119.627 169.878 120.678 168.827 120.678 167.53V58.0383C120.678 56.7416 119.627 55.6904 118.33 55.6904Z" fill="#EB393B"/>
<path d="M43.109 58.8105H39.3977V166.978L117.21 167.59L119.359 165.11L117.474 63.0749L43.109 58.8105Z" fill="#EBEBEB"/>
<path d="M119.359 165.11H42.4203V58.8105H39.3977V167.59H117.21L119.359 165.11Z" fill="#E0E0E0"/>
<path d="M125.913 311.652H49.9962C42.6015 269.596 41.2921 162.615 42.4626 58.7827H117.837C117.222 162.555 118.705 255.737 125.909 311.652H125.913Z" fill="white" stroke="#263238" stroke-width="0.347826" stroke-miterlimit="10"/>
<path d="M49.7474 79.8276C49.8305 81.7006 50.5086 83.4306 51.5956 84.8345C53.2377 86.9637 55.8106 88.3477 58.6427 88.3477C61.4748 88.3477 63.9214 86.9637 65.3707 84.8345C66.3314 83.4306 66.8566 81.7006 66.7735 79.8276C66.5641 75.1201 62.5818 71.3042 57.8815 71.3042C53.1812 71.3042 49.5347 75.1201 49.7474 79.8276Z" fill="#EBEBEB"/>
<path d="M54.5535 76.9974C54.6398 78.8969 56.2471 80.4377 58.1465 80.4377C60.046 80.4377 61.5171 78.8969 61.4341 76.9974C61.3478 75.098 59.7405 73.5571 57.841 73.5571C55.9416 73.5571 54.4705 75.098 54.5535 76.9974Z" fill="#FF4D4F"/>
<path d="M51.465 84.8409C53.1055 86.9662 55.6757 88.3476 58.505 88.3476C61.3343 88.3476 63.7783 86.9662 65.2262 84.8409C63.6123 83.2336 61.0587 82.1909 58.2294 82.1909C55.4001 82.1909 52.9361 83.2336 51.465 84.8409Z" fill="#FF4D4F"/>
<path opacity="0.1" d="M54.5535 76.9974C54.6398 78.8969 56.2471 80.4377 58.1465 80.4377C60.046 80.4377 61.5171 78.8969 61.4341 76.9974C61.3478 75.098 59.7405 73.5571 57.841 73.5571C55.9416 73.5571 54.4705 75.098 54.5535 76.9974Z" fill="#EBEBEB"/>
<path opacity="0.1" d="M51.465 84.8409C53.1055 86.9662 55.6757 88.3476 58.505 88.3476C61.3343 88.3476 63.7783 86.9662 65.2262 84.8409C63.6123 83.2336 61.0587 82.1909 58.2294 82.1909C55.4001 82.1909 52.9361 83.2336 51.465 84.8409Z" fill="#EBEBEB"/>
<path d="M70.0723 82.7097H110.319C110.657 82.7097 110.657 82.188 110.319 82.188H70.0723C69.7349 82.188 69.7349 82.7097 70.0723 82.7097Z" fill="#263238"/>
<path d="M52.6637 93.593H110.319C110.657 93.593 110.657 93.0713 110.319 93.0713H52.6637C52.3263 93.0713 52.3263 93.593 52.6637 93.593Z" fill="#263238"/>
<path d="M52.6637 103.106H80.6637C81.0011 103.106 81.0011 102.584 80.6637 102.584H52.6637C52.3263 102.584 52.3263 103.106 52.6637 103.106Z" fill="#263238"/>
<path d="M53.7805 112.616H92.824C93.1614 112.616 93.1614 112.094 92.824 112.094H53.7805C53.4431 112.094 53.4431 112.616 53.7805 112.616Z" fill="#263238"/>
<path d="M54.9004 122.125H74.7857C75.1231 122.125 75.1231 121.604 74.7857 121.604H54.9004C54.5631 121.604 54.5631 122.125 54.9004 122.125Z" fill="#263238"/>
<path d="M78.2464 122.125H111.005C111.342 122.125 111.342 121.604 111.005 121.604H78.2464C77.909 121.604 77.909 122.125 78.2464 122.125Z" fill="#263238"/>
<path d="M56.0168 131.635H79.7211C80.0585 131.635 80.0585 131.113 79.7211 131.113H56.0168C55.6794 131.113 55.6794 131.635 56.0168 131.635Z" fill="#FF4D4F"/>
<path d="M57.1366 141.148H94.7366C95.074 141.148 95.074 140.626 94.7366 140.626H57.1366C56.7993 140.626 56.7993 141.148 57.1366 141.148Z" fill="#263238"/>
<path d="M59.0606 151.701H84.4971C84.8345 151.701 84.8345 151.179 84.4971 151.179H59.0606C58.7232 151.179 58.7232 151.701 59.0606 151.701Z" fill="#263238"/>
<path d="M78.6955 111.84C74.4792 111.093 70.1496 111.198 65.9773 112.182C62.2645 113.06 58.2747 114.573 55.5876 117.362C53.1836 119.859 51.9376 123.819 53.6934 127.019C55.3107 129.958 58.8473 131.06 61.9813 131.483C66.2794 132.068 70.6908 131.888 74.9449 131.072C78.6011 130.375 82.9056 129.335 85.5612 126.558C87.7512 124.267 88.3679 120.917 87.8015 117.885C87.2352 114.853 85.2654 112.369 82.528 110.756C79.1234 108.758 75.0644 108.26 71.1754 108.64C66.336 109.113 61.5911 110.551 57.2363 112.68C56.6888 112.948 57.1671 113.751 57.7146 113.49C61.289 111.74 65.1152 110.507 69.0483 109.866C72.5158 109.3 76.1154 109.231 79.4696 110.389C82.1063 111.298 84.7242 112.985 86.008 115.507C87.2918 118.029 87.4743 121.447 86.1779 124.068C84.6361 127.2 81.1624 128.52 77.9781 129.41C74.1079 130.493 70.0741 130.985 66.0529 130.879C62.8119 130.792 59.0487 130.537 56.3301 128.582C53.3598 126.446 53.2151 122.518 55.0401 119.579C57.1608 116.161 61.3771 114.411 65.1152 113.378C69.4448 112.182 74.0135 111.971 78.4375 112.749C79.0291 112.855 79.2871 111.952 78.6892 111.846L78.6955 111.84Z" fill="#FF4D4F"/>
<path d="M85.6901 145.701C81.9718 145.141 78.0727 145.739 74.7405 147.51C73.3701 148.24 71.8814 149.708 72.6675 151.395C73.4536 153.082 75.5371 153.294 77.0988 153.652C81.0675 154.567 85.1718 155.325 89.2449 154.678C90.8727 154.421 92.8101 154.004 94.0901 152.887C95.3701 151.77 95.1753 150.247 94.1214 149.117C92.824 147.729 90.7579 147.078 88.9318 146.786C86.904 146.459 84.8414 146.529 82.7962 146.616C82.4623 146.63 82.4588 147.151 82.7962 147.137C85.9579 146.998 89.3875 146.859 92.264 148.4C93.4605 149.04 95.1544 150.438 94.2153 151.955C93.4188 153.242 91.4884 153.677 90.1249 153.983C86.5805 154.769 82.9075 154.341 79.391 153.621C78.4797 153.433 77.5718 153.228 76.664 153.016C75.8153 152.817 74.904 152.664 74.1423 152.212C73.4849 151.826 72.9423 151.158 72.9875 150.358C73.0431 149.447 73.7284 148.741 74.4553 148.278C76.0205 147.28 77.9023 146.671 79.7145 146.32C81.6345 145.948 83.6205 145.91 85.5579 146.202C85.8849 146.25 86.0275 145.75 85.6971 145.697L85.6901 145.701Z" fill="#FF4D4F"/>
<path d="M99.3004 147.993H115.175C115.513 147.993 115.513 147.471 115.175 147.471H99.3004C98.963 147.471 98.963 147.993 99.3004 147.993Z" fill="#FF4D4F"/>
<path d="M100.413 149.346H114.511C114.848 149.346 114.848 148.825 114.511 148.825H100.413C100.076 148.825 100.076 149.346 100.413 149.346Z" fill="#FF4D4F"/>
<path d="M45.7526 54.0767H65.0848" stroke="#FF4D4F" stroke-width="0.26087" stroke-linejoin="round"/>
<path d="M52.032 140.568C67.2052 127.34 81.43 112.794 96.5857 99.5659C97.9204 98.4046 96.0412 96.318 94.7241 97.4794C79.5509 110.707 65.3261 125.254 50.1704 138.482C48.8358 139.643 50.7148 141.729 52.032 140.568Z" fill="#FF4D4F"/>
<path d="M48.2209 99.9995C47.7818 99.9602 47.975 99.9208 48.4316 100.236C48.9233 100.59 49.3975 100.964 49.8541 101.377C51.1712 102.499 52.4356 103.72 53.7001 104.94C57.6339 108.739 61.4798 112.656 65.2907 116.593C73.3866 124.939 81.3595 133.404 89.3149 141.927C91.1238 143.856 92.9326 145.805 94.7239 147.753C95.9532 149.072 97.8147 146.986 96.5854 145.667C83.1508 131.14 69.7162 116.475 55.5616 102.854C54.0864 101.436 52.5937 100.019 51.0307 98.7004C50.2053 98.0115 49.2921 97.1256 48.2209 97.0469C46.5349 96.9288 46.5349 99.8814 48.2209 99.9995Z" fill="#FF4D4F"/>
<path d="M83.7283 131.635H112.605C112.942 131.635 112.942 131.113 112.605 131.113H83.7283C83.3909 131.113 83.3909 131.635 83.7283 131.635Z" fill="#263238"/>
<path d="M99.3005 141.148H114.507C114.845 141.148 114.845 140.626 114.507 140.626H99.3005C98.9631 140.626 98.9631 141.148 99.3005 141.148Z" fill="#263238"/>
<path d="M98.0033 112.616H111.005C111.342 112.616 111.342 112.094 111.005 112.094H98.0033C97.6659 112.094 97.6659 112.616 98.0033 112.616Z" fill="#263238"/>
<path d="M84.0169 103.106H95.3282C95.6656 103.106 95.6656 102.584 95.3282 102.584H84.0169C83.6795 102.584 83.6795 103.106 84.0169 103.106Z" fill="#FF4D4F"/>
<path d="M99.3005 103.047H111.005C111.342 103.047 111.342 102.525 111.005 102.525H99.3005C98.9631 102.525 98.9631 103.047 99.3005 103.047Z" fill="#263238"/>
<path d="M98.5406 145.052C93.7371 148.109 87.6933 148.897 82.3036 147.018C76.9139 145.139 72.7671 140.815 70.9622 135.542C70.6089 134.511 68.9541 134.94 69.3043 135.982C71.2745 141.726 75.7449 146.376 81.4405 148.517C87.136 150.658 94.1189 149.892 99.3829 146.537C100.304 145.941 99.4727 144.458 98.5406 145.052Z" fill="#FF4D4F"/>
<path d="M71.0341 146.575C70.8091 144.823 70.5731 143.068 70.345 141.327C70.231 140.457 70.12 139.575 69.995 138.701C69.9093 138.028 69.7211 137.255 69.8622 136.573C69.979 135.979 70.4224 136.042 70.9013 136.234C71.6297 136.506 72.3156 136.932 73.0118 137.278C74.6086 138.085 76.2055 138.893 77.8023 139.7C78.7767 140.194 79.6667 138.726 78.6813 138.23C76.7953 137.271 74.9062 136.324 73.0091 135.363C71.6417 134.666 69.6062 133.607 68.5154 135.374C68.1035 136.052 68.0688 136.905 68.1522 137.672C68.2658 138.673 68.4153 139.671 68.5429 140.664C68.8227 142.774 69.0995 144.895 69.3792 147.005C69.4397 147.47 70.0223 147.714 70.4282 147.613C70.9232 147.49 71.1005 147.019 71.0371 146.564L71.0341 146.575Z" fill="#FF4D4F"/>
<path d="M44.6604 54.0767H41.6517" stroke="#FF4D4F" stroke-width="0.26087" stroke-linejoin="round"/>
<path d="M101.906 64.3272C111.629 60.3187 122.817 64.8321 126.886 74.4241C130.955 84.0061 126.371 95.032 116.647 99.0405C109.135 102.14 100.775 100.131 95.4741 94.6584L89.7391 94.8402L91.7989 89.2263C91.7585 89.1253 91.708 89.0445 91.6575 88.9435C87.5884 79.3615 92.1724 68.3357 101.896 64.3272H101.906Z" fill="#FF4D4F"/>
<path d="M109.391 70.7612C103.425 70.7612 98.5868 75.5991 98.5868 81.5656C98.5868 87.5321 103.425 92.3699 109.391 92.3699C115.358 92.3699 120.195 87.5321 120.195 81.5656C120.195 75.5991 115.358 70.7612 109.391 70.7612ZM113.38 85.6703L111.788 85.663L109.391 82.8052L106.996 85.6606L105.402 85.6679C105.296 85.6679 105.209 85.5834 105.209 85.4749C105.209 85.4291 105.226 85.3857 105.255 85.3495L108.393 81.6114L105.255 77.8757C105.226 77.8404 105.21 77.7961 105.209 77.7503C105.209 77.6442 105.296 77.5574 105.402 77.5574L106.996 77.5646L109.391 80.4224L111.786 77.567L113.378 77.5598C113.484 77.5598 113.571 77.6442 113.571 77.7527C113.571 77.7985 113.554 77.8419 113.525 77.8781L110.392 81.6138L113.527 85.3519C113.556 85.3881 113.573 85.4315 113.573 85.4773C113.573 85.5834 113.486 85.6703 113.38 85.6703Z" fill="white"/>
<path d="M121.201 63.9637C116.294 60.2177 109.418 59.1474 103.572 61.2072" stroke="#FF4D4F" stroke-width="0.296784" stroke-linecap="round" stroke-linejoin="round"/>
<path d="M100.927 62.2471C100.018 62.4995 99.1596 62.9337 98.4225 63.5193" stroke="#FF4D4F" stroke-width="0.296784" stroke-linecap="round" stroke-linejoin="round"/>
<path d="M79.9997 174.739C133.403 174.739 176.695 168.043 176.695 159.783C176.695 151.522 133.403 144.826 79.9997 144.826C26.5962 144.826 -16.6959 151.522 -16.6959 159.783C-16.6959 168.043 26.5962 174.739 79.9997 174.739Z" fill="#F5F5F5"/>
<circle cx="19.13" cy="31.3043" r="4.17391" fill="#EB3333"/>
<circle cx="29.9128" cy="31.3043" r="4.17391" fill="#FAAD14"/>
<circle cx="40.6952" cy="31.3043" r="4.17391" fill="#52C41A"/>
<rect x="95.274" y="121.978" width="39.6473" height="17.5491" rx="8.77455" fill="#FF4D4F"/>
<path d="M105.996 130.285C105.796 130.085 105.511 129.985 105.142 129.985C104.772 129.985 104.487 130.085 104.287 130.285C104.066 130.507 103.955 130.826 103.955 131.242C103.955 131.659 104.066 131.978 104.287 132.2C104.487 132.4 104.772 132.5 105.142 132.5C105.511 132.5 105.796 132.4 105.996 132.2C106.217 131.978 106.328 131.659 106.328 131.242C106.328 130.826 106.217 130.507 105.996 130.285ZM107.072 129.613C107.536 129.987 107.768 130.53 107.768 131.242C107.768 131.954 107.536 132.498 107.072 132.872C106.634 133.226 105.991 133.402 105.142 133.402C104.292 133.402 103.649 133.226 103.211 132.872C102.747 132.498 102.515 131.954 102.515 131.242C102.515 130.53 102.747 129.987 103.211 129.613C103.659 129.259 104.303 129.083 105.142 129.083C105.98 129.083 106.624 129.259 107.072 129.613ZM109.46 130.166H107.988V129.233H112.324V130.166H110.852V133.252H109.46V130.166ZM114.195 130.989L115.738 129.233H117.32L115.461 131.108L117.439 133.252H115.777L114.195 131.385V133.252H112.803V129.233H114.195V130.989ZM120.896 131.464V131.401C120.822 131.464 120.738 131.509 120.643 131.535C120.553 131.556 120.397 131.577 120.176 131.598L119.883 131.63C119.614 131.656 119.427 131.704 119.321 131.773C119.195 131.873 119.132 131.986 119.132 132.113C119.132 132.255 119.187 132.369 119.298 132.453C119.403 132.537 119.58 132.579 119.828 132.579C120.165 132.579 120.426 132.487 120.611 132.303C120.801 132.113 120.896 131.833 120.896 131.464ZM119.25 130.53H117.842C117.842 130.161 117.971 129.847 118.23 129.589C118.435 129.389 118.683 129.254 118.973 129.185C119.269 129.117 119.63 129.083 120.057 129.083C120.991 129.083 121.626 129.259 121.964 129.613C122.064 129.718 122.141 129.842 122.193 129.985C122.251 130.127 122.283 130.246 122.288 130.341C122.299 130.435 122.304 130.559 122.304 130.712V132.5C122.304 132.696 122.325 132.856 122.367 132.983C122.42 133.073 122.494 133.125 122.589 133.141V133.252H121.07L120.983 132.856H120.951C120.798 133.052 120.59 133.194 120.326 133.284C120.084 133.363 119.764 133.402 119.369 133.402C118.783 133.402 118.367 133.318 118.119 133.149C117.808 132.928 117.652 132.608 117.652 132.192C117.652 131.86 117.752 131.596 117.953 131.401C118.069 131.29 118.23 131.2 118.435 131.132C118.641 131.063 118.799 131.021 118.91 131.005C119.026 130.989 119.197 130.971 119.424 130.95L120.057 130.894C120.221 130.879 120.334 130.868 120.397 130.863C120.466 130.857 120.54 130.844 120.619 130.823C120.698 130.797 120.756 130.762 120.793 130.72C120.856 130.657 120.888 130.57 120.888 130.459C120.888 130.29 120.804 130.159 120.635 130.064C120.508 129.99 120.324 129.953 120.081 129.953C119.817 129.953 119.617 130 119.48 130.095C119.332 130.211 119.256 130.356 119.25 130.53ZM123.056 131.883H124.401V131.915C124.401 132.1 124.485 132.25 124.654 132.366C124.812 132.466 125.068 132.516 125.421 132.516C125.669 132.516 125.856 132.482 125.983 132.413C126.152 132.334 126.236 132.208 126.236 132.034C126.236 131.891 126.173 131.783 126.046 131.709C125.92 131.635 125.656 131.598 125.255 131.598H124.891V130.823H125.31C125.627 130.823 125.825 130.799 125.904 130.752C126.067 130.689 126.149 130.581 126.149 130.428C126.149 130.232 126.046 130.101 125.841 130.032C125.698 129.979 125.506 129.953 125.263 129.953C125.02 129.953 124.828 129.995 124.685 130.079C124.543 130.164 124.464 130.298 124.448 130.483H123.103C123.093 130.151 123.206 129.863 123.443 129.621C123.791 129.262 124.416 129.083 125.318 129.083C125.936 129.083 126.437 129.162 126.822 129.32C127.307 129.526 127.549 129.85 127.549 130.293C127.549 130.53 127.476 130.723 127.328 130.871C127.207 130.992 127.033 131.068 126.806 131.1V131.124C126.88 131.134 126.948 131.153 127.011 131.179C127.08 131.2 127.138 131.224 127.186 131.25C127.233 131.277 127.273 131.3 127.304 131.322C127.336 131.343 127.362 131.364 127.383 131.385C127.41 131.406 127.426 131.416 127.431 131.416C127.605 131.591 127.692 131.817 127.692 132.097C127.692 132.614 127.462 132.975 127.004 133.181C126.719 133.328 126.204 133.402 125.461 133.402C124.585 133.402 123.979 133.289 123.641 133.062C123.251 132.798 123.056 132.416 123.056 131.915V131.883Z" fill="white"/>
</g>
<defs>
<clipPath id="clip0_78_12246">
<rect width="160" height="160" rx="24" fill="white"/>
</clipPath>
</defs>
</svg>
