<svg width="160" height="160" viewBox="0 0 160 160" fill="none" xmlns="http://www.w3.org/2000/svg">
<g clip-path="url(#clip0_78_12650)">
<rect width="160" height="160" rx="24" fill="#FAFAFA"/>
<path d="M148.454 13.0791V38.4893H115.59L114.406 13.2576L148.454 13.0791Z" fill="#E0E0E0"/>
<path d="M114.406 13.2289V38.4893H147.269V13.2289L114.406 13.2289Z" fill="white"/>
<path d="M147.394 38.6138H114.281V13.1016H147.394V38.6138ZM114.53 38.3619H147.141V13.3534H114.53V38.3651V38.3619Z" fill="#E0E0E0"/>
<path d="M143.71 15.8242H117.966V35.164H143.71V15.8242Z" fill="white"/>
<path d="M143.71 15.8242C143.71 15.8242 143.665 15.8242 143.585 15.8274C143.502 15.8274 143.381 15.8274 143.224 15.8306C142.902 15.8306 142.433 15.8338 141.823 15.837C140.597 15.8402 138.809 15.8466 136.542 15.8529C132.016 15.8593 125.586 15.8689 117.969 15.8816L118.026 15.8242C118.026 21.6268 118.029 28.2105 118.032 35.1609L117.969 35.0971C127.556 35.1003 136.443 35.1067 143.713 35.1098L143.658 35.164C143.671 29.32 143.681 24.4899 143.687 21.1199C143.694 19.4333 143.697 18.1134 143.7 17.2079C143.7 16.7584 143.703 16.4141 143.706 16.1781C143.706 15.9454 143.713 15.8211 143.713 15.8211C143.713 15.8211 143.716 15.9358 143.719 16.1654C143.719 16.3981 143.722 16.7393 143.725 17.1856C143.725 18.0847 143.732 19.4014 143.738 21.0848C143.745 24.4643 143.754 29.3041 143.767 35.1609V35.2151H143.713C136.443 35.2182 127.556 35.2214 117.969 35.2278H117.905V35.164C117.905 28.2105 117.908 21.6236 117.911 15.8242V15.7637H117.969C125.605 15.7764 132.044 15.786 136.581 15.7924C138.841 15.7987 140.626 15.8051 141.848 15.8083C142.455 15.8083 142.921 15.8147 143.24 15.8147C143.393 15.8147 143.512 15.8147 143.595 15.8179C143.674 15.8179 143.713 15.8211 143.713 15.8211L143.71 15.8242Z" fill="#E0E0E0"/>
<path d="M114.406 13.1682C114.406 13.1682 114.629 13.2862 114.962 13.5094C115.294 13.7325 115.75 14.0514 116.245 14.4148C116.74 14.7783 117.174 15.1226 117.484 15.3809C117.793 15.6391 117.975 15.8081 117.966 15.8208C117.953 15.8368 117.752 15.6901 117.429 15.451C117.069 15.1832 116.641 14.8676 116.168 14.5168C115.696 14.1661 115.268 13.8473 114.91 13.5795C114.591 13.3372 114.396 13.1778 114.409 13.165L114.406 13.1682Z" fill="#E0E0E0"/>
<path d="M147.269 13.2286C147.292 13.2573 146.509 13.8631 145.529 14.5804C144.546 15.2978 143.732 15.8557 143.71 15.827C143.687 15.7983 144.466 15.1925 145.45 14.4752C146.433 13.7578 147.247 13.1999 147.266 13.2286H147.269Z" fill="#E0E0E0"/>
<path d="M143.579 35.1637C143.604 35.1382 144.447 35.8588 145.469 36.777C146.487 37.6952 147.295 38.4604 147.269 38.4891C147.244 38.5146 146.401 37.794 145.379 36.8758C144.361 35.9576 143.553 35.1924 143.579 35.1637Z" fill="#E0E0E0"/>
<path d="M114.406 38.4896C114.38 38.4641 115.15 37.7308 116.123 36.8541C117.097 35.9773 117.905 35.2887 117.927 35.3142C117.953 35.3397 117.183 36.073 116.21 36.9497C115.236 37.8265 114.428 38.5151 114.406 38.4896Z" fill="#E0E0E0"/>
<path d="M137.05 25.3182C136.693 26.9952 135.042 28.0664 133.366 27.7094C131.69 27.3523 130.614 25.704 130.972 24.0301C131.329 22.3531 132.98 21.2819 134.656 21.639C136.335 21.996 137.408 23.6444 137.05 25.3182Z" fill="#F5F5F5"/>
<path d="M132.999 27.6199C132.967 27.604 133.098 27.2852 133.267 26.7623C133.433 26.2426 133.634 25.4966 133.551 24.6772C133.465 23.861 133.043 23.1947 132.644 22.8472C132.242 22.4869 131.891 22.4136 131.907 22.3689C131.907 22.3466 132.287 22.3625 132.753 22.7132C133.216 23.0544 133.698 23.7654 133.794 24.6485C133.883 25.5285 133.64 26.3032 133.43 26.8197C133.213 27.3394 133.027 27.6327 132.999 27.6199Z" fill="#E0E0E0"/>
<path d="M137.012 24.2977C136.996 24.3678 136.172 24.0713 135.205 24.3583C134.234 24.6388 133.701 25.3339 133.653 25.2829C133.628 25.2669 133.724 25.0692 133.969 24.8174C134.212 24.5687 134.618 24.2786 135.138 24.1255C135.658 23.9725 136.156 23.998 136.495 24.0745C136.836 24.151 137.021 24.2658 137.012 24.2945V24.2977Z" fill="#E0E0E0"/>
<path d="M135.607 24.1389C135.569 24.1389 135.585 23.9221 135.473 23.6161C135.368 23.3164 135.097 22.921 134.653 22.7425C134.203 22.5703 133.737 22.6787 133.456 22.8286C133.168 22.9784 133.034 23.1474 133.002 23.1219C132.98 23.1091 133.066 22.8923 133.366 22.6819C133.654 22.4747 134.193 22.3089 134.739 22.5161C135.278 22.7329 135.563 23.2175 135.636 23.5651C135.716 23.9221 135.63 24.1421 135.607 24.1358V24.1389Z" fill="#E0E0E0"/>
<path d="M134.617 24.4667C134.547 24.4508 134.598 24.0268 134.474 23.5326C134.359 23.0352 134.123 22.6781 134.177 22.6335C134.222 22.5857 134.576 22.9141 134.71 23.4752C134.847 24.0331 134.678 24.4891 134.617 24.4667Z" fill="#E0E0E0"/>
<path d="M134.589 23.4944C134.586 23.5677 134.318 23.5805 134.062 23.7144C133.804 23.8547 133.59 24.0332 133.539 23.979C133.497 23.9408 133.625 23.6825 133.95 23.5008C134.298 23.3254 134.602 23.437 134.589 23.4944Z" fill="#E0E0E0"/>
<path d="M129.618 24.9484C130.614 25.7837 130.745 27.2694 129.905 28.2642C129.069 29.2589 127.581 29.3896 126.585 28.5511C125.589 27.7158 125.458 26.2301 126.298 25.2353C127.137 24.2406 128.622 24.1099 129.618 24.9484Z" fill="#F5F5F5"/>
<path d="M129.717 28.4781C129.694 28.494 129.528 28.2931 129.238 27.9903C128.947 27.6938 128.52 27.292 127.942 27.0561C127.364 26.8234 126.767 26.8648 126.39 27.0115C126.007 27.1549 125.832 27.359 125.806 27.3367C125.79 27.3303 125.937 27.0816 126.339 26.8935C126.732 26.7054 127.38 26.6353 128.009 26.8903C128.631 27.1454 129.062 27.5854 129.334 27.9074C129.605 28.2358 129.733 28.4685 129.717 28.4813V28.4781Z" fill="#E0E0E0"/>
<path d="M128.919 24.6103C128.96 24.6454 128.468 25.0886 128.315 25.841C128.156 26.5902 128.433 27.1928 128.382 27.2087C128.363 27.2183 128.264 27.0844 128.184 26.8325C128.104 26.5806 128.053 26.2044 128.136 25.8027C128.219 25.401 128.414 25.0758 128.587 24.8781C128.762 24.6773 128.903 24.5944 128.919 24.6103Z" fill="#E0E0E0"/>
<path d="M128.312 25.4935C128.296 25.519 128.159 25.4297 127.913 25.3978C127.677 25.3627 127.313 25.3978 127.035 25.6369C126.76 25.876 126.664 26.2268 126.668 26.4691C126.664 26.7146 126.732 26.8644 126.703 26.8772C126.687 26.8899 126.572 26.7528 126.537 26.4754C126.502 26.2108 126.581 25.79 126.917 25.4998C127.255 25.2161 127.683 25.2001 127.941 25.2735C128.21 25.3468 128.328 25.4839 128.312 25.4966V25.4935Z" fill="#E0E0E0"/>
<path d="M128.178 26.2721C128.143 26.3135 127.875 26.1286 127.501 26.0329C127.128 25.9309 126.802 25.9628 126.793 25.9118C126.777 25.8672 127.125 25.746 127.546 25.8544C127.971 25.9628 128.213 26.237 128.178 26.2689V26.2721Z" fill="#E0E0E0"/>
<path d="M127.517 25.9429C127.565 25.9716 127.479 26.1533 127.479 26.3733C127.479 26.5965 127.523 26.8037 127.469 26.8165C127.427 26.8292 127.3 26.6539 127.297 26.3701C127.303 26.0768 127.485 25.911 127.52 25.9397L127.517 25.9429Z" fill="#E0E0E0"/>
<path d="M129.717 24.1388C128.884 23.5968 128.373 22.6307 128.041 21.6934C127.709 20.7561 127.696 19.7103 128.003 18.7666C128.919 19.1747 129.659 19.9654 130.007 20.9059C130.355 21.8464 130.151 23.2333 129.717 24.1388Z" fill="#EBEBEB"/>
<path d="M128.75 20.3027C129.117 21.5174 129.417 22.7513 129.644 24.0011L128.75 20.3027Z" fill="white"/>
<path d="M129.644 24.0012C129.625 24.0044 129.573 23.7972 129.494 23.4624C129.404 23.0766 129.299 22.6399 129.187 22.1552C129.066 21.6706 128.957 21.2338 128.865 20.8513C128.782 20.5165 128.734 20.3093 128.753 20.3029C128.769 20.2965 128.849 20.4974 128.954 20.8258C129.059 21.1541 129.194 21.6132 129.315 22.1234C129.439 22.6367 129.532 23.1021 129.586 23.4433C129.64 23.7844 129.663 23.998 129.647 24.0012H129.644Z" fill="#E0E0E0"/>
<path d="M131.827 28.3627C132.801 28.1586 133.845 28.4806 134.745 28.9078C135.642 29.3351 136.393 30.0652 136.846 30.9515C135.907 31.3118 134.825 31.2767 133.912 30.8559C132.999 30.435 132.162 29.3096 131.827 28.3658" fill="#EBEBEB"/>
<path d="M135.23 30.3903C134.11 29.7909 133.024 29.1278 131.98 28.4072L135.23 30.3903Z" fill="white"/>
<path d="M131.977 28.4072C131.977 28.4072 132.172 28.4997 132.466 28.6814C132.801 28.8886 133.187 29.1278 133.609 29.3892C134.036 29.6474 134.423 29.8802 134.761 30.0842C135.055 30.2628 135.237 30.3744 135.227 30.3903C135.218 30.4062 135.023 30.3202 134.713 30.1639C134.407 30.0077 133.988 29.775 133.538 29.5008C133.088 29.2266 132.692 28.9588 132.411 28.7579C132.13 28.5571 131.964 28.42 131.974 28.4072H131.977Z" fill="#E0E0E0"/>
<path d="M130.885 28.8252C131.064 29.3927 130.933 30.0303 130.732 30.5883C130.531 31.1462 130.138 31.634 129.637 31.956C129.369 31.4204 129.324 30.7732 129.522 30.2089C129.72 29.6414 130.339 29.0803 130.885 28.8252Z" fill="#EBEBEB"/>
<path d="M129.876 30.9648C130.167 30.2634 130.499 29.5811 130.866 28.918L129.876 30.9648Z" fill="white"/>
<path d="M130.866 28.9174C130.898 28.9366 130.672 29.3925 130.4 29.9568C130.126 30.5211 129.909 30.9802 129.877 30.9675C129.845 30.9547 130.007 30.4701 130.285 29.8994C130.56 29.3319 130.838 28.9015 130.869 28.9174H130.866Z" fill="#E0E0E0"/>
<path d="M46.1737 11.1309H19.6666V54.9499H46.1737V11.1309Z" fill="#E0E0E0"/>
<path d="M45.2893 11.1309H18.7822V54.9499H45.2893V11.1309Z" fill="#EBEBEB"/>
<path d="M44.1622 12.0205H19.9122V54.0605H44.1622V12.0205Z" fill="#FAFAFA"/>
<path d="M39.4405 17.4824H24.5284V48.5963H39.4405V17.4824Z" fill="#EBEBEB"/>
<path d="M24.5286 37.587C24.4935 34.6793 27.1113 31.8418 29.9941 31.4369C31.3669 31.2424 32.829 31.5166 34.1124 30.9906C36.4046 30.0532 37.1325 27.0116 39.4406 26.1094L39.546 48.5991H24.5286V37.5902V37.587Z" fill="#E0E0E0"/>
<rect x="7.99976" y="19.8262" width="142.261" height="158.957" rx="10" fill="#FAAD14"/>
<rect x="10.7823" y="41.7393" width="136.696" height="137.151" rx="4" fill="#FAFAFA"/>
<path opacity="0.4" d="M138.791 61.5767C138.844 61.7752 139.145 61.7752 139.197 61.5767C139.936 58.7678 140.751 58.007 143.757 57.3163C143.969 57.2676 143.969 56.9859 143.757 56.9371C140.751 56.2464 139.936 55.4856 139.197 52.6768C139.145 52.4782 138.844 52.4782 138.791 52.6768C138.052 55.4856 137.238 56.2464 134.232 56.9371C134.019 56.9859 134.019 57.2676 134.232 57.3163C137.238 58.007 138.052 58.7678 138.791 61.5767Z" fill="#CDCDCD"/>
<path d="M15.7411 150.403C15.6889 150.204 15.3875 150.204 15.3353 150.403C14.5961 153.212 13.7818 153.973 10.7757 154.663C10.5632 154.712 10.5632 154.994 10.7757 155.042C13.7818 155.733 14.5961 156.494 15.3353 159.303C15.3875 159.501 15.6889 159.501 15.7411 159.303C16.4803 156.494 17.2946 155.733 20.3007 155.042C20.5131 154.994 20.5131 154.712 20.3007 154.663C17.2946 153.973 16.4803 153.212 15.7411 150.403Z" fill="#CDCDCD"/>
<path opacity="0.2" d="M100.237 130.943C100.289 131.141 100.591 131.141 100.643 130.943C101.382 128.134 102.196 127.373 105.202 126.683C105.415 126.634 105.415 126.352 105.202 126.303C102.196 125.613 101.382 124.852 100.643 122.043C100.591 121.844 100.289 121.844 100.237 122.043C99.4979 124.852 98.6836 125.613 95.6775 126.303C95.465 126.352 95.465 126.634 95.6775 126.683C98.6836 127.373 99.4979 128.134 100.237 130.943Z" fill="#CDCDCD"/>
<path opacity="0.2" d="M81.78 159.302C81.8322 159.501 82.1337 159.501 82.1859 159.302C82.925 156.493 83.7393 155.733 86.7454 155.042C86.9579 154.993 86.9579 154.711 86.7454 154.663C83.7393 153.972 82.925 153.211 82.1859 150.402C82.1337 150.204 81.8322 150.204 81.78 150.402C81.0408 153.211 80.2265 153.972 77.2204 154.663C77.008 154.711 77.008 154.993 77.2204 155.042C80.2265 155.733 81.0408 156.493 81.78 159.302Z" fill="#CDCDCD"/>
<path d="M91.6237 75.3735C91.6759 75.5721 91.9774 75.5721 92.0296 75.3735C92.7688 72.5647 93.5831 71.8039 96.5891 71.1132C96.8017 71.0644 96.8017 70.7827 96.5891 70.734C93.5831 70.0433 92.7688 69.2825 92.0296 66.4737C91.9774 66.2751 91.6759 66.2751 91.6237 66.4737C90.8846 69.2825 90.0703 70.0433 87.0642 70.734C86.8517 70.7827 86.8517 71.0644 87.0642 71.1132C90.0703 71.8039 90.8846 72.5647 91.6237 75.3735Z" fill="#CDCDCD"/>
<path opacity="0.8" d="M54.2953 81.0366C54.2431 80.8381 53.9417 80.8381 53.8895 81.0366C53.1503 83.8454 52.336 84.6063 49.3299 85.297C49.1174 85.3457 49.1174 85.6274 49.3299 85.6762C52.336 86.3668 53.1503 87.1277 53.8895 89.9365C53.9417 90.1351 54.2431 90.1351 54.2953 89.9365C55.0345 87.1277 55.8488 86.3668 58.8549 85.6762C59.0673 85.6274 59.0673 85.3457 58.8549 85.297C55.8488 84.6063 55.0345 83.8454 54.2953 81.0366Z" fill="#CDCDCD"/>
<path opacity="0.2" d="M131.083 75.0518C131.113 75.1676 131.289 75.1676 131.32 75.0518C131.751 73.4133 132.226 72.9695 133.979 72.5666C134.103 72.5382 134.103 72.3738 133.979 72.3454C132.226 71.9425 131.751 71.4987 131.32 69.8602C131.289 69.7444 131.113 69.7444 131.083 69.8602C130.652 71.4987 130.177 71.9425 128.423 72.3454C128.299 72.3738 128.299 72.5382 128.423 72.5666C130.177 72.9695 130.652 73.4133 131.083 75.0518Z" fill="#CDCDCD"/>
<path opacity="0.4" d="M23.4495 136.928C23.4191 136.812 23.2432 136.812 23.2128 136.928C22.7816 138.566 22.3066 139.01 20.553 139.413C20.4291 139.441 20.4291 139.606 20.553 139.634C22.3066 140.037 22.7816 140.481 23.2128 142.119C23.2432 142.235 23.4191 142.235 23.4495 142.119C23.8807 140.481 24.3557 140.037 26.1093 139.634C26.2332 139.606 26.2332 139.441 26.1093 139.413C24.3557 139.01 23.8807 138.566 23.4495 136.928Z" fill="#CDCDCD"/>
<path opacity="0.2" d="M84.9725 87.4892C84.942 87.3734 84.7662 87.3734 84.7357 87.4892C84.3045 89.1277 83.8295 89.5715 82.076 89.9744C81.952 90.0029 81.952 90.1672 82.076 90.1956C83.8295 90.5985 84.3045 91.0423 84.7357 92.6808C84.7662 92.7966 84.942 92.7966 84.9725 92.6808C85.4037 91.0423 85.8787 90.5985 87.6322 90.1956C87.7561 90.1672 87.7561 90.0029 87.6322 89.9744C85.8787 89.5715 85.4037 89.1277 84.9725 87.4892Z" fill="#CDCDCD"/>
<path opacity="0.4" d="M138.056 93.8311C138.086 93.9469 138.262 93.9469 138.292 93.8311C138.724 92.1926 139.199 91.7488 140.952 91.3459C141.076 91.3175 141.076 91.1531 140.952 91.1247C139.199 90.7218 138.724 90.278 138.292 88.6395C138.262 88.5237 138.086 88.5237 138.056 88.6395C137.624 90.278 137.149 90.7218 135.396 91.1247C135.272 91.1531 135.272 91.3175 135.396 91.3459C137.149 91.7488 137.624 92.1926 138.056 93.8311Z" fill="#CDCDCD"/>
<path opacity="0.4" d="M140.927 148.634C140.957 148.75 141.133 148.75 141.164 148.634C141.595 146.995 142.07 146.552 143.823 146.149C143.947 146.12 143.947 145.956 143.823 145.927C142.07 145.525 141.595 145.081 141.164 143.442C141.133 143.326 140.957 143.326 140.927 143.442C140.496 145.081 140.021 145.525 138.267 145.927C138.143 145.956 138.143 146.12 138.267 146.149C140.021 146.552 140.496 146.995 140.927 148.634Z" fill="#CDCDCD"/>
<path opacity="0.2" d="M16.4769 118.148C16.4464 118.033 16.2706 118.033 16.2401 118.148C15.8089 119.787 15.3339 120.231 13.5804 120.634C13.4564 120.662 13.4564 120.826 13.5804 120.855C15.3339 121.258 15.8089 121.702 16.2401 123.34C16.2706 123.456 16.4464 123.456 16.4769 123.34C16.908 121.702 17.383 121.258 19.1366 120.855C19.2605 120.826 19.2605 120.662 19.1366 120.634C17.383 120.231 16.908 119.787 16.4769 118.148Z" fill="#CDCDCD"/>
<path opacity="0.4" d="M115.087 88.4649C115.117 88.5807 115.293 88.5807 115.324 88.4649C115.755 86.8264 116.23 86.3826 117.983 85.9797C118.107 85.9512 118.107 85.7869 117.983 85.7585C116.23 85.3556 115.755 84.9118 115.324 83.2733C115.293 83.1575 115.117 83.1575 115.087 83.2733C114.656 84.9118 114.181 85.3556 112.427 85.7585C112.303 85.7869 112.303 85.9512 112.427 85.9797C114.181 86.3826 114.656 86.8264 115.087 88.4649Z" fill="#CDCDCD"/>
<path d="M39.4456 123.514C39.4152 123.398 39.2393 123.398 39.2089 123.514C38.7777 125.152 38.3027 125.596 36.5491 125.999C36.4252 126.027 36.4252 126.192 36.5491 126.22C38.3027 126.623 38.7777 127.067 39.2089 128.705C39.2393 128.821 39.4152 128.821 39.4456 128.705C39.8768 127.067 40.3518 126.623 42.1054 126.22C42.2293 126.192 42.2293 126.027 42.1054 125.999C40.3518 125.596 39.8768 125.152 39.4456 123.514Z" fill="#CDCDCD"/>
<path d="M80.8709 131.561C80.8405 131.446 80.6646 131.446 80.6342 131.561C80.203 133.2 79.728 133.644 77.9744 134.047C77.8505 134.075 77.8505 134.239 77.9744 134.268C79.728 134.671 80.203 135.115 80.6342 136.753C80.6646 136.869 80.8405 136.869 80.8709 136.753C81.3021 135.115 81.7771 134.671 83.5307 134.268C83.6546 134.239 83.6546 134.075 83.5307 134.047C81.7771 133.644 81.3021 133.2 80.8709 131.561Z" fill="#CDCDCD"/>
<path opacity="0.4" d="M32.473 65.6445C32.4425 65.5287 32.2667 65.5287 32.2362 65.6445C31.805 67.283 31.33 67.7268 29.5765 68.1297C29.4525 68.1581 29.4525 68.3225 29.5765 68.3509C31.33 68.7538 31.805 69.1976 32.2362 70.8361C32.2667 70.9519 32.4425 70.9519 32.473 70.8361C32.9041 69.1976 33.3791 68.7538 35.1327 68.3509C35.2566 68.3225 35.2566 68.1581 35.1327 68.1297C33.3791 67.7268 32.9041 67.283 32.473 65.6445Z" fill="#CDCDCD"/>
<path d="M136.039 112.251C136.06 112.334 136.186 112.334 136.208 112.251C136.516 111.081 136.855 110.764 138.108 110.476C138.196 110.456 138.196 110.339 138.108 110.318C136.855 110.031 136.516 109.713 136.208 108.543C136.186 108.46 136.06 108.46 136.039 108.543C135.731 109.713 135.391 110.031 134.139 110.318C134.05 110.339 134.05 110.456 134.139 110.476C135.391 110.764 135.731 111.081 136.039 112.251Z" fill="#CDCDCD"/>
<path d="M18.4938 99.7281C18.4721 99.6453 18.3465 99.6453 18.3247 99.7281C18.0167 100.898 17.6774 101.215 16.4249 101.503C16.3363 101.524 16.3363 101.641 16.4249 101.661C17.6774 101.949 18.0167 102.266 18.3247 103.436C18.3465 103.519 18.4721 103.519 18.4938 103.436C18.8018 102.266 19.1411 101.949 20.3936 101.661C20.4822 101.641 20.4822 101.524 20.3936 101.503C19.1411 101.215 18.8018 100.898 18.4938 99.7281Z" fill="#CDCDCD"/>
<path d="M20.9548 48.7574C20.933 48.6746 20.8074 48.6746 20.7856 48.7574C20.4777 49.9277 20.1384 50.2447 18.8858 50.5325C18.7973 50.5528 18.7973 50.6702 18.8858 50.6905C20.1384 50.9783 20.4777 51.2953 20.7856 52.4657C20.8074 52.5484 20.933 52.5484 20.9548 52.4657C21.2627 51.2953 21.602 50.9783 22.8546 50.6905C22.9431 50.6702 22.9431 50.5528 22.8546 50.5325C21.602 50.2447 21.2627 49.9277 20.9548 48.7574Z" fill="#CDCDCD"/>
<path d="M138.259 125.022C138.237 124.939 138.111 124.939 138.09 125.022C137.782 126.192 137.442 126.509 136.19 126.797C136.101 126.817 136.101 126.935 136.19 126.955C137.442 127.243 137.782 127.56 138.09 128.73C138.111 128.813 138.237 128.813 138.259 128.73C138.567 127.56 138.906 127.243 140.158 126.955C140.247 126.935 140.247 126.817 140.158 126.797C138.906 126.509 138.567 126.192 138.259 125.022Z" fill="#CDCDCD"/>
<path d="M118.33 55.6904H38.8691C37.5725 55.6904 36.5213 56.7416 36.5213 58.0383V167.53C36.5213 168.827 37.5725 169.878 38.8691 169.878H118.33C119.627 169.878 120.678 168.827 120.678 167.53V58.0383C120.678 56.7416 119.627 55.6904 118.33 55.6904Z" fill="#FF4747"/>
<path d="M43.109 58.8105H39.3977V166.978L117.21 167.59L119.359 165.11L117.474 63.0749L43.109 58.8105Z" fill="#EBEBEB"/>
<path d="M119.359 165.11H42.4203V58.8105H39.3977V167.59H117.21L119.359 165.11Z" fill="#E0E0E0"/>
<path d="M125.913 311.652H49.9962C42.6015 269.595 41.2921 162.615 42.4626 58.7822H117.837C117.222 162.555 118.705 255.736 125.909 311.652H125.913Z" fill="white" stroke="#263238" stroke-width="0.347826" stroke-miterlimit="10"/>
<path d="M49.7474 79.8271C49.8305 81.7001 50.5086 83.4301 51.5956 84.834C53.2377 86.9632 55.8106 88.3472 58.6427 88.3472C61.4748 88.3472 63.9214 86.9632 65.3707 84.834C66.3314 83.4301 66.8566 81.7001 66.7735 79.8271C66.5641 75.1196 62.5818 71.3037 57.8815 71.3037C53.1812 71.3037 49.5347 75.1196 49.7474 79.8271Z" fill="#EBEBEB"/>
<path d="M54.5535 76.9969C54.6398 78.8964 56.2471 80.4372 58.1465 80.4372C60.046 80.4372 61.5171 78.8964 61.4341 76.9969C61.3478 75.0975 59.7405 73.5566 57.841 73.5566C55.9416 73.5566 54.4705 75.0975 54.5535 76.9969Z" fill="#FAAD14"/>
<path d="M51.465 84.8404C53.1055 86.9657 55.6757 88.3471 58.505 88.3471C61.3343 88.3471 63.7783 86.9657 65.2262 84.8404C63.6123 83.2331 61.0587 82.1904 58.2294 82.1904C55.4001 82.1904 52.9361 83.2331 51.465 84.8404Z" fill="#FAAD14"/>
<path opacity="0.1" d="M54.5535 76.9969C54.6398 78.8964 56.2471 80.4372 58.1465 80.4372C60.046 80.4372 61.5171 78.8964 61.4341 76.9969C61.3478 75.0975 59.7405 73.5566 57.841 73.5566C55.9416 73.5566 54.4705 75.0975 54.5535 76.9969Z" fill="#EBEBEB"/>
<path opacity="0.1" d="M51.465 84.8404C53.1055 86.9657 55.6757 88.3471 58.505 88.3471C61.3343 88.3471 63.7783 86.9657 65.2262 84.8404C63.6123 83.2331 61.0587 82.1904 58.2294 82.1904C55.4001 82.1904 52.9361 83.2331 51.465 84.8404Z" fill="#EBEBEB"/>
<path d="M70.0723 82.7092H110.319C110.657 82.7092 110.657 82.1875 110.319 82.1875H70.0723C69.7349 82.1875 69.7349 82.7092 70.0723 82.7092Z" fill="#263238"/>
<path d="M52.6637 93.593H110.319C110.657 93.593 110.657 93.0713 110.319 93.0713H52.6637C52.3263 93.0713 52.3263 93.593 52.6637 93.593Z" fill="#263238"/>
<path d="M52.6637 103.106H80.6637C81.0011 103.106 81.0011 102.584 80.6637 102.584H52.6637C52.3263 102.584 52.3263 103.106 52.6637 103.106Z" fill="#263238"/>
<path d="M53.7805 112.615H92.824C93.1614 112.615 93.1614 112.094 92.824 112.094H53.7805C53.4431 112.094 53.4431 112.615 53.7805 112.615Z" fill="#263238"/>
<path d="M54.9004 122.125H74.7857C75.1231 122.125 75.1231 121.604 74.7857 121.604H54.9004C54.5631 121.604 54.5631 122.125 54.9004 122.125Z" fill="#263238"/>
<path d="M78.2464 122.125H111.005C111.342 122.125 111.342 121.604 111.005 121.604H78.2464C77.909 121.604 77.909 122.125 78.2464 122.125Z" fill="#263238"/>
<path d="M56.0168 131.634H79.7211C80.0585 131.634 80.0585 131.112 79.7211 131.112H56.0168C55.6794 131.112 55.6794 131.634 56.0168 131.634Z" fill="#FAAD14"/>
<path d="M57.1366 141.148H94.7366C95.074 141.148 95.074 140.626 94.7366 140.626H57.1366C56.7993 140.626 56.7993 141.148 57.1366 141.148Z" fill="#263238"/>
<path d="M59.0606 151.7H84.4971C84.8345 151.7 84.8345 151.179 84.4971 151.179H59.0606C58.7232 151.179 58.7232 151.7 59.0606 151.7Z" fill="#263238"/>
<path d="M77.9714 107.919C75.6337 107.507 73.2331 107.565 70.9198 108.108C68.8611 108.593 66.649 109.429 65.1591 110.969C63.8262 112.348 63.1353 114.534 64.1088 116.302C65.0056 117.925 66.9665 118.533 68.7041 118.767C71.0872 119.09 73.5332 118.99 75.8919 118.54C77.9191 118.155 80.3057 117.581 81.7781 116.047C82.9924 114.782 83.3343 112.932 83.0203 111.258C82.7063 109.583 81.6141 108.211 80.0963 107.321C78.2087 106.217 75.9581 105.942 73.8018 106.152C71.1186 106.413 68.4878 107.207 66.0733 108.383C65.7697 108.531 66.0349 108.975 66.3384 108.83C68.3203 107.864 70.4417 107.183 72.6225 106.829C74.545 106.516 76.5408 106.478 78.4006 107.118C79.8626 107.62 81.3141 108.552 82.0259 109.944C82.7377 111.337 82.8388 113.224 82.1201 114.672C81.2652 116.401 79.3392 117.13 77.5736 117.622C75.4278 118.22 73.1912 118.492 70.9616 118.433C69.1647 118.385 67.0781 118.244 65.5708 117.165C63.9239 115.985 63.8437 113.816 64.8555 112.193C66.0314 110.305 68.3691 109.339 70.4417 108.768C72.8423 108.108 75.3755 107.991 77.8284 108.421C78.1563 108.48 78.2994 107.981 77.9679 107.923L77.9714 107.919Z" fill="#FAAD14"/>
<path d="M85.6901 145.701C81.9718 145.141 78.0727 145.739 74.7405 147.51C73.3701 148.24 71.8814 149.708 72.6675 151.395C73.4536 153.082 75.5371 153.294 77.0988 153.652C81.0675 154.567 85.1718 155.325 89.2449 154.678C90.8727 154.421 92.8101 154.004 94.0901 152.887C95.3701 151.77 95.1753 150.247 94.1214 149.117C92.824 147.729 90.7579 147.078 88.9318 146.786C86.904 146.459 84.8414 146.529 82.7962 146.616C82.4623 146.63 82.4588 147.151 82.7962 147.137C85.9579 146.998 89.3875 146.859 92.264 148.4C93.4605 149.04 95.1544 150.438 94.2153 151.955C93.4188 153.242 91.4884 153.677 90.1249 153.983C86.5805 154.769 82.9075 154.341 79.391 153.621C78.4797 153.433 77.5718 153.228 76.664 153.016C75.8153 152.817 74.904 152.664 74.1423 152.212C73.4849 151.826 72.9423 151.158 72.9875 150.358C73.0431 149.447 73.7284 148.741 74.4553 148.278C76.0205 147.28 77.9023 146.671 79.7145 146.32C81.6345 145.948 83.6205 145.91 85.5579 146.202C85.8849 146.25 86.0275 145.75 85.6971 145.697L85.6901 145.701Z" fill="#FAAD14"/>
<path d="M99.3004 147.992H115.175C115.513 147.992 115.513 147.471 115.175 147.471H99.3004C98.963 147.471 98.963 147.992 99.3004 147.992Z" fill="#FAAD14"/>
<path d="M100.413 149.346H114.511C114.848 149.346 114.848 148.824 114.511 148.824H100.413C100.076 148.824 100.076 149.346 100.413 149.346Z" fill="#FAAD14"/>
<path d="M45.7526 54.0762H65.0848" stroke="#FAAD14" stroke-width="0.26087" stroke-linejoin="round"/>
<path d="M79.1745 85.2552C89.1846 82.9178 98.5691 80.3474 108.568 78.01C109.448 77.8047 108.208 77.436 107.34 77.6413C97.3294 79.9787 87.9449 82.5491 77.9464 84.8865C77.0659 85.0917 78.3056 85.4604 79.1745 85.2552Z" fill="#FAAD14"/>
<path d="M76.6602 78.0868C76.3705 78.0798 76.498 78.0729 76.7992 78.1285C77.1236 78.1912 77.4364 78.2572 77.7377 78.3303C78.6066 78.5285 79.4408 78.7442 80.2749 78.9598C82.8702 79.6312 85.4074 80.3233 87.9215 81.019C93.2626 82.4938 98.5225 83.9894 103.771 85.4955C104.964 85.8364 106.158 86.1807 107.339 86.5251C108.15 86.7581 109.378 86.3894 108.567 86.1564C99.7043 83.5894 90.8412 80.9981 81.503 78.5912C80.5298 78.3407 79.545 78.0903 78.5139 77.8572C77.9694 77.7355 77.3669 77.579 76.6602 77.5651C75.5479 77.5442 75.5479 78.0659 76.6602 78.0868Z" fill="#FAAD14"/>
<path d="M83.7283 131.634H112.605C112.942 131.634 112.942 131.112 112.605 131.112H83.7283C83.3909 131.112 83.3909 131.634 83.7283 131.634Z" fill="#263238"/>
<path d="M99.3005 141.148H114.507C114.845 141.148 114.845 140.626 114.507 140.626H99.3005C98.9631 140.626 98.9631 141.148 99.3005 141.148Z" fill="#263238"/>
<path d="M98.0033 112.615H111.005C111.342 112.615 111.342 112.094 111.005 112.094H98.0033C97.6659 112.094 97.6659 112.615 98.0033 112.615Z" fill="#263238"/>
<path d="M84.0169 103.106H95.3282C95.6656 103.106 95.6656 102.584 95.3282 102.584H84.0169C83.6795 102.584 83.6795 103.106 84.0169 103.106Z" fill="#FAAD14"/>
<path d="M99.3005 103.046H111.005C111.342 103.046 111.342 102.524 111.005 102.524H99.3005C98.9631 102.524 98.9631 103.046 99.3005 103.046Z" fill="#263238"/>
<path d="M111.301 114.072C113.581 116.131 114.86 119.161 114.657 122.235C114.454 125.308 112.801 128.087 110.317 129.783C109.832 130.115 110.293 130.914 110.784 130.582C113.489 128.732 115.265 125.739 115.56 122.468C115.856 119.198 114.454 115.676 111.952 113.42C111.51 113.027 110.858 113.672 111.301 114.072Z" fill="#FAAD14"/>
<path d="M111.301 114.072C113.581 116.131 114.86 119.161 114.657 122.235C114.454 125.308 112.801 128.087 110.317 129.783C109.832 130.115 110.293 130.914 110.784 130.582C113.489 128.732 115.265 125.739 115.56 122.468C115.855 119.198 114.454 115.676 111.952 113.42C111.51 113.027 110.858 113.672 111.301 114.072Z" fill="#FAAD14"/>
<path d="M116.046 128.16C115.167 128.529 114.288 128.904 113.415 129.273C112.979 129.457 112.536 129.642 112.1 129.832C111.762 129.974 111.387 130.183 111.012 130.207C110.686 130.232 110.655 129.992 110.686 129.715C110.723 129.297 110.846 128.879 110.926 128.468C111.116 127.521 111.307 126.574 111.497 125.628C111.614 125.05 110.723 124.798 110.606 125.382C110.379 126.501 110.157 127.619 109.93 128.744C109.764 129.556 109.506 130.767 110.582 131.08C110.993 131.197 111.442 131.092 111.829 130.939C112.333 130.736 112.831 130.515 113.329 130.306C114.386 129.857 115.45 129.408 116.507 128.959C116.741 128.861 116.784 128.523 116.673 128.326C116.538 128.087 116.267 128.062 116.04 128.16H116.046Z" fill="#FAAD14"/>
<path d="M90.6421 74.1058C91.763 71.245 94.1464 68.9785 97.0934 68.0827C100.04 67.1868 103.224 67.7524 105.688 69.4764C106.17 69.8134 106.755 69.0999 106.27 68.7571C103.584 66.8804 100.156 66.2758 96.9927 67.1548C93.8292 68.0339 91.0292 70.5891 89.8024 73.7264C89.5907 74.2794 90.4246 74.661 90.6421 74.1058Z" fill="#FAAD14"/>
<path d="M90.6421 74.1058C91.763 71.245 94.1464 68.9785 97.0934 68.0827C100.04 67.1868 103.224 67.7524 105.688 69.4764C106.17 69.8134 106.755 69.0999 106.27 68.7571C103.584 66.8804 100.156 66.2758 96.9927 67.1548C93.8292 68.0339 91.0292 70.5891 89.8024 73.7264C89.5907 74.2794 90.4246 74.661 90.6421 74.1058Z" fill="#FAAD14"/>
<path d="M102.146 64.6893C102.802 65.3814 103.463 66.0713 104.116 66.7576C104.443 67.1007 104.772 67.4496 105.104 67.7906C105.356 68.057 105.684 68.3339 105.839 68.676C105.977 68.9721 105.764 69.0856 105.494 69.1545C105.09 69.2676 104.656 69.3003 104.242 69.371C103.289 69.5271 102.337 69.6832 101.384 69.8393C100.802 69.9341 100.881 70.8569 101.468 70.7599C102.595 70.5776 103.72 70.3894 104.853 70.2049C105.67 70.0735 106.895 69.8873 106.808 68.7703C106.772 68.3437 106.515 67.9608 106.235 67.6528C105.867 67.2529 105.484 66.8653 105.113 66.4733C104.32 65.6427 103.524 64.8064 102.731 63.9758C102.556 63.792 102.225 63.8711 102.08 64.0441C101.903 64.2553 101.976 64.517 102.148 64.6951L102.146 64.6893Z" fill="#FAAD14"/>
<path d="M44.6604 54.0762H41.6517" stroke="#FAAD14" stroke-width="0.26087" stroke-linejoin="round"/>
<path d="M87.5587 77.0958C100.792 71.6404 116.017 77.7829 121.555 90.8373C127.093 103.878 120.854 118.884 107.621 124.339C97.3976 128.558 86.0197 125.823 78.8054 118.375L71.0003 118.622L73.8036 110.982C73.7486 110.845 73.6799 110.735 73.6112 110.597C68.0734 97.5568 74.312 82.5512 87.545 77.0958H87.5587Z" fill="#FF4747"/>
<path d="M109.8 108.912H107.21V106.323C107.21 106.18 107.094 106.064 106.951 106.064H105.398C105.255 106.064 105.139 106.18 105.139 106.323V108.912H102.55C102.407 108.912 102.291 109.028 102.291 109.171V110.724C102.291 110.867 102.407 110.983 102.55 110.983H105.139V113.573C105.139 113.715 105.255 113.832 105.398 113.832H106.951C107.094 113.832 107.21 113.715 107.21 113.573V110.983H109.8C109.942 110.983 110.058 110.867 110.058 110.724V109.171C110.058 109.028 109.942 108.912 109.8 108.912ZM93.0177 100.057C92.9886 99.775 92.9724 99.4901 92.9724 99.2021C92.9724 98.6875 93.021 98.1858 93.1116 97.697C93.1343 97.5805 93.0728 97.4608 92.966 97.4122C92.5258 97.2148 92.1212 96.9429 91.7716 96.5998C91.3598 96.2005 91.0356 95.7196 90.82 95.188C90.6043 94.6563 90.5018 94.0856 90.5191 93.5121C90.5482 92.4732 90.9657 91.486 91.694 90.7416C92.4934 89.9227 93.568 89.4761 94.7105 89.489C95.743 89.4987 96.7398 89.8968 97.494 90.6024C97.7497 90.8419 97.9697 91.1073 98.1542 91.3921C98.219 91.4925 98.3452 91.5345 98.4552 91.4957C99.0249 91.2983 99.6269 91.1591 100.245 91.0944C100.426 91.075 100.53 90.8808 100.449 90.7189C99.3971 88.6378 97.248 87.2007 94.7623 87.1619C91.1761 87.1069 88.1855 90.0489 88.1855 93.6351C88.1855 95.6677 89.1209 97.4802 90.587 98.668C89.5578 99.1438 88.6095 99.8008 87.7874 100.623C86.0137 102.393 85.0104 104.73 84.9456 107.226C84.9448 107.26 84.9508 107.295 84.9635 107.327C84.9761 107.359 84.995 107.388 85.0191 107.413C85.0433 107.438 85.0721 107.457 85.104 107.471C85.1358 107.484 85.17 107.491 85.2046 107.491H87.0203C87.1595 107.491 87.276 107.381 87.2792 107.242C87.3407 105.365 88.1013 103.607 89.438 102.274C90.3896 101.322 91.5548 100.662 92.8268 100.341C92.9498 100.306 93.0339 100.186 93.0177 100.057ZM107.599 99.2021C107.599 95.6612 104.754 92.7839 101.226 92.7289C97.6396 92.6738 94.6522 95.6159 94.6522 99.2021C94.6522 101.235 95.5908 103.047 97.0538 104.235C96.0139 104.717 95.0672 105.379 94.2574 106.19C92.4837 107.96 91.4803 110.297 91.4156 112.789C91.4148 112.824 91.4208 112.858 91.4334 112.89C91.4461 112.923 91.465 112.952 91.4891 112.977C91.5133 113.001 91.5421 113.021 91.5739 113.034C91.6058 113.048 91.64 113.055 91.6745 113.055H93.487C93.6262 113.055 93.7427 112.945 93.746 112.806C93.8075 110.928 94.5681 109.171 95.9048 107.837C97.2998 106.442 99.1511 105.675 101.125 105.675C104.699 105.675 107.599 102.779 107.599 99.2021ZM104.055 102.131C103.271 102.914 102.232 103.345 101.125 103.345C100.019 103.345 98.9796 102.914 98.1963 102.131C97.8054 101.742 97.4966 101.279 97.2881 100.769C97.0796 100.258 96.9757 99.7113 96.9826 99.16C96.9923 98.0984 97.4163 97.0724 98.1575 96.3118C98.9343 95.5156 99.9732 95.0722 101.083 95.0592C102.181 95.0495 103.245 95.4767 104.029 96.2438C104.831 97.0303 105.272 98.0822 105.272 99.2021C105.268 100.309 104.838 101.348 104.055 102.131Z" fill="white"/>
<path d="M113.818 76.6012C107.14 71.5031 97.782 70.0465 89.8257 72.8498" stroke="#FAAD14" stroke-width="0.403909" stroke-linecap="round" stroke-linejoin="round"/>
<path d="M86.2261 74.2646C84.9894 74.6082 83.8214 75.1991 82.8182 75.9961" stroke="#FAAD14" stroke-width="0.403909" stroke-linecap="round" stroke-linejoin="round"/>
<path d="M123.35 87.1053L122.378 88.0577L123.35 87.1053C123.331 87.0854 123.32 87.0586 123.32 87.0307C123.32 87.0028 123.331 86.976 123.35 86.956C123.363 86.9429 123.379 86.9334 123.397 86.9283C123.414 86.9334 123.43 86.9429 123.443 86.956C123.462 86.976 123.473 87.0028 123.473 87.0307C123.473 87.0586 123.462 87.0854 123.443 87.1053L124.415 88.0577L123.443 87.1053C123.43 87.1184 123.414 87.1279 123.397 87.133C123.379 87.1279 123.363 87.1184 123.35 87.1053ZM123.397 66.5951C115.082 66.5951 108.341 73.3364 108.341 81.6506C108.341 89.9649 115.082 96.7062 123.397 96.7062C131.711 96.7062 138.452 89.9649 138.452 81.6506C138.452 73.3364 131.711 66.5951 123.397 66.5951Z" fill="#FAAD14" stroke="white" stroke-width="2.72191"/>
<path d="M79.9997 174.739C133.403 174.739 176.695 168.043 176.695 159.783C176.695 151.522 133.403 144.826 79.9997 144.826C26.5962 144.826 -16.6959 151.522 -16.6959 159.783C-16.6959 168.043 26.5962 174.739 79.9997 174.739Z" fill="#F5F5F5"/>
<circle cx="19.13" cy="31.3048" r="4.17391" fill="#FF4747"/>
<circle cx="29.9128" cy="31.3048" r="4.17391" fill="#E69900"/>
<circle cx="40.6952" cy="31.3048" r="4.17391" fill="#52C41A"/>
<rect x="27" y="120" width="45" height="16" rx="8" fill="#FAAD14"/>
<path d="M36.7517 127.391C36.5755 127.215 36.325 127.127 36.0004 127.127C35.6757 127.127 35.4253 127.215 35.2491 127.391C35.0543 127.586 34.9569 127.867 34.9569 128.233C34.9569 128.599 35.0543 128.88 35.2491 129.075C35.4253 129.251 35.6757 129.339 36.0004 129.339C36.325 129.339 36.5755 129.251 36.7517 129.075C36.9465 128.88 37.0439 128.599 37.0439 128.233C37.0439 127.867 36.9465 127.586 36.7517 127.391ZM37.6978 126.8C38.1059 127.129 38.3099 127.607 38.3099 128.233C38.3099 128.859 38.1059 129.337 37.6978 129.666C37.3128 129.977 36.747 130.132 36.0004 130.132C35.2537 130.132 34.6879 129.977 34.303 129.666C33.8949 129.337 33.6908 128.859 33.6908 128.233C33.6908 127.607 33.8949 127.129 34.303 126.8C34.6972 126.489 35.263 126.334 36.0004 126.334C36.7378 126.334 37.3036 126.489 37.6978 126.8ZM40.2316 129.179H41.6229V126.466H42.8472V129.179H44.2385V126.466H45.4629V130H39.0072V126.466H40.2316V129.179ZM47.5549 128.831L49.3567 126.466H50.6436V130H49.4193V127.635L47.6106 130H46.3306V126.466H47.5549V128.831ZM53.726 127.217C53.4199 127.217 53.1811 127.303 53.0095 127.475C52.8147 127.67 52.7173 127.936 52.7173 128.275C52.7173 128.609 52.8147 128.88 53.0095 129.089C53.1811 129.265 53.4199 129.353 53.726 129.353C54.0321 129.353 54.271 129.265 54.4426 129.089C54.642 128.889 54.7417 128.618 54.7417 128.275C54.7417 127.936 54.6443 127.67 54.4495 127.475C54.2779 127.303 54.0368 127.217 53.726 127.217ZM54.8321 124.831H55.7365C55.7457 125.133 55.6576 125.379 55.4721 125.569C55.384 125.657 55.2634 125.731 55.1104 125.791C54.962 125.847 54.8321 125.884 54.7208 125.903C54.6095 125.921 54.4472 125.942 54.2339 125.965L53.7399 126.021C53.1973 126.09 52.8124 126.216 52.5852 126.397C52.293 126.642 52.1399 126.958 52.126 127.343H52.1817C52.3069 127.074 52.4924 126.872 52.7382 126.737C53.0118 126.584 53.3736 126.508 53.8234 126.508C54.4773 126.508 54.9852 126.631 55.3469 126.877C55.7875 127.183 56.0078 127.649 56.0078 128.275C56.0078 128.836 55.8408 129.283 55.5069 129.617C55.3863 129.738 55.2541 129.835 55.1104 129.91C54.9713 129.984 54.8182 130.035 54.6513 130.063C54.4889 130.095 54.3498 130.114 54.2339 130.118C54.1179 130.128 53.9718 130.132 53.7956 130.132C53.5405 130.132 53.3318 130.125 53.1695 130.111C53.0072 130.097 52.8055 130.049 52.5643 129.965C52.3278 129.877 52.126 129.75 51.9591 129.583C51.5556 129.188 51.3539 128.59 51.3539 127.788C51.3539 126.907 51.5741 126.246 52.0147 125.805C52.3115 125.518 52.7057 125.325 53.1973 125.228C53.4246 125.186 53.7214 125.149 54.0878 125.117C54.3011 125.103 54.4518 125.086 54.5399 125.068C54.6281 125.049 54.6999 125.017 54.7556 124.97C54.7973 124.933 54.8228 124.887 54.8321 124.831ZM57.9286 128.01L59.2851 126.466H60.6764L59.0416 128.115L60.7808 130H59.3199L57.9286 128.358V130H56.7042V126.466H57.9286V128.01ZM63.8204 128.428V128.372C63.7555 128.428 63.6813 128.467 63.5978 128.49C63.519 128.509 63.3822 128.528 63.1874 128.546L62.93 128.574C62.6935 128.597 62.5288 128.639 62.4361 128.699C62.3248 128.787 62.2691 128.887 62.2691 128.998C62.2691 129.123 62.3178 129.223 62.4152 129.297C62.508 129.372 62.6633 129.409 62.8813 129.409C63.1781 129.409 63.4077 129.328 63.57 129.165C63.737 128.998 63.8204 128.752 63.8204 128.428ZM62.3735 127.607H61.1352C61.1352 127.282 61.2488 127.006 61.4761 126.779C61.657 126.603 61.8749 126.485 62.13 126.424C62.3897 126.364 62.7074 126.334 63.083 126.334C63.9039 126.334 64.4628 126.489 64.7596 126.8C64.8477 126.893 64.9149 127.002 64.9613 127.127C65.0123 127.252 65.0401 127.357 65.0448 127.44C65.0541 127.523 65.0587 127.632 65.0587 127.767V129.339C65.0587 129.511 65.0772 129.652 65.1143 129.763C65.1607 129.842 65.2257 129.889 65.3091 129.903V130H63.9735L63.897 129.652H63.8691C63.7346 129.824 63.5515 129.949 63.3196 130.028C63.1062 130.097 62.8257 130.132 62.4778 130.132C61.963 130.132 61.5967 130.058 61.3787 129.91C61.1051 129.715 60.9683 129.434 60.9683 129.068C60.9683 128.776 61.0564 128.544 61.2326 128.372C61.3346 128.275 61.4761 128.196 61.657 128.136C61.8378 128.075 61.977 128.038 62.0743 128.024C62.1764 128.01 62.3271 127.994 62.5265 127.976L63.083 127.927C63.2268 127.913 63.3265 127.904 63.3822 127.899C63.4425 127.894 63.5074 127.883 63.577 127.864C63.6465 127.841 63.6975 127.811 63.73 127.774C63.7857 127.718 63.8135 127.642 63.8135 127.544C63.8135 127.396 63.7393 127.28 63.5909 127.197C63.4796 127.132 63.3172 127.099 63.1039 127.099C62.872 127.099 62.6958 127.141 62.5752 127.224C62.4454 127.326 62.3781 127.454 62.3735 127.607Z" fill="white"/>
</g>
<defs>
<clipPath id="clip0_78_12650">
<rect width="160" height="160" rx="24" fill="white"/>
</clipPath>
</defs>
</svg>
