<svg width="160" height="160" viewBox="0 0 160 160" fill="none" xmlns="http://www.w3.org/2000/svg">
<g clip-path="url(#clip0_78_12802)">
<rect width="160" height="160" rx="24" fill="#FAFAFA"/>
<path d="M148.454 13.0786V38.4888H115.59L114.406 13.2572L148.454 13.0786Z" fill="#E0E0E0"/>
<path d="M114.406 13.2284V38.4888H147.269V13.2284L114.406 13.2284Z" fill="white"/>
<path d="M147.394 38.6133H114.281V13.1011H147.394V38.6133ZM114.53 38.3614H147.141V13.3529H114.53V38.3646V38.3614Z" fill="#E0E0E0"/>
<path d="M143.71 15.8237H117.966V35.1635H143.71V15.8237Z" fill="white"/>
<path d="M143.71 15.8238C143.71 15.8238 143.665 15.8238 143.585 15.8269C143.502 15.8269 143.381 15.8269 143.224 15.8301C142.902 15.8301 142.433 15.8333 141.823 15.8365C140.597 15.8397 138.809 15.8461 136.542 15.8525C132.016 15.8588 125.586 15.8684 117.969 15.8811L118.026 15.8238C118.026 21.6263 118.029 28.21 118.032 35.1604L117.969 35.0966C127.556 35.0998 136.443 35.1062 143.713 35.1094L143.658 35.1636C143.671 29.3195 143.681 24.4894 143.687 21.1194C143.694 19.4328 143.697 18.1129 143.7 17.2075C143.7 16.7579 143.703 16.4136 143.706 16.1777C143.706 15.9449 143.713 15.8206 143.713 15.8206C143.713 15.8206 143.716 15.9353 143.719 16.1649C143.719 16.3976 143.722 16.7388 143.725 17.1851C143.725 18.0842 143.732 19.401 143.738 21.0843C143.745 24.4639 143.754 29.3036 143.767 35.1604V35.2146H143.713C136.443 35.2178 127.556 35.2209 117.969 35.2273H117.905V35.1636C117.905 28.21 117.908 21.6231 117.911 15.8238V15.7632H117.969C125.605 15.7759 132.044 15.7855 136.581 15.7919C138.841 15.7983 140.626 15.8046 141.848 15.8078C142.455 15.8078 142.921 15.8142 143.24 15.8142C143.393 15.8142 143.512 15.8142 143.595 15.8174C143.674 15.8174 143.713 15.8206 143.713 15.8206L143.71 15.8238Z" fill="#E0E0E0"/>
<path d="M114.406 13.1677C114.406 13.1677 114.629 13.2857 114.962 13.5089C115.294 13.7321 115.75 14.0509 116.245 14.4143C116.74 14.7778 117.174 15.1221 117.484 15.3804C117.793 15.6386 117.975 15.8076 117.966 15.8203C117.953 15.8363 117.752 15.6896 117.429 15.4505C117.069 15.1827 116.641 14.8671 116.168 14.5164C115.696 14.1657 115.268 13.8468 114.91 13.579C114.591 13.3367 114.396 13.1773 114.409 13.1646L114.406 13.1677Z" fill="#E0E0E0"/>
<path d="M147.269 13.2286C147.292 13.2573 146.509 13.8631 145.529 14.5804C144.546 15.2978 143.732 15.8557 143.71 15.827C143.687 15.7983 144.466 15.1925 145.45 14.4752C146.433 13.7578 147.247 13.1999 147.266 13.2286H147.269Z" fill="#E0E0E0"/>
<path d="M143.579 35.1637C143.604 35.1382 144.447 35.8588 145.469 36.777C146.487 37.6952 147.295 38.4604 147.269 38.4891C147.244 38.5146 146.401 37.794 145.379 36.8758C144.361 35.9576 143.553 35.1924 143.579 35.1637Z" fill="#E0E0E0"/>
<path d="M114.406 38.4887C114.38 38.4632 115.15 37.7299 116.123 36.8531C117.097 35.9763 117.905 35.2877 117.927 35.3132C117.953 35.3387 117.183 36.072 116.21 36.9487C115.236 37.8255 114.428 38.5142 114.406 38.4887Z" fill="#E0E0E0"/>
<path d="M137.05 25.3182C136.693 26.9952 135.042 28.0664 133.366 27.7094C131.69 27.3523 130.614 25.704 130.972 24.0301C131.329 22.3531 132.98 21.2819 134.656 21.639C136.335 21.996 137.408 23.6444 137.05 25.3182Z" fill="#F5F5F5"/>
<path d="M132.999 27.6199C132.967 27.604 133.098 27.2852 133.267 26.7623C133.433 26.2426 133.634 25.4966 133.551 24.6772C133.465 23.861 133.043 23.1947 132.644 22.8472C132.242 22.4869 131.891 22.4136 131.907 22.3689C131.907 22.3466 132.287 22.3625 132.753 22.7132C133.216 23.0544 133.698 23.7654 133.794 24.6485C133.883 25.5285 133.64 26.3032 133.43 26.8197C133.213 27.3394 133.027 27.6327 132.999 27.6199Z" fill="#E0E0E0"/>
<path d="M137.012 24.2977C136.996 24.3678 136.172 24.0713 135.205 24.3583C134.234 24.6388 133.701 25.3339 133.653 25.2829C133.628 25.2669 133.724 25.0692 133.969 24.8174C134.212 24.5687 134.618 24.2786 135.138 24.1255C135.658 23.9725 136.156 23.998 136.495 24.0745C136.836 24.151 137.021 24.2658 137.012 24.2945V24.2977Z" fill="#E0E0E0"/>
<path d="M135.607 24.1385C135.569 24.1385 135.585 23.9217 135.473 23.6156C135.368 23.3159 135.097 22.9205 134.653 22.742C134.203 22.5698 133.737 22.6782 133.456 22.8281C133.168 22.9779 133.034 23.1469 133.002 23.1214C132.98 23.1087 133.066 22.8919 133.366 22.6814C133.654 22.4742 134.193 22.3084 134.739 22.5156C135.278 22.7324 135.563 23.2171 135.636 23.5646C135.716 23.9217 135.63 24.1416 135.607 24.1353V24.1385Z" fill="#E0E0E0"/>
<path d="M134.617 24.4667C134.547 24.4508 134.598 24.0268 134.474 23.5326C134.359 23.0352 134.123 22.6781 134.177 22.6335C134.222 22.5857 134.576 22.9141 134.71 23.4752C134.847 24.0331 134.678 24.4891 134.617 24.4667Z" fill="#E0E0E0"/>
<path d="M134.589 23.4944C134.586 23.5677 134.318 23.5805 134.062 23.7144C133.804 23.8547 133.59 24.0332 133.539 23.979C133.497 23.9408 133.625 23.6825 133.95 23.5008C134.298 23.3254 134.602 23.437 134.589 23.4944Z" fill="#E0E0E0"/>
<path d="M129.618 24.9484C130.614 25.7837 130.745 27.2694 129.905 28.2642C129.069 29.2589 127.581 29.3896 126.585 28.5511C125.589 27.7158 125.458 26.2301 126.298 25.2353C127.137 24.2406 128.622 24.1099 129.618 24.9484Z" fill="#F5F5F5"/>
<path d="M129.717 28.4776C129.694 28.4935 129.528 28.2927 129.238 27.9898C128.947 27.6933 128.52 27.2916 127.942 27.0556C127.364 26.8229 126.767 26.8643 126.39 27.011C126.007 27.1545 125.832 27.3585 125.806 27.3362C125.79 27.3298 125.937 27.0811 126.339 26.893C126.732 26.7049 127.38 26.6348 128.009 26.8898C128.631 27.1449 129.062 27.5849 129.334 27.9069C129.605 28.2353 129.733 28.468 129.717 28.4808V28.4776Z" fill="#E0E0E0"/>
<path d="M128.919 24.6103C128.96 24.6454 128.468 25.0886 128.315 25.841C128.156 26.5902 128.433 27.1928 128.382 27.2087C128.363 27.2183 128.264 27.0844 128.184 26.8325C128.104 26.5806 128.053 26.2044 128.136 25.8027C128.219 25.401 128.414 25.0758 128.587 24.8781C128.762 24.6773 128.903 24.5944 128.919 24.6103Z" fill="#E0E0E0"/>
<path d="M128.312 25.4935C128.296 25.519 128.159 25.4297 127.913 25.3978C127.677 25.3627 127.313 25.3978 127.035 25.6369C126.76 25.876 126.664 26.2268 126.668 26.4691C126.664 26.7146 126.732 26.8644 126.703 26.8772C126.687 26.8899 126.572 26.7528 126.537 26.4754C126.502 26.2108 126.581 25.79 126.917 25.4998C127.255 25.2161 127.683 25.2001 127.941 25.2735C128.21 25.3468 128.328 25.4839 128.312 25.4966V25.4935Z" fill="#E0E0E0"/>
<path d="M128.178 26.2716C128.143 26.313 127.875 26.1281 127.501 26.0325C127.128 25.9304 126.802 25.9623 126.793 25.9113C126.777 25.8667 127.125 25.7455 127.546 25.8539C127.971 25.9623 128.213 26.2365 128.178 26.2684V26.2716Z" fill="#E0E0E0"/>
<path d="M127.517 25.9429C127.565 25.9716 127.479 26.1533 127.479 26.3733C127.479 26.5965 127.523 26.8037 127.469 26.8165C127.427 26.8292 127.3 26.6539 127.297 26.3701C127.303 26.0768 127.485 25.911 127.52 25.9397L127.517 25.9429Z" fill="#E0E0E0"/>
<path d="M129.717 24.1388C128.884 23.5968 128.373 22.6307 128.041 21.6934C127.709 20.7561 127.696 19.7103 128.003 18.7666C128.919 19.1747 129.659 19.9654 130.007 20.9059C130.355 21.8464 130.151 23.2333 129.717 24.1388Z" fill="#EBEBEB"/>
<path d="M128.75 20.3032C129.117 21.5179 129.417 22.7518 129.644 24.0016L128.75 20.3032Z" fill="white"/>
<path d="M129.644 24.0017C129.625 24.0049 129.573 23.7977 129.494 23.4629C129.404 23.0771 129.299 22.6403 129.187 22.1557C129.066 21.6711 128.957 21.2343 128.865 20.8517C128.782 20.517 128.734 20.3097 128.753 20.3034C128.769 20.297 128.849 20.4979 128.954 20.8262C129.059 21.1546 129.194 21.6137 129.315 22.1238C129.439 22.6372 129.532 23.1026 129.586 23.4438C129.64 23.7849 129.663 23.9985 129.647 24.0017H129.644Z" fill="#E0E0E0"/>
<path d="M131.827 28.3631C132.801 28.1591 133.845 28.4811 134.745 28.9083C135.642 29.3356 136.393 30.0657 136.846 30.952C135.907 31.3123 134.825 31.2772 133.912 30.8563C132.999 30.4355 132.162 29.3101 131.827 28.3663" fill="#EBEBEB"/>
<path d="M135.23 30.3908C134.11 29.7914 133.024 29.1283 131.98 28.4077L135.23 30.3908Z" fill="white"/>
<path d="M131.977 28.4077C131.977 28.4077 132.172 28.5002 132.466 28.6819C132.801 28.8891 133.187 29.1283 133.609 29.3897C134.036 29.6479 134.423 29.8807 134.761 30.0847C135.055 30.2633 135.237 30.3749 135.227 30.3908C135.218 30.4067 135.023 30.3207 134.713 30.1644C134.407 30.0082 133.988 29.7755 133.538 29.5013C133.088 29.2271 132.692 28.9593 132.411 28.7584C132.13 28.5576 131.964 28.4205 131.974 28.4077H131.977Z" fill="#E0E0E0"/>
<path d="M130.885 28.8252C131.064 29.3927 130.933 30.0303 130.732 30.5883C130.531 31.1462 130.138 31.634 129.637 31.956C129.369 31.4204 129.324 30.7732 129.522 30.2089C129.72 29.6414 130.339 29.0803 130.885 28.8252Z" fill="#EBEBEB"/>
<path d="M129.876 30.9648C130.167 30.2634 130.499 29.5811 130.866 28.918L129.876 30.9648Z" fill="white"/>
<path d="M130.866 28.9179C130.898 28.937 130.672 29.393 130.4 29.9573C130.126 30.5216 129.909 30.9807 129.877 30.9679C129.845 30.9552 130.007 30.4706 130.285 29.8999C130.56 29.3324 130.838 28.902 130.869 28.9179H130.866Z" fill="#E0E0E0"/>
<path d="M46.1737 11.1304H19.6666V54.9494H46.1737V11.1304Z" fill="#E0E0E0"/>
<path d="M45.2893 11.1304H18.7822V54.9494H45.2893V11.1304Z" fill="#EBEBEB"/>
<path d="M44.1622 12.02H19.9122V54.06H44.1622V12.02Z" fill="#FAFAFA"/>
<path d="M39.4405 17.4814H24.5284V48.5954H39.4405V17.4814Z" fill="#EBEBEB"/>
<path d="M24.5286 37.5865C24.4935 34.6788 27.1113 31.8413 29.9941 31.4364C31.3669 31.2419 32.829 31.5161 34.1124 30.9901C36.4046 30.0527 37.1325 27.0112 39.4406 26.1089L39.546 48.5986H24.5286V37.5897V37.5865Z" fill="#E0E0E0"/>
<rect x="7.99976" y="19.8262" width="142.261" height="158.957" rx="10" fill="#52C41A"/>
<rect x="10.7823" y="41.7393" width="136.696" height="137.151" rx="4.17391" fill="#FAFAFA"/>
<path d="M79.5818 90.6467C79.5818 90.6467 79.4067 90.6467 79.3192 90.6117C78.7064 90.4191 64.4903 85.8321 60.7437 78.3564C59.7108 76.308 59.5707 74.2246 60.2885 72.1413C61.0763 69.8828 62.3544 69.3226 63.2998 69.2525C66.9939 68.9374 72.3162 76.0979 76.0978 82.068C74.3821 75.9229 72.8764 67.8519 75.4325 63.9653C76.4304 62.4421 77.9536 61.6368 79.9144 61.5667C81.8752 61.5317 83.3459 62.197 84.3438 63.6151C86.7423 67.0816 85.3767 74.5573 83.626 80.7024C86.8999 75.6252 91.4518 70.0053 96.1088 68.8674C98.2447 68.3596 100.241 68.7973 102.026 70.1804C103.707 71.476 104.407 72.9991 104.145 74.6974C102.989 82.0505 82.2429 89.7188 79.8969 90.5766C79.8093 90.6117 79.7043 90.6292 79.5993 90.6292L79.5818 90.6467ZM63.5624 71.0033C63.5624 71.0033 63.4749 71.0033 63.4399 71.0033C63.2123 71.0033 62.512 71.0733 61.9342 72.719C61.374 74.3472 61.4965 75.9404 62.3019 77.5686C64.893 82.7333 73.5942 86.5849 77.6734 88.1606C73.4892 80.7724 66.8363 71.0033 63.5449 71.0033H63.5624ZM97.7895 70.4255C97.3694 70.4255 96.9492 70.478 96.5115 70.5831C90.2614 72.0887 83.7835 83.4861 81.3675 88.1606C88.458 85.3769 101.641 79.2668 102.412 74.4347C102.569 73.4018 102.096 72.4739 100.958 71.581C99.9605 70.8107 98.9275 70.4255 97.8071 70.4255H97.7895ZM80.142 63.3175C80.142 63.3175 80.0194 63.3175 79.9669 63.3175C78.5838 63.3525 77.5684 63.8777 76.8856 64.9282C74.0669 69.235 77.3758 81.0701 79.5818 87.3202C81.9978 80.895 85.6744 68.6748 82.8907 64.6306C82.2779 63.7552 81.385 63.335 80.142 63.335V63.3175Z" fill="#214FE2"/>
<path d="M35.1303 146.846H122.125L122.125 87.0751H35.1303L35.1303 146.846Z" fill="#214FE2"/>
<path opacity="0.6" d="M35.1303 146.846H122.125L122.125 87.0751H35.1303L35.1303 146.846Z" fill="white"/>
<path opacity="0.1" d="M35.1303 146.846H122.125V107.734H35.1303V146.846Z" fill="black"/>
<path opacity="0.2" d="M87.5652 146.846H122.125L122.125 87.0751H87.5652V146.846Z" fill="white"/>
<path d="M57.0671 146.846H64.1401L64.1401 87.0751H57.0671L57.0671 146.846Z" fill="#214FE2"/>
<path d="M104.705 146.846H109.905L109.905 87.0751H104.705V146.846Z" fill="#214FE2"/>
<path opacity="0.2" d="M57.0671 146.846H64.1401L64.1401 87.0751H57.0671L57.0671 146.846Z" fill="black"/>
<path opacity="0.1" d="M104.705 146.846H109.905L109.905 87.0751H104.705V146.846Z" fill="black"/>
<path opacity="0.4" d="M138.791 61.5771C138.844 61.7757 139.145 61.7757 139.197 61.5771C139.936 58.7683 140.751 58.0075 143.757 57.3168C143.969 57.2681 143.969 56.9864 143.757 56.9376C140.751 56.2469 139.936 55.4861 139.197 52.6773C139.145 52.4787 138.844 52.4787 138.791 52.6773C138.052 55.4861 137.238 56.2469 134.232 56.9376C134.019 56.9864 134.019 57.2681 134.232 57.3168C137.238 58.0075 138.052 58.7683 138.791 61.5771Z" fill="#CDCDCD"/>
<path d="M15.7411 150.403C15.6889 150.205 15.3875 150.205 15.3353 150.403C14.5961 153.212 13.7818 153.973 10.7757 154.664C10.5632 154.712 10.5632 154.994 10.7757 155.043C13.7818 155.734 14.5961 156.494 15.3353 159.303C15.3875 159.502 15.6889 159.502 15.7411 159.303C16.4803 156.494 17.2946 155.734 20.3007 155.043C20.5131 154.994 20.5131 154.712 20.3007 154.664C17.2946 153.973 16.4803 153.212 15.7411 150.403Z" fill="#CDCDCD"/>
<path opacity="0.2" d="M100.237 130.943C100.289 131.142 100.591 131.142 100.643 130.943C101.382 128.135 102.196 127.374 105.202 126.683C105.415 126.634 105.415 126.353 105.202 126.304C102.196 125.613 101.382 124.852 100.643 122.043C100.591 121.845 100.289 121.845 100.237 122.043C99.4979 124.852 98.6836 125.613 95.6775 126.304C95.465 126.353 95.465 126.634 95.6775 126.683C98.6836 127.374 99.4979 128.135 100.237 130.943Z" fill="#CDCDCD"/>
<path opacity="0.2" d="M81.78 159.303C81.8322 159.502 82.1337 159.502 82.1859 159.303C82.925 156.494 83.7393 155.734 86.7454 155.043C86.9579 154.994 86.9579 154.712 86.7454 154.664C83.7393 153.973 82.925 153.212 82.1859 150.403C82.1337 150.205 81.8322 150.205 81.78 150.403C81.0408 153.212 80.2265 153.973 77.2204 154.664C77.008 154.712 77.008 154.994 77.2204 155.043C80.2265 155.734 81.0408 156.494 81.78 159.303Z" fill="#CDCDCD"/>
<path d="M91.6237 75.3735C91.6759 75.5721 91.9774 75.5721 92.0296 75.3735C92.7688 72.5647 93.5831 71.8039 96.5891 71.1132C96.8017 71.0644 96.8017 70.7827 96.5891 70.734C93.5831 70.0433 92.7688 69.2825 92.0296 66.4737C91.9774 66.2751 91.6759 66.2751 91.6237 66.4737C90.8846 69.2825 90.0703 70.0433 87.0642 70.734C86.8517 70.7827 86.8517 71.0644 87.0642 71.1132C90.0703 71.8039 90.8846 72.5647 91.6237 75.3735Z" fill="#CDCDCD"/>
<path opacity="0.8" d="M54.2953 81.0366C54.2431 80.8381 53.9417 80.8381 53.8895 81.0366C53.1503 83.8454 52.336 84.6063 49.3299 85.297C49.1174 85.3457 49.1174 85.6274 49.3299 85.6762C52.336 86.3668 53.1503 87.1277 53.8895 89.9365C53.9417 90.1351 54.2431 90.1351 54.2953 89.9365C55.0345 87.1277 55.8488 86.3668 58.8549 85.6762C59.0673 85.6274 59.0673 85.3457 58.8549 85.297C55.8488 84.6063 55.0345 83.8454 54.2953 81.0366Z" fill="#CDCDCD"/>
<path opacity="0.2" d="M131.083 75.0528C131.113 75.1686 131.289 75.1686 131.32 75.0528C131.751 73.4143 132.226 72.9705 133.979 72.5676C134.103 72.5391 134.103 72.3748 133.979 72.3464C132.226 71.9435 131.751 71.4997 131.32 69.8612C131.289 69.7453 131.113 69.7453 131.083 69.8612C130.652 71.4997 130.177 71.9435 128.423 72.3464C128.299 72.3748 128.299 72.5391 128.423 72.5676C130.177 72.9705 130.652 73.4143 131.083 75.0528Z" fill="#CDCDCD"/>
<path opacity="0.4" d="M23.4495 136.928C23.4191 136.812 23.2432 136.812 23.2128 136.928C22.7816 138.566 22.3066 139.01 20.553 139.413C20.4291 139.441 20.4291 139.606 20.553 139.634C22.3066 140.037 22.7816 140.481 23.2128 142.119C23.2432 142.235 23.4191 142.235 23.4495 142.119C23.8807 140.481 24.3557 140.037 26.1093 139.634C26.2332 139.606 26.2332 139.441 26.1093 139.413C24.3557 139.01 23.8807 138.566 23.4495 136.928Z" fill="#CDCDCD"/>
<path opacity="0.2" d="M84.9725 87.4897C84.942 87.3739 84.7662 87.3739 84.7357 87.4897C84.3045 89.1282 83.8295 89.572 82.076 89.9749C81.952 90.0033 81.952 90.1677 82.076 90.1961C83.8295 90.599 84.3045 91.0428 84.7357 92.6813C84.7662 92.7971 84.942 92.7971 84.9725 92.6813C85.4037 91.0428 85.8787 90.599 87.6322 90.1961C87.7561 90.1677 87.7561 90.0033 87.6322 89.9749C85.8787 89.572 85.4037 89.1282 84.9725 87.4897Z" fill="#CDCDCD"/>
<path opacity="0.4" d="M138.056 93.8311C138.086 93.9469 138.262 93.9469 138.292 93.8311C138.723 92.1926 139.198 91.7488 140.952 91.3459C141.076 91.3175 141.076 91.1531 140.952 91.1247C139.198 90.7218 138.723 90.278 138.292 88.6395C138.262 88.5237 138.086 88.5237 138.056 88.6395C137.624 90.278 137.149 90.7218 135.396 91.1247C135.272 91.1531 135.272 91.3175 135.396 91.3459C137.149 91.7488 137.624 92.1926 138.056 93.8311Z" fill="#CDCDCD"/>
<path opacity="0.4" d="M140.927 148.634C140.957 148.75 141.133 148.75 141.164 148.634C141.595 146.996 142.07 146.552 143.823 146.149C143.947 146.121 143.947 145.956 143.823 145.928C142.07 145.525 141.595 145.081 141.164 143.443C141.133 143.327 140.957 143.327 140.927 143.443C140.496 145.081 140.021 145.525 138.267 145.928C138.143 145.956 138.143 146.121 138.267 146.149C140.021 146.552 140.496 146.996 140.927 148.634Z" fill="#CDCDCD"/>
<path opacity="0.2" d="M16.4769 118.149C16.4464 118.033 16.2706 118.033 16.2401 118.149C15.8089 119.787 15.3339 120.231 13.5804 120.634C13.4564 120.663 13.4564 120.827 13.5804 120.855C15.3339 121.258 15.8089 121.702 16.2401 123.34C16.2706 123.456 16.4464 123.456 16.4769 123.34C16.908 121.702 17.383 121.258 19.1366 120.855C19.2605 120.827 19.2605 120.663 19.1366 120.634C17.383 120.231 16.908 119.787 16.4769 118.149Z" fill="#CDCDCD"/>
<path opacity="0.4" d="M115.087 88.4659C115.117 88.5817 115.293 88.5817 115.324 88.4659C115.755 86.8274 116.23 86.3836 117.983 85.9807C118.107 85.9522 118.107 85.7879 117.983 85.7595C116.23 85.3566 115.755 84.9127 115.324 83.2743C115.293 83.1584 115.117 83.1584 115.087 83.2743C114.656 84.9127 114.181 85.3566 112.427 85.7595C112.303 85.7879 112.303 85.9522 112.427 85.9807C114.181 86.3836 114.656 86.8274 115.087 88.4659Z" fill="#CDCDCD"/>
<path d="M39.4456 123.515C39.4152 123.399 39.2393 123.399 39.2089 123.515C38.7777 125.153 38.3027 125.597 36.5491 126C36.4252 126.028 36.4252 126.193 36.5491 126.221C38.3027 126.624 38.7777 127.068 39.2089 128.706C39.2393 128.822 39.4152 128.822 39.4456 128.706C39.8768 127.068 40.3518 126.624 42.1054 126.221C42.2293 126.193 42.2293 126.028 42.1054 126C40.3518 125.597 39.8768 125.153 39.4456 123.515Z" fill="#CDCDCD"/>
<path d="M80.8709 131.562C80.8405 131.447 80.6646 131.447 80.6342 131.562C80.203 133.201 79.728 133.645 77.9744 134.048C77.8505 134.076 77.8505 134.24 77.9744 134.269C79.728 134.672 80.203 135.116 80.6342 136.754C80.6646 136.87 80.8405 136.87 80.8709 136.754C81.3021 135.116 81.7771 134.672 83.5307 134.269C83.6546 134.24 83.6546 134.076 83.5307 134.048C81.7771 133.645 81.3021 133.201 80.8709 131.562Z" fill="#CDCDCD"/>
<path opacity="0.4" d="M32.473 65.645C32.4425 65.5291 32.2667 65.5291 32.2362 65.645C31.805 67.2835 31.33 67.7273 29.5765 68.1302C29.4525 68.1586 29.4525 68.3229 29.5765 68.3514C31.33 68.7543 31.805 69.1981 32.2362 70.8366C32.2667 70.9524 32.4425 70.9524 32.473 70.8366C32.9041 69.1981 33.3791 68.7543 35.1327 68.3514C35.2566 68.3229 35.2566 68.1586 35.1327 68.1302C33.3791 67.7273 32.9041 67.2835 32.473 65.645Z" fill="#CDCDCD"/>
<path d="M136.039 112.251C136.06 112.334 136.186 112.334 136.208 112.251C136.516 111.081 136.855 110.764 138.108 110.476C138.196 110.456 138.196 110.339 138.108 110.318C136.855 110.031 136.516 109.713 136.208 108.543C136.186 108.46 136.06 108.46 136.039 108.543C135.731 109.713 135.391 110.031 134.139 110.318C134.05 110.339 134.05 110.456 134.139 110.476C135.391 110.764 135.731 111.081 136.039 112.251Z" fill="#CDCDCD"/>
<path d="M18.4938 99.7286C18.4721 99.6458 18.3465 99.6458 18.3247 99.7286C18.0167 100.899 17.6774 101.216 16.4249 101.504C16.3363 101.524 16.3363 101.641 16.4249 101.662C17.6774 101.949 18.0167 102.267 18.3247 103.437C18.3465 103.52 18.4721 103.52 18.4938 103.437C18.8018 102.267 19.1411 101.949 20.3936 101.662C20.4822 101.641 20.4822 101.524 20.3936 101.504C19.1411 101.216 18.8018 100.899 18.4938 99.7286Z" fill="#CDCDCD"/>
<path d="M20.9548 48.7579C20.933 48.6751 20.8074 48.6751 20.7856 48.7579C20.4777 49.9282 20.1384 50.2452 18.8858 50.533C18.7973 50.5533 18.7973 50.6707 18.8858 50.691C20.1384 50.9788 20.4777 51.2958 20.7856 52.4661C20.8074 52.5489 20.933 52.5489 20.9548 52.4661C21.2627 51.2958 21.602 50.9788 22.8546 50.691C22.9431 50.6707 22.9431 50.5533 22.8546 50.533C21.602 50.2452 21.2627 49.9282 20.9548 48.7579Z" fill="#CDCDCD"/>
<path d="M138.259 125.023C138.237 124.94 138.111 124.94 138.09 125.023C137.782 126.193 137.442 126.51 136.19 126.798C136.101 126.818 136.101 126.935 136.19 126.956C137.442 127.243 137.782 127.56 138.09 128.731C138.111 128.814 138.237 128.814 138.259 128.731C138.567 127.56 138.906 127.243 140.158 126.956C140.247 126.935 140.247 126.818 140.158 126.798C138.906 126.51 138.567 126.193 138.259 125.023Z" fill="#CDCDCD"/>
<path d="M79.9997 174.739C133.403 174.739 176.695 168.043 176.695 159.783C176.695 151.522 133.403 144.826 79.9997 144.826C26.5962 144.826 -16.6959 151.522 -16.6959 159.783C-16.6959 168.043 26.5962 174.739 79.9997 174.739Z" fill="#F5F5F5"/>
<circle cx="19.13" cy="31.3043" r="4.17391" fill="#FF4747"/>
<circle cx="29.9128" cy="31.3043" r="4.17391" fill="#FAAD14"/>
<circle cx="40.6952" cy="31.3043" r="4.17391" fill="#3EB006"/>
<rect x="49.9346" y="135.696" width="57" height="14" rx="7" fill="#52C41A"/>
<path d="M57.6988 143.527L59.5005 141.162H60.7875V144.696H59.5631V142.331L57.7544 144.696H56.4744V141.162H57.6988V143.527ZM65.7759 142.414H64.6003C64.5864 142.21 64.4982 142.057 64.3359 141.955C64.2014 141.867 64.009 141.823 63.7585 141.823C63.4385 141.823 63.1951 141.918 63.0281 142.108C62.8519 142.307 62.7638 142.593 62.7638 142.964C62.7638 143.33 62.8588 143.608 63.049 143.798C63.2067 143.956 63.4455 144.035 63.7655 144.035C64.0298 144.035 64.2223 143.989 64.3429 143.896C64.5145 143.775 64.6026 143.599 64.6072 143.367H65.7898V143.388C65.7898 143.764 65.6646 144.086 65.4142 144.355C65.224 144.554 64.9922 144.682 64.7185 144.738C64.4449 144.798 64.111 144.828 63.7168 144.828C63.4756 144.828 63.2693 144.819 63.0977 144.8C62.9307 144.786 62.7382 144.74 62.5203 144.661C62.3023 144.582 62.1214 144.471 61.9777 144.327C61.6577 144.007 61.4977 143.56 61.4977 142.984C61.4977 142.405 61.6553 141.948 61.9707 141.614C62.3324 141.224 62.9029 141.03 63.682 141.03C64.3127 141.03 64.7974 141.129 65.1359 141.329C65.5626 141.57 65.7759 141.932 65.7759 142.414ZM67.692 141.983V144.696H66.4676V141.162H70.4954V144.696H69.2711V141.983H67.692ZM74.2664 142.087C74.0902 141.911 73.8398 141.823 73.5151 141.823C73.1905 141.823 72.94 141.911 72.7638 142.087C72.569 142.282 72.4716 142.562 72.4716 142.929C72.4716 143.295 72.569 143.576 72.7638 143.771C72.94 143.947 73.1905 144.035 73.5151 144.035C73.8398 144.035 74.0902 143.947 74.2664 143.771C74.4612 143.576 74.5586 143.295 74.5586 142.929C74.5586 142.562 74.4612 142.282 74.2664 142.087ZM75.2125 141.496C75.6206 141.825 75.8247 142.303 75.8247 142.929C75.8247 143.555 75.6206 144.033 75.2125 144.362C74.8276 144.673 74.2618 144.828 73.5151 144.828C72.7684 144.828 72.2026 144.673 71.8177 144.362C71.4096 144.033 71.2055 143.555 71.2055 142.929C71.2055 142.303 71.4096 141.825 71.8177 141.496C72.2119 141.185 72.7777 141.03 73.5151 141.03C74.2525 141.03 74.8183 141.185 75.2125 141.496ZM76.1201 144.689V143.889C76.1711 143.907 76.2384 143.917 76.3219 143.917C76.4656 143.917 76.5816 143.873 76.6697 143.784C76.7856 143.669 76.8575 143.467 76.8853 143.179C76.9039 142.98 76.9132 142.676 76.9132 142.268V141.162H80.4262V144.696H79.2019V141.983H78.0053V142.511C78.0053 142.813 77.9891 143.147 77.9566 143.513C77.8963 143.926 77.7665 144.232 77.5671 144.431C77.3537 144.636 77.0361 144.738 76.614 144.738C76.41 144.738 76.2453 144.721 76.1201 144.689ZM82.5289 143.256V144.696H81.3046V141.162H82.5289V142.435H84.2054V141.162H85.4298V144.696H84.2054V143.256H82.5289ZM87.4107 142.532H89.3654C89.3469 142.291 89.2634 142.11 89.115 141.99C88.9573 141.851 88.7162 141.781 88.3915 141.781C88.0994 141.781 87.8698 141.846 87.7028 141.976C87.5266 142.12 87.4292 142.305 87.4107 142.532ZM89.3446 143.541H90.5759C90.5202 144.07 90.2652 144.436 89.8107 144.64C89.5231 144.765 89.0802 144.828 88.482 144.828C88.0275 144.828 87.6565 144.793 87.3689 144.724C87.0814 144.654 86.8333 144.515 86.6246 144.306C86.2999 143.982 86.1376 143.541 86.1376 142.984C86.1376 142.386 86.3138 141.918 86.6663 141.579C87.0512 141.213 87.624 141.03 88.3846 141.03C89.1776 141.03 89.7643 141.22 90.1446 141.6C90.4646 141.92 90.6246 142.398 90.6246 143.033V143.158H87.3898V143.179C87.3898 143.448 87.4663 143.659 87.6194 143.812C87.777 143.97 88.0367 144.049 88.3985 144.049C88.686 144.049 88.897 144.016 89.0315 143.951C89.1985 143.873 89.3028 143.736 89.3446 143.541ZM92.5425 143.256V144.696H91.3182V141.162H92.5425V142.435H94.219V141.162H95.4434V144.696H94.219V143.256H92.5425ZM99.0729 143.124V143.068C99.008 143.124 98.9338 143.163 98.8503 143.186C98.7715 143.205 98.6347 143.223 98.4399 143.242L98.1825 143.27C97.946 143.293 97.7813 143.335 97.6886 143.395C97.5773 143.483 97.5216 143.583 97.5216 143.694C97.5216 143.819 97.5703 143.919 97.6677 143.993C97.7605 144.067 97.9158 144.104 98.1338 144.104C98.4306 144.104 98.6602 144.023 98.8225 143.861C98.9895 143.694 99.0729 143.448 99.0729 143.124ZM97.626 142.303H96.3877C96.3877 141.978 96.5013 141.702 96.7286 141.475C96.9095 141.299 97.1274 141.18 97.3825 141.12C97.6422 141.06 97.9599 141.03 98.3355 141.03C99.1564 141.03 99.7153 141.185 100.012 141.496C100.1 141.589 100.167 141.698 100.214 141.823C100.265 141.948 100.293 142.052 100.297 142.136C100.307 142.219 100.311 142.328 100.311 142.463V144.035C100.311 144.207 100.33 144.348 100.367 144.459C100.413 144.538 100.478 144.584 100.562 144.598V144.696H99.226L99.1495 144.348H99.1216C98.9871 144.52 98.804 144.645 98.5721 144.724C98.3587 144.793 98.0782 144.828 97.7303 144.828C97.2155 144.828 96.8492 144.754 96.6312 144.605C96.3576 144.411 96.2208 144.13 96.2208 143.764C96.2208 143.471 96.3089 143.24 96.4851 143.068C96.5871 142.971 96.7286 142.892 96.9095 142.831C97.0903 142.771 97.2295 142.734 97.3269 142.72C97.4289 142.706 97.5796 142.69 97.779 142.671L98.3355 142.623C98.4793 142.609 98.579 142.6 98.6347 142.595C98.695 142.59 98.7599 142.579 98.8295 142.56C98.899 142.537 98.95 142.507 98.9825 142.47C99.0382 142.414 99.066 142.338 99.066 142.24C99.066 142.092 98.9918 141.976 98.8434 141.892C98.7321 141.827 98.5697 141.795 98.3564 141.795C98.1245 141.795 97.9483 141.837 97.8277 141.92C97.6979 142.022 97.6306 142.15 97.626 142.303Z" fill="white"/>
<path d="M107.819 52.399C118.931 47.8177 131.718 52.976 136.368 63.9388C141.019 74.8901 135.78 87.4916 124.667 92.0729C116.081 95.6157 106.526 93.3192 100.468 87.0646L93.9131 87.2724L96.2672 80.8562C96.2211 80.7408 96.1633 80.6485 96.1056 80.5331C91.4551 69.5818 96.6942 56.9803 107.807 52.399H107.819Z" fill="#52C41A"/>
<path d="M116.87 59.8696C109.979 59.8696 104.391 65.457 104.391 72.3479C104.391 79.2388 109.979 84.8262 116.87 84.8262C123.76 84.8262 129.348 79.2388 129.348 72.3479C129.348 65.457 123.76 59.8696 116.87 59.8696ZM122.259 68.273L116.393 76.4061C116.311 76.5205 116.203 76.6138 116.078 76.6781C115.953 76.7424 115.814 76.776 115.673 76.776C115.532 76.776 115.394 76.7424 115.269 76.6781C115.143 76.6138 115.035 76.5205 114.953 76.4061L111.48 71.5931C111.374 71.4454 111.48 71.2393 111.661 71.2393H112.967C113.251 71.2393 113.522 71.3758 113.689 71.6098L115.672 74.3617L120.05 68.2897C120.218 68.0585 120.485 67.9192 120.772 67.9192H122.078C122.259 67.9192 122.365 68.1253 122.259 68.273Z" fill="white"/>
<path d="M129.871 51.9838C124.263 47.7025 116.404 46.4793 109.723 48.8334" stroke="#52C41A" stroke-width="0.695652" stroke-linecap="round" stroke-linejoin="round"/>
<path d="M106.699 50.022C105.661 50.3105 104.68 50.8067 103.837 51.476" stroke="#52C41A" stroke-width="0.695652" stroke-linecap="round" stroke-linejoin="round"/>
</g>
<defs>
<clipPath id="clip0_78_12802">
<rect width="160" height="160" rx="24" fill="white"/>
</clipPath>
</defs>
</svg>
