<svg width="160" height="160" viewBox="0 0 160 160" fill="none" xmlns="http://www.w3.org/2000/svg">
<g clip-path="url(#clip0_78_12381)">
<rect width="160" height="160" rx="24" fill="#FAFAFA"/>
<path d="M148.454 13.0786V38.4888H115.59L114.406 13.2572L148.454 13.0786Z" fill="#E0E0E0"/>
<path d="M114.406 13.2279V38.4883H147.269V13.2279L114.406 13.2279Z" fill="white"/>
<path d="M147.394 38.6128H114.281V13.1006H147.394V38.6128ZM114.53 38.3609H147.141V13.3525H114.53V38.3641V38.3609Z" fill="#E0E0E0"/>
<path d="M143.71 15.8237H117.966V35.1635H143.71V15.8237Z" fill="white"/>
<path d="M143.71 15.8238C143.71 15.8238 143.665 15.8238 143.585 15.8269C143.502 15.8269 143.381 15.8269 143.224 15.8301C142.902 15.8301 142.433 15.8333 141.823 15.8365C140.597 15.8397 138.809 15.8461 136.542 15.8525C132.016 15.8588 125.586 15.8684 117.969 15.8811L118.026 15.8238C118.026 21.6263 118.029 28.21 118.032 35.1604L117.969 35.0966C127.556 35.0998 136.443 35.1062 143.713 35.1094L143.658 35.1636C143.671 29.3195 143.681 24.4894 143.687 21.1194C143.694 19.4328 143.697 18.1129 143.7 17.2075C143.7 16.7579 143.703 16.4136 143.706 16.1777C143.706 15.9449 143.713 15.8206 143.713 15.8206C143.713 15.8206 143.716 15.9353 143.719 16.1649C143.719 16.3976 143.722 16.7388 143.725 17.1851C143.725 18.0842 143.732 19.401 143.738 21.0843C143.745 24.4639 143.754 29.3036 143.767 35.1604V35.2146H143.713C136.443 35.2178 127.556 35.2209 117.969 35.2273H117.905V35.1636C117.905 28.21 117.908 21.6231 117.911 15.8238V15.7632H117.969C125.605 15.7759 132.044 15.7855 136.581 15.7919C138.841 15.7983 140.626 15.8046 141.848 15.8078C142.455 15.8078 142.921 15.8142 143.24 15.8142C143.393 15.8142 143.512 15.8142 143.595 15.8174C143.674 15.8174 143.713 15.8206 143.713 15.8206L143.71 15.8238Z" fill="#E0E0E0"/>
<path d="M114.406 13.1677C114.406 13.1677 114.629 13.2857 114.962 13.5089C115.294 13.7321 115.75 14.0509 116.245 14.4143C116.74 14.7778 117.174 15.1221 117.484 15.3804C117.793 15.6386 117.975 15.8076 117.966 15.8203C117.953 15.8363 117.752 15.6896 117.429 15.4505C117.069 15.1827 116.641 14.8671 116.168 14.5164C115.696 14.1657 115.268 13.8468 114.91 13.579C114.591 13.3367 114.396 13.1773 114.409 13.1646L114.406 13.1677Z" fill="#E0E0E0"/>
<path d="M147.269 13.2286C147.292 13.2573 146.509 13.8631 145.529 14.5804C144.546 15.2978 143.732 15.8557 143.71 15.827C143.687 15.7983 144.466 15.1925 145.45 14.4752C146.433 13.7578 147.247 13.1999 147.266 13.2286H147.269Z" fill="#E0E0E0"/>
<path d="M143.579 35.1633C143.604 35.1377 144.447 35.8583 145.469 36.7765C146.487 37.6947 147.295 38.4599 147.269 38.4886C147.244 38.5141 146.401 37.7935 145.379 36.8753C144.361 35.9571 143.553 35.1919 143.579 35.1633Z" fill="#E0E0E0"/>
<path d="M114.406 38.4887C114.38 38.4632 115.15 37.7299 116.123 36.8531C117.097 35.9763 117.905 35.2877 117.927 35.3132C117.953 35.3387 117.183 36.072 116.21 36.9487C115.236 37.8255 114.428 38.5142 114.406 38.4887Z" fill="#E0E0E0"/>
<path d="M137.05 25.3187C136.693 26.9957 135.042 28.0669 133.366 27.7098C131.69 27.3528 130.614 25.7044 130.972 24.0306C131.329 22.3536 132.98 21.2824 134.656 21.6395C136.335 21.9965 137.408 23.6448 137.05 25.3187Z" fill="#F5F5F5"/>
<path d="M132.999 27.6204C132.967 27.6045 133.098 27.2857 133.267 26.7628C133.433 26.2431 133.634 25.4971 133.551 24.6777C133.465 23.8615 133.043 23.1952 132.644 22.8476C132.242 22.4874 131.891 22.414 131.907 22.3694C131.907 22.3471 132.287 22.363 132.753 22.7137C133.216 23.0549 133.698 23.7659 133.794 24.649C133.883 25.5289 133.64 26.3037 133.43 26.8202C133.213 27.3399 133.027 27.6332 132.999 27.6204Z" fill="#E0E0E0"/>
<path d="M137.012 24.2982C136.996 24.3683 136.172 24.0718 135.205 24.3588C134.234 24.6393 133.701 25.3344 133.653 25.2833C133.628 25.2674 133.724 25.0697 133.969 24.8179C134.212 24.5692 134.618 24.2791 135.138 24.126C135.658 23.973 136.156 23.9985 136.495 24.075C136.836 24.1515 137.021 24.2663 137.012 24.295V24.2982Z" fill="#E0E0E0"/>
<path d="M135.607 24.1389C135.569 24.1389 135.585 23.9221 135.473 23.6161C135.368 23.3164 135.097 22.921 134.653 22.7425C134.203 22.5703 133.737 22.6787 133.456 22.8286C133.168 22.9784 133.034 23.1474 133.002 23.1219C132.98 23.1091 133.066 22.8923 133.366 22.6819C133.654 22.4747 134.193 22.3089 134.739 22.5161C135.278 22.7329 135.563 23.2175 135.636 23.5651C135.716 23.9221 135.63 24.1421 135.607 24.1358V24.1389Z" fill="#E0E0E0"/>
<path d="M134.617 24.4672C134.547 24.4513 134.598 24.0272 134.474 23.5331C134.359 23.0357 134.123 22.6786 134.177 22.634C134.222 22.5862 134.576 22.9146 134.71 23.4757C134.847 24.0336 134.678 24.4895 134.617 24.4672Z" fill="#E0E0E0"/>
<path d="M134.589 23.4949C134.586 23.5682 134.318 23.581 134.062 23.7149C133.804 23.8552 133.59 24.0337 133.539 23.9795C133.497 23.9412 133.625 23.683 133.95 23.5013C134.298 23.3259 134.602 23.4375 134.589 23.4949Z" fill="#E0E0E0"/>
<path d="M129.618 24.9484C130.614 25.7837 130.745 27.2694 129.905 28.2642C129.069 29.2589 127.581 29.3896 126.585 28.5511C125.589 27.7158 125.458 26.2301 126.298 25.2353C127.137 24.2406 128.622 24.1099 129.618 24.9484Z" fill="#F5F5F5"/>
<path d="M129.717 28.4776C129.694 28.4935 129.528 28.2927 129.238 27.9898C128.947 27.6933 128.52 27.2916 127.942 27.0556C127.364 26.8229 126.767 26.8643 126.39 27.011C126.007 27.1545 125.832 27.3585 125.806 27.3362C125.79 27.3298 125.937 27.0811 126.339 26.893C126.732 26.7049 127.38 26.6348 128.009 26.8898C128.631 27.1449 129.062 27.5849 129.334 27.9069C129.605 28.2353 129.733 28.468 129.717 28.4808V28.4776Z" fill="#E0E0E0"/>
<path d="M128.919 24.6108C128.96 24.6459 128.468 25.089 128.315 25.8415C128.156 26.5907 128.433 27.1933 128.382 27.2092C128.363 27.2188 128.264 27.0849 128.184 26.833C128.104 26.5811 128.053 26.2049 128.136 25.8032C128.219 25.4015 128.414 25.0763 128.587 24.8786C128.762 24.6778 128.903 24.5949 128.919 24.6108Z" fill="#E0E0E0"/>
<path d="M128.312 25.4935C128.296 25.519 128.159 25.4297 127.913 25.3978C127.677 25.3627 127.313 25.3978 127.035 25.6369C126.76 25.876 126.664 26.2268 126.668 26.4691C126.664 26.7146 126.732 26.8644 126.703 26.8772C126.687 26.8899 126.572 26.7528 126.537 26.4754C126.502 26.2108 126.581 25.79 126.917 25.4998C127.255 25.2161 127.683 25.2001 127.941 25.2735C128.21 25.3468 128.328 25.4839 128.312 25.4966V25.4935Z" fill="#E0E0E0"/>
<path d="M128.178 26.2716C128.143 26.313 127.875 26.1281 127.501 26.0325C127.128 25.9304 126.802 25.9623 126.793 25.9113C126.777 25.8667 127.125 25.7455 127.546 25.8539C127.971 25.9623 128.213 26.2365 128.178 26.2684V26.2716Z" fill="#E0E0E0"/>
<path d="M127.517 25.9434C127.565 25.9721 127.479 26.1538 127.479 26.3738C127.479 26.597 127.523 26.8042 127.469 26.817C127.427 26.8297 127.3 26.6544 127.297 26.3706C127.303 26.0773 127.485 25.9115 127.52 25.9402L127.517 25.9434Z" fill="#E0E0E0"/>
<path d="M129.717 24.1388C128.884 23.5968 128.373 22.6307 128.041 21.6934C127.709 20.7561 127.696 19.7103 128.003 18.7666C128.919 19.1747 129.659 19.9654 130.007 20.9059C130.355 21.8464 130.151 23.2333 129.717 24.1388Z" fill="#EBEBEB"/>
<path d="M128.75 20.3032C129.117 21.5179 129.417 22.7518 129.644 24.0016L128.75 20.3032Z" fill="white"/>
<path d="M129.644 24.0017C129.625 24.0049 129.573 23.7977 129.494 23.4629C129.404 23.0771 129.299 22.6403 129.187 22.1557C129.066 21.6711 128.957 21.2343 128.865 20.8517C128.782 20.517 128.734 20.3097 128.753 20.3034C128.769 20.297 128.849 20.4979 128.954 20.8262C129.059 21.1546 129.194 21.6137 129.315 22.1238C129.439 22.6372 129.532 23.1026 129.586 23.4438C129.64 23.7849 129.663 23.9985 129.647 24.0017H129.644Z" fill="#E0E0E0"/>
<path d="M131.827 28.3631C132.801 28.1591 133.845 28.4811 134.745 28.9083C135.642 29.3356 136.393 30.0657 136.846 30.952C135.907 31.3123 134.825 31.2772 133.912 30.8563C132.999 30.4355 132.162 29.3101 131.827 28.3663" fill="#EBEBEB"/>
<path d="M135.23 30.3908C134.11 29.7914 133.024 29.1283 131.98 28.4077L135.23 30.3908Z" fill="white"/>
<path d="M131.977 28.4077C131.977 28.4077 132.172 28.5002 132.466 28.6819C132.801 28.8891 133.187 29.1283 133.609 29.3897C134.036 29.6479 134.423 29.8807 134.761 30.0847C135.055 30.2633 135.237 30.3749 135.227 30.3908C135.218 30.4067 135.023 30.3207 134.713 30.1644C134.407 30.0082 133.988 29.7755 133.538 29.5013C133.088 29.2271 132.692 28.9593 132.411 28.7584C132.13 28.5576 131.964 28.4205 131.974 28.4077H131.977Z" fill="#E0E0E0"/>
<path d="M130.885 28.8252C131.064 29.3927 130.933 30.0303 130.732 30.5883C130.531 31.1462 130.138 31.634 129.637 31.956C129.369 31.4204 129.324 30.7732 129.522 30.2089C129.72 29.6414 130.339 29.0803 130.885 28.8252Z" fill="#EBEBEB"/>
<path d="M129.876 30.9648C130.167 30.2634 130.499 29.5811 130.866 28.918L129.876 30.9648Z" fill="white"/>
<path d="M130.866 28.9179C130.898 28.937 130.672 29.393 130.4 29.9573C130.126 30.5216 129.909 30.9807 129.877 30.9679C129.845 30.9552 130.007 30.4706 130.285 29.8999C130.56 29.3324 130.838 28.902 130.869 28.9179H130.866Z" fill="#E0E0E0"/>
<path d="M46.1737 11.1304H19.6666V54.9494H46.1737V11.1304Z" fill="#E0E0E0"/>
<path d="M45.2893 11.1304H18.7822V54.9494H45.2893V11.1304Z" fill="#EBEBEB"/>
<path d="M44.1622 12.02H19.9122V54.06H44.1622V12.02Z" fill="#FAFAFA"/>
<path d="M39.4405 17.4814H24.5284V48.5954H39.4405V17.4814Z" fill="#EBEBEB"/>
<path d="M24.5286 37.5865C24.4935 34.6788 27.1113 31.8413 29.9941 31.4364C31.3669 31.2419 32.829 31.5161 34.1124 30.9901C36.4046 30.0527 37.1325 27.0112 39.4406 26.1089L39.546 48.5986H24.5286V37.5897V37.5865Z" fill="#E0E0E0"/>
<rect x="7.99976" y="19.8262" width="142.261" height="158.957" rx="10" fill="#01A6FF"/>
<rect x="10.7823" y="41.7393" width="136.696" height="137.151" rx="4" fill="#FAFAFA"/>
<path opacity="0.4" d="M138.791 61.5771C138.844 61.7757 139.145 61.7757 139.197 61.5771C139.936 58.7683 140.751 58.0075 143.757 57.3168C143.969 57.2681 143.969 56.9864 143.757 56.9376C140.751 56.2469 139.936 55.4861 139.197 52.6773C139.145 52.4787 138.844 52.4787 138.791 52.6773C138.052 55.4861 137.238 56.2469 134.232 56.9376C134.019 56.9864 134.019 57.2681 134.232 57.3168C137.238 58.0075 138.052 58.7683 138.791 61.5771Z" fill="#CDCDCD"/>
<path d="M15.7411 150.403C15.6889 150.205 15.3875 150.205 15.3353 150.403C14.5961 153.212 13.7818 153.973 10.7757 154.664C10.5632 154.712 10.5632 154.994 10.7757 155.043C13.7818 155.734 14.5961 156.494 15.3353 159.303C15.3875 159.502 15.6889 159.502 15.7411 159.303C16.4803 156.494 17.2946 155.734 20.3007 155.043C20.5131 154.994 20.5131 154.712 20.3007 154.664C17.2946 153.973 16.4803 153.212 15.7411 150.403Z" fill="#CDCDCD"/>
<path opacity="0.2" d="M100.237 130.943C100.289 131.142 100.591 131.142 100.643 130.943C101.382 128.135 102.196 127.374 105.202 126.683C105.415 126.634 105.415 126.353 105.202 126.304C102.196 125.613 101.382 124.852 100.643 122.043C100.591 121.845 100.289 121.845 100.237 122.043C99.4979 124.852 98.6836 125.613 95.6775 126.304C95.465 126.353 95.465 126.634 95.6775 126.683C98.6836 127.374 99.4979 128.135 100.237 130.943Z" fill="#CDCDCD"/>
<path opacity="0.2" d="M81.78 159.303C81.8322 159.501 82.1337 159.501 82.1859 159.303C82.925 156.494 83.7393 155.733 86.7454 155.042C86.9579 154.994 86.9579 154.712 86.7454 154.663C83.7393 153.973 82.925 153.212 82.1859 150.403C82.1337 150.204 81.8322 150.204 81.78 150.403C81.0408 153.212 80.2265 153.973 77.2204 154.663C77.008 154.712 77.008 154.994 77.2204 155.042C80.2265 155.733 81.0408 156.494 81.78 159.303Z" fill="#CDCDCD"/>
<path d="M91.6237 75.3735C91.6759 75.5721 91.9774 75.5721 92.0296 75.3735C92.7688 72.5647 93.5831 71.8039 96.5891 71.1132C96.8017 71.0644 96.8017 70.7827 96.5891 70.734C93.5831 70.0433 92.7688 69.2825 92.0296 66.4737C91.9774 66.2751 91.6759 66.2751 91.6237 66.4737C90.8846 69.2825 90.0703 70.0433 87.0642 70.734C86.8517 70.7827 86.8517 71.0644 87.0642 71.1132C90.0703 71.8039 90.8846 72.5647 91.6237 75.3735Z" fill="#CDCDCD"/>
<path opacity="0.8" d="M54.2953 81.0366C54.2431 80.8381 53.9417 80.8381 53.8895 81.0366C53.1503 83.8454 52.336 84.6063 49.3299 85.297C49.1174 85.3457 49.1174 85.6274 49.3299 85.6762C52.336 86.3668 53.1503 87.1277 53.8895 89.9365C53.9417 90.1351 54.2431 90.1351 54.2953 89.9365C55.0345 87.1277 55.8488 86.3668 58.8549 85.6762C59.0673 85.6274 59.0673 85.3457 58.8549 85.297C55.8488 84.6063 55.0345 83.8454 54.2953 81.0366Z" fill="#CDCDCD"/>
<path opacity="0.2" d="M131.083 75.0523C131.113 75.1681 131.289 75.1681 131.32 75.0523C131.751 73.4138 132.226 72.97 133.979 72.5671C134.103 72.5386 134.103 72.3743 133.979 72.3459C132.226 71.943 131.751 71.4992 131.32 69.8607C131.289 69.7449 131.113 69.7449 131.083 69.8607C130.652 71.4992 130.177 71.943 128.423 72.3459C128.299 72.3743 128.299 72.5386 128.423 72.5671C130.177 72.97 130.652 73.4138 131.083 75.0523Z" fill="#CDCDCD"/>
<path opacity="0.4" d="M23.4495 136.928C23.4191 136.812 23.2432 136.812 23.2128 136.928C22.7816 138.566 22.3066 139.01 20.553 139.413C20.4291 139.441 20.4291 139.606 20.553 139.634C22.3066 140.037 22.7816 140.481 23.2128 142.119C23.2432 142.235 23.4191 142.235 23.4495 142.119C23.8807 140.481 24.3557 140.037 26.1093 139.634C26.2332 139.606 26.2332 139.441 26.1093 139.413C24.3557 139.01 23.8807 138.566 23.4495 136.928Z" fill="#CDCDCD"/>
<path opacity="0.2" d="M84.9725 87.4897C84.942 87.3739 84.7662 87.3739 84.7357 87.4897C84.3045 89.1282 83.8295 89.572 82.076 89.9749C81.952 90.0033 81.952 90.1677 82.076 90.1961C83.8295 90.599 84.3045 91.0428 84.7357 92.6813C84.7662 92.7971 84.942 92.7971 84.9725 92.6813C85.4037 91.0428 85.8787 90.599 87.6322 90.1961C87.7561 90.1677 87.7561 90.0033 87.6322 89.9749C85.8787 89.572 85.4037 89.1282 84.9725 87.4897Z" fill="#CDCDCD"/>
<path opacity="0.4" d="M138.056 93.8311C138.086 93.9469 138.262 93.9469 138.292 93.8311C138.724 92.1926 139.199 91.7488 140.952 91.3459C141.076 91.3175 141.076 91.1531 140.952 91.1247C139.199 90.7218 138.724 90.278 138.292 88.6395C138.262 88.5237 138.086 88.5237 138.056 88.6395C137.624 90.278 137.149 90.7218 135.396 91.1247C135.272 91.1531 135.272 91.3175 135.396 91.3459C137.149 91.7488 137.624 92.1926 138.056 93.8311Z" fill="#CDCDCD"/>
<path opacity="0.4" d="M140.927 148.634C140.957 148.75 141.133 148.75 141.164 148.634C141.595 146.996 142.07 146.552 143.823 146.149C143.947 146.121 143.947 145.956 143.823 145.928C142.07 145.525 141.595 145.081 141.164 143.443C141.133 143.327 140.957 143.327 140.927 143.443C140.496 145.081 140.021 145.525 138.267 145.928C138.143 145.956 138.143 146.121 138.267 146.149C140.021 146.552 140.496 146.996 140.927 148.634Z" fill="#CDCDCD"/>
<path opacity="0.2" d="M16.4769 118.149C16.4464 118.033 16.2706 118.033 16.2401 118.149C15.8089 119.787 15.3339 120.231 13.5804 120.634C13.4564 120.663 13.4564 120.827 13.5804 120.855C15.3339 121.258 15.8089 121.702 16.2401 123.34C16.2706 123.456 16.4464 123.456 16.4769 123.34C16.908 121.702 17.383 121.258 19.1366 120.855C19.2605 120.827 19.2605 120.663 19.1366 120.634C17.383 120.231 16.908 119.787 16.4769 118.149Z" fill="#CDCDCD"/>
<path opacity="0.4" d="M115.087 88.4659C115.117 88.5817 115.293 88.5817 115.324 88.4659C115.755 86.8274 116.23 86.3836 117.983 85.9807C118.107 85.9522 118.107 85.7879 117.983 85.7595C116.23 85.3566 115.755 84.9127 115.324 83.2743C115.293 83.1584 115.117 83.1584 115.087 83.2743C114.656 84.9127 114.181 85.3566 112.427 85.7595C112.303 85.7879 112.303 85.9522 112.427 85.9807C114.181 86.3836 114.656 86.8274 115.087 88.4659Z" fill="#CDCDCD"/>
<path d="M39.4456 123.515C39.4152 123.399 39.2393 123.399 39.2089 123.515C38.7777 125.153 38.3027 125.597 36.5491 126C36.4252 126.028 36.4252 126.193 36.5491 126.221C38.3027 126.624 38.7777 127.068 39.2089 128.706C39.2393 128.822 39.4152 128.822 39.4456 128.706C39.8768 127.068 40.3518 126.624 42.1054 126.221C42.2293 126.193 42.2293 126.028 42.1054 126C40.3518 125.597 39.8768 125.153 39.4456 123.515Z" fill="#CDCDCD"/>
<path d="M80.8709 131.562C80.8405 131.447 80.6646 131.447 80.6342 131.562C80.203 133.201 79.728 133.645 77.9744 134.048C77.8505 134.076 77.8505 134.24 77.9744 134.269C79.728 134.672 80.203 135.116 80.6342 136.754C80.6646 136.87 80.8405 136.87 80.8709 136.754C81.3021 135.116 81.7771 134.672 83.5307 134.269C83.6546 134.24 83.6546 134.076 83.5307 134.048C81.7771 133.645 81.3021 133.201 80.8709 131.562Z" fill="#CDCDCD"/>
<path opacity="0.4" d="M32.473 65.6455C32.4425 65.5296 32.2667 65.5296 32.2362 65.6455C31.805 67.2839 31.33 67.7278 29.5765 68.1307C29.4525 68.1591 29.4525 68.3234 29.5765 68.3519C31.33 68.7548 31.805 69.1986 32.2362 70.8371C32.2667 70.9529 32.4425 70.9529 32.473 70.8371C32.9041 69.1986 33.3791 68.7548 35.1327 68.3519C35.2566 68.3234 35.2566 68.1591 35.1327 68.1307C33.3791 67.7278 32.9041 67.2839 32.473 65.6455Z" fill="#CDCDCD"/>
<path d="M136.039 112.251C136.06 112.334 136.186 112.334 136.208 112.251C136.516 111.081 136.855 110.764 138.108 110.476C138.196 110.456 138.196 110.339 138.108 110.318C136.855 110.031 136.516 109.713 136.208 108.543C136.186 108.46 136.06 108.46 136.039 108.543C135.731 109.713 135.391 110.031 134.139 110.318C134.05 110.339 134.05 110.456 134.139 110.476C135.391 110.764 135.731 111.081 136.039 112.251Z" fill="#CDCDCD"/>
<path d="M18.4938 99.7286C18.4721 99.6458 18.3465 99.6458 18.3247 99.7286C18.0167 100.899 17.6774 101.216 16.4249 101.504C16.3363 101.524 16.3363 101.641 16.4249 101.662C17.6774 101.949 18.0167 102.267 18.3247 103.437C18.3465 103.52 18.4721 103.52 18.4938 103.437C18.8018 102.267 19.1411 101.949 20.3936 101.662C20.4822 101.641 20.4822 101.524 20.3936 101.504C19.1411 101.216 18.8018 100.899 18.4938 99.7286Z" fill="#CDCDCD"/>
<path d="M20.9548 48.7579C20.933 48.6751 20.8074 48.6751 20.7856 48.7579C20.4777 49.9282 20.1384 50.2452 18.8858 50.533C18.7973 50.5533 18.7973 50.6707 18.8858 50.691C20.1384 50.9788 20.4777 51.2958 20.7856 52.4661C20.8074 52.5489 20.933 52.5489 20.9548 52.4661C21.2627 51.2958 21.602 50.9788 22.8546 50.691C22.9431 50.6707 22.9431 50.5533 22.8546 50.533C21.602 50.2452 21.2627 49.9282 20.9548 48.7579Z" fill="#CDCDCD"/>
<path d="M138.259 125.023C138.237 124.94 138.111 124.94 138.09 125.023C137.782 126.193 137.442 126.51 136.19 126.798C136.101 126.818 136.101 126.935 136.19 126.956C137.442 127.243 137.782 127.56 138.09 128.731C138.111 128.814 138.237 128.814 138.259 128.731C138.567 127.56 138.906 127.243 140.158 126.956C140.247 126.935 140.247 126.818 140.158 126.798C138.906 126.51 138.567 126.193 138.259 125.023Z" fill="#CDCDCD"/>
<path d="M118.33 55.6904H38.8691C37.5725 55.6904 36.5213 56.7416 36.5213 58.0383V167.53C36.5213 168.827 37.5725 169.878 38.8691 169.878H118.33C119.627 169.878 120.678 168.827 120.678 167.53V58.0383C120.678 56.7416 119.627 55.6904 118.33 55.6904Z" fill="#01A6FF"/>
<path d="M43.109 58.8105H39.3977V166.978L117.21 167.59L119.359 165.11L117.474 63.0749L43.109 58.8105Z" fill="#EBEBEB"/>
<path d="M119.359 165.11H42.4203V58.8105H39.3977V167.59H117.21L119.359 165.11Z" fill="#E0E0E0"/>
<path d="M125.913 311.652H49.9962C42.6015 269.596 41.2921 162.615 42.4626 58.7827H117.837C117.222 162.555 118.705 255.737 125.909 311.652H125.913Z" fill="white" stroke="#263238" stroke-width="0.347826" stroke-miterlimit="10"/>
<path d="M49.7474 79.8281C49.8305 81.7011 50.5086 83.4311 51.5956 84.835C53.2377 86.9642 55.8106 88.3482 58.6427 88.3482C61.4748 88.3482 63.9214 86.9642 65.3707 84.835C66.3314 83.4311 66.8566 81.7011 66.7735 79.8281C66.5641 75.1206 62.5818 71.3047 57.8815 71.3047C53.1812 71.3047 49.5347 75.1206 49.7474 79.8281Z" fill="#EBEBEB"/>
<path d="M54.5535 76.9974C54.6398 78.8969 56.2471 80.4377 58.1465 80.4377C60.046 80.4377 61.5171 78.8969 61.4341 76.9974C61.3478 75.098 59.7405 73.5571 57.841 73.5571C55.9416 73.5571 54.4705 75.098 54.5535 76.9974Z" fill="#01A6FF"/>
<path d="M51.465 84.8409C53.1055 86.9662 55.6757 88.3476 58.505 88.3476C61.3343 88.3476 63.7783 86.9662 65.2262 84.8409C63.6123 83.2336 61.0587 82.1909 58.2294 82.1909C55.4001 82.1909 52.9361 83.2336 51.465 84.8409Z" fill="#01A6FF"/>
<path opacity="0.1" d="M54.5535 76.9974C54.6398 78.8969 56.2471 80.4377 58.1465 80.4377C60.046 80.4377 61.5171 78.8969 61.4341 76.9974C61.3478 75.098 59.7405 73.5571 57.841 73.5571C55.9416 73.5571 54.4705 75.098 54.5535 76.9974Z" fill="#EBEBEB"/>
<path opacity="0.1" d="M51.465 84.8409C53.1055 86.9662 55.6757 88.3476 58.505 88.3476C61.3343 88.3476 63.7783 86.9662 65.2262 84.8409C63.6123 83.2336 61.0587 82.1909 58.2294 82.1909C55.4001 82.1909 52.9361 83.2336 51.465 84.8409Z" fill="#EBEBEB"/>
<path d="M70.0723 82.7097H110.319C110.657 82.7097 110.657 82.188 110.319 82.188H70.0723C69.7349 82.188 69.7349 82.7097 70.0723 82.7097Z" fill="#263238"/>
<path d="M52.6637 93.593H110.319C110.657 93.593 110.657 93.0713 110.319 93.0713H52.6637C52.3263 93.0713 52.3263 93.593 52.6637 93.593Z" fill="#263238"/>
<path d="M52.6637 103.106H80.6637C81.0011 103.106 81.0011 102.584 80.6637 102.584H52.6637C52.3263 102.584 52.3263 103.106 52.6637 103.106Z" fill="#263238"/>
<path d="M53.7805 112.616H92.824C93.1614 112.616 93.1614 112.094 92.824 112.094H53.7805C53.4431 112.094 53.4431 112.616 53.7805 112.616Z" fill="#263238"/>
<path d="M54.9004 122.125H74.7857C75.1231 122.125 75.1231 121.604 74.7857 121.604H54.9004C54.5631 121.604 54.5631 122.125 54.9004 122.125Z" fill="#263238"/>
<path d="M78.2464 122.125H111.005C111.342 122.125 111.342 121.604 111.005 121.604H78.2464C77.909 121.604 77.909 122.125 78.2464 122.125Z" fill="#263238"/>
<path d="M56.0168 131.635H79.7211C80.0585 131.635 80.0585 131.113 79.7211 131.113H56.0168C55.6794 131.113 55.6794 131.635 56.0168 131.635Z" fill="#01A6FF"/>
<path d="M57.1366 141.148H94.7366C95.074 141.148 95.074 140.626 94.7366 140.626H57.1366C56.7993 140.626 56.7993 141.148 57.1366 141.148Z" fill="#263238"/>
<path d="M59.0606 151.701H84.4971C84.8345 151.701 84.8345 151.179 84.4971 151.179H59.0606C58.7232 151.179 58.7232 151.701 59.0606 151.701Z" fill="#263238"/>
<path d="M85.6901 145.701C81.9718 145.141 78.0727 145.739 74.7405 147.51C73.3701 148.24 71.8814 149.708 72.6675 151.395C73.4536 153.082 75.5371 153.294 77.0988 153.652C81.0675 154.567 85.1718 155.325 89.2449 154.678C90.8727 154.421 92.8101 154.004 94.0901 152.887C95.3701 151.77 95.1753 150.247 94.1214 149.117C92.824 147.729 90.7579 147.078 88.9318 146.786C86.904 146.459 84.8414 146.529 82.7962 146.616C82.4623 146.63 82.4588 147.151 82.7962 147.137C85.9579 146.998 89.3875 146.859 92.264 148.4C93.4605 149.04 95.1544 150.438 94.2153 151.955C93.4188 153.242 91.4884 153.677 90.1249 153.983C86.5805 154.769 82.9075 154.341 79.391 153.621C78.4797 153.433 77.5718 153.228 76.664 153.016C75.8153 152.817 74.904 152.664 74.1423 152.212C73.4849 151.826 72.9423 151.158 72.9875 150.358C73.0431 149.447 73.7284 148.741 74.4553 148.278C76.0205 147.28 77.9023 146.671 79.7145 146.32C81.6345 145.948 83.6205 145.91 85.5579 146.202C85.8849 146.25 86.0275 145.75 85.6971 145.697L85.6901 145.701Z" fill="#01A6FF"/>
<path d="M99.3004 147.993H115.175C115.513 147.993 115.513 147.471 115.175 147.471H99.3004C98.963 147.471 98.963 147.993 99.3004 147.993Z" fill="#01A6FF"/>
<path d="M100.413 149.346H114.511C114.848 149.346 114.848 148.825 114.511 148.825H100.413C100.076 148.825 100.076 149.346 100.413 149.346Z" fill="#01A6FF"/>
<path d="M45.7526 54.0767H65.0848" stroke="#01A6FF" stroke-width="0.26087" stroke-linejoin="round"/>
<path d="M83.7283 131.635H112.605C112.942 131.635 112.942 131.113 112.605 131.113H83.7283C83.3909 131.113 83.3909 131.635 83.7283 131.635Z" fill="#263238"/>
<path d="M99.3005 141.148H114.507C114.845 141.148 114.845 140.626 114.507 140.626H99.3005C98.9631 140.626 98.9631 141.148 99.3005 141.148Z" fill="#263238"/>
<path d="M98.0033 112.616H111.005C111.342 112.616 111.342 112.094 111.005 112.094H98.0033C97.6659 112.094 97.6659 112.616 98.0033 112.616Z" fill="#263238"/>
<path d="M84.0169 103.106H95.3282C95.6656 103.106 95.6656 102.584 95.3282 102.584H84.0169C83.6795 102.584 83.6795 103.106 84.0169 103.106Z" fill="#01A6FF"/>
<path d="M99.3005 103.047H111.005C111.342 103.047 111.342 102.525 111.005 102.525H99.3005C98.9631 102.525 98.9631 103.047 99.3005 103.047Z" fill="#263238"/>
<path d="M44.6604 54.0767H41.6517" stroke="#01A6FF" stroke-width="0.26087" stroke-linejoin="round"/>
<path d="M79.9997 174.739C133.403 174.739 176.695 168.043 176.695 159.783C176.695 151.522 133.403 144.826 79.9997 144.826C26.5962 144.826 -16.6959 151.522 -16.6959 159.783C-16.6959 168.043 26.5962 174.739 79.9997 174.739Z" fill="#F5F5F5"/>
<circle cx="19.13" cy="31.3043" r="4.17391" fill="#FF4747"/>
<circle cx="29.9128" cy="31.3043" r="4.17391" fill="#FAAD14"/>
<circle cx="40.6952" cy="31.3043" r="4.17391" fill="#52C41A"/>
<rect x="78" y="75" width="61" height="12" rx="6" fill="#01A6FF"/>
<path d="M87.0051 80.1339C86.7268 80.1339 86.4996 80.2243 86.3234 80.4052C86.1239 80.6278 86.0242 80.9084 86.0242 81.247C86.0242 81.5994 86.117 81.8707 86.3025 82.0609C86.4834 82.2417 86.7245 82.3322 87.026 82.3322C87.3321 82.3322 87.5663 82.2371 87.7286 82.047C87.9002 81.8522 87.986 81.5786 87.986 81.2261C87.986 80.8922 87.9002 80.6255 87.7286 80.4261C87.5477 80.2313 87.3066 80.1339 87.0051 80.1339ZM84.8347 79.4661H86.0034V79.9113H86.0242C86.1495 79.7443 86.3025 79.6145 86.4834 79.5217C86.7106 79.4104 87.0028 79.3548 87.3599 79.3548C87.9489 79.3548 88.408 79.5032 88.7373 79.8C89.0805 80.1293 89.2521 80.5977 89.2521 81.2052C89.2521 81.8406 89.0805 82.3252 88.7373 82.6591C88.5471 82.8493 88.3384 82.9722 88.1112 83.0278C87.8886 83.0835 87.6335 83.1113 87.346 83.1113C86.9842 83.1113 86.7129 83.0719 86.5321 82.993C86.3466 82.9188 86.1889 82.7959 86.059 82.6243V84.287H84.8347V79.4661ZM92.7049 81.4278V81.3722C92.64 81.4278 92.5658 81.4672 92.4823 81.4904C92.4035 81.509 92.2667 81.5275 92.0719 81.5461L91.8145 81.5739C91.578 81.5971 91.4134 81.6388 91.3206 81.6991C91.2093 81.7872 91.1536 81.887 91.1536 81.9983C91.1536 82.1235 91.2023 82.2232 91.2997 82.2974C91.3925 82.3716 91.5478 82.4087 91.7658 82.4087C92.0626 82.4087 92.2922 82.3275 92.4545 82.1652C92.6215 81.9983 92.7049 81.7525 92.7049 81.4278ZM91.258 80.607H90.0197C90.0197 80.2823 90.1334 80.0064 90.3606 79.7791C90.5415 79.6029 90.7594 79.4846 91.0145 79.4243C91.2742 79.3641 91.5919 79.3339 91.9676 79.3339C92.7884 79.3339 93.3473 79.4893 93.6441 79.8C93.7322 79.8928 93.7994 80.0017 93.8458 80.127C93.8968 80.2522 93.9247 80.3565 93.9293 80.44C93.9386 80.5235 93.9432 80.6325 93.9432 80.767V82.3391C93.9432 82.5107 93.9618 82.6522 93.9989 82.7635C94.0452 82.8423 94.1102 82.8887 94.1936 82.9026V83H92.858L92.7815 82.6522H92.7536C92.6191 82.8238 92.436 82.949 92.2041 83.0278C91.9907 83.0974 91.7102 83.1322 91.3623 83.1322C90.8476 83.1322 90.4812 83.058 90.2632 82.9096C89.9896 82.7148 89.8528 82.4342 89.8528 82.0678C89.8528 81.7757 89.9409 81.5438 90.1171 81.3722C90.2191 81.2748 90.3606 81.1959 90.5415 81.1357C90.7223 81.0754 90.8615 81.0383 90.9589 81.0243C91.0609 81.0104 91.2116 80.9942 91.411 80.9757L91.9676 80.927C92.1113 80.913 92.211 80.9038 92.2667 80.8991C92.327 80.8945 92.3919 80.8829 92.4615 80.8643C92.531 80.8412 92.582 80.811 92.6145 80.7739C92.6702 80.7183 92.698 80.6417 92.698 80.5443C92.698 80.3959 92.6238 80.28 92.4754 80.1965C92.3641 80.1316 92.2018 80.0991 91.9884 80.0991C91.7565 80.0991 91.5803 80.1409 91.4597 80.2243C91.3299 80.3264 91.2626 80.4539 91.258 80.607ZM94.6041 81.7965H95.7867V81.8243C95.7867 81.9867 95.8609 82.1188 96.0093 82.2209C96.1485 82.309 96.3734 82.353 96.6841 82.353C96.9021 82.353 97.0667 82.3229 97.178 82.2626C97.3265 82.193 97.4007 82.0817 97.4007 81.9287C97.4007 81.8035 97.345 81.7084 97.2337 81.6435C97.1224 81.5786 96.8905 81.5461 96.538 81.5461H96.218V80.8643H96.5867C96.865 80.8643 97.0389 80.8435 97.1085 80.8017C97.2522 80.7461 97.3241 80.651 97.3241 80.5165C97.3241 80.3449 97.2337 80.229 97.0528 80.1687C96.9276 80.1223 96.7583 80.0991 96.545 80.0991C96.3317 80.0991 96.1624 80.1362 96.0372 80.2104C95.912 80.2846 95.8424 80.4029 95.8285 80.5652H94.6459C94.6366 80.273 94.7363 80.0203 94.945 79.807C95.2511 79.4916 95.8007 79.3339 96.5937 79.3339C97.1363 79.3339 97.5769 79.4035 97.9154 79.5426C98.3421 79.7235 98.5554 80.0087 98.5554 80.3983C98.5554 80.607 98.4905 80.7762 98.3607 80.9061C98.254 81.0128 98.1009 81.08 97.9015 81.1078V81.1287C97.9665 81.138 98.0267 81.1542 98.0824 81.1774C98.1427 81.1959 98.1937 81.2168 98.2354 81.24C98.2772 81.2632 98.312 81.2841 98.3398 81.3026C98.3676 81.3212 98.3908 81.3397 98.4093 81.3583C98.4325 81.3768 98.4465 81.3861 98.4511 81.3861C98.6041 81.5391 98.6807 81.7386 98.6807 81.9843C98.6807 82.4388 98.4789 82.7565 98.0754 82.9374C97.825 83.0672 97.3728 83.1322 96.7189 83.1322C95.9491 83.1322 95.4157 83.0325 95.1189 82.833C94.7757 82.6012 94.6041 82.2649 94.6041 81.8243V81.7965ZM101.585 83L100.528 80.5235H100.472L100.507 80.8783V83H99.3523V79.4661H100.897L101.975 81.9774L103.046 79.4661H104.591V83H103.436V80.8783L103.471 80.5235H103.422L102.358 83H101.585ZM106.573 80.8365H108.527C108.509 80.5954 108.425 80.4145 108.277 80.2939C108.119 80.1548 107.878 80.0852 107.553 80.0852C107.261 80.0852 107.032 80.1501 106.865 80.28C106.688 80.4238 106.591 80.6093 106.573 80.8365ZM108.506 81.8452H109.738C109.682 82.3739 109.427 82.7403 108.973 82.9443C108.685 83.0696 108.242 83.1322 107.644 83.1322C107.189 83.1322 106.818 83.0974 106.531 83.0278C106.243 82.9583 105.995 82.8191 105.786 82.6104C105.462 82.2858 105.3 81.8452 105.3 81.2887C105.3 80.6904 105.476 80.222 105.828 79.8835C106.213 79.5171 106.786 79.3339 107.546 79.3339C108.34 79.3339 108.926 79.5241 109.306 79.9043C109.626 80.2243 109.786 80.702 109.786 81.3374V81.4626H106.552V81.4835C106.552 81.7525 106.628 81.9635 106.781 82.1165C106.939 82.2742 107.199 82.353 107.56 82.353C107.848 82.353 108.059 82.3206 108.193 82.2557C108.36 82.1768 108.465 82.04 108.506 81.8452ZM111.704 82.1791H113.096V79.4661H114.32V82.1791H115.711V79.4661H116.936V82.1791H117.59L117.548 83.9043H116.588V83H110.48V79.4661H111.704V82.1791ZM119.181 80.8365H121.136C121.117 80.5954 121.034 80.4145 120.886 80.2939C120.728 80.1548 120.487 80.0852 120.162 80.0852C119.87 80.0852 119.64 80.1501 119.473 80.28C119.297 80.4238 119.2 80.6093 119.181 80.8365ZM121.115 81.8452H122.346C122.291 82.3739 122.036 82.7403 121.581 82.9443C121.294 83.0696 120.851 83.1322 120.253 83.1322C119.798 83.1322 119.427 83.0974 119.14 83.0278C118.852 82.9583 118.604 82.8191 118.395 82.6104C118.071 82.2858 117.908 81.8452 117.908 81.2887C117.908 80.6904 118.084 80.222 118.437 79.8835C118.822 79.5171 119.395 79.3339 120.155 79.3339C120.948 79.3339 121.535 79.5241 121.915 79.9043C122.235 80.2243 122.395 80.702 122.395 81.3374V81.4626H119.16V81.4835C119.16 81.7525 119.237 81.9635 119.39 82.1165C119.548 82.2742 119.807 82.353 120.169 82.353C120.457 82.353 120.668 82.3206 120.802 82.2557C120.969 82.1768 121.073 82.04 121.115 81.8452ZM124.313 81.56V83H123.089V79.4661H124.313V80.7391H125.99V79.4661H127.214V83H125.99V81.56H124.313ZM130.844 81.4278V81.3722C130.779 81.4278 130.704 81.4672 130.621 81.4904C130.542 81.509 130.405 81.5275 130.21 81.5461L129.953 81.5739C129.717 81.5971 129.552 81.6388 129.459 81.6991C129.348 81.7872 129.292 81.887 129.292 81.9983C129.292 82.1235 129.341 82.2232 129.438 82.2974C129.531 82.3716 129.686 82.4087 129.904 82.4087C130.201 82.4087 130.431 82.3275 130.593 82.1652C130.76 81.9983 130.844 81.7525 130.844 81.4278ZM129.397 80.607H128.158C128.158 80.2823 128.272 80.0064 128.499 79.7791C128.68 79.6029 128.898 79.4846 129.153 79.4243C129.413 79.3641 129.73 79.3339 130.106 79.3339C130.927 79.3339 131.486 79.4893 131.783 79.8C131.871 79.8928 131.938 80.0017 131.984 80.127C132.035 80.2522 132.063 80.3565 132.068 80.44C132.077 80.5235 132.082 80.6325 132.082 80.767V82.3391C132.082 82.5107 132.1 82.6522 132.137 82.7635C132.184 82.8423 132.249 82.8887 132.332 82.9026V83H130.997L130.92 82.6522H130.892C130.758 82.8238 130.575 82.949 130.343 83.0278C130.129 83.0974 129.849 83.1322 129.501 83.1322C128.986 83.1322 128.62 83.058 128.402 82.9096C128.128 82.7148 127.991 82.4342 127.991 82.0678C127.991 81.7757 128.079 81.5438 128.256 81.3722C128.358 81.2748 128.499 81.1959 128.68 81.1357C128.861 81.0754 129 81.0383 129.097 81.0243C129.199 81.0104 129.35 80.9942 129.55 80.9757L130.106 80.927C130.25 80.913 130.35 80.9038 130.405 80.8991C130.466 80.8945 130.53 80.8829 130.6 80.8643C130.67 80.8412 130.721 80.811 130.753 80.7739C130.809 80.7183 130.837 80.6417 130.837 80.5443C130.837 80.3959 130.762 80.28 130.614 80.1965C130.503 80.1316 130.34 80.0991 130.127 80.0991C129.895 80.0991 129.719 80.1409 129.598 80.2243C129.468 80.3264 129.401 80.4539 129.397 80.607Z" fill="white"/>
<path d="M46.246 95.7466C35.1331 91.1653 22.347 96.3236 17.6964 107.286C13.0459 118.238 18.285 130.839 29.3978 135.421C37.9835 138.963 47.5385 136.667 53.5969 130.412L60.1515 130.62L57.7974 124.204C57.8435 124.088 57.9012 123.996 57.9589 123.881C62.6095 112.929 57.3704 100.328 46.2575 95.7466H46.246Z" fill="#01A6FF"/>
<path d="M51.4716 112.87C50.3528 107.769 46.3433 103.847 41.2164 102.811C33.4723 101.246 26.5772 106.364 25.2621 113.437C25.2513 113.495 25.292 113.55 25.3506 113.558C25.4007 113.564 25.4476 113.532 25.4606 113.483C26.921 108.018 31.9887 104.024 37.9627 104.198C44.6239 104.392 50.0036 109.843 50.1336 116.495C50.1354 116.592 50.1361 116.688 50.1356 116.784C50.1028 122.918 44.7234 127.359 38.5883 127.033C36.6278 126.929 34.9976 126.337 33.6637 125.479C33.6171 125.449 33.5993 125.363 33.638 125.336C34.7111 124.597 36.4052 123.743 37.2092 122.691C37.2422 122.649 37.2156 122.587 37.1627 122.579C36.6443 122.503 36.1324 122.391 35.6313 122.244C35.2948 122.145 34.9634 122.03 34.6369 121.9C34.5997 121.885 34.5918 121.828 34.6247 121.808C34.6369 121.801 34.6484 121.794 34.6606 121.786C35.9943 120.976 37.0431 119.765 37.744 118.315C37.7662 118.27 37.7346 118.217 37.6839 118.214C37.2937 118.191 36.9078 118.141 36.5291 118.065C36.1159 117.98 35.7108 117.865 35.3185 117.718C35.292 117.709 35.287 117.669 35.3106 117.655C35.375 117.617 35.4388 117.578 35.501 117.538C36.7833 116.713 37.6732 115.028 38.0597 113.272C38.0755 113.2 38.1764 113.197 38.1964 113.268C38.7119 115.137 40.4187 117.243 42.512 117.82C42.5857 117.841 42.5972 117.94 42.5306 117.977C42.1448 118.192 41.1991 118.652 40.4244 118.734C40.3699 118.74 40.3428 118.805 40.3764 118.848C41.3121 120.07 42.2097 121.024 44.1039 121.677C44.1683 121.699 44.1812 121.784 44.1246 121.822C43.7933 122.043 42.8882 122.567 41.7639 122.673C41.6958 122.68 41.6751 122.769 41.7345 122.804C42.4834 123.396 43.8522 124.186 45.3871 124.209C44.6777 123.923 43.9939 123.577 43.3489 123.153C44.2173 122.733 45.0278 122.213 45.7637 121.606C45.7967 121.579 45.7837 121.521 45.7444 121.513C44.0669 121.171 42.5463 120.317 41.3114 119.099C42.1569 118.78 42.9358 118.337 43.6245 117.794C43.6481 117.776 43.6396 117.736 43.611 117.73C41.0373 117.23 38.9739 115.132 38.3274 112.414C38.2888 112.253 38.2552 112.088 38.2272 111.922C38.2179 111.868 38.1707 111.827 38.1148 111.827C38.0597 111.827 38.0125 111.868 38.0031 111.922C37.5006 114.876 35.3464 117.2 32.6194 117.731C32.5908 117.737 32.5823 117.776 32.6051 117.794C33.2946 118.337 34.0742 118.78 34.9197 119.099C33.6847 120.318 32.1634 121.172 30.486 121.513C30.4466 121.522 30.4338 121.58 30.4667 121.607C31.2041 122.214 32.0166 122.736 32.8879 123.156C31.6859 123.942 30.3529 124.458 28.9748 124.826C28.9268 124.839 28.9124 124.93 28.9511 124.973C31.4368 127.665 34.6305 129.285 38.1155 129.285C38.4942 129.285 38.8694 129.266 39.2403 129.229C39.2431 129.229 39.246 129.229 39.2481 129.228C39.2495 129.228 39.2508 129.228 39.2522 129.228C47.2278 128.739 53.3151 121.276 51.4716 112.87Z" fill="white"/>
<path d="M37.9985 110.997C38.0285 111.119 38.2018 111.119 38.2318 110.997C38.6567 109.272 39.1247 108.804 40.8525 108.38C40.9746 108.35 40.9746 108.177 40.8525 108.147C39.1247 107.723 38.6567 107.256 38.2318 105.531C38.2018 105.409 38.0285 105.409 37.9985 105.531C37.5737 107.256 37.1057 107.723 35.3779 108.147C35.2558 108.177 35.2558 108.35 35.3779 108.38C37.1057 108.804 37.5737 109.272 37.9985 110.997Z" fill="white"/>
<path d="M26.308 115.216C25.691 115.065 25.5239 114.898 25.3722 114.282C25.3615 114.238 25.2996 114.238 25.2889 114.282C25.1371 114.898 24.97 115.065 24.353 115.216C24.3094 115.227 24.3094 115.289 24.353 115.3C24.97 115.451 25.1371 115.618 25.2889 116.234C25.2996 116.277 25.3615 116.277 25.3722 116.234C25.5239 115.618 25.691 115.451 26.308 115.3C26.3516 115.289 26.3516 115.227 26.308 115.216Z" fill="white"/>
<path d="M24.1933 95.3314C29.8016 91.0502 37.6603 89.8269 44.3419 92.1811" stroke="#01A6FF" stroke-width="0.695652" stroke-linecap="round" stroke-linejoin="round"/>
<path d="M47.3654 93.3696C48.404 93.6581 49.3848 94.1543 50.2272 94.8237" stroke="#01A6FF" stroke-width="0.695652" stroke-linecap="round" stroke-linejoin="round"/>
</g>
<defs>
<clipPath id="clip0_78_12381">
<rect width="160" height="160" rx="24" fill="white"/>
</clipPath>
</defs>
</svg>
