<svg width="160" height="160" viewBox="0 0 160 160" fill="none" xmlns="http://www.w3.org/2000/svg">
<g clip-path="url(#clip0_78_12104)">
<rect width="160" height="160" rx="24" fill="#FAFAFA"/>
<path d="M148.454 13.0786V38.4888H115.59L114.406 13.2572L148.454 13.0786Z" fill="#E0E0E0"/>
<path d="M114.406 13.2284V38.4888H147.269V13.2284L114.406 13.2284Z" fill="white"/>
<path d="M147.394 38.6133H114.281V13.1011H147.394V38.6133ZM114.53 38.3614H147.141V13.3529H114.53V38.3646V38.3614Z" fill="#E0E0E0"/>
<path d="M143.71 15.8237H117.966V35.1635H143.71V15.8237Z" fill="white"/>
<path d="M143.71 15.8238C143.71 15.8238 143.665 15.8238 143.585 15.8269C143.502 15.8269 143.381 15.8269 143.224 15.8301C142.902 15.8301 142.433 15.8333 141.823 15.8365C140.597 15.8397 138.809 15.8461 136.542 15.8525C132.016 15.8588 125.586 15.8684 117.969 15.8811L118.026 15.8238C118.026 21.6263 118.029 28.21 118.032 35.1604L117.969 35.0966C127.556 35.0998 136.443 35.1062 143.713 35.1094L143.658 35.1636C143.671 29.3195 143.681 24.4894 143.687 21.1194C143.694 19.4328 143.697 18.1129 143.7 17.2075C143.7 16.7579 143.703 16.4136 143.706 16.1777C143.706 15.9449 143.713 15.8206 143.713 15.8206C143.713 15.8206 143.716 15.9353 143.719 16.1649C143.719 16.3976 143.722 16.7388 143.725 17.1851C143.725 18.0842 143.732 19.401 143.738 21.0843C143.745 24.4639 143.754 29.3036 143.767 35.1604V35.2146H143.713C136.443 35.2178 127.556 35.2209 117.969 35.2273H117.905V35.1636C117.905 28.21 117.908 21.6231 117.911 15.8238V15.7632H117.969C125.605 15.7759 132.044 15.7855 136.581 15.7919C138.841 15.7983 140.626 15.8046 141.848 15.8078C142.455 15.8078 142.921 15.8142 143.24 15.8142C143.393 15.8142 143.512 15.8142 143.595 15.8174C143.674 15.8174 143.713 15.8206 143.713 15.8206L143.71 15.8238Z" fill="#E0E0E0"/>
<path d="M114.406 13.1677C114.406 13.1677 114.629 13.2857 114.962 13.5089C115.294 13.7321 115.75 14.0509 116.245 14.4143C116.74 14.7778 117.174 15.1221 117.484 15.3804C117.793 15.6386 117.975 15.8076 117.966 15.8203C117.953 15.8363 117.752 15.6896 117.429 15.4505C117.069 15.1827 116.641 14.8671 116.168 14.5164C115.696 14.1657 115.268 13.8468 114.91 13.579C114.591 13.3367 114.396 13.1773 114.409 13.1646L114.406 13.1677Z" fill="#E0E0E0"/>
<path d="M147.269 13.2286C147.292 13.2573 146.509 13.8631 145.529 14.5804C144.546 15.2978 143.732 15.8557 143.71 15.827C143.687 15.7983 144.466 15.1925 145.45 14.4752C146.433 13.7578 147.247 13.1999 147.266 13.2286H147.269Z" fill="#E0E0E0"/>
<path d="M143.579 35.1633C143.604 35.1377 144.447 35.8583 145.469 36.7765C146.487 37.6947 147.295 38.4599 147.269 38.4886C147.244 38.5141 146.401 37.7935 145.379 36.8753C144.361 35.9571 143.553 35.1919 143.579 35.1633Z" fill="#E0E0E0"/>
<path d="M114.406 38.4887C114.38 38.4632 115.15 37.7299 116.123 36.8531C117.097 35.9763 117.905 35.2877 117.927 35.3132C117.953 35.3387 117.183 36.072 116.21 36.9487C115.236 37.8255 114.428 38.5142 114.406 38.4887Z" fill="#E0E0E0"/>
<path d="M137.05 25.3182C136.693 26.9952 135.042 28.0664 133.366 27.7094C131.69 27.3523 130.614 25.704 130.972 24.0301C131.329 22.3531 132.98 21.2819 134.656 21.639C136.335 21.996 137.408 23.6444 137.05 25.3182Z" fill="#F5F5F5"/>
<path d="M132.999 27.6199C132.967 27.604 133.098 27.2852 133.267 26.7623C133.433 26.2426 133.634 25.4966 133.551 24.6772C133.465 23.861 133.043 23.1947 132.644 22.8472C132.242 22.4869 131.891 22.4136 131.907 22.3689C131.907 22.3466 132.287 22.3625 132.753 22.7132C133.216 23.0544 133.698 23.7654 133.794 24.6485C133.883 25.5285 133.64 26.3032 133.43 26.8197C133.213 27.3394 133.027 27.6327 132.999 27.6199Z" fill="#E0E0E0"/>
<path d="M137.012 24.2977C136.996 24.3678 136.172 24.0713 135.205 24.3583C134.234 24.6388 133.701 25.3339 133.653 25.2829C133.628 25.2669 133.724 25.0692 133.969 24.8174C134.212 24.5687 134.618 24.2786 135.138 24.1255C135.658 23.9725 136.156 23.998 136.495 24.0745C136.836 24.151 137.021 24.2658 137.012 24.2945V24.2977Z" fill="#E0E0E0"/>
<path d="M135.607 24.1385C135.569 24.1385 135.585 23.9217 135.473 23.6156C135.368 23.3159 135.097 22.9205 134.653 22.742C134.203 22.5698 133.737 22.6782 133.456 22.8281C133.168 22.9779 133.034 23.1469 133.002 23.1214C132.98 23.1087 133.066 22.8919 133.366 22.6814C133.654 22.4742 134.193 22.3084 134.739 22.5156C135.278 22.7324 135.563 23.2171 135.636 23.5646C135.716 23.9217 135.63 24.1416 135.607 24.1353V24.1385Z" fill="#E0E0E0"/>
<path d="M134.617 24.4667C134.547 24.4508 134.598 24.0268 134.474 23.5326C134.359 23.0352 134.123 22.6781 134.177 22.6335C134.222 22.5857 134.576 22.9141 134.71 23.4752C134.847 24.0331 134.678 24.4891 134.617 24.4667Z" fill="#E0E0E0"/>
<path d="M134.589 23.4944C134.586 23.5677 134.318 23.5805 134.062 23.7144C133.804 23.8547 133.59 24.0332 133.539 23.979C133.497 23.9408 133.625 23.6825 133.95 23.5008C134.298 23.3254 134.602 23.437 134.589 23.4944Z" fill="#E0E0E0"/>
<path d="M129.618 24.9484C130.614 25.7837 130.745 27.2694 129.905 28.2642C129.069 29.2589 127.581 29.3896 126.585 28.5511C125.589 27.7158 125.458 26.2301 126.298 25.2353C127.137 24.2406 128.622 24.1099 129.618 24.9484Z" fill="#F5F5F5"/>
<path d="M129.717 28.4776C129.694 28.4935 129.528 28.2927 129.238 27.9898C128.947 27.6933 128.52 27.2916 127.942 27.0556C127.364 26.8229 126.767 26.8643 126.39 27.011C126.007 27.1545 125.832 27.3585 125.806 27.3362C125.79 27.3298 125.937 27.0811 126.339 26.893C126.732 26.7049 127.38 26.6348 128.009 26.8898C128.631 27.1449 129.062 27.5849 129.334 27.9069C129.605 28.2353 129.733 28.468 129.717 28.4808V28.4776Z" fill="#E0E0E0"/>
<path d="M128.919 24.6103C128.96 24.6454 128.468 25.0886 128.315 25.841C128.156 26.5902 128.433 27.1928 128.382 27.2087C128.363 27.2183 128.264 27.0844 128.184 26.8325C128.104 26.5806 128.053 26.2044 128.136 25.8027C128.219 25.401 128.414 25.0758 128.587 24.8781C128.762 24.6773 128.903 24.5944 128.919 24.6103Z" fill="#E0E0E0"/>
<path d="M128.312 25.4935C128.296 25.519 128.159 25.4297 127.913 25.3978C127.677 25.3627 127.313 25.3978 127.035 25.6369C126.76 25.876 126.664 26.2268 126.668 26.4691C126.664 26.7146 126.732 26.8644 126.703 26.8772C126.687 26.8899 126.572 26.7528 126.537 26.4754C126.502 26.2108 126.581 25.79 126.917 25.4998C127.255 25.2161 127.683 25.2001 127.941 25.2735C128.21 25.3468 128.328 25.4839 128.312 25.4966V25.4935Z" fill="#E0E0E0"/>
<path d="M128.178 26.2716C128.143 26.313 127.875 26.1281 127.501 26.0325C127.128 25.9304 126.802 25.9623 126.793 25.9113C126.777 25.8667 127.125 25.7455 127.546 25.8539C127.971 25.9623 128.213 26.2365 128.178 26.2684V26.2716Z" fill="#E0E0E0"/>
<path d="M127.517 25.9429C127.565 25.9716 127.479 26.1533 127.479 26.3733C127.479 26.5965 127.523 26.8037 127.469 26.8165C127.427 26.8292 127.3 26.6539 127.297 26.3701C127.303 26.0768 127.485 25.911 127.52 25.9397L127.517 25.9429Z" fill="#E0E0E0"/>
<path d="M129.717 24.1388C128.884 23.5968 128.373 22.6307 128.041 21.6934C127.709 20.7561 127.696 19.7103 128.003 18.7666C128.919 19.1747 129.659 19.9654 130.007 20.9059C130.355 21.8464 130.151 23.2333 129.717 24.1388Z" fill="#EBEBEB"/>
<path d="M128.75 20.3032C129.117 21.5179 129.417 22.7518 129.644 24.0016L128.75 20.3032Z" fill="white"/>
<path d="M129.644 24.0017C129.625 24.0049 129.573 23.7977 129.494 23.4629C129.404 23.0771 129.299 22.6403 129.187 22.1557C129.066 21.6711 128.957 21.2343 128.865 20.8517C128.782 20.517 128.734 20.3097 128.753 20.3034C128.769 20.297 128.849 20.4979 128.954 20.8262C129.059 21.1546 129.194 21.6137 129.315 22.1238C129.439 22.6372 129.532 23.1026 129.586 23.4438C129.64 23.7849 129.663 23.9985 129.647 24.0017H129.644Z" fill="#E0E0E0"/>
<path d="M131.827 28.3631C132.801 28.1591 133.845 28.4811 134.745 28.9083C135.642 29.3356 136.393 30.0657 136.846 30.952C135.907 31.3123 134.825 31.2772 133.912 30.8563C132.999 30.4355 132.162 29.3101 131.827 28.3663" fill="#EBEBEB"/>
<path d="M135.23 30.3908C134.11 29.7914 133.024 29.1283 131.98 28.4077L135.23 30.3908Z" fill="white"/>
<path d="M131.977 28.4077C131.977 28.4077 132.172 28.5002 132.466 28.6819C132.801 28.8891 133.187 29.1283 133.609 29.3897C134.036 29.6479 134.423 29.8807 134.761 30.0847C135.055 30.2633 135.237 30.3749 135.227 30.3908C135.218 30.4067 135.023 30.3207 134.713 30.1644C134.407 30.0082 133.988 29.7755 133.538 29.5013C133.088 29.2271 132.692 28.9593 132.411 28.7584C132.13 28.5576 131.964 28.4205 131.974 28.4077H131.977Z" fill="#E0E0E0"/>
<path d="M130.885 28.8252C131.064 29.3927 130.933 30.0303 130.732 30.5883C130.531 31.1462 130.138 31.634 129.637 31.956C129.369 31.4204 129.324 30.7732 129.522 30.2089C129.72 29.6414 130.339 29.0803 130.885 28.8252Z" fill="#EBEBEB"/>
<path d="M129.876 30.9648C130.167 30.2634 130.499 29.5811 130.866 28.918L129.876 30.9648Z" fill="white"/>
<path d="M130.866 28.9179C130.898 28.937 130.672 29.393 130.4 29.9573C130.126 30.5216 129.909 30.9807 129.877 30.9679C129.845 30.9552 130.007 30.4706 130.285 29.8999C130.56 29.3324 130.838 28.902 130.869 28.9179H130.866Z" fill="#E0E0E0"/>
<path d="M46.1737 11.1304H19.6666V54.9494H46.1737V11.1304Z" fill="#E0E0E0"/>
<path d="M45.2893 11.1304H18.7822V54.9494H45.2893V11.1304Z" fill="#EBEBEB"/>
<path d="M44.1622 12.02H19.9122V54.06H44.1622V12.02Z" fill="#FAFAFA"/>
<path d="M39.4405 17.4814H24.5284V48.5954H39.4405V17.4814Z" fill="#EBEBEB"/>
<path d="M24.5286 37.5865C24.4935 34.6788 27.1113 31.8413 29.9941 31.4364C31.3669 31.2419 32.829 31.5161 34.1124 30.9901C36.4046 30.0527 37.1325 27.0112 39.4406 26.1089L39.546 48.5986H24.5286V37.5897V37.5865Z" fill="#E0E0E0"/>
<rect x="7.99976" y="19.8262" width="142.261" height="158.957" rx="10" fill="#FAAD14"/>
<rect x="10.7823" y="41.7393" width="136.696" height="137.151" rx="4" fill="#FAFAFA"/>
<path opacity="0.4" d="M138.791 61.5771C138.844 61.7757 139.145 61.7757 139.197 61.5771C139.936 58.7683 140.751 58.0075 143.757 57.3168C143.969 57.2681 143.969 56.9864 143.757 56.9376C140.751 56.2469 139.936 55.4861 139.197 52.6773C139.145 52.4787 138.844 52.4787 138.791 52.6773C138.052 55.4861 137.238 56.2469 134.232 56.9376C134.019 56.9864 134.019 57.2681 134.232 57.3168C137.238 58.0075 138.052 58.7683 138.791 61.5771Z" fill="#CDCDCD"/>
<path d="M15.7411 150.403C15.6889 150.205 15.3875 150.205 15.3353 150.403C14.5961 153.212 13.7818 153.973 10.7757 154.664C10.5632 154.712 10.5632 154.994 10.7757 155.043C13.7818 155.734 14.5961 156.494 15.3353 159.303C15.3875 159.502 15.6889 159.502 15.7411 159.303C16.4803 156.494 17.2946 155.734 20.3007 155.043C20.5131 154.994 20.5131 154.712 20.3007 154.664C17.2946 153.973 16.4803 153.212 15.7411 150.403Z" fill="#CDCDCD"/>
<path opacity="0.2" d="M100.237 130.943C100.289 131.142 100.591 131.142 100.643 130.943C101.382 128.135 102.196 127.374 105.202 126.683C105.415 126.634 105.415 126.353 105.202 126.304C102.196 125.613 101.382 124.852 100.643 122.043C100.591 121.845 100.289 121.845 100.237 122.043C99.4979 124.852 98.6836 125.613 95.6775 126.304C95.465 126.353 95.465 126.634 95.6775 126.683C98.6836 127.374 99.4979 128.135 100.237 130.943Z" fill="#CDCDCD"/>
<path opacity="0.2" d="M81.78 159.303C81.8322 159.501 82.1337 159.501 82.1859 159.303C82.925 156.494 83.7393 155.733 86.7454 155.042C86.9579 154.994 86.9579 154.712 86.7454 154.663C83.7393 153.973 82.925 153.212 82.1859 150.403C82.1337 150.204 81.8322 150.204 81.78 150.403C81.0408 153.212 80.2265 153.973 77.2204 154.663C77.008 154.712 77.008 154.994 77.2204 155.042C80.2265 155.733 81.0408 156.494 81.78 159.303Z" fill="#CDCDCD"/>
<path d="M91.6237 75.3735C91.6759 75.5721 91.9774 75.5721 92.0296 75.3735C92.7688 72.5647 93.5831 71.8039 96.5891 71.1132C96.8017 71.0644 96.8017 70.7827 96.5891 70.734C93.5831 70.0433 92.7688 69.2825 92.0296 66.4737C91.9774 66.2751 91.6759 66.2751 91.6237 66.4737C90.8846 69.2825 90.0703 70.0433 87.0642 70.734C86.8517 70.7827 86.8517 71.0644 87.0642 71.1132C90.0703 71.8039 90.8846 72.5647 91.6237 75.3735Z" fill="#CDCDCD"/>
<path opacity="0.8" d="M54.2953 81.0366C54.2431 80.8381 53.9417 80.8381 53.8895 81.0366C53.1503 83.8454 52.336 84.6063 49.3299 85.297C49.1174 85.3457 49.1174 85.6274 49.3299 85.6762C52.336 86.3668 53.1503 87.1277 53.8895 89.9365C53.9417 90.1351 54.2431 90.1351 54.2953 89.9365C55.0345 87.1277 55.8488 86.3668 58.8549 85.6762C59.0673 85.6274 59.0673 85.3457 58.8549 85.297C55.8488 84.6063 55.0345 83.8454 54.2953 81.0366Z" fill="#CDCDCD"/>
<path opacity="0.2" d="M131.083 75.0523C131.113 75.1681 131.289 75.1681 131.32 75.0523C131.751 73.4138 132.226 72.97 133.979 72.5671C134.103 72.5386 134.103 72.3743 133.979 72.3459C132.226 71.943 131.751 71.4992 131.32 69.8607C131.289 69.7449 131.113 69.7449 131.083 69.8607C130.652 71.4992 130.177 71.943 128.423 72.3459C128.299 72.3743 128.299 72.5386 128.423 72.5671C130.177 72.97 130.652 73.4138 131.083 75.0523Z" fill="#CDCDCD"/>
<path opacity="0.4" d="M23.4495 136.928C23.4191 136.812 23.2432 136.812 23.2128 136.928C22.7816 138.566 22.3066 139.01 20.553 139.413C20.4291 139.441 20.4291 139.606 20.553 139.634C22.3066 140.037 22.7816 140.481 23.2128 142.119C23.2432 142.235 23.4191 142.235 23.4495 142.119C23.8807 140.481 24.3557 140.037 26.1093 139.634C26.2332 139.606 26.2332 139.441 26.1093 139.413C24.3557 139.01 23.8807 138.566 23.4495 136.928Z" fill="#CDCDCD"/>
<path opacity="0.2" d="M84.9725 87.4897C84.942 87.3739 84.7662 87.3739 84.7357 87.4897C84.3045 89.1282 83.8295 89.572 82.076 89.9749C81.952 90.0033 81.952 90.1677 82.076 90.1961C83.8295 90.599 84.3045 91.0428 84.7357 92.6813C84.7662 92.7971 84.942 92.7971 84.9725 92.6813C85.4037 91.0428 85.8787 90.599 87.6322 90.1961C87.7561 90.1677 87.7561 90.0033 87.6322 89.9749C85.8787 89.572 85.4037 89.1282 84.9725 87.4897Z" fill="#CDCDCD"/>
<path opacity="0.4" d="M138.056 93.8311C138.086 93.9469 138.262 93.9469 138.292 93.8311C138.724 92.1926 139.199 91.7488 140.952 91.3459C141.076 91.3175 141.076 91.1531 140.952 91.1247C139.199 90.7218 138.724 90.278 138.292 88.6395C138.262 88.5237 138.086 88.5237 138.056 88.6395C137.624 90.278 137.149 90.7218 135.396 91.1247C135.272 91.1531 135.272 91.3175 135.396 91.3459C137.149 91.7488 137.624 92.1926 138.056 93.8311Z" fill="#CDCDCD"/>
<path opacity="0.4" d="M140.927 148.634C140.957 148.75 141.133 148.75 141.164 148.634C141.595 146.996 142.07 146.552 143.823 146.149C143.947 146.121 143.947 145.956 143.823 145.928C142.07 145.525 141.595 145.081 141.164 143.443C141.133 143.327 140.957 143.327 140.927 143.443C140.496 145.081 140.021 145.525 138.267 145.928C138.143 145.956 138.143 146.121 138.267 146.149C140.021 146.552 140.496 146.996 140.927 148.634Z" fill="#CDCDCD"/>
<path opacity="0.2" d="M16.4769 118.149C16.4464 118.033 16.2706 118.033 16.2401 118.149C15.8089 119.787 15.3339 120.231 13.5804 120.634C13.4564 120.663 13.4564 120.827 13.5804 120.855C15.3339 121.258 15.8089 121.702 16.2401 123.34C16.2706 123.456 16.4464 123.456 16.4769 123.34C16.908 121.702 17.383 121.258 19.1366 120.855C19.2605 120.827 19.2605 120.663 19.1366 120.634C17.383 120.231 16.908 119.787 16.4769 118.149Z" fill="#CDCDCD"/>
<path opacity="0.4" d="M115.087 88.4659C115.117 88.5817 115.293 88.5817 115.324 88.4659C115.755 86.8274 116.23 86.3836 117.983 85.9807C118.107 85.9522 118.107 85.7879 117.983 85.7595C116.23 85.3566 115.755 84.9127 115.324 83.2743C115.293 83.1584 115.117 83.1584 115.087 83.2743C114.656 84.9127 114.181 85.3566 112.427 85.7595C112.303 85.7879 112.303 85.9522 112.427 85.9807C114.181 86.3836 114.656 86.8274 115.087 88.4659Z" fill="#CDCDCD"/>
<path d="M39.4456 123.514C39.4152 123.398 39.2393 123.398 39.2089 123.514C38.7777 125.153 38.3027 125.596 36.5491 125.999C36.4252 126.028 36.4252 126.192 36.5491 126.221C38.3027 126.623 38.7777 127.067 39.2089 128.706C39.2393 128.822 39.4152 128.822 39.4456 128.706C39.8768 127.067 40.3518 126.623 42.1054 126.221C42.2293 126.192 42.2293 126.028 42.1054 125.999C40.3518 125.596 39.8768 125.153 39.4456 123.514Z" fill="#CDCDCD"/>
<path d="M80.8709 131.562C80.8405 131.447 80.6646 131.447 80.6342 131.562C80.203 133.201 79.728 133.645 77.9744 134.048C77.8505 134.076 77.8505 134.24 77.9744 134.269C79.728 134.672 80.203 135.116 80.6342 136.754C80.6646 136.87 80.8405 136.87 80.8709 136.754C81.3021 135.116 81.7771 134.672 83.5307 134.269C83.6546 134.24 83.6546 134.076 83.5307 134.048C81.7771 133.645 81.3021 133.201 80.8709 131.562Z" fill="#CDCDCD"/>
<path opacity="0.4" d="M32.473 65.645C32.4425 65.5291 32.2667 65.5291 32.2362 65.645C31.805 67.2835 31.33 67.7273 29.5765 68.1302C29.4525 68.1586 29.4525 68.3229 29.5765 68.3514C31.33 68.7543 31.805 69.1981 32.2362 70.8366C32.2667 70.9524 32.4425 70.9524 32.473 70.8366C32.9041 69.1981 33.3791 68.7543 35.1327 68.3514C35.2566 68.3229 35.2566 68.1586 35.1327 68.1302C33.3791 67.7273 32.9041 67.2835 32.473 65.645Z" fill="#CDCDCD"/>
<path d="M136.039 112.251C136.06 112.334 136.186 112.334 136.208 112.251C136.516 111.081 136.855 110.764 138.108 110.476C138.196 110.456 138.196 110.339 138.108 110.318C136.855 110.031 136.516 109.713 136.208 108.543C136.186 108.46 136.06 108.46 136.039 108.543C135.731 109.713 135.391 110.031 134.139 110.318C134.05 110.339 134.05 110.456 134.139 110.476C135.391 110.764 135.731 111.081 136.039 112.251Z" fill="#CDCDCD"/>
<path d="M18.4938 99.7286C18.4721 99.6458 18.3465 99.6458 18.3247 99.7286C18.0167 100.899 17.6774 101.216 16.4249 101.504C16.3363 101.524 16.3363 101.641 16.4249 101.662C17.6774 101.949 18.0167 102.267 18.3247 103.437C18.3465 103.52 18.4721 103.52 18.4938 103.437C18.8018 102.267 19.1411 101.949 20.3936 101.662C20.4822 101.641 20.4822 101.524 20.3936 101.504C19.1411 101.216 18.8018 100.899 18.4938 99.7286Z" fill="#CDCDCD"/>
<path d="M20.9548 48.7579C20.933 48.6751 20.8074 48.6751 20.7856 48.7579C20.4777 49.9282 20.1384 50.2452 18.8858 50.533C18.7973 50.5533 18.7973 50.6707 18.8858 50.691C20.1384 50.9788 20.4777 51.2958 20.7856 52.4661C20.8074 52.5489 20.933 52.5489 20.9548 52.4661C21.2627 51.2958 21.602 50.9788 22.8546 50.691C22.9431 50.6707 22.9431 50.5533 22.8546 50.533C21.602 50.2452 21.2627 49.9282 20.9548 48.7579Z" fill="#CDCDCD"/>
<path d="M138.259 125.023C138.237 124.94 138.111 124.94 138.09 125.023C137.782 126.193 137.442 126.51 136.19 126.798C136.101 126.818 136.101 126.935 136.19 126.956C137.442 127.243 137.782 127.56 138.09 128.731C138.111 128.814 138.237 128.814 138.259 128.731C138.567 127.56 138.906 127.243 140.158 126.956C140.247 126.935 140.247 126.818 140.158 126.798C138.906 126.51 138.567 126.193 138.259 125.023Z" fill="#CDCDCD"/>
<path d="M118.33 55.6904H38.8691C37.5725 55.6904 36.5213 56.7416 36.5213 58.0383V167.53C36.5213 168.827 37.5725 169.878 38.8691 169.878H118.33C119.627 169.878 120.678 168.827 120.678 167.53V58.0383C120.678 56.7416 119.627 55.6904 118.33 55.6904Z" fill="#FAAD14"/>
<path d="M43.109 58.8105H39.3977V166.978L117.21 167.59L119.359 165.11L117.474 63.0749L43.109 58.8105Z" fill="#EBEBEB"/>
<path d="M119.359 165.11H42.4203V58.8105H39.3977V167.59H117.21L119.359 165.11Z" fill="#E0E0E0"/>
<path d="M125.913 311.652H49.9962C42.6015 269.596 41.2921 162.615 42.4626 58.7827H117.837C117.222 162.555 118.705 255.737 125.909 311.652H125.913Z" fill="white" stroke="#263238" stroke-width="0.347826" stroke-miterlimit="10"/>
<path d="M49.7474 79.8276C49.8305 81.7006 50.5086 83.4306 51.5956 84.8345C53.2377 86.9637 55.8106 88.3477 58.6427 88.3477C61.4748 88.3477 63.9214 86.9637 65.3707 84.8345C66.3314 83.4306 66.8566 81.7006 66.7735 79.8276C66.5641 75.1201 62.5818 71.3042 57.8815 71.3042C53.1812 71.3042 49.5347 75.1201 49.7474 79.8276Z" fill="#EBEBEB"/>
<path d="M54.5535 76.9974C54.6398 78.8969 56.2471 80.4377 58.1465 80.4377C60.046 80.4377 61.5171 78.8969 61.4341 76.9974C61.3478 75.098 59.7405 73.5571 57.841 73.5571C55.9416 73.5571 54.4705 75.098 54.5535 76.9974Z" fill="#FAAD14"/>
<path d="M51.465 84.8409C53.1055 86.9662 55.6757 88.3476 58.505 88.3476C61.3343 88.3476 63.7783 86.9662 65.2262 84.8409C63.6123 83.2336 61.0587 82.1909 58.2294 82.1909C55.4001 82.1909 52.9361 83.2336 51.465 84.8409Z" fill="#FAAD14"/>
<path opacity="0.1" d="M54.5535 76.9974C54.6398 78.8969 56.2471 80.4377 58.1465 80.4377C60.046 80.4377 61.5171 78.8969 61.4341 76.9974C61.3478 75.098 59.7405 73.5571 57.841 73.5571C55.9416 73.5571 54.4705 75.098 54.5535 76.9974Z" fill="#EBEBEB"/>
<path opacity="0.1" d="M51.465 84.8409C53.1055 86.9662 55.6757 88.3476 58.505 88.3476C61.3343 88.3476 63.7783 86.9662 65.2262 84.8409C63.6123 83.2336 61.0587 82.1909 58.2294 82.1909C55.4001 82.1909 52.9361 83.2336 51.465 84.8409Z" fill="#EBEBEB"/>
<path d="M70.0723 82.7097H110.319C110.657 82.7097 110.657 82.188 110.319 82.188H70.0723C69.7349 82.188 69.7349 82.7097 70.0723 82.7097Z" fill="#263238"/>
<path d="M52.6637 93.593H110.319C110.657 93.593 110.657 93.0713 110.319 93.0713H52.6637C52.3263 93.0713 52.3263 93.593 52.6637 93.593Z" fill="#263238"/>
<path d="M52.6637 103.106H80.6637C81.0011 103.106 81.0011 102.584 80.6637 102.584H52.6637C52.3263 102.584 52.3263 103.106 52.6637 103.106Z" fill="#263238"/>
<path d="M53.7805 112.616H92.824C93.1614 112.616 93.1614 112.094 92.824 112.094H53.7805C53.4431 112.094 53.4431 112.616 53.7805 112.616Z" fill="#263238"/>
<path d="M54.9004 122.125H74.7857C75.1231 122.125 75.1231 121.604 74.7857 121.604H54.9004C54.5631 121.604 54.5631 122.125 54.9004 122.125Z" fill="#263238"/>
<path d="M78.2464 122.125H111.005C111.342 122.125 111.342 121.604 111.005 121.604H78.2464C77.909 121.604 77.909 122.125 78.2464 122.125Z" fill="#263238"/>
<path d="M56.0168 131.635H79.7211C80.0585 131.635 80.0585 131.113 79.7211 131.113H56.0168C55.6794 131.113 55.6794 131.635 56.0168 131.635Z" fill="#FAAD14"/>
<path d="M57.1366 141.148H94.7366C95.074 141.148 95.074 140.626 94.7366 140.626H57.1366C56.7993 140.626 56.7993 141.148 57.1366 141.148Z" fill="#263238"/>
<path d="M59.0606 151.701H84.4971C84.8345 151.701 84.8345 151.179 84.4971 151.179H59.0606C58.7232 151.179 58.7232 151.701 59.0606 151.701Z" fill="#263238"/>
<path d="M77.9714 107.919C75.6337 107.507 73.2331 107.565 70.9198 108.108C68.8611 108.593 66.649 109.429 65.1591 110.969C63.8262 112.348 63.1353 114.534 64.1088 116.302C65.0056 117.925 66.9665 118.533 68.7041 118.767C71.0872 119.09 73.5332 118.99 75.8919 118.54C77.9191 118.155 80.3057 117.581 81.7781 116.047C82.9924 114.782 83.3343 112.932 83.0203 111.258C82.7063 109.583 81.6141 108.211 80.0963 107.321C78.2087 106.217 75.9581 105.942 73.8018 106.152C71.1186 106.413 68.4878 107.207 66.0733 108.383C65.7697 108.531 66.0349 108.975 66.3384 108.83C68.3203 107.864 70.4417 107.183 72.6225 106.829C74.545 106.516 76.5408 106.478 78.4006 107.118C79.8626 107.62 81.3141 108.552 82.0259 109.944C82.7377 111.337 82.8388 113.224 82.1201 114.672C81.2652 116.401 79.3392 117.13 77.5736 117.622C75.4278 118.22 73.1912 118.492 70.9616 118.433C69.1647 118.385 67.0781 118.244 65.5708 117.165C63.9239 115.985 63.8437 113.816 64.8555 112.193C66.0314 110.305 68.3691 109.339 70.4417 108.768C72.8423 108.108 75.3755 107.991 77.8284 108.421C78.1563 108.48 78.2994 107.981 77.9679 107.923L77.9714 107.919Z" fill="#FAAD14"/>
<path d="M85.6901 145.701C81.9718 145.141 78.0727 145.739 74.7405 147.51C73.3701 148.24 71.8814 149.708 72.6675 151.395C73.4536 153.082 75.5371 153.294 77.0988 153.652C81.0675 154.567 85.1718 155.325 89.2449 154.678C90.8727 154.421 92.8101 154.004 94.0901 152.887C95.3701 151.77 95.1753 150.247 94.1214 149.117C92.824 147.729 90.7579 147.078 88.9318 146.786C86.904 146.459 84.8414 146.529 82.7962 146.616C82.4623 146.63 82.4588 147.151 82.7962 147.137C85.9579 146.998 89.3875 146.859 92.264 148.4C93.4605 149.04 95.1544 150.438 94.2153 151.955C93.4188 153.242 91.4884 153.677 90.1249 153.983C86.5805 154.769 82.9075 154.341 79.391 153.621C78.4797 153.433 77.5718 153.228 76.664 153.016C75.8153 152.817 74.904 152.664 74.1423 152.212C73.4849 151.826 72.9423 151.158 72.9875 150.358C73.0431 149.447 73.7284 148.741 74.4553 148.278C76.0205 147.28 77.9023 146.671 79.7145 146.32C81.6345 145.948 83.6205 145.91 85.5579 146.202C85.8849 146.25 86.0275 145.75 85.6971 145.697L85.6901 145.701Z" fill="#FAAD14"/>
<path d="M99.3004 147.993H115.175C115.513 147.993 115.513 147.471 115.175 147.471H99.3004C98.963 147.471 98.963 147.993 99.3004 147.993Z" fill="#FAAD14"/>
<path d="M100.413 149.346H114.511C114.848 149.346 114.848 148.825 114.511 148.825H100.413C100.076 148.825 100.076 149.346 100.413 149.346Z" fill="#FAAD14"/>
<path d="M45.7526 54.0767H65.0848" stroke="#FAAD14" stroke-width="0.26087" stroke-linejoin="round"/>
<path d="M79.1745 85.2566C89.1846 82.9192 98.5691 80.3488 108.568 78.0114C109.448 77.8062 108.208 77.4375 107.34 77.6427C97.3294 79.9801 87.9449 82.5506 77.9464 84.8879C77.0659 85.0932 78.3056 85.4619 79.1745 85.2566Z" fill="#FAAD14"/>
<path d="M76.6602 78.0878C76.3705 78.0808 76.498 78.0739 76.7992 78.1295C77.1236 78.1921 77.4364 78.2582 77.7377 78.3313C78.6066 78.5295 79.4408 78.7452 80.2749 78.9608C82.8702 79.6321 85.4074 80.3243 87.9215 81.02C93.2626 82.4947 98.5225 83.9904 103.771 85.4965C104.964 85.8373 106.158 86.1817 107.339 86.526C108.15 86.7591 109.378 86.3904 108.567 86.1573C99.7043 83.5904 90.8412 80.9991 81.503 78.5921C80.5298 78.3417 79.545 78.0913 78.5139 77.8582C77.9694 77.7365 77.3669 77.58 76.6602 77.566C75.5479 77.5452 75.5479 78.0669 76.6602 78.0878Z" fill="#FAAD14"/>
<path d="M83.7283 131.635H112.605C112.942 131.635 112.942 131.113 112.605 131.113H83.7283C83.3909 131.113 83.3909 131.635 83.7283 131.635Z" fill="#263238"/>
<path d="M99.3005 141.148H114.507C114.845 141.148 114.845 140.626 114.507 140.626H99.3005C98.9631 140.626 98.9631 141.148 99.3005 141.148Z" fill="#263238"/>
<path d="M98.0033 112.616H111.005C111.342 112.616 111.342 112.094 111.005 112.094H98.0033C97.6659 112.094 97.6659 112.616 98.0033 112.616Z" fill="#263238"/>
<path d="M84.0169 103.106H95.3282C95.6656 103.106 95.6656 102.584 95.3282 102.584H84.0169C83.6795 102.584 83.6795 103.106 84.0169 103.106Z" fill="#FAAD14"/>
<path d="M99.3005 103.047H111.005C111.342 103.047 111.342 102.525 111.005 102.525H99.3005C98.9631 102.525 98.9631 103.047 99.3005 103.047Z" fill="#263238"/>
<path d="M111.301 114.072C113.581 116.132 114.86 119.162 114.657 122.235C114.454 125.309 112.801 128.087 110.317 129.784C109.832 130.116 110.293 130.915 110.784 130.583C113.489 128.732 115.265 125.739 115.56 122.469C115.856 119.199 114.454 115.677 111.952 113.421C111.51 113.027 110.858 113.673 111.301 114.072Z" fill="#FAAD14"/>
<path d="M116.046 128.161C115.167 128.53 114.288 128.905 113.415 129.273C112.979 129.458 112.536 129.642 112.1 129.833C111.762 129.974 111.387 130.183 111.012 130.208C110.686 130.232 110.655 129.993 110.686 129.716C110.723 129.298 110.846 128.88 110.926 128.468C111.116 127.522 111.307 126.575 111.497 125.628C111.614 125.05 110.723 124.798 110.606 125.382C110.379 126.501 110.157 127.62 109.93 128.745C109.764 129.556 109.506 130.767 110.582 131.081C110.993 131.197 111.442 131.093 111.829 130.939C112.333 130.736 112.831 130.515 113.329 130.306C114.386 129.857 115.45 129.409 116.507 128.96C116.741 128.862 116.784 128.523 116.673 128.327C116.538 128.087 116.267 128.062 116.04 128.161H116.046Z" fill="#FAAD14"/>
<path d="M44.6604 54.0767H41.6517" stroke="#FAAD14" stroke-width="0.26087" stroke-linejoin="round"/>
<path d="M42.4642 99.8057C32.7409 95.7972 21.5535 100.311 17.4844 109.903C13.4153 119.485 17.9993 130.511 27.7227 134.519C35.2348 137.619 43.5951 135.609 48.896 130.137L54.631 130.319L52.5713 124.705C52.6116 124.604 52.6621 124.523 52.7126 124.422C56.7817 114.84 52.1977 103.814 42.4743 99.8057H42.4642Z" fill="#FAAD14"/>
<path d="M23.1691 99.4422C28.0762 95.6962 34.9522 94.626 40.7983 96.6857" stroke="#FAAD14" stroke-width="0.296784" stroke-linecap="round" stroke-linejoin="round"/>
<path d="M43.4436 97.7256C44.3523 97.978 45.2106 98.4122 45.9476 98.9978" stroke="#FAAD14" stroke-width="0.296784" stroke-linecap="round" stroke-linejoin="round"/>
<path d="M35.6993 126.148C36.4162 126.148 37.0119 125.916 37.4966 125.462C37.9812 125.007 38.2134 124.452 38.2134 123.796C38.2134 123.139 37.9812 122.594 37.5067 122.15C37.0321 121.706 36.4263 121.494 35.6993 121.494C34.9723 121.494 34.3564 121.716 33.8919 122.15C33.4174 122.594 33.1852 123.139 33.1852 123.796C33.1852 124.452 33.4275 125.007 33.9122 125.462C34.3968 125.916 34.9925 126.148 35.7094 126.148H35.6993ZM34.0737 119.656H37.3249L38.1428 107.833H33.2559L34.0737 119.656Z" fill="white"/>
<path d="M79.9997 174.739C133.403 174.739 176.695 168.043 176.695 159.783C176.695 151.522 133.403 144.826 79.9997 144.826C26.5962 144.826 -16.6959 151.522 -16.6959 159.783C-16.6959 168.043 26.5962 174.739 79.9997 174.739Z" fill="#F5F5F5"/>
<circle cx="19.13" cy="31.3043" r="4.17391" fill="#FF4747"/>
<circle cx="29.9128" cy="31.3043" r="4.17391" fill="#E69900"/>
<circle cx="40.6952" cy="31.3043" r="4.17391" fill="#52C41A"/>
<path d="M140.201 43.9936C138.473 46.4551 135.358 47.2466 133.238 45.7619C131.119 44.2772 130.798 41.0756 132.526 38.6141C134.254 36.1525 137.369 35.361 139.488 36.8458C141.607 38.3305 141.929 41.5321 140.201 43.9936Z" fill="#FAAD14"/>
<path opacity="0.4" d="M140.201 43.9936C138.473 46.4551 135.358 47.2466 133.238 45.7619C131.119 44.2772 130.798 41.0756 132.526 38.6141C134.254 36.1525 137.369 35.361 139.488 36.8458C141.607 38.3305 141.929 41.5321 140.201 43.9936Z" fill="black"/>
<path d="M92.8998 111.489L83.7961 116.863L85.2293 106.112L132.317 38.9363L139.988 44.3168L92.8998 111.489Z" fill="#FAAD14"/>
<path d="M84.1693 114.022C85.2147 113.973 85.895 114.442 86.2054 115.439L92.8988 111.485C92.8988 111.485 93.4491 109.293 91.0858 110.041C91.0858 110.041 91.2332 107.769 88.8992 108.506C88.8992 108.506 88.8483 106.582 86.9927 107.17C86.9927 107.17 86.8783 105.587 85.2317 106.107L84.1717 114.018L84.1693 114.022Z" fill="#EF8274"/>
<path opacity="0.3" d="M88.8787 108.483L135.505 41.035L133.718 39.7817C133.376 39.6643 86.9679 107.144 86.9679 107.144C88.8268 106.556 88.8744 108.48 88.8744 108.48L88.8787 108.483Z" fill="white"/>
<path opacity="0.3" d="M91.0972 110.017C92.4023 109.606 92.8154 110.085 92.9287 110.602L139.228 43.6277L137.441 42.3745C137.116 42.2635 95.0296 103.432 91.0022 109.286C91.115 109.666 91.0939 110.017 91.0939 110.017L91.0972 110.017Z" fill="white"/>
<path d="M140.774 43.6165L132.648 37.9204L131.73 39.2306L139.856 44.9267L140.774 43.6165Z" fill="#263238"/>
<rect x="73.913" y="124.174" width="56" height="16" rx="8" fill="#F0A30A"/>
<path d="M83.38 131.419H82.1696V131.656C82.1696 131.994 82.1371 132.293 82.0722 132.553C82.0119 132.817 81.8913 133.098 81.7104 133.395H83.38V131.419ZM80.0617 133.395H80.5557C80.7829 133.084 80.9452 132.732 81.0426 132.337C81.1168 132.04 81.1539 131.663 81.1539 131.203V130.64H84.5626V133.395H85.1539L85.0844 135.092H84.1452V134.174H81.0704V135.092H80.1313L80.0617 133.395ZM88.543 131.565C88.3668 131.389 88.1164 131.301 87.7917 131.301C87.4671 131.301 87.2167 131.389 87.0404 131.565C86.8457 131.76 86.7483 132.04 86.7483 132.407C86.7483 132.773 86.8457 133.054 87.0404 133.249C87.2167 133.425 87.4671 133.513 87.7917 133.513C88.1164 133.513 88.3668 133.425 88.543 133.249C88.7378 133.054 88.8352 132.773 88.8352 132.407C88.8352 132.04 88.7378 131.76 88.543 131.565ZM89.4891 130.974C89.8972 131.303 90.1013 131.781 90.1013 132.407C90.1013 133.033 89.8972 133.511 89.4891 133.84C89.1042 134.151 88.5384 134.306 87.7917 134.306C87.0451 134.306 86.4793 134.151 86.0943 133.84C85.6862 133.511 85.4822 133.033 85.4822 132.407C85.4822 131.781 85.6862 131.303 86.0943 130.974C86.4886 130.663 87.0543 130.508 87.7917 130.508C88.5291 130.508 89.0949 130.663 89.4891 130.974ZM92.969 131.308C92.6908 131.308 92.4635 131.398 92.2873 131.579C92.0879 131.802 91.9882 132.082 91.9882 132.421C91.9882 132.773 92.0809 133.045 92.2664 133.235C92.4473 133.416 92.6884 133.506 92.9899 133.506C93.296 133.506 93.5302 133.411 93.6925 133.221C93.8641 133.026 93.9499 132.752 93.9499 132.4C93.9499 132.066 93.8641 131.799 93.6925 131.6C93.5116 131.405 93.2705 131.308 92.969 131.308ZM90.7986 130.64H91.9673V131.085H91.9882C92.1134 130.918 92.2664 130.788 92.4473 130.696C92.6745 130.584 92.9667 130.529 93.3238 130.529C93.9128 130.529 94.3719 130.677 94.7012 130.974C95.0444 131.303 95.216 131.772 95.216 132.379C95.216 133.014 95.0444 133.499 94.7012 133.833C94.5111 134.023 94.3024 134.146 94.0751 134.202C93.8525 134.257 93.5974 134.285 93.3099 134.285C92.9482 134.285 92.6768 134.246 92.496 134.167C92.3105 134.093 92.1528 133.97 92.0229 133.798V135.461H90.7986V130.64ZM98.6689 132.602V132.546C98.6039 132.602 98.5297 132.641 98.4463 132.664C98.3674 132.683 98.2306 132.701 98.0358 132.72L97.7784 132.748C97.5419 132.771 97.3773 132.813 97.2845 132.873C97.1732 132.961 97.1176 133.061 97.1176 133.172C97.1176 133.297 97.1663 133.397 97.2636 133.471C97.3564 133.545 97.5118 133.583 97.7297 133.583C98.0265 133.583 98.2561 133.501 98.4184 133.339C98.5854 133.172 98.6689 132.926 98.6689 132.602ZM97.2219 131.781H95.9836C95.9836 131.456 96.0973 131.18 96.3245 130.953C96.5054 130.777 96.7234 130.658 96.9784 130.598C97.2381 130.538 97.5558 130.508 97.9315 130.508C98.7523 130.508 99.3112 130.663 99.608 130.974C99.6961 131.067 99.7634 131.176 99.8097 131.301C99.8607 131.426 99.8886 131.53 99.8932 131.614C99.9025 131.697 99.9071 131.806 99.9071 131.941V133.513C99.9071 133.685 99.9257 133.826 99.9628 133.937C100.009 134.016 100.074 134.063 100.158 134.076V134.174H98.8219L98.7454 133.826H98.7176C98.5831 133.998 98.3999 134.123 98.168 134.202C97.9547 134.271 97.6741 134.306 97.3263 134.306C96.8115 134.306 96.4451 134.232 96.2271 134.083C95.9535 133.889 95.8167 133.608 95.8167 133.242C95.8167 132.949 95.9048 132.718 96.081 132.546C96.1831 132.449 96.3245 132.37 96.5054 132.309C96.6863 132.249 96.8254 132.212 96.9228 132.198C97.0248 132.184 97.1755 132.168 97.3749 132.149L97.9315 132.101C98.0752 132.087 98.1749 132.078 98.2306 132.073C98.2909 132.068 98.3558 132.057 98.4254 132.038C98.4949 132.015 98.546 131.985 98.5784 131.948C98.6341 131.892 98.6619 131.816 98.6619 131.718C98.6619 131.57 98.5877 131.454 98.4393 131.37C98.328 131.305 98.1657 131.273 97.9523 131.273C97.7205 131.273 97.5442 131.315 97.4236 131.398C97.2938 131.5 97.2265 131.628 97.2219 131.781ZM103.045 131.391C102.738 131.391 102.5 131.477 102.328 131.649C102.133 131.843 102.036 132.11 102.036 132.449C102.036 132.783 102.133 133.054 102.328 133.263C102.5 133.439 102.738 133.527 103.045 133.527C103.351 133.527 103.589 133.439 103.761 133.263C103.961 133.063 104.06 132.792 104.06 132.449C104.06 132.11 103.963 131.843 103.768 131.649C103.596 131.477 103.355 131.391 103.045 131.391ZM104.151 129.005H105.055C105.064 129.307 104.976 129.552 104.791 129.743C104.703 129.831 104.582 129.905 104.429 129.965C104.281 130.021 104.151 130.058 104.039 130.076C103.928 130.095 103.766 130.116 103.552 130.139L103.058 130.195C102.516 130.264 102.131 130.389 101.904 130.57C101.612 130.816 101.458 131.132 101.445 131.516H101.5C101.625 131.247 101.811 131.046 102.057 130.911C102.33 130.758 102.692 130.682 103.142 130.682C103.796 130.682 104.304 130.805 104.665 131.05C105.106 131.356 105.326 131.823 105.326 132.449C105.326 133.01 105.159 133.457 104.825 133.791C104.705 133.912 104.573 134.009 104.429 134.083C104.29 134.158 104.137 134.209 103.97 134.236C103.807 134.269 103.668 134.287 103.552 134.292C103.436 134.301 103.29 134.306 103.114 134.306C102.859 134.306 102.65 134.299 102.488 134.285C102.326 134.271 102.124 134.223 101.883 134.139C101.646 134.051 101.445 133.923 101.278 133.756C100.874 133.362 100.672 132.764 100.672 131.962C100.672 131.08 100.893 130.42 101.333 129.979C101.63 129.692 102.024 129.499 102.516 129.402C102.743 129.36 103.04 129.323 103.406 129.29C103.62 129.276 103.77 129.26 103.858 129.242C103.947 129.223 104.018 129.191 104.074 129.144C104.116 129.107 104.141 129.061 104.151 129.005ZM108.917 131.565C108.74 131.389 108.49 131.301 108.165 131.301C107.841 131.301 107.59 131.389 107.414 131.565C107.219 131.76 107.122 132.04 107.122 132.407C107.122 132.773 107.219 133.054 107.414 133.249C107.59 133.425 107.841 133.513 108.165 133.513C108.49 133.513 108.74 133.425 108.917 133.249C109.111 133.054 109.209 132.773 109.209 132.407C109.209 132.04 109.111 131.76 108.917 131.565ZM109.863 130.974C110.271 131.303 110.475 131.781 110.475 132.407C110.475 133.033 110.271 133.511 109.863 133.84C109.478 134.151 108.912 134.306 108.165 134.306C107.419 134.306 106.853 134.151 106.468 133.84C106.06 133.511 105.856 133.033 105.856 132.407C105.856 131.781 106.06 131.303 106.468 130.974C106.862 130.663 107.428 130.508 108.165 130.508C108.903 130.508 109.469 130.663 109.863 130.974ZM111.962 131.461H110.668V130.64H114.481V131.461H113.187V134.174H111.962V131.461ZM116.126 132.184L117.483 130.64H118.874L117.239 132.289L118.978 134.174H117.518L116.126 132.532V134.174H114.902V130.64H116.126V132.184ZM122.018 132.602V132.546C121.953 132.602 121.879 132.641 121.795 132.664C121.717 132.683 121.58 132.701 121.385 132.72L121.128 132.748C120.891 132.771 120.726 132.813 120.634 132.873C120.522 132.961 120.467 133.061 120.467 133.172C120.467 133.297 120.515 133.397 120.613 133.471C120.706 133.545 120.861 133.583 121.079 133.583C121.376 133.583 121.605 133.501 121.768 133.339C121.935 133.172 122.018 132.926 122.018 132.602ZM120.571 131.781H119.333C119.333 131.456 119.446 131.18 119.674 130.953C119.855 130.777 120.073 130.658 120.328 130.598C120.587 130.538 120.905 130.508 121.281 130.508C122.102 130.508 122.66 130.663 122.957 130.974C123.045 131.067 123.113 131.176 123.159 131.301C123.21 131.426 123.238 131.53 123.242 131.614C123.252 131.697 123.256 131.806 123.256 131.941V133.513C123.256 133.685 123.275 133.826 123.312 133.937C123.358 134.016 123.423 134.063 123.507 134.076V134.174H122.171L122.095 133.826H122.067C121.932 133.998 121.749 134.123 121.517 134.202C121.304 134.271 121.023 134.306 120.675 134.306C120.161 134.306 119.794 134.232 119.576 134.083C119.303 133.889 119.166 133.608 119.166 133.242C119.166 132.949 119.254 132.718 119.43 132.546C119.532 132.449 119.674 132.37 119.855 132.309C120.035 132.249 120.175 132.212 120.272 132.198C120.374 132.184 120.525 132.168 120.724 132.149L121.281 132.101C121.424 132.087 121.524 132.078 121.58 132.073C121.64 132.068 121.705 132.057 121.775 132.038C121.844 132.015 121.895 131.985 121.928 131.948C121.983 131.892 122.011 131.816 122.011 131.718C122.011 131.57 121.937 131.454 121.788 131.37C121.677 131.305 121.515 131.273 121.302 131.273C121.07 131.273 120.893 131.315 120.773 131.398C120.643 131.5 120.576 131.628 120.571 131.781Z" fill="white"/>
</g>
<defs>
<clipPath id="clip0_78_12104">
<rect width="160" height="160" rx="24" fill="white"/>
</clipPath>
</defs>
</svg>
