<svg width="160" height="160" viewBox="0 0 160 160" fill="none" xmlns="http://www.w3.org/2000/svg">
<g clip-path="url(#clip0_78_11964)">
<rect width="160" height="160" rx="24" fill="#FAFAFA"/>
<path d="M148.454 13.0784V38.4885H115.59L114.406 13.2569L148.454 13.0784Z" fill="#E0E0E0"/>
<path d="M114.406 13.2282V38.4885H147.269V13.2282L114.406 13.2282Z" fill="white"/>
<path d="M147.394 38.6128H114.281V13.1006H147.394V38.6128ZM114.53 38.3609H147.141V13.3525H114.53V38.3641V38.3609Z" fill="#E0E0E0"/>
<path d="M143.71 15.8235H117.966V35.1633H143.71V15.8235Z" fill="white"/>
<path d="M143.71 15.8235C143.71 15.8235 143.665 15.8235 143.585 15.8267C143.502 15.8267 143.381 15.8267 143.224 15.8299C142.902 15.8299 142.433 15.8331 141.823 15.8363C140.597 15.8395 138.809 15.8458 136.542 15.8522C132.016 15.8586 125.586 15.8682 117.969 15.8809L118.026 15.8235C118.026 21.6261 118.029 28.2098 118.032 35.1601L117.969 35.0964C127.556 35.0995 136.443 35.1059 143.713 35.1091L143.658 35.1633C143.671 29.3193 143.681 24.4891 143.687 21.1192C143.694 19.4326 143.697 18.1127 143.7 17.2072C143.7 16.7577 143.703 16.4133 143.706 16.1774C143.706 15.9447 143.713 15.8203 143.713 15.8203C143.713 15.8203 143.716 15.9351 143.719 16.1647C143.719 16.3974 143.722 16.7385 143.725 17.1849C143.725 18.084 143.732 19.4007 143.738 21.0841C143.745 24.4636 143.754 29.3033 143.767 35.1601V35.2143H143.713C136.443 35.2175 127.556 35.2207 117.969 35.2271H117.905V35.1633C117.905 28.2098 117.908 21.6229 117.911 15.8235V15.7629H117.969C125.605 15.7757 132.044 15.7853 136.581 15.7916C138.841 15.798 140.626 15.8044 141.848 15.8076C142.455 15.8076 142.921 15.814 143.24 15.814C143.393 15.814 143.512 15.814 143.595 15.8171C143.674 15.8171 143.713 15.8203 143.713 15.8203L143.71 15.8235Z" fill="#E0E0E0"/>
<path d="M114.406 13.1677C114.406 13.1677 114.629 13.2857 114.962 13.5089C115.294 13.7321 115.75 14.0509 116.245 14.4143C116.74 14.7778 117.174 15.1221 117.484 15.3804C117.793 15.6386 117.975 15.8076 117.966 15.8203C117.953 15.8363 117.752 15.6896 117.429 15.4505C117.069 15.1827 116.641 14.8671 116.168 14.5164C115.696 14.1657 115.268 13.8468 114.91 13.579C114.591 13.3367 114.396 13.1773 114.409 13.1646L114.406 13.1677Z" fill="#E0E0E0"/>
<path d="M147.269 13.2284C147.292 13.257 146.509 13.8628 145.529 14.5802C144.546 15.2975 143.732 15.8555 143.71 15.8268C143.687 15.7981 144.466 15.1923 145.45 14.475C146.433 13.7576 147.247 13.1997 147.266 13.2284H147.269Z" fill="#E0E0E0"/>
<path d="M143.579 35.1633C143.604 35.1377 144.447 35.8583 145.469 36.7765C146.487 37.6947 147.295 38.4599 147.269 38.4886C147.244 38.5141 146.401 37.7935 145.379 36.8753C144.361 35.9571 143.553 35.1919 143.579 35.1633Z" fill="#E0E0E0"/>
<path d="M114.406 38.4884C114.38 38.4629 115.15 37.7296 116.123 36.8529C117.097 35.9761 117.905 35.2874 117.927 35.3129C117.953 35.3384 117.183 36.0717 116.21 36.9485C115.236 37.8253 114.428 38.5139 114.406 38.4884Z" fill="#E0E0E0"/>
<path d="M137.05 25.3182C136.693 26.9952 135.042 28.0664 133.366 27.7094C131.69 27.3523 130.614 25.704 130.972 24.0301C131.329 22.3531 132.98 21.2819 134.656 21.639C136.335 21.996 137.408 23.6444 137.05 25.3182Z" fill="#F5F5F5"/>
<path d="M132.999 27.6202C132.967 27.6042 133.098 27.2854 133.267 26.7625C133.433 26.2429 133.634 25.4968 133.551 24.6774C133.465 23.8613 133.043 23.1949 132.644 22.8474C132.242 22.4871 131.891 22.4138 131.907 22.3692C131.907 22.3468 132.287 22.3628 132.753 22.7135C133.216 23.0546 133.698 23.7656 133.794 24.6487C133.883 25.5287 133.64 26.3034 133.43 26.8199C133.213 27.3396 133.027 27.6329 132.999 27.6202Z" fill="#E0E0E0"/>
<path d="M137.012 24.2979C136.996 24.3681 136.172 24.0716 135.205 24.3585C134.234 24.6391 133.701 25.3341 133.653 25.2831C133.628 25.2672 133.724 25.0695 133.969 24.8176C134.212 24.5689 134.618 24.2788 135.138 24.1258C135.658 23.9727 136.156 23.9982 136.495 24.0748C136.836 24.1513 137.021 24.2661 137.012 24.2947V24.2979Z" fill="#E0E0E0"/>
<path d="M135.607 24.1385C135.569 24.1385 135.585 23.9217 135.473 23.6156C135.368 23.3159 135.097 22.9205 134.653 22.742C134.203 22.5698 133.737 22.6782 133.456 22.8281C133.168 22.9779 133.034 23.1469 133.002 23.1214C132.98 23.1087 133.066 22.8919 133.366 22.6814C133.654 22.4742 134.193 22.3084 134.739 22.5156C135.278 22.7324 135.563 23.2171 135.636 23.5646C135.716 23.9217 135.63 24.1416 135.607 24.1353V24.1385Z" fill="#E0E0E0"/>
<path d="M134.617 24.467C134.547 24.451 134.598 24.027 134.474 23.5328C134.359 23.0355 134.123 22.6784 134.177 22.6337C134.222 22.5859 134.576 22.9143 134.71 23.4754C134.847 24.0334 134.678 24.4893 134.617 24.467Z" fill="#E0E0E0"/>
<path d="M134.589 23.4946C134.586 23.568 134.318 23.5807 134.062 23.7146C133.804 23.8549 133.59 24.0335 133.539 23.9793C133.497 23.941 133.625 23.6827 133.95 23.501C134.298 23.3257 134.602 23.4373 134.589 23.4946Z" fill="#E0E0E0"/>
<path d="M129.618 24.9482C130.614 25.7835 130.745 27.2692 129.905 28.2639C129.069 29.2586 127.581 29.3894 126.585 28.5509C125.589 27.7155 125.458 26.2298 126.298 25.2351C127.137 24.2404 128.622 24.1097 129.618 24.9482Z" fill="#F5F5F5"/>
<path d="M129.717 28.4776C129.694 28.4935 129.528 28.2927 129.238 27.9898C128.947 27.6933 128.52 27.2916 127.942 27.0556C127.364 26.8229 126.767 26.8643 126.39 27.011C126.007 27.1545 125.832 27.3585 125.806 27.3362C125.79 27.3298 125.937 27.0811 126.339 26.893C126.732 26.7049 127.38 26.6348 128.009 26.8898C128.631 27.1449 129.062 27.5849 129.334 27.9069C129.605 28.2353 129.733 28.468 129.717 28.4808V28.4776Z" fill="#E0E0E0"/>
<path d="M128.919 24.6103C128.96 24.6454 128.468 25.0886 128.315 25.841C128.156 26.5902 128.433 27.1928 128.382 27.2087C128.363 27.2183 128.264 27.0844 128.184 26.8325C128.104 26.5806 128.053 26.2044 128.136 25.8027C128.219 25.401 128.414 25.0758 128.587 24.8781C128.762 24.6773 128.903 24.5944 128.919 24.6103Z" fill="#E0E0E0"/>
<path d="M128.312 25.4935C128.296 25.519 128.159 25.4297 127.913 25.3978C127.677 25.3627 127.313 25.3978 127.035 25.6369C126.76 25.876 126.664 26.2268 126.668 26.4691C126.664 26.7146 126.732 26.8644 126.703 26.8772C126.687 26.8899 126.572 26.7528 126.537 26.4754C126.502 26.2108 126.581 25.79 126.917 25.4998C127.255 25.2161 127.683 25.2001 127.941 25.2735C128.21 25.3468 128.328 25.4839 128.312 25.4966V25.4935Z" fill="#E0E0E0"/>
<path d="M128.178 26.2716C128.143 26.313 127.875 26.1281 127.501 26.0325C127.128 25.9304 126.802 25.9623 126.793 25.9113C126.777 25.8667 127.125 25.7455 127.546 25.8539C127.971 25.9623 128.213 26.2365 128.178 26.2684V26.2716Z" fill="#E0E0E0"/>
<path d="M127.517 25.9429C127.565 25.9716 127.479 26.1533 127.479 26.3733C127.479 26.5965 127.523 26.8037 127.469 26.8165C127.427 26.8292 127.3 26.6539 127.297 26.3701C127.303 26.0768 127.485 25.911 127.52 25.9397L127.517 25.9429Z" fill="#E0E0E0"/>
<path d="M129.717 24.1385C128.884 23.5965 128.373 22.6305 128.041 21.6932C127.709 20.7558 127.696 19.7101 128.003 18.7664C128.919 19.1745 129.659 19.9651 130.007 20.9057C130.355 21.8462 130.151 23.2331 129.717 24.1385Z" fill="#EBEBEB"/>
<path d="M128.75 20.3032C129.117 21.5179 129.417 22.7518 129.644 24.0016L128.75 20.3032Z" fill="white"/>
<path d="M129.644 24.0015C129.625 24.0047 129.573 23.7974 129.494 23.4627C129.404 23.0769 129.299 22.6401 129.187 22.1555C129.066 21.6709 128.957 21.2341 128.865 20.8515C128.782 20.5167 128.734 20.3095 128.753 20.3031C128.769 20.2967 128.849 20.4976 128.954 20.826C129.059 21.1544 129.194 21.6135 129.315 22.1236C129.439 22.6369 129.532 23.1024 129.586 23.4435C129.64 23.7847 129.663 23.9983 129.647 24.0015H129.644Z" fill="#E0E0E0"/>
<path d="M131.827 28.3629C132.801 28.1589 133.845 28.4809 134.745 28.9081C135.642 29.3353 136.393 30.0654 136.846 30.9517C135.907 31.312 134.825 31.2769 133.912 30.8561C132.999 30.4353 132.162 29.3098 131.827 28.3661" fill="#EBEBEB"/>
<path d="M135.23 30.3905C134.11 29.7912 133.024 29.128 131.98 28.4075L135.23 30.3905Z" fill="white"/>
<path d="M131.977 28.4075C131.977 28.4075 132.172 28.4999 132.466 28.6817C132.801 28.8889 133.187 29.128 133.609 29.3894C134.036 29.6477 134.423 29.8804 134.761 30.0845C135.055 30.263 135.237 30.3746 135.227 30.3905C135.218 30.4065 135.023 30.3204 134.713 30.1642C134.407 30.008 133.988 29.7752 133.538 29.501C133.088 29.2268 132.692 28.959 132.411 28.7582C132.13 28.5573 131.964 28.4202 131.974 28.4075H131.977Z" fill="#E0E0E0"/>
<path d="M130.885 28.8252C131.064 29.3927 130.933 30.0303 130.732 30.5883C130.531 31.1462 130.138 31.634 129.637 31.956C129.369 31.4204 129.324 30.7732 129.522 30.2089C129.72 29.6414 130.339 29.0803 130.885 28.8252Z" fill="#EBEBEB"/>
<path d="M129.876 30.9646C130.167 30.2632 130.499 29.5809 130.866 28.9177L129.876 30.9646Z" fill="white"/>
<path d="M130.866 28.9177C130.898 28.9368 130.672 29.3927 130.4 29.957C130.126 30.5213 129.909 30.9804 129.877 30.9677C129.845 30.9549 130.007 30.4703 130.285 29.8996C130.56 29.3321 130.838 28.9017 130.869 28.9177H130.866Z" fill="#E0E0E0"/>
<path d="M46.1737 11.1304H19.6666V54.9494H46.1737V11.1304Z" fill="#E0E0E0"/>
<path d="M45.2893 11.1304H18.7822V54.9494H45.2893V11.1304Z" fill="#EBEBEB"/>
<path d="M44.1622 12.02H19.9122V54.06H44.1622V12.02Z" fill="#FAFAFA"/>
<path d="M39.4405 17.4814H24.5284V48.5954H39.4405V17.4814Z" fill="#EBEBEB"/>
<path d="M24.5286 37.5865C24.4935 34.6788 27.1113 31.8413 29.9941 31.4364C31.3669 31.2419 32.829 31.5161 34.1124 30.9901C36.4046 30.0527 37.1325 27.0112 39.4406 26.1089L39.546 48.5986H24.5286V37.5897V37.5865Z" fill="#E0E0E0"/>
<rect x="7.99976" y="19.8262" width="142.261" height="158.957" rx="10" fill="#214FE2"/>
<rect x="10.7823" y="41.7393" width="136.696" height="137.151" rx="4" fill="#FAFAFA"/>
<path opacity="0.4" d="M138.791 61.5769C138.844 61.7755 139.145 61.7755 139.197 61.5769C139.936 58.7681 140.751 58.0072 143.757 57.3166C143.969 57.2678 143.969 56.9861 143.757 56.9374C140.751 56.2467 139.936 55.4858 139.197 52.677C139.145 52.4785 138.844 52.4785 138.791 52.677C138.052 55.4858 137.238 56.2467 134.232 56.9374C134.019 56.9861 134.019 57.2678 134.232 57.3166C137.238 58.0072 138.052 58.7681 138.791 61.5769Z" fill="#CDCDCD"/>
<path d="M15.7411 150.403C15.6889 150.205 15.3875 150.205 15.3353 150.403C14.5961 153.212 13.7818 153.973 10.7757 154.663C10.5632 154.712 10.5632 154.994 10.7757 155.043C13.7818 155.733 14.5961 156.494 15.3353 159.303C15.3875 159.502 15.6889 159.502 15.7411 159.303C16.4803 156.494 17.2946 155.733 20.3007 155.043C20.5131 154.994 20.5131 154.712 20.3007 154.663C17.2946 153.973 16.4803 153.212 15.7411 150.403Z" fill="#CDCDCD"/>
<path opacity="0.2" d="M100.237 130.943C100.289 131.142 100.591 131.142 100.643 130.943C101.382 128.135 102.196 127.374 105.202 126.683C105.415 126.634 105.415 126.353 105.202 126.304C102.196 125.613 101.382 124.852 100.643 122.043C100.591 121.845 100.289 121.845 100.237 122.043C99.4979 124.852 98.6836 125.613 95.6775 126.304C95.465 126.353 95.465 126.634 95.6775 126.683C98.6836 127.374 99.4979 128.135 100.237 130.943Z" fill="#CDCDCD"/>
<path opacity="0.2" d="M81.78 159.303C81.8322 159.502 82.1337 159.502 82.1859 159.303C82.925 156.494 83.7393 155.733 86.7454 155.043C86.9579 154.994 86.9579 154.712 86.7454 154.663C83.7393 153.973 82.925 153.212 82.1859 150.403C82.1337 150.205 81.8322 150.205 81.78 150.403C81.0408 153.212 80.2265 153.973 77.2204 154.663C77.008 154.712 77.008 154.994 77.2204 155.043C80.2265 155.733 81.0408 156.494 81.78 159.303Z" fill="#CDCDCD"/>
<path d="M91.6237 75.3735C91.6759 75.5721 91.9774 75.5721 92.0296 75.3735C92.7688 72.5647 93.5831 71.8039 96.5891 71.1132C96.8017 71.0644 96.8017 70.7827 96.5891 70.734C93.5831 70.0433 92.7688 69.2825 92.0296 66.4737C91.9774 66.2751 91.6759 66.2751 91.6237 66.4737C90.8846 69.2825 90.0703 70.0433 87.0642 70.734C86.8517 70.7827 86.8517 71.0644 87.0642 71.1132C90.0703 71.8039 90.8846 72.5647 91.6237 75.3735Z" fill="#CDCDCD"/>
<path opacity="0.8" d="M54.2953 81.0366C54.2431 80.8381 53.9417 80.8381 53.8895 81.0366C53.1503 83.8454 52.336 84.6063 49.3299 85.297C49.1174 85.3457 49.1174 85.6274 49.3299 85.6762C52.336 86.3668 53.1503 87.1277 53.8895 89.9365C53.9417 90.1351 54.2431 90.1351 54.2953 89.9365C55.0345 87.1277 55.8488 86.3668 58.8549 85.6762C59.0673 85.6274 59.0673 85.3457 58.8549 85.297C55.8488 84.6063 55.0345 83.8454 54.2953 81.0366Z" fill="#CDCDCD"/>
<path opacity="0.2" d="M131.083 75.0525C131.113 75.1684 131.289 75.1684 131.32 75.0525C131.751 73.4141 132.226 72.9702 133.979 72.5673C134.103 72.5389 134.103 72.3746 133.979 72.3461C132.226 71.9432 131.751 71.4994 131.32 69.8609C131.289 69.7451 131.113 69.7451 131.083 69.8609C130.652 71.4994 130.177 71.9432 128.423 72.3461C128.299 72.3746 128.299 72.5389 128.423 72.5673C130.177 72.9702 130.652 73.4141 131.083 75.0525Z" fill="#CDCDCD"/>
<path opacity="0.4" d="M23.4495 136.928C23.4191 136.812 23.2432 136.812 23.2128 136.928C22.7816 138.566 22.3066 139.01 20.553 139.413C20.4291 139.441 20.4291 139.606 20.553 139.634C22.3066 140.037 22.7816 140.481 23.2128 142.119C23.2432 142.235 23.4191 142.235 23.4495 142.119C23.8807 140.481 24.3557 140.037 26.1093 139.634C26.2332 139.606 26.2332 139.441 26.1093 139.413C24.3557 139.01 23.8807 138.566 23.4495 136.928Z" fill="#CDCDCD"/>
<path opacity="0.2" d="M84.9725 87.4897C84.942 87.3739 84.7662 87.3739 84.7357 87.4897C84.3045 89.1282 83.8295 89.572 82.076 89.9749C81.952 90.0033 81.952 90.1677 82.076 90.1961C83.8295 90.599 84.3045 91.0428 84.7357 92.6813C84.7662 92.7971 84.942 92.7971 84.9725 92.6813C85.4037 91.0428 85.8787 90.599 87.6322 90.1961C87.7561 90.1677 87.7561 90.0033 87.6322 89.9749C85.8787 89.572 85.4037 89.1282 84.9725 87.4897Z" fill="#CDCDCD"/>
<path opacity="0.4" d="M138.056 93.8311C138.086 93.9469 138.262 93.9469 138.292 93.8311C138.724 92.1926 139.199 91.7488 140.952 91.3459C141.076 91.3175 141.076 91.1531 140.952 91.1247C139.199 90.7218 138.724 90.278 138.292 88.6395C138.262 88.5237 138.086 88.5237 138.056 88.6395C137.624 90.278 137.149 90.7218 135.396 91.1247C135.272 91.1531 135.272 91.3175 135.396 91.3459C137.149 91.7488 137.624 92.1926 138.056 93.8311Z" fill="#CDCDCD"/>
<path opacity="0.4" d="M140.927 148.634C140.957 148.75 141.133 148.75 141.164 148.634C141.595 146.996 142.07 146.552 143.823 146.149C143.947 146.121 143.947 145.956 143.823 145.928C142.07 145.525 141.595 145.081 141.164 143.443C141.133 143.327 140.957 143.327 140.927 143.443C140.496 145.081 140.021 145.525 138.267 145.928C138.143 145.956 138.143 146.121 138.267 146.149C140.021 146.552 140.496 146.996 140.927 148.634Z" fill="#CDCDCD"/>
<path opacity="0.2" d="M16.4769 118.149C16.4464 118.033 16.2706 118.033 16.2401 118.149C15.8089 119.787 15.3339 120.231 13.5804 120.634C13.4564 120.663 13.4564 120.827 13.5804 120.855C15.3339 121.258 15.8089 121.702 16.2401 123.34C16.2706 123.456 16.4464 123.456 16.4769 123.34C16.908 121.702 17.383 121.258 19.1366 120.855C19.2605 120.827 19.2605 120.663 19.1366 120.634C17.383 120.231 16.908 119.787 16.4769 118.149Z" fill="#CDCDCD"/>
<path opacity="0.4" d="M115.087 88.4659C115.117 88.5817 115.293 88.5817 115.324 88.4659C115.755 86.8274 116.23 86.3836 117.983 85.9807C118.107 85.9522 118.107 85.7879 117.983 85.7595C116.23 85.3566 115.755 84.9127 115.324 83.2743C115.293 83.1584 115.117 83.1584 115.087 83.2743C114.656 84.9127 114.181 85.3566 112.427 85.7595C112.303 85.7879 112.303 85.9522 112.427 85.9807C114.181 86.3836 114.656 86.8274 115.087 88.4659Z" fill="#CDCDCD"/>
<path d="M39.4456 123.514C39.4152 123.399 39.2393 123.399 39.2089 123.514C38.7777 125.153 38.3027 125.597 36.5491 126C36.4252 126.028 36.4252 126.192 36.5491 126.221C38.3027 126.624 38.7777 127.067 39.2089 128.706C39.2393 128.822 39.4152 128.822 39.4456 128.706C39.8768 127.067 40.3518 126.624 42.1054 126.221C42.2293 126.192 42.2293 126.028 42.1054 126C40.3518 125.597 39.8768 125.153 39.4456 123.514Z" fill="#CDCDCD"/>
<path d="M80.8709 131.562C80.8405 131.447 80.6646 131.447 80.6342 131.562C80.203 133.201 79.728 133.645 77.9744 134.048C77.8505 134.076 77.8505 134.24 77.9744 134.269C79.728 134.672 80.203 135.116 80.6342 136.754C80.6646 136.87 80.8405 136.87 80.8709 136.754C81.3021 135.116 81.7771 134.672 83.5307 134.269C83.6546 134.24 83.6546 134.076 83.5307 134.048C81.7771 133.645 81.3021 133.201 80.8709 131.562Z" fill="#CDCDCD"/>
<path opacity="0.4" d="M32.473 65.6452C32.4425 65.5294 32.2667 65.5294 32.2362 65.6452C31.805 67.2837 31.33 67.7275 29.5765 68.1304C29.4525 68.1589 29.4525 68.3232 29.5765 68.3516C31.33 68.7545 31.805 69.1983 32.2362 70.8368C32.2667 70.9527 32.4425 70.9527 32.473 70.8368C32.9041 69.1983 33.3791 68.7545 35.1327 68.3516C35.2566 68.3232 35.2566 68.1589 35.1327 68.1304C33.3791 67.7275 32.9041 67.2837 32.473 65.6452Z" fill="#CDCDCD"/>
<path d="M136.039 112.251C136.06 112.334 136.186 112.334 136.208 112.251C136.516 111.081 136.855 110.764 138.108 110.476C138.196 110.456 138.196 110.339 138.108 110.318C136.855 110.031 136.516 109.713 136.208 108.543C136.186 108.46 136.06 108.46 136.039 108.543C135.731 109.713 135.391 110.031 134.139 110.318C134.05 110.339 134.05 110.456 134.139 110.476C135.391 110.764 135.731 111.081 136.039 112.251Z" fill="#CDCDCD"/>
<path d="M18.4938 99.7286C18.4721 99.6458 18.3465 99.6458 18.3247 99.7286C18.0167 100.899 17.6774 101.216 16.4249 101.504C16.3363 101.524 16.3363 101.641 16.4249 101.662C17.6774 101.949 18.0167 102.267 18.3247 103.437C18.3465 103.52 18.4721 103.52 18.4938 103.437C18.8018 102.267 19.1411 101.949 20.3936 101.662C20.4822 101.641 20.4822 101.524 20.3936 101.504C19.1411 101.216 18.8018 100.899 18.4938 99.7286Z" fill="#CDCDCD"/>
<path d="M20.9548 48.7579C20.933 48.6751 20.8074 48.6751 20.7856 48.7579C20.4777 49.9282 20.1384 50.2452 18.8858 50.533C18.7973 50.5533 18.7973 50.6707 18.8858 50.691C20.1384 50.9788 20.4777 51.2958 20.7856 52.4661C20.8074 52.5489 20.933 52.5489 20.9548 52.4661C21.2627 51.2958 21.602 50.9788 22.8546 50.691C22.9431 50.6707 22.9431 50.5533 22.8546 50.533C21.602 50.2452 21.2627 49.9282 20.9548 48.7579Z" fill="#CDCDCD"/>
<path d="M138.259 125.023C138.237 124.94 138.111 124.94 138.09 125.023C137.782 126.193 137.442 126.51 136.19 126.798C136.101 126.818 136.101 126.935 136.19 126.956C137.442 127.243 137.782 127.56 138.09 128.731C138.111 128.814 138.237 128.814 138.259 128.731C138.567 127.56 138.906 127.243 140.158 126.956C140.247 126.935 140.247 126.818 140.158 126.798C138.906 126.51 138.567 126.193 138.259 125.023Z" fill="#CDCDCD"/>
<path d="M118.33 55.6904H38.8691C37.5725 55.6904 36.5213 56.7416 36.5213 58.0383V167.53C36.5213 168.827 37.5725 169.878 38.8691 169.878H118.33C119.627 169.878 120.678 168.827 120.678 167.53V58.0383C120.678 56.7416 119.627 55.6904 118.33 55.6904Z" fill="#A5A5A5"/>
<path d="M43.109 58.8105H39.3977V166.978L117.21 167.59L119.359 165.11L117.474 63.0749L43.109 58.8105Z" fill="#EBEBEB"/>
<path d="M119.359 165.11H42.4203V58.8105H39.3977V167.59H117.21L119.359 165.11Z" fill="#E0E0E0"/>
<path d="M125.913 311.652H49.9962C42.6015 269.596 41.2921 162.615 42.4626 58.7827H117.837C117.222 162.555 118.705 255.737 125.909 311.652H125.913Z" fill="white" stroke="#263238" stroke-width="0.347826" stroke-miterlimit="10"/>
<path d="M49.7474 79.8278C49.8305 81.7009 50.5086 83.4308 51.5956 84.8348C53.2377 86.964 55.8106 88.3479 58.6427 88.3479C61.4748 88.3479 63.9214 86.964 65.3707 84.8348C66.3314 83.4308 66.8566 81.7009 66.7735 79.8278C66.5641 75.1203 62.5818 71.3044 57.8815 71.3044C53.1812 71.3044 49.5347 75.1203 49.7474 79.8278Z" fill="#EBEBEB"/>
<path d="M54.5535 76.9977C54.6398 78.8971 56.2471 80.438 58.1465 80.438C60.046 80.438 61.5171 78.8971 61.4341 76.9977C61.3478 75.0982 59.7405 73.5574 57.841 73.5574C55.9416 73.5574 54.4705 75.0982 54.5535 76.9977Z" fill="#A5A5A5"/>
<path d="M51.465 84.8414C53.1055 86.9666 55.6757 88.3481 58.505 88.3481C61.3343 88.3481 63.7783 86.9666 65.2262 84.8414C63.6123 83.2341 61.0587 82.1914 58.2294 82.1914C55.4001 82.1914 52.9361 83.2341 51.465 84.8414Z" fill="#A5A5A5"/>
<path opacity="0.1" d="M54.5535 76.9977C54.6398 78.8971 56.2471 80.438 58.1465 80.438C60.046 80.438 61.5171 78.8971 61.4341 76.9977C61.3478 75.0982 59.7405 73.5574 57.841 73.5574C55.9416 73.5574 54.4705 75.0982 54.5535 76.9977Z" fill="#EBEBEB"/>
<path opacity="0.1" d="M51.465 84.8414C53.1055 86.9666 55.6757 88.3481 58.505 88.3481C61.3343 88.3481 63.7783 86.9666 65.2262 84.8414C63.6123 83.2341 61.0587 82.1914 58.2294 82.1914C55.4001 82.1914 52.9361 83.2341 51.465 84.8414Z" fill="#EBEBEB"/>
<path d="M70.0723 82.7097H110.319C110.657 82.7097 110.657 82.188 110.319 82.188H70.0723C69.7349 82.188 69.7349 82.7097 70.0723 82.7097Z" fill="#263238"/>
<path d="M52.6637 93.593H110.319C110.657 93.593 110.657 93.0713 110.319 93.0713H52.6637C52.3263 93.0713 52.3263 93.593 52.6637 93.593Z" fill="#263238"/>
<path d="M52.6637 103.106H80.6637C81.0011 103.106 81.0011 102.584 80.6637 102.584H52.6637C52.3263 102.584 52.3263 103.106 52.6637 103.106Z" fill="#263238"/>
<path d="M53.7805 112.616H92.824C93.1614 112.616 93.1614 112.094 92.824 112.094H53.7805C53.4431 112.094 53.4431 112.616 53.7805 112.616Z" fill="#263238"/>
<path d="M54.9004 122.125H74.7857C75.1231 122.125 75.1231 121.604 74.7857 121.604H54.9004C54.5631 121.604 54.5631 122.125 54.9004 122.125Z" fill="#263238"/>
<path d="M78.2464 122.125H111.005C111.342 122.125 111.342 121.604 111.005 121.604H78.2464C77.909 121.604 77.909 122.125 78.2464 122.125Z" fill="#263238"/>
<path d="M56.0168 131.635H79.7211C80.0585 131.635 80.0585 131.113 79.7211 131.113H56.0168C55.6794 131.113 55.6794 131.635 56.0168 131.635Z" fill="#A5A5A5"/>
<path d="M57.1366 141.148H94.7366C95.074 141.148 95.074 140.626 94.7366 140.626H57.1366C56.7993 140.626 56.7993 141.148 57.1366 141.148Z" fill="#263238"/>
<path d="M59.0606 151.701H84.4971C84.8345 151.701 84.8345 151.179 84.4971 151.179H59.0606C58.7232 151.179 58.7232 151.701 59.0606 151.701Z" fill="#263238"/>
<path d="M85.6901 145.701C81.9718 145.141 78.0727 145.739 74.7405 147.51C73.3701 148.24 71.8814 149.708 72.6675 151.395C73.4536 153.082 75.5371 153.294 77.0988 153.652C81.0675 154.567 85.1718 155.325 89.2449 154.678C90.8727 154.421 92.8101 154.004 94.0901 152.887C95.3701 151.77 95.1753 150.247 94.1214 149.117C92.824 147.729 90.7579 147.078 88.9318 146.786C86.904 146.459 84.8414 146.529 82.7962 146.616C82.4623 146.63 82.4588 147.151 82.7962 147.137C85.9579 146.998 89.3875 146.859 92.264 148.4C93.4605 149.04 95.1544 150.438 94.2153 151.955C93.4188 153.242 91.4884 153.677 90.1249 153.983C86.5805 154.769 82.9075 154.341 79.391 153.621C78.4797 153.433 77.5718 153.228 76.664 153.016C75.8153 152.817 74.904 152.664 74.1423 152.212C73.4849 151.826 72.9423 151.158 72.9875 150.358C73.0431 149.447 73.7284 148.741 74.4553 148.278C76.0205 147.28 77.9023 146.671 79.7145 146.32C81.6345 145.948 83.6205 145.91 85.5579 146.202C85.8849 146.25 86.0275 145.75 85.6971 145.697L85.6901 145.701Z" fill="#A5A5A5"/>
<path d="M99.3004 147.993H115.175C115.513 147.993 115.513 147.471 115.175 147.471H99.3004C98.963 147.471 98.963 147.993 99.3004 147.993Z" fill="#A5A5A5"/>
<path d="M100.413 149.346H114.511C114.848 149.346 114.848 148.824 114.511 148.824H100.413C100.076 148.824 100.076 149.346 100.413 149.346Z" fill="#A5A5A5"/>
<path d="M45.7526 54.0767H65.0848" stroke="#A5A5A5" stroke-width="0.26087" stroke-linejoin="round"/>
<path d="M83.7283 131.635H112.605C112.942 131.635 112.942 131.113 112.605 131.113H83.7283C83.3909 131.113 83.3909 131.635 83.7283 131.635Z" fill="#263238"/>
<path d="M99.3005 141.148H114.507C114.845 141.148 114.845 140.626 114.507 140.626H99.3005C98.9631 140.626 98.9631 141.148 99.3005 141.148Z" fill="#263238"/>
<path d="M98.0033 112.616H111.005C111.342 112.616 111.342 112.094 111.005 112.094H98.0033C97.6659 112.094 97.6659 112.616 98.0033 112.616Z" fill="#263238"/>
<path d="M84.0169 103.106H95.3282C95.6656 103.106 95.6656 102.584 95.3282 102.584H84.0169C83.6795 102.584 83.6795 103.106 84.0169 103.106Z" fill="#A5A5A5"/>
<path d="M99.3005 103.047H111.005C111.342 103.047 111.342 102.525 111.005 102.525H99.3005C98.9631 102.525 98.9631 103.047 99.3005 103.047Z" fill="#263238"/>
<path d="M116.046 128.161C115.167 128.529 114.288 128.904 113.415 129.273C112.979 129.458 112.536 129.642 112.1 129.832C111.762 129.974 111.387 130.183 111.012 130.207C110.686 130.232 110.655 129.992 110.686 129.716C110.723 129.298 110.846 128.88 110.926 128.468C111.116 127.521 111.307 126.575 111.498 125.628C111.614 125.05 110.723 124.798 110.606 125.382C110.379 126.501 110.158 127.62 109.93 128.744C109.764 129.556 109.506 130.767 110.582 131.08C110.994 131.197 111.442 131.093 111.829 130.939C112.334 130.736 112.831 130.515 113.329 130.306C114.387 129.857 115.45 129.408 116.507 128.96C116.741 128.861 116.784 128.523 116.673 128.326C116.538 128.087 116.267 128.062 116.04 128.161H116.046Z" fill="#A5A5A5"/>
<path d="M44.6604 54.0767H41.6517" stroke="#A5A5A5" stroke-width="0.26087" stroke-linejoin="round"/>
<mask id="path-88-inside-1_78_11964" fill="white">
<path fill-rule="evenodd" clip-rule="evenodd" d="M121.777 108.463C116.53 96.0936 102.103 90.2734 89.5644 95.4425H89.5514C77.0127 100.612 71.1015 114.83 76.3487 127.186C82.2724 139.034 95.7717 145.489 108.574 140.207C109.701 139.742 110.773 139.205 111.79 138.602L127.143 153.576C129.257 155.638 132.641 155.595 134.703 153.482C136.764 151.368 136.722 147.983 134.608 145.922L119.573 131.258C123.965 124.73 125.075 116.229 121.777 108.463Z"/>
</mask>
<path fill-rule="evenodd" clip-rule="evenodd" d="M121.777 108.463C116.53 96.0936 102.103 90.2734 89.5644 95.4425H89.5514C77.0127 100.612 71.1015 114.83 76.3487 127.186C82.2724 139.034 95.7717 145.489 108.574 140.207C109.701 139.742 110.773 139.205 111.79 138.602L127.143 153.576C129.257 155.638 132.641 155.595 134.703 153.482C136.764 151.368 136.722 147.983 134.608 145.922L119.573 131.258C123.965 124.73 125.075 116.229 121.777 108.463Z" fill="#214FE2" fill-opacity="0.8"/>
<path d="M89.5644 95.4425V98.573H90.1843L90.7575 98.3367L89.5644 95.4425ZM121.777 108.463L118.895 109.685L118.895 109.687L121.777 108.463ZM89.5514 95.4425V92.3121H88.9314L88.3583 92.5484L89.5514 95.4425ZM76.3487 127.186L73.4673 128.41L73.5053 128.499L73.5487 128.586L76.3487 127.186ZM108.574 140.207L107.381 137.312L107.38 137.313L108.574 140.207ZM111.79 138.602L113.975 136.361L112.257 134.686L110.193 135.91L111.79 138.602ZM127.143 153.576L124.957 155.817H124.957L127.143 153.576ZM134.608 145.922L136.794 143.681L134.608 145.922ZM119.573 131.258L116.975 129.51L115.518 131.676L117.387 133.499L119.573 131.258ZM90.7575 98.3367C101.738 93.8097 114.33 98.9252 118.895 109.685L124.659 107.24C118.729 93.2619 102.468 86.7371 88.3712 92.5484L90.7575 98.3367ZM89.5514 98.573H89.5644V92.3121H89.5514V98.573ZM79.2301 125.963C74.6753 115.237 79.7886 102.853 90.7445 98.3367L88.3583 92.5484C74.2368 98.37 67.5276 114.423 73.4673 128.41L79.2301 125.963ZM107.38 137.313C96.3248 141.875 84.4552 136.399 79.1486 125.786L73.5487 128.586C80.0895 141.668 95.2185 149.104 109.768 143.1L107.38 137.313ZM110.193 135.91C109.306 136.436 108.368 136.906 107.381 137.312L109.767 143.101C111.033 142.579 112.241 141.974 113.386 141.295L110.193 135.91ZM129.329 151.335L113.975 136.361L109.604 140.843L124.957 155.817L129.329 151.335ZM132.462 151.296C131.607 152.172 130.205 152.19 129.329 151.335L124.957 155.817C128.309 159.086 133.675 159.019 136.944 155.667L132.462 151.296ZM132.422 148.163C133.298 149.017 133.316 150.42 132.462 151.296L136.944 155.667C140.212 152.316 140.145 146.95 136.794 143.681L132.422 148.163ZM117.387 133.499L132.422 148.163L136.794 143.681L121.758 129.017L117.387 133.499ZM118.895 109.687C121.761 116.434 120.804 123.82 116.975 129.51L122.17 133.005C127.126 125.639 128.389 116.024 124.658 107.239L118.895 109.687Z" fill="#214FE2" mask="url(#path-88-inside-1_78_11964)"/>
<path d="M114.447 94.9741C108.119 90.1435 99.2518 88.7634 91.713 91.4195" stroke="#214FE2" stroke-width="2" stroke-linecap="round" stroke-linejoin="round"/>
<path d="M88.3015 92.7607C87.1296 93.0863 86.0229 93.6461 85.0724 94.4013" stroke="#214FE2" stroke-width="2" stroke-linecap="round" stroke-linejoin="round"/>
<path d="M79.9997 174.739C133.403 174.739 176.695 168.043 176.695 159.783C176.695 151.522 133.403 144.826 79.9997 144.826C26.5962 144.826 -16.6959 151.522 -16.6959 159.783C-16.6959 168.043 26.5962 174.739 79.9997 174.739Z" fill="#F5F5F5"/>
<circle cx="19.13" cy="31.3043" r="4.17391" fill="#FF4747"/>
<circle cx="29.9128" cy="31.3043" r="4.17391" fill="#FAAD14"/>
<circle cx="40.6952" cy="31.3043" r="4.17391" fill="#52C41A"/>
<rect x="20.7608" y="61.2173" width="59" height="22" rx="11" fill="#214FE2"/>
<path d="M35.7903 67.6086C35.6141 67.4324 35.3637 67.3442 35.039 67.3442C34.7144 67.3442 34.464 67.4324 34.2877 67.6086C34.0929 67.8034 33.9956 68.084 33.9956 68.4503C33.9956 68.8167 34.0929 69.0973 34.2877 69.2921C34.464 69.4683 34.7144 69.5564 35.039 69.5564C35.3637 69.5564 35.6141 69.4683 35.7903 69.2921C35.9851 69.0973 36.0825 68.8167 36.0825 68.4503C36.0825 68.084 35.9851 67.8034 35.7903 67.6086ZM36.7364 67.0173C37.1445 67.3466 37.3486 67.8242 37.3486 68.4503C37.3486 69.0764 37.1445 69.5541 36.7364 69.8834C36.3515 70.1941 35.7857 70.3495 35.039 70.3495C34.2924 70.3495 33.7266 70.1941 33.3416 69.8834C32.9335 69.5541 32.7295 69.0764 32.7295 68.4503C32.7295 67.8242 32.9335 67.3466 33.3416 67.0173C33.7358 66.7066 34.3016 66.5512 35.039 66.5512C35.7764 66.5512 36.3422 66.7066 36.7364 67.0173ZM40.094 66.6834H41.3045V68.1582L42.5149 66.6834H43.8088L42.3062 68.3599L43.9619 70.2173H42.5914L41.3045 68.6242V70.2173H40.094V68.6242L38.8071 70.2173H37.4297L39.0784 68.3669L37.5897 66.6834H38.8836L40.094 68.1582V66.6834ZM45.5406 69.0486L47.3424 66.6834H48.6293V70.2173H47.405V67.8521L45.5963 70.2173H44.3163V66.6834H45.5406V69.0486ZM52.4004 67.4625H51.19V67.699C51.19 68.0376 51.1575 68.3367 51.0926 68.5964C51.0323 68.8608 50.9117 69.1413 50.7308 69.4382H52.4004V67.4625ZM49.0821 69.4382H49.576C49.8033 69.1274 49.9656 68.775 50.063 68.3808C50.1372 68.084 50.1743 67.706 50.1743 67.2469V66.6834H53.583V69.4382H54.1743L54.1047 71.1355H53.1656V70.2173H50.0908V71.1355H49.1517L49.0821 69.4382ZM57.4243 68.6451V68.5895C57.3594 68.6451 57.2852 68.6845 57.2017 68.7077C57.1229 68.7263 56.986 68.7448 56.7913 68.7634L56.5339 68.7912C56.2974 68.8144 56.1327 68.8561 56.04 68.9164C55.9287 69.0045 55.873 69.1042 55.873 69.2155C55.873 69.3408 55.9217 69.4405 56.0191 69.5147C56.1118 69.5889 56.2672 69.626 56.4852 69.626C56.782 69.626 57.0116 69.5448 57.1739 69.3825C57.3408 69.2155 57.4243 68.9697 57.4243 68.6451ZM55.9774 67.8242H54.7391C54.7391 67.4996 54.8527 67.2237 55.08 66.9964C55.2608 66.8202 55.4788 66.7019 55.7339 66.6416C55.9936 66.5813 56.3113 66.5512 56.6869 66.5512C57.5078 66.5512 58.0666 66.7066 58.3634 67.0173C58.4516 67.11 58.5188 67.219 58.5652 67.3442C58.6162 67.4695 58.644 67.5738 58.6487 67.6573C58.6579 67.7408 58.6626 67.8497 58.6626 67.9842V69.5564C58.6626 69.728 58.6811 69.8695 58.7182 69.9808C58.7646 70.0596 58.8295 70.106 58.913 70.1199V70.2173H57.5774L57.5008 69.8695H57.473C57.3385 70.0411 57.1553 70.1663 56.9234 70.2451C56.7101 70.3147 56.4295 70.3495 56.0817 70.3495C55.5669 70.3495 55.2005 70.2753 54.9826 70.1269C54.7089 69.9321 54.5721 69.6515 54.5721 69.2851C54.5721 68.9929 54.6603 68.7611 54.8365 68.5895C54.9385 68.4921 55.08 68.4132 55.2608 68.3529C55.4417 68.2926 55.5808 68.2555 55.6782 68.2416C55.7803 68.2277 55.931 68.2115 56.1304 68.1929L56.6869 68.1442C56.8307 68.1303 56.9304 68.1211 56.986 68.1164C57.0463 68.1118 57.1113 68.1002 57.1808 68.0816C57.2504 68.0584 57.3014 68.0283 57.3339 67.9912C57.3895 67.9355 57.4174 67.859 57.4174 67.7616C57.4174 67.6132 57.3431 67.4973 57.1947 67.4138C57.0834 67.3489 56.9211 67.3164 56.7078 67.3164C56.4759 67.3164 56.2997 67.3582 56.1791 67.4416C56.0492 67.5437 55.982 67.6712 55.9774 67.8242ZM60.7009 68.0538H62.6557C62.6371 67.8126 62.5536 67.6318 62.4052 67.5112C62.2476 67.3721 62.0064 67.3025 61.6818 67.3025C61.3896 67.3025 61.16 67.3674 60.9931 67.4973C60.8168 67.6411 60.7194 67.8266 60.7009 68.0538ZM62.6348 69.0625H63.8661C63.8104 69.5912 63.5554 69.9576 63.1009 70.1616C62.8133 70.2869 62.3704 70.3495 61.7722 70.3495C61.3177 70.3495 60.9467 70.3147 60.6591 70.2451C60.3716 70.1755 60.1235 70.0364 59.9148 69.8277C59.5902 69.5031 59.4278 69.0625 59.4278 68.506C59.4278 67.9077 59.6041 67.4393 59.9565 67.1008C60.3415 66.7344 60.9142 66.5512 61.6748 66.5512C62.4678 66.5512 63.0545 66.7413 63.4348 67.1216C63.7548 67.4416 63.9148 67.9193 63.9148 68.5547V68.6799H60.68V68.7008C60.68 68.9697 60.7565 69.1808 60.9096 69.3338C61.0673 69.4915 61.327 69.5703 61.6887 69.5703C61.9762 69.5703 62.1873 69.5379 62.3218 69.4729C62.4887 69.3941 62.5931 69.2573 62.6348 69.0625ZM65.4325 67.5042H64.1386V66.6834H67.9508V67.5042H66.6569V70.2173H65.4325V67.5042ZM29.4773 78.2173L28.4199 75.7408H28.3643L28.399 76.0955V78.2173H27.2443V74.6834H28.7886L29.8669 77.1947L30.9382 74.6834H32.4825V78.2173H31.3277V76.0955L31.3625 75.7408H31.3138L30.2495 78.2173H29.4773ZM36.2523 75.6086C36.0761 75.4324 35.8256 75.3442 35.501 75.3442C35.1764 75.3442 34.9259 75.4324 34.7497 75.6086C34.5549 75.8034 34.4575 76.084 34.4575 76.4503C34.4575 76.8167 34.5549 77.0973 34.7497 77.2921C34.9259 77.4683 35.1764 77.5564 35.501 77.5564C35.8256 77.5564 36.0761 77.4683 36.2523 77.2921C36.4471 77.0973 36.5445 76.8167 36.5445 76.4503C36.5445 76.084 36.4471 75.8034 36.2523 75.6086ZM37.1984 75.0173C37.6065 75.3466 37.8106 75.8242 37.8106 76.4503C37.8106 77.0764 37.6065 77.5541 37.1984 77.8834C36.8135 78.1941 36.2477 78.3495 35.501 78.3495C34.7543 78.3495 34.1885 78.1941 33.8036 77.8834C33.3955 77.5541 33.1914 77.0764 33.1914 76.4503C33.1914 75.8242 33.3955 75.3466 33.8036 75.0173C34.1978 74.7066 34.7636 74.5512 35.501 74.5512C36.2384 74.5512 36.8042 74.7066 37.1984 75.0173ZM41.2727 75.4625H40.0622V75.699C40.0622 76.0376 40.0298 76.3367 39.9649 76.5964C39.9046 76.8608 39.784 77.1413 39.6031 77.4382H41.2727V75.4625ZM37.9544 77.4382H38.4483C38.6756 77.1274 38.8379 76.775 38.9353 76.3808C39.0095 76.084 39.0466 75.706 39.0466 75.2469V74.6834H42.4553V77.4382H43.0466L42.977 79.1355H42.0379V78.2173H38.9631V79.1355H38.024L37.9544 77.4382ZM44.6479 76.0538H46.6027C46.5841 75.8126 46.5006 75.6318 46.3522 75.5112C46.1946 75.3721 45.9534 75.3025 45.6288 75.3025C45.3366 75.3025 45.107 75.3674 44.9401 75.4973C44.7638 75.6411 44.6664 75.8266 44.6479 76.0538ZM46.5818 77.0625H47.8131C47.7575 77.5912 47.5024 77.9576 47.0479 78.1616C46.7604 78.2869 46.3175 78.3495 45.7192 78.3495C45.2647 78.3495 44.8937 78.3147 44.6062 78.2451C44.3186 78.1755 44.0705 78.0364 43.8618 77.8277C43.5372 77.5031 43.3749 77.0625 43.3749 76.506C43.3749 75.9077 43.5511 75.4393 43.9035 75.1008C44.2885 74.7344 44.8612 74.5512 45.6218 74.5512C46.4149 74.5512 47.0015 74.7413 47.3818 75.1216C47.7018 75.4416 47.8618 75.9193 47.8618 76.5547V76.6799H44.627V76.7008C44.627 76.9697 44.7035 77.1808 44.8566 77.3338C45.0143 77.4915 45.274 77.5703 45.6357 77.5703C45.9233 77.5703 46.1343 77.5379 46.2688 77.4729C46.4357 77.3941 46.5401 77.2573 46.5818 77.0625ZM50.7258 75.3512C50.4476 75.3512 50.2203 75.4416 50.0441 75.6225C49.8447 75.8451 49.745 76.1257 49.745 76.4642C49.745 76.8167 49.8377 77.088 50.0232 77.2782C50.2041 77.459 50.4453 77.5495 50.7467 77.5495C51.0528 77.5495 51.287 77.4544 51.4493 77.2642C51.6209 77.0695 51.7067 76.7958 51.7067 76.4434C51.7067 76.1095 51.6209 75.8428 51.4493 75.6434C51.2684 75.4486 51.0273 75.3512 50.7258 75.3512ZM48.5554 74.6834H49.7241V75.1286H49.745C49.8702 74.9616 50.0232 74.8318 50.2041 74.739C50.4313 74.6277 50.7235 74.5721 51.0806 74.5721C51.6696 74.5721 52.1287 74.7205 52.458 75.0173C52.8012 75.3466 52.9728 75.815 52.9728 76.4225C52.9728 77.0579 52.8012 77.5425 52.458 77.8764C52.2679 78.0666 52.0592 78.1895 51.8319 78.2451C51.6093 78.3008 51.3542 78.3286 51.0667 78.3286C50.705 78.3286 50.4337 78.2892 50.2528 78.2103C50.0673 78.1361 49.9096 78.0132 49.7797 77.8416V79.5042H48.5554V74.6834ZM56.4257 76.6451V76.5895C56.3607 76.6451 56.2865 76.6845 56.2031 76.7077C56.1242 76.7263 55.9874 76.7448 55.7926 76.7634L55.5352 76.7912C55.2987 76.8144 55.1341 76.8561 55.0413 76.9164C54.93 77.0045 54.8744 77.1042 54.8744 77.2155C54.8744 77.3408 54.9231 77.4405 55.0205 77.5147C55.1132 77.5889 55.2686 77.626 55.4865 77.626C55.7833 77.626 56.0129 77.5448 56.1752 77.3825C56.3422 77.2155 56.4257 76.9697 56.4257 76.6451ZM54.9787 75.8242H53.7405C53.7405 75.4996 53.8541 75.2237 54.0813 74.9964C54.2622 74.8202 54.4802 74.7019 54.7352 74.6416C54.9949 74.5813 55.3126 74.5512 55.6883 74.5512C56.5091 74.5512 57.068 74.7066 57.3648 75.0173C57.4529 75.11 57.5202 75.219 57.5665 75.3442C57.6176 75.4695 57.6454 75.5738 57.65 75.6573C57.6593 75.7408 57.6639 75.8497 57.6639 75.9842V77.5564C57.6639 77.728 57.6825 77.8695 57.7196 77.9808C57.766 78.0596 57.8309 78.106 57.9144 78.1199V78.2173H56.5787L56.5022 77.8695H56.4744C56.3399 78.0411 56.1567 78.1663 55.9248 78.2451C55.7115 78.3147 55.4309 78.3495 55.0831 78.3495C54.5683 78.3495 54.2019 78.2753 53.9839 78.1269C53.7103 77.9321 53.5735 77.6515 53.5735 77.2851C53.5735 76.9929 53.6616 76.7611 53.8378 76.5895C53.9399 76.4921 54.0813 76.4132 54.2622 76.3529C54.4431 76.2926 54.5822 76.2555 54.6796 76.2416C54.7816 76.2277 54.9323 76.2115 55.1318 76.1929L55.6883 76.1442C55.832 76.1303 55.9318 76.1211 55.9874 76.1164C56.0477 76.1118 56.1126 76.1002 56.1822 76.0816C56.2518 76.0584 56.3028 76.0283 56.3352 75.9912C56.3909 75.9355 56.4187 75.859 56.4187 75.7616C56.4187 75.6132 56.3445 75.4973 56.1961 75.4138C56.0848 75.3489 55.9225 75.3164 55.7091 75.3164C55.4773 75.3164 55.301 75.3582 55.1805 75.4416C55.0506 75.5437 54.9833 75.6712 54.9787 75.8242ZM59.8205 77.3964H61.3718V74.6834H62.5962V77.3964H63.2501L63.2014 79.1286H62.2414V78.2173H58.5962V74.6834H59.8205V77.3964ZM64.97 77.0486L66.7717 74.6834H68.0587V78.2173H66.8343V75.8521L65.0256 78.2173H63.7456V74.6834H64.97V77.0486ZM70.1602 77.0486L71.9619 74.6834H73.2489V78.2173H72.0245V75.8521L70.2158 78.2173H68.9358V74.6834H70.1602V77.0486Z" fill="white"/>
<g clip-path="url(#clip1_78_11964)">
<path opacity="0.3" d="M98.9563 103.304C98.3613 103.304 97.8791 103.787 97.8791 104.382V111.707C97.8791 112.302 98.3613 112.784 98.9563 112.784C99.5514 112.784 100.034 112.302 100.034 111.707V104.382C100.034 103.787 99.5514 103.304 98.9563 103.304Z" fill="white"/>
<path opacity="0.7" d="M98.9563 122.695C98.3613 122.695 97.8791 123.177 97.8791 123.772V131.097C97.8791 131.692 98.3613 132.174 98.9563 132.174C99.5514 132.174 100.034 131.692 100.034 131.097V123.772C100.034 123.177 99.5514 122.695 98.9563 122.695Z" fill="white"/>
<path opacity="0.9" d="M94.0012 117.791C94.0012 117.196 93.519 116.713 92.9239 116.713H85.5988C85.0038 116.713 84.5216 117.196 84.5216 117.791C84.5216 118.386 85.0038 118.868 85.5988 118.868H92.9239C93.519 118.868 94.0012 118.386 94.0012 117.791Z" fill="white"/>
<path opacity="0.5" d="M112.314 116.713H104.989C104.394 116.713 103.912 117.196 103.912 117.791C103.912 118.386 104.394 118.868 104.989 118.868H112.314C112.909 118.868 113.391 118.386 113.391 117.791C113.391 117.196 112.909 116.713 112.314 116.713Z" fill="white"/>
<path d="M90.5881 107.441C90.1671 107.02 89.4854 107.02 89.0649 107.441C88.6444 107.862 88.6439 108.544 89.0649 108.964L94.2446 114.144C94.4549 114.354 94.7307 114.459 95.0064 114.459C95.2822 114.459 95.5575 114.354 95.7682 114.144C96.1892 113.723 96.1892 113.041 95.7682 112.621L90.5881 107.441Z" fill="white"/>
<path opacity="0.6" d="M104.299 121.152C103.878 120.731 103.196 120.731 102.775 121.152C102.355 121.573 102.354 122.255 102.775 122.675L107.955 127.855C108.165 128.065 108.441 128.17 108.717 128.17C108.993 128.17 109.268 128.065 109.479 127.855C109.9 127.434 109.9 126.752 109.479 126.332L104.299 121.152Z" fill="white"/>
<path opacity="0.8" d="M94.2442 121.456L89.0649 126.636C88.6439 127.057 88.6439 127.738 89.0649 128.159C89.2752 128.369 89.5509 128.474 89.8267 128.474C90.1025 128.474 90.3778 128.369 90.5885 128.159L95.7678 122.98C96.1888 122.559 96.1888 121.877 95.7678 121.456C95.3468 121.036 94.6651 121.035 94.2442 121.456Z" fill="white"/>
<path opacity="0.4" d="M102.775 114.449C102.986 114.659 103.261 114.764 103.537 114.764C103.813 114.764 104.088 114.659 104.299 114.449L109.479 109.269C109.9 108.848 109.9 108.166 109.479 107.746C109.058 107.325 108.376 107.325 107.956 107.746L102.775 112.925C102.355 113.346 102.355 114.028 102.775 114.449Z" fill="white"/>
</g>
</g>
<defs>
<clipPath id="clip0_78_11964">
<rect width="160" height="160" rx="24" fill="white"/>
</clipPath>
<clipPath id="clip1_78_11964">
<rect width="28.8696" height="28.8696" fill="white" transform="translate(84.5217 103.304)"/>
</clipPath>
</defs>
</svg>
