<svg width="81" height="80" viewBox="0 0 81 80" fill="none" xmlns="http://www.w3.org/2000/svg">
<path d="M8.0022 26.7801L7.54883 22.3947C7.44759 21.7394 7.6108 21.0708 8.00256 20.5359C8.39432 20.0009 8.98253 19.6435 9.6378 19.5423L61.3999 7.52496C62.0552 7.42372 62.7238 7.58694 63.2588 7.9787C63.7937 8.37046 64.1511 8.95867 64.2523 9.61394L65.855 20.8692C65.9431 21.4384 65.8316 22.0205 65.5395 22.5169C65.2474 23.0133 64.7926 23.3934 64.2523 23.5928" stroke="#0D1116" stroke-width="7" stroke-linecap="round" stroke-linejoin="round"/>
<path d="M30.5 24.168V69.168" stroke="#C8122D" stroke-width="7" stroke-linecap="round" stroke-linejoin="round"/>
<path d="M8 58.9149C7.99989 58.339 8.19894 57.7807 8.5634 57.3347C8.92786 56.8888 9.43531 56.5826 9.99974 56.468C12.2583 56.0065 14.2882 54.7791 15.746 52.9934C17.2038 51.2077 18 48.9732 18 46.668C18 44.3627 17.2038 42.1283 15.746 40.3425C14.2882 38.5568 12.2583 37.3294 9.99974 36.868C9.43531 36.7534 8.92786 36.4472 8.5634 36.0012C8.19894 35.5552 7.99989 34.997 8 34.421V26.668C8 26.0049 8.26339 25.369 8.73223 24.9002C9.20107 24.4314 9.83696 24.168 10.5 24.168H72.1667C72.8297 24.168 73.4656 24.4314 73.9344 24.9002C74.4033 25.369 74.6667 26.0049 74.6667 26.668V34.421C74.6668 34.997 74.4677 35.5552 74.1033 36.0012C73.7388 36.4472 73.2314 36.7534 72.6669 36.868C70.4084 37.3294 68.3785 38.5568 66.9207 40.3425C65.4629 42.1283 64.6667 44.3628 64.6667 46.668C64.6667 48.9732 65.4629 51.2077 66.9207 52.9934C68.3785 54.7792 70.4084 56.0066 72.6669 56.468C73.2314 56.5826 73.7388 56.8888 74.1033 57.3348C74.4677 57.7807 74.6668 58.339 74.6667 58.9149V66.668C74.6667 67.331 74.4033 67.9669 73.9344 68.4357C73.4656 68.9046 72.8297 69.168 72.1667 69.168H10.5C9.83696 69.168 9.20107 68.9046 8.73223 68.4357C8.26339 67.9669 8 67.331 8 66.668V58.9149Z" stroke="#C8122D" stroke-width="7" stroke-linecap="round" stroke-linejoin="round"/>
</svg>
