<svg xmlns="http://www.w3.org/2000/svg" version="1.1" xmlns:xlink="http://www.w3.org/1999/xlink" xmlns:svgjs="http://svgjs.dev/svgjs" width="1000" height="750" viewBox="0 0 1000 750"><rect width="1000" height="750" fill="#ffffff"></rect><g transform="matrix(0.5845845845845846,0,0,0.5845845845845846,207.58158741832204,82.87400583090377)"><svg viewBox="0 0 343 343" data-background-color="#ffffff" preserveAspectRatio="xMidYMid meet" height="999" width="1000" xmlns="http://www.w3.org/2000/svg" xmlns:xlink="http://www.w3.org/1999/xlink"><defs></defs><g id="tight-bounds" transform="matrix(1,0,0,1,0.0740000000000407,0.07400000000001228)"><svg viewBox="0 0 342.85155851775386 342.85155851775386" height="342.85155851775386" width="342.85155851775386"><g><svg></svg></g><g><svg viewBox="0 0 342.85155851775386 342.85155851775386" height="342.85155851775386" width="342.85155851775386"><g><path d="M0 171.426c0-94.676 76.75-171.426 171.426-171.426 94.676 0 171.426 76.75 171.426 171.426 0 94.676-76.75 171.426-171.426 171.426-94.676 0-171.426-76.75-171.426-171.426zM171.426 338.211c92.113 0 166.785-74.672 166.785-166.785 0-92.113-74.672-166.785-166.785-166.786-92.113 0-166.785 74.672-166.786 166.786 0 92.113 74.672 166.785 166.786 166.785z" data-fill-palette-color="tertiary" fill="#233565" stroke="transparent"></path><ellipse rx="164.56874808852186" ry="164.56874808852186" cx="171.42577925887693" cy="171.42577925887693" fill="#233565" stroke="transparent" stroke-width="0" fill-opacity="1" data-fill-palette-color="tertiary"></ellipse></g><g transform="matrix(1,0,0,1,64.84655864529837,78.0251178347015)"><svg viewBox="0 0 213.1584412271571 186.80132284835085" height="186.80132284835085" width="213.1584412271571"><g><svg viewBox="0 0 213.1584412271571 186.80132284835085" height="186.80132284835085" width="213.1584412271571"><g><svg viewBox="0 0 213.1584412271571 186.80132284835085" height="186.80132284835085" width="213.1584412271571"><g transform="matrix(1,0,0,1,0,113.47907935653183)"><svg viewBox="0 0 213.1584412271571 73.32224349181902" height="73.32224349181902" width="213.1584412271571"><g><svg viewBox="0 0 213.1584412271571 73.32224349181902" height="73.32224349181902" width="213.1584412271571"><g><svg viewBox="0 0 213.1584412271571 51.45689884121187" height="51.45689884121187" width="213.1584412271571"><g transform="matrix(1,0,0,1,0,0)"><svg width="213.1584412271571" viewBox="2.4000000953674316 -36 151.19000244140625 36.5" height="51.45689884121187" data-palette-color="#ff58ff"><path d="M22.35-3.45Q22.35-1.8 23.7-1.8L23.7-1.8Q24.85-1.8 26.2-2.6L26.2-2.6 26.2-0.45Q24.8 0.5 23 0.5L23 0.5Q21.2 0.5 20.5-0.83 19.8-2.15 19.8-4.45L19.8-4.45Q18.25-1.9 15.93-0.7 13.6 0.5 10.45 0.5L10.45 0.5Q6.9 0.5 4.65-1.13 2.4-2.75 2.4-6.65L2.4-6.65Q2.4-10.2 4.53-11.98 6.65-13.75 10.28-14.28 13.9-14.8 19.8-14.8L19.8-14.8 19.8-18Q19.8-21.2 18.28-22.48 16.75-23.75 13.15-23.75L13.15-23.75Q9.85-23.75 7.85-22.48 5.85-21.2 5.85-18.55L5.85-18.55 5.85-17.75 3.4-17.75Q3.3-18.55 3.3-19.05L3.3-19.05Q3.3-22.3 6.08-24.18 8.85-26.05 13.15-26.05L13.15-26.05Q17.8-26.05 20.08-24.2 22.35-22.35 22.35-18.5L22.35-18.5 22.35-3.45ZM19.8-12.5Q14.5-12.5 11.48-12.15 8.45-11.8 6.7-10.53 4.95-9.25 4.95-6.6L4.95-6.6Q4.95-4.1 6.38-2.95 7.8-1.8 10.95-1.8L10.95-1.8Q13.2-1.8 15.23-2.8 17.25-3.8 18.53-5.83 19.8-7.85 19.8-10.8L19.8-10.8 19.8-12.5ZM58.55-26.05Q62.35-26.05 64.75-23.63 67.15-21.2 67.15-16.45L67.15-16.45 67.15 0 64.6 0 64.6-15.7Q64.6-23.75 58.35-23.75L58.35-23.75Q55.35-23.75 53.45-21.45 51.55-19.15 51.55-15.7L51.55-15.7 51.55 0 49 0 49-15.7Q49-23.75 42.75-23.75L42.75-23.75Q39.75-23.75 37.85-21.45 35.95-19.15 35.95-15.7L35.95-15.7 35.95 0 33.4 0 33.4-25.55 35.1-25.55 35.7-21.75Q36.8-23.75 38.75-24.9 40.7-26.05 42.95-26.05L42.95-26.05Q45.5-26.05 47.52-24.95 49.55-23.85 50.65-21.7L50.65-21.7Q51.75-23.55 53.82-24.8 55.9-26.05 58.55-26.05L58.55-26.05ZM92-16.4L92-17.2Q92-19.7 90.55-21.73 89.09-23.75 85.75-23.75L85.75-23.75Q83.44-23.75 82-22.53 80.55-21.3 79.92-19.55 79.3-17.8 79.3-16.2L79.3-16.2 79.3 0 76.75 0 76.75-25.55 78.44-25.55 79-21.75Q79-21.95 79.77-23.05 80.55-24.15 82.17-25.1 83.8-26.05 86.25-26.05L86.25-26.05Q90.19-26.05 92.32-23.63 94.44-21.2 94.44-17.6L94.44-17.6Q94.44-17.1 94.39-16.8 94.34-16.5 94.34-16.4L94.34-16.4 92-16.4ZM101.14-33.3L101.14-36 104.09-36 104.09-33.3 101.14-33.3ZM103.89 0L101.34 0 101.34-25.55 103.89-25.55 103.89 0ZM123.54-0.35Q122.89 0.05 121.97 0.28 121.04 0.5 120.14 0.5L120.14 0.5Q117.84 0.5 116.44-0.9 115.04-2.3 115.04-5.05L115.04-5.05 115.04-23.25 112.24-23.25 112.24-25.55 115.04-25.55 115.94-33.7 117.59-33.7 117.59-25.55 123.54-25.55 123.54-23.25 117.59-23.25 117.59-5.15Q117.59-3.15 118.37-2.48 119.14-1.8 120.44-1.8L120.44-1.8Q120.99-1.8 121.94-2.05 122.89-2.3 123.54-2.6L123.54-2.6 123.54-0.35ZM149.74-3.45Q149.74-1.8 151.09-1.8L151.09-1.8Q152.24-1.8 153.59-2.6L153.59-2.6 153.59-0.45Q152.19 0.5 150.39 0.5L150.39 0.5Q148.59 0.5 147.89-0.83 147.19-2.15 147.19-4.45L147.19-4.45Q145.64-1.9 143.31-0.7 140.99 0.5 137.84 0.5L137.84 0.5Q134.29 0.5 132.04-1.13 129.79-2.75 129.79-6.65L129.79-6.65Q129.79-10.2 131.91-11.98 134.04-13.75 137.66-14.28 141.29-14.8 147.19-14.8L147.19-14.8 147.19-18Q147.19-21.2 145.66-22.48 144.14-23.75 140.54-23.75L140.54-23.75Q137.24-23.75 135.24-22.48 133.24-21.2 133.24-18.55L133.24-18.55 133.24-17.75 130.79-17.75Q130.69-18.55 130.69-19.05L130.69-19.05Q130.69-22.3 133.46-24.18 136.24-26.05 140.54-26.05L140.54-26.05Q145.19-26.05 147.46-24.2 149.74-22.35 149.74-18.5L149.74-18.5 149.74-3.45ZM147.19-12.5Q141.89-12.5 138.86-12.15 135.84-11.8 134.09-10.53 132.34-9.25 132.34-6.6L132.34-6.6Q132.34-4.1 133.76-2.95 135.19-1.8 138.34-1.8L138.34-1.8Q140.59-1.8 142.61-2.8 144.64-3.8 145.91-5.83 147.19-7.85 147.19-10.8L147.19-10.8 147.19-12.5Z" opacity="1" transform="matrix(1,0,0,1,0,0)" fill="#ff58ff" class="undefined-text-0" data-fill-palette-color="quaternary" id="text-0"></path></svg></g></svg></g><g transform="matrix(1,0,0,1,40.713262274387006,63.6046376920498)"><svg viewBox="0 0 131.7319166783831 9.717605799769226" height="9.717605799769226" width="131.7319166783831"><g transform="matrix(1,0,0,1,0,0)"><svg width="131.7319166783831" viewBox="1.5099999904632568 -36.18000030517578 490.4499816894531 36.18000030517578" height="9.717605799769226" data-palette-color="#ff58ff"><path d="M40.77-35.99Q40.14-35.99 39.75-34.86 39.36-33.74 39.11-32.03 38.87-30.32 38.75-28.25 38.62-26.17 38.57-24.27 38.53-22.36 38.53-20.9 38.53-19.43 38.53-18.9L38.53-18.9Q38.53-15.97 38.5-13.11 38.48-10.25 38.48-7.32L38.48-7.32Q38.48-6.93 38.48-5.81 38.48-4.69 38.53-3.49 38.57-2.29 38.75-1.27 38.92-0.24 39.21 0L39.21 0 30.66 0Q30.96-0.24 31.13-1.44 31.3-2.64 31.4-4.27 31.49-5.91 31.54-7.81 31.59-9.72 31.59-11.43 31.59-13.13 31.59-14.43 31.59-15.72 31.59-16.16L31.59-16.16Q26.66-16.36 21.78-16.41 16.89-16.46 11.96-16.46L11.96-16.46 10.16-16.46Q10.16-14.16 10.13-11.91 10.11-9.67 10.11-7.37L10.11-7.37Q10.11-6.98 10.11-5.86 10.11-4.74 10.16-3.52 10.21-2.29 10.38-1.27 10.55-0.24 10.84 0L10.84 0 2.29 0Q2.59-0.29 2.78-1.88 2.98-3.47 3.1-5.71 3.22-7.96 3.25-10.6 3.27-13.23 3.27-15.63 3.27-18.02 3.25-19.85 3.22-21.68 3.22-22.41L3.22-22.41Q3.22-22.8 3.25-23.95 3.27-25.1 3.25-26.56 3.22-28.03 3.15-29.64 3.08-31.25 2.88-32.62 2.69-33.98 2.34-34.91 2-35.84 1.51-35.99L1.51-35.99 12.45-35.99Q11.87-35.99 11.47-35.01 11.08-34.03 10.84-32.52 10.6-31.01 10.45-29.17 10.3-27.34 10.25-25.68 10.21-24.02 10.21-22.73 10.21-21.44 10.21-21L10.21-21Q15.53-20.9 20.87-20.85 26.22-20.8 31.59-20.95L31.59-20.95 31.59-22.41Q31.59-22.85 31.62-23.97 31.64-25.1 31.62-26.56 31.59-28.03 31.52-29.64 31.45-31.25 31.25-32.62 31.05-33.98 30.71-34.91 30.37-35.84 29.88-35.99L29.88-35.99 40.77-35.99ZM80.03-0.1L44.58 0Q44.87-0.29 45.07-1.88 45.26-3.47 45.38-5.71 45.51-7.96 45.53-10.6 45.55-13.23 45.55-15.63 45.55-18.02 45.53-19.85 45.51-21.68 45.51-22.41L45.51-22.41Q45.51-22.85 45.51-23.93 45.51-25 45.48-26.32 45.46-27.64 45.41-29.13 45.36-30.62 45.24-31.88 45.11-33.15 44.92-34.11 44.72-35.06 44.43-35.4L44.43-35.4Q44.28-35.55 44.11-35.69 43.94-35.84 43.8-35.99L43.8-35.99 79.25-35.89 78.71-30.47Q78.46-30.57 77.51-30.62 76.56-30.66 75.19-30.71 73.83-30.76 72.26-30.79 70.7-30.81 69.31-30.81 67.92-30.81 66.84-30.81 65.77-30.81 65.38-30.81L65.38-30.81Q59.13-30.81 52.83-30.66L52.83-30.66Q52.59-28.22 52.54-25.81 52.49-23.39 52.49-20.9L52.49-20.9 74.95-21.14 74.9-15.92Q74.7-15.97 73.95-16.04 73.19-16.11 72.17-16.14 71.14-16.16 69.94-16.19 68.75-16.21 67.7-16.21 66.65-16.21 65.82-16.21 64.99-16.21 64.69-16.21L64.69-16.21Q58.59-16.21 52.44-16.06L52.44-16.06Q52.44-13.87 52.41-11.69 52.39-9.52 52.39-7.32L52.39-7.32 52.39-5.37Q55.86-5.22 59.3-5.22 62.74-5.22 66.21-5.22L66.21-5.22Q66.55-5.22 67.62-5.22 68.7-5.22 70.11-5.22 71.53-5.22 73.07-5.25 74.61-5.27 75.97-5.3 77.34-5.32 78.29-5.37 79.25-5.42 79.49-5.52L79.49-5.52 80.03-0.1ZM123.97 0L114.79 0Q114.84-0.05 114.84-0.2L114.84-0.2Q114.84-0.54 114.57-1.34 114.3-2.15 113.98-3.05 113.67-3.96 113.33-4.76 112.98-5.57 112.84-5.91L112.84-5.91Q107.66-6.1 102.46-6.05 97.26-6.01 92.08-5.81L92.08-5.81Q91.94-5.47 91.6-4.66 91.25-3.86 90.94-2.98 90.62-2.1 90.35-1.32 90.08-0.54 90.08-0.2L90.08-0.2Q90.08-0.05 90.13 0L90.13 0 81 0Q81.29-0.34 81.71-1.1 82.12-1.86 82.54-2.71 82.95-3.56 83.34-4.37 83.74-5.18 83.93-5.62L83.93-5.62Q84.47-6.69 85.64-9.08 86.81-11.47 88.25-14.53 89.69-17.58 91.23-20.92 92.77-24.27 94.04-27.25 95.31-30.22 96.11-32.47 96.92-34.72 96.92-35.55L96.92-35.55Q96.92-35.64 96.89-35.77 96.87-35.89 96.77-35.89L96.77-35.89 108.2-35.89Q108.1-35.89 108.08-35.77 108.05-35.64 108.05-35.55L108.05-35.55Q108.05-34.72 108.86-32.47 109.66-30.22 110.93-27.25 112.2-24.27 113.74-20.92 115.28-17.58 116.72-14.53 118.16-11.47 119.31-9.08 120.45-6.69 120.99-5.62L120.99-5.62Q121.19-5.18 121.58-4.37 121.97-3.56 122.41-2.71 122.85-1.86 123.26-1.1 123.68-0.34 123.97 0L123.97 0ZM94.09-10.45L96.14-10.4Q103.41-10.4 110.74-10.69L110.74-10.69Q108.74-15.14 106.76-19.48 104.78-23.83 102.49-28.08L102.49-28.08Q100.14-23.78 98.14-19.34 96.14-14.89 94.09-10.45L94.09-10.45ZM158.44-0.1L125.53 0Q125.82-0.29 126.02-1.88 126.21-3.47 126.34-5.71 126.46-7.96 126.48-10.57 126.51-13.18 126.51-15.58 126.51-17.97 126.48-19.82 126.46-21.68 126.46-22.41L126.46-22.41Q126.46-22.8 126.48-23.95 126.51-25.1 126.48-26.56 126.46-28.03 126.38-29.64 126.31-31.25 126.12-32.62 125.92-33.98 125.58-34.91 125.24-35.84 124.75-35.99L124.75-35.99 135.69-35.99Q135.05-35.99 134.64-34.86 134.22-33.74 133.98-32.03 133.73-30.32 133.61-28.25 133.49-26.17 133.44-24.27 133.39-22.36 133.39-20.87 133.39-19.38 133.39-18.85L133.39-18.85Q133.39-15.48 133.32-12.11 133.24-8.74 133.34-5.37L133.34-5.37Q135-5.27 136.42-5.25 137.83-5.22 139.2-5.22 140.57-5.22 142.01-5.22 143.45-5.22 145.11-5.22L145.11-5.22Q145.45-5.22 146.48-5.22 147.5-5.22 148.85-5.22 150.19-5.22 151.7-5.25 153.22-5.27 154.51-5.3 155.8-5.32 156.73-5.37 157.66-5.42 157.9-5.52L157.9-5.52 158.44-0.1ZM188.86-30.96Q188.66-31.05 187.56-31.1 186.46-31.15 184.93-31.18 183.39-31.2 181.61-31.23 179.82-31.25 178.24-31.25 176.65-31.25 175.45-31.25 174.26-31.25 173.87-31.25L173.87-31.25Q173.48-27.59 173.45-23.93 173.43-20.26 173.43-16.6L173.43-16.6Q173.43-14.26 173.38-11.96 173.33-9.67 173.33-7.32L173.33-7.32Q173.33-6.93 173.33-5.83 173.33-4.74 173.38-3.52 173.43-2.29 173.6-1.27 173.77-0.24 174.06 0L174.06 0 165.52 0Q165.86-0.29 166.03-1.88 166.2-3.47 166.32-5.71 166.45-7.96 166.47-10.6 166.49-13.23 166.49-15.63 166.49-18.02 166.47-19.85 166.45-21.68 166.45-22.41L166.45-22.41Q166.45-24.61 166.42-26.81 166.4-29 166.25-31.2L166.25-31.2Q163.08-31.2 159.95-31.18 156.83-31.15 153.65-31.1L153.65-31.1Q153.16-31.1 152.41-31.08 151.65-31.05 150.82-31.05 149.99-31.05 149.23-31.01 148.48-30.96 148.04-30.86L148.04-30.86 147.89-35.94 188.91-36.18 188.86-30.96ZM229.68-35.99Q229.04-35.99 228.65-34.86 228.26-33.74 228.01-32.03 227.77-30.32 227.65-28.25 227.53-26.17 227.48-24.27 227.43-22.36 227.43-20.9 227.43-19.43 227.43-18.9L227.43-18.9Q227.43-15.97 227.4-13.11 227.38-10.25 227.38-7.32L227.38-7.32Q227.38-6.93 227.38-5.81 227.38-4.69 227.43-3.49 227.48-2.29 227.65-1.27 227.82-0.24 228.11 0L228.11 0 219.57 0Q219.86-0.24 220.03-1.44 220.2-2.64 220.3-4.27 220.4-5.91 220.45-7.81 220.5-9.72 220.5-11.43 220.5-13.13 220.5-14.43 220.5-15.72 220.5-16.16L220.5-16.16Q215.56-16.36 210.68-16.41 205.8-16.46 200.87-16.46L200.87-16.46 199.06-16.46Q199.06-14.16 199.04-11.91 199.01-9.67 199.01-7.37L199.01-7.37Q199.01-6.98 199.01-5.86 199.01-4.74 199.06-3.52 199.11-2.29 199.28-1.27 199.45-0.24 199.74 0L199.74 0 191.2 0Q191.49-0.29 191.69-1.88 191.88-3.47 192-5.71 192.13-7.96 192.15-10.6 192.18-13.23 192.18-15.63 192.18-18.02 192.15-19.85 192.13-21.68 192.13-22.41L192.13-22.41Q192.13-22.8 192.15-23.95 192.18-25.1 192.15-26.56 192.13-28.03 192.05-29.64 191.98-31.25 191.78-32.62 191.59-33.98 191.25-34.91 190.91-35.84 190.42-35.99L190.42-35.99 201.35-35.99Q200.77-35.99 200.38-35.01 199.99-34.03 199.74-32.52 199.5-31.01 199.35-29.17 199.21-27.34 199.16-25.68 199.11-24.02 199.11-22.73 199.11-21.44 199.11-21L199.11-21Q204.43-20.9 209.78-20.85 215.12-20.8 220.5-20.95L220.5-20.95 220.5-22.41Q220.5-22.85 220.52-23.97 220.54-25.1 220.52-26.56 220.5-28.03 220.42-29.64 220.35-31.25 220.15-32.62 219.96-33.98 219.62-34.91 219.27-35.84 218.79-35.99L218.79-35.99 229.68-35.99ZM284.85-19.92Q285.68-21.04 286.48-22.53 287.29-24.02 287.29-25.54L287.29-25.54Q287.29-27.25 286.14-28.34 284.99-29.44 283.38-30.08 281.77-30.71 279.99-30.96 278.21-31.2 276.89-31.2L276.89-31.2Q273.71-31.2 270.47-30.03 267.22-28.86 264.58-26.76 261.95-24.66 260.26-21.78 258.58-18.9 258.58-15.48L258.58-15.48Q258.58-13.43 259.33-11.87 260.09-10.3 261.38-9.18 262.68-8.06 264.34-7.28 266-6.49 267.83-6.05 269.66-5.62 271.52-5.42 273.37-5.22 274.98-5.22L274.98-5.22Q278.99-5.22 282.94-5.91 286.9-6.59 290.8-7.67L290.8-7.67 292.71-2.59Q290.61-1.9 288.29-1.42 285.97-0.93 283.6-0.63 281.23-0.34 278.86-0.2 276.5-0.05 274.3-0.05L274.3-0.05Q272.15-0.05 269.49-0.34 266.83-0.63 264.14-1.29 261.46-1.95 258.89-3.03 256.33-4.1 254.33-5.71 252.33-7.32 251.13-9.47 249.93-11.62 249.93-14.4L249.93-14.4Q249.93-17.77 251.23-20.73 252.52-23.68 254.67-26.1 256.82-28.52 259.7-30.4 262.58-32.28 265.75-33.57 268.93-34.86 272.2-35.52 275.47-36.18 278.5-36.18L278.5-36.18Q281.33-36.18 284.28-35.74 287.24-35.3 289.66-34.06 292.07-32.81 293.61-30.64 295.15-28.47 295.15-24.95L295.15-24.95Q295.15-23.68 294.95-22.41 294.76-21.14 294.37-19.92L294.37-19.92 284.85-19.92ZM333.43-0.1L297.98 0Q298.27-0.29 298.47-1.88 298.66-3.47 298.78-5.71 298.91-7.96 298.93-10.6 298.95-13.23 298.95-15.63 298.95-18.02 298.93-19.85 298.91-21.68 298.91-22.41L298.91-22.41Q298.91-22.85 298.91-23.93 298.91-25 298.88-26.32 298.86-27.64 298.81-29.13 298.76-30.62 298.64-31.88 298.52-33.15 298.32-34.11 298.12-35.06 297.83-35.4L297.83-35.4Q297.69-35.55 297.51-35.69 297.34-35.84 297.2-35.99L297.2-35.99 332.65-35.89 332.11-30.47Q331.86-30.57 330.91-30.62 329.96-30.66 328.59-30.71 327.23-30.76 325.66-30.79 324.1-30.81 322.71-30.81 321.32-30.81 320.24-30.81 319.17-30.81 318.78-30.81L318.78-30.81Q312.53-30.81 306.23-30.66L306.23-30.66Q305.99-28.22 305.94-25.81 305.89-23.39 305.89-20.9L305.89-20.9 328.35-21.14 328.3-15.92Q328.11-15.97 327.35-16.04 326.59-16.11 325.57-16.14 324.54-16.16 323.34-16.19 322.15-16.21 321.1-16.21 320.05-16.21 319.22-16.21 318.39-16.21 318.1-16.21L318.1-16.21Q311.99-16.21 305.84-16.06L305.84-16.06Q305.84-13.87 305.81-11.69 305.79-9.52 305.79-7.32L305.79-7.32 305.79-5.37Q309.26-5.22 312.7-5.22 316.14-5.22 319.61-5.22L319.61-5.22Q319.95-5.22 321.02-5.22 322.1-5.22 323.52-5.22 324.93-5.22 326.47-5.25 328.01-5.27 329.37-5.3 330.74-5.32 331.69-5.37 332.65-5.42 332.89-5.52L332.89-5.52 333.43-0.1ZM374.54-35.99Q373.9-35.99 373.51-34.86 373.12-33.74 372.85-32.03 372.58-30.32 372.46-28.25 372.34-26.17 372.32-24.27 372.29-22.36 372.29-20.87 372.29-19.38 372.29-18.85L372.29-18.85Q372.29-15.97 372.24-13.11 372.19-10.25 372.19-7.32L372.19-7.32Q372.19-6.93 372.19-5.83 372.19-4.74 372.24-3.52 372.29-2.29 372.46-1.27 372.63-0.24 372.93 0L372.93 0 364.33 0Q363.7-0.73 363.14-1.54 362.58-2.34 361.99-3.13L361.99-3.13 358.28-8.11Q355.15-12.3 351.98-16.46 348.81-20.61 345.44-24.66L345.44-24.66Q345.24-23.05 345.19-21.41 345.14-19.78 345.09-18.16L345.09-18.16Q345-15.67 344.95-13.18 344.9-10.69 344.9-8.2L344.9-8.2Q344.9-7.81 344.9-6.57 344.9-5.32 344.95-3.96 345-2.59 345.12-1.42 345.24-0.24 345.49 0L345.49 0 336.94 0Q337.23-0.29 337.43-1.88 337.62-3.47 337.72-5.71 337.82-7.96 337.87-10.57 337.92-13.18 337.92-15.58 337.92-17.97 337.89-19.82 337.87-21.68 337.87-22.41L337.87-22.41Q337.87-22.85 337.89-23.97 337.92-25.1 337.89-26.56 337.87-28.03 337.79-29.64 337.72-31.25 337.53-32.62 337.33-33.98 336.99-34.91 336.65-35.84 336.16-35.99L336.16-35.99 347.98-35.99Q347.83-35.94 347.83-35.6L347.83-35.6Q347.83-34.77 348.93-32.71 350.03-30.66 351.76-28 353.49-25.34 355.57-22.36 357.64-19.38 359.57-16.7 361.5-14.01 363.04-11.94 364.58-9.86 365.26-8.98L365.26-8.98Q365.36-12.35 365.33-15.7 365.31-19.04 365.31-22.41L365.31-22.41Q365.31-22.85 365.33-23.97 365.36-25.1 365.33-26.56 365.31-28.03 365.24-29.64 365.16-31.25 364.97-32.62 364.77-33.98 364.43-34.91 364.09-35.84 363.6-35.99L363.6-35.99 374.54-35.99ZM411.5-30.96Q411.3-31.05 410.2-31.1 409.11-31.15 407.57-31.18 406.03-31.2 404.25-31.23 402.47-31.25 400.88-31.25 399.29-31.25 398.1-31.25 396.9-31.25 396.51-31.25L396.51-31.25Q396.12-27.59 396.09-23.93 396.07-20.26 396.07-16.6L396.07-16.6Q396.07-14.26 396.02-11.96 395.97-9.67 395.97-7.32L395.97-7.32Q395.97-6.93 395.97-5.83 395.97-4.74 396.02-3.52 396.07-2.29 396.24-1.27 396.41-0.24 396.7 0L396.7 0 388.16 0Q388.5-0.29 388.67-1.88 388.84-3.47 388.96-5.71 389.09-7.96 389.11-10.6 389.14-13.23 389.14-15.63 389.14-18.02 389.11-19.85 389.09-21.68 389.09-22.41L389.09-22.41Q389.09-24.61 389.06-26.81 389.04-29 388.89-31.2L388.89-31.2Q385.72-31.2 382.59-31.18 379.47-31.15 376.29-31.1L376.29-31.1Q375.81-31.1 375.05-31.08 374.29-31.05 373.46-31.05 372.63-31.05 371.87-31.01 371.12-30.96 370.68-30.86L370.68-30.86 370.53-35.94 411.55-36.18 411.5-30.96ZM448.75-0.1L413.3 0Q413.6-0.29 413.79-1.88 413.99-3.47 414.11-5.71 414.23-7.96 414.25-10.6 414.28-13.23 414.28-15.63 414.28-18.02 414.25-19.85 414.23-21.68 414.23-22.41L414.23-22.41Q414.23-22.85 414.23-23.93 414.23-25 414.21-26.32 414.18-27.64 414.13-29.13 414.08-30.62 413.96-31.88 413.84-33.15 413.64-34.11 413.45-35.06 413.16-35.4L413.16-35.4Q413.01-35.55 412.84-35.69 412.67-35.84 412.52-35.99L412.52-35.99 447.97-35.89 447.43-30.47Q447.19-30.57 446.24-30.62 445.29-30.66 443.92-30.71 442.55-30.76 440.99-30.79 439.43-30.81 438.03-30.81 436.64-30.81 435.57-30.81 434.49-30.81 434.1-30.81L434.1-30.81Q427.85-30.81 421.55-30.66L421.55-30.66Q421.31-28.22 421.26-25.81 421.21-23.39 421.21-20.9L421.21-20.9 443.67-21.14 443.62-15.92Q443.43-15.97 442.67-16.04 441.92-16.11 440.89-16.14 439.87-16.16 438.67-16.19 437.47-16.21 436.42-16.21 435.37-16.21 434.54-16.21 433.71-16.21 433.42-16.21L433.42-16.21Q427.32-16.21 421.16-16.06L421.16-16.06Q421.16-13.87 421.14-11.69 421.12-9.52 421.12-7.32L421.12-7.32 421.12-5.37Q424.58-5.22 428.02-5.22 431.47-5.22 434.93-5.22L434.93-5.22Q435.28-5.22 436.35-5.22 437.42-5.22 438.84-5.22 440.26-5.22 441.79-5.25 443.33-5.27 444.7-5.3 446.07-5.32 447.02-5.37 447.97-5.42 448.21-5.52L448.21-5.52 448.75-0.1ZM475.41-14.26L475.41-14.26Q475.85-13.87 477.17-12.65 478.49-11.43 480.22-9.86 481.95-8.3 483.88-6.59 485.81-4.88 487.49-3.44 489.18-2 490.4-1.03 491.62-0.05 491.96 0L491.96 0 481.85 0Q481.56-0.39 481.02-0.95 480.49-1.51 479.9-2.08 479.32-2.64 478.75-3.17 478.19-3.71 477.8-4.05L477.8-4.05Q475.41-6.4 472.99-8.62 470.58-10.84 468.04-13.04L468.04-13.04Q466.03-12.79 464.08-12.72 462.13-12.65 460.13-12.55L460.13-12.55Q460.08-11.23 460.08-9.94 460.08-8.64 460.08-7.32L460.08-7.32Q460.08-6.88 460.08-5.81 460.08-4.74 460.13-3.52 460.18-2.29 460.35-1.29 460.52-0.29 460.81 0L460.81 0 452.26 0Q452.56-0.29 452.75-1.88 452.95-3.47 453.05-5.71 453.14-7.96 453.19-10.57 453.24-13.18 453.24-15.58 453.24-17.97 453.22-19.82 453.19-21.68 453.19-22.41L453.19-22.41Q453.19-22.85 453.22-23.97 453.24-25.1 453.22-26.56 453.19-28.03 453.12-29.64 453.05-31.25 452.85-32.62 452.66-33.98 452.31-34.91 451.97-35.84 451.48-35.99L451.48-35.99Q451.63-35.99 452.44-35.99 453.24-35.99 454.39-35.99 455.54-35.99 456.83-35.99 458.12-35.99 459.27-35.99 460.42-35.99 461.2-35.96 461.98-35.94 462.13-35.94L462.13-35.94Q463.89-35.94 466.6-35.86 469.31-35.79 472.36-35.45 475.41-35.11 478.49-34.45 481.56-33.79 484.03-32.57 486.49-31.35 488.06-29.52 489.62-27.69 489.62-25.05L489.62-25.05Q489.62-22.51 488.15-20.68 486.69-18.85 484.52-17.58 482.34-16.31 479.88-15.5 477.41-14.7 475.41-14.26ZM480.78-25.15L480.78-25.15Q480.78-26.61 479.56-27.61 478.34-28.61 476.41-29.22 474.48-29.83 472.11-30.13 469.75-30.42 467.5-30.54 465.25-30.66 463.37-30.66 461.49-30.66 460.52-30.66L460.52-30.66Q460.27-27.93 460.2-25.22 460.13-22.51 460.13-19.78L460.13-19.78 460.13-18.46Q462.03-18.51 463.93-18.55 465.84-18.6 467.69-18.75L467.69-18.75Q468.62-18.8 469.94-18.95 471.26-19.09 472.72-19.36 474.19-19.63 475.63-20.07 477.07-20.51 478.22-21.19 479.36-21.88 480.07-22.85 480.78-23.83 480.78-25.15Z" opacity="1" transform="matrix(1,0,0,1,0,0)" fill="#ff58ff" class="undefined-text-1" data-fill-palette-color="quaternary" id="text-1"></path></svg></g></svg></g></svg></g></svg></g><g transform="matrix(1,0,0,1,41.21523409996064,0)"><svg viewBox="0 0 130.72797302723583 101.33134050569389" height="101.33134050569389" width="130.72797302723583"><g><svg xmlns="http://www.w3.org/2000/svg" xmlns:xlink="http://www.w3.org/1999/xlink" version="1.1" x="0" y="0" viewBox="4.823001861572266 14.980999946594238 90.35501098632812 70.03699493408203" enable-background="new 0 0 100 100" xml:space="preserve" height="101.33134050569389" width="130.72797302723583" class="icon-icon-0" data-fill-palette-color="quaternary" id="icon-0"><path fill="#ff58ff" d="M71.611 14.981c-9.679 0-17.985 5.842-21.614 14.185-3.628-8.343-11.922-14.185-21.601-14.185-13.023 0-23.573 10.553-23.573 23.57 0 7.755 3.807 14.581 9.58 18.876l35.594 27.591 35.601-27.591c5.78-4.295 9.58-11.121 9.58-18.876C95.178 25.535 84.621 14.981 71.611 14.981zM72.329 53.09H59.881l-3.455-9.343L48.84 67.1l-7.623-17.074-0.762 2.175H27.673v-3.558h10.258l2.886-8.241 7.499 16.795 7.892-24.296 6.152 16.631h9.97V53.09z" data-fill-palette-color="quaternary"></path></svg></g></svg></g><g></g></svg></g></svg></g></svg></g></svg></g></svg><rect width="342.85155851775386" height="342.85155851775386" fill="none" stroke="none" visibility="hidden"></rect></g></svg></g></svg>