<?xml version="1.0" encoding="UTF-8" standalone="no"?>
<svg
   version="1.1"
   width="1000"
   height="750"
   viewBox="0 0 1000 750"
   id="svg78"
   sodipodi:docname="color-logo.svg"
   inkscape:export-filename="color-logo.png"
   inkscape:export-xdpi="96"
   inkscape:export-ydpi="96"
   inkscape:version="1.2.1 (9c6d41e, 2022-07-14)"
   xmlns:inkscape="http://www.inkscape.org/namespaces/inkscape"
   xmlns:sodipodi="http://sodipodi.sourceforge.net/DTD/sodipodi-0.dtd"
   xmlns="http://www.w3.org/2000/svg"
   xmlns:svg="http://www.w3.org/2000/svg">
  <defs
     id="defs82" />
  <sodipodi:namedview
     id="namedview80"
     pagecolor="#ffffff"
     bordercolor="#000000"
     borderopacity="0.25"
     inkscape:showpageshadow="2"
     inkscape:pageopacity="0.0"
     inkscape:pagecheckerboard="0"
     inkscape:deskcolor="#d1d1d1"
     showgrid="false"
     inkscape:zoom="1.0746667"
     inkscape:cx="453.62903"
     inkscape:cy="375.46526"
     inkscape:window-width="1390"
     inkscape:window-height="1051"
     inkscape:window-x="0"
     inkscape:window-y="38"
     inkscape:window-maximized="0"
     inkscape:current-layer="svg78" />
  <rect
     width="1000"
     height="750"
     fill="#ffffff"
     id="rect2" />
  <g
     transform="matrix(0.58458458,0,0,0.58458458,205.72055,63.333063)"
     id="g76">
    <svg
       viewBox="0 0 343 343"
       data-background-color="#ffffff"
       preserveAspectRatio="xMidYMid"
       height="999"
       width="1000"
       version="1.1"
       id="svg74">
      <defs
         id="defs4" />
      <g
         id="tight-bounds"
         transform="translate(0.074,0.074)">
        <svg
           viewBox="0 0 342.85156 342.85156"
           height="342.85156"
           width="342.85156"
           version="1.1"
           id="svg69">
          <g
             id="g8">
            <svg
               version="1.1"
               id="svg6"
               width="100%"
               height="100%" />
          </g>
          <g
             id="g67">
            <svg
               viewBox="0 0 342.85156 342.85156"
               height="342.85156"
               width="342.85156"
               version="1.1"
               id="svg65">
              <g
                 id="g14">
                <path
                   d="M 0,171.426 C 0,76.75 76.75,0 171.426,0 c 94.676,0 171.426,76.75 171.426,171.426 0,94.676 -76.75,171.426 -171.426,171.426 C 76.75,342.852 0,266.102 0,171.426 Z m 171.426,166.785 c 92.113,0 166.785,-74.672 166.785,-166.785 C 338.211,79.313 263.539,4.641 171.426,4.64 79.313,4.64 4.641,79.312 4.64,171.426 c 0,92.113 74.672,166.785 166.786,166.785 z"
                   data-fill-palette-color="tertiary"
                   fill="#233565"
                   stroke="transparent"
                   id="path10" />
                <circle
                   cx="171.42578"
                   cy="171.42578"
                   fill="#233565"
                   stroke="transparent"
                   stroke-width="0"
                   fill-opacity="1"
                   data-fill-palette-color="tertiary"
                   id="ellipse12"
                   r="164.56874" />
              </g>
              <g
                 transform="translate(64.846559,78.025118)"
                 id="g63">
                <svg
                   viewBox="0 0 213.15844 186.80132"
                   height="186.80132"
                   width="213.15845"
                   version="1.1"
                   id="svg61">
                  <g
                     id="g59">
                    <svg
                       viewBox="0 0 213.15844 186.80132"
                       height="186.80132"
                       width="213.15845"
                       version="1.1"
                       id="svg57">
                      <g
                         id="g55">
                        <svg
                           viewBox="0 0 213.15844 186.80132"
                           height="186.80132"
                           width="213.15845"
                           version="1.1"
                           id="svg53">
                          <g
                             transform="translate(0,113.47908)"
                             id="g40">
                            <svg
                               viewBox="0 0 213.15844 73.322243"
                               height="73.322243"
                               width="213.15845"
                               version="1.1"
                               id="svg38">
                              <g
                                 id="g36">
                                <svg
                                   viewBox="0 0 213.15844 73.322243"
                                   height="73.322243"
                                   width="213.15845"
                                   version="1.1"
                                   id="svg34">
                                <g
                                   id="g23">
                                <svg
                                   viewBox="0 0 213.15844 51.456899"
                                   height="51.456898"
                                   width="213.15845"
                                   version="1.1"
                                   id="svg21">
                                <g
                                   id="g19">
                                <svg
                                   width="213.15845"
                                   viewBox="2.4000001 -36 151.19 36.5"
                                   height="51.456898"
                                   data-palette-color="#ff58ff"
                                   version="1.1"
                                   id="svg17">
                                <path
                                   d="m 22.35,-3.45 q 0,1.65 1.35,1.65 v 0 q 1.15,0 2.5,-0.8 v 0 2.15 Q 24.8,0.5 23,0.5 v 0 q -1.8,0 -2.5,-1.33 -0.7,-1.32 -0.7,-3.62 v 0 Q 18.25,-1.9 15.93,-0.7 13.6,0.5 10.45,0.5 v 0 Q 6.9,0.5 4.65,-1.13 2.4,-2.75 2.4,-6.65 v 0 q 0,-3.55 2.13,-5.33 2.12,-1.77 5.75,-2.3 3.62,-0.52 9.52,-0.52 v 0 -3.2 q 0,-3.2 -1.52,-4.48 -1.53,-1.27 -5.13,-1.27 v 0 q -3.3,0 -5.3,1.27 -2,1.28 -2,3.93 v 0 0.8 H 3.4 q -0.1,-0.8 -0.1,-1.3 v 0 q 0,-3.25 2.78,-5.13 2.77,-1.87 7.07,-1.87 v 0 q 4.65,0 6.93,1.85 2.27,1.85 2.27,5.7 v 0 z M 19.8,-12.5 q -5.3,0 -8.32,0.35 -3.03,0.35 -4.78,1.62 -1.75,1.28 -1.75,3.93 v 0 q 0,2.5 1.43,3.65 1.42,1.15 4.57,1.15 v 0 q 2.25,0 4.28,-1 2.02,-1 3.3,-3.03 1.27,-2.02 1.27,-4.97 v 0 z m 38.75,-13.55 q 3.8,0 6.2,2.42 2.4,2.43 2.4,7.18 v 0 V 0 H 64.6 v -15.7 q 0,-8.05 -6.25,-8.05 v 0 q -3,0 -4.9,2.3 -1.9,2.3 -1.9,5.75 v 0 V 0 H 49 v -15.7 q 0,-8.05 -6.25,-8.05 v 0 q -3,0 -4.9,2.3 -1.9,2.3 -1.9,5.75 v 0 V 0 H 33.4 v -25.55 h 1.7 l 0.6,3.8 q 1.1,-2 3.05,-3.15 1.95,-1.15 4.2,-1.15 v 0 q 2.55,0 4.57,1.1 2.03,1.1 3.13,3.25 v 0 q 1.1,-1.85 3.17,-3.1 2.08,-1.25 4.73,-1.25 z M 92,-16.4 v -0.8 q 0,-2.5 -1.45,-4.53 -1.46,-2.02 -4.8,-2.02 v 0 q -2.31,0 -3.75,1.22 -1.45,1.23 -2.08,2.98 -0.62,1.75 -0.62,3.35 v 0 V 0 h -2.55 v -25.55 h 1.69 l 0.56,3.8 q 0,-0.2 0.77,-1.3 0.78,-1.1 2.4,-2.05 1.63,-0.95 4.08,-0.95 v 0 q 3.94,0 6.07,2.42 2.12,2.43 2.12,6.03 v 0 q 0,0.5 -0.05,0.8 -0.05,0.3 -0.05,0.4 v 0 z m 9.14,-16.9 V -36 h 2.95 v 2.7 z M 103.89,0 h -2.55 v -25.55 h 2.55 z m 19.65,-0.35 q -0.65,0.4 -1.57,0.63 -0.93,0.22 -1.83,0.22 v 0 q -2.3,0 -3.7,-1.4 -1.4,-1.4 -1.4,-4.15 v 0 -18.2 h -2.8 v -2.3 h 2.8 l 0.9,-8.15 h 1.65 v 8.15 h 5.95 v 2.3 h -5.95 v 18.1 q 0,2 0.78,2.67 0.77,0.68 2.07,0.68 v 0 q 0.55,0 1.5,-0.25 0.95,-0.25 1.6,-0.55 v 0 z m 26.2,-3.1 q 0,1.65 1.35,1.65 v 0 q 1.15,0 2.5,-0.8 v 0 2.15 q -1.4,0.95 -3.2,0.95 v 0 q -1.8,0 -2.5,-1.33 -0.7,-1.32 -0.7,-3.62 v 0 q -1.55,2.55 -3.88,3.75 -2.32,1.2 -5.47,1.2 v 0 q -3.55,0 -5.8,-1.63 -2.25,-1.62 -2.25,-5.52 v 0 q 0,-3.55 2.12,-5.33 2.13,-1.77 5.75,-2.3 3.63,-0.52 9.53,-0.52 v 0 -3.2 q 0,-3.2 -1.53,-4.48 -1.52,-1.27 -5.12,-1.27 v 0 q -3.3,0 -5.3,1.27 -2,1.28 -2,3.93 v 0 0.8 h -2.45 q -0.1,-0.8 -0.1,-1.3 v 0 q 0,-3.25 2.77,-5.13 2.78,-1.87 7.08,-1.87 v 0 q 4.65,0 6.92,1.85 2.28,1.85 2.28,5.7 v 0 z m -2.55,-9.05 q -5.3,0 -8.33,0.35 -3.02,0.35 -4.77,1.62 -1.75,1.28 -1.75,3.93 v 0 q 0,2.5 1.42,3.65 1.43,1.15 4.58,1.15 v 0 q 2.25,0 4.27,-1 2.03,-1 3.3,-3.03 1.28,-2.02 1.28,-4.97 v 0 z"
                                   opacity="1"
                                   fill="#ff58ff"
                                   class="undefined-text-0"
                                   data-fill-palette-color="quaternary"
                                   id="text-0" />
                                </svg>
                                </g>
                                </svg>
                                </g>
                                <g
                                   transform="translate(40.713262,63.604638)"
                                   id="g32">
                                <svg
                                   viewBox="0 0 131.73192 9.7176058"
                                   height="9.7176056"
                                   width="131.73192"
                                   version="1.1"
                                   id="svg30">
                                <g
                                   id="g28">
                                <svg
                                   width="131.73192"
                                   viewBox="1.51 -36.18 490.44998 36.18"
                                   height="9.7176056"
                                   data-palette-color="#ff58ff"
                                   version="1.1"
                                   id="svg26">
                                <path
                                   d="m 40.77,-35.99 q -0.63,0 -1.02,1.13 -0.39,1.12 -0.64,2.83 -0.24,1.71 -0.36,3.78 -0.13,2.08 -0.18,3.98 -0.04,1.91 -0.04,3.37 0,1.47 0,2 v 0 q 0,2.93 -0.03,5.79 -0.02,2.86 -0.02,5.79 v 0 q 0,0.39 0,1.51 0,1.12 0.05,2.32 0.04,1.2 0.22,2.22 0.17,1.03 0.46,1.27 v 0 h -8.55 q 0.3,-0.24 0.47,-1.44 0.17,-1.2 0.27,-2.83 0.09,-1.64 0.14,-3.54 0.05,-1.91 0.05,-3.62 0,-1.7 0,-3 0,-1.29 0,-1.73 v 0 q -4.93,-0.2 -9.81,-0.25 -4.89,-0.05 -9.82,-0.05 v 0 h -1.8 q 0,2.3 -0.03,4.55 -0.02,2.24 -0.02,4.54 v 0 q 0,0.39 0,1.51 0,1.12 0.05,2.34 0.05,1.23 0.22,2.25 0.17,1.03 0.46,1.27 V 0 H 2.29 q 0.3,-0.29 0.49,-1.88 0.2,-1.59 0.32,-3.83 0.12,-2.25 0.15,-4.89 0.02,-2.63 0.02,-5.03 0,-2.39 -0.02,-4.22 -0.03,-1.83 -0.03,-2.56 v 0 q 0,-0.39 0.03,-1.54 0.02,-1.15 0,-2.61 -0.03,-1.47 -0.1,-3.08 Q 3.08,-31.25 2.88,-32.62 2.69,-33.98 2.34,-34.91 2,-35.84 1.51,-35.99 v 0 h 10.94 q -0.58,0 -0.98,0.98 -0.39,0.98 -0.63,2.49 -0.24,1.51 -0.39,3.35 -0.15,1.83 -0.2,3.49 -0.04,1.66 -0.04,2.95 0,1.29 0,1.73 v 0 q 5.32,0.1 10.66,0.15 5.35,0.05 10.72,-0.1 v 0 -1.46 q 0,-0.44 0.03,-1.56 0.02,-1.13 0,-2.59 -0.03,-1.47 -0.1,-3.08 -0.07,-1.61 -0.27,-2.98 -0.2,-1.36 -0.54,-2.29 -0.34,-0.93 -0.83,-1.08 v 0 z M 80.03,-0.1 44.58,0 q 0.29,-0.29 0.49,-1.88 0.19,-1.59 0.31,-3.83 0.13,-2.25 0.15,-4.89 0.02,-2.63 0.02,-5.03 0,-2.39 -0.02,-4.22 -0.02,-1.83 -0.02,-2.56 v 0 q 0,-0.44 0,-1.52 0,-1.07 -0.03,-2.39 -0.02,-1.32 -0.07,-2.81 -0.05,-1.49 -0.17,-2.75 -0.13,-1.27 -0.32,-2.23 -0.2,-0.95 -0.49,-1.29 v 0 q -0.15,-0.15 -0.32,-0.29 -0.17,-0.15 -0.31,-0.3 v 0 l 35.45,0.1 -0.54,5.42 q -0.25,-0.1 -1.2,-0.15 -0.95,-0.04 -2.32,-0.09 -1.36,-0.05 -2.93,-0.08 -1.56,-0.02 -2.95,-0.02 -1.39,0 -2.47,0 -1.07,0 -1.46,0 v 0 q -6.25,0 -12.55,0.15 v 0 q -0.24,2.44 -0.29,4.85 -0.05,2.42 -0.05,4.91 v 0 l 22.46,-0.24 -0.05,5.22 q -0.2,-0.05 -0.95,-0.12 -0.76,-0.07 -1.78,-0.1 -1.03,-0.02 -2.23,-0.05 -1.19,-0.02 -2.24,-0.02 -1.05,0 -1.88,0 -0.83,0 -1.13,0 v 0 q -6.1,0 -12.25,0.15 v 0 q 0,2.19 -0.03,4.37 -0.02,2.17 -0.02,4.37 v 0 1.95 q 3.47,0.15 6.91,0.15 3.44,0 6.91,0 v 0 q 0.34,0 1.41,0 1.08,0 2.49,0 1.42,0 2.96,-0.03 1.54,-0.02 2.9,-0.05 1.37,-0.02 2.32,-0.07 0.96,-0.05 1.2,-0.15 v 0 z M 123.97,0 h -9.18 q 0.05,-0.05 0.05,-0.2 v 0 q 0,-0.34 -0.27,-1.14 -0.27,-0.81 -0.59,-1.71 -0.31,-0.91 -0.65,-1.71 -0.35,-0.81 -0.49,-1.15 v 0 q -5.18,-0.19 -10.38,-0.14 -5.2,0.04 -10.38,0.24 v 0 q -0.14,0.34 -0.48,1.15 -0.35,0.8 -0.66,1.68 -0.32,0.88 -0.59,1.66 -0.27,0.78 -0.27,1.12 v 0 q 0,0.15 0.05,0.2 V 0 H 81 q 0.29,-0.34 0.71,-1.1 0.41,-0.76 0.83,-1.61 0.41,-0.85 0.8,-1.66 0.4,-0.81 0.59,-1.25 v 0 q 0.54,-1.07 1.71,-3.46 1.17,-2.39 2.61,-5.45 1.44,-3.05 2.98,-6.39 1.54,-3.35 2.81,-6.33 1.27,-2.97 2.07,-5.22 0.81,-2.25 0.81,-3.08 v 0 q 0,-0.09 -0.03,-0.22 -0.02,-0.12 -0.12,-0.12 v 0 h 11.43 q -0.1,0 -0.12,0.12 -0.03,0.13 -0.03,0.22 v 0 q 0,0.83 0.81,3.08 0.8,2.25 2.07,5.22 1.27,2.98 2.81,6.33 1.54,3.34 2.98,6.39 1.44,3.06 2.59,5.45 1.14,2.39 1.68,3.46 v 0 q 0.2,0.44 0.59,1.25 0.39,0.81 0.83,1.66 0.44,0.85 0.85,1.61 0.42,0.76 0.71,1.1 z m -29.88,-10.45 2.05,0.05 q 7.27,0 14.6,-0.29 v 0 q -2,-4.45 -3.98,-8.79 -1.98,-4.35 -4.27,-8.6 v 0 q -2.35,4.3 -4.35,8.74 -2,4.45 -4.05,8.89 z M 158.44,-0.1 125.53,0 q 0.29,-0.29 0.49,-1.88 0.19,-1.59 0.32,-3.83 0.12,-2.25 0.14,-4.86 0.03,-2.61 0.03,-5.01 0,-2.39 -0.03,-4.24 -0.02,-1.86 -0.02,-2.59 v 0 q 0,-0.39 0.02,-1.54 0.03,-1.15 0,-2.61 -0.02,-1.47 -0.1,-3.08 -0.07,-1.61 -0.26,-2.98 -0.2,-1.36 -0.54,-2.29 -0.34,-0.93 -0.83,-1.08 v 0 h 10.94 q -0.64,0 -1.05,1.13 -0.42,1.12 -0.66,2.83 -0.25,1.71 -0.37,3.78 -0.12,2.08 -0.17,3.98 -0.05,1.91 -0.05,3.4 0,1.49 0,2.02 v 0 q 0,3.37 -0.07,6.74 -0.08,3.37 0.02,6.74 v 0 q 1.66,0.1 3.08,0.12 1.41,0.03 2.78,0.03 1.37,0 2.81,0 1.44,0 3.1,0 v 0 q 0.34,0 1.37,0 1.02,0 2.37,0 1.34,0 2.85,-0.03 1.52,-0.02 2.81,-0.05 1.29,-0.02 2.22,-0.07 0.93,-0.05 1.17,-0.15 v 0 z m 30.42,-30.86 q -0.2,-0.09 -1.3,-0.14 -1.1,-0.05 -2.63,-0.08 -1.54,-0.02 -3.32,-0.05 -1.79,-0.02 -3.37,-0.02 -1.59,0 -2.79,0 -1.19,0 -1.58,0 v 0 q -0.39,3.66 -0.42,7.32 -0.02,3.67 -0.02,7.33 v 0 q 0,2.34 -0.05,4.64 -0.05,2.29 -0.05,4.64 v 0 q 0,0.39 0,1.49 0,1.09 0.05,2.31 0.05,1.23 0.22,2.25 0.17,1.03 0.46,1.27 v 0 h -8.54 q 0.34,-0.29 0.51,-1.88 0.17,-1.59 0.29,-3.83 0.13,-2.25 0.15,-4.89 0.02,-2.63 0.02,-5.03 0,-2.39 -0.02,-4.22 -0.02,-1.83 -0.02,-2.56 v 0 q 0,-2.2 -0.03,-4.4 -0.02,-2.19 -0.17,-4.39 v 0 q -3.17,0 -6.3,0.02 -3.12,0.03 -6.3,0.08 v 0 q -0.49,0 -1.24,0.02 -0.76,0.03 -1.59,0.03 -0.83,0 -1.59,0.04 -0.75,0.05 -1.19,0.15 v 0 l -0.15,-5.08 41.02,-0.24 z m 40.82,-5.03 q -0.64,0 -1.03,1.13 -0.39,1.12 -0.64,2.83 -0.24,1.71 -0.36,3.78 -0.12,2.08 -0.17,3.98 -0.05,1.91 -0.05,3.37 0,1.47 0,2 v 0 q 0,2.93 -0.03,5.79 -0.02,2.86 -0.02,5.79 v 0 q 0,0.39 0,1.51 0,1.12 0.05,2.32 0.05,1.2 0.22,2.22 0.17,1.03 0.46,1.27 v 0 h -8.54 q 0.29,-0.24 0.46,-1.44 0.17,-1.2 0.27,-2.83 0.1,-1.64 0.15,-3.54 0.05,-1.91 0.05,-3.62 0,-1.7 0,-3 0,-1.29 0,-1.73 v 0 q -4.94,-0.2 -9.82,-0.25 -4.88,-0.05 -9.81,-0.05 v 0 h -1.81 q 0,2.3 -0.02,4.55 -0.03,2.24 -0.03,4.54 v 0 q 0,0.39 0,1.51 0,1.12 0.05,2.34 0.05,1.23 0.22,2.25 0.17,1.03 0.46,1.27 v 0 h -8.54 q 0.29,-0.29 0.49,-1.88 0.19,-1.59 0.31,-3.83 0.13,-2.25 0.15,-4.89 0.03,-2.63 0.03,-5.03 0,-2.39 -0.03,-4.22 -0.02,-1.83 -0.02,-2.56 v 0 q 0,-0.39 0.02,-1.54 0.03,-1.15 0,-2.61 -0.02,-1.47 -0.1,-3.08 -0.07,-1.61 -0.27,-2.98 -0.19,-1.36 -0.53,-2.29 -0.34,-0.93 -0.83,-1.08 v 0 h 10.93 q -0.58,0 -0.97,0.98 -0.39,0.98 -0.64,2.49 -0.24,1.51 -0.39,3.35 -0.14,1.83 -0.19,3.49 -0.05,1.66 -0.05,2.95 0,1.29 0,1.73 v 0 q 5.32,0.1 10.67,0.15 5.34,0.05 10.72,-0.1 v 0 -1.46 q 0,-0.44 0.02,-1.56 0.02,-1.13 0,-2.59 -0.02,-1.47 -0.1,-3.08 -0.07,-1.61 -0.27,-2.98 -0.19,-1.36 -0.53,-2.29 -0.35,-0.93 -0.83,-1.08 v 0 z m 55.17,16.07 q 0.83,-1.12 1.63,-2.61 0.81,-1.49 0.81,-3.01 v 0 q 0,-1.71 -1.15,-2.8 -1.15,-1.1 -2.76,-1.74 -1.61,-0.63 -3.39,-0.88 -1.78,-0.24 -3.1,-0.24 v 0 q -3.18,0 -6.42,1.17 -3.25,1.17 -5.89,3.27 -2.63,2.1 -4.32,4.98 -1.68,2.88 -1.68,6.3 v 0 q 0,2.05 0.75,3.61 0.76,1.57 2.05,2.69 1.3,1.12 2.96,1.9 1.66,0.79 3.49,1.23 1.83,0.43 3.69,0.63 1.85,0.2 3.46,0.2 v 0 q 4.01,0 7.96,-0.69 3.96,-0.68 7.86,-1.76 v 0 l 1.91,5.08 q -2.1,0.69 -4.42,1.17 -2.32,0.49 -4.69,0.79 -2.37,0.29 -4.74,0.43 -2.36,0.15 -4.56,0.15 v 0 q -2.15,0 -4.81,-0.29 -2.66,-0.29 -5.35,-0.95 -2.68,-0.66 -5.25,-1.74 -2.56,-1.07 -4.56,-2.68 -2,-1.61 -3.2,-3.76 -1.2,-2.15 -1.2,-4.93 v 0 q 0,-3.37 1.3,-6.33 1.29,-2.95 3.44,-5.37 2.15,-2.42 5.03,-4.3 2.88,-1.88 6.05,-3.17 3.18,-1.29 6.45,-1.95 3.27,-0.66 6.3,-0.66 v 0 q 2.83,0 5.78,0.44 2.96,0.44 5.38,1.68 2.41,1.25 3.95,3.42 1.54,2.17 1.54,5.69 v 0 q 0,1.27 -0.2,2.54 -0.19,1.27 -0.58,2.49 v 0 z M 333.43,-0.1 297.98,0 q 0.29,-0.29 0.49,-1.88 0.19,-1.59 0.31,-3.83 0.13,-2.25 0.15,-4.89 0.02,-2.63 0.02,-5.03 0,-2.39 -0.02,-4.22 -0.02,-1.83 -0.02,-2.56 v 0 q 0,-0.44 0,-1.52 0,-1.07 -0.03,-2.39 -0.02,-1.32 -0.07,-2.81 -0.05,-1.49 -0.17,-2.75 -0.12,-1.27 -0.32,-2.23 -0.2,-0.95 -0.49,-1.29 v 0 q -0.14,-0.15 -0.32,-0.29 -0.17,-0.15 -0.31,-0.3 v 0 l 35.45,0.1 -0.54,5.42 q -0.25,-0.1 -1.2,-0.15 -0.95,-0.04 -2.32,-0.09 -1.36,-0.05 -2.93,-0.08 -1.56,-0.02 -2.95,-0.02 -1.39,0 -2.47,0 -1.07,0 -1.46,0 v 0 q -6.25,0 -12.55,0.15 v 0 q -0.24,2.44 -0.29,4.85 -0.05,2.42 -0.05,4.91 v 0 l 22.46,-0.24 -0.05,5.22 q -0.19,-0.05 -0.95,-0.12 -0.76,-0.07 -1.78,-0.1 -1.03,-0.02 -2.23,-0.05 -1.19,-0.02 -2.24,-0.02 -1.05,0 -1.88,0 -0.83,0 -1.12,0 v 0 q -6.11,0 -12.26,0.15 v 0 q 0,2.19 -0.03,4.37 -0.02,2.17 -0.02,4.37 v 0 1.95 q 3.47,0.15 6.91,0.15 3.44,0 6.91,0 v 0 q 0.34,0 1.41,0 1.08,0 2.5,0 1.41,0 2.95,-0.03 1.54,-0.02 2.9,-0.05 1.37,-0.02 2.32,-0.07 0.96,-0.05 1.2,-0.15 v 0 z m 41.11,-35.89 q -0.64,0 -1.03,1.13 -0.39,1.12 -0.66,2.83 -0.27,1.71 -0.39,3.78 -0.12,2.08 -0.14,3.98 -0.03,1.91 -0.03,3.4 0,1.49 0,2.02 v 0 q 0,2.88 -0.05,5.74 -0.05,2.86 -0.05,5.79 v 0 q 0,0.39 0,1.49 0,1.09 0.05,2.31 0.05,1.23 0.22,2.25 0.17,1.03 0.47,1.27 v 0 h -8.6 q -0.63,-0.73 -1.19,-1.54 -0.56,-0.8 -1.15,-1.59 v 0 l -3.71,-4.98 q -3.13,-4.19 -6.3,-8.35 -3.17,-4.15 -6.54,-8.2 v 0 q -0.2,1.61 -0.25,3.25 -0.05,1.63 -0.1,3.25 v 0 q -0.09,2.49 -0.14,4.98 -0.05,2.49 -0.05,4.98 v 0 q 0,0.39 0,1.63 0,1.25 0.05,2.61 0.05,1.37 0.17,2.54 0.12,1.18 0.37,1.42 v 0 h -8.55 q 0.29,-0.29 0.49,-1.88 0.19,-1.59 0.29,-3.83 0.1,-2.25 0.15,-4.86 0.05,-2.61 0.05,-5.01 0,-2.39 -0.03,-4.24 -0.02,-1.86 -0.02,-2.59 v 0 q 0,-0.44 0.02,-1.56 0.03,-1.13 0,-2.59 -0.02,-1.47 -0.1,-3.08 -0.07,-1.61 -0.26,-2.98 -0.2,-1.36 -0.54,-2.29 -0.34,-0.93 -0.83,-1.08 v 0 h 11.82 q -0.15,0.05 -0.15,0.39 v 0 q 0,0.83 1.1,2.89 1.1,2.05 2.83,4.71 1.73,2.66 3.81,5.64 2.07,2.98 4,5.66 1.93,2.69 3.47,4.76 1.54,2.08 2.22,2.96 v 0 q 0.1,-3.37 0.07,-6.72 -0.02,-3.34 -0.02,-6.71 v 0 q 0,-0.44 0.02,-1.56 0.03,-1.13 0,-2.59 -0.02,-1.47 -0.09,-3.08 -0.08,-1.61 -0.27,-2.98 -0.2,-1.36 -0.54,-2.29 -0.34,-0.93 -0.83,-1.08 v 0 z m 36.96,5.03 q -0.2,-0.09 -1.3,-0.14 -1.09,-0.05 -2.63,-0.08 -1.54,-0.02 -3.32,-0.05 -1.78,-0.02 -3.37,-0.02 -1.59,0 -2.78,0 -1.2,0 -1.59,0 v 0 q -0.39,3.66 -0.42,7.32 -0.02,3.67 -0.02,7.33 v 0 q 0,2.34 -0.05,4.64 -0.05,2.29 -0.05,4.64 v 0 q 0,0.39 0,1.49 0,1.09 0.05,2.31 0.05,1.23 0.22,2.25 0.17,1.03 0.46,1.27 v 0 h -8.54 q 0.34,-0.29 0.51,-1.88 0.17,-1.59 0.29,-3.83 0.13,-2.25 0.15,-4.89 0.03,-2.63 0.03,-5.03 0,-2.39 -0.03,-4.22 -0.02,-1.83 -0.02,-2.56 v 0 q 0,-2.2 -0.03,-4.4 -0.02,-2.19 -0.17,-4.39 v 0 q -3.17,0 -6.3,0.02 -3.12,0.03 -6.3,0.08 v 0 q -0.48,0 -1.24,0.02 -0.76,0.03 -1.59,0.03 -0.83,0 -1.59,0.04 -0.75,0.05 -1.19,0.15 v 0 l -0.15,-5.08 41.02,-0.24 z M 448.75,-0.1 413.3,0 q 0.3,-0.29 0.49,-1.88 0.2,-1.59 0.32,-3.83 0.12,-2.25 0.14,-4.89 0.03,-2.63 0.03,-5.03 0,-2.39 -0.03,-4.22 -0.02,-1.83 -0.02,-2.56 v 0 q 0,-0.44 0,-1.52 0,-1.07 -0.02,-2.39 -0.03,-1.32 -0.08,-2.81 -0.05,-1.49 -0.17,-2.75 -0.12,-1.27 -0.32,-2.23 -0.19,-0.95 -0.48,-1.29 v 0 q -0.15,-0.15 -0.32,-0.29 -0.17,-0.15 -0.32,-0.3 v 0 l 35.45,0.1 -0.54,5.42 q -0.24,-0.1 -1.19,-0.15 -0.95,-0.04 -2.32,-0.09 -1.37,-0.05 -2.93,-0.08 -1.56,-0.02 -2.96,-0.02 -1.39,0 -2.46,0 -1.08,0 -1.47,0 v 0 q -6.25,0 -12.55,0.15 v 0 q -0.24,2.44 -0.29,4.85 -0.05,2.42 -0.05,4.91 v 0 l 22.46,-0.24 -0.05,5.22 q -0.19,-0.05 -0.95,-0.12 -0.75,-0.07 -1.78,-0.1 -1.02,-0.02 -2.22,-0.05 -1.2,-0.02 -2.25,-0.02 -1.05,0 -1.88,0 -0.83,0 -1.12,0 v 0 q -6.1,0 -12.26,0.15 v 0 q 0,2.19 -0.02,4.37 -0.02,2.17 -0.02,4.37 v 0 1.95 q 3.46,0.15 6.9,0.15 3.45,0 6.91,0 v 0 q 0.35,0 1.42,0 1.07,0 2.49,0 1.42,0 2.95,-0.03 1.54,-0.02 2.91,-0.05 1.37,-0.02 2.32,-0.07 0.95,-0.05 1.19,-0.15 v 0 z m 26.66,-14.16 v 0 q 0.44,0.39 1.76,1.61 1.32,1.22 3.05,2.79 1.73,1.56 3.66,3.27 1.93,1.71 3.61,3.15 1.69,1.44 2.91,2.41 1.22,0.98 1.56,1.03 v 0 h -10.11 q -0.29,-0.39 -0.83,-0.95 -0.53,-0.56 -1.12,-1.13 -0.58,-0.56 -1.15,-1.09 -0.56,-0.54 -0.95,-0.88 v 0 q -2.39,-2.35 -4.81,-4.57 -2.41,-2.22 -4.95,-4.42 v 0 q -2.01,0.25 -3.96,0.32 -1.95,0.07 -3.95,0.17 v 0 q -0.05,1.32 -0.05,2.61 0,1.3 0,2.62 v 0 q 0,0.44 0,1.51 0,1.07 0.05,2.29 0.05,1.23 0.22,2.23 0.17,1 0.46,1.29 v 0 h -8.55 q 0.3,-0.29 0.49,-1.88 0.2,-1.59 0.3,-3.83 0.09,-2.25 0.14,-4.86 0.05,-2.61 0.05,-5.01 0,-2.39 -0.02,-4.24 -0.03,-1.86 -0.03,-2.59 v 0 q 0,-0.44 0.03,-1.56 0.02,-1.13 0,-2.59 -0.03,-1.47 -0.1,-3.08 -0.07,-1.61 -0.27,-2.98 -0.19,-1.36 -0.54,-2.29 -0.34,-0.93 -0.83,-1.08 v 0 q 0.15,0 0.96,0 0.8,0 1.95,0 1.15,0 2.44,0 1.29,0 2.44,0 1.15,0 1.93,0.03 0.78,0.02 0.93,0.02 v 0 q 1.76,0 4.47,0.08 2.71,0.07 5.76,0.41 3.05,0.34 6.13,1 3.07,0.66 5.54,1.88 2.46,1.22 4.03,3.05 1.56,1.83 1.56,4.47 v 0 q 0,2.54 -1.47,4.37 -1.46,1.83 -3.63,3.1 -2.18,1.27 -4.64,2.08 -2.47,0.8 -4.47,1.24 z m 5.37,-10.89 v 0 q 0,-1.46 -1.22,-2.46 -1.22,-1 -3.15,-1.61 -1.93,-0.61 -4.3,-0.91 -2.36,-0.29 -4.61,-0.41 -2.25,-0.12 -4.13,-0.12 -1.88,0 -2.85,0 v 0 q -0.25,2.73 -0.32,5.44 -0.07,2.71 -0.07,5.44 v 0 1.32 q 1.9,-0.05 3.8,-0.09 1.91,-0.05 3.76,-0.2 v 0 q 0.93,-0.05 2.25,-0.2 1.32,-0.14 2.78,-0.41 1.47,-0.27 2.91,-0.71 1.44,-0.44 2.59,-1.12 1.14,-0.69 1.85,-1.66 0.71,-0.98 0.71,-2.3 z"
                                   opacity="1"
                                   fill="#ff58ff"
                                   class="undefined-text-1"
                                   data-fill-palette-color="quaternary"
                                   id="text-1" />
                                </svg>
                                </g>
                                </svg>
                                </g>
                                </svg>
                              </g>
                            </svg>
                          </g>
                          <g
                             transform="translate(41.215234)"
                             id="g49">
                            <svg
                               viewBox="0 0 130.72797 101.33134"
                               height="101.33134"
                               width="130.72797"
                               version="1.1"
                               id="svg47">
                              <g
                                 id="g45">
                                <svg
                                   version="1.1"
                                   x="0"
                                   y="0"
                                   viewBox="4.8230019 14.981 90.355011 70.036995"
                                   enable-background="new 0 0 100 100"
                                   xml:space="preserve"
                                   height="101.33134"
                                   width="130.72797"
                                   class="icon-icon-0"
                                   data-fill-palette-color="quaternary"
                                   id="icon-0"><path
                                   fill="#ff58ff"
                                   d="m 71.611,14.981 c -9.679,0 -17.985,5.842 -21.614,14.185 -3.628,-8.343 -11.922,-14.185 -21.601,-14.185 -13.023,0 -23.573,10.553 -23.573,23.57 0,7.755 3.807,14.581 9.58,18.876 L 49.997,85.018 85.598,57.427 c 5.78,-4.295 9.58,-11.121 9.58,-18.876 0,-13.016 -10.557,-23.57 -23.567,-23.57 z M 72.329,53.09 H 59.881 L 56.426,43.747 48.84,67.1 41.217,50.026 40.455,52.201 H 27.673 v -3.558 h 10.258 l 2.886,-8.241 7.499,16.795 7.892,-24.296 6.152,16.631 h 9.97 v 3.558 z"
                                   data-fill-palette-color="quaternary"
                                   id="path42" /></svg>
                              </g>
                            </svg>
                          </g>
                          <g
                             id="g51" />
                        </svg>
                      </g>
                    </svg>
                  </g>
                </svg>
              </g>
            </svg>
          </g>
        </svg>
        <rect
           width="342.85156"
           height="342.85156"
           fill="none"
           stroke="none"
           visibility="hidden"
           id="rect71"
           x="0"
           y="0" />
      </g>
    </svg>
  </g>
  <rect
     style="fill:#233565;fill-opacity:1"
     id="rect294"
     width="399.19354"
     height="143.30025"
     x="299.62781"
     y="381.51364"
     ry="0" />
</svg>
