<svg width="421" height="137" viewBox="0 0 421 137" fill="none" xmlns="http://www.w3.org/2000/svg">
<g clip-path="url(#clip0_504_5341)">
<path fill-rule="evenodd" clip-rule="evenodd" d="M61.66 30.5901C74.73 30.5901 86.7899 37.6801 85.1399 55.3501C83.1399 76.3501 71.8899 87.9701 54.1399 88.0201H38.6299C36.3999 88.0201 35.3199 89.8401 34.7399 93.5701L31.7399 112.64C31.2899 115.52 29.8099 116.94 27.6299 116.94H13.1999C10.8999 116.94 10.0999 115.47 10.6099 112.18L22.5199 35.7501C23.1099 31.9901 24.52 30.5901 27.09 30.5901H61.6299H61.66ZM38.16 71.5101H49.91C57.26 71.2301 62.1399 66.1401 62.6299 56.9601C62.9299 51.2901 59.0999 47.2301 53.0099 47.2601L41.9499 47.3101L38.16 71.5101ZM124.37 111.09C125.69 109.89 127.03 109.27 126.84 110.75L126.37 114.29C126.13 116.14 126.86 117.12 128.58 117.12H141.4C143.56 117.12 144.61 116.25 145.14 112.91L153.04 63.3301C153.44 60.8401 152.83 59.6201 150.94 59.6201H136.84C135.57 59.6201 134.95 60.3301 134.62 62.2701L134.1 65.3201C133.83 66.9101 133.1 67.1901 132.42 65.5901C130.03 59.9301 123.93 57.3901 115.42 57.5901C95.6499 58.0001 82.3199 73.0101 80.8899 92.2501C79.7899 107.13 90.4499 118.82 104.51 118.82C114.71 118.82 119.27 115.82 124.41 111.12L124.37 111.09ZM113.63 103.46C105.12 103.46 99.1899 96.6701 100.42 88.3501C101.65 80.0301 109.61 73.2401 118.12 73.2401C126.63 73.2401 132.56 80.0301 131.33 88.3501C130.1 96.6701 122.15 103.46 113.63 103.46ZM178.13 59.4601H165.13C162.45 59.4601 161.36 61.4601 162.21 63.9201L178.35 111.18L162.52 133.67C161.19 135.55 162.22 137.26 164.09 137.26H178.7C179.551 137.359 180.413 137.21 181.183 136.832C181.952 136.455 182.597 135.864 183.04 135.13L232.68 63.9301C234.21 61.7401 233.49 59.4401 230.98 59.4401H217.15C214.78 59.4401 213.83 60.3801 212.47 62.3501L191.77 92.3501L182.52 62.2801C181.98 60.4601 180.63 59.4601 178.14 59.4601H178.13Z" fill="white"/>
<path fill-rule="evenodd" clip-rule="evenodd" d="M284.32 30.5901C297.39 30.5901 309.45 37.6801 307.8 55.3501C305.8 76.3501 294.55 87.9701 276.8 88.0201H261.3C259.07 88.0201 257.99 89.8401 257.41 93.5701L254.41 112.64C253.96 115.52 252.48 116.94 250.3 116.94H235.87C233.57 116.94 232.77 115.47 233.28 112.18L245.21 35.7301C245.8 31.9701 247.21 30.5701 249.78 30.5701H284.32V30.5901ZM260.82 71.5101H272.57C279.92 71.2301 284.8 66.1401 285.29 56.9601C285.59 51.2901 281.76 47.2301 275.67 47.2601L264.61 47.3101L260.82 71.5101ZM347.03 111.09C348.35 109.89 349.69 109.27 349.5 110.75L349.03 114.29C348.79 116.14 349.52 117.12 351.24 117.12H364.06C366.22 117.12 367.27 116.25 367.8 112.91L375.7 63.3301C376.1 60.8401 375.49 59.6201 373.6 59.6201H359.52C358.25 59.6201 357.63 60.3301 357.3 62.2701L356.78 65.3201C356.51 66.9101 355.78 67.1901 355.1 65.5901C352.71 59.9301 346.61 57.3901 338.1 57.5901C318.33 58.0001 305 73.0101 303.57 92.2501C302.47 107.13 313.13 118.82 327.19 118.82C337.39 118.82 341.95 115.82 347.09 111.12L347.03 111.09ZM336.3 103.46C327.79 103.46 321.86 96.6701 323.09 88.3501C324.32 80.0301 332.28 73.2401 340.79 73.2401C349.3 73.2401 355.23 80.0301 354 88.3501C352.77 96.6701 344.81 103.46 336.3 103.46ZM395.43 117.2H380.63C380.373 117.212 380.116 117.166 379.878 117.067C379.64 116.968 379.427 116.817 379.254 116.626C379.081 116.435 378.953 116.208 378.878 115.962C378.803 115.715 378.783 115.455 378.82 115.2L391.82 32.8401C391.944 32.278 392.255 31.7744 392.701 31.4113C393.148 31.0482 393.705 30.8469 394.28 30.8401H409.08C409.338 30.8286 409.594 30.874 409.832 30.9733C410.07 31.0725 410.283 31.223 410.456 31.4141C410.629 31.6051 410.757 31.832 410.832 32.0785C410.907 32.325 410.927 32.5851 410.89 32.8401L397.89 115.2C397.77 115.766 397.461 116.274 397.014 116.641C396.567 117.008 396.008 117.212 395.43 117.22V117.2Z" fill="#009EE3"/>
</g>
<defs>
<clipPath id="clip0_504_5341">
<rect width="421" height="137" fill="white"/>
</clipPath>
</defs>
</svg>
