<svg xmlns="http://www.w3.org/2000/svg" width="180" height="46" viewBox="0 0 180 46" fill="none">
    <path d="M178.338 18.1336C177.767 17.4438 177.047 16.8933 176.231 16.5242C175.416 16.1551 174.526 15.977 173.632 16.0035H133.682C133.525 16.0035 133.368 16.0035 133.211 16.0035L132.74 16.0412C130.043 16.357 127.483 17.4042 125.338 19.0698C125.118 19.2269 124.892 19.4028 124.666 19.5787C124.44 19.7547 124.232 19.918 124.038 20.0625C123.822 19.3366 123.449 18.6672 122.944 18.1022C121.719 16.745 119.683 15.991 117.214 15.991C114.852 16.0197 112.53 16.603 110.434 17.6937L111.389 16.1229H90.843L89.1528 18.6362C89.0853 18.5215 89.0119 18.4103 88.9329 18.3032C87.6762 16.5753 85.4833 15.8339 82.304 16.1104C80.5181 16.2632 78.78 16.7671 77.1894 17.5932L78.0753 16.1355H64.4406C61.412 16.1355 58.4715 17.2288 55.5749 19.6416L55.3612 19.8175C55.1456 19.2688 54.8444 18.7577 54.469 18.3032C53.8922 17.6056 53.1642 17.0483 52.3401 16.6739C51.516 16.2994 50.6174 16.1174 49.7125 16.1418C49.353 16.1401 48.9939 16.1653 48.6381 16.2172H40.0991L35.4181 23.443C35.4181 23.443 35.2107 23.7509 34.9028 24.1593C35.2084 23.4559 35.3528 22.6931 35.3257 21.9266C35.2985 21.1602 35.1003 20.4096 34.7457 19.7296C36.0261 18.9848 37.23 18.1156 38.3398 17.1346C41.2929 14.3948 43.3642 10.8384 44.2901 6.91791L44.8053 4.27263H36.2914L34.1488 4.22864L34.0734 6.37756C34.0734 6.50951 33.7718 9.80194 29.1033 13.8672C28.6761 14.2379 28.2677 14.5647 27.8467 14.8537C27.9884 14.3474 28.0892 13.8305 28.1483 13.308C28.537 10.7547 27.9686 8.14775 26.5523 5.98796C24.1333 2.01692 20.0366 0 14.3942 0H13.9229C9.26699 0.157082 5.32737 1.81587 2.81405 4.66848C1.79026 5.82715 1.0168 7.1848 0.542153 8.65632C0.0675028 10.1278 -0.098111 11.6815 0.0556856 13.22C0.438966 17.1722 3.63716 21.4449 9.85134 21.0804C10.8277 21.0286 11.7941 20.8577 12.7291 20.5715L2.8329 34.8283L15.8645 34.7906L22.3677 24.8756L23.5175 24.5614C22.6591 25.9609 21.9575 27.4506 21.4252 29.0037C21.2127 29.7155 21.1588 30.4654 21.2674 31.2003C21.3759 31.9352 21.6443 32.6374 22.0535 33.2575C22.6818 34.1623 23.9385 35.2681 26.5209 35.4315C26.9058 35.4597 27.2922 35.4597 27.677 35.4315L23.2787 42.2237H34.6578L39.4268 34.3696C40.2068 34.6433 41.0208 34.8082 41.8459 34.8597C45.1132 35.0922 48.3051 33.8984 51.2708 31.2845C51.5233 31.989 51.9269 32.6297 52.4534 33.1616C52.9798 33.6934 53.6163 34.1036 54.3182 34.3633C55.1983 34.6934 56.1303 34.8637 57.0703 34.866C58.6223 34.8474 60.141 34.4135 61.4686 33.6093C62.3647 34.4039 63.5258 34.8342 64.7233 34.8157C65.3975 34.809 66.066 34.6923 66.7026 34.4701C68.1112 33.9164 69.4623 33.2262 70.7364 32.4092C72.6529 35.2995 78.6597 34.8032 78.6597 34.8032H89.8251L92.6337 30.298C92.5614 31.0677 92.705 31.8423 93.0484 32.5349C93.4945 33.4271 94.6695 34.9288 97.5221 34.9288C98.0812 34.9298 98.639 34.8751 99.1872 34.7655C99.9223 34.6712 101.669 34.2314 104.434 32.2522L104.679 32.5286C105.935 33.9047 107.952 34.6649 110.403 34.6649C111.576 34.6607 112.743 34.5087 113.878 34.2125C113.174 34.8515 112.607 35.6262 112.211 36.4901C111.814 37.3539 111.597 38.2891 111.572 39.2392C111.572 42.1044 113.771 45.4471 119.966 45.4471C127.368 45.4471 130.924 41.4697 132.564 39.1638C134.127 39.4911 135.724 39.6324 137.321 39.5847C140.377 39.492 143.338 38.4949 145.828 36.7196L149.366 33.9361C150.111 34.4404 150.98 34.7335 151.879 34.7843L147.229 42.1483H158.439L163.057 34.4827C163.914 34.8041 164.824 34.9618 165.74 34.9477C169.466 34.9477 172.52 33.5528 175.636 30.4363C180.769 25.2965 180.034 20.1505 178.338 18.1147" fill="#231F20"/>
    <path d="M127.399 29.6004C126.57 28.7019 128.26 25.2461 130.233 22.9338C132.206 20.6216 134.481 19.3272 135.316 20.0373C136.152 20.7473 134.946 24.4041 132.608 26.9489C130.177 29.6256 128.141 30.3733 127.399 29.569V29.6004ZM121.6 41.4319C118.37 42.7702 118.031 40.2506 118.031 40.2506C118.031 40.2506 117.403 37.354 121.022 35.7769C123.856 34.5202 127.148 35.3119 127.148 35.3119C127.148 35.3119 123.761 40.5333 121.6 41.4319ZM115.09 26.9803C112.665 29.657 110.623 30.4047 109.881 29.6004C109.14 28.7961 110.742 25.2461 112.715 22.9338C114.688 20.6216 116.969 19.3272 117.805 20.0373C118.64 20.7473 117.428 24.4041 115.09 26.9489V26.9803ZM63.6239 26.9489C61.1985 29.6256 59.1564 30.3733 58.415 29.569C57.6736 28.7647 59.2821 25.2147 61.2551 22.9024C63.228 20.5902 65.5026 19.2958 66.3383 20.0058C67.1739 20.7159 65.9613 24.3727 63.6239 26.9175V26.9489ZM46.4956 26.9175C44.0703 29.5879 42.0282 30.3356 41.2868 29.5313C40.5453 28.727 42.1476 25.177 44.1205 22.8647C46.0935 20.5525 48.3743 19.2581 49.21 19.9744C50.0457 20.6907 48.833 24.3727 46.4956 26.9175V26.9175ZM138.904 33.2699C138.195 34.1846 137.21 34.8458 136.095 35.1549C134.94 35.4403 133.735 35.4597 132.57 35.2114L143.485 18.2465H138.238L137.339 19.5031C137.339 19.5031 136.366 18.1271 133.915 18.1397C131.282 18.2371 128.747 19.1677 126.677 20.7975C125.42 21.696 124.094 23.1978 122.052 22.3181C122.129 21.8262 122.101 21.3237 121.971 20.8431C121.841 20.3626 121.612 19.9146 121.298 19.5283C119.137 17.1281 112.502 17.9512 108.864 21.4133C107.085 23.1098 105.86 24.8628 105.401 26.7164C103.642 28.727 102.769 29.1543 102.769 29.1543C102.769 29.1543 101.745 29.7826 101.412 29.3553C101.079 28.9281 101.55 28.0233 101.55 28.0233L107.462 18.2716H102.153L99.6397 22.0416C99.6397 22.0416 98.3076 23.9266 98.3014 23.9266C96.8813 25.0073 94.4748 25.3655 93.4381 25.0262L97.717 18.2465H92.0244L87.4187 25.0262C85.3515 27.772 79.9604 30.7314 77.8807 29.4559C76.624 28.6139 77.4722 26.0064 77.4722 26.0064C77.4722 26.0064 78.7289 22.3369 81.6506 20.4205C83.6299 19.1073 85.2447 19.6163 82.4046 24.4356C84.2896 23.7381 87.4313 22.1798 87.4313 22.1798C87.4313 22.1798 88.9707 17.6496 82.48 18.2025C79.7922 18.4259 77.2713 19.5973 75.3673 21.5075C73.7781 23.1541 72.5779 25.1358 71.855 27.307C71.855 27.307 69.3794 29.3805 68.594 28.5637C68.0976 28.0673 68.7825 27.0054 68.7825 27.0054L74.117 18.2088H68.8202L68.0096 19.4655C67.7005 19.0615 67.3058 18.7309 66.8539 18.4973C66.402 18.2638 65.9041 18.1331 65.3958 18.1146C63.8312 17.9575 60.7775 18.0329 56.9824 21.1871C55.6925 22.2199 54.624 23.5021 53.8408 24.957L52.5841 25.8556C53.69 23.6627 54.111 21.1557 52.7789 19.5723C51.0259 17.4423 48.123 18.3785 47.5135 18.6675L46.1877 19.2958L46.7344 18.3031H41.3182L37.2655 24.5864C36.7202 25.3836 36.1329 26.1512 35.5061 26.886C34.6429 27.9058 33.5992 28.7578 32.4273 29.3993C31.0261 30.191 30.5926 29.3993 30.5926 29.3993C30.5926 29.3993 29.7569 29.0475 31.0953 26.5342C32.2514 24.3664 31.6105 25.4786 32.7163 23.4742C34.1238 20.9609 31.3843 18.8748 31.3843 18.8748C33.3597 17.9434 35.2039 16.7561 36.8696 15.3436C39.4399 12.9586 41.2625 9.87876 42.1162 6.4779H36.2915C36.2915 6.4779 36.1533 10.6563 30.5612 15.5321C28.5481 17.347 26.1212 18.6413 23.4925 19.3021C24.718 17.4089 25.5592 15.2932 25.9681 13.0754C26.3057 11.0146 25.8573 8.90226 24.7114 7.1565C23.8695 5.77418 21.3876 2.12986 14.0298 2.23667C5.86156 2.50686 1.7837 7.69056 2.29893 13.0251C2.55654 15.7143 4.68658 19.1764 9.7572 18.8811C17.9255 18.4099 16.9704 9.83319 16.9704 9.83319L11.4285 6.86746C11.4285 6.86746 14.8969 16.5626 9.85772 17.4988C7.30042 17.9512 5.34633 13.0439 6.82918 9.06032C7.70884 6.70409 9.65038 3.94571 14.0738 3.94571C18.9811 4.24731 20.1749 8.13668 20.2817 10.9076C20.3119 11.8348 20.1692 12.7596 19.8607 13.6346C19.3829 14.7353 18.8 15.7874 18.1203 16.7762L7.11193 32.629H14.6959L21.0231 22.9841C22.7194 22.5956 24.3831 22.0767 25.9995 21.4321C26.3666 21.6873 26.6249 22.0706 26.7238 22.5066C26.8226 22.9426 26.7548 23.3998 26.5336 23.7884C25.6037 25.6294 24.259 27.5584 23.5867 29.6947C23.3354 30.5241 23.1155 33.05 26.6844 33.2762C29.5182 33.4521 32.9677 30.9827 33.4955 30.5932L27.3818 40.0181H33.4389L38.7672 31.2215C38.7672 31.2215 39.3075 32.4405 42.047 32.6415C44.7866 32.8426 47.5763 31.787 50.341 29.1229C50.5342 28.9431 50.7167 28.7522 50.8876 28.5511L53.1873 26.93C53.0924 27.2994 53.0459 27.6796 53.0491 28.061C53.0491 28.061 52.6595 31.3597 55.1037 32.2771C59.0433 33.7537 62.1661 30.2539 62.1661 30.2539C62.5934 29.7889 62.4929 29.8203 62.43 30.4298C62.4016 30.6788 62.423 30.9309 62.4931 31.1715C62.5633 31.4121 62.6807 31.6363 62.8385 31.831C62.8385 31.831 63.8501 33.0876 65.9801 32.3651C67.3561 31.9001 70.0454 30.2413 71.6791 29.1857C71.7725 29.5915 71.916 29.984 72.1063 30.3544C73.1682 32.8049 76.7999 32.6038 76.7999 32.6038C76.7999 32.6038 80.3688 32.7798 85.2133 28.8716L82.7879 32.5473H88.6125L92.1814 26.8232C94.0664 27.5018 96.0331 26.6033 97.1201 26.1509L95.4425 28.7585C95.4425 28.7585 94.4434 30.2979 95.0529 31.5043C95.9137 33.2322 98.8543 32.5347 98.8543 32.5347C98.8543 32.5347 101.016 32.409 105.32 28.7647C105.38 29.6223 105.743 30.4305 106.344 31.0456C108.512 33.4521 114.845 32.6415 118.238 29.4685C120.174 27.6589 121.091 26.4965 121.857 24.0837C122.746 24.3025 123.685 24.1625 124.471 23.6941C124.094 24.1779 123.843 24.4795 123.843 24.4795C122.511 26.9426 121.795 29.7763 123.441 31.5671C125.364 33.6657 129.159 31.9943 129.159 31.9943C129.159 31.9943 128.53 33.0248 127.902 34.2061C125.85 33.7855 123.754 33.6229 121.663 33.7222C114.041 34.0301 113.809 38.7489 113.809 39.2453C113.809 39.7417 113.89 43.2352 119.979 43.2352C127.889 43.2352 130.541 38.1771 131.615 36.6754C133.459 37.2262 135.379 37.4724 137.302 37.4042C139.879 37.323 142.376 36.4886 144.484 35.0041L138.904 33.2699Z" fill="white"/>
    <path d="M170.201 26.9803C167.769 29.657 165.733 30.4047 164.992 29.6005C164.251 28.7962 165.853 25.2461 167.826 22.9339C169.799 20.6216 172.073 19.3273 172.909 20.0373C173.745 20.7473 172.538 24.4042 170.201 26.9489V26.9803ZM150.723 26.9489C148.297 29.6256 146.255 30.3733 145.514 29.569C144.772 28.7648 146.381 25.2147 148.354 22.9025C150.327 20.5902 152.601 19.2959 153.437 20.0059C154.273 20.7159 153.06 24.3728 150.723 26.9175V26.9489ZM176.61 19.4781C174.857 17.3543 171.872 18.3596 171.269 18.6487C170.861 18.8309 170.27 19.0382 170.27 19.0382L170.685 18.2717H165.099C165.099 18.2717 162.108 22.67 160.782 24.9885C160.083 26.2834 159.022 27.3467 157.729 28.0485C157.729 28.0485 156.403 28.8653 155.774 28.2747C155.146 27.6841 155.906 26.6473 155.906 26.6473L161.304 18.2968H155.932L155.303 19.2896C154.522 18.5802 153.506 18.1842 152.451 18.1774C150.497 18.102 147.989 18.0581 144.188 21.206C142.589 22.501 141.396 24.2284 140.751 26.1823C140.047 28.1616 140.292 30.9702 142.083 31.9441C145.853 34.0114 149.435 30.2225 149.435 30.2225C149.868 29.7575 149.78 29.8015 149.749 30.3419C149.661 31.7682 151.439 33.3013 153.933 32.0949C155.323 31.3551 156.637 30.4795 157.854 29.4811L151.276 39.9491H157.195L162.46 31.2153C162.46 31.2153 163 32.7421 165.746 32.7421C168.705 32.7421 171.194 31.7619 174.071 28.8841C176.421 26.5342 178.677 22.0228 176.629 19.5409" fill="white"/>
</svg>
