<svg width="200" height="200" viewBox="0 0 200 200" fill="none" xmlns="http://www.w3.org/2000/svg">
<g clip-path="url(#clip0_1_14246)">
<rect width="200" height="200" rx="24" fill="#FAFAFA"/>
<path d="M185.568 16.348V48.1107H144.489L143.009 16.5712L185.568 16.348Z" fill="#E0E0E0"/>
<path d="M143.009 16.5353V48.1107H184.088V16.5353L143.009 16.5353Z" fill="white"/>
<path d="M184.243 48.2662H142.853V16.376H184.243V48.2662ZM143.164 47.9514H183.928V16.6908H143.164V47.9554V47.9514Z" fill="#E0E0E0"/>
<path d="M179.638 19.7794H147.458V43.9542H179.638V19.7794Z" fill="white"/>
<path d="M179.638 19.7795C179.638 19.7795 179.582 19.7795 179.483 19.7834C179.379 19.7834 179.227 19.7834 179.032 19.7874C178.629 19.7874 178.042 19.7914 177.28 19.7954C175.747 19.7994 173.513 19.8074 170.679 19.8153C165.021 19.8233 156.984 19.8352 147.462 19.8512L147.534 19.7795C147.534 27.0327 147.538 35.2623 147.542 43.9502L147.462 43.8705C159.446 43.8745 170.556 43.8825 179.642 43.8864L179.574 43.9542C179.59 36.6492 179.602 30.6115 179.61 26.399C179.618 24.2908 179.622 22.6409 179.626 21.5091C179.626 20.9471 179.63 20.5167 179.634 20.2218C179.634 19.9309 179.642 19.7755 179.642 19.7755C179.642 19.7755 179.646 19.9189 179.65 20.2059C179.65 20.4968 179.654 20.9232 179.658 21.4812C179.658 22.605 179.666 24.2509 179.674 26.3552C179.682 30.5796 179.694 36.6292 179.71 43.9502V44.018H179.642C170.556 44.0219 159.446 44.0259 147.462 44.0339H147.382V43.9542C147.382 35.2623 147.386 27.0287 147.39 19.7795V19.7037H147.462C157.008 19.7197 165.057 19.7316 170.727 19.7396C173.553 19.7476 175.783 19.7555 177.312 19.7595C178.07 19.7595 178.653 19.7675 179.052 19.7675C179.243 19.7675 179.391 19.7675 179.495 19.7715C179.594 19.7715 179.642 19.7755 179.642 19.7755L179.638 19.7795Z" fill="#E0E0E0"/>
<path d="M143.009 16.4597C143.009 16.4597 143.288 16.6071 143.703 16.8861C144.118 17.1651 144.689 17.5636 145.307 18.0179C145.926 18.4722 146.469 18.9027 146.856 19.2255C147.243 19.5483 147.47 19.7595 147.458 19.7754C147.442 19.7954 147.191 19.612 146.788 19.3131C146.337 18.9784 145.802 18.5838 145.212 18.1454C144.621 17.7071 144.086 17.3085 143.639 16.9738C143.24 16.6709 142.997 16.4716 143.013 16.4557L143.009 16.4597Z" fill="#E0E0E0"/>
<path d="M184.088 16.5354C184.116 16.5712 183.138 17.3285 181.913 18.2251C180.684 19.1218 179.666 19.8193 179.638 19.7834C179.61 19.7475 180.584 18.9903 181.813 18.0936C183.042 17.1969 184.06 16.4995 184.084 16.5354H184.088Z" fill="#E0E0E0"/>
<path d="M179.475 43.9542C179.507 43.9223 180.56 44.823 181.837 45.9707C183.11 47.1185 184.12 48.075 184.088 48.1108C184.056 48.1427 183.003 47.2421 181.726 46.0943C180.453 44.9465 179.443 43.9901 179.475 43.9542Z" fill="#E0E0E0"/>
<path d="M143.009 48.1108C142.977 48.0789 143.939 47.1623 145.156 46.0664C146.373 44.9704 147.383 44.1096 147.411 44.1415C147.443 44.1734 146.481 45.09 145.264 46.1859C144.047 47.2819 143.037 48.1427 143.009 48.1108Z" fill="#E0E0E0"/>
<path d="M171.314 31.6476C170.867 33.7439 168.804 35.0829 166.709 34.6366C164.614 34.1902 163.269 32.1298 163.716 30.0375C164.163 27.9413 166.226 26.6022 168.321 27.0486C170.42 27.4949 171.761 29.5553 171.314 31.6476Z" fill="#F5F5F5"/>
<path d="M166.25 34.5249C166.21 34.505 166.374 34.1065 166.585 33.4529C166.793 32.8033 167.044 31.8707 166.941 30.8465C166.833 29.8263 166.306 28.9933 165.807 28.5589C165.304 28.1086 164.865 28.0169 164.885 27.9611C164.885 27.9332 165.36 27.9532 165.943 28.3916C166.522 28.818 167.124 29.7067 167.244 30.8106C167.356 31.9106 167.052 32.879 166.789 33.5246C166.518 34.1742 166.286 34.5409 166.25 34.5249Z" fill="#E0E0E0"/>
<path d="M171.266 30.3724C171.246 30.46 170.217 30.0894 169.007 30.4481C167.794 30.7988 167.128 31.6676 167.068 31.6038C167.036 31.5839 167.156 31.3368 167.463 31.022C167.766 30.7111 168.273 30.3484 168.924 30.1572C169.574 29.9659 170.197 29.9977 170.62 30.0934C171.047 30.189 171.278 30.3325 171.266 30.3684V30.3724Z" fill="#E0E0E0"/>
<path d="M169.511 30.1729C169.463 30.1729 169.483 29.9019 169.343 29.5194C169.211 29.1447 168.872 28.6506 168.317 28.4274C167.755 28.2122 167.172 28.3477 166.821 28.535C166.462 28.7223 166.294 28.9335 166.254 28.9016C166.226 28.8857 166.334 28.6147 166.709 28.3517C167.068 28.0926 167.743 27.8854 168.425 28.1444C169.099 28.4154 169.455 29.0212 169.546 29.4556C169.646 29.9019 169.538 30.1769 169.511 30.169V30.1729Z" fill="#E0E0E0"/>
<path d="M168.273 30.5835C168.185 30.5636 168.249 30.0336 168.093 29.4159C167.95 28.7941 167.655 28.3478 167.722 28.292C167.778 28.2322 168.221 28.6427 168.389 29.3441C168.56 30.0415 168.349 30.6114 168.273 30.5835Z" fill="#E0E0E0"/>
<path d="M168.237 29.368C168.233 29.4597 167.898 29.4756 167.579 29.643C167.256 29.8183 166.988 30.0415 166.925 29.9738C166.873 29.9259 167.032 29.6031 167.439 29.376C167.874 29.1568 168.253 29.2963 168.237 29.368Z" fill="#E0E0E0"/>
<path d="M162.024 31.1853C163.269 32.2294 163.433 34.0865 162.383 35.33C161.338 36.5734 159.478 36.7368 158.233 35.6886C156.988 34.6445 156.824 32.7873 157.874 31.5439C158.923 30.3005 160.779 30.1371 162.024 31.1853Z" fill="#F5F5F5"/>
<path d="M162.148 35.597C162.12 35.6169 161.912 35.3658 161.549 34.9872C161.186 34.6166 160.651 34.1144 159.929 33.8195C159.207 33.5286 158.46 33.5804 157.99 33.7637C157.511 33.9431 157.291 34.1981 157.259 34.1702C157.239 34.1623 157.423 33.8514 157.926 33.6163C158.417 33.3811 159.227 33.2935 160.013 33.6123C160.791 33.9311 161.33 34.4811 161.669 34.8836C162.008 35.2941 162.168 35.585 162.148 35.601V35.597Z" fill="#E0E0E0"/>
<path d="M161.15 30.7629C161.202 30.8067 160.587 31.3607 160.396 32.3012C160.196 33.2378 160.543 33.991 160.479 34.0109C160.456 34.0229 160.332 33.8555 160.232 33.5406C160.132 33.2258 160.068 32.7555 160.172 32.2534C160.276 31.7512 160.519 31.3447 160.735 31.0977C160.954 30.8466 161.13 30.743 161.15 30.7629Z" fill="#E0E0E0"/>
<path d="M160.392 31.8667C160.372 31.8986 160.2 31.787 159.893 31.7471C159.598 31.7033 159.143 31.7471 158.796 32.046C158.452 32.3449 158.333 32.7833 158.337 33.0862C158.333 33.3931 158.417 33.5804 158.381 33.5963C158.361 33.6123 158.217 33.4409 158.173 33.0942C158.129 32.7634 158.229 32.2373 158.648 31.8747C159.071 31.52 159.606 31.5001 159.929 31.5917C160.264 31.6834 160.412 31.8547 160.392 31.8707V31.8667Z" fill="#E0E0E0"/>
<path d="M160.224 32.8392C160.18 32.891 159.845 32.6599 159.378 32.5403C158.911 32.4128 158.504 32.4527 158.492 32.3889C158.472 32.3331 158.907 32.1817 159.434 32.3172C159.965 32.4527 160.268 32.7954 160.224 32.8352V32.8392Z" fill="#E0E0E0"/>
<path d="M159.398 32.4288C159.458 32.4646 159.35 32.6918 159.35 32.9668C159.35 33.2457 159.406 33.5048 159.338 33.5207C159.286 33.5367 159.127 33.3175 159.123 32.9628C159.131 32.5961 159.358 32.3889 159.402 32.4248L159.398 32.4288Z" fill="#E0E0E0"/>
<path d="M162.148 30.1731C161.106 29.4956 160.468 28.2881 160.053 27.1164C159.638 25.9447 159.622 24.6375 160.005 23.4579C161.15 23.968 162.076 24.9564 162.511 26.132C162.946 27.3077 162.69 29.0413 162.148 30.1731Z" fill="#EBEBEB"/>
<path d="M160.938 25.3788C161.397 26.8972 161.772 28.4395 162.055 30.0017L160.938 25.3788Z" fill="white"/>
<path d="M162.056 30.0017C162.032 30.0056 161.968 29.7466 161.868 29.3281C161.756 28.8459 161.625 28.2999 161.485 27.6942C161.333 27.0884 161.198 26.5424 161.082 26.0642C160.978 25.6457 160.918 25.3867 160.942 25.3787C160.962 25.3708 161.062 25.6218 161.194 26.0323C161.325 26.4428 161.493 27.0167 161.645 27.6543C161.8 28.296 161.916 28.8778 161.984 29.3042C162.052 29.7307 162.08 29.9977 162.06 30.0017H162.056Z" fill="#E0E0E0"/>
<path d="M164.786 35.4536C166.003 35.1985 167.308 35.601 168.433 36.1351C169.554 36.6691 170.492 37.5817 171.059 38.6896C169.886 39.14 168.533 39.0961 167.391 38.5701C166.25 38.044 165.205 36.6372 164.786 35.4576" fill="#EBEBEB"/>
<path d="M169.039 37.9881C167.638 37.2389 166.281 36.41 164.977 35.5093L169.039 37.9881Z" fill="white"/>
<path d="M164.973 35.5093C164.973 35.5093 165.216 35.6249 165.583 35.852C166.002 36.1111 166.485 36.41 167.012 36.7367C167.547 37.0596 168.03 37.3505 168.453 37.6055C168.82 37.8287 169.047 37.9682 169.035 37.9881C169.023 38.0081 168.78 37.9004 168.393 37.7052C168.01 37.5099 167.487 37.219 166.924 36.8762C166.361 36.5335 165.867 36.1987 165.515 35.9477C165.164 35.6966 164.957 35.5252 164.969 35.5093H164.973Z" fill="#E0E0E0"/>
<path d="M163.608 36.0315C163.831 36.7409 163.668 37.5379 163.416 38.2354C163.165 38.9328 162.674 39.5425 162.048 39.945C161.712 39.2755 161.657 38.4665 161.904 37.7611C162.151 37.0517 162.926 36.3503 163.608 36.0315Z" fill="#EBEBEB"/>
<path d="M162.347 38.7056C162.71 37.8289 163.125 36.976 163.584 36.1471L162.347 38.7056Z" fill="white"/>
<path d="M163.584 36.147C163.624 36.1709 163.341 36.7408 163.002 37.4462C162.659 38.1516 162.387 38.7255 162.347 38.7096C162.307 38.6936 162.511 38.0879 162.858 37.3745C163.201 36.6651 163.548 36.1271 163.588 36.147H163.584Z" fill="#E0E0E0"/>
<path d="M57.7178 13.9131H24.584V68.6868H57.7178V13.9131Z" fill="#E0E0E0"/>
<path d="M56.6124 13.9131H23.4785V68.6868H56.6124V13.9131Z" fill="#EBEBEB"/>
<path d="M55.2041 15.0249H24.8916V67.5749H55.2041V15.0249Z" fill="#FAFAFA"/>
<path d="M49.3017 21.8517H30.6616V60.7441H49.3017V21.8517Z" fill="#EBEBEB"/>
<path d="M30.6616 46.9829C30.6177 43.3483 33.89 39.8014 37.4935 39.2953C39.2094 39.0522 41.0371 39.3949 42.6413 38.7373C45.5066 37.5657 46.4164 33.7637 49.3016 32.6359L49.4333 60.7481H30.6616V46.9869V46.9829Z" fill="#E0E0E0"/>
<path d="M181.925 53.8269C181.925 43.2218 172.794 35.0442 161.9 34.4883L161.858 34.4498H160.707H137.564C127.399 34.3953 107.259 34.4003 87.1395 34.4053C81.3241 34.4067 75.5104 34.4081 69.9399 34.4081H61.8009H61.7996L41.5347 34.3915H41.5323C30.1191 34.3915 20.305 42.7606 20.3046 53.7596C20.3046 53.7598 20.3046 53.76 20.3046 53.7602L20.249 316.326V316.327C20.249 327.314 30.0496 335.695 41.4556 335.704H41.4566L160.641 335.762H160.642C172.045 335.762 181.869 327.394 181.87 316.394C181.87 316.394 181.87 316.394 181.87 316.394L181.925 53.8275V53.8269Z" fill="url(#paint0_linear_1_14246)" stroke="#01A6FF" stroke-width="6"/>
<path opacity="0.3" d="M164.202 50.9615C161.452 99.696 90.8139 108.078 78.1449 90.722C65.4759 73.3661 89.6497 57.1389 102.399 78.3189C120.076 107.684 61.8621 149.836 98.042 186.282C107.622 195.932 132.293 206.502 162.341 191.218" stroke="url(#paint1_linear_1_14246)" stroke-width="11.7962"/>
<path opacity="0.4" d="M161.959 64.1791C162.015 64.4043 162.334 64.4043 162.39 64.1791C163.173 60.9925 164.036 60.1293 167.223 59.3457C167.448 59.2904 167.448 58.9708 167.223 58.9155C164.036 58.132 163.173 57.2688 162.39 54.0822C162.334 53.8569 162.015 53.8569 161.959 54.0822C161.176 57.2688 160.313 58.132 157.126 58.9155C156.901 58.9708 156.901 59.2904 157.126 59.3457C160.313 60.1293 161.176 60.9925 161.959 64.1791Z" fill="#EBEBEB"/>
<path d="M31.5202 164.952C31.4649 164.727 31.1453 164.727 31.09 164.952C30.3064 168.138 29.4432 169.002 26.2566 169.785C26.0314 169.84 26.0314 170.16 26.2566 170.215C29.4432 170.999 30.3064 171.862 31.09 175.049C31.1453 175.274 31.4649 175.274 31.5202 175.049C32.3038 171.862 33.1669 170.999 36.3536 170.215C36.5788 170.16 36.5788 169.84 36.3536 169.785C33.1669 169.002 32.3038 168.138 31.5202 164.952Z" fill="#EBEBEB"/>
<path opacity="0.2" d="M121.09 142.875C121.145 143.1 121.465 143.1 121.52 142.875C122.303 139.688 123.167 138.825 126.353 138.041C126.579 137.986 126.579 137.667 126.353 137.611C123.167 136.828 122.303 135.964 121.52 132.778C121.465 132.553 121.145 132.553 121.09 132.778C120.306 135.964 119.443 136.828 116.256 137.611C116.031 137.667 116.031 137.986 116.256 138.041C119.443 138.825 120.306 139.688 121.09 142.875Z" fill="#EBEBEB"/>
<path opacity="0.2" d="M101.525 175.049C101.58 175.274 101.9 175.274 101.955 175.049C102.738 171.862 103.602 170.999 106.788 170.215C107.014 170.16 107.014 169.84 106.788 169.785C103.602 169.001 102.738 168.138 101.955 164.952C101.9 164.726 101.58 164.726 101.525 164.952C100.741 168.138 99.878 169.001 96.6914 169.785C96.4662 169.84 96.4662 170.16 96.6914 170.215C99.878 170.999 100.741 171.862 101.525 175.049Z" fill="#EBEBEB"/>
<path d="M111.959 79.8313C112.015 80.0566 112.334 80.0566 112.39 79.8313C113.173 76.6447 114.036 75.7815 117.223 74.998C117.448 74.9426 117.448 74.6231 117.223 74.5677C114.036 73.7842 113.173 72.921 112.39 69.7344C112.334 69.5091 112.015 69.5091 111.959 69.7344C111.176 72.921 110.313 73.7842 107.126 74.5677C106.901 74.6231 106.901 74.9426 107.126 74.998C110.313 75.7815 111.176 76.6447 111.959 79.8313Z" fill="#EBEBEB"/>
<path opacity="0.8" d="M72.3893 86.2561C72.334 86.0308 72.0144 86.0308 71.9591 86.2561C71.1756 89.4427 70.3124 90.3059 67.1258 91.0894C66.9005 91.1448 66.9005 91.4643 67.1258 91.5197C70.3124 92.3032 71.1756 93.1664 71.9591 96.353C72.0144 96.5783 72.334 96.5783 72.3893 96.353C73.1729 93.1664 74.0361 92.3032 77.2227 91.5197C77.4479 91.4643 77.4479 91.1448 77.2227 91.0894C74.0361 90.3059 73.1729 89.4427 72.3893 86.2561Z" fill="#EBEBEB"/>
<path opacity="0.2" d="M153.788 79.4669C153.82 79.5983 154.007 79.5983 154.039 79.4669C154.496 77.608 155 77.1045 156.859 76.6474C156.99 76.6152 156.99 76.4287 156.859 76.3965C155 75.9394 154.496 75.4359 154.039 73.577C154.007 73.4456 153.82 73.4456 153.788 73.577C153.331 75.4359 152.828 75.9394 150.969 76.3965C150.837 76.4287 150.837 76.6152 150.969 76.6474C152.828 77.1045 153.331 77.608 153.788 79.4669Z" fill="#EBEBEB"/>
<path opacity="0.4" d="M39.6914 149.664C39.6591 149.533 39.4727 149.533 39.4404 149.664C38.9834 151.523 38.4798 152.026 36.621 152.483C36.4896 152.516 36.4896 152.702 36.621 152.734C38.4798 153.191 38.9834 153.695 39.4404 155.554C39.4727 155.685 39.6591 155.685 39.6914 155.554C40.1485 153.695 40.652 153.191 42.5109 152.734C42.6422 152.702 42.6422 152.516 42.5109 152.483C40.652 152.026 40.1485 151.523 39.6914 149.664Z" fill="#EBEBEB"/>
<path opacity="0.2" d="M104.909 93.5771C104.876 93.4457 104.69 93.4457 104.658 93.5771C104.201 95.4359 103.697 95.9394 101.838 96.3965C101.707 96.4288 101.707 96.6152 101.838 96.6475C103.697 97.1045 104.201 97.6081 104.658 99.4669C104.69 99.5983 104.876 99.5983 104.909 99.4669C105.366 97.6081 105.869 97.1045 107.728 96.6475C107.86 96.6152 107.86 96.4288 107.728 96.3965C105.869 95.9394 105.366 95.4359 104.909 93.5771Z" fill="#EBEBEB"/>
<path opacity="0.4" d="M161.179 100.771C161.211 100.903 161.398 100.903 161.43 100.771C161.887 98.9123 162.391 98.4088 164.25 97.9518C164.381 97.9195 164.381 97.7331 164.25 97.7008C162.391 97.2437 161.887 96.7402 161.43 94.8814C161.398 94.7499 161.211 94.7499 161.179 94.8814C160.722 96.7402 160.219 97.2437 158.36 97.7008C158.228 97.7331 158.228 97.9195 158.36 97.9518C160.219 98.4088 160.722 98.9123 161.179 100.771Z" fill="#EBEBEB"/>
<path opacity="0.4" d="M164.223 162.945C164.255 163.077 164.441 163.077 164.474 162.945C164.931 161.086 165.434 160.583 167.293 160.126C167.424 160.093 167.424 159.907 167.293 159.875C165.434 159.418 164.931 158.914 164.474 157.055C164.441 156.924 164.255 156.924 164.223 157.055C163.766 158.914 163.262 159.418 161.403 159.875C161.272 159.907 161.272 160.093 161.403 160.126C163.262 160.583 163.766 161.086 164.223 162.945Z" fill="#EBEBEB"/>
<path opacity="0.2" d="M32.2998 128.36C32.2675 128.228 32.0811 128.228 32.0488 128.36C31.5918 130.219 31.0882 130.722 29.2294 131.179C29.098 131.211 29.098 131.398 29.2294 131.43C31.0882 131.887 31.5918 132.391 32.0488 134.25C32.0811 134.381 32.2675 134.381 32.2998 134.25C32.7569 132.391 33.2604 131.887 35.1193 131.43C35.2506 131.398 35.2506 131.211 35.1193 131.179C33.2604 130.722 32.7569 130.219 32.2998 128.36Z" fill="#EBEBEB"/>
<path opacity="0.4" d="M136.832 94.6843C136.864 94.8157 137.05 94.8157 137.083 94.6843C137.54 92.8254 138.043 92.3219 139.902 91.8648C140.033 91.8326 140.033 91.6461 139.902 91.6139C138.043 91.1568 137.54 90.6533 137.083 88.7944C137.05 88.663 136.864 88.663 136.832 88.7944C136.374 90.6533 135.871 91.1568 134.012 91.6139C133.881 91.6461 133.881 91.8326 134.012 91.8648C135.871 92.3219 136.374 92.8254 136.832 94.6843Z" fill="#EBEBEB"/>
<path d="M56.6479 134.447C56.6157 134.315 56.4292 134.315 56.397 134.447C55.9399 136.305 55.4364 136.809 53.5775 137.266C53.4461 137.298 53.4461 137.485 53.5775 137.517C55.4364 137.974 55.9399 138.478 56.397 140.336C56.4292 140.468 56.6157 140.468 56.6479 140.336C57.105 138.478 57.6085 137.974 59.4674 137.517C59.5988 137.485 59.5988 137.298 59.4674 137.266C57.6085 136.809 57.105 136.305 56.6479 134.447Z" fill="#EBEBEB"/>
<path d="M100.561 143.577C100.529 143.446 100.342 143.446 100.31 143.577C99.853 145.436 99.3495 145.939 97.4906 146.397C97.3592 146.429 97.3592 146.615 97.4906 146.647C99.3495 147.105 99.853 147.608 100.31 149.467C100.342 149.598 100.529 149.598 100.561 149.467C101.018 147.608 101.522 147.105 103.38 146.647C103.512 146.615 103.512 146.429 103.38 146.397C101.522 145.939 101.018 145.436 100.561 143.577Z" fill="#EBEBEB"/>
<path opacity="0.4" d="M49.2563 68.7944C49.2241 68.6629 49.0376 68.6629 49.0054 68.7944C48.5483 70.6532 48.0448 71.1567 46.1859 71.6138C46.0545 71.6461 46.0545 71.8325 46.1859 71.8648C48.0448 72.3218 48.5483 72.8254 49.0054 74.6842C49.0376 74.8156 49.2241 74.8156 49.2563 74.6842C49.7134 72.8254 50.2169 72.3218 52.0758 71.8648C52.2072 71.8325 52.2072 71.6461 52.0758 71.6138C50.2169 71.1567 49.7134 70.6532 49.2563 68.7944Z" fill="#EBEBEB"/>
<path d="M34.4382 107.462C34.4151 107.368 34.282 107.368 34.2589 107.462C33.9324 108.79 33.5728 109.149 32.245 109.476C32.1512 109.499 32.1512 109.632 32.245 109.655C33.5728 109.982 33.9324 110.341 34.2589 111.669C34.282 111.763 34.4151 111.763 34.4382 111.669C34.7647 110.341 35.1243 109.982 36.4521 109.655C36.5459 109.632 36.5459 109.499 36.4521 109.476C35.1243 109.149 34.7647 108.79 34.4382 107.462Z" fill="#EBEBEB"/>
<path d="M37.0466 49.6358C37.0235 49.542 36.8904 49.542 36.8673 49.6358C36.5408 50.9636 36.1812 51.3232 34.8534 51.6497C34.7596 51.6728 34.7596 51.8059 34.8534 51.829C36.1812 52.1555 36.5408 52.5151 36.8673 53.8429C36.8904 53.9367 37.0235 53.9367 37.0466 53.8429C37.3731 52.5151 37.7327 52.1555 39.0605 51.829C39.1543 51.8059 39.1543 51.6728 39.0605 51.6497C37.7327 51.3232 37.3731 50.9636 37.0466 49.6358Z" fill="#EBEBEB"/>
<path d="M161.395 136.158C161.372 136.064 161.239 136.064 161.215 136.158C160.889 137.485 160.529 137.845 159.202 138.171C159.108 138.194 159.108 138.328 159.202 138.351C160.529 138.677 160.889 139.037 161.215 140.365C161.239 140.458 161.372 140.458 161.395 140.365C161.721 139.037 162.081 138.677 163.409 138.351C163.502 138.328 163.502 138.194 163.409 138.171C162.081 137.845 161.721 137.485 161.395 136.158Z" fill="#EBEBEB"/>
<path d="M167.047 179.201C167.024 179.107 166.89 179.107 166.867 179.201C166.541 180.529 166.181 180.888 164.853 181.215C164.76 181.238 164.76 181.371 164.853 181.394C166.181 181.721 166.541 182.08 166.867 183.408C166.89 183.502 167.024 183.502 167.047 183.408C167.373 182.08 167.733 181.721 169.06 181.394C169.154 181.371 169.154 181.238 169.06 181.215C167.733 180.888 167.373 180.529 167.047 179.201Z" fill="#EBEBEB"/>
<path d="M128.287 118.226C128.287 119.703 127.897 120.823 127.118 121.586C126.371 122.309 125.3 122.67 123.904 122.67C122.507 122.67 121.436 122.309 120.689 121.586C119.91 120.823 119.52 119.703 119.52 118.226C119.52 116.732 119.91 115.608 120.689 114.853C121.436 114.13 122.507 113.769 123.904 113.769C125.3 113.769 126.371 114.13 127.118 114.853C127.897 115.608 128.287 116.732 128.287 118.226ZM125.097 115.839C124.797 115.563 124.399 115.425 123.904 115.425C123.408 115.425 123.011 115.563 122.71 115.839C122.191 116.318 121.931 117.114 121.931 118.226C121.931 119.346 122.191 120.141 122.71 120.612C123.019 120.888 123.417 121.026 123.904 121.026C124.407 121.026 124.805 120.888 125.097 120.612C125.616 120.133 125.876 119.338 125.876 118.226C125.876 117.114 125.616 116.318 125.097 115.839ZM137.479 118.226C137.479 119.703 137.089 120.823 136.31 121.586C135.563 122.309 134.491 122.67 133.095 122.67C131.699 122.67 130.628 122.309 129.881 121.586C129.101 120.823 128.712 119.703 128.712 118.226C128.712 116.732 129.101 115.608 129.881 114.853C130.628 114.13 131.699 113.769 133.095 113.769C134.491 113.769 135.563 114.13 136.31 114.853C137.089 115.608 137.479 116.732 137.479 118.226ZM134.289 115.839C133.988 115.563 133.59 115.425 133.095 115.425C132.6 115.425 132.202 115.563 131.902 115.839C131.382 116.318 131.123 117.114 131.123 118.226C131.123 119.346 131.382 120.141 131.902 120.612C132.21 120.888 132.608 121.026 133.095 121.026C133.599 121.026 133.996 120.888 134.289 120.612C134.808 120.133 135.068 119.338 135.068 118.226C135.068 117.114 134.808 116.318 134.289 115.839ZM138.658 119.687V118.165H143.638V119.687H138.658ZM153.603 118.226C153.603 119.703 153.213 120.823 152.434 121.586C151.687 122.309 150.616 122.67 149.219 122.67C147.823 122.67 146.752 122.309 146.005 121.586C145.225 120.823 144.836 119.703 144.836 118.226C144.836 116.732 145.225 115.608 146.005 114.853C146.752 114.13 147.823 113.769 149.219 113.769C150.616 113.769 151.687 114.13 152.434 114.853C153.213 115.608 153.603 116.732 153.603 118.226ZM150.413 115.839C150.112 115.563 149.714 115.425 149.219 115.425C148.724 115.425 148.326 115.563 148.026 115.839C147.507 116.318 147.247 117.114 147.247 118.226C147.247 119.346 147.507 120.141 148.026 120.612C148.334 120.888 148.732 121.026 149.219 121.026C149.723 121.026 150.12 120.888 150.413 120.612C150.932 120.133 151.192 119.338 151.192 118.226C151.192 117.114 150.932 116.318 150.413 115.839ZM162.794 118.226C162.794 119.703 162.405 120.823 161.626 121.586C160.879 122.309 159.807 122.67 158.411 122.67C157.015 122.67 155.943 122.309 155.196 121.586C154.417 120.823 154.028 119.703 154.028 118.226C154.028 116.732 154.417 115.608 155.196 114.853C155.943 114.13 157.015 113.769 158.411 113.769C159.807 113.769 160.879 114.13 161.626 114.853C162.405 115.608 162.794 116.732 162.794 118.226ZM159.604 115.839C159.304 115.563 158.906 115.425 158.411 115.425C157.916 115.425 157.518 115.563 157.218 115.839C156.698 116.318 156.438 117.114 156.438 118.226C156.438 119.346 156.698 120.141 157.218 120.612C157.526 120.888 157.924 121.026 158.411 121.026C158.914 121.026 159.312 120.888 159.604 120.612C160.124 120.133 160.384 119.338 160.384 118.226C160.384 117.114 160.124 116.318 159.604 115.839Z" fill="white"/>
<path opacity="0.45" d="M37.4784 117.719H40.1816V115.016H41.3627V117.719H44.0658V118.9H41.3627V121.603H40.1816V118.9H37.4784V117.719ZM45.5467 115.697V114.041H52.9377V115.442C52.3533 115.961 51.85 116.517 51.4279 117.11C51.0058 117.702 50.6811 118.25 50.4538 118.754C49.918 119.882 49.6096 121.152 49.5284 122.565H47.1297C47.3082 120.982 47.7141 119.647 48.3473 118.559C48.9318 117.495 49.6989 116.542 50.6486 115.697H45.5467ZM59.492 113.554H61.2089C60.6893 114.723 60.3484 115.576 60.1861 116.111C59.8451 117.077 59.6747 118.047 59.6747 119.022C59.6747 119.963 59.8411 120.933 60.1739 121.932C60.4336 122.776 60.7786 123.649 61.2089 124.55H59.492C58.8751 123.584 58.4286 122.743 58.1526 122.029C57.7549 121.071 57.556 120.089 57.556 119.082C57.556 118.043 57.7792 116.992 58.2257 115.929C58.5017 115.287 58.9238 114.496 59.492 113.554ZM65.4718 115.977L64.4612 117.341L63.621 116.696L64.5951 115.369L63.0365 114.857L63.3897 113.847L64.9482 114.382V112.739H66.0076V114.382L67.5539 113.859L67.8949 114.857L66.3485 115.369L67.3104 116.684L66.4703 117.329L65.4718 115.977ZM71.9404 115.977L70.9298 117.341L70.0896 116.696L71.0638 115.369L69.5052 114.857L69.8583 113.847L71.4169 114.382V112.739H72.4762V114.382L74.0226 113.859L74.3635 114.857L72.8171 115.369L73.7791 116.684L72.9389 117.329L71.9404 115.977ZM78.4091 115.977L77.3985 117.341L76.5583 116.696L77.5324 115.369L75.9738 114.857L76.3269 113.847L77.8855 114.382V112.739H78.9448V114.382L80.4912 113.859L80.8322 114.857L79.2858 115.369L80.2477 116.684L79.4075 117.329L78.4091 115.977ZM82.4912 113.554H84.208C84.7763 114.496 85.1984 115.287 85.4744 115.929C85.9208 116.992 86.1441 118.043 86.1441 119.082C86.1441 120.089 85.9452 121.071 85.5474 122.029C85.2714 122.743 84.825 123.584 84.208 124.55H82.4912C82.9701 123.454 83.3151 122.581 83.5262 121.932C83.859 120.933 84.0254 119.963 84.0254 119.022C84.0254 118.047 83.8549 117.077 83.514 116.111C83.3516 115.576 83.0107 114.723 82.4912 113.554ZM93.2489 115.977L92.2383 117.341L91.3981 116.696L92.3722 115.369L90.8137 114.857L91.1668 113.847L92.7253 114.382V112.739H93.7847V114.382L95.3311 113.859L95.672 114.857L94.1256 115.369L95.0875 116.684L94.2474 117.329L93.2489 115.977ZM99.7176 115.977L98.7069 117.341L97.8668 116.696L98.8409 115.369L97.2823 114.857L97.6354 113.847L99.194 114.382V112.739H100.253V114.382L101.8 113.859L102.141 114.857L100.594 115.369L101.556 116.684L100.716 117.329L99.7176 115.977ZM106.186 115.977L105.176 117.341L104.335 116.696L105.31 115.369L103.751 114.857L104.104 113.847L105.663 114.382V112.739H106.722V114.382L108.268 113.859L108.609 114.857L107.063 115.369L108.025 116.684L107.185 117.329L106.186 115.977ZM110.39 119.752V118.23H115.37V119.752H110.39Z" fill="white"/>
<path d="M135.952 191.662C147.085 191.662 156.11 182.649 156.11 171.531C156.11 160.413 147.085 151.4 135.952 151.4C124.819 151.4 115.794 160.413 115.794 171.531C115.794 182.649 124.819 191.662 135.952 191.662Z" fill="#E8505B"/>
<path d="M127.122 174.842L130.715 173.998C131.155 173.891 131.47 173.496 131.47 173.047V172.303C131.47 172.303 131.317 171.047 132.503 170.966C133.356 170.912 138.764 170.966 138.764 170.966C138.764 170.966 140.183 170.939 140.165 172.061V173.137C140.165 173.505 140.408 173.837 140.767 173.944L144.666 175.12C145.079 175.245 145.519 175.039 145.69 174.635L146.184 173.433C146.274 173.209 146.319 172.976 146.31 172.742C146.283 172.276 146.103 171.54 145.636 170.939C144.863 169.952 141.216 167.611 134.273 167.943C127.652 168.266 126.215 171.047 125.829 171.72C125.595 172.132 125.523 173.146 125.703 173.577C125.775 173.738 125.883 173.998 125.99 174.267C126.179 174.707 126.655 174.958 127.122 174.842Z" fill="white"/>
<path d="M53.4846 157.297C45.6125 165.169 45.604 177.923 53.4656 185.785C61.3272 193.647 74.0818 193.638 81.9539 185.766C89.826 177.894 89.8345 165.139 81.9729 157.278C74.1113 149.416 61.3566 149.425 53.4846 157.297Z" fill="#50E871"/>
<path d="M63.8066 162.947L65.7511 166.084C65.9862 166.471 65.9294 166.972 65.6122 167.29L65.0857 167.816C65.0857 167.816 64.0897 168.596 64.871 169.492C65.4364 170.133 69.2983 173.919 69.2983 173.919C69.2983 173.919 70.2829 174.942 71.0631 174.136L71.8243 173.375C72.0844 173.115 72.4906 173.052 72.8208 173.229L76.4085 175.155C76.7895 175.359 76.9548 175.816 76.7901 176.222L76.2894 177.421C76.1943 177.643 76.0612 177.84 75.8899 177.999C75.541 178.309 74.8938 178.703 74.1385 178.797C72.8944 178.949 68.6599 178.026 63.9846 172.881C59.5316 167.971 60.4818 164.988 60.6844 164.239C60.8111 163.783 61.4771 163.015 61.9086 162.837C62.0736 162.774 62.3338 162.666 62.6003 162.552C63.0445 162.375 63.5588 162.534 63.8066 162.947Z" fill="white"/>
<rect x="75.2173" y="46.522" width="52.1739" height="13.0435" rx="6.52174" fill="#01A6FF"/>
<path d="M100.435 216.522C167.189 216.522 221.305 209.514 221.305 200.87C221.305 192.225 167.189 185.217 100.435 185.217C33.6806 185.217 -20.4346 192.225 -20.4346 200.87C-20.4346 209.514 33.6806 216.522 100.435 216.522Z" fill="#F5F5F5"/>
</g>
<defs>
<linearGradient id="paint0_linear_1_14246" x1="101.087" y1="37.3915" x2="101.087" y2="332.762" gradientUnits="userSpaceOnUse">
<stop stop-color="#214FE2"/>
<stop offset="1" stop-color="#01A6FF"/>
</linearGradient>
<linearGradient id="paint1_linear_1_14246" x1="135.963" y1="44.4745" x2="76.1817" y2="179.06" gradientUnits="userSpaceOnUse">
<stop stop-color="#214FE2"/>
<stop offset="1" stop-color="#01A6FF"/>
</linearGradient>
<clipPath id="clip0_1_14246">
<rect width="200" height="200" rx="24" fill="white"/>
</clipPath>
</defs>
</svg>
