<svg width="200" height="200" viewBox="0 0 200 200" fill="none" xmlns="http://www.w3.org/2000/svg">
<g clip-path="url(#clip0_49_4233)">
<rect width="200" height="200" rx="24" fill="#FAFAFA"/>
<path d="M185.568 16.3481V48.1109H144.489L143.009 16.5713L185.568 16.3481Z" fill="#E0E0E0"/>
<path d="M143.009 16.5354V48.1108H184.088V16.5354L143.009 16.5354Z" fill="white"/>
<path d="M184.244 48.2662H142.854V16.376H184.244V48.2662ZM143.165 47.9514H183.929V16.6908H143.165V47.9554V47.9514Z" fill="#E0E0E0"/>
<path d="M179.639 19.7793H147.459V43.954H179.639V19.7793Z" fill="white"/>
<path d="M179.639 19.7793C179.639 19.7793 179.583 19.7793 179.483 19.7833C179.379 19.7833 179.228 19.7833 179.032 19.7873C178.629 19.7873 178.042 19.7913 177.28 19.7953C175.748 19.7993 173.513 19.8072 170.68 19.8152C165.021 19.8232 156.984 19.8351 147.463 19.8511L147.534 19.7793C147.534 27.0326 147.538 35.2622 147.542 43.9501L147.463 43.8704C159.446 43.8744 170.556 43.8823 179.643 43.8863L179.575 43.9541C179.591 36.649 179.603 30.6113 179.611 26.3989C179.619 24.2907 179.623 22.6408 179.627 21.5089C179.627 20.947 179.631 20.5166 179.635 20.2217C179.635 19.9308 179.643 19.7753 179.643 19.7753C179.643 19.7753 179.647 19.9188 179.651 20.2058C179.651 20.4967 179.655 20.9231 179.659 21.4811C179.659 22.6049 179.667 24.2508 179.675 26.3551C179.683 30.5795 179.695 36.6291 179.711 43.9501V44.0178H179.643C170.556 44.0218 159.446 44.0258 147.463 44.0338H147.383V43.9541C147.383 35.2622 147.387 27.0286 147.391 19.7793V19.7036H147.463C157.008 19.7196 165.057 19.7315 170.728 19.7395C173.553 19.7475 175.784 19.7554 177.312 19.7594C178.07 19.7594 178.653 19.7674 179.052 19.7674C179.244 19.7674 179.391 19.7674 179.495 19.7714C179.595 19.7714 179.643 19.7753 179.643 19.7753L179.639 19.7793Z" fill="#E0E0E0"/>
<path d="M143.009 16.46C143.009 16.46 143.288 16.6075 143.703 16.8865C144.118 17.1654 144.689 17.564 145.307 18.0183C145.926 18.4726 146.469 18.903 146.856 19.2258C147.243 19.5486 147.47 19.7599 147.458 19.7758C147.442 19.7957 147.191 19.6124 146.788 19.3135C146.337 18.9787 145.802 18.5842 145.212 18.1458C144.621 17.7074 144.086 17.3089 143.639 16.9741C143.24 16.6713 142.997 16.472 143.013 16.4561L143.009 16.46Z" fill="#E0E0E0"/>
<path d="M184.088 16.5355C184.116 16.5714 183.138 17.3286 181.913 18.2253C180.684 19.122 179.666 19.8194 179.638 19.7835C179.61 19.7476 180.584 18.9904 181.813 18.0937C183.042 17.1971 184.06 16.4996 184.084 16.5355H184.088Z" fill="#E0E0E0"/>
<path d="M179.475 43.9544C179.507 43.9226 180.561 44.8232 181.838 45.971C183.111 47.1188 184.12 48.0752 184.088 48.1111C184.057 48.143 183.003 47.2423 181.726 46.0945C180.453 44.9468 179.443 43.9903 179.475 43.9544Z" fill="#E0E0E0"/>
<path d="M143.01 48.1108C142.978 48.0789 143.939 47.1623 145.157 46.0664C146.374 44.9704 147.383 44.1096 147.411 44.1415C147.443 44.1734 146.481 45.09 145.264 46.1859C144.047 47.2819 143.037 48.1427 143.01 48.1108Z" fill="#E0E0E0"/>
<path d="M171.315 31.6477C170.868 33.744 168.805 35.083 166.71 34.6367C164.614 34.1903 163.27 32.1299 163.717 30.0377C164.164 27.9414 166.227 26.6024 168.322 27.0487C170.421 27.4951 171.762 29.5555 171.315 31.6477Z" fill="#F5F5F5"/>
<path d="M166.25 34.5252C166.21 34.5052 166.374 34.1067 166.585 33.4531C166.793 32.8035 167.044 31.871 166.941 30.8467C166.833 29.8265 166.306 28.9936 165.807 28.5592C165.304 28.1088 164.865 28.0172 164.885 27.9614C164.885 27.9335 165.36 27.9534 165.943 28.3918C166.522 28.8182 167.124 29.7069 167.244 30.8109C167.356 31.9108 167.052 32.8792 166.789 33.5248C166.518 34.1744 166.286 34.5411 166.25 34.5252Z" fill="#E0E0E0"/>
<path d="M171.267 30.3726C171.247 30.4603 170.217 30.0897 169.008 30.4483C167.795 30.799 167.128 31.6678 167.068 31.6041C167.037 31.5841 167.156 31.337 167.464 31.0222C167.767 30.7114 168.274 30.3487 168.924 30.1574C169.575 29.9661 170.197 29.998 170.62 30.0936C171.047 30.1893 171.279 30.3328 171.267 30.3686V30.3726Z" fill="#E0E0E0"/>
<path d="M169.511 30.1729C169.464 30.1729 169.484 29.9019 169.344 29.5194C169.212 29.1447 168.873 28.6506 168.318 28.4274C167.756 28.2122 167.173 28.3477 166.822 28.535C166.463 28.7223 166.295 28.9335 166.255 28.9016C166.227 28.8857 166.335 28.6147 166.71 28.3517C167.069 28.0926 167.744 27.8854 168.426 28.1444C169.1 28.4154 169.456 29.0212 169.547 29.4556C169.647 29.9019 169.539 30.1769 169.511 30.169V30.1729Z" fill="#E0E0E0"/>
<path d="M168.274 30.5834C168.186 30.5635 168.25 30.0334 168.094 29.4157C167.95 28.794 167.655 28.3477 167.723 28.2919C167.779 28.2321 168.222 28.6426 168.389 29.344C168.561 30.0414 168.349 30.6113 168.274 30.5834Z" fill="#E0E0E0"/>
<path d="M168.237 29.368C168.233 29.4597 167.898 29.4756 167.579 29.643C167.256 29.8183 166.988 30.0415 166.925 29.9738C166.873 29.9259 167.032 29.6031 167.439 29.376C167.874 29.1568 168.253 29.2963 168.237 29.368Z" fill="#E0E0E0"/>
<path d="M162.025 31.1857C163.27 32.2299 163.434 34.087 162.384 35.3304C161.338 36.5738 159.479 36.7372 158.234 35.6891C156.989 34.645 156.825 32.7878 157.875 31.5444C158.924 30.301 160.78 30.1376 162.025 31.1857Z" fill="#F5F5F5"/>
<path d="M162.149 35.5976C162.121 35.6175 161.913 35.3664 161.55 34.9878C161.187 34.6172 160.652 34.1151 159.93 33.8201C159.208 33.5292 158.461 33.581 157.991 33.7643C157.512 33.9437 157.292 34.1987 157.26 34.1708C157.24 34.1629 157.424 33.852 157.927 33.6169C158.418 33.3818 159.228 33.2941 160.014 33.6129C160.792 33.9317 161.331 34.4817 161.67 34.8842C162.009 35.2947 162.169 35.5856 162.149 35.6016V35.5976Z" fill="#E0E0E0"/>
<path d="M161.151 30.7631C161.203 30.807 160.588 31.3609 160.397 32.3015C160.197 33.238 160.544 33.9912 160.48 34.0111C160.456 34.0231 160.333 33.8557 160.233 33.5409C160.133 33.226 160.069 32.7558 160.173 32.2536C160.277 31.7515 160.52 31.345 160.736 31.0979C160.955 30.8468 161.131 30.7432 161.151 30.7631Z" fill="#E0E0E0"/>
<path d="M160.393 31.8673C160.373 31.8992 160.202 31.7876 159.895 31.7478C159.599 31.7039 159.144 31.7478 158.797 32.0467C158.454 32.3455 158.334 32.7839 158.338 33.0868C158.334 33.3937 158.418 33.581 158.382 33.5969C158.362 33.6129 158.218 33.4415 158.175 33.0948C158.131 32.764 158.23 32.2379 158.649 31.8753C159.072 31.5206 159.607 31.5007 159.93 31.5923C160.266 31.684 160.413 31.8554 160.393 31.8713V31.8673Z" fill="#E0E0E0"/>
<path d="M160.225 32.8396C160.181 32.8914 159.846 32.6603 159.379 32.5407C158.912 32.4132 158.505 32.453 158.493 32.3893C158.473 32.3335 158.908 32.182 159.435 32.3175C159.965 32.453 160.269 32.7958 160.225 32.8356V32.8396Z" fill="#E0E0E0"/>
<path d="M159.399 32.4294C159.459 32.4652 159.351 32.6924 159.351 32.9674C159.351 33.2464 159.407 33.5054 159.34 33.5213C159.288 33.5373 159.128 33.3181 159.124 32.9634C159.132 32.5968 159.359 32.3895 159.403 32.4254L159.399 32.4294Z" fill="#E0E0E0"/>
<path d="M162.148 30.1732C161.107 29.4957 160.468 28.2882 160.053 27.1165C159.638 25.9448 159.622 24.6377 160.005 23.458C161.151 23.9681 162.076 24.9565 162.511 26.1321C162.946 27.3078 162.691 29.0414 162.148 30.1732Z" fill="#EBEBEB"/>
<path d="M160.939 25.3789C161.398 26.8973 161.773 28.4396 162.057 30.0018L160.939 25.3789Z" fill="white"/>
<path d="M162.057 30.002C162.033 30.006 161.969 29.747 161.87 29.3285C161.758 28.8463 161.626 28.3003 161.486 27.6945C161.335 27.0888 161.199 26.5428 161.083 26.0646C160.98 25.6461 160.92 25.3871 160.944 25.3791C160.964 25.3711 161.063 25.6222 161.195 26.0327C161.327 26.4432 161.494 27.017 161.646 27.6547C161.802 28.2963 161.917 28.8782 161.985 29.3046C162.053 29.731 162.081 29.998 162.061 30.002H162.057Z" fill="#E0E0E0"/>
<path d="M164.786 35.4536C166.003 35.1985 167.308 35.601 168.434 36.1351C169.555 36.6691 170.493 37.5817 171.059 38.6896C169.886 39.14 168.533 39.0961 167.392 38.5701C166.251 38.044 165.205 36.6372 164.786 35.4576" fill="#EBEBEB"/>
<path d="M169.04 37.9886C167.639 37.2394 166.282 36.4104 164.978 35.5098L169.04 37.9886Z" fill="white"/>
<path d="M164.973 35.5098C164.973 35.5098 165.217 35.6253 165.584 35.8525C166.003 36.1115 166.486 36.4104 167.012 36.7372C167.547 37.06 168.03 37.351 168.453 37.606C168.82 37.8292 169.048 37.9687 169.036 37.9886C169.024 38.0085 168.78 37.9009 168.393 37.7057C168.01 37.5104 167.487 37.2195 166.925 36.8767C166.362 36.534 165.867 36.1992 165.516 35.9481C165.165 35.6971 164.957 35.5257 164.969 35.5098H164.973Z" fill="#E0E0E0"/>
<path d="M163.609 36.0317C163.832 36.7411 163.669 37.5382 163.417 38.2356C163.166 38.933 162.675 39.5428 162.049 39.9453C161.713 39.2758 161.658 38.4667 161.905 37.7614C162.152 37.052 162.927 36.3506 163.609 36.0317Z" fill="#EBEBEB"/>
<path d="M162.348 38.7055C162.711 37.8288 163.126 36.9759 163.585 36.147L162.348 38.7055Z" fill="white"/>
<path d="M163.585 36.147C163.625 36.1709 163.341 36.7408 163.002 37.4462C162.659 38.1516 162.388 38.7255 162.348 38.7096C162.308 38.6936 162.511 38.0879 162.859 37.3745C163.202 36.6651 163.549 36.1271 163.589 36.147H163.585Z" fill="#E0E0E0"/>
<path d="M57.7178 13.9131H24.584V68.6868H57.7178V13.9131Z" fill="#E0E0E0"/>
<path d="M56.6124 13.9131H23.4785V68.6868H56.6124V13.9131Z" fill="#EBEBEB"/>
<path d="M55.2041 15.0249H24.8916V67.5749H55.2041V15.0249Z" fill="#FAFAFA"/>
<path d="M49.3022 21.8516H30.6621V60.744H49.3022V21.8516Z" fill="#EBEBEB"/>
<path d="M30.6616 46.9828C30.6177 43.3482 33.89 39.8013 37.4935 39.2952C39.2094 39.0521 41.0371 39.3948 42.6413 38.7372C45.5066 37.5655 46.4164 33.7636 49.3016 32.6357L49.4333 60.7479H30.6616V46.9868V46.9828Z" fill="#E0E0E0"/>
<path d="M178.647 34.4222C179.147 23.2468 170.222 13.9131 159.035 13.9131H45.1955C34.695 13.9131 26.0538 22.1761 25.5841 32.6661L13.0921 311.665C12.5917 322.84 21.517 332.174 32.7036 332.174H146.543C157.044 332.174 165.685 323.911 166.155 313.421L178.647 34.4222Z" fill="url(#paint0_linear_49_4233)"/>
<path opacity="0.56" d="M174.299 38.7699C174.8 27.5945 165.874 18.2607 154.688 18.2607H40.8479C30.3474 18.2607 21.7061 26.5238 21.2364 37.0137L8.74446 316.012C8.24408 327.188 17.1693 336.522 28.3559 336.522H142.196C152.696 336.522 161.338 328.259 161.807 317.769L174.299 38.7699Z" fill="#FAFAFA"/>
<path opacity="0.07" d="M169.516 43.1183C170.017 31.9426 161.092 22.6084 149.905 22.6084H36.0769C25.5766 22.6084 16.9355 30.871 16.4654 41.3607L3.96303 320.359C3.46223 331.535 12.3876 340.869 23.5744 340.869H137.402C147.903 340.869 156.544 332.607 157.014 322.117L169.516 43.1183Z" fill="#214FE2"/>
<path d="M66.3856 133.675V135.003H67.9536C68.3216 135.003 68.5456 134.963 68.6256 134.883C68.8122 134.761 68.9056 134.579 68.9056 134.339C68.9056 134.083 68.8122 133.902 68.6256 133.795C68.4816 133.715 68.2496 133.675 67.9296 133.675H66.3856ZM66.3856 131.483V132.667H67.7056C68.1002 132.667 68.3642 132.611 68.4976 132.499C68.6202 132.398 68.6816 132.249 68.6816 132.051C68.6816 131.865 68.6069 131.715 68.4576 131.603C68.3456 131.523 68.1216 131.483 67.7856 131.483H66.3856ZM64.9136 130.443H68.1456C68.8656 130.443 69.3669 130.539 69.6496 130.731C70.0122 130.982 70.1936 131.358 70.1936 131.859C70.1936 132.233 70.0816 132.526 69.8576 132.739C69.7669 132.819 69.6602 132.889 69.5376 132.947C69.4149 133.006 69.3162 133.043 69.2416 133.059C69.1669 133.075 69.1162 133.083 69.0896 133.083V133.115C69.5429 133.158 69.8949 133.305 70.1456 133.555C70.3749 133.785 70.4896 134.102 70.4896 134.507C70.4896 134.982 70.3509 135.347 70.0736 135.603C69.7536 135.897 69.1296 136.043 68.2016 136.043H64.9136V130.443ZM74.5555 134.235V134.171C74.4808 134.235 74.3955 134.281 74.2995 134.307C74.2088 134.329 74.0515 134.35 73.8275 134.371L73.5315 134.403C73.2595 134.43 73.0702 134.478 72.9635 134.547C72.8355 134.649 72.7715 134.763 72.7715 134.891C72.7715 135.035 72.8275 135.15 72.9395 135.235C73.0462 135.321 73.2248 135.363 73.4755 135.363C73.8168 135.363 74.0808 135.27 74.2675 135.083C74.4595 134.891 74.5555 134.609 74.5555 134.235ZM72.8915 133.291H71.4675C71.4675 132.918 71.5982 132.601 71.8595 132.339C72.0675 132.137 72.3182 132.001 72.6115 131.931C72.9102 131.862 73.2755 131.827 73.7075 131.827C74.6515 131.827 75.2942 132.006 75.6355 132.363C75.7368 132.47 75.8142 132.595 75.8675 132.739C75.9262 132.883 75.9582 133.003 75.9635 133.099C75.9742 133.195 75.9795 133.321 75.9795 133.475V135.283C75.9795 135.481 76.0008 135.643 76.0435 135.771C76.0968 135.862 76.1715 135.915 76.2675 135.931V136.043H74.7315L74.6435 135.643H74.6115C74.4568 135.841 74.2462 135.985 73.9795 136.075C73.7342 136.155 73.4115 136.195 73.0115 136.195C72.4195 136.195 71.9982 136.11 71.7475 135.939C71.4328 135.715 71.2755 135.393 71.2755 134.971C71.2755 134.635 71.3768 134.369 71.5795 134.171C71.6968 134.059 71.8595 133.969 72.0675 133.899C72.2755 133.83 72.4355 133.787 72.5475 133.771C72.6648 133.755 72.8382 133.737 73.0675 133.715L73.7075 133.659C73.8728 133.643 73.9875 133.633 74.0515 133.627C74.1208 133.622 74.1955 133.609 74.2755 133.587C74.3555 133.561 74.4142 133.526 74.4515 133.483C74.5155 133.419 74.5475 133.331 74.5475 133.219C74.5475 133.049 74.4622 132.915 74.2915 132.819C74.1635 132.745 73.9768 132.707 73.7315 132.707C73.4648 132.707 73.2622 132.755 73.1235 132.851C72.9742 132.969 72.8968 133.115 72.8915 133.291ZM78.4596 135.099H80.0596V131.979H81.4676V135.099H83.0676V131.979H84.4756V136.043H77.0516V131.979H78.4596V135.099ZM88.7486 132.923V136.043H87.3406V131.979H91.9726V136.043H90.5646V132.923H88.7486ZM96.1492 134.235V134.171C96.0746 134.235 95.9892 134.281 95.8932 134.307C95.8026 134.329 95.6452 134.35 95.4212 134.371L95.1252 134.403C94.8532 134.43 94.6639 134.478 94.5572 134.547C94.4292 134.649 94.3652 134.763 94.3652 134.891C94.3652 135.035 94.4212 135.15 94.5332 135.235C94.6399 135.321 94.8186 135.363 95.0692 135.363C95.4106 135.363 95.6746 135.27 95.8612 135.083C96.0532 134.891 96.1492 134.609 96.1492 134.235ZM94.4852 133.291H93.0612C93.0612 132.918 93.1919 132.601 93.4532 132.339C93.6612 132.137 93.9119 132.001 94.2052 131.931C94.5039 131.862 94.8692 131.827 95.3012 131.827C96.2452 131.827 96.8879 132.006 97.2292 132.363C97.3306 132.47 97.4079 132.595 97.4612 132.739C97.5199 132.883 97.5519 133.003 97.5572 133.099C97.5679 133.195 97.5732 133.321 97.5732 133.475V135.283C97.5732 135.481 97.5946 135.643 97.6372 135.771C97.6906 135.862 97.7652 135.915 97.8612 135.931V136.043H96.3252L96.2372 135.643H96.2052C96.0506 135.841 95.8399 135.985 95.5732 136.075C95.3279 136.155 95.0052 136.195 94.6052 136.195C94.0132 136.195 93.5919 136.11 93.3412 135.939C93.0266 135.715 92.8692 135.393 92.8692 134.971C92.8692 134.635 92.9706 134.369 93.1732 134.171C93.2906 134.059 93.4532 133.969 93.6612 133.899C93.8692 133.83 94.0292 133.787 94.1412 133.771C94.2586 133.755 94.4319 133.737 94.6612 133.715L95.3012 133.659C95.4666 133.643 95.5812 133.633 95.6452 133.627C95.7146 133.622 95.7892 133.609 95.8692 133.587C95.9492 133.561 96.0079 133.526 96.0452 133.483C96.1092 133.419 96.1412 133.331 96.1412 133.219C96.1412 133.049 96.0559 132.915 95.8852 132.819C95.7572 132.745 95.5706 132.707 95.3252 132.707C95.0586 132.707 94.8559 132.755 94.7172 132.851C94.5679 132.969 94.4906 133.115 94.4852 133.291ZM101.141 132.747C100.821 132.747 100.56 132.851 100.357 133.059C100.128 133.315 100.013 133.638 100.013 134.027C100.013 134.433 100.12 134.745 100.333 134.963C100.541 135.171 100.819 135.275 101.165 135.275C101.517 135.275 101.787 135.166 101.973 134.947C102.171 134.723 102.269 134.409 102.269 134.003C102.269 133.619 102.171 133.313 101.973 133.083C101.765 132.859 101.488 132.747 101.141 132.747ZM98.6453 131.979H99.9893V132.491H100.013C100.157 132.299 100.333 132.15 100.541 132.043C100.803 131.915 101.139 131.851 101.549 131.851C102.227 131.851 102.755 132.022 103.133 132.363C103.528 132.742 103.725 133.281 103.725 133.979C103.725 134.71 103.528 135.267 103.133 135.651C102.915 135.87 102.675 136.011 102.413 136.075C102.157 136.139 101.864 136.171 101.533 136.171C101.117 136.171 100.805 136.126 100.597 136.035C100.384 135.95 100.203 135.809 100.053 135.611V137.523H98.6453V131.979ZM107.856 133.043C107.653 132.841 107.365 132.739 106.992 132.739C106.619 132.739 106.331 132.841 106.128 133.043C105.904 133.267 105.792 133.59 105.792 134.011C105.792 134.433 105.904 134.755 106.128 134.979C106.331 135.182 106.619 135.283 106.992 135.283C107.365 135.283 107.653 135.182 107.856 134.979C108.08 134.755 108.192 134.433 108.192 134.011C108.192 133.59 108.08 133.267 107.856 133.043ZM108.944 132.363C109.413 132.742 109.648 133.291 109.648 134.011C109.648 134.731 109.413 135.281 108.944 135.659C108.501 136.017 107.851 136.195 106.992 136.195C106.133 136.195 105.483 136.017 105.04 135.659C104.571 135.281 104.336 134.731 104.336 134.011C104.336 133.291 104.571 132.742 105.04 132.363C105.493 132.006 106.144 131.827 106.992 131.827C107.84 131.827 108.491 132.006 108.944 132.363ZM109.988 136.035V135.115C110.047 135.137 110.124 135.147 110.22 135.147C110.385 135.147 110.519 135.097 110.62 134.995C110.753 134.862 110.836 134.63 110.868 134.299C110.889 134.07 110.9 133.721 110.9 133.251V131.979H114.94V136.043H113.532V132.923H112.156V133.531C112.156 133.878 112.137 134.262 112.1 134.683C112.031 135.158 111.881 135.51 111.652 135.739C111.407 135.974 111.041 136.091 110.556 136.091C110.321 136.091 110.132 136.073 109.988 136.035ZM117.358 134.267V135.211H118.318C118.569 135.211 118.747 135.177 118.854 135.107C118.977 135.027 119.038 134.899 119.038 134.723C119.038 134.531 118.966 134.403 118.822 134.339C118.726 134.291 118.55 134.267 118.294 134.267H117.358ZM117.358 131.979V133.435H118.726C119.339 133.435 119.777 133.545 120.038 133.763C120.31 133.987 120.446 134.313 120.446 134.739C120.446 135.198 120.281 135.542 119.95 135.771C119.678 135.953 119.259 136.043 118.694 136.043H115.95V131.979H117.358ZM121.451 136.043V134.731H122.923V136.043H121.451ZM121.451 133.291V131.979H122.923V133.291H121.451Z" fill="white"/>
<path d="M135.433 76.5583C135.089 84.3054 132.282 91.4608 127.782 97.2677C120.985 106.074 110.334 111.799 98.6104 111.799C86.8865 111.799 76.7589 106.074 70.7594 97.2677C66.7826 91.4608 64.6085 84.3054 64.9525 76.5583C65.8194 57.0874 82.3043 41.3042 101.762 41.3042C121.219 41.3042 136.314 57.0874 135.433 76.5583Z" fill="white"/>
<path d="M145.203 55.2172C145.06 58.2818 143.957 61.1012 142.181 63.3894C139.505 66.8625 135.298 69.1303 130.682 69.1303C126.067 69.1303 122.064 66.8625 119.694 63.3894C118.122 61.1012 117.264 58.2818 117.407 55.2172C117.754 47.5354 124.249 41.3042 131.928 41.3042C139.607 41.3042 145.55 47.5354 145.203 55.2172Z" fill="url(#paint1_linear_49_4233)"/>
<g clip-path="url(#clip1_49_4233)">
<path d="M135 52.8332H134.334V51.4998C134.334 49.6598 132.84 48.1665 131 48.1665C129.16 48.1665 127.667 49.6598 127.667 51.4998V52.8332H127C126.267 52.8332 125.667 53.4332 125.667 54.1665V60.8332C125.667 61.5665 126.267 62.1665 127 62.1665H135C135.734 62.1665 136.334 61.5665 136.334 60.8332V54.1665C136.334 53.4332 135.734 52.8332 135 52.8332ZM131 58.8332C130.267 58.8332 129.667 58.2332 129.667 57.4998C129.667 56.7665 130.267 56.1665 131 56.1665C131.734 56.1665 132.334 56.7665 132.334 57.4998C132.334 58.2332 131.734 58.8332 131 58.8332ZM133.067 52.8332H128.934V51.4998C128.934 50.3598 129.86 49.4332 131 49.4332C132.14 49.4332 133.067 50.3598 133.067 51.4998V52.8332Z" fill="white"/>
</g>
<path d="M152.773 151.801C152.921 148.45 150.244 145.652 146.889 145.652H41.3966C38.245 145.652 35.6519 148.134 35.513 151.282L35.0544 161.677C34.9066 165.029 37.5836 167.826 40.938 167.826H146.431C149.582 167.826 152.175 165.345 152.314 162.196L152.773 151.801Z" fill="#F5F5F5"/>
<path d="M114.971 64.766C114.613 72.6369 107.953 79.0218 100.082 79.0218C92.211 79.0218 86.1152 72.6369 86.4592 64.766C86.817 56.8951 93.477 50.5103 101.348 50.5103C109.219 50.5103 115.315 56.8951 114.971 64.766Z" fill="#214FE2"/>
<path d="M127.769 97.2679C120.971 106.075 110.321 111.799 98.5971 111.799C86.8732 111.799 76.7456 106.075 70.7461 97.2679C77.4336 90.6079 88.0154 86.2871 99.7392 86.2871C111.463 86.2871 121.673 90.6079 127.769 97.2679Z" fill="#214FE2"/>
<path opacity="0.1" d="M114.971 64.766C114.613 72.6369 107.953 79.0218 100.082 79.0218C92.211 79.0218 86.1152 72.6369 86.4592 64.766C86.817 56.8951 93.477 50.5103 101.348 50.5103C109.219 50.5103 115.315 56.8951 114.971 64.766Z" fill="white"/>
<path opacity="0.1" d="M127.769 97.2679C120.971 106.075 110.321 111.799 98.5971 111.799C86.8732 111.799 76.7456 106.075 70.7461 97.2679C77.4336 90.6079 88.0154 86.2871 99.7392 86.2871C111.463 86.2871 121.673 90.6079 127.769 97.2679Z" fill="white"/>
<path d="M100.435 216.522C167.189 216.522 221.305 209.514 221.305 200.869C221.305 192.225 167.189 185.217 100.435 185.217C33.6806 185.217 -20.4346 192.225 -20.4346 200.869C-20.4346 209.514 33.6806 216.522 100.435 216.522Z" fill="#F5F5F5"/>
<path d="M45.5088 157.722L44.0526 159.5L42.8421 158.659L44.2456 156.929L42 156.262L42.5088 154.944L44.7544 155.643V153.5H46.2807V155.643L48.5088 154.96L49 156.262L46.7719 156.929L48.1579 158.643L46.9474 159.484L45.5088 157.722Z" fill="#214FE2"/>
<path d="M60.5088 157.722L59.0526 159.5L57.8421 158.659L59.2456 156.929L57 156.262L57.5088 154.944L59.7544 155.643V153.5H61.2807V155.643L63.5088 154.96L64 156.262L61.7719 156.929L63.1579 158.643L61.9474 159.484L60.5088 157.722Z" fill="#214FE2"/>
<path d="M76.5088 157.722L75.0526 159.5L73.8421 158.659L75.2456 156.929L73 156.262L73.5088 154.944L75.7544 155.643V153.5H77.2807V155.643L79.5088 154.96L80 156.262L77.7719 156.929L79.1579 158.643L77.9474 159.484L76.5088 157.722Z" fill="#214FE2"/>
<path d="M92.5088 157.722L91.0526 159.5L89.8421 158.659L91.2456 156.929L89 156.262L89.5088 154.944L91.7544 155.643V153.5H93.2807V155.643L95.5088 154.96L96 156.262L93.7719 156.929L95.1579 158.643L93.9474 159.484L92.5088 157.722Z" fill="#214FE2"/>
<path d="M108.509 157.722L107.053 159.5L105.842 158.659L107.246 156.929L105 156.262L105.509 154.944L107.754 155.643V153.5H109.281V155.643L111.509 154.96L112 156.262L109.772 156.929L111.158 158.643L109.947 159.484L108.509 157.722Z" fill="#214FE2"/>
<path d="M124.509 157.722L123.053 159.5L121.842 158.659L123.246 156.929L121 156.262L121.509 154.944L123.754 155.643V153.5H125.281V155.643L127.509 154.96L128 156.262L125.772 156.929L127.158 158.643L125.947 159.484L124.509 157.722Z" fill="#214FE2"/>
<path d="M140.509 157.722L139.053 159.5L137.842 158.659L139.246 156.929L137 156.262L137.509 154.944L139.754 155.643V153.5H141.281V155.643L143.509 154.96L144 156.262L141.772 156.929L143.158 158.643L141.947 159.484L140.509 157.722Z" fill="#214FE2"/>
</g>
<defs>
<linearGradient id="paint0_linear_49_4233" x1="95.8695" y1="13.9131" x2="95.8695" y2="332.174" gradientUnits="userSpaceOnUse">
<stop stop-color="#01A6FF"/>
<stop offset="1" stop-color="#214FE2"/>
</linearGradient>
<linearGradient id="paint1_linear_49_4233" x1="131.305" y1="41.3042" x2="131.305" y2="69.1303" gradientUnits="userSpaceOnUse">
<stop stop-color="#01A6FF"/>
<stop offset="1" stop-color="#214FE2"/>
</linearGradient>
<clipPath id="clip0_49_4233">
<rect width="200" height="200" rx="24" fill="white"/>
</clipPath>
<clipPath id="clip1_49_4233">
<rect width="16" height="16" fill="white" transform="translate(123 47.5)"/>
</clipPath>
</defs>
</svg>
