<svg width="200" height="201" viewBox="0 0 200 201" fill="none" xmlns="http://www.w3.org/2000/svg">
<g clip-path="url(#clip0_1_6917)">
<rect y="0.5" width="200" height="200" rx="24" fill="#FAFAFA"/>
<path d="M185.568 16.848V48.6107H144.489L143.009 17.0712L185.568 16.848Z" fill="#E0E0E0"/>
<path d="M143.009 17.0354V48.6108H184.088V17.0354L143.009 17.0354Z" fill="white"/>
<path d="M184.244 48.7662H142.854V16.876H184.244V48.7662ZM143.165 48.4514H183.929V17.1908H143.165V48.4554V48.4514Z" fill="#E0E0E0"/>
<path d="M179.639 20.2794H147.459V44.4542H179.639V20.2794Z" fill="white"/>
<path d="M179.639 20.2793C179.639 20.2793 179.583 20.2793 179.483 20.2833C179.379 20.2833 179.228 20.2833 179.032 20.2873C178.629 20.2873 178.042 20.2913 177.28 20.2953C175.748 20.2993 173.513 20.3072 170.68 20.3152C165.021 20.3232 156.984 20.3351 147.463 20.3511L147.534 20.2793C147.534 27.5326 147.538 35.7622 147.542 44.4501L147.463 44.3704C159.446 44.3744 170.556 44.3823 179.643 44.3863L179.575 44.4541C179.591 37.149 179.603 31.1113 179.611 26.8989C179.619 24.7907 179.623 23.1408 179.627 22.0089C179.627 21.447 179.631 21.0166 179.635 20.7217C179.635 20.4308 179.643 20.2753 179.643 20.2753C179.643 20.2753 179.647 20.4188 179.651 20.7058C179.651 20.9967 179.655 21.4231 179.659 21.9811C179.659 23.1049 179.667 24.7508 179.675 26.8551C179.683 31.0795 179.695 37.1291 179.711 44.4501V44.5178H179.643C170.556 44.5218 159.446 44.5258 147.463 44.5338H147.383V44.4541C147.383 35.7622 147.387 27.5286 147.391 20.2793V20.2036H147.463C157.008 20.2196 165.057 20.2315 170.728 20.2395C173.553 20.2475 175.784 20.2554 177.312 20.2594C178.07 20.2594 178.653 20.2674 179.052 20.2674C179.244 20.2674 179.391 20.2674 179.495 20.2714C179.595 20.2714 179.643 20.2753 179.643 20.2753L179.639 20.2793Z" fill="#E0E0E0"/>
<path d="M143.009 16.9597C143.009 16.9597 143.288 17.1071 143.703 17.3861C144.118 17.6651 144.689 18.0636 145.307 18.5179C145.926 18.9722 146.469 19.4027 146.856 19.7255C147.243 20.0483 147.47 20.2595 147.458 20.2754C147.442 20.2954 147.191 20.112 146.788 19.8131C146.337 19.4784 145.802 19.0838 145.212 18.6454C144.621 18.2071 144.086 17.8085 143.639 17.4738C143.24 17.1709 142.997 16.9716 143.013 16.9557L143.009 16.9597Z" fill="#E0E0E0"/>
<path d="M184.088 17.0354C184.116 17.0712 183.138 17.8285 181.913 18.7251C180.684 19.6218 179.666 20.3193 179.638 20.2834C179.61 20.2475 180.584 19.4903 181.813 18.5936C183.042 17.6969 184.06 16.9995 184.084 17.0354H184.088Z" fill="#E0E0E0"/>
<path d="M179.475 44.4542C179.507 44.4223 180.561 45.323 181.838 46.4707C183.111 47.6185 184.12 48.575 184.088 48.6108C184.057 48.6427 183.003 47.7421 181.726 46.5943C180.453 45.4465 179.443 44.4901 179.475 44.4542Z" fill="#E0E0E0"/>
<path d="M143.01 48.6108C142.978 48.5789 143.939 47.6623 145.157 46.5664C146.374 45.4704 147.383 44.6096 147.411 44.6415C147.443 44.6734 146.481 45.59 145.264 46.6859C144.047 47.7819 143.037 48.6427 143.01 48.6108Z" fill="#E0E0E0"/>
<path d="M171.315 32.1476C170.868 34.2439 168.805 35.5829 166.71 35.1366C164.614 34.6902 163.27 32.6298 163.717 30.5375C164.164 28.4413 166.227 27.1022 168.322 27.5486C170.421 27.9949 171.762 30.0553 171.315 32.1476Z" fill="#F5F5F5"/>
<path d="M166.25 35.0249C166.21 35.005 166.374 34.6065 166.585 33.9529C166.793 33.3033 167.044 32.3707 166.941 31.3465C166.833 30.3263 166.306 29.4933 165.807 29.0589C165.304 28.6086 164.865 28.5169 164.885 28.4611C164.885 28.4332 165.36 28.4532 165.943 28.8916C166.522 29.318 167.124 30.2067 167.244 31.3106C167.356 32.4106 167.052 33.379 166.789 34.0246C166.518 34.6742 166.286 35.0409 166.25 35.0249Z" fill="#E0E0E0"/>
<path d="M171.267 30.8724C171.247 30.96 170.217 30.5894 169.008 30.9481C167.795 31.2988 167.128 32.1676 167.068 32.1038C167.037 32.0839 167.156 31.8368 167.464 31.522C167.767 31.2111 168.274 30.8484 168.924 30.6572C169.575 30.4659 170.197 30.4977 170.62 30.5934C171.047 30.689 171.279 30.8325 171.267 30.8684V30.8724Z" fill="#E0E0E0"/>
<path d="M169.511 30.6731C169.464 30.6731 169.484 30.4021 169.344 30.0195C169.212 29.6449 168.873 29.1507 168.318 28.9275C167.756 28.7123 167.173 28.8478 166.822 29.0351C166.463 29.2224 166.295 29.4336 166.255 29.4018C166.227 29.3858 166.335 29.1148 166.71 28.8518C167.069 28.5927 167.744 28.3855 168.426 28.6446C169.1 28.9156 169.456 29.5213 169.547 29.9557C169.647 30.4021 169.539 30.6771 169.511 30.6691V30.6731Z" fill="#E0E0E0"/>
<path d="M168.274 31.0835C168.186 31.0636 168.25 30.5336 168.094 29.9159C167.95 29.2941 167.655 28.8478 167.723 28.792C167.779 28.7322 168.222 29.1427 168.389 29.8441C168.561 30.5415 168.349 31.1114 168.274 31.0835Z" fill="#E0E0E0"/>
<path d="M168.237 29.868C168.233 29.9597 167.898 29.9756 167.579 30.143C167.256 30.3183 166.988 30.5415 166.925 30.4738C166.873 30.4259 167.032 30.1031 167.439 29.876C167.874 29.6568 168.253 29.7963 168.237 29.868Z" fill="#E0E0E0"/>
<path d="M162.025 31.6853C163.27 32.7294 163.434 34.5865 162.384 35.83C161.338 37.0734 159.479 37.2368 158.234 36.1886C156.989 35.1445 156.825 33.2873 157.875 32.0439C158.924 30.8005 160.78 30.6371 162.025 31.6853Z" fill="#F5F5F5"/>
<path d="M162.149 36.097C162.121 36.1169 161.913 35.8658 161.55 35.4872C161.187 35.1166 160.652 34.6144 159.93 34.3195C159.208 34.0286 158.461 34.0804 157.991 34.2637C157.512 34.4431 157.292 34.6981 157.26 34.6702C157.24 34.6623 157.424 34.3514 157.927 34.1163C158.418 33.8811 159.228 33.7935 160.014 34.1123C160.792 34.4311 161.331 34.9811 161.67 35.3836C162.009 35.7941 162.169 36.085 162.149 36.101V36.097Z" fill="#E0E0E0"/>
<path d="M161.151 31.2629C161.203 31.3067 160.588 31.8607 160.397 32.8012C160.197 33.7378 160.544 34.491 160.48 34.5109C160.456 34.5229 160.333 34.3555 160.233 34.0406C160.133 33.7258 160.069 33.2555 160.173 32.7534C160.277 32.2512 160.52 31.8447 160.736 31.5977C160.955 31.3466 161.131 31.243 161.151 31.2629Z" fill="#E0E0E0"/>
<path d="M160.393 32.3668C160.373 32.3987 160.202 32.2871 159.895 32.2473C159.599 32.2034 159.144 32.2473 158.797 32.5462C158.454 32.8451 158.334 33.2834 158.338 33.5863C158.334 33.8932 158.418 34.0805 158.382 34.0964C158.362 34.1124 158.218 33.941 158.175 33.5943C158.131 33.2635 158.23 32.7375 158.649 32.3748C159.072 32.0201 159.607 32.0002 159.93 32.0918C160.266 32.1835 160.413 32.3549 160.393 32.3708V32.3668Z" fill="#E0E0E0"/>
<path d="M160.225 33.3392C160.181 33.391 159.846 33.1599 159.379 33.0403C158.912 32.9128 158.505 32.9527 158.493 32.8889C158.473 32.8331 158.908 32.6817 159.435 32.8172C159.965 32.9527 160.269 33.2954 160.225 33.3352V33.3392Z" fill="#E0E0E0"/>
<path d="M159.399 32.9288C159.459 32.9646 159.351 33.1918 159.351 33.4668C159.351 33.7457 159.407 34.0048 159.34 34.0207C159.288 34.0367 159.128 33.8175 159.124 33.4628C159.132 33.0961 159.359 32.8889 159.403 32.9248L159.399 32.9288Z" fill="#E0E0E0"/>
<path d="M162.148 30.673C161.107 29.9955 160.468 28.7879 160.053 27.6163C159.638 26.4446 159.622 25.1374 160.005 23.9578C161.151 24.4679 162.076 25.4562 162.511 26.6319C162.946 27.8075 162.691 29.5411 162.148 30.673Z" fill="#EBEBEB"/>
<path d="M160.939 25.8788C161.398 27.3972 161.773 28.9395 162.057 30.5017L160.939 25.8788Z" fill="white"/>
<path d="M162.057 30.5017C162.033 30.5056 161.969 30.2466 161.87 29.8281C161.758 29.3459 161.626 28.7999 161.486 28.1942C161.335 27.5884 161.199 27.0424 161.083 26.5642C160.98 26.1457 160.92 25.8867 160.944 25.8787C160.964 25.8708 161.063 26.1218 161.195 26.5323C161.327 26.9428 161.494 27.5167 161.646 28.1543C161.802 28.796 161.917 29.3778 161.985 29.8042C162.053 30.2307 162.081 30.4977 162.061 30.5017H162.057Z" fill="#E0E0E0"/>
<path d="M164.786 35.9534C166.003 35.6984 167.308 36.1009 168.434 36.6349C169.555 37.169 170.493 38.0816 171.059 39.1895C169.886 39.6398 168.533 39.596 167.392 39.0699C166.251 38.5439 165.205 37.1371 164.786 35.9574" fill="#EBEBEB"/>
<path d="M169.04 38.4881C167.639 37.7389 166.282 36.91 164.978 36.0093L169.04 38.4881Z" fill="white"/>
<path d="M164.973 36.0093C164.973 36.0093 165.217 36.1249 165.584 36.352C166.003 36.6111 166.486 36.91 167.012 37.2367C167.547 37.5596 168.03 37.8505 168.453 38.1055C168.82 38.3287 169.048 38.4682 169.036 38.4881C169.024 38.5081 168.78 38.4004 168.393 38.2052C168.01 38.0099 167.487 37.719 166.925 37.3762C166.362 37.0335 165.867 36.6987 165.516 36.4477C165.165 36.1966 164.957 36.0252 164.969 36.0093H164.973Z" fill="#E0E0E0"/>
<path d="M163.609 36.5314C163.832 37.2408 163.669 38.0378 163.417 38.7352C163.166 39.4327 162.675 40.0424 162.049 40.4449C161.713 39.7754 161.658 38.9664 161.905 38.261C162.152 37.5516 162.927 36.8502 163.609 36.5314Z" fill="#EBEBEB"/>
<path d="M162.348 39.2055C162.711 38.3288 163.126 37.4759 163.585 36.647L162.348 39.2055Z" fill="white"/>
<path d="M163.585 36.6469C163.625 36.6708 163.341 37.2407 163.002 37.9461C162.659 38.6515 162.388 39.2254 162.348 39.2094C162.308 39.1935 162.511 38.5877 162.859 37.8744C163.202 37.165 163.549 36.627 163.589 36.6469H163.585Z" fill="#E0E0E0"/>
<path d="M57.7178 14.4131H24.584V69.1868H57.7178V14.4131Z" fill="#E0E0E0"/>
<path d="M56.6124 14.4131H23.4785V69.1868H56.6124V14.4131Z" fill="#EBEBEB"/>
<path d="M55.2041 15.525H24.8916V68.075H55.2041V15.525Z" fill="#FAFAFA"/>
<path d="M49.3022 22.3518H30.6621V61.2442H49.3022V22.3518Z" fill="#EBEBEB"/>
<path d="M30.6616 47.4831C30.6177 43.8486 33.89 40.3017 37.4935 39.7955C39.2094 39.5524 41.0371 39.8952 42.6413 39.2376C45.5066 38.0659 46.4164 34.2639 49.3016 33.1361L49.4333 61.2483H30.6616V47.4871V47.4831Z" fill="#E0E0E0"/>
<path d="M178.647 34.9222C179.147 23.7468 170.222 14.4131 159.035 14.4131H45.1955C34.695 14.4131 26.0538 22.6761 25.5841 33.1661L13.0921 312.165C12.5917 323.34 21.517 332.674 32.7036 332.674H146.543C157.044 332.674 165.685 324.411 166.155 313.921L178.647 34.9222Z" fill="url(#paint0_linear_1_6917)"/>
<path opacity="0.56" d="M174.299 39.27C174.8 28.0946 165.874 18.7609 154.688 18.7609H40.8479C30.3474 18.7609 21.7061 27.0239 21.2364 37.5139L8.74446 316.513C8.24408 327.688 17.1693 337.022 28.3559 337.022H142.196C152.696 337.022 161.338 328.759 161.807 318.269L174.299 39.27Z" fill="#FAFAFA"/>
<path opacity="0.07" d="M169.516 43.6186C170.017 32.4429 161.092 23.1086 149.905 23.1086H36.0769C25.5766 23.1086 16.9355 31.3712 16.4654 41.8609L3.96303 320.86C3.46223 332.035 12.3876 341.37 23.5744 341.37H137.402C147.903 341.37 156.544 333.107 157.014 322.617L169.516 43.6186Z" fill="#214FE2"/>
<path d="M71.1668 134.175V135.503H72.7348C73.1028 135.503 73.3268 135.463 73.4068 135.383C73.5935 135.261 73.6868 135.079 73.6868 134.839C73.6868 134.583 73.5935 134.402 73.4068 134.295C73.2628 134.215 73.0308 134.175 72.7108 134.175H71.1668ZM71.1668 131.983V133.167H72.4868C72.8815 133.167 73.1455 133.111 73.2788 132.999C73.4015 132.898 73.4628 132.749 73.4628 132.551C73.4628 132.365 73.3881 132.215 73.2388 132.103C73.1268 132.023 72.9028 131.983 72.5668 131.983H71.1668ZM69.6948 130.943H72.9268C73.6468 130.943 74.1481 131.039 74.4308 131.231C74.7935 131.482 74.9748 131.858 74.9748 132.359C74.9748 132.733 74.8628 133.026 74.6388 133.239C74.5481 133.319 74.4415 133.389 74.3188 133.447C74.1961 133.506 74.0975 133.543 74.0228 133.559C73.9481 133.575 73.8975 133.583 73.8708 133.583V133.615C74.3241 133.658 74.6761 133.805 74.9268 134.055C75.1561 134.285 75.2708 134.602 75.2708 135.007C75.2708 135.482 75.1321 135.847 74.8548 136.103C74.5348 136.397 73.9108 136.543 72.9828 136.543H69.6948V130.943ZM79.3367 134.735V134.671C79.2621 134.735 79.1767 134.781 79.0807 134.807C78.9901 134.829 78.8327 134.85 78.6087 134.871L78.3127 134.903C78.0407 134.93 77.8514 134.978 77.7447 135.047C77.6167 135.149 77.5527 135.263 77.5527 135.391C77.5527 135.535 77.6087 135.65 77.7207 135.735C77.8274 135.821 78.0061 135.863 78.2567 135.863C78.5981 135.863 78.8621 135.77 79.0487 135.583C79.2407 135.391 79.3367 135.109 79.3367 134.735ZM77.6727 133.791H76.2487C76.2487 133.418 76.3794 133.101 76.6407 132.839C76.8487 132.637 77.0994 132.501 77.3927 132.431C77.6914 132.362 78.0567 132.327 78.4887 132.327C79.4327 132.327 80.0754 132.506 80.4167 132.863C80.5181 132.97 80.5954 133.095 80.6487 133.239C80.7074 133.383 80.7394 133.503 80.7447 133.599C80.7554 133.695 80.7607 133.821 80.7607 133.975V135.783C80.7607 135.981 80.7821 136.143 80.8247 136.271C80.8781 136.362 80.9527 136.415 81.0487 136.431V136.543H79.5127L79.4247 136.143H79.3927C79.2381 136.341 79.0274 136.485 78.7607 136.575C78.5154 136.655 78.1927 136.695 77.7927 136.695C77.2007 136.695 76.7794 136.61 76.5287 136.439C76.2141 136.215 76.0567 135.893 76.0567 135.471C76.0567 135.135 76.1581 134.869 76.3607 134.671C76.4781 134.559 76.6407 134.469 76.8487 134.399C77.0567 134.33 77.2167 134.287 77.3287 134.271C77.4461 134.255 77.6194 134.237 77.8487 134.215L78.4887 134.159C78.6541 134.143 78.7687 134.133 78.8327 134.127C78.9021 134.122 78.9767 134.109 79.0567 134.087C79.1367 134.061 79.1954 134.026 79.2327 133.983C79.2967 133.919 79.3287 133.831 79.3287 133.719C79.3287 133.549 79.2434 133.415 79.0727 133.319C78.9447 133.245 78.7581 133.207 78.5127 133.207C78.2461 133.207 78.0434 133.255 77.9047 133.351C77.7554 133.469 77.6781 133.615 77.6727 133.791ZM83.2408 135.599H84.8408V132.479H86.2488V135.599H87.8488V132.479H89.2568V136.543H81.8328V132.479H83.2408V135.599ZM91.5267 134.055H93.7747C93.7534 133.778 93.6574 133.57 93.4867 133.431C93.3054 133.271 93.028 133.191 92.6547 133.191C92.3187 133.191 92.0547 133.266 91.8627 133.415C91.66 133.581 91.548 133.794 91.5267 134.055ZM93.7507 135.215H95.1667C95.1027 135.823 94.8094 136.245 94.2867 136.479C93.956 136.623 93.4467 136.695 92.7587 136.695C92.236 136.695 91.8094 136.655 91.4787 136.575C91.148 136.495 90.8627 136.335 90.6227 136.095C90.2494 135.722 90.0627 135.215 90.0627 134.575C90.0627 133.887 90.2654 133.349 90.6707 132.959C91.1134 132.538 91.772 132.327 92.6467 132.327C93.5587 132.327 94.2334 132.546 94.6707 132.983C95.0387 133.351 95.2227 133.901 95.2227 134.631V134.775H91.5027V134.799C91.5027 135.109 91.5907 135.351 91.7667 135.527C91.948 135.709 92.2467 135.799 92.6627 135.799C92.9934 135.799 93.236 135.762 93.3907 135.687C93.5827 135.597 93.7027 135.439 93.7507 135.215ZM99.2955 135.199L101.367 132.479H102.847V136.543H101.439V133.823L99.3595 136.543H97.8875V132.479H99.2955V135.199ZM106.424 136.543L105.208 133.695H105.144L105.184 134.103V136.543H103.856V132.479H105.632L106.872 135.367L108.104 132.479H109.88V136.543H108.552V134.103L108.592 133.695H108.536L107.312 136.543H106.424ZM113.895 133.295H113.071C112.693 133.295 112.439 133.354 112.311 133.471C112.221 133.562 112.175 133.677 112.175 133.815C112.175 133.97 112.223 134.09 112.319 134.175C112.426 134.282 112.655 134.335 113.007 134.335H113.895V133.295ZM113.239 135.151L112.223 136.543H110.695L111.967 135.039C111.599 135.002 111.317 134.879 111.119 134.671C110.927 134.479 110.831 134.199 110.831 133.831C110.831 133.367 110.999 133.015 111.335 132.775C111.618 132.578 112.023 132.479 112.551 132.479H115.303V136.543H113.895V135.151H113.239ZM116.669 136.543V135.231H118.141V136.543H116.669ZM116.669 133.791V132.479H118.141V133.791H116.669Z" fill="white"/>
<path d="M135.433 77.0584C135.089 84.8055 132.282 91.9609 127.782 97.7678C120.985 106.574 110.334 112.299 98.6104 112.299C86.8865 112.299 76.7589 106.574 70.7594 97.7678C66.7826 91.9609 64.6085 84.8055 64.9525 77.0584C65.8194 57.5875 82.3043 41.8043 101.762 41.8043C121.219 41.8043 136.314 57.5875 135.433 77.0584Z" fill="white"/>
<path d="M145.203 55.7174C145.06 58.7819 143.957 61.6013 142.181 63.8895C139.505 67.3626 135.298 69.6304 130.682 69.6304C126.067 69.6304 122.064 67.3626 119.694 63.8895C118.122 61.6013 117.264 58.7819 117.407 55.7174C117.754 48.0356 124.249 41.8043 131.928 41.8043C139.607 41.8043 145.55 48.0356 145.203 55.7174Z" fill="#50E871"/>
<path d="M123.731 54.2975L129.189 60.3967L138.819 50.1244" stroke="white" stroke-width="2.56809"/>
<path d="M152.773 152.301C152.921 148.95 150.244 146.152 146.889 146.152H41.3966C38.245 146.152 35.6519 148.633 35.513 151.782L35.0544 162.177C34.9066 165.528 37.5836 168.326 40.938 168.326H146.431C149.582 168.326 152.175 165.845 152.314 162.696L152.773 152.301Z" fill="#F5F5F5"/>
<path d="M48.5504 157.295C48.4679 159.25 46.8073 160.84 44.8405 160.84C42.8736 160.84 41.3661 159.25 41.4485 157.295C41.531 155.34 43.1916 153.75 45.1585 153.75C47.1253 153.75 48.6328 155.34 48.5504 157.295Z" fill="#214FE2"/>
<path d="M64.4273 157.295C64.3449 159.25 62.6843 160.84 60.7174 160.84C58.7506 160.84 57.243 159.25 57.3255 157.295C57.4079 155.34 59.0686 153.75 61.0354 153.75C63.0023 153.75 64.5098 155.34 64.4273 157.295Z" fill="#214FE2"/>
<path d="M112.254 157.295C112.171 159.25 110.51 160.84 108.544 160.84C106.577 160.84 105.069 159.25 105.152 157.295C105.234 155.34 106.895 153.75 108.862 153.75C110.828 153.75 112.336 155.34 112.254 157.295Z" fill="#214FE2"/>
<path d="M80.315 157.295C80.2326 159.25 78.572 160.84 76.6051 160.84C74.6383 160.84 73.1307 159.25 73.2132 157.295C73.2956 155.34 74.9563 153.75 76.9231 153.75C78.8899 153.75 80.3975 155.34 80.315 157.295Z" fill="#214FE2"/>
<path d="M128.141 157.295C128.059 159.25 126.398 160.84 124.431 160.84C122.464 160.84 120.957 159.25 121.039 157.295C121.122 155.34 122.782 153.75 124.749 153.75C126.716 153.75 128.224 155.34 128.141 157.295Z" fill="#214FE2"/>
<path d="M96.2018 157.295C96.1193 159.25 94.4587 160.84 92.4918 160.84C90.525 160.84 89.0175 159.25 89.0999 157.295C89.1823 155.34 90.843 153.75 92.8098 153.75C94.7767 153.75 96.2842 155.34 96.2018 157.295Z" fill="#214FE2"/>
<path d="M144.028 157.295C143.946 159.25 142.285 160.84 140.318 160.84C138.351 160.84 136.844 159.25 136.926 157.295C137.009 155.34 138.669 153.75 140.636 153.75C142.603 153.75 144.11 155.34 144.028 157.295Z" fill="#214FE2"/>
<path d="M114.971 65.2659C114.613 73.1368 107.953 79.5216 100.082 79.5216C92.211 79.5216 86.1152 73.1368 86.4592 65.2659C86.817 57.3949 93.477 51.0101 101.348 51.0101C109.219 51.0101 115.315 57.3949 114.971 65.2659Z" fill="#214FE2"/>
<path d="M127.769 97.7677C120.971 106.574 110.321 112.299 98.5971 112.299C86.8732 112.299 76.7456 106.574 70.7461 97.7677C77.4336 91.1076 88.0154 86.7869 99.7392 86.7869C111.463 86.7869 121.673 91.1076 127.769 97.7677Z" fill="#214FE2"/>
<path opacity="0.1" d="M114.971 65.2659C114.613 73.1368 107.953 79.5216 100.082 79.5216C92.211 79.5216 86.1152 73.1368 86.4592 65.2659C86.817 57.3949 93.477 51.0101 101.348 51.0101C109.219 51.0101 115.315 57.3949 114.971 65.2659Z" fill="white"/>
<path opacity="0.1" d="M127.769 97.7677C120.971 106.574 110.321 112.299 98.5971 112.299C86.8732 112.299 76.7456 106.574 70.7461 97.7677C77.4336 91.1076 88.0154 86.7869 99.7392 86.7869C111.463 86.7869 121.673 91.1076 127.769 97.7677Z" fill="white"/>
<path d="M100.435 217.022C167.189 217.022 221.305 210.014 221.305 201.37C221.305 192.725 167.189 185.717 100.435 185.717C33.6806 185.717 -20.4346 192.725 -20.4346 201.37C-20.4346 210.014 33.6806 217.022 100.435 217.022Z" fill="#F5F5F5"/>
</g>
<defs>
<linearGradient id="paint0_linear_1_6917" x1="95.8695" y1="14.4131" x2="95.8695" y2="332.674" gradientUnits="userSpaceOnUse">
<stop stop-color="#01A6FF"/>
<stop offset="1" stop-color="#214FE2"/>
</linearGradient>
<clipPath id="clip0_1_6917">
<rect y="0.5" width="200" height="200" rx="24" fill="white"/>
</clipPath>
</defs>
</svg>
