<svg width="200" height="200" viewBox="0 0 200 200" fill="none" xmlns="http://www.w3.org/2000/svg">
<g clip-path="url(#clip0_1_6744)">
<rect width="200" height="200" rx="24" fill="#FAFAFA"/>
<path d="M185.568 16.348V48.1107H144.489L143.009 16.5712L185.568 16.348Z" fill="#E0E0E0"/>
<path d="M143.009 16.5353V48.1107H184.088V16.5353L143.009 16.5353Z" fill="white"/>
<path d="M184.243 48.2661H142.853V16.3759H184.243V48.2661ZM143.164 47.9513H183.928V16.6907H143.164V47.9553V47.9513Z" fill="#E0E0E0"/>
<path d="M179.638 19.7793H147.458V43.954H179.638V19.7793Z" fill="white"/>
<path d="M179.638 19.7794C179.638 19.7794 179.582 19.7794 179.483 19.7833C179.379 19.7833 179.227 19.7833 179.032 19.7873C178.629 19.7873 178.042 19.7913 177.28 19.7953C175.747 19.7993 173.513 19.8073 170.679 19.8152C165.021 19.8232 156.984 19.8352 147.462 19.8511L147.534 19.7794C147.534 27.0326 147.538 35.2622 147.542 43.9501L147.462 43.8704C159.446 43.8744 170.556 43.8824 179.642 43.8864L179.574 43.9541C179.59 36.6491 179.602 30.6114 179.61 26.3989C179.618 24.2907 179.622 22.6408 179.626 21.509C179.626 20.9471 179.63 20.5166 179.634 20.2217C179.634 19.9308 179.642 19.7754 179.642 19.7754C179.642 19.7754 179.646 19.9188 179.65 20.2058C179.65 20.4967 179.654 20.9231 179.658 21.4811C179.658 22.6049 179.666 24.2509 179.674 26.3551C179.682 30.5795 179.694 36.6292 179.71 43.9501V44.0179H179.642C170.556 44.0219 159.446 44.0258 147.462 44.0338H147.382V43.9541C147.382 35.2622 147.386 27.0286 147.39 19.7794V19.7036H147.462C157.008 19.7196 165.057 19.7315 170.727 19.7395C173.553 19.7475 175.783 19.7555 177.312 19.7594C178.07 19.7594 178.653 19.7674 179.052 19.7674C179.243 19.7674 179.391 19.7674 179.495 19.7714C179.594 19.7714 179.642 19.7754 179.642 19.7754L179.638 19.7794Z" fill="#E0E0E0"/>
<path d="M143.009 16.4596C143.009 16.4596 143.288 16.6071 143.703 16.886C144.118 17.165 144.689 17.5635 145.307 18.0179C145.926 18.4722 146.469 18.9026 146.856 19.2254C147.243 19.5482 147.47 19.7594 147.458 19.7754C147.442 19.7953 147.191 19.612 146.788 19.3131C146.337 18.9783 145.802 18.5838 145.212 18.1454C144.621 17.707 144.086 17.3085 143.639 16.9737C143.24 16.6708 142.997 16.4716 143.013 16.4556L143.009 16.4596Z" fill="#E0E0E0"/>
<path d="M184.088 16.5353C184.116 16.5712 183.138 17.3284 181.913 18.2251C180.684 19.1217 179.666 19.8192 179.638 19.7833C179.61 19.7474 180.584 18.9902 181.813 18.0935C183.042 17.1968 184.06 16.4994 184.084 16.5353H184.088Z" fill="#E0E0E0"/>
<path d="M179.475 43.9541C179.507 43.9222 180.56 44.8229 181.837 45.9707C183.11 47.1184 184.12 48.0749 184.088 48.1108C184.056 48.1426 183.003 47.242 181.726 46.0942C180.453 44.9465 179.443 43.99 179.475 43.9541Z" fill="#E0E0E0"/>
<path d="M143.009 48.1107C142.977 48.0789 143.939 47.1622 145.156 46.0663C146.373 44.9703 147.383 44.1095 147.411 44.1414C147.443 44.1733 146.481 45.0899 145.264 46.1858C144.047 47.2818 143.037 48.1426 143.009 48.1107Z" fill="#E0E0E0"/>
<path d="M171.314 31.6476C170.867 33.7438 168.804 35.0829 166.709 34.6365C164.614 34.1902 163.269 32.1298 163.716 30.0375C164.163 27.9412 166.226 26.6022 168.321 27.0485C170.42 27.4949 171.761 29.5553 171.314 31.6476Z" fill="#F5F5F5"/>
<path d="M166.25 34.5249C166.21 34.505 166.374 34.1064 166.585 33.4529C166.793 32.8033 167.044 31.8707 166.941 30.8465C166.833 29.8262 166.306 28.9933 165.807 28.5589C165.304 28.1086 164.865 28.0169 164.885 27.9611C164.885 27.9332 165.36 27.9532 165.943 28.3915C166.522 28.818 167.124 29.7067 167.244 30.8106C167.356 31.9105 167.052 32.879 166.789 33.5246C166.518 34.1742 166.286 34.5408 166.25 34.5249Z" fill="#E0E0E0"/>
<path d="M171.266 30.3723C171.246 30.4599 170.217 30.0893 169.007 30.448C167.794 30.7987 167.128 31.6675 167.068 31.6037C167.036 31.5838 167.156 31.3367 167.463 31.0219C167.766 30.711 168.273 30.3483 168.924 30.157C169.574 29.9658 170.197 29.9976 170.62 30.0933C171.047 30.1889 171.278 30.3324 171.266 30.3683V30.3723Z" fill="#E0E0E0"/>
<path d="M169.511 30.1729C169.463 30.1729 169.483 29.9019 169.343 29.5193C169.211 29.1447 168.872 28.6505 168.317 28.4274C167.755 28.2122 167.172 28.3477 166.821 28.535C166.462 28.7223 166.294 28.9335 166.254 28.9016C166.226 28.8857 166.334 28.6147 166.709 28.3516C167.068 28.0926 167.743 27.8854 168.425 28.1444C169.099 28.4154 169.455 29.0212 169.546 29.4556C169.646 29.9019 169.538 30.1769 169.511 30.1689V30.1729Z" fill="#E0E0E0"/>
<path d="M168.273 30.5834C168.185 30.5635 168.249 30.0335 168.093 29.4158C167.95 28.7941 167.655 28.3477 167.722 28.2919C167.778 28.2321 168.221 28.6426 168.389 29.344C168.56 30.0414 168.349 30.6113 168.273 30.5834Z" fill="#E0E0E0"/>
<path d="M168.237 29.3679C168.233 29.4596 167.898 29.4755 167.579 29.6429C167.256 29.8183 166.988 30.0414 166.925 29.9737C166.873 29.9259 167.032 29.6031 167.439 29.3759C167.874 29.1567 168.253 29.2962 168.237 29.3679Z" fill="#E0E0E0"/>
<path d="M162.024 31.1852C163.269 32.2293 163.433 34.0865 162.383 35.3299C161.338 36.5733 159.478 36.7367 158.233 35.6886C156.988 34.6444 156.824 32.7873 157.874 31.5439C158.923 30.3004 160.779 30.1371 162.024 31.1852Z" fill="#F5F5F5"/>
<path d="M162.148 35.5969C162.12 35.6168 161.912 35.3657 161.549 34.9871C161.186 34.6165 160.651 34.1144 159.929 33.8195C159.207 33.5285 158.46 33.5803 157.99 33.7637C157.511 33.943 157.291 34.1981 157.259 34.1702C157.239 34.1622 157.423 33.8513 157.926 33.6162C158.417 33.3811 159.227 33.2934 160.013 33.6122C160.791 33.931 161.33 34.481 161.669 34.8835C162.008 35.294 162.168 35.5849 162.148 35.6009V35.5969Z" fill="#E0E0E0"/>
<path d="M161.15 30.7628C161.202 30.8066 160.587 31.3606 160.396 32.3011C160.196 33.2377 160.543 33.9909 160.479 34.0108C160.456 34.0228 160.332 33.8554 160.232 33.5405C160.132 33.2257 160.068 32.7554 160.172 32.2533C160.276 31.7512 160.519 31.3447 160.735 31.0976C160.954 30.8465 161.13 30.7429 161.15 30.7628Z" fill="#E0E0E0"/>
<path d="M160.392 31.8667C160.372 31.8986 160.2 31.787 159.893 31.7471C159.598 31.7033 159.143 31.7471 158.796 32.046C158.452 32.3449 158.333 32.7833 158.337 33.0862C158.333 33.393 158.417 33.5803 158.381 33.5963C158.361 33.6122 158.217 33.4409 158.173 33.0941C158.129 32.7634 158.229 32.2373 158.648 31.8746C159.071 31.52 159.606 31.5 159.929 31.5917C160.264 31.6833 160.412 31.8547 160.392 31.8707V31.8667Z" fill="#E0E0E0"/>
<path d="M160.224 32.8392C160.18 32.891 159.845 32.6598 159.378 32.5403C158.911 32.4128 158.504 32.4526 158.492 32.3888C158.472 32.3331 158.907 32.1816 159.434 32.3171C159.965 32.4526 160.268 32.7953 160.224 32.8352V32.8392Z" fill="#E0E0E0"/>
<path d="M159.398 32.4287C159.458 32.4645 159.35 32.6917 159.35 32.9667C159.35 33.2456 159.406 33.5047 159.338 33.5206C159.286 33.5366 159.127 33.3174 159.123 32.9627C159.131 32.596 159.358 32.3888 159.402 32.4247L159.398 32.4287Z" fill="#E0E0E0"/>
<path d="M162.148 30.173C161.106 29.4955 160.468 28.288 160.053 27.1163C159.638 25.9446 159.622 24.6375 160.005 23.4578C161.15 23.9679 162.076 24.9563 162.511 26.132C162.946 27.3076 162.69 29.0412 162.148 30.173Z" fill="#EBEBEB"/>
<path d="M160.938 25.3787C161.397 26.8971 161.772 28.4394 162.055 30.0016L160.938 25.3787Z" fill="white"/>
<path d="M162.056 30.0016C162.032 30.0056 161.968 29.7465 161.868 29.3281C161.756 28.8458 161.625 28.2999 161.485 27.6941C161.333 27.0883 161.198 26.5424 161.082 26.0641C160.978 25.6457 160.918 25.3866 160.942 25.3786C160.962 25.3707 161.062 25.6218 161.194 26.0322C161.325 26.4427 161.493 27.0166 161.645 27.6542C161.8 28.2959 161.916 28.8777 161.984 29.3042C162.052 29.7306 162.08 29.9976 162.06 30.0016H162.056Z" fill="#E0E0E0"/>
<path d="M164.786 35.4535C166.003 35.1985 167.308 35.601 168.433 36.135C169.554 36.669 170.492 37.5817 171.059 38.6896C169.886 39.1399 168.533 39.0961 167.391 38.57C166.25 38.044 165.205 36.6372 164.786 35.4575" fill="#EBEBEB"/>
<path d="M169.039 37.9881C167.638 37.2388 166.281 36.4099 164.977 35.5092L169.039 37.9881Z" fill="white"/>
<path d="M164.973 35.5092C164.973 35.5092 165.216 35.6248 165.583 35.852C166.002 36.111 166.485 36.4099 167.012 36.7367C167.547 37.0595 168.03 37.3504 168.453 37.6055C168.82 37.8287 169.047 37.9682 169.035 37.9881C169.023 38.008 168.78 37.9004 168.393 37.7051C168.01 37.5099 167.487 37.2189 166.924 36.8762C166.361 36.5335 165.867 36.1987 165.515 35.9476C165.164 35.6966 164.957 35.5252 164.969 35.5092H164.973Z" fill="#E0E0E0"/>
<path d="M163.608 36.0314C163.831 36.7408 163.668 37.5378 163.416 38.2352C163.165 38.9327 162.674 39.5424 162.048 39.9449C161.712 39.2754 161.657 38.4664 161.904 37.761C162.151 37.0516 162.926 36.3502 163.608 36.0314Z" fill="#EBEBEB"/>
<path d="M162.347 38.7055C162.71 37.8288 163.125 36.9759 163.584 36.147L162.347 38.7055Z" fill="white"/>
<path d="M163.584 36.1469C163.624 36.1708 163.341 36.7407 163.002 37.4461C162.659 38.1515 162.387 38.7253 162.347 38.7094C162.307 38.6935 162.511 38.0877 162.858 37.3743C163.201 36.665 163.548 36.1269 163.588 36.1469H163.584Z" fill="#E0E0E0"/>
<path d="M57.7178 13.913H24.584V68.6868H57.7178V13.913Z" fill="#E0E0E0"/>
<path d="M56.6124 13.9131H23.4785V68.6868H56.6124V13.9131Z" fill="#EBEBEB"/>
<path d="M55.2041 15.0249H24.8916V67.5749H55.2041V15.0249Z" fill="#FAFAFA"/>
<path d="M49.3017 21.8516H30.6616V60.744H49.3017V21.8516Z" fill="#EBEBEB"/>
<path d="M30.6616 46.9829C30.6177 43.3483 33.89 39.8014 37.4935 39.2952C39.2094 39.0521 41.0371 39.3949 42.6413 38.7373C45.5066 37.5656 46.4164 33.7637 49.3016 32.6358L49.4333 60.748H30.6616V46.9868V46.9829Z" fill="#E0E0E0"/>
<path d="M181.925 53.8268C181.925 43.2217 172.794 35.0441 161.9 34.4882L161.858 34.4497H160.707H137.564C127.399 34.3952 107.259 34.4002 87.1395 34.4052C81.3241 34.4066 75.5104 34.408 69.9399 34.408H61.8009H61.7996L41.5347 34.3914H41.5323C30.1191 34.3914 20.305 42.7606 20.3046 53.7595C20.3046 53.7597 20.3046 53.7599 20.3046 53.7602L20.249 316.326V316.327C20.249 327.314 30.0496 335.694 41.4556 335.704H41.4566L160.641 335.762H160.642C172.045 335.762 181.869 327.394 181.87 316.394C181.87 316.394 181.87 316.394 181.87 316.393L181.925 53.8274V53.8268Z" fill="url(#paint0_linear_1_6744)" stroke="#01A6FF" stroke-width="6"/>
<path opacity="0.3" d="M164.202 50.9615C161.452 99.6959 90.8139 108.078 78.1449 90.722C65.4759 73.3661 89.6497 57.1388 102.399 78.3189C120.076 107.684 61.8621 149.836 98.042 186.282C107.622 195.932 132.293 206.502 162.341 191.218" stroke="url(#paint1_linear_1_6744)" stroke-width="11.7962"/>
<path opacity="0.4" d="M161.959 64.1791C162.015 64.4043 162.334 64.4043 162.39 64.1791C163.173 60.9925 164.036 60.1293 167.223 59.3457C167.448 59.2904 167.448 58.9708 167.223 58.9155C164.036 58.132 163.173 57.2688 162.39 54.0822C162.334 53.8569 162.015 53.8569 161.959 54.0822C161.176 57.2688 160.313 58.132 157.126 58.9155C156.901 58.9708 156.901 59.2904 157.126 59.3457C160.313 60.1293 161.176 60.9925 161.959 64.1791Z" fill="#EBEBEB"/>
<path d="M31.5197 164.952C31.4644 164.726 31.1448 164.726 31.0895 164.952C30.3059 168.138 29.4427 169.002 26.2561 169.785C26.0309 169.84 26.0309 170.16 26.2561 170.215C29.4427 170.999 30.3059 171.862 31.0895 175.049C31.1448 175.274 31.4644 175.274 31.5197 175.049C32.3033 171.862 33.1665 170.999 36.3531 170.215C36.5783 170.16 36.5783 169.84 36.3531 169.785C33.1665 169.002 32.3033 168.138 31.5197 164.952Z" fill="#EBEBEB"/>
<path opacity="0.2" d="M121.09 142.875C121.145 143.1 121.465 143.1 121.52 142.875C122.303 139.688 123.167 138.825 126.353 138.041C126.579 137.986 126.579 137.666 126.353 137.611C123.167 136.828 122.303 135.964 121.52 132.778C121.465 132.553 121.145 132.553 121.09 132.778C120.306 135.964 119.443 136.828 116.256 137.611C116.031 137.666 116.031 137.986 116.256 138.041C119.443 138.825 120.306 139.688 121.09 142.875Z" fill="#EBEBEB"/>
<path opacity="0.2" d="M101.524 175.049C101.58 175.274 101.899 175.274 101.954 175.049C102.738 171.862 103.601 170.999 106.788 170.215C107.013 170.16 107.013 169.84 106.788 169.785C103.601 169.002 102.738 168.138 101.954 164.952C101.899 164.726 101.58 164.726 101.524 164.952C100.741 168.138 99.8775 169.002 96.6909 169.785C96.4657 169.84 96.4657 170.16 96.6909 170.215C99.8775 170.999 100.741 171.862 101.524 175.049Z" fill="#EBEBEB"/>
<path d="M111.959 79.8312C112.015 80.0565 112.334 80.0565 112.39 79.8312C113.173 76.6447 114.036 75.7815 117.223 74.9979C117.448 74.9426 117.448 74.623 117.223 74.5677C114.036 73.7841 113.173 72.921 112.39 69.7344C112.334 69.5091 112.015 69.5091 111.959 69.7344C111.176 72.921 110.313 73.7841 107.126 74.5677C106.901 74.623 106.901 74.9426 107.126 74.9979C110.313 75.7815 111.176 76.6447 111.959 79.8312Z" fill="#EBEBEB"/>
<path opacity="0.1" d="M62.4323 56.1689C62.377 55.9437 62.0574 55.9437 62.0021 56.1689C61.2185 59.3555 60.3553 60.2187 57.1687 61.0023C56.9435 61.0576 56.9435 61.3772 57.1687 61.4325C60.3553 62.216 61.2185 63.0792 62.0021 66.2658C62.0574 66.4911 62.377 66.4911 62.4323 66.2658C63.2159 63.0792 64.0791 62.216 67.2657 61.4325C67.4909 61.3772 67.4909 61.0576 67.2657 61.0023C64.0791 60.2187 63.2159 59.3555 62.4323 56.1689Z" fill="#EBEBEB"/>
<path opacity="0.2" d="M153.788 79.4669C153.82 79.5983 154.007 79.5983 154.039 79.4669C154.496 77.608 155 77.1045 156.859 76.6474C156.99 76.6151 156.99 76.4287 156.859 76.3965C155 75.9394 154.496 75.4359 154.039 73.577C154.007 73.4456 153.82 73.4456 153.788 73.577C153.331 75.4359 152.828 75.9394 150.969 76.3965C150.837 76.4287 150.837 76.6151 150.969 76.6474C152.828 77.1045 153.331 77.608 153.788 79.4669Z" fill="#EBEBEB"/>
<path opacity="0.4" d="M39.6914 149.664C39.6591 149.533 39.4727 149.533 39.4404 149.664C38.9834 151.523 38.4798 152.026 36.621 152.483C36.4896 152.516 36.4896 152.702 36.621 152.734C38.4798 153.191 38.9834 153.695 39.4404 155.554C39.4727 155.685 39.6591 155.685 39.6914 155.554C40.1485 153.695 40.652 153.191 42.5109 152.734C42.6422 152.702 42.6422 152.516 42.5109 152.483C40.652 152.026 40.1485 151.523 39.6914 149.664Z" fill="#EBEBEB"/>
<path opacity="0.2" d="M104.909 93.577C104.876 93.4456 104.69 93.4456 104.658 93.577C104.201 95.4359 103.697 95.9394 101.838 96.3964C101.707 96.4287 101.707 96.6151 101.838 96.6474C103.697 97.1045 104.201 97.608 104.658 99.4669C104.69 99.5983 104.876 99.5983 104.909 99.4669C105.366 97.608 105.869 97.1045 107.728 96.6474C107.86 96.6151 107.86 96.4287 107.728 96.3964C105.869 95.9394 105.366 95.4359 104.909 93.577Z" fill="#EBEBEB"/>
<path opacity="0.4" d="M161.179 100.771C161.211 100.903 161.398 100.903 161.43 100.771C161.887 98.9123 162.391 98.4088 164.25 97.9518C164.381 97.9195 164.381 97.7331 164.25 97.7008C162.391 97.2437 161.887 96.7402 161.43 94.8814C161.398 94.7499 161.211 94.7499 161.179 94.8814C160.722 96.7402 160.219 97.2437 158.36 97.7008C158.228 97.7331 158.228 97.9195 158.36 97.9518C160.219 98.4088 160.722 98.9123 161.179 100.771Z" fill="#EBEBEB"/>
<path opacity="0.4" d="M164.223 162.945C164.255 163.077 164.441 163.077 164.474 162.945C164.931 161.086 165.434 160.583 167.293 160.126C167.424 160.093 167.424 159.907 167.293 159.875C165.434 159.418 164.931 158.914 164.474 157.055C164.441 156.924 164.255 156.924 164.223 157.055C163.766 158.914 163.262 159.418 161.403 159.875C161.272 159.907 161.272 160.093 161.403 160.126C163.262 160.583 163.766 161.086 164.223 162.945Z" fill="#EBEBEB"/>
<path opacity="0.2" d="M58.1689 138.099C58.1367 137.967 57.9502 137.967 57.918 138.099C57.4609 139.957 56.9574 140.461 55.0985 140.918C54.9671 140.95 54.9671 141.137 55.0985 141.169C56.9574 141.626 57.4609 142.13 57.918 143.988C57.9502 144.12 58.1367 144.12 58.1689 143.988C58.626 142.13 59.1295 141.626 60.9884 141.169C61.1198 141.137 61.1198 140.95 60.9884 140.918C59.1295 140.461 58.626 139.957 58.1689 138.099Z" fill="#EBEBEB"/>
<path opacity="0.4" d="M136.832 94.6842C136.864 94.8157 137.05 94.8157 137.083 94.6842C137.54 92.8254 138.043 92.3219 139.902 91.8648C140.033 91.8325 140.033 91.6461 139.902 91.6138C138.043 91.1568 137.54 90.6533 137.083 88.7944C137.05 88.663 136.864 88.663 136.832 88.7944C136.374 90.6533 135.871 91.1568 134.012 91.6138C133.881 91.6461 133.881 91.8325 134.012 91.8648C135.871 92.3219 136.374 92.8254 136.832 94.6842Z" fill="#EBEBEB"/>
<path d="M68.1689 159.099C68.1367 158.967 67.9502 158.967 67.918 159.099C67.4609 160.957 66.9574 161.461 65.0985 161.918C64.9671 161.95 64.9671 162.137 65.0985 162.169C66.9574 162.626 67.4609 163.13 67.918 164.988C67.9502 165.12 68.1367 165.12 68.1689 164.988C68.626 163.13 69.1295 162.626 70.9884 162.169C71.1198 162.137 71.1198 161.95 70.9884 161.918C69.1295 161.461 68.626 160.957 68.1689 159.099Z" fill="#EBEBEB"/>
<path d="M100.561 143.577C100.528 143.446 100.342 143.446 100.31 143.577C99.8525 145.436 99.349 145.939 97.4901 146.396C97.3587 146.429 97.3587 146.615 97.4901 146.647C99.349 147.104 99.8525 147.608 100.31 149.467C100.342 149.598 100.528 149.598 100.561 149.467C101.018 147.608 101.521 147.104 103.38 146.647C103.511 146.615 103.511 146.429 103.38 146.396C101.521 145.939 101.018 145.436 100.561 143.577Z" fill="#EBEBEB"/>
<path opacity="0.4" d="M42.1689 80.0986C42.1367 79.9671 41.9502 79.9671 41.918 80.0986C41.4609 81.9574 40.9574 82.4609 39.0985 82.918C38.9671 82.9503 38.9671 83.1367 39.0985 83.169C40.9574 83.626 41.4609 84.1296 41.918 85.9884C41.9502 86.1198 42.1367 86.1198 42.1689 85.9884C42.626 84.1296 43.1295 83.626 44.9884 83.169C45.1198 83.1367 45.1198 82.9503 44.9884 82.918C43.1295 82.4609 42.626 81.9574 42.1689 80.0986Z" fill="#EBEBEB"/>
<path d="M34.4377 107.462C34.4146 107.368 34.2815 107.368 34.2584 107.462C33.932 108.79 33.5723 109.149 32.2445 109.476C32.1507 109.499 32.1507 109.632 32.2445 109.655C33.5723 109.982 33.932 110.341 34.2584 111.669C34.2815 111.763 34.4146 111.763 34.4377 111.669C34.7642 110.341 35.1238 109.982 36.4516 109.655C36.5454 109.632 36.5454 109.499 36.4516 109.476C35.1238 109.149 34.7642 108.79 34.4377 107.462Z" fill="#EBEBEB"/>
<path d="M37.0466 49.6358C37.0235 49.5419 36.8904 49.5419 36.8673 49.6358C36.5408 50.9636 36.1812 51.3232 34.8534 51.6497C34.7596 51.6727 34.7596 51.8059 34.8534 51.829C36.1812 52.1554 36.5408 52.5151 36.8673 53.8428C36.8904 53.9367 37.0235 53.9367 37.0466 53.8428C37.3731 52.5151 37.7327 52.1554 39.0605 51.829C39.1543 51.8059 39.1543 51.6727 39.0605 51.6497C37.7327 51.3232 37.3731 50.9636 37.0466 49.6358Z" fill="#EBEBEB"/>
<path d="M138.263 157.07C138.24 156.977 138.107 156.977 138.084 157.07C137.758 158.398 137.398 158.758 136.07 159.084C135.976 159.107 135.976 159.24 136.07 159.264C137.398 159.59 137.758 159.95 138.084 161.277C138.107 161.371 138.24 161.371 138.263 161.277C138.59 159.95 138.95 159.59 140.277 159.264C140.371 159.24 140.371 159.107 140.277 159.084C138.95 158.758 138.59 158.398 138.263 157.07Z" fill="#EBEBEB"/>
<path d="M167.047 179.201C167.024 179.107 166.89 179.107 166.867 179.201C166.541 180.529 166.181 180.888 164.853 181.215C164.76 181.238 164.76 181.371 164.853 181.394C166.181 181.721 166.541 182.08 166.867 183.408C166.89 183.502 167.024 183.502 167.047 183.408C167.373 182.08 167.733 181.721 169.06 181.394C169.154 181.371 169.154 181.238 169.06 181.215C167.733 180.888 167.373 180.529 167.047 179.201Z" fill="#EBEBEB"/>
<rect x="75.2173" y="46.5219" width="52.1739" height="13.0435" rx="6.52174" fill="#01A6FF"/>
<path d="M100.435 216.522C167.189 216.522 221.305 209.514 221.305 200.87C221.305 192.225 167.189 185.217 100.435 185.217C33.6806 185.217 -20.4346 192.225 -20.4346 200.87C-20.4346 209.514 33.6806 216.522 100.435 216.522Z" fill="#F5F5F5"/>
<rect x="29.1304" y="103.043" width="144.75" height="28.4348" rx="9.75845" fill="white"/>
<path d="M57.1584 117.657V119.678H59.5445C60.1045 119.678 60.4454 119.617 60.5671 119.496C60.8512 119.309 60.9932 119.033 60.9932 118.668C60.9932 118.278 60.8512 118.002 60.5671 117.84C60.348 117.718 59.9949 117.657 59.508 117.657H57.1584ZM57.1584 114.322V116.123H59.1671C59.7677 116.123 60.1694 116.038 60.3723 115.868C60.559 115.714 60.6523 115.486 60.6523 115.186C60.6523 114.902 60.5387 114.675 60.3115 114.504C60.141 114.383 59.8002 114.322 59.2888 114.322H57.1584ZM54.9184 112.739H59.8367C60.9323 112.739 61.6952 112.885 62.1254 113.177C62.6773 113.559 62.9532 114.131 62.9532 114.894C62.9532 115.462 62.7828 115.908 62.4419 116.233C62.3039 116.355 62.1416 116.46 61.9549 116.55C61.7683 116.639 61.6181 116.696 61.5045 116.72C61.3909 116.744 61.3138 116.757 61.2732 116.757V116.805C61.9631 116.87 62.4987 117.093 62.8802 117.475C63.2291 117.824 63.4036 118.307 63.4036 118.923C63.4036 119.646 63.1926 120.202 62.7706 120.591C62.2836 121.038 61.3341 121.261 59.9219 121.261H54.9184V112.739ZM69.5909 118.51V118.412C69.4773 118.51 69.3475 118.579 69.2014 118.619C69.0634 118.652 68.824 118.684 68.4831 118.717L68.0327 118.765C67.6188 118.806 67.3306 118.879 67.1683 118.984C66.9735 119.139 66.8761 119.313 66.8761 119.508C66.8761 119.727 66.9614 119.901 67.1318 120.031C67.2941 120.161 67.566 120.226 67.9475 120.226C68.4669 120.226 68.8686 120.084 69.1527 119.8C69.4448 119.508 69.5909 119.078 69.5909 118.51ZM67.0588 117.073H64.8918C64.8918 116.505 65.0906 116.022 65.4883 115.624C65.8048 115.316 66.1863 115.109 66.6327 115.003C67.0872 114.898 67.6431 114.845 68.3005 114.845C69.737 114.845 70.715 115.117 71.2344 115.661C71.3886 115.823 71.5063 116.014 71.5875 116.233C71.6767 116.452 71.7254 116.635 71.7335 116.781C71.7498 116.927 71.7579 117.118 71.7579 117.353V120.104C71.7579 120.405 71.7904 120.652 71.8553 120.847C71.9364 120.985 72.0501 121.066 72.1961 121.09V121.261H69.8588L69.7248 120.652H69.6761C69.4408 120.952 69.1202 121.172 68.7144 121.31C68.3411 121.431 67.8501 121.492 67.2414 121.492C66.3405 121.492 65.6993 121.362 65.3179 121.103C64.839 120.762 64.5996 120.271 64.5996 119.63C64.5996 119.118 64.7538 118.712 65.0622 118.412C65.2408 118.242 65.4883 118.104 65.8048 117.998C66.1214 117.893 66.3648 117.828 66.5353 117.803C66.7138 117.779 66.9776 117.751 67.3266 117.718L68.3005 117.633C68.5521 117.609 68.7266 117.592 68.824 117.584C68.9295 117.576 69.0431 117.556 69.1648 117.523C69.2866 117.483 69.3759 117.43 69.4327 117.365C69.5301 117.268 69.5788 117.134 69.5788 116.963C69.5788 116.704 69.4489 116.501 69.1892 116.355C68.9944 116.241 68.7103 116.184 68.337 116.184C67.9312 116.184 67.6228 116.257 67.4118 116.403C67.1846 116.582 67.0669 116.805 67.0588 117.073ZM75.5319 119.824H77.9667V115.077H80.1093V119.824H82.5441V115.077H84.6867V121.261H73.3893V115.077H75.5319V119.824ZM91.1892 117.779L93.5631 115.077H95.9979L93.137 117.962L96.1805 121.261H93.6239L91.1892 118.388V121.261H89.0466V115.077H91.1892V117.779ZM101.601 116.696C101.292 116.387 100.854 116.233 100.286 116.233C99.7178 116.233 99.2796 116.387 98.9712 116.696C98.6303 117.037 98.4598 117.528 98.4598 118.169C98.4598 118.81 98.6303 119.301 98.9712 119.642C99.2796 119.95 99.7178 120.104 100.286 120.104C100.854 120.104 101.292 119.95 101.601 119.642C101.942 119.301 102.112 118.81 102.112 118.169C102.112 117.528 101.942 117.037 101.601 116.696ZM103.256 115.661C103.971 116.237 104.328 117.073 104.328 118.169C104.328 119.264 103.971 120.1 103.256 120.677C102.583 121.22 101.593 121.492 100.286 121.492C98.9793 121.492 97.9891 121.22 97.3155 120.677C96.6013 120.1 96.2442 119.264 96.2442 118.169C96.2442 117.073 96.6013 116.237 97.3155 115.661C98.0054 115.117 98.9955 114.845 100.286 114.845C101.576 114.845 102.567 115.117 103.256 115.661ZM110.386 116.44H108.268V116.854C108.268 117.446 108.211 117.97 108.098 118.424C107.992 118.887 107.781 119.378 107.465 119.897H110.386V116.44ZM104.579 119.897H105.444C105.841 119.354 106.126 118.737 106.296 118.047C106.426 117.528 106.491 116.866 106.491 116.063V115.077H112.456V119.897H113.491L113.369 122.868H111.726V121.261H106.345V122.868H104.701L104.579 119.897ZM114.905 121.261V119.264H117.145V121.261H114.905ZM114.905 117.073V115.077H117.145V117.073H114.905Z" fill="#859EEF"/>
<path d="M126.309 114.675L125.298 116.038L124.458 115.393L125.432 114.066L123.874 113.555L124.227 112.544L125.785 113.08V111.436H126.845V113.08L128.391 112.557L128.731 113.555L127.185 114.066L128.147 115.381L127.307 116.026L126.309 114.675ZM132.776 114.675L131.766 116.038L130.926 115.393L131.9 114.066L130.341 113.555L130.695 112.544L132.253 113.08V111.436H133.312V113.08L134.858 112.557L135.199 113.555L133.653 114.066L134.615 115.381L133.775 116.026L132.776 114.675ZM139.244 114.675L138.233 116.038L137.393 115.393L138.367 114.066L136.809 113.555L137.162 112.544L138.72 113.08V111.436H139.779V113.08L141.325 112.557L141.666 113.555L140.12 114.066L141.082 115.381L140.242 116.026L139.244 114.675ZM145.711 114.675L144.701 116.038L143.861 115.393L144.835 114.066L143.276 113.555L143.629 112.544L145.188 113.08V111.436H146.247V113.08L147.793 112.557L148.134 113.555L146.588 114.066L147.549 115.381L146.709 116.026L145.711 114.675Z" fill="#214FE2"/>
<path d="M26.4809 130.895C29.3 131.328 32.083 129.776 32.9865 128.782C32.0552 126.561 37.805 121.167 34.01 121.167C33.1325 121.167 32.383 118.868 29.1916 120.594C29.1801 121.292 29.1916 123.706 29.1916 124.118C29.1916 129.81 25.9387 130.567 26.4809 130.895Z" fill="white"/>
<path d="M69.1282 90.9469H66.3734V93.5217H65.6377V88.0435H66.3734V90.3287H69.1282V88.0435H69.8638V93.5217H69.1282V90.9469ZM70.967 92.3165C70.8313 91.7583 70.8366 91.2183 70.9826 90.6965C71.1287 90.1748 71.4366 89.8017 71.9061 89.5774C72.167 89.4522 72.4722 89.3896 72.8218 89.3896C73.1713 89.3896 73.4766 89.4522 73.7374 89.5774C74.207 89.7965 74.5174 90.1878 74.6687 90.7513C74.7366 91.0122 74.7705 91.2756 74.7705 91.5417C74.7757 91.8026 74.7444 92.0609 74.6766 92.3165C74.6139 92.5669 74.5018 92.7965 74.34 93.0052C74.1835 93.2139 73.9826 93.3783 73.7374 93.4983C73.4713 93.6183 73.1661 93.6783 72.8218 93.6783C72.4774 93.6783 72.1722 93.6183 71.9061 93.4983C71.4522 93.2791 71.1392 92.8852 70.967 92.3165ZM71.6948 90.7435C71.627 90.9522 71.5931 91.213 71.5931 91.5261C71.5931 91.8339 71.627 92.0974 71.6948 92.3165C71.7626 92.5356 71.8409 92.7 71.9296 92.8096C72.1174 93.0183 72.3313 93.1409 72.5713 93.1774C72.7383 93.2035 72.9053 93.2035 73.0722 93.1774C73.1453 93.1722 73.247 93.1356 73.3774 93.0678C73.5183 92.9948 73.6331 92.9035 73.7218 92.7939C73.8105 92.6843 73.8861 92.5252 73.9487 92.3165C74.0166 92.0974 74.0505 91.8339 74.0505 91.5261C74.0505 91.213 74.0166 90.9522 73.9487 90.7435C73.8757 90.5139 73.7948 90.3496 73.7061 90.2504C73.6226 90.1513 73.5183 90.0678 73.3931 90C73.2679 89.9322 73.1609 89.8904 73.0722 89.8748C72.9053 89.8487 72.7383 89.8487 72.5713 89.8748C72.4983 89.88 72.3939 89.9191 72.2583 89.9922C71.9922 90.1226 71.8044 90.373 71.6948 90.7435ZM75.6778 93.5217V89.5461H77.5717C78.4117 89.5461 78.8317 89.8617 78.8317 90.493C78.8317 90.9469 78.5917 91.2574 78.1117 91.4243V91.4478C78.4352 91.5261 78.6595 91.6513 78.7848 91.8235C78.9152 91.9956 78.9804 92.2174 78.9804 92.4887C78.9804 92.9217 78.8213 93.2087 78.503 93.3496C78.2422 93.4643 77.9239 93.5217 77.5482 93.5217H75.6778ZM77.3526 90.0313H76.3665V91.2052H77.3213C77.5978 91.2052 77.8013 91.1504 77.9317 91.0409C78.0674 90.9261 78.1352 90.7774 78.1352 90.5948C78.1352 90.2191 77.8743 90.0313 77.3526 90.0313ZM77.3526 91.6904H76.3665V93.0365H77.3761C77.9709 93.0365 78.2682 92.833 78.2682 92.4261C78.2682 91.9356 77.963 91.6904 77.3526 91.6904ZM79.7713 92.3165C79.6357 91.7583 79.6409 91.2183 79.787 90.6965C79.9331 90.1748 80.2409 89.8017 80.7105 89.5774C80.9713 89.4522 81.2766 89.3896 81.6261 89.3896C81.9757 89.3896 82.2809 89.4522 82.5418 89.5774C83.0113 89.7965 83.3218 90.1878 83.4731 90.7513C83.5409 91.0122 83.5748 91.2756 83.5748 91.5417C83.58 91.8026 83.5487 92.0609 83.4809 92.3165C83.4183 92.5669 83.3061 92.7965 83.1444 93.0052C82.9879 93.2139 82.787 93.3783 82.5418 93.4983C82.2757 93.6183 81.9705 93.6783 81.6261 93.6783C81.2818 93.6783 80.9766 93.6183 80.7105 93.4983C80.2566 93.2791 79.9435 92.8852 79.7713 92.3165ZM80.4992 90.7435C80.4313 90.9522 80.3974 91.213 80.3974 91.5261C80.3974 91.8339 80.4313 92.0974 80.4992 92.3165C80.567 92.5356 80.6453 92.7 80.7339 92.8096C80.9218 93.0183 81.1357 93.1409 81.3757 93.1774C81.5426 93.2035 81.7096 93.2035 81.8766 93.1774C81.9496 93.1722 82.0513 93.1356 82.1818 93.0678C82.3226 92.9948 82.4374 92.9035 82.5261 92.7939C82.6148 92.6843 82.6905 92.5252 82.7531 92.3165C82.8209 92.0974 82.8548 91.8339 82.8548 91.5261C82.8548 91.213 82.8209 90.9522 82.7531 90.7435C82.68 90.5139 82.5992 90.3496 82.5105 90.2504C82.427 90.1513 82.3226 90.0678 82.1974 90C82.0722 89.9322 81.9653 89.8904 81.8766 89.8748C81.7096 89.8487 81.5426 89.8487 81.3757 89.8748C81.3026 89.88 81.1983 89.9191 81.0626 89.9922C80.7966 90.1226 80.6087 90.373 80.4992 90.7435ZM87.3465 92.3713H88.0039C87.9413 92.7209 87.7717 93.0261 87.4952 93.2869C87.2187 93.5478 86.8091 93.6783 86.2665 93.6783C85.5309 93.6783 84.9909 93.4356 84.6465 92.9504C84.4743 92.6948 84.3622 92.4209 84.31 92.1287C84.2735 91.9252 84.2552 91.7322 84.2552 91.5496C84.2552 91.2 84.3074 90.8713 84.4117 90.5635C84.4795 90.3443 84.5787 90.1539 84.7091 89.9922C84.85 89.82 85.0509 89.6765 85.3117 89.5617C85.5726 89.4469 85.8674 89.3896 86.1961 89.3896C86.7804 89.3896 87.2213 89.5513 87.5187 89.8748C87.6439 90.0104 87.7456 90.1826 87.8239 90.3913C87.9387 90.6939 88.0091 91.0617 88.0352 91.4948C88.0352 91.5104 88.0352 91.5443 88.0352 91.5965C88.0404 91.6487 88.043 91.68 88.043 91.6904H84.983C84.983 92.0869 85.0874 92.4365 85.2961 92.7391C85.5048 93.0417 85.8204 93.193 86.243 93.193C86.5456 93.193 86.7935 93.1174 86.9865 92.9661C87.1795 92.8148 87.2995 92.6165 87.3465 92.3713ZM84.983 91.2052H87.3152C87.31 90.8974 87.2369 90.613 87.0961 90.3522C86.9343 90.0339 86.6395 89.8748 86.2117 89.8748C85.7265 89.8748 85.3926 90.0365 85.21 90.36C85.0587 90.6209 84.983 90.9026 84.983 91.2052ZM93.5582 92.1052H94.2155C94.1947 92.4078 94.0799 92.7261 93.8712 93.06C93.7564 93.2478 93.5764 93.3991 93.3312 93.5139C93.0912 93.6235 92.8095 93.6783 92.486 93.6783C92.3764 93.6783 92.2982 93.6756 92.2512 93.6704C92.0216 93.66 91.7868 93.6 91.5468 93.4904C90.879 93.1565 90.5451 92.4939 90.5451 91.5026C90.5451 90.9809 90.6651 90.5165 90.9051 90.1096C91.2025 89.6296 91.7138 89.3896 92.439 89.3896C92.9503 89.3896 93.3573 89.52 93.6599 89.7809C93.9625 90.0365 94.1373 90.373 94.1842 90.7904H93.5268C93.4225 90.18 93.0651 89.8748 92.4547 89.8748C92.0582 89.8748 91.7608 90.0209 91.5625 90.313C91.3695 90.6 91.2729 90.9965 91.2729 91.5026C91.2729 91.993 91.3747 92.3974 91.5782 92.7156C91.7816 93.0339 92.0895 93.193 92.5016 93.193C92.8564 93.193 93.1147 93.0809 93.2764 92.8565C93.4486 92.6322 93.5425 92.3817 93.5582 92.1052ZM94.9344 92.3165C94.7987 91.7583 94.804 91.2183 94.95 90.6965C95.0961 90.1748 95.404 89.8017 95.8735 89.5774C96.1344 89.4522 96.4396 89.3896 96.7892 89.3896C97.1387 89.3896 97.444 89.4522 97.7048 89.5774C98.1744 89.7965 98.4848 90.1878 98.6361 90.7513C98.704 91.0122 98.7379 91.2756 98.7379 91.5417C98.7431 91.8026 98.7118 92.0609 98.644 92.3165C98.5813 92.5669 98.4692 92.7965 98.3074 93.0052C98.1509 93.2139 97.95 93.3783 97.7048 93.4983C97.4387 93.6183 97.1335 93.6783 96.7892 93.6783C96.4448 93.6783 96.1396 93.6183 95.8735 93.4983C95.4196 93.2791 95.1066 92.8852 94.9344 92.3165ZM95.6622 90.7435C95.5944 90.9522 95.5605 91.213 95.5605 91.5261C95.5605 91.8339 95.5944 92.0974 95.6622 92.3165C95.73 92.5356 95.8083 92.7 95.897 92.8096C96.0848 93.0183 96.2987 93.1409 96.5387 93.1774C96.7057 93.2035 96.8726 93.2035 97.0396 93.1774C97.1126 93.1722 97.2144 93.1356 97.3448 93.0678C97.4857 92.9948 97.6005 92.9035 97.6892 92.7939C97.7779 92.6843 97.8535 92.5252 97.9161 92.3165C97.984 92.0974 98.0179 91.8339 98.0179 91.5261C98.0179 91.213 97.984 90.9522 97.9161 90.7435C97.8431 90.5139 97.7622 90.3496 97.6735 90.2504C97.59 90.1513 97.4857 90.0678 97.3605 90C97.2353 89.9322 97.1283 89.8904 97.0396 89.8748C96.8726 89.8487 96.7057 89.8487 96.5387 89.8748C96.4657 89.88 96.3613 89.9191 96.2257 89.9922C95.9596 90.1226 95.7718 90.373 95.6622 90.7435ZM99.52 92.3165C99.3843 91.7583 99.3896 91.2183 99.5356 90.6965C99.6817 90.1748 99.9896 89.8017 100.459 89.5774C100.72 89.4522 101.025 89.3896 101.375 89.3896C101.724 89.3896 102.03 89.4522 102.29 89.5774C102.76 89.7965 103.07 90.1878 103.222 90.7513C103.29 91.0122 103.323 91.2756 103.323 91.5417C103.329 91.8026 103.297 92.0609 103.23 92.3165C103.167 92.5669 103.055 92.7965 102.893 93.0052C102.737 93.2139 102.536 93.3783 102.29 93.4983C102.024 93.6183 101.719 93.6783 101.375 93.6783C101.03 93.6783 100.725 93.6183 100.459 93.4983C100.005 93.2791 99.6922 92.8852 99.52 92.3165ZM100.248 90.7435C100.18 90.9522 100.146 91.213 100.146 91.5261C100.146 91.8339 100.18 92.0974 100.248 92.3165C100.316 92.5356 100.394 92.7 100.483 92.8096C100.67 93.0183 100.884 93.1409 101.124 93.1774C101.291 93.2035 101.458 93.2035 101.625 93.1774C101.698 93.1722 101.8 93.1356 101.93 93.0678C102.071 92.9948 102.186 92.9035 102.275 92.7939C102.363 92.6843 102.439 92.5252 102.502 92.3165C102.57 92.0974 102.603 91.8339 102.603 91.5261C102.603 91.213 102.57 90.9522 102.502 90.7435C102.429 90.5139 102.348 90.3496 102.259 90.2504C102.176 90.1513 102.071 90.0678 101.946 90C101.821 89.9322 101.714 89.8904 101.625 89.8748C101.458 89.8487 101.291 89.8487 101.124 89.8748C101.051 89.88 100.947 89.9191 100.811 89.9922C100.545 90.1226 100.357 90.373 100.248 90.7435ZM107.056 87.7852H107.643C107.622 88.1661 107.445 88.4191 107.111 88.5443C106.928 88.6069 106.772 88.6487 106.641 88.6696C106.057 88.7426 105.718 88.7922 105.624 88.8183C105.269 88.9174 104.998 89.0974 104.81 89.3583C104.622 89.6139 104.523 89.9817 104.513 90.4617H104.528C104.779 89.7887 105.293 89.4522 106.07 89.4522C106.701 89.4522 107.173 89.6609 107.486 90.0783C107.805 90.4904 107.964 90.9965 107.964 91.5965C107.964 92.1704 107.799 92.6609 107.471 93.0678C107.142 93.4748 106.654 93.6783 106.007 93.6783C105.293 93.6783 104.763 93.4069 104.419 92.8643C104.246 92.5669 104.129 92.233 104.066 91.8626C104.025 91.5704 104.004 91.2809 104.004 90.9939C104.004 89.9869 104.158 89.2826 104.466 88.8809C104.737 88.5313 105.105 88.3069 105.569 88.2078C106.007 88.1087 106.378 88.0513 106.68 88.0356C106.884 88.0096 107.009 87.9261 107.056 87.7852ZM104.732 91.6435C104.732 91.9878 104.81 92.3191 104.966 92.6374C105.149 93.0078 105.491 93.193 105.992 93.193C106.388 93.193 106.693 93.06 106.907 92.7939C107.126 92.5226 107.236 92.1496 107.236 91.6748C107.236 91.2835 107.168 90.9209 107.033 90.5869C106.86 90.1539 106.513 89.9374 105.992 89.9374C105.47 89.9374 105.118 90.1487 104.935 90.5713C104.799 90.8948 104.732 91.2522 104.732 91.6435ZM109.551 89.5461V93.0365H111.21V89.5461H111.899V93.0365H113.558V89.5461H114.247V93.0365H114.92L114.857 94.5548H114.278V93.5217H108.862V89.5461H109.551ZM118.376 92.3713H119.033C118.971 92.7209 118.801 93.0261 118.524 93.2869C118.248 93.5478 117.838 93.6783 117.296 93.6783C116.56 93.6783 116.02 93.4356 115.676 92.9504C115.504 92.6948 115.391 92.4209 115.339 92.1287C115.303 91.9252 115.284 91.7322 115.284 91.5496C115.284 91.2 115.337 90.8713 115.441 90.5635C115.509 90.3443 115.608 90.1539 115.738 89.9922C115.879 89.82 116.08 89.6765 116.341 89.5617C116.602 89.4469 116.897 89.3896 117.225 89.3896C117.81 89.3896 118.251 89.5513 118.548 89.8748C118.673 90.0104 118.775 90.1826 118.853 90.3913C118.968 90.6939 119.038 91.0617 119.064 91.4948C119.064 91.5104 119.064 91.5443 119.064 91.5965C119.07 91.6487 119.072 91.68 119.072 91.6904H116.012C116.012 92.0869 116.117 92.4365 116.325 92.7391C116.534 93.0417 116.85 93.193 117.272 93.193C117.575 93.193 117.823 93.1174 118.016 92.9661C118.209 92.8148 118.329 92.6165 118.376 92.3713ZM116.012 91.2052H118.344C118.339 90.8974 118.266 90.613 118.125 90.3522C117.964 90.0339 117.669 89.8748 117.241 89.8748C116.756 89.8748 116.422 90.0365 116.239 90.36C116.088 90.6209 116.012 90.9026 116.012 91.2052ZM122.628 91.6669H120.663V93.5217H119.975V89.5461H120.663V91.1817H122.628V89.5461H123.316V93.5217H122.628V91.6669ZM125.134 89.5461V92.7156L127.208 89.5461H127.975V93.5217H127.287V90.3443L125.22 93.5217H124.446V89.5461H125.134ZM131.964 92.3713H132.622C132.559 92.7209 132.39 93.0261 132.113 93.2869C131.837 93.5478 131.427 93.6783 130.884 93.6783C130.149 93.6783 129.609 93.4356 129.264 92.9504C129.092 92.6948 128.98 92.4209 128.928 92.1287C128.891 91.9252 128.873 91.7322 128.873 91.5496C128.873 91.2 128.925 90.8713 129.03 90.5635C129.097 90.3443 129.197 90.1539 129.327 89.9922C129.468 89.82 129.669 89.6765 129.93 89.5617C130.19 89.4469 130.485 89.3896 130.814 89.3896C131.398 89.3896 131.839 89.5513 132.137 89.8748C132.262 90.0104 132.364 90.1826 132.442 90.3913C132.557 90.6939 132.627 91.0617 132.653 91.4948C132.653 91.5104 132.653 91.5443 132.653 91.5965C132.658 91.6487 132.661 91.68 132.661 91.6904H129.601C129.601 92.0869 129.705 92.4365 129.914 92.7391C130.123 93.0417 130.438 93.193 130.861 93.193C131.164 93.193 131.411 93.1174 131.604 92.9661C131.797 92.8148 131.917 92.6165 131.964 92.3713ZM129.601 91.2052H131.933C131.928 90.8974 131.855 90.613 131.714 90.3522C131.552 90.0339 131.257 89.8748 130.83 89.8748C130.344 89.8748 130.01 90.0365 129.828 90.36C129.677 90.6209 129.601 90.9026 129.601 91.2052ZM134.604 90.3991H133.829V89.5461H134.604V90.3991ZM134.604 93.5217H133.829V92.6687H134.604V93.5217Z" fill="white"/>
<path d="M159.095 141.624H158.121V141.326H158.249C158.516 141.326 158.744 141.257 158.93 141.119C159.121 140.977 159.233 140.793 159.265 140.565H159.667V144.826H159.095V141.624ZM161.43 144.345H163.682V144.826H160.797C160.773 144.404 160.907 144.019 161.199 143.67C161.26 143.593 161.361 143.499 161.503 143.39C161.67 143.26 161.781 143.177 161.838 143.14L162.24 142.884L162.362 142.811L162.495 142.72L162.605 142.641C162.682 142.588 162.731 142.552 162.751 142.531C162.877 142.389 162.948 142.304 162.964 142.276C163.062 142.065 163.11 141.884 163.11 141.734C163.11 141.474 163.033 141.273 162.879 141.131C162.729 140.989 162.52 140.918 162.252 140.918C161.98 140.918 161.765 140.995 161.607 141.15C161.448 141.304 161.369 141.509 161.369 141.764V141.923H160.809V141.795C160.809 141.576 160.856 141.363 160.949 141.156C161.148 140.689 161.588 140.45 162.27 140.437C162.708 140.437 163.055 140.553 163.311 140.784C163.567 141.012 163.695 141.326 163.695 141.728C163.715 142.061 163.611 142.363 163.384 142.635C163.335 142.696 163.244 142.777 163.11 142.878C162.993 142.968 162.881 143.049 162.775 143.122C162.702 143.171 162.552 143.268 162.325 143.414C162.037 143.597 161.826 143.759 161.692 143.901C161.558 144.039 161.471 144.187 161.43 144.345ZM165.229 142.397H164.626V141.734H165.229V142.397ZM165.229 144.826H164.626V144.163H165.229V144.826ZM167.637 141.624H166.663V141.326H166.791C167.058 141.326 167.286 141.257 167.472 141.119C167.663 140.977 167.775 140.793 167.807 140.565H168.209V144.826H167.637V141.624ZM172.241 141.503H171.73C171.633 141.097 171.361 140.894 170.914 140.894C170.224 140.894 169.88 141.42 169.88 142.471H169.892C170.119 142.17 170.466 142.02 170.933 142.02C171.33 142.02 171.657 142.15 171.913 142.41C172.172 142.665 172.302 143.012 172.302 143.451C172.302 143.905 172.172 144.268 171.913 144.54C171.649 144.816 171.292 144.954 170.841 144.954C170.594 144.954 170.381 144.917 170.202 144.844C170.024 144.775 169.865 144.66 169.727 144.497C169.589 144.331 169.486 144.104 169.417 143.816C169.348 143.524 169.313 143.168 169.313 142.751C169.326 141.854 169.496 141.233 169.825 140.888C170.003 140.693 170.208 140.563 170.44 140.498C170.582 140.458 170.742 140.437 170.92 140.437C171.095 140.437 171.265 140.464 171.432 140.517C171.562 140.561 171.675 140.616 171.773 140.681C172.02 140.86 172.176 141.133 172.241 141.503ZM169.916 143.463C169.916 143.755 169.997 144 170.16 144.199C170.322 144.398 170.557 144.497 170.866 144.497C171.154 144.497 171.375 144.396 171.529 144.193C171.679 143.994 171.754 143.745 171.754 143.444C171.754 143.16 171.673 142.929 171.511 142.751C171.353 142.568 171.133 142.477 170.853 142.477C170.561 142.477 170.332 142.566 170.166 142.744C169.999 142.919 169.916 143.158 169.916 143.463Z" fill="white"/>
</g>
<defs>
<linearGradient id="paint0_linear_1_6744" x1="101.087" y1="37.3914" x2="101.087" y2="332.762" gradientUnits="userSpaceOnUse">
<stop stop-color="#214FE2"/>
<stop offset="1" stop-color="#01A6FF"/>
</linearGradient>
<linearGradient id="paint1_linear_1_6744" x1="135.963" y1="44.4744" x2="76.1817" y2="179.06" gradientUnits="userSpaceOnUse">
<stop stop-color="#214FE2"/>
<stop offset="1" stop-color="#01A6FF"/>
</linearGradient>
<clipPath id="clip0_1_6744">
<rect width="200" height="200" rx="24" fill="white"/>
</clipPath>
</defs>
</svg>
