<svg width="200" height="200" viewBox="0 0 200 200" fill="none" xmlns="http://www.w3.org/2000/svg">
<g clip-path="url(#clip0_1_14086)">
<rect width="200" height="200" rx="24" fill="#FAFAFA"/>
<path opacity="0.1" d="M-4.32744 -14.1716C-8.0828 35.8799 62.8004 53.9302 78.0511 37.9419C93.3018 21.9535 70.8418 2.15794 54.9944 22.0339C33.0229 49.5908 86.6957 100.395 44.9082 132.681C33.8434 141.23 7.2706 148.685 -21.3046 129.061" stroke="url(#paint0_linear_1_14086)" stroke-width="11.7962"/>
<path d="M9.66049 162.812H23.5522L23.5522 123.867H9.66049L9.66049 162.812Z" fill="#CCCCCC"/>
<path opacity="0.2" d="M9.66049 162.812H23.5522L23.5522 123.867H9.66049L9.66049 162.812Z" fill="black"/>
<path d="M33.6673 97.4225C34.2945 99.1531 34.9452 100.869 35.5959 102.591C38.6185 110.536 41.7968 118.439 45.3192 126.177C47.0969 130.077 48.9454 133.963 51.0909 137.674C52.1566 139.513 53.3402 140.767 53.0148 143.007C52.6282 145.638 51.0202 148.067 48.6106 149.26C45.7059 150.698 41.9335 150.151 39.5616 147.944C38.9109 151.117 36.1241 153.739 32.9175 154.201C29.7063 154.659 26.3018 152.923 24.7881 150.056C23.6281 153.348 20.4451 155.828 16.9698 156.149C13.4946 156.47 9.9108 154.612 8.16608 151.589C6.04883 153.654 3.46476 155.526 0.508165 155.673C-2.44843 155.819 -5.64551 153.56 -5.53706 150.603C-7.24405 151.749 -9.53106 151.962 -11.422 151.155C-13.3081 150.344 -14.7322 148.538 -15.0812 146.515C-16.6844 147.251 -18.7451 146.826 -19.9286 145.515C-22.6825 142.469 -19.4477 138.678 -17.8161 135.995C-15.7083 132.529 -13.6759 129.011 -11.7379 125.446C-7.06487 116.85 -2.56632 107.815 -0.166145 98.2807L33.6626 97.4319L33.6673 97.4225Z" fill="#CCCCCC"/>
<path opacity="0.2" d="M33.6673 97.4225C34.2945 99.1531 34.9452 100.869 35.5959 102.591C38.6185 110.536 41.7968 118.439 45.3192 126.177C47.0969 130.077 48.9454 133.963 51.0909 137.674C52.1566 139.513 53.3402 140.767 53.0148 143.007C52.6282 145.638 51.0202 148.067 48.6106 149.26C45.7059 150.698 41.9335 150.151 39.5616 147.944C38.9109 151.117 36.1241 153.739 32.9175 154.201C29.7063 154.659 26.3018 152.923 24.7881 150.056C23.6281 153.348 20.4451 155.828 16.9698 156.149C13.4946 156.47 9.9108 154.612 8.16608 151.589C6.04883 153.654 3.46476 155.526 0.508165 155.673C-2.44843 155.819 -5.64551 153.56 -5.53706 150.603C-7.24405 151.749 -9.53106 151.962 -11.422 151.155C-13.3081 150.344 -14.7322 148.538 -15.0812 146.515C-16.6844 147.251 -18.7451 146.826 -19.9286 145.515C-22.6825 142.469 -19.4477 138.678 -17.8161 135.995C-15.7083 132.529 -13.6759 129.011 -11.7379 125.446C-7.06487 116.85 -2.56632 107.815 -0.166145 98.2807L33.6626 97.4319L33.6673 97.4225Z" fill="white"/>
<path d="M40.7975 115.714C41.2785 116.864 13.8251 148.354 -11.7139 125.871" stroke="#CCCCCC" stroke-width="0.958088" stroke-linecap="round" stroke-linejoin="round"/>
<path d="M27.6976 127.71L27.4666 128.856L26.3867 129.313L27.41 129.888L27.509 131.053L28.3719 130.265L29.5131 130.525L29.0274 129.464L29.631 128.459L28.4662 128.592L27.6976 127.71Z" fill="#CCCCCC"/>
<path d="M1.51771 185.224H31.7014L36.4168 162.802H-3.19775L1.51771 185.224Z" fill="#898989"/>
<path opacity="0.4" d="M1.51771 185.224H31.7014L36.4168 162.802H-3.19775L1.51771 185.224Z" fill="#FAFAFA"/>
<path d="M-4.1555 165.74H37.3689C38.0408 165.74 38.5854 165.195 38.5854 164.523V163.142C38.5854 162.47 38.0408 161.925 37.3689 161.925H-4.1555C-4.8274 161.925 -5.37209 162.47 -5.37209 163.142V164.523C-5.37209 165.195 -4.8274 165.74 -4.1555 165.74Z" fill="#898989"/>
<path d="M-10.7852 107.768C-10.6626 107.438 -10.507 107.117 -10.3278 106.806C-5.30108 97.9882 -0.703508 89.1089 3.31407 79.7582L12.9902 81.6821V83.0401C13.193 82.1301 13.3014 81.6019 13.3014 81.6019L30.6543 80.5079C32.7716 86.4211 35.8838 91.9854 39.1657 97.3233C40.42 99.3651 41.7074 101.393 43.0654 103.364C44.4753 105.415 46.0927 107.249 43.603 109.494C42.4477 110.536 40.3729 110.588 39.4722 109.319C39.3826 111.149 38.8969 113.078 37.5389 114.308C36.1856 115.539 33.776 115.704 32.6442 114.261C32.5311 116.944 30.7156 119.571 28.1315 120.306C25.5475 121.037 22.4353 119.538 21.6902 116.954C21.1291 118.84 19.573 120.5 17.6255 120.802C15.678 121.103 13.5136 119.745 13.2684 117.793C12.6884 119.967 10.3071 121.495 8.09083 121.118C5.87457 120.74 4.13456 118.51 4.30903 116.265C2.93683 117.869 0.315033 118.217 -1.42969 117.024C-3.17441 115.831 -3.80156 113.266 -2.8066 111.404C-4.54189 112.653 -6.65914 113.964 -8.67736 113.252C-9.87508 112.828 -10.7616 111.705 -11.0304 110.465C-11.2331 109.541 -11.1105 108.631 -10.7899 107.773L-10.7852 107.768Z" fill="#CCCCCC"/>
<path opacity="0.4" d="M-10.7852 107.768C-10.6626 107.438 -10.507 107.117 -10.3278 106.806C-5.30108 97.9882 -0.703508 89.1089 3.31407 79.7582L12.9902 81.6821V83.0401C13.193 82.1301 13.3014 81.6019 13.3014 81.6019L30.6543 80.5079C32.7716 86.4211 35.8838 91.9854 39.1657 97.3233C40.42 99.3651 41.7074 101.393 43.0654 103.364C44.4753 105.415 46.0927 107.249 43.603 109.494C42.4477 110.536 40.3729 110.588 39.4722 109.319C39.3826 111.149 38.8969 113.078 37.5389 114.308C36.1856 115.539 33.776 115.704 32.6442 114.261C32.5311 116.944 30.7156 119.571 28.1315 120.306C25.5475 121.037 22.4353 119.538 21.6902 116.954C21.1291 118.84 19.573 120.5 17.6255 120.802C15.678 121.103 13.5136 119.745 13.2684 117.793C12.6884 119.967 10.3071 121.495 8.09083 121.118C5.87457 120.74 4.13456 118.51 4.30903 116.265C2.93683 117.869 0.315033 118.217 -1.42969 117.024C-3.17441 115.831 -3.80156 113.266 -2.8066 111.404C-4.54189 112.653 -6.65914 113.964 -8.67736 113.252C-9.87508 112.828 -10.7616 111.705 -11.0304 110.465C-11.2331 109.541 -11.1105 108.631 -10.7899 107.773L-10.7852 107.768Z" fill="white"/>
<path d="M36.6941 92.7258C36.845 93.4284 4.73744 115.346 -6.49951 100.473" stroke="#CCCCCC" stroke-width="0.958088" stroke-linecap="round" stroke-linejoin="round"/>
<path d="M12.6976 104.689L12.3109 105.792L11.1792 106.099L12.1129 106.811L12.0516 107.98L13.0182 107.315L14.1075 107.73L13.7727 106.608L14.5083 105.698L13.3389 105.67L12.6976 104.689Z" fill="#CCCCCC"/>
<path d="M25.6754 63.1692C25.8782 63.1551 27.2598 67.0312 27.373 67.3047C28.9951 71.1667 30.6738 75.0098 32.494 78.7821C33.3946 80.6542 34.3283 82.5121 35.3515 84.3228C35.7712 85.0631 36.2003 85.7987 36.6719 86.506C37.3132 87.4633 38.2751 88.1612 36.9595 89.1278C36.4738 89.4862 35.875 89.656 35.2855 89.7833C34.5923 89.9389 33.8709 90.0474 33.173 89.92C32.4751 89.7927 31.7914 89.3966 31.4849 88.7553C31.0982 90.1039 30.6502 91.4573 29.8297 92.5984C29.0092 93.7349 27.7644 94.6402 26.3686 94.7392C24.9728 94.8383 23.478 93.9565 23.1574 92.5937C22.483 93.4849 21.7333 94.3526 20.7808 94.9373C19.8282 95.522 18.6305 95.8002 17.5695 95.4513C16.5085 95.1023 15.6598 94.0272 15.7824 92.9144C15.0185 94.3007 13.4954 95.2957 11.9157 95.2297C10.336 95.1636 8.82707 93.8952 8.68089 92.3202C7.73779 93.9518 5.59226 94.7817 3.79567 94.2064C1.99908 93.6311 0.730614 91.7166 0.905086 89.8399C0.17419 90.4576 -0.867927 90.7688 -1.76858 90.4387C-2.43346 90.1935 -2.99932 89.4956 -3.01346 88.7695C-3.03232 87.6991 -1.77801 86.3033 -1.25459 85.4168C-0.141744 83.5447 0.928663 81.6444 1.9472 79.7205C4.5077 74.8966 6.92202 69.8699 8.34608 64.5792L25.666 63.1787L25.6754 63.1692Z" fill="#CCCCCC"/>
<path opacity="0.6" d="M25.6754 63.1692C25.8782 63.1551 27.2598 67.0312 27.373 67.3047C28.9951 71.1667 30.6738 75.0098 32.494 78.7821C33.3946 80.6542 34.3283 82.5121 35.3515 84.3228C35.7712 85.0631 36.2003 85.7987 36.6719 86.506C37.3132 87.4633 38.2751 88.1612 36.9595 89.1278C36.4738 89.4862 35.875 89.656 35.2855 89.7833C34.5923 89.9389 33.8709 90.0474 33.173 89.92C32.4751 89.7927 31.7914 89.3966 31.4849 88.7553C31.0982 90.1039 30.6502 91.4573 29.8297 92.5984C29.0092 93.7349 27.7644 94.6402 26.3686 94.7392C24.9728 94.8383 23.478 93.9565 23.1574 92.5937C22.483 93.4849 21.7333 94.3526 20.7808 94.9373C19.8282 95.522 18.6305 95.8002 17.5695 95.4513C16.5085 95.1023 15.6598 94.0272 15.7824 92.9144C15.0185 94.3007 13.4954 95.2957 11.9157 95.2297C10.336 95.1636 8.82707 93.8952 8.68089 92.3202C7.73779 93.9518 5.59226 94.7817 3.79567 94.2064C1.99908 93.6311 0.730614 91.7166 0.905086 89.8399C0.17419 90.4576 -0.867927 90.7688 -1.76858 90.4387C-2.43346 90.1935 -2.99932 89.4956 -3.01346 88.7695C-3.03232 87.6991 -1.77801 86.3033 -1.25459 85.4168C-0.141744 83.5447 0.928663 81.6444 1.9472 79.7205C4.5077 74.8966 6.92202 69.8699 8.34608 64.5792L25.666 63.1787L25.6754 63.1692Z" fill="white"/>
<path d="M29.7823 72.8876C29.7823 72.8876 15.5888 93.315 0.918945 81.6253" stroke="#CCCCCC" stroke-width="0.958088" stroke-linecap="round" stroke-linejoin="round"/>
<path d="M16.1872 84.3131L15.6685 85.3599L14.5132 85.5297L15.3525 86.3455L15.1545 87.5008L16.1872 86.9538L17.2246 87.5008L17.0265 86.3455L17.8659 85.5297L16.7059 85.3599L16.1872 84.3131Z" fill="#CCCCCC"/>
<path d="M16.6207 42.822C16.6914 43.0201 16.2481 43.7793 16.1774 43.9584C15.7294 45.0807 15.2579 46.1936 14.7769 47.297C12.9615 51.4796 10.9715 55.5868 8.8826 59.6326C7.49625 62.3157 6.06275 64.9705 4.58681 67.6018C3.88892 68.8419 2.70534 70.2566 2.6629 71.6476C2.62518 72.9302 3.19103 74.1987 4.34632 74.8447C5.57706 75.5332 7.24162 75.3257 8.26016 74.3496C8.12341 76.1462 9.83512 77.7825 11.6364 77.7777C13.4377 77.773 15.0646 76.3254 15.5078 74.5807C15.8945 75.9906 17.6298 76.7309 19.035 76.3348C20.4402 75.9387 21.4635 74.6608 21.9256 73.2745C22.3028 74.0525 23.293 74.326 24.156 74.2459C25.9809 74.0714 27.5935 72.5577 27.8765 70.747C27.7916 71.2846 33.1106 72.0107 31.2716 69.2522C30.4653 68.0403 29.6684 66.8237 28.8809 65.6024C26.2779 61.5471 23.7787 57.4211 21.4823 53.1913C19.6669 49.8433 17.9221 46.4199 16.6254 42.8315L16.6207 42.822Z" fill="#CCCCCC"/>
<path opacity="0.8" d="M16.6207 42.822C16.6914 43.0201 16.2481 43.7793 16.1774 43.9584C15.7294 45.0807 15.2579 46.1936 14.7769 47.297C12.9615 51.4796 10.9715 55.5868 8.8826 59.6326C7.49625 62.3157 6.06275 64.9705 4.58681 67.6018C3.88892 68.8419 2.70534 70.2566 2.6629 71.6476C2.62518 72.9302 3.19103 74.1987 4.34632 74.8447C5.57706 75.5332 7.24162 75.3257 8.26016 74.3496C8.12341 76.1462 9.83512 77.7825 11.6364 77.7777C13.4377 77.773 15.0646 76.3254 15.5078 74.5807C15.8945 75.9906 17.6298 76.7309 19.035 76.3348C20.4402 75.9387 21.4635 74.6608 21.9256 73.2745C22.3028 74.0525 23.293 74.326 24.156 74.2459C25.9809 74.0714 27.5935 72.5577 27.8765 70.747C27.7916 71.2846 33.1106 72.0107 31.2716 69.2522C30.4653 68.0403 29.6684 66.8237 28.8809 65.6024C26.2779 61.5471 23.7787 57.4211 21.4823 53.1913C19.6669 49.8433 17.9221 46.4199 16.6254 42.8315L16.6207 42.822Z" fill="white"/>
<path d="M21.832 53.7241C21.832 53.7241 15.5369 61.1368 8.78906 59.8118" stroke="#CCCCCC" stroke-width="0.958088" stroke-linecap="round" stroke-linejoin="round"/>
<path d="M14.5133 59.2461L13.9946 60.2929L12.8394 60.4627L13.674 61.2785L13.4759 62.4337L14.5133 61.8868L15.5507 62.4337L15.3527 61.2785L16.1873 60.4627L15.032 60.2929L14.5133 59.2461Z" fill="#CCCCCC"/>
<path d="M4.39377 138.603C5.65945 138.603 6.68548 137.475 6.68548 136.084C6.68548 134.694 5.65945 133.566 4.39377 133.566C3.12809 133.566 2.10205 134.694 2.10205 136.084C2.10205 137.475 3.12809 138.603 4.39377 138.603Z" fill="#CCCCCC"/>
<path d="M0.309864 106.966C0.309864 107.891 -0.37388 108.64 -1.21323 108.64C-2.05258 108.64 -2.73633 107.891 -2.73633 106.966C-2.73633 106.042 -2.05258 105.292 -1.21323 105.292C-0.37388 105.292 0.309864 106.042 0.309864 106.966Z" fill="#CCCCCC"/>
<path d="M26.0146 109.286C26.0146 110.678 24.9866 111.805 23.7229 111.805C22.4591 111.805 21.4312 110.678 21.4312 109.286C21.4312 107.895 22.4591 106.768 23.7229 106.768C24.9866 106.768 26.0146 107.895 26.0146 109.286Z" fill="#CCCCCC"/>
<path d="M20.4215 67.1916C20.4215 67.9036 19.8934 68.4836 19.2474 68.4836C18.6014 68.4836 18.0732 67.9036 18.0732 67.1916C18.0732 66.4795 18.6014 65.8995 19.2474 65.8995C19.8934 65.8995 20.4215 66.4795 20.4215 67.1916Z" fill="#CCCCCC"/>
<path d="M16.2212 42.8737C16.2906 43.1562 16.6914 43.1562 16.7607 42.8737C17.7433 38.8776 18.8258 37.7952 22.8219 36.8126C23.1044 36.7432 23.1044 36.3424 22.8219 36.2731C18.8258 35.2905 17.7433 34.208 16.7607 30.2119C16.6914 29.9294 16.2906 29.9294 16.2212 30.2119C15.2386 34.208 14.1562 35.2905 10.16 36.2731C9.87764 36.3424 9.87764 36.7432 10.16 36.8126C14.1562 37.7952 15.2386 38.8776 16.2212 42.8737Z" fill="#BEBEBE"/>
<rect x="15.9878" y="41.0724" width="1.00658" height="4.02632" fill="#BEBEBE"/>
<path d="M16.3063 43.0856L14.981 46.6821H17.9522L16.7231 43.0856H16.3063Z" fill="#BEBEBE"/>
<path opacity="0.1" d="M230.36 184.752C198.185 185.062 151.276 138.462 148.663 90.7344C146.049 43.0071 185.669 3.41964 190.381 -0.000103988" stroke="url(#paint1_linear_1_14086)" stroke-width="11.7962"/>
<path d="M138.46 101.551H193.695V25.7421H138.46V101.551Z" fill="#E0E0E0"/>
<path d="M136.193 101.551H194.064V25.7421H136.193V101.551Z" fill="#F0F0F0"/>
<path d="M139.305 97.9438H191.069V28.2422H139.305V97.9438Z" fill="#E0E0E0"/>
<path d="M184.978 40.2971C185.016 40.4537 185.238 40.4537 185.277 40.2971C185.822 38.0819 186.422 37.4818 188.637 36.9371C188.794 36.8987 188.794 36.6765 188.637 36.6381C186.422 36.0934 185.822 35.4933 185.277 33.2781C185.238 33.1215 185.016 33.1215 184.978 33.2781C184.433 35.4933 183.833 36.0934 181.618 36.6381C181.461 36.6765 181.461 36.8987 181.618 36.9371C183.833 37.4818 184.433 38.0819 184.978 40.2971Z" fill="white"/>
<path d="M156.998 94.1831C157.037 94.3397 157.259 94.3397 157.297 94.1831C157.842 91.9679 158.442 91.3678 160.657 90.8231C160.814 90.7847 160.814 90.5625 160.657 90.5241C158.442 89.9794 157.842 89.3793 157.297 87.1641C157.259 87.0075 157.037 87.0075 156.998 87.1641C156.454 89.3793 155.854 89.9794 153.638 90.5241C153.482 90.5625 153.482 90.7847 153.638 90.8231C155.854 91.3678 156.454 91.9679 156.998 94.1831Z" fill="white"/>
<path d="M179.343 50.7101C179.365 50.7996 179.491 50.7996 179.513 50.7101C179.825 49.4443 180.168 49.1014 181.433 48.7901C181.523 48.7682 181.523 48.6412 181.433 48.6192C180.168 48.308 179.825 47.9651 179.513 46.6993C179.491 46.6098 179.365 46.6098 179.343 46.6993C179.031 47.9651 178.688 48.308 177.423 48.6192C177.333 48.6412 177.333 48.7682 177.423 48.7901C178.688 49.1014 179.031 49.4443 179.343 50.7101Z" fill="white"/>
<path d="M184.524 65.2179C184.546 65.3074 184.673 65.3074 184.695 65.2179C185.006 63.9521 185.349 63.6092 186.615 63.2979C186.704 63.276 186.704 63.149 186.615 63.127C185.349 62.8158 185.006 62.4729 184.695 61.2071C184.673 61.1176 184.546 61.1176 184.524 61.2071C184.212 62.4729 183.87 62.8158 182.604 63.127C182.514 63.149 182.514 63.276 182.604 63.2979C183.87 63.6092 184.212 63.9521 184.524 65.2179Z" fill="white"/>
<path d="M167.943 61.0728C167.965 61.1623 168.092 61.1623 168.114 61.0728C168.425 59.8069 168.768 59.4641 170.034 59.1528C170.124 59.1308 170.124 59.0039 170.034 58.9819C168.768 58.6706 168.425 58.3278 168.114 57.0619C168.092 56.9724 167.965 56.9724 167.943 57.0619C167.632 58.3278 167.289 58.6706 166.023 58.9819C165.934 59.0039 165.934 59.1308 166.023 59.1528C167.289 59.4641 167.632 59.8069 167.943 61.0728Z" fill="white"/>
<path d="M182.991 79.7425C183.007 79.8096 183.102 79.8096 183.119 79.7425C183.352 78.7931 183.61 78.536 184.559 78.3025C184.626 78.286 184.626 78.1908 184.559 78.1744C183.61 77.9409 183.352 77.6837 183.119 76.7344C183.102 76.6673 183.007 76.6673 182.991 76.7344C182.757 77.6837 182.5 77.9409 181.551 78.1744C181.484 78.1908 181.484 78.286 181.551 78.3025C182.5 78.536 182.757 78.7931 182.991 79.7425Z" fill="white"/>
<path d="M139.305 97.9438H141.256V28.2422H139.305V97.9438Z" fill="#E0E0E0"/>
<path d="M141.047 71.9381V73.8896H191.243V71.9381H141.047Z" fill="#E0E0E0"/>
<path d="M139.305 71.943H192.118V68.6662H139.305V71.943Z" fill="#F0F0F0"/>
<path d="M162.48 47.6849C162.48 47.9713 162.252 48.1995 161.966 48.1995C161.679 48.1995 161.451 47.9713 161.451 47.6849C161.451 47.3985 161.679 47.1703 161.966 47.1703C162.252 47.1703 162.48 47.3985 162.48 47.6849Z" fill="#FAFAFA"/>
<path d="M147.183 36.9028C147.183 38.2573 146.086 39.3544 144.732 39.3544C143.377 39.3544 142.28 38.2573 142.28 36.9028C142.28 35.5484 143.377 34.4513 144.732 34.4513C146.086 34.4513 147.183 35.5484 147.183 36.9028Z" fill="#FAFAFA"/>
<path d="M151.252 55.7821C151.252 56.3549 150.79 56.8161 150.218 56.8161C149.645 56.8161 149.184 56.3549 149.184 55.7821C149.184 55.2092 149.645 54.748 150.218 54.748C150.79 54.748 151.252 55.2092 151.252 55.7821Z" fill="#FAFAFA"/>
<path d="M158.509 78.3315C158.509 78.9771 157.985 79.4966 157.344 79.4966C156.703 79.4966 156.179 78.9723 156.179 78.3315C156.179 77.6907 156.703 77.1664 157.344 77.1664C157.985 77.1664 158.509 77.6907 158.509 78.3315Z" fill="#FAFAFA"/>
<path d="M171.903 37.6211C171.121 39.7474 169.354 41.5533 167.073 42.2961C163.49 43.4563 159.975 41.5388 159.228 38.0144C158.631 35.2133 159.966 32.2423 162.34 30.5626C161.883 31.7714 161.757 33.0918 162.029 34.3686C162.776 37.8881 166.291 39.8008 169.874 38.6455C170.612 38.4076 171.296 38.0532 171.903 37.6211Z" fill="#FAFAFA"/>
<path d="M249.33 176.113H-18.7666V176.247H249.33V176.113Z" fill="#E6E6E6"/>
<path d="M48.1611 184.225H30.4023V184.359H48.1611V184.225Z" fill="#E6E6E6"/>
<path d="M24.7832 184.225H14.4937V184.359H24.7832V184.225Z" fill="#E6E6E6"/>
<path d="M94.1289 186.198H83.8394V186.332H94.1289V186.198Z" fill="#E6E6E6"/>
<path d="M147.78 189.19H124.622V189.324H147.78V189.19Z" fill="#E6E6E6"/>
<path d="M119.85 189.19H116.456V189.324H119.85V189.19Z" fill="#E6E6E6"/>
<path d="M224.316 186.198H174.086V186.332H224.316V186.198Z" fill="#E6E6E6"/>
<path d="M108.317 157.56H4.77797C3.08896 157.56 1.71631 156.188 1.71631 154.499V8.95973C1.71631 7.27073 3.08896 5.89807 4.77797 5.89807H108.317C110.006 5.89807 111.379 7.27073 111.379 8.95973V154.499C111.379 156.188 110.006 157.56 108.317 157.56ZM4.77797 6.03212C3.16403 6.03212 1.85036 7.34579 1.85036 8.95973V154.499C1.85036 156.113 3.16403 157.426 4.77797 157.426H108.317C109.931 157.426 111.244 156.113 111.244 154.499V8.95973C111.244 7.34579 109.931 6.03212 108.317 6.03212H4.77797Z" fill="#E6E6E6"/>
<path d="M224.295 157.56H120.756C119.067 157.56 117.695 156.188 117.695 154.499V8.95973C117.695 7.27073 119.067 5.89807 120.756 5.89807H224.295C225.984 5.89807 227.357 7.27073 227.357 8.95973V154.499C227.357 156.188 225.984 157.56 224.295 157.56ZM120.756 6.03212C119.143 6.03212 117.829 7.34579 117.829 8.95973V154.499C117.829 156.113 119.143 157.426 120.756 157.426H224.295C225.909 157.426 227.223 156.113 227.223 154.499V8.95973C227.223 7.34579 225.909 6.03212 224.295 6.03212H120.756Z" fill="#E6E6E6"/>
<path d="M70.2413 203.217C152.566 203.217 219.303 199.256 219.303 194.37C219.303 189.484 152.566 185.523 70.2413 185.523C-12.0831 185.523 -78.8203 189.484 -78.8203 194.37C-78.8203 199.256 -12.0831 203.217 70.2413 203.217Z" fill="#F5F5F5"/>
<path d="M128.476 18.7667H124.643V19.3847H128.476V18.7667Z" fill="#214FE2"/>
<path d="M178.106 43.2222L177.642 53.5188L178.259 53.5466L178.723 43.2501L178.106 43.2222Z" fill="#214FE2"/>
<path d="M176.443 31.9849C176.697 26.2925 172.151 21.5385 166.453 21.5385H115.679C110.33 21.5385 105.928 25.7481 105.689 31.092L99.9956 158.51C99.7412 164.202 104.288 168.956 109.986 168.956H160.759C166.108 168.956 170.51 164.747 170.749 159.403L176.443 31.9849Z" fill="url(#paint2_linear_1_14086)"/>
<path opacity="0.56" d="M174.331 34.0067C174.585 28.3143 170.039 23.5603 164.341 23.5603H113.567C108.218 23.5603 103.816 27.77 103.577 33.1139L97.8838 160.532C97.6294 166.224 102.176 170.978 107.874 170.978H158.647C163.996 170.978 168.398 166.769 168.637 161.425L174.331 34.0067Z" fill="#FAFAFA"/>
<path opacity="0.07" d="M172.219 36.029C172.473 30.3364 167.927 25.5822 162.229 25.5822H111.455C106.106 25.5822 101.704 29.7916 101.465 35.1353L95.7666 162.553C95.512 168.246 100.058 173 105.757 173H156.53C161.879 173 166.281 168.791 166.52 163.447L172.219 36.029Z" fill="#214FE2"/>
<path d="M121.292 78.8095V79.4772H122.08C122.265 79.4772 122.378 79.457 122.418 79.4168C122.512 79.3552 122.559 79.264 122.559 79.1433C122.559 79.0146 122.512 78.9235 122.418 78.8699C122.346 78.8296 122.229 78.8095 122.068 78.8095H121.292ZM121.292 77.7075V78.3028H121.956C122.154 78.3028 122.287 78.2746 122.354 78.2183C122.416 78.1674 122.446 78.0923 122.446 77.9931C122.446 77.8992 122.409 77.8242 122.334 77.7679C122.278 77.7276 122.165 77.7075 121.996 77.7075H121.292ZM120.552 77.1847H122.177C122.539 77.1847 122.791 77.233 122.933 77.3295C123.115 77.4555 123.207 77.6445 123.207 77.8966C123.207 78.0843 123.15 78.2317 123.038 78.339C122.992 78.3792 122.938 78.414 122.877 78.4435C122.815 78.473 122.766 78.4918 122.728 78.4998C122.69 78.5079 122.665 78.5119 122.652 78.5119V78.528C122.879 78.5494 123.056 78.6232 123.182 78.7492C123.298 78.8645 123.355 79.024 123.355 79.2278C123.355 79.4664 123.286 79.6501 123.146 79.7788C122.985 79.9263 122.672 80 122.205 80H120.552V77.1847ZM125.399 79.0911V79.0589C125.362 79.0911 125.319 79.1139 125.271 79.1273C125.225 79.138 125.146 79.1487 125.033 79.1594L124.885 79.1755C124.748 79.1889 124.653 79.2131 124.599 79.2479C124.535 79.2989 124.503 79.3565 124.503 79.4209C124.503 79.4932 124.531 79.5509 124.587 79.5938C124.641 79.6367 124.731 79.6581 124.857 79.6581C125.028 79.6581 125.161 79.6112 125.255 79.5174C125.351 79.4209 125.399 79.2787 125.399 79.0911ZM124.563 78.6165H123.847C123.847 78.4288 123.913 78.2693 124.044 78.1379C124.149 78.036 124.275 77.9676 124.422 77.9328C124.572 77.8979 124.756 77.8805 124.973 77.8805C125.448 77.8805 125.771 77.9703 125.942 78.1499C125.993 78.2036 126.032 78.2666 126.059 78.339C126.089 78.4114 126.105 78.4717 126.107 78.52C126.113 78.5682 126.115 78.6312 126.115 78.709V79.6179C126.115 79.7171 126.126 79.7989 126.148 79.8633C126.174 79.9088 126.212 79.9357 126.26 79.9437V80H125.488L125.444 79.7989H125.428C125.35 79.8981 125.244 79.9705 125.11 80.0161C124.987 80.0563 124.824 80.0764 124.623 80.0764C124.326 80.0764 124.114 80.0335 123.988 79.9477C123.83 79.8351 123.751 79.6729 123.751 79.4611C123.751 79.2922 123.801 79.1581 123.903 79.0589C123.962 79.0026 124.044 78.957 124.149 78.9221C124.253 78.8873 124.334 78.8658 124.39 78.8578C124.449 78.8497 124.536 78.8404 124.651 78.8296L124.973 78.8015C125.056 78.7934 125.114 78.7881 125.146 78.7854C125.181 78.7827 125.218 78.776 125.259 78.7653C125.299 78.7519 125.328 78.7345 125.347 78.713C125.379 78.6808 125.395 78.6366 125.395 78.5803C125.395 78.4945 125.353 78.4275 125.267 78.3792C125.202 78.3417 125.109 78.3229 124.985 78.3229C124.851 78.3229 124.749 78.347 124.68 78.3953C124.604 78.4543 124.566 78.528 124.563 78.6165ZM127.362 79.5254H128.167V77.9569H128.874V79.5254H129.679V77.9569H130.387V80H126.654V77.9569H127.362V79.5254ZM131.528 78.7492H132.658C132.647 78.6098 132.599 78.5052 132.513 78.4355C132.422 78.3551 132.283 78.3148 132.095 78.3148C131.926 78.3148 131.793 78.3524 131.697 78.4275C131.595 78.5106 131.538 78.6178 131.528 78.7492ZM132.646 79.3324H133.358C133.326 79.638 133.178 79.8499 132.915 79.9678C132.749 80.0402 132.493 80.0764 132.147 80.0764C131.884 80.0764 131.67 80.0563 131.504 80.0161C131.337 79.9759 131.194 79.8954 131.073 79.7748C130.886 79.5871 130.792 79.3324 130.792 79.0106C130.792 78.6647 130.894 78.3939 131.097 78.1982C131.32 77.9864 131.651 77.8805 132.091 77.8805C132.549 77.8805 132.888 77.9904 133.108 78.2103C133.293 78.3953 133.386 78.6714 133.386 79.0388V79.1112H131.516V79.1232C131.516 79.2787 131.56 79.4007 131.648 79.4892C131.74 79.5804 131.89 79.626 132.099 79.626C132.265 79.626 132.387 79.6072 132.465 79.5697C132.561 79.5241 132.622 79.445 132.646 79.3324ZM135.433 79.1675V80H134.726V77.9569H135.433V78.6929H136.403V77.9569H137.11V80H136.403V79.1675H135.433ZM139.289 78.4918C139.187 78.3899 139.043 78.339 138.855 78.339C138.667 78.339 138.523 78.3899 138.421 78.4918C138.308 78.6044 138.252 78.7666 138.252 78.9784C138.252 79.1903 138.308 79.3525 138.421 79.4651C138.523 79.567 138.667 79.6179 138.855 79.6179C139.043 79.6179 139.187 79.567 139.289 79.4651C139.402 79.3525 139.458 79.1903 139.458 78.9784C139.458 78.7666 139.402 78.6044 139.289 78.4918ZM139.836 78.1499C140.072 78.3403 140.19 78.6165 140.19 78.9784C140.19 79.3404 140.072 79.6166 139.836 79.807C139.614 79.9866 139.287 80.0764 138.855 80.0764C138.423 80.0764 138.096 79.9866 137.874 79.807C137.638 79.6166 137.52 79.3404 137.52 78.9784C137.52 78.6165 137.638 78.3403 137.874 78.1499C138.102 77.9703 138.429 77.8805 138.855 77.8805C139.281 77.8805 139.608 77.9703 139.836 78.1499ZM141.884 80L141.273 78.5682H141.241L141.261 78.7733V80H140.593V77.9569H141.486L142.11 79.4088L142.729 77.9569H143.622V80H142.954V78.7733L142.974 78.5682H142.946L142.331 80H141.884ZM144.768 78.7492H145.898C145.887 78.6098 145.839 78.5052 145.753 78.4355C145.662 78.3551 145.522 78.3148 145.335 78.3148C145.166 78.3148 145.033 78.3524 144.937 78.4275C144.835 78.5106 144.778 78.6178 144.768 78.7492ZM145.886 79.3324H146.598C146.565 79.638 146.418 79.8499 146.155 79.9678C145.989 80.0402 145.733 80.0764 145.387 80.0764C145.124 80.0764 144.91 80.0563 144.744 80.0161C144.577 79.9759 144.434 79.8954 144.313 79.7748C144.126 79.5871 144.032 79.3324 144.032 79.0106C144.032 78.6647 144.134 78.3939 144.337 78.1982C144.56 77.9864 144.891 77.8805 145.331 77.8805C145.789 77.8805 146.128 77.9904 146.348 78.2103C146.533 78.3953 146.626 78.6714 146.626 79.0388V79.1112H144.756V79.1232C144.756 79.2787 144.8 79.4007 144.888 79.4892C144.979 79.5804 145.13 79.626 145.339 79.626C145.505 79.626 145.627 79.6072 145.705 79.5697C145.801 79.5241 145.862 79.445 145.886 79.3324ZM148.282 78.343C148.121 78.343 147.989 78.3953 147.887 78.4998C147.772 78.6285 147.715 78.7908 147.715 78.9865C147.715 79.1903 147.768 79.3471 147.875 79.457C147.98 79.5616 148.119 79.6139 148.294 79.6139C148.471 79.6139 148.606 79.5589 148.7 79.449C148.799 79.3364 148.849 79.1782 148.849 78.9744C148.849 78.7814 148.799 78.6272 148.7 78.5119C148.595 78.3993 148.456 78.343 148.282 78.343ZM147.027 77.9569H147.702V78.2143H147.715C147.787 78.1178 147.875 78.0427 147.98 77.9891C148.111 77.9247 148.28 77.8925 148.487 77.8925C148.827 77.8925 149.093 77.9783 149.283 78.1499C149.481 78.3403 149.581 78.6111 149.581 78.9624C149.581 79.3297 149.481 79.6099 149.283 79.8029C149.173 79.9129 149.052 79.9839 148.921 80.0161C148.792 80.0483 148.645 80.0643 148.479 80.0643C148.27 80.0643 148.113 80.0416 148.008 79.996C147.901 79.9531 147.81 79.882 147.735 79.7828V80.744H147.027V77.9569ZM150.165 80V79.3404H150.905V80H150.165ZM150.165 78.6165V77.9569H150.905V78.6165H150.165Z" fill="white"/>
<path d="M165.317 87.9436C165.392 86.2589 164.046 84.8524 162.359 84.8524H109.325C107.74 84.8524 106.437 86.0998 106.367 87.6827L106.136 92.9087C106.062 94.5935 107.408 96 109.094 96H162.129C163.713 96 165.017 94.7526 165.087 93.1697L165.317 87.9436Z" fill="#F5F5F5"/>
<path d="M110.409 90.408H111.297V89.52H111.685V90.408H112.573V90.796H111.685V91.684H111.297V90.796H110.409V90.408ZM113.059 89.744V89.2H115.487V89.66C115.295 89.8307 115.13 90.0133 114.991 90.208C114.853 90.4027 114.746 90.5827 114.671 90.748C114.495 91.1187 114.394 91.536 114.367 92H113.579C113.638 91.48 113.771 91.0413 113.979 90.684C114.171 90.3347 114.423 90.0213 114.735 89.744H113.059Z" fill="#214FE2"/>
<path opacity="0.47" d="M164.716 105.266C164.869 102.957 163.038 101 160.724 101H110.609C108.503 101 106.758 102.633 106.618 104.734L106.284 109.734C106.131 112.043 107.962 114 110.276 114H160.391C162.497 114 164.242 112.367 164.382 110.266L164.716 105.266Z" fill="white"/>
<path d="M151.412 53.4494C151.262 56.8271 150.038 59.9468 148.076 62.4785C145.113 66.3182 140.469 68.8139 135.358 68.8139C130.246 68.8139 125.83 66.3182 123.215 62.4785C121.481 59.9468 120.533 56.8271 120.683 53.4494C121.061 44.9602 128.248 38.0789 136.731 38.0789C145.215 38.0789 151.796 44.9602 151.412 53.4494Z" fill="white"/>
<path d="M153.995 41C153.943 42.1013 153.547 43.1145 152.909 43.9369C151.947 45.185 150.435 46 148.776 46C147.118 46 145.679 45.185 144.828 43.9369C144.262 43.1145 143.954 42.1013 144.006 41C144.13 38.2394 146.464 36 149.224 36C151.984 36 154.12 38.2394 153.995 41Z" fill="#214FE2"/>
<path d="M142.491 48.3079C142.335 51.7396 139.431 54.5233 136 54.5233C132.568 54.5233 129.91 51.7396 130.06 48.3079C130.216 44.8763 133.12 42.0925 136.552 42.0925C139.983 42.0925 142.641 44.8763 142.491 48.3079Z" fill="#214FE2"/>
<path d="M148.071 62.4786C145.107 66.3182 140.463 68.814 135.352 68.814C130.24 68.814 125.825 66.3182 123.209 62.4786C126.125 59.5749 130.738 57.691 135.85 57.691C140.961 57.691 145.413 59.5749 148.071 62.4786Z" fill="#214FE2"/>
<path opacity="0.1" d="M142.491 48.3079C142.335 51.7396 139.431 54.5233 136 54.5233C132.568 54.5233 129.91 51.7396 130.06 48.3079C130.216 44.8763 133.12 42.0925 136.552 42.0925C139.983 42.0925 142.641 44.8763 142.491 48.3079Z" fill="white"/>
<path opacity="0.1" d="M148.071 62.4786C145.107 66.3182 140.463 68.814 135.352 68.814C130.24 68.814 125.825 66.3182 123.209 62.4786C126.125 59.5749 130.738 57.691 135.85 57.691C140.961 57.691 145.413 59.5749 148.071 62.4786Z" fill="white"/>
<path d="M64.6916 85.721C64.1822 86.8363 63.6513 88.0588 63.1795 89.2545C62.7076 90.4609 62.2358 91.6674 61.8229 92.8953C61.024 95.3457 60.2733 97.8175 59.9087 100.295L59.7854 101.083C59.7747 101.179 59.7854 101.313 59.8229 101.485C59.9034 101.828 60.1125 102.284 60.4127 102.729C61.0186 103.635 61.8712 104.552 62.7934 105.399C63.7157 106.263 64.713 107.088 65.7532 107.876C66.7827 108.67 67.8658 109.442 68.9275 110.166L67.9302 112.048C65.3779 110.933 63.0026 109.598 60.7023 107.925C59.5709 107.061 58.4556 106.134 57.4637 104.879C56.9757 104.246 56.4985 103.533 56.1822 102.59C56.032 102.118 55.9248 101.587 55.9248 101.013C55.9248 100.879 55.9355 100.697 55.9463 100.606L55.9731 100.338L56.0267 99.8068C56.3162 96.965 56.9489 94.2304 57.78 91.5816C58.1983 90.2572 58.6433 88.9489 59.1527 87.662C59.6728 86.3698 60.1875 85.1258 60.8363 83.8229L64.6969 85.721H64.6916Z" fill="#EEC1BB"/>
<path d="M68.177 109.844L71.9679 107.925L70.9866 112.091C70.9866 112.091 68.3861 112.82 67.1743 111.555L68.177 109.85V109.844Z" fill="#EEC1BB"/>
<path d="M75.4367 108.606L74.4287 112.048L70.9863 112.086L71.9676 107.919L75.4367 108.606Z" fill="#EEC1BB"/>
<path d="M80.7881 65.6459C80.7881 65.6459 81.1152 66.8523 81.6353 67.7638C81.1849 68.1821 80.7881 68.0373 80.7881 68.0373V65.6459Z" fill="#E89691"/>
<path d="M80.6756 65.6781C80.8977 65.6781 81.0777 65.402 81.0777 65.0614C81.0777 64.7209 80.8977 64.4448 80.6756 64.4448C80.4535 64.4448 80.2734 64.7209 80.2734 65.0614C80.2734 65.402 80.4535 65.6781 80.6756 65.6781Z" fill="#263238"/>
<path d="M80.5791 64.4663L81.3941 64.2303C81.3941 64.2303 80.9759 64.8684 80.5791 64.4663Z" fill="#263238"/>
<path d="M70.3166 69.5762C70.8045 72.0748 71.2924 76.6486 69.5498 78.3108C69.5498 78.3108 70.2308 80.8416 74.8688 80.8416C79.968 80.8416 77.3085 78.3108 77.3085 78.3108C74.5257 77.6459 74.5954 75.5815 75.0833 73.6405L70.3219 69.5762H70.3166Z" fill="#EEC1BB"/>
<path d="M68.9598 63.898C69.2172 68.0642 69.2332 69.8336 71.3405 71.9731C74.504 75.1902 79.571 73.9623 80.563 69.8068C81.4584 66.0642 80.8901 59.8765 76.8096 58.2197C72.7936 56.5843 68.7024 59.7318 68.9598 63.898Z" fill="#EEC1BB"/>
<path d="M69.3724 59.1849C67.2812 59.9463 64.493 59.3779 65.5868 65.8283C66.745 72.6594 64.9648 74.9061 64.9648 74.9061C64.9648 74.9061 72.8951 76.5951 80.9917 74.8042C80.9917 74.8042 78.5198 70.4825 79.2115 67.3297C80.0962 63.3082 79.3938 61.8176 79.3938 61.8176C79.3938 61.8176 72.3053 58.1125 69.367 59.1849H69.3724Z" fill="#263238"/>
<path d="M78.22 66.0696C78.2093 66.8953 78.4988 67.7264 78.8742 68.3055C79.4372 69.1741 80.1074 68.8202 80.279 67.9194C80.4291 67.1098 80.3165 65.6781 79.5927 65.1205C78.8795 64.5736 78.2254 65.1205 78.22 66.0696Z" fill="#EEC1BB"/>
<path d="M67.5548 59.9141C66.9543 58.2304 69.8176 55.6352 75.8765 56.713C81.9355 57.7907 82.1983 62.8309 82.1983 62.8309L80.9704 61.3779L81.024 62.9114L74.7988 64.1071L67.5495 59.9194L67.5548 59.9141Z" fill="#263238"/>
<path d="M68.0696 78.595C67.9838 78.0803 68.3324 77.5923 68.8471 77.5119C70.7345 77.2009 75.0187 76.5682 77.1795 76.8685C78.7828 77.0883 79.2063 78.0267 79.2761 78.7934C79.3243 79.3618 78.8578 79.839 78.2895 79.8122L68.9651 79.3886C68.5147 79.3671 68.1447 79.0347 68.075 78.595H68.0696Z" fill="#214FE2"/>
<path d="M73.4585 172.273L76.9169 174.67L82.7025 166.831L79.244 164.429L73.4585 172.273Z" fill="#EEC1BB"/>
<path d="M65.394 172.112L69.0455 174.198L74.1662 165.903L70.5147 163.823L65.394 172.112Z" fill="#EEC1BB"/>
<path d="M82.697 166.831L79.7158 170.874L76.2573 168.472L79.2439 164.429L82.697 166.831Z" fill="#CF6F64"/>
<path d="M70.5092 163.823L74.166 165.903L71.5279 170.177L67.8711 168.096L70.5092 163.823Z" fill="#CF6F64"/>
<path d="M76.3751 104.783C76.3751 104.783 89.8765 121.801 87.3456 138.07C85.2974 151.212 73.4529 169.008 73.4529 169.008L67.8818 166.241C67.8818 166.241 73.9354 154.413 77.9086 141.877C79.5762 136.617 78.8631 130.826 75.7478 126.273C68.906 116.284 57.9515 122.225 65.3242 104.783H76.3805H76.3751Z" fill="#214FE2"/>
<path d="M82.4022 104.783C82.4022 104.783 98.6595 126.166 99.1153 138.992C99.496 149.737 81.4048 170.493 81.4048 170.493L76.1502 167.094C76.1502 167.094 86.7292 152.338 89.3941 140.279C88.3807 128.338 66.5845 104.788 66.5845 104.788H82.4022V104.783Z" fill="#214FE2"/>
<path d="M62.2896 79.2707C60.547 79.6835 58.8848 85.9999 58.8848 85.9999L65.673 90.5307C65.673 90.5307 67.9357 85.5334 67.1475 83.3457C66.3271 81.0669 64.488 78.7452 62.2896 79.2653V79.2707Z" fill="#214FE2"/>
<path d="M84.4129 79.3886C84.4129 79.3886 86.4182 80.0964 82.4022 104.777H65.319C65.6032 97.8229 65.6139 93.5387 62.2896 79.2653C62.2896 79.2653 65.8713 78.4878 69.5442 78.3108C72.4182 78.1714 74.7721 78.0803 77.303 78.3108C80.6327 78.6165 84.4129 79.3886 84.4129 79.3886Z" fill="#214FE2"/>
<path d="M86.1502 83.3082C86.5363 84.3806 86.9492 85.5334 87.3728 86.6487C87.7803 87.7747 88.2092 88.9007 88.6435 90.0213L89.9572 93.3886L90.2896 94.2304L90.4559 94.6487L90.5417 94.8578C90.5577 94.8953 90.5524 94.89 90.547 94.89C90.5256 94.8792 90.5041 94.772 90.1717 94.5575C90.0108 94.4556 89.7374 94.3591 89.4693 94.3538C89.2065 94.343 88.9921 94.4074 88.8741 94.461C88.6328 94.579 88.6274 94.6272 88.6328 94.6165C88.6489 94.6111 88.6971 94.5629 88.7508 94.4932C88.9867 94.2144 89.2655 93.7264 89.5175 93.2438C89.7695 92.7505 90.0108 92.2251 90.2521 91.6942C90.724 90.6272 91.1583 89.5119 91.598 88.3913C92.0323 87.2707 92.4398 86.1339 92.8473 84.9918L94.0698 81.5709L96.1341 82.091C95.7266 84.5361 95.1958 86.9382 94.5685 89.3404C94.2628 90.5468 93.9036 91.7425 93.4961 92.9489C93.2923 93.5548 93.0671 94.1554 92.8044 94.772C92.5309 95.394 92.2628 95.9999 91.7856 96.713C91.6623 96.8953 91.5175 97.083 91.3191 97.2921C91.11 97.4959 90.8634 97.7479 90.3433 97.9838C90.0805 98.0964 89.7213 98.1929 89.303 98.1768C88.8848 98.1661 88.4666 98.016 88.1717 97.8337C87.5765 97.453 87.3728 97.0937 87.1958 96.8203C87.1154 96.6862 87.0457 96.5414 86.9974 96.4449L86.8955 96.2358L86.6918 95.8176L86.2843 94.9865C85.7534 93.8712 85.2333 92.7505 84.7454 91.6138C84.2575 90.4771 83.7856 89.335 83.3245 88.1822C82.8848 87.0133 82.4505 85.8819 82.0591 84.6379L86.1502 83.3028V83.3082Z" fill="#EEC1BB"/>
<path d="M84.413 79.3886C86.4666 79.8766 88.7722 85.9463 88.7722 85.9463L82.6704 91.1473C82.6704 91.1473 78.7133 84.5307 79.5175 82.3484C80.3486 80.075 81.732 78.7506 84.413 79.394V79.3886Z" fill="#214FE2"/>
<path d="M95.0243 79.6888L97.1638 77.8979L98.6544 80.2197L97.5552 82.1607C97.5552 82.1607 95.8072 83.7585 94.2576 82.9489C93.7589 81.8175 94.0699 80.4878 95.019 79.6942L95.0243 79.6888Z" fill="#EEC1BB"/>
<path d="M101.051 77.9033L100.89 78.4824L97.496 79.0561L97.1636 77.8979L101.051 77.9033Z" fill="#EEC1BB"/>
<path d="M81.8445 170.767L75.7212 166.804L76.8204 164.901L83.6997 169.131L81.8445 170.767Z" fill="#214FE2"/>
<path d="M71.4314 173.914C70.9435 173.914 70.3054 173.603 69.914 173.389C69.8765 173.367 69.8604 173.33 69.8658 173.292C69.8658 173.254 69.8979 173.217 69.9355 173.206C70.1017 173.153 71.5548 172.708 71.9623 173.056C72.0266 173.11 72.1017 173.212 72.0749 173.378C72.0427 173.603 71.9408 173.759 71.7746 173.844C71.6781 173.893 71.5601 173.914 71.4314 173.914ZM70.225 173.33C70.8899 173.667 71.4261 173.796 71.6834 173.667C71.7907 173.614 71.855 173.512 71.8765 173.356C71.8872 173.271 71.8604 173.233 71.8282 173.212C71.6137 173.029 70.8095 173.169 70.2196 173.335L70.225 173.33Z" fill="#263238"/>
<path d="M69.9675 173.405C69.9407 173.405 69.9139 173.394 69.8978 173.372C69.871 173.346 69.8656 173.308 69.871 173.276C69.8871 173.228 70.2195 172.064 70.7718 171.796C70.9166 171.726 71.0667 171.721 71.2115 171.78C71.4421 171.876 71.4635 172.048 71.4581 172.139C71.4206 172.622 70.4394 173.287 69.989 173.399C69.9836 173.399 69.9729 173.399 69.9675 173.399V173.405ZM71.0077 171.941C70.9595 171.941 70.9112 171.952 70.8576 171.978C70.5305 172.139 70.2517 172.767 70.123 173.147C70.5949 172.949 71.2383 172.423 71.2597 172.128C71.2597 172.08 71.2544 172.021 71.1364 171.968C71.0935 171.952 71.0506 171.941 71.0077 171.941Z" fill="#263238"/>
<path d="M79.0941 176.23C78.4882 176.23 77.6463 175.453 77.1852 174.976C77.153 174.944 77.1477 174.901 77.1691 174.863C77.1906 174.826 77.2388 174.804 77.271 174.81C77.4855 174.836 79.3461 175.088 79.6142 175.614C79.6624 175.716 79.6624 175.823 79.6034 175.93C79.5069 176.102 79.3621 176.204 79.1798 176.225C79.153 176.225 79.1262 176.225 79.0994 176.225L79.0941 176.23ZM77.5391 175.051C78.2147 175.71 78.8099 176.075 79.1477 176.027C79.2656 176.011 79.3568 175.946 79.4211 175.828C79.4479 175.785 79.4479 175.742 79.4265 175.705C79.2817 175.421 78.2898 175.169 77.5337 175.051H77.5391Z" fill="#263238"/>
<path d="M77.5979 175.035C77.4585 175.035 77.3351 175.024 77.2386 175.008C77.2065 175.003 77.1743 174.976 77.1636 174.944C77.1528 174.911 77.1582 174.874 77.1797 174.847C77.2118 174.809 77.9357 173.935 78.622 173.876C78.8365 173.86 79.0188 173.919 79.1743 174.048C79.3834 174.23 79.3727 174.391 79.3191 174.493C79.1475 174.852 78.2199 175.035 77.5979 175.035ZM77.4585 174.831C78.059 174.863 79.0134 174.665 79.1421 174.402C79.1528 174.381 79.185 174.316 79.0456 174.193C78.9276 174.096 78.7936 174.053 78.6435 174.064C78.1931 174.102 77.689 174.579 77.4638 174.826L77.4585 174.831Z" fill="#263238"/>
<path d="M70.1123 172.842L65.5654 171.555C65.3992 171.507 65.2329 171.587 65.1632 171.743L63.6297 175.196C63.4689 175.555 63.6941 176 64.0748 176.096C65.6673 176.515 66.4608 176.638 68.4608 177.206C69.6887 177.555 71.4528 178.188 73.1525 178.67C74.8147 179.142 75.4152 177.496 74.7504 177.142C71.7691 175.56 71.5332 174.482 70.7182 173.281C70.5734 173.067 70.3536 172.911 70.1123 172.842Z" fill="#214FE2"/>
<path d="M77.3082 174.354L73.4261 171.657C73.2867 171.56 73.1044 171.576 72.9865 171.7L70.4127 174.466C70.1446 174.751 70.209 175.244 70.5414 175.464C71.9087 176.381 72.6165 176.756 74.3269 177.941C75.3779 178.67 77.4744 180.289 78.9221 181.292C80.343 182.279 81.4476 180.917 80.9328 180.37C78.6272 177.909 78.1232 176.364 77.7425 174.965C77.6728 174.713 77.5173 174.493 77.3135 174.354H77.3082Z" fill="#214FE2"/>
<path d="M74.1609 169.362L67.1636 165.882L67.8874 163.989L75.362 167.651L74.1609 169.362Z" fill="#214FE2"/>
<path d="M65.0615 103.78L64.4717 105.308C64.4127 105.426 64.5521 105.549 64.7505 105.549H82.4877C82.6432 105.549 82.7719 105.474 82.7773 105.378L82.9328 103.85C82.9435 103.742 82.8095 103.657 82.6432 103.657H65.3403C65.2116 103.657 65.099 103.71 65.0615 103.785V103.78Z" fill="#214FE2"/>
<path opacity="0.4" d="M65.0615 103.78L64.4717 105.308C64.4127 105.426 64.5521 105.549 64.7505 105.549H82.4877C82.6432 105.549 82.7719 105.474 82.7773 105.378L82.9328 103.85C82.9435 103.742 82.8095 103.657 82.6432 103.657H65.3403C65.2116 103.657 65.099 103.71 65.0615 103.785V103.78Z" fill="white"/>
<path d="M67.8552 105.71H67.3941C67.3029 105.71 67.2332 105.662 67.2386 105.603L67.4584 103.614C67.4638 103.555 67.5442 103.506 67.6353 103.506H68.0965C68.1876 103.506 68.2573 103.555 68.252 103.614L68.0321 105.603C68.0268 105.662 67.9463 105.71 67.8552 105.71Z" fill="#214FE2"/>
<path d="M78.7937 105.71H78.3325C78.2414 105.71 78.1717 105.662 78.177 105.603L78.3969 103.614C78.4023 103.555 78.4827 103.506 78.5738 103.506H79.035C79.1261 103.506 79.1958 103.555 79.1905 103.614L78.9706 105.603C78.9652 105.662 78.8848 105.71 78.7937 105.71Z" fill="#214FE2"/>
<g style="mix-blend-mode:multiply">
<path d="M67.4476 196.52C75.381 196.52 81.8122 196.054 81.8122 195.48C81.8122 194.905 75.381 194.439 67.4476 194.439C59.5143 194.439 53.083 194.905 53.083 195.48C53.083 196.054 59.5143 196.52 67.4476 196.52Z" fill="#F5F5F5"/>
</g>
<path d="M76.1981 194.011C73.6566 193.271 70.8577 192.322 69.1311 191.313C69.0829 191.287 69.0346 191.265 68.981 191.238V179.748H74.0909C74.9381 179.748 75.6191 179.061 75.6191 178.22C75.6191 177.378 74.9327 176.691 74.0909 176.691H68.981V124.241H65.9193V176.691H60.8094C59.9622 176.691 59.2813 177.378 59.2813 178.22C59.2813 179.061 59.9676 179.748 60.8094 179.748H65.9193V191.238C65.8711 191.265 65.8175 191.287 65.7692 191.313C64.0373 192.327 61.2437 193.276 58.7022 194.011C57.8657 194.252 58.0427 195.48 58.9113 195.48H75.989C76.8577 195.48 77.0346 194.252 76.1981 194.011Z" fill="#E0E0E0"/>
<path d="M76.9866 118.895H57.9196C56.3856 118.895 55.1421 120.139 55.1421 121.673V127.34C55.1421 128.874 56.3856 130.118 57.9196 130.118H76.9866C78.5206 130.118 79.7641 128.874 79.7641 127.34V121.673C79.7641 120.139 78.5206 118.895 76.9866 118.895Z" fill="#214FE2"/>
<path d="M57.7427 130.118V131.094C57.7427 131.898 58.6167 132.557 59.6891 132.557H75.2172C76.2896 132.557 77.1636 131.898 77.1636 131.094V130.118H57.7427Z" fill="#214FE2"/>
<path opacity="0.3" d="M57.7427 130.118V131.094C57.7427 131.898 58.6167 132.557 59.6891 132.557H75.2172C76.2896 132.557 77.1636 131.898 77.1636 131.094V130.118H57.7427Z" fill="white"/>
<rect x="164.75" y="5.36194" width="10.7239" height="10.7239" rx="2.14477" fill="#214FE2"/>
<rect x="154.424" y="9.65149" width="30.5264" height="30.0268" rx="15.0134" fill="#214FE2"/>
<path d="M181.379 22.0175C180.404 17.569 176.908 14.15 172.437 13.2467C165.685 11.8823 159.673 16.3441 158.526 22.5113C158.517 22.5619 158.552 22.6101 158.604 22.6166C158.647 22.6223 158.688 22.5946 158.699 22.552C159.973 17.7863 164.392 14.3038 169.6 14.4558C175.409 14.6253 180.099 19.3776 180.213 25.1781C180.214 25.2624 180.215 25.3462 180.214 25.4297C180.186 30.7782 175.495 34.6502 170.146 34.3666C168.436 34.276 167.015 33.7598 165.852 33.0115C165.811 32.9854 165.796 32.9099 165.83 32.8868C166.765 32.2418 168.242 31.4972 168.943 30.5803C168.972 30.5435 168.949 30.4893 168.903 30.4825C168.451 30.4164 168.005 30.3186 167.568 30.1902C167.274 30.1042 166.985 30.0038 166.701 29.8911C166.668 29.8779 166.661 29.828 166.69 29.8106C166.701 29.8044 166.711 29.7982 166.721 29.7913C167.884 29.0845 168.799 28.0293 169.41 26.7647C169.429 26.7254 169.402 26.6793 169.357 26.6768C169.017 26.6568 168.681 26.6132 168.35 26.5465C167.99 26.473 167.637 26.372 167.295 26.2442C167.272 26.2361 167.267 26.2019 167.288 26.1894C167.344 26.1564 167.4 26.1221 167.454 26.0872C168.572 25.3679 169.348 23.8989 169.685 22.3676C169.699 22.3052 169.787 22.3021 169.804 22.3638C170.254 23.9936 171.742 25.8298 173.567 26.3334C173.631 26.3515 173.641 26.4374 173.583 26.4699C173.247 26.6575 172.422 27.0588 171.747 27.1305C171.699 27.1355 171.676 27.1916 171.705 27.2297C172.521 28.2953 173.304 29.1268 174.955 29.6959C175.011 29.7152 175.023 29.7899 174.973 29.8229C174.684 30.0154 173.895 30.4719 172.915 30.5648C172.855 30.5703 172.837 30.6483 172.889 30.6789C173.542 31.1949 174.736 31.8842 176.074 31.9036C175.455 31.6542 174.859 31.3526 174.297 30.983C175.054 30.6171 175.761 30.1634 176.402 29.6342C176.431 29.6105 176.42 29.5601 176.385 29.5532C174.923 29.2553 173.597 28.5105 172.52 27.4484C173.257 27.1699 173.937 26.7841 174.537 26.3109C174.558 26.2948 174.55 26.2599 174.525 26.2548C172.281 25.8186 170.482 23.9893 169.918 21.6196C169.885 21.4788 169.855 21.3354 169.831 21.1908C169.823 21.1434 169.782 21.1079 169.733 21.1079C169.685 21.1079 169.644 21.1434 169.636 21.1908C169.197 23.7662 167.319 25.793 164.941 26.2555C164.917 26.2605 164.909 26.2948 164.929 26.3109C165.53 26.7841 166.21 27.1699 166.947 27.4484C165.87 28.5111 164.544 29.2559 163.081 29.5532C163.047 29.5606 163.036 29.6112 163.064 29.6348C163.707 30.1647 164.416 30.6196 165.176 30.9861C164.127 31.6711 162.965 32.1211 161.764 32.442C161.722 32.4533 161.709 32.533 161.743 32.5704C163.91 34.9177 166.695 36.33 169.734 36.33C170.064 36.33 170.391 36.3131 170.714 36.2808C170.717 36.2808 170.719 36.2808 170.721 36.2801C170.722 36.28 170.724 36.2798 170.725 36.2797C177.679 35.8537 182.987 29.3469 181.379 22.0175Z" fill="white"/>
<path d="M169.632 20.384C169.658 20.4903 169.809 20.4903 169.835 20.384C170.206 18.8798 170.614 18.4724 172.12 18.1025C172.227 18.0764 172.227 17.9255 172.12 17.8994C170.614 17.5295 170.206 17.1221 169.835 15.6179C169.809 15.5116 169.658 15.5116 169.632 15.6179C169.262 17.1221 168.853 17.5295 167.347 17.8994C167.24 17.9255 167.24 18.0764 167.347 18.1025C168.853 18.4724 169.262 18.8798 169.632 20.384Z" fill="white"/>
<path d="M159.438 24.0628C158.9 23.9308 158.755 23.7853 158.622 23.2481C158.613 23.2102 158.559 23.2102 158.55 23.2481C158.417 23.7853 158.272 23.9308 157.734 24.0628C157.696 24.0722 157.696 24.126 157.734 24.1354C158.272 24.2675 158.417 24.413 158.55 24.9501C158.559 24.9881 158.613 24.9881 158.622 24.9501C158.755 24.413 158.9 24.2675 159.438 24.1354C159.476 24.126 159.476 24.0722 159.438 24.0628Z" fill="white"/>
<rect x="168.365" y="-4.28955" width="3.21716" height="10.1877" fill="#214FE2"/>
</g>
<defs>
<linearGradient id="paint0_linear_1_14086" x1="25.3327" y1="-16.9848" x2="-10.28" y2="138.144" gradientUnits="userSpaceOnUse">
<stop stop-color="#01A6FF"/>
<stop offset="1" stop-color="#214FE2"/>
</linearGradient>
<linearGradient id="paint1_linear_1_14086" x1="186.255" y1="22.2075" x2="110.67" y2="67.4063" gradientUnits="userSpaceOnUse">
<stop stop-color="#01A6FF"/>
<stop offset="1" stop-color="#214FE2"/>
</linearGradient>
<linearGradient id="paint2_linear_1_14086" x1="138.219" y1="21.5385" x2="138.219" y2="168.956" gradientUnits="userSpaceOnUse">
<stop stop-color="#01A6FF"/>
<stop offset="1" stop-color="#214FE2"/>
</linearGradient>
<clipPath id="clip0_1_14086">
<rect width="200" height="200" rx="24" fill="white"/>
</clipPath>
</defs>
</svg>
