<svg width="100" height="100" viewBox="0 0 100 100" fill="none" xmlns="http://www.w3.org/2000/svg">
<g clip-path="url(#clip0_17178_137733)">
<path d="M41.2647 9.20355L49.8787 17.6965M58.4927 26.1895L49.8787 17.6965M49.8787 17.6965L58.6646 8.78552M49.8787 17.6965L41.6786 26.0135" stroke="#C8122D" stroke-width="6"/>
<path d="M8.20014 75.3325L16.8141 83.8255M25.4281 92.3185L16.8141 83.8255M16.8141 83.8255L25.6 74.9144M16.8141 83.8255L8.61399 92.1424" stroke="#C8122D" stroke-width="6"/>
<path d="M73.5228 8.91058L82.1368 17.4036M90.7508 25.8966L82.1368 17.4036M82.1368 17.4036L90.9226 8.49255M82.1368 17.4036L73.9366 25.7205" stroke="#C8122D" stroke-width="6"/>
<path d="M26.0323 52.712C26.0323 57.736 21.9595 61.8088 16.9355 61.8088C11.9115 61.8088 7.83875 57.736 7.83875 52.712C7.83875 47.688 11.9115 43.6152 16.9355 43.6152C21.9595 43.6152 26.0323 47.688 26.0323 52.712Z" stroke="#C8122D" stroke-width="6"/>
<path d="M59.0967 52.712C59.0967 57.736 55.024 61.8088 50 61.8088C44.976 61.8088 40.9032 57.736 40.9032 52.712C40.9032 47.688 44.976 43.6152 50 43.6152C55.024 43.6152 59.0967 47.688 59.0967 52.712Z" stroke="#C8122D" stroke-width="6"/>
<path d="M74.1935 50.292C74.1935 57.6738 71.2765 64.3743 66.5322 69.3036M46.7742 77.7113C54.5357 77.7113 61.544 74.4865 66.5322 69.3036M66.5322 69.3036L79.5 81.5" stroke="#C8122D" stroke-width="6"/>
</g>
<defs>
<clipPath id="clip0_17178_137733">
<rect width="100" height="100" fill="white"/>
</clipPath>
</defs>
</svg>
