<svg width="90" height="90" viewBox="0 0 90 90" fill="none" xmlns="http://www.w3.org/2000/svg">
<g clip-path="url(#clip0_1676_26)">
<path d="M45 90C69.8528 90 90 69.8528 90 45C90 20.1472 69.8528 0 45 0C20.1472 0 0 20.1472 0 45C0 69.8528 20.1472 90 45 90Z" fill="#1C98F7"/>
<path fill-rule="evenodd" clip-rule="evenodd" d="M45.7875 65.6016C47.7665 65.464 49.7286 65.1439 51.6488 64.6453C54.0183 65.3684 56.5233 65.5321 58.9669 65.1234C59.0636 65.1078 59.1614 65.1003 59.2594 65.1009C60.1312 65.1009 61.2759 65.6072 62.9437 66.6759V64.9181C62.9441 64.614 63.0253 64.3154 63.179 64.053C63.3327 63.7906 63.5534 63.5738 63.8184 63.4247C64.5441 63.0141 65.2191 62.5416 65.835 62.0213C68.265 59.9625 69.6375 57.2175 69.6375 54.3094C69.6375 53.3334 69.4828 52.3856 69.1903 51.48C69.9244 50.1103 70.5178 48.6703 70.9538 47.1769C72.3632 49.2891 73.1185 51.7701 73.125 54.3094C73.125 58.2609 71.2856 61.9453 68.1047 64.6397C67.5737 65.0891 67.0148 65.5043 66.4313 65.8828V69.9919C66.4313 71.4066 64.8 72.2194 63.6497 71.3784C62.5619 70.5653 61.4356 69.805 60.2747 69.1003C59.9422 68.9013 59.5964 68.7256 59.2397 68.5744C58.2834 68.7178 57.3047 68.7909 56.3175 68.7909C52.3463 68.7909 48.6788 67.6013 45.7903 65.6016H45.7875ZM24.7894 57.3834C19.7719 53.1281 16.875 47.3316 16.875 41.1187C16.875 28.4259 28.8506 18.2812 43.4728 18.2812C58.0978 18.2812 70.0734 28.4259 70.0734 41.1187C70.0734 53.8144 58.095 63.9591 43.4728 63.9591C41.8303 63.9591 40.2047 63.8325 38.6128 63.5794C37.9237 63.7425 35.1703 65.3794 31.2019 68.2762C29.7647 69.3281 27.7256 68.3128 27.7256 66.5438V59.535C26.6979 58.8871 25.7168 58.1682 24.7894 57.3834ZM38.7084 59.2566C38.8294 59.2566 38.9531 59.265 39.0741 59.2847C40.5084 59.5266 41.9822 59.6503 43.4728 59.6503C55.8253 59.6503 65.7113 51.2747 65.7113 41.1187C65.7113 30.9656 55.8253 22.59 43.4728 22.59C31.1259 22.59 21.2344 30.9656 21.2344 41.1187C21.2344 46.0294 23.5434 50.6531 27.6272 54.1125C28.6537 54.9787 29.7816 55.7663 30.9909 56.4525C31.6687 56.835 32.0878 57.5494 32.0878 58.32V62.3616C35.2266 60.255 37.2909 59.2566 38.7084 59.2566ZM32.1356 45.4303C30.2091 45.4303 28.6481 43.8834 28.6481 41.9822C28.6481 40.0781 30.2091 38.5341 32.1356 38.5341C34.0622 38.5341 35.6231 40.0781 35.6231 41.9822C35.6231 43.8862 34.0622 45.4303 32.1356 45.4303ZM43.4728 45.4303C41.5462 45.4303 39.9853 43.8834 39.9853 41.9822C39.9853 40.0781 41.5462 38.5341 43.4728 38.5341C45.3994 38.5341 46.9603 40.0781 46.9603 41.9822C46.9603 43.8862 45.3994 45.4303 43.4728 45.4303ZM54.81 45.4303C52.8834 45.4303 51.3225 43.8834 51.3225 41.9822C51.3225 40.0781 52.8834 38.5341 54.81 38.5341C56.7366 38.5341 58.2975 40.0781 58.2975 41.9822C58.2975 43.8862 56.7366 45.4303 54.81 45.4303Z" fill="white"/>
</g>
<defs>
<clipPath id="clip0_1676_26">
<rect width="90" height="90" fill="white"/>
</clipPath>
</defs>
</svg>
