<svg width="80" height="80" viewBox="0 0 80 80" fill="none" xmlns="http://www.w3.org/2000/svg">
<path d="M10 52.4996L25.7322 36.7674C25.9643 36.5352 26.2399 36.3511 26.5432 36.2255C26.8466 36.0998 27.1716 36.0352 27.5 36.0352C27.8283 36.0352 28.1533 36.0998 28.4567 36.2255C28.76 36.3511 29.0356 36.5352 29.2677 36.7674L43.2322 50.7319C43.4643 50.964 43.7399 51.1482 44.0432 51.2738C44.3466 51.3994 44.6716 51.4641 44.9999 51.4641C45.3283 51.4641 45.6533 51.3994 45.9567 51.2738C46.26 51.1482 46.5356 50.964 46.7677 50.7319L53.2322 44.2674C53.4643 44.0352 53.7399 43.8511 54.0432 43.7255C54.3466 43.5998 54.6716 43.5352 54.9999 43.5352C55.3283 43.5352 55.6533 43.5998 55.9567 43.7255C56.26 43.8511 56.5356 44.0352 56.7677 44.2674L69.9999 57.4996" stroke="#0D1116" stroke-width="7" stroke-linecap="round" stroke-linejoin="round"/>
<path d="M67.5 15H12.5C11.1193 15 10 16.1193 10 17.5V62.5C10 63.8807 11.1193 65 12.5 65H67.5C68.8807 65 70 63.8807 70 62.5V17.5C70 16.1193 68.8807 15 67.5 15Z" stroke="#C8122D" stroke-width="7" stroke-linecap="round" stroke-linejoin="round"/>
<path d="M49 35C51.2091 35 53 33.2091 53 31C53 28.7909 51.2091 27 49 27C46.7909 27 45 28.7909 45 31C45 33.2091 46.7909 35 49 35Z" fill="#0D1116"/>
</svg>
