<svg width="201" height="200" viewBox="0 0 201 200" fill="none" xmlns="http://www.w3.org/2000/svg">
<g clip-path="url(#clip0_406_5188)">
<rect x="0.5" width="200" height="200" rx="24" fill="#FAFAFA"/>
<path opacity="0.4" d="M168.566 17.6261C168.25 17.5429 168.25 17.0622 168.566 16.979C173.034 15.8005 174.245 14.5021 175.343 9.70907C175.421 9.37023 175.869 9.37023 175.947 9.70907C177.045 14.5021 178.256 15.8005 182.724 16.979C183.04 17.0622 183.04 17.5429 182.724 17.6261C178.256 18.8047 177.045 20.103 175.947 24.8961C175.869 25.2348 175.421 25.2348 175.343 24.8961C174.245 20.103 173.034 18.8047 168.566 17.6261Z" fill="#CDCDCD"/>
<path d="M39.9051 182.548C40.2221 182.626 40.2221 183.077 39.9051 183.155C35.4221 184.26 34.2077 185.477 33.1054 189.97C33.0275 190.287 32.5779 190.287 32.5001 189.97C31.3977 185.477 30.1834 184.26 25.7003 183.155C25.3834 183.077 25.3834 182.626 25.7003 182.548C30.1834 181.443 31.3977 180.226 32.5001 175.733C32.5779 175.416 33.0275 175.416 33.1054 175.733C34.2077 180.226 35.4221 181.443 39.9051 182.548Z" fill="#CDCDCD"/>
<path opacity="0.2" d="M90.7096 56.9987C90.3937 56.9155 90.3937 56.4348 90.7096 56.3516C95.1781 55.173 96.3886 53.8747 97.4873 49.0816C97.5649 48.7428 98.0131 48.7428 98.0907 49.0816C99.1894 53.8747 100.4 55.173 104.868 56.3516C105.184 56.4348 105.184 56.9155 104.868 56.9987C100.4 58.1773 99.1894 59.4756 98.0907 64.2687C98.0131 64.6074 97.5649 64.6074 97.4873 64.2687C96.3886 59.4756 95.1781 58.1773 90.7096 56.9987Z" fill="#CDCDCD"/>
<path opacity="0.7" d="M14.6847 108.724C14.3688 108.64 14.3688 108.16 14.6847 108.076C19.1532 106.898 20.3637 105.6 21.4624 100.806C21.54 100.468 21.9882 100.468 22.0657 100.806C23.1645 105.6 24.375 106.898 28.8435 108.076C29.1594 108.16 29.1594 108.64 28.8435 108.724C24.375 109.902 23.1645 111.2 22.0657 115.994C21.9882 116.332 21.54 116.332 21.4624 115.994C20.3637 111.2 19.1532 109.902 14.6847 108.724Z" fill="#CDCDCD"/>
<path opacity="0.3" d="M146.616 92.8317C146.3 92.7485 146.3 92.2678 146.616 92.1846C151.085 91.006 152.295 89.7077 153.394 84.9146C153.471 84.5758 153.92 84.5758 153.997 84.9146C155.096 89.7077 156.306 91.006 160.775 92.1846C161.091 92.2678 161.091 92.7485 160.775 92.8317C156.306 94.0103 155.096 95.3086 153.997 100.102C153.92 100.44 153.471 100.44 153.394 100.102C152.295 95.3086 151.085 94.0103 146.616 92.8317Z" fill="#CDCDCD"/>
<path opacity="0.8" d="M190.728 96.7201C191.044 96.8033 191.044 97.284 190.728 97.3672C186.259 98.5457 185.049 99.8441 183.95 104.637C183.873 104.976 183.424 104.976 183.347 104.637C182.248 99.8441 181.038 98.5457 176.569 97.3672C176.253 97.284 176.253 96.8033 176.569 96.7201C181.038 95.5415 182.248 94.2432 183.347 89.4501C183.424 89.1114 183.873 89.1114 183.95 89.4501C185.049 94.2432 186.259 95.5415 190.728 96.7201Z" fill="#CDCDCD"/>
<path opacity="0.2" d="M147.127 29.9174C146.942 29.8688 146.942 29.5884 147.127 29.5399C149.733 28.8524 150.439 28.095 151.08 25.2991C151.126 25.1014 151.387 25.1014 151.432 25.2991C152.073 28.095 152.779 28.8524 155.386 29.5399C155.57 29.5884 155.57 29.8688 155.386 29.9174C152.779 30.6049 152.073 31.3622 151.432 34.1582C151.387 34.3558 151.126 34.3558 151.08 34.1582C150.439 31.3622 149.733 30.6049 147.127 29.9174Z" fill="#CDCDCD"/>
<path opacity="0.4" d="M152.678 194.701C152.862 194.75 152.862 195.03 152.678 195.079C150.071 195.766 149.365 196.524 148.724 199.32C148.679 199.517 148.418 199.517 148.372 199.32C147.731 196.524 147.025 195.766 144.419 195.079C144.234 195.03 144.234 194.75 144.419 194.701C147.025 194.014 147.731 193.256 148.372 190.46C148.418 190.263 148.679 190.263 148.724 190.46C149.365 193.256 150.071 194.014 152.678 194.701Z" fill="#CDCDCD"/>
<path opacity="0.2" d="M127.341 103.438C127.525 103.486 127.525 103.767 127.341 103.815C124.734 104.503 124.028 105.26 123.387 108.056C123.342 108.254 123.08 108.254 123.035 108.056C122.394 105.26 121.688 104.503 119.081 103.815C118.897 103.767 118.897 103.486 119.081 103.438C121.688 102.75 122.394 101.993 123.035 99.1968C123.08 98.9992 123.342 98.9992 123.387 99.1968C124.028 101.993 124.734 102.75 127.341 103.438Z" fill="#CDCDCD"/>
<path opacity="0.4" d="M117.252 18.7987C117.068 18.7502 117.068 18.4698 117.252 18.4213C119.859 17.7338 120.565 16.9764 121.206 14.1805C121.251 13.9828 121.512 13.9828 121.558 14.1805C122.199 16.9764 122.905 17.7338 125.511 18.4213C125.696 18.4698 125.696 18.7502 125.511 18.7987C122.905 19.4862 122.199 20.2436 121.558 23.0396C121.512 23.2371 121.251 23.2371 121.206 23.0396C120.565 20.2436 119.859 19.4862 117.252 18.7987Z" fill="#CDCDCD"/>
<path opacity="0.4" d="M11.8382 11.1667C11.6539 11.1181 11.6539 10.8377 11.8382 10.7892C14.4448 10.1017 15.1509 9.34431 15.7919 6.54837C15.8371 6.35071 16.0985 6.35071 16.1438 6.54837C16.7847 9.34431 17.4908 10.1017 20.0975 10.7892C20.2818 10.8377 20.2818 11.1181 20.0975 11.1667C17.4908 11.8542 16.7847 12.6115 16.1438 15.4075C16.0985 15.6051 15.8371 15.6051 15.7919 15.4075C15.1509 12.6115 14.4448 11.8542 11.8382 11.1667Z" fill="#CDCDCD"/>
<path opacity="0.2" d="M57.2563 59.526C57.4406 59.5745 57.4406 59.8549 57.2563 59.9035C54.6497 60.5909 53.9436 61.3483 53.3026 64.1443C53.2574 64.3419 52.996 64.3419 52.9507 64.1443C52.3098 61.3483 51.6037 60.5909 48.997 59.9035C48.8127 59.8549 48.8127 59.5745 48.997 59.526C51.6037 58.8385 52.3098 58.0811 52.9507 55.2852C52.996 55.0876 53.2574 55.0876 53.3026 55.2852C53.9436 58.0811 54.6497 58.8385 57.2563 59.526Z" fill="#CDCDCD"/>
<path opacity="0.4" d="M125.788 55.4213C125.604 55.3728 125.604 55.0924 125.788 55.0438C128.395 54.3563 129.101 53.599 129.742 50.803C129.787 50.6054 130.048 50.6054 130.094 50.803C130.735 53.599 131.441 54.3563 134.047 55.0438C134.232 55.0924 134.232 55.3728 134.047 55.4213C131.441 56.1088 130.735 56.8662 130.094 59.6621C130.048 59.8597 129.787 59.8597 129.742 59.6621C129.101 56.8662 128.395 56.1088 125.788 55.4213Z" fill="#CDCDCD"/>
<path d="M192.898 140.789C193.082 140.837 193.082 141.118 192.898 141.166C190.291 141.854 189.585 142.611 188.944 145.407C188.899 145.605 188.637 145.605 188.592 145.407C187.951 142.611 187.245 141.854 184.638 141.166C184.454 141.118 184.454 140.837 184.638 140.789C187.245 140.101 187.951 139.344 188.592 136.548C188.637 136.351 188.899 136.351 188.944 136.548C189.585 139.344 190.291 140.101 192.898 140.789Z" fill="#CDCDCD"/>
<path d="M185.708 50.3302C185.893 50.3787 185.893 50.6591 185.708 50.7077C183.102 51.3951 182.396 52.1525 181.755 54.9485C181.71 55.1461 181.448 55.1461 181.403 54.9485C180.762 52.1525 180.056 51.3951 177.449 50.7077C177.265 50.6591 177.265 50.3787 177.449 50.3302C180.056 49.6427 180.762 48.8853 181.403 46.0894C181.448 45.8918 181.71 45.8918 181.755 46.0894C182.396 48.8853 183.102 49.6427 185.708 50.3302Z" fill="#CDCDCD"/>
<path opacity="0.4" d="M109.277 176.309C109.461 176.357 109.461 176.638 109.277 176.686C106.67 177.374 105.964 178.131 105.323 180.927C105.278 181.125 105.017 181.125 104.971 180.927C104.331 178.131 103.624 177.374 101.018 176.686C100.833 176.638 100.833 176.357 101.018 176.309C103.624 175.621 104.331 174.864 104.971 172.068C105.017 171.871 105.278 171.871 105.323 172.068C105.964 174.864 106.67 175.621 109.277 176.309Z" fill="#CDCDCD"/>
<path d="M87.9469 22.0151C87.8152 21.9805 87.8152 21.7802 87.9469 21.7455C89.8088 21.2544 90.3131 20.7135 90.7709 18.7164C90.8033 18.5752 90.99 18.5752 91.0223 18.7164C91.4801 20.7135 91.9845 21.2544 93.8464 21.7455C93.978 21.7802 93.978 21.9805 93.8464 22.0151C91.9845 22.5062 91.4801 23.0472 91.0223 25.0443C90.99 25.1854 90.8033 25.1854 90.7709 25.0443C90.3131 23.0472 89.8088 22.5062 87.9469 22.0151Z" fill="#CDCDCD"/>
<path d="M75.7987 45.0049C75.667 44.9702 75.667 44.7699 75.7987 44.7353C77.6606 44.2442 78.1649 43.7032 78.6227 41.7061C78.6551 41.5649 78.8418 41.5649 78.8741 41.7061C79.3319 43.7032 79.8363 44.2442 81.6982 44.7353C81.8298 44.7699 81.8298 44.9702 81.6982 45.0049C79.8363 45.496 79.3319 46.0369 78.8741 48.034C78.8418 48.1752 78.6551 48.1752 78.6227 48.034C78.1649 46.0369 77.6606 45.496 75.7987 45.0049Z" fill="#CDCDCD"/>
<path d="M54.5434 25.0254C54.675 25.0601 54.675 25.2603 54.5434 25.295C52.6815 25.7861 52.1771 26.3271 51.7193 28.3242C51.687 28.4653 51.5003 28.4653 51.4679 28.3242C51.0101 26.3271 50.5058 25.7861 48.6439 25.295C48.5122 25.2603 48.5122 25.0601 48.6439 25.0254C50.5058 24.5343 51.0101 23.9933 51.4679 21.9962C51.5003 21.8551 51.687 21.8551 51.7193 21.9962C52.1771 23.9933 52.6815 24.5343 54.5434 25.0254Z" fill="#CDCDCD"/>
<path d="M18.3017 50.3135C18.4333 50.3481 18.4333 50.5484 18.3017 50.5831C16.4398 51.0742 15.9354 51.6151 15.4776 53.6122C15.4453 53.7534 15.2586 53.7534 15.2262 53.6122C14.7684 51.6151 14.2641 51.0742 12.4022 50.5831C12.2705 50.5484 12.2705 50.3481 12.4022 50.3135C14.2641 49.8224 14.7684 49.2814 15.2262 47.2843C15.2586 47.1432 15.4453 47.1432 15.4776 47.2843C15.9354 49.2814 16.4398 49.8224 18.3017 50.3135Z" fill="#CDCDCD"/>
<path d="M179.222 42.6904V71.9772H141.429L140.067 42.8962L179.222 42.6904Z" fill="#E0E0E0"/>
<path d="M140.067 42.8632V71.9773H177.86V42.8632H140.067Z" fill="white"/>
<path d="M178.003 72.1207H139.924V42.7163H178.003V72.1207ZM140.211 71.8304H177.713V43.0066H140.211V71.8341V71.8304Z" fill="#E0E0E0"/>
<path d="M173.767 45.8538H144.161V68.144H173.767V45.8538Z" fill="white"/>
<path d="M173.767 45.854C173.767 45.854 173.716 45.854 173.624 45.8577C173.528 45.8577 173.389 45.8577 173.209 45.8613C172.838 45.8613 172.298 45.865 171.597 45.8687C170.187 45.8724 168.131 45.8797 165.525 45.8871C160.319 45.8944 152.925 45.9054 144.165 45.9201L144.231 45.854C144.231 52.5418 144.235 60.1299 144.238 68.1406L144.165 68.0671C155.19 68.0708 165.411 68.0781 173.771 68.0818L173.708 68.1443C173.723 61.4087 173.734 55.8416 173.741 51.9576C173.749 50.0137 173.752 48.4924 173.756 47.4488C173.756 46.9307 173.76 46.5338 173.763 46.2619C173.763 45.9936 173.771 45.8503 173.771 45.8503C173.771 45.8503 173.774 45.9826 173.778 46.2472C173.778 46.5154 173.782 46.9086 173.785 47.4231C173.785 48.4593 173.793 49.9769 173.8 51.9171C173.807 55.8122 173.818 61.3903 173.833 68.1406V68.2031H173.771C165.411 68.2068 155.19 68.2104 144.165 68.2178H144.092V68.1443C144.092 60.1299 144.095 52.5381 144.099 45.854V45.7842H144.165C152.947 45.7989 160.352 45.8099 165.569 45.8173C168.168 45.8246 170.22 45.8319 171.627 45.8356C172.324 45.8356 172.86 45.843 173.227 45.843C173.404 45.843 173.539 45.843 173.635 45.8466C173.727 45.8466 173.771 45.8503 173.771 45.8503L173.767 45.854Z" fill="#E0E0E0"/>
<path d="M140.067 42.7935C140.067 42.7935 140.324 42.9294 140.706 43.1867C141.088 43.4439 141.613 43.8113 142.182 44.2302C142.751 44.6492 143.25 45.046 143.607 45.3437C143.963 45.6413 144.172 45.8361 144.161 45.8508C144.146 45.8691 143.915 45.7001 143.544 45.4245C143.129 45.1158 142.637 44.752 142.094 44.3478C141.551 43.9436 141.059 43.5762 140.647 43.2675C140.28 42.9882 140.056 42.8045 140.071 42.7898L140.067 42.7935Z" fill="#E0E0E0"/>
<path d="M177.861 42.8635C177.886 42.8966 176.987 43.5948 175.86 44.4216C174.729 45.2484 173.793 45.8914 173.767 45.8583C173.741 45.8253 174.637 45.1271 175.768 44.3003C176.899 43.4735 177.835 42.8305 177.857 42.8635H177.861Z" fill="#E0E0E0"/>
<path d="M173.616 68.1443C173.646 68.1149 174.615 68.9454 175.79 70.0037C176.961 71.062 177.89 71.9439 177.86 71.9769C177.831 72.0063 176.862 71.1759 175.687 70.1176C174.516 69.0593 173.587 68.1774 173.616 68.1443Z" fill="#E0E0E0"/>
<path d="M140.067 71.9769C140.038 71.9475 140.923 71.1023 142.042 70.0918C143.162 69.0813 144.091 68.2876 144.117 68.317C144.146 68.3464 143.261 69.1915 142.141 70.202C141.022 71.2126 140.093 72.0063 140.067 71.9769Z" fill="#E0E0E0"/>
<path d="M166.108 56.7977C165.697 58.7305 163.799 59.9652 161.872 59.5536C159.944 59.1421 158.707 57.2423 159.118 55.3131C159.529 53.3803 161.427 52.1456 163.355 52.5572C165.286 52.9687 166.52 54.8685 166.108 56.7977Z" fill="#F5F5F5"/>
<path d="M161.449 59.4511C161.413 59.4327 161.563 59.0653 161.758 58.4626C161.949 57.8637 162.18 57.0038 162.084 56.0594C161.985 55.1187 161.501 54.3507 161.042 53.9502C160.579 53.5349 160.175 53.4504 160.194 53.399C160.194 53.3733 160.631 53.3916 161.167 53.7958C161.699 54.189 162.253 55.0085 162.363 56.0263C162.466 57.0405 162.187 57.9335 161.945 58.5288C161.695 59.1277 161.482 59.4658 161.449 59.4511Z" fill="#E0E0E0"/>
<path d="M166.064 55.6218C166.046 55.7026 165.098 55.3609 163.986 55.6916C162.87 56.015 162.257 56.816 162.202 56.7572C162.172 56.7389 162.282 56.511 162.565 56.2207C162.844 55.9341 163.31 55.5997 163.909 55.4234C164.507 55.247 165.08 55.2764 165.469 55.3646C165.862 55.4528 166.075 55.585 166.064 55.6181V55.6218Z" fill="#E0E0E0"/>
<path d="M164.449 55.4379C164.405 55.4379 164.423 55.188 164.295 54.8353C164.174 54.4899 163.862 54.0342 163.351 53.8284C162.834 53.63 162.298 53.7549 161.975 53.9276C161.644 54.1003 161.49 54.2951 161.453 54.2657C161.428 54.251 161.527 54.0011 161.872 53.7586C162.202 53.5198 162.823 53.3287 163.451 53.5675C164.071 53.8174 164.398 54.3759 164.482 54.7765C164.574 55.188 164.475 55.4416 164.449 55.4342V55.4379Z" fill="#E0E0E0"/>
<path d="M163.31 55.8165C163.23 55.7981 163.288 55.3094 163.145 54.7398C163.013 54.1665 162.741 53.755 162.804 53.7035C162.855 53.6484 163.263 54.0269 163.417 54.6736C163.575 55.3167 163.38 55.8422 163.31 55.8165Z" fill="#E0E0E0"/>
<path d="M163.278 54.6961C163.274 54.7806 162.966 54.7953 162.672 54.9496C162.374 55.1113 162.128 55.3171 162.07 55.2546C162.022 55.2105 162.169 54.9129 162.543 54.7034C162.944 54.5013 163.292 54.6299 163.278 54.6961Z" fill="#E0E0E0"/>
<path d="M157.561 56.3706C158.707 57.3334 158.857 59.0458 157.892 60.1923C156.93 61.3387 155.219 61.4894 154.074 60.523C152.928 59.5602 152.778 57.8478 153.743 56.7014C154.709 55.5549 156.416 55.4042 157.561 56.3706Z" fill="#F5F5F5"/>
<path d="M157.675 60.4387C157.649 60.4571 157.458 60.2256 157.124 59.8765C156.79 59.5347 156.298 59.0717 155.633 58.7998C154.969 58.5316 154.282 58.5793 153.849 58.7484C153.409 58.9137 153.207 59.1489 153.177 59.1232C153.159 59.1158 153.328 58.8292 153.79 58.6124C154.242 58.3956 154.987 58.3148 155.711 58.6087C156.426 58.9027 156.922 59.4098 157.234 59.7809C157.546 60.1594 157.693 60.4277 157.675 60.4424V60.4387Z" fill="#E0E0E0"/>
<path d="M156.757 55.981C156.805 56.0214 156.239 56.5322 156.063 57.3994C155.88 58.2629 156.199 58.9574 156.14 58.9758C156.118 58.9868 156.004 58.8325 155.913 58.5422C155.821 58.2519 155.762 57.8183 155.858 57.3553C155.953 56.8923 156.177 56.5175 156.375 56.2896C156.577 56.0581 156.739 55.9626 156.757 55.981Z" fill="#E0E0E0"/>
<path d="M156.06 56.9992C156.041 57.0286 155.883 56.9257 155.601 56.889C155.329 56.8486 154.91 56.889 154.591 57.1646C154.275 57.4402 154.165 57.8444 154.169 58.1237C154.165 58.4066 154.242 58.5793 154.209 58.594C154.191 58.6087 154.059 58.4507 154.018 58.131C153.978 57.826 154.07 57.341 154.455 57.0066C154.844 56.6795 155.336 56.6612 155.634 56.7457C155.942 56.8302 156.078 56.9882 156.06 57.0029V56.9992Z" fill="#E0E0E0"/>
<path d="M155.905 57.8959C155.865 57.9437 155.556 57.7306 155.127 57.6203C154.697 57.5028 154.323 57.5395 154.312 57.4807C154.293 57.4293 154.693 57.2896 155.178 57.4146C155.666 57.5395 155.945 57.8555 155.905 57.8923V57.8959Z" fill="#E0E0E0"/>
<path d="M155.145 57.5174C155.2 57.5504 155.101 57.7599 155.101 58.0135C155.101 58.2707 155.152 58.5095 155.09 58.5242C155.042 58.5389 154.895 58.3368 154.892 58.0098C154.899 57.6717 155.108 57.4806 155.149 57.5137L155.145 57.5174Z" fill="#E0E0E0"/>
<path d="M157.675 55.4376C156.717 54.8129 156.13 53.6995 155.748 52.6192C155.366 51.5388 155.352 50.3335 155.704 49.2458C156.758 49.7162 157.609 50.6275 158.01 51.7115C158.41 52.7955 158.175 54.394 157.675 55.4376Z" fill="#EBEBEB"/>
<path d="M156.564 51.0171C156.986 52.4171 157.331 53.8392 157.592 55.2797L156.564 51.0171Z" fill="white"/>
<path d="M157.591 55.2798C157.569 55.2835 157.51 55.0447 157.419 54.6588C157.316 54.2142 157.195 53.7108 157.066 53.1522C156.927 52.5937 156.802 52.0903 156.695 51.6493C156.6 51.2635 156.545 51.0246 156.567 51.0173C156.585 51.0099 156.677 51.2414 156.798 51.6199C156.919 51.9984 157.073 52.5275 157.213 53.1155C157.356 53.7071 157.463 54.2436 157.525 54.6368C157.587 55.03 157.613 55.2762 157.595 55.2798H157.591Z" fill="#E0E0E0"/>
<path d="M160.102 60.3066C161.222 60.0714 162.422 60.4425 163.457 60.9349C164.489 61.4273 165.352 62.2688 165.873 63.2904C164.794 63.7056 163.549 63.6652 162.499 63.1801C161.449 62.6951 160.487 61.3979 160.102 60.3102" fill="#EBEBEB"/>
<path d="M164.016 62.6433C162.727 61.9525 161.479 61.1881 160.278 60.3577L164.016 62.6433Z" fill="white"/>
<path d="M160.275 60.3577C160.275 60.3577 160.499 60.4642 160.836 60.6737C161.222 60.9125 161.666 61.1881 162.151 61.4895C162.643 61.7871 163.087 62.0553 163.476 62.2905C163.814 62.4963 164.023 62.6249 164.012 62.6433C164.001 62.6617 163.777 62.5624 163.421 62.3824C163.069 62.2023 162.588 61.9341 162.07 61.6181C161.552 61.302 161.097 60.9934 160.774 60.7619C160.451 60.5304 160.26 60.3724 160.271 60.3577H160.275Z" fill="#E0E0E0"/>
<path d="M159.019 60.8396C159.224 61.4937 159.074 62.2286 158.843 62.8717C158.611 63.5147 158.16 64.0769 157.583 64.4481C157.275 63.8307 157.223 63.0848 157.451 62.4344C157.679 61.7803 158.391 61.1336 159.019 60.8396Z" fill="#EBEBEB"/>
<path d="M157.859 63.3049C158.193 62.4965 158.575 61.7101 158.997 60.9458L157.859 63.3049Z" fill="white"/>
<path d="M158.997 60.9456C159.033 60.9676 158.773 61.4931 158.461 62.1435C158.145 62.7939 157.895 63.323 157.859 63.3083C157.822 63.2936 158.009 62.7351 158.329 62.0773C158.644 61.4233 158.964 60.9272 159 60.9456H158.997Z" fill="#E0E0E0"/>
<path d="M61.6003 40.4453H31.1172V90.9494H61.6003V40.4453Z" fill="#E0E0E0"/>
<path d="M60.5833 40.4453H30.1001V90.9494H60.5833V40.4453Z" fill="#EBEBEB"/>
<path d="M59.2877 41.4702H31.4001V89.9239H59.2877V41.4702Z" fill="#FAFAFA"/>
<path d="M53.8576 47.7656H36.7087V83.6263H53.8576V47.7656Z" fill="#EBEBEB"/>
<path d="M36.7091 70.9381C36.6688 67.5869 39.6793 64.3165 42.9945 63.8498C44.5732 63.6256 46.2546 63.9416 47.7305 63.3353C50.3665 62.255 51.2036 58.7494 53.858 57.7095L53.9791 83.6303H36.7091V70.9418V70.9381Z" fill="#E0E0E0"/>
<path d="M46.3939 95.3794C45.6499 95.3794 45.05 94.7782 45.05 94.0325C45.05 93.2869 45.6499 92.6857 46.3939 92.6857C49.6872 92.6857 52.473 87.9515 52.473 82.3444C52.473 81.5987 53.0728 80.9976 53.8169 80.9976C54.5609 80.9976 55.1607 81.5987 55.1607 82.3444C55.1607 89.6567 51.3079 95.3794 46.3881 95.3794H46.3939Z" fill="#0053CC"/>
<path d="M66.7479 95.3794C66.0039 95.3794 65.4041 94.7782 65.4041 94.0325C65.4041 93.2869 66.0039 92.6857 66.7479 92.6857C70.0412 92.6857 72.827 87.9515 72.827 82.3444C72.827 81.5987 73.4268 80.9976 74.1709 80.9976C74.9149 80.9976 75.5147 81.5987 75.5147 82.3444C75.5147 89.6567 71.6619 95.3794 66.7421 95.3794H66.7479Z" fill="#0053CC"/>
<path d="M87.1017 95.3794C86.3576 95.3794 85.7578 94.7782 85.7578 94.0325C85.7578 93.2869 86.3576 92.6857 87.1017 92.6857C90.395 92.6857 93.1808 87.9515 93.1808 82.3444C93.1808 81.5987 93.7806 80.9976 94.5246 80.9976C95.2686 80.9976 95.8685 81.5987 95.8685 82.3444C95.8685 89.6567 92.0157 95.3794 87.0959 95.3794H87.1017Z" fill="#0053CC"/>
<path d="M107.456 95.3794C106.712 95.3794 106.112 94.7782 106.112 94.0325C106.112 93.2869 106.712 92.6857 107.456 92.6857C110.749 92.6857 113.535 87.9515 113.535 82.3444C113.535 81.5987 114.135 80.9976 114.879 80.9976C115.623 80.9976 116.222 81.5987 116.222 82.3444C116.222 89.6567 112.37 95.3794 107.45 95.3794H107.456Z" fill="#0053CC"/>
<path d="M127.804 95.3794C127.06 95.3794 126.46 94.7782 126.46 94.0325C126.46 93.2869 127.06 92.6857 127.804 92.6857C131.097 92.6857 133.883 87.9515 133.883 82.3444C133.883 81.5987 134.483 80.9976 135.227 80.9976C135.971 80.9976 136.571 81.5987 136.571 82.3444C136.571 89.6567 132.718 95.3794 127.804 95.3794Z" fill="#0053CC"/>
<path d="M148.158 95.3794C147.414 95.3794 146.814 94.7782 146.814 94.0325C146.814 93.2869 147.414 92.6857 148.158 92.6857C151.451 92.6857 154.237 87.9515 154.237 82.3444C154.237 81.5987 154.837 80.9976 155.581 80.9976C156.325 80.9976 156.925 81.5987 156.925 82.3444C156.925 89.6567 153.072 95.3794 148.158 95.3794Z" fill="#0053CC"/>
<g style="mix-blend-mode:multiply" opacity="0.7">
<path d="M33.6424 83.7202H164.677C168.23 83.7202 171.391 86.6336 171.708 90.1944L178.964 172.179C179.281 175.74 176.628 178.653 173.081 178.653H42.0458C38.493 178.653 35.3323 175.74 35.0151 172.179L27.7594 90.1944C27.4422 86.6336 30.0953 83.7202 33.6424 83.7202Z" fill="#318FFF"/>
</g>
<path d="M163.581 83.7202H32.5462C28.9934 83.7202 25.9596 86.6336 25.7981 90.1944L22.1068 172.179C21.9453 175.74 24.7195 178.653 28.2724 178.653H159.302C162.854 178.653 165.888 175.74 166.05 172.179L169.741 90.1944C169.903 86.6336 167.128 83.7202 163.575 83.7202H163.581Z" fill="#318FFF"/>
<g style="mix-blend-mode:multiply">
<path d="M34.9515 156.988L38.0026 89.2812C38.066 87.917 39.2195 86.8071 40.5807 86.8071H155.259C156.62 86.8071 157.675 87.917 157.618 89.2812L154.567 156.988C154.503 158.352 153.35 159.462 151.988 159.462H37.3104C35.9493 159.462 34.8938 158.352 34.9515 156.988Z" fill="#DCE9FF"/>
</g>
<g style="mix-blend-mode:multiply">
<path d="M31.7043 162.508L34.9053 91.4027C34.9687 89.9692 36.1857 88.8015 37.6161 88.8015H158.056C159.486 88.8015 160.594 89.9634 160.53 91.4027L157.329 162.508C157.266 163.942 156.049 165.104 154.618 165.104H34.1786C32.7482 165.104 31.6408 163.942 31.7043 162.508Z" fill="#DCE9FF"/>
</g>
<path d="M28.7393 168.243L32.0788 94.079C32.148 92.5818 33.4111 91.3679 34.9049 91.3679H160.53C162.024 91.3679 163.177 92.5818 163.114 94.079L159.774 168.243C159.705 169.74 158.442 170.954 156.948 170.954H31.3232C29.8294 170.954 28.6759 169.74 28.7393 168.243Z" fill="white"/>
<g opacity="0.8">
<path opacity="0.1" d="M52.0293 124.108H38.7003C37.4545 124.108 36.4855 123.091 36.5432 121.842L37.1431 108.484C37.2007 107.235 38.262 106.218 39.5078 106.218H52.8368C54.0826 106.218 55.0516 107.235 54.9939 108.484L54.3941 121.842C54.3364 123.091 53.2751 124.108 52.0293 124.108Z" fill="#0053CC"/>
<path opacity="0.1" d="M72.3831 124.108H59.0541C57.8083 124.108 56.8393 123.091 56.897 121.842L57.4968 108.484C57.5545 107.235 58.6157 106.218 59.8615 106.218H73.1906C74.4364 106.218 75.4053 107.235 75.3476 108.484L74.7478 121.842C74.6901 123.091 73.6289 124.108 72.3831 124.108Z" fill="#0053CC"/>
<path opacity="0.1" d="M92.7317 124.108H79.4027C78.1569 124.108 77.1879 123.091 77.2456 121.842L77.8454 108.484C77.9031 107.235 78.9644 106.218 80.2102 106.218H93.5392C94.785 106.218 95.754 107.235 95.6963 108.484L95.0965 121.842C95.0388 123.091 93.9775 124.108 92.7317 124.108Z" fill="#0053CC"/>
<path opacity="0.1" d="M113.085 124.108H99.7565C98.5107 124.108 97.5417 123.091 97.5994 121.842L98.1992 108.484C98.2569 107.235 99.3181 106.218 100.564 106.218H113.893C115.139 106.218 116.108 107.235 116.05 108.484L115.45 121.842C115.393 123.091 114.331 124.108 113.085 124.108Z" fill="#0053CC"/>
<path opacity="0.1" d="M133.439 124.108H120.11C118.865 124.108 117.896 123.091 117.953 121.842L118.553 108.484C118.611 107.235 119.672 106.218 120.918 106.218H134.247C135.493 106.218 136.462 107.235 136.404 108.484L135.804 121.842C135.747 123.091 134.685 124.108 133.439 124.108Z" fill="#0053CC"/>
<path opacity="0.1" d="M153.788 124.108H140.459C139.213 124.108 138.244 123.091 138.302 121.842L138.902 108.484C138.959 107.235 140.021 106.218 141.266 106.218H154.595C155.841 106.218 156.81 107.235 156.752 108.484L156.153 121.842C156.095 123.091 155.034 124.108 153.788 124.108Z" fill="#0053CC"/>
<path d="M148.142 95.813C147.132 95.813 146.342 94.9864 146.388 93.9748C146.429 93.0268 147.236 92.2522 148.182 92.2522C149.191 92.2522 149.981 93.0788 149.935 94.0904C149.895 95.0384 149.087 95.813 148.142 95.813Z" fill="#318FFF"/>
<path d="M127.788 95.813C126.778 95.813 125.988 94.9864 126.034 93.9748C126.075 93.0268 126.882 92.2522 127.828 92.2522C128.837 92.2522 129.627 93.0788 129.581 94.0904C129.541 95.0384 128.733 95.813 127.788 95.813Z" fill="#318FFF"/>
<path d="M107.434 95.813C106.424 95.813 105.634 94.9864 105.68 93.9748C105.721 93.0268 106.528 92.2522 107.474 92.2522C108.483 92.2522 109.273 93.0788 109.227 94.0904C109.187 95.0384 108.379 95.813 107.434 95.813Z" fill="#318FFF"/>
<path d="M87.0798 95.813C86.0704 95.813 85.2802 94.9864 85.3264 93.9748C85.3668 93.0268 86.1742 92.2522 87.1201 92.2522C88.1295 92.2522 88.9196 93.0788 88.8735 94.0904C88.8331 95.0384 88.0256 95.813 87.0798 95.813Z" fill="#318FFF"/>
<path d="M66.7314 95.813C65.722 95.813 64.9319 94.9864 64.978 93.9748C65.0184 93.0268 65.8258 92.2522 66.7717 92.2522C67.7811 92.2522 68.5712 93.0788 68.5251 94.0904C68.4847 95.0384 67.6773 95.813 66.7314 95.813Z" fill="#318FFF"/>
<path d="M46.3774 95.813C45.368 95.813 44.5779 94.9864 44.624 93.9748C44.6644 93.0268 45.4718 92.2522 46.4177 92.2522C47.4271 92.2522 48.2172 93.0788 48.1711 94.0904C48.1307 95.0384 47.3232 95.813 46.3774 95.813Z" fill="#318FFF"/>
</g>
<path d="M51.4643 102.276H41.2268C40.6038 102.276 40.1194 101.767 40.1482 101.143C40.177 100.519 40.7077 100.01 41.3306 100.01H51.5681C52.191 100.01 52.6755 100.519 52.6467 101.143C52.6178 101.767 52.0872 102.276 51.4643 102.276Z" fill="#0053CC"/>
<path d="M71.8183 102.276H61.5807C60.9578 102.276 60.4734 101.767 60.5022 101.143C60.531 100.519 61.0617 100.01 61.6846 100.01H71.9221C72.545 100.01 73.0295 100.519 73.0007 101.143C72.9718 101.767 72.4412 102.276 71.8183 102.276Z" fill="#0053CC"/>
<path d="M92.1721 102.276H81.9345C81.3116 102.276 80.8271 101.767 80.856 101.143C80.8848 100.519 81.4154 100.01 82.0383 100.01H92.2759C92.8988 100.01 93.3833 100.519 93.3544 101.143C93.3256 101.767 92.795 102.276 92.1721 102.276Z" fill="#0053CC"/>
<path d="M112.52 102.276H102.283C101.66 102.276 101.176 101.767 101.204 101.143C101.233 100.519 101.764 100.01 102.387 100.01H112.624C113.247 100.01 113.732 100.519 113.703 101.143C113.674 101.767 113.143 102.276 112.52 102.276Z" fill="#0053CC"/>
<path d="M132.874 102.276H122.637C122.014 102.276 121.53 101.767 121.558 101.143C121.587 100.519 122.118 100.01 122.741 100.01H132.978C133.601 100.01 134.086 100.519 134.057 101.143C134.028 101.767 133.497 102.276 132.874 102.276Z" fill="#0053CC"/>
<path d="M153.228 102.276H142.991C142.368 102.276 141.884 101.767 141.912 101.143C141.941 100.519 142.472 100.01 143.095 100.01H153.332C153.955 100.01 154.44 100.519 154.411 101.143C154.382 101.767 153.851 102.276 153.228 102.276Z" fill="#0053CC"/>
<g opacity="0.8">
<path opacity="0.1" d="M51.095 144.837H37.766C36.5202 144.837 35.5512 143.82 35.6089 142.571L36.2087 129.213C36.2664 127.964 37.3276 126.947 38.5735 126.947H51.9025C53.1483 126.947 54.1172 127.964 54.0596 129.213L53.4597 142.571C53.4021 143.82 52.3408 144.837 51.095 144.837Z" fill="#0053CC"/>
<path opacity="0.1" d="M71.449 144.837H58.12C56.8742 144.837 55.9052 143.82 55.9629 142.571L56.5627 129.213C56.6204 127.964 57.6817 126.947 58.9275 126.947H72.2565C73.5023 126.947 74.4713 127.964 74.4136 129.213L73.8137 142.571C73.7561 143.82 72.6948 144.837 71.449 144.837Z" fill="#0053CC"/>
<path opacity="0.1" d="M91.7974 144.837H78.4684C77.2226 144.837 76.2536 143.82 76.3113 142.571L76.9111 129.213C76.9688 127.964 78.03 126.947 79.2759 126.947H92.6049C93.8507 126.947 94.8196 127.964 94.762 129.213L94.1621 142.571C94.1044 143.82 93.0432 144.837 91.7974 144.837Z" fill="#0053CC"/>
<path d="M112.151 144.837H98.8222C97.5763 144.837 96.6074 143.82 96.665 142.571L97.2649 129.213C97.3226 127.964 98.3838 126.947 99.6296 126.947H112.959C114.204 126.947 115.173 127.964 115.116 129.213L114.516 142.571C114.458 143.82 113.397 144.837 112.151 144.837Z" fill="#FF2323"/>
<path opacity="0.2" d="M65.4922 115.944H67.1469C67.172 116.219 67.291 116.436 67.5042 116.592C67.7173 116.743 68.0275 116.818 68.4349 116.818C68.8674 116.818 69.1871 116.721 69.3939 116.526C69.6258 116.332 69.7418 116.025 69.7418 115.605C69.7418 115.242 69.6352 114.966 69.4221 114.778C69.1902 114.571 68.8517 114.467 68.4067 114.467C68.0871 114.467 67.8363 114.518 67.6546 114.618C67.4728 114.712 67.3412 114.862 67.2597 115.069H65.5298L66.0469 111.299H70.9828V112.578H67.1845L66.9777 113.894C67.1594 113.718 67.3851 113.577 67.6546 113.471C67.9304 113.371 68.2845 113.32 68.717 113.32C69.6885 113.32 70.4062 113.546 70.87 113.997C71.2711 114.399 71.4717 114.956 71.4717 115.671C71.4717 116.392 71.2523 116.965 70.8136 117.391C70.6067 117.592 70.3466 117.746 70.0332 117.852C69.7261 117.952 69.4754 118.009 69.2811 118.021C69.093 118.034 68.8486 118.04 68.5477 118.04C67.5073 118.04 66.7708 117.902 66.3383 117.626C65.7742 117.282 65.4922 116.73 65.4922 115.972V115.944Z" fill="#0053CC"/>
<path opacity="0.2" d="M60.2744 113.236V112.446H60.3308C60.8197 112.446 61.2083 112.343 61.4966 112.136C61.7662 111.942 61.9385 111.663 62.0137 111.299H63.3206V117.88H61.5907V113.236H60.2744Z" fill="#0053CC"/>
<path d="M102.931 133.143L102.948 131.847L103.044 131.848C103.879 131.86 104.545 131.699 105.041 131.366C105.506 131.053 105.806 130.6 105.942 130.005L108.173 130.035L108.027 140.834L105.074 140.794L105.177 133.173L102.931 133.143Z" fill="white"/>
<path opacity="0.1" d="M132.505 144.837H119.176C117.93 144.837 116.961 143.82 117.019 142.571L117.619 129.213C117.677 127.964 118.738 126.947 119.984 126.947H133.313C134.558 126.947 135.527 127.964 135.47 129.213L134.87 142.571C134.812 143.82 133.751 144.837 132.505 144.837Z" fill="#0053CC"/>
<path opacity="0.1" d="M152.859 144.837H139.53C138.284 144.837 137.315 143.82 137.373 142.571L137.973 129.213C138.031 127.964 139.092 126.947 140.338 126.947H153.667C154.912 126.947 155.881 127.964 155.824 129.213L155.224 142.571C155.166 143.82 154.105 144.837 152.859 144.837Z" fill="#0053CC"/>
<path d="M114.628 124.369C110.061 123.477 105.372 123.603 100.853 124.778C96.8323 125.827 92.5113 127.634 89.6011 130.966C86.9976 133.948 85.6481 138.678 87.5496 142.5C89.3012 146.011 93.1315 147.327 96.5256 147.833C101.181 148.532 105.958 148.316 110.566 147.342C114.525 146.509 119.187 145.267 122.063 141.95C124.435 139.213 125.103 135.212 124.49 131.59C123.876 127.969 121.743 125.001 118.778 123.075C115.091 120.688 110.695 120.093 106.483 120.547C101.242 121.112 96.103 122.83 91.3867 125.373C90.7938 125.693 91.3118 126.652 91.9047 126.34C95.7759 124.25 99.9197 122.778 104.179 122.012C107.935 121.335 111.833 121.253 115.466 122.636C118.322 123.722 121.157 125.738 122.547 128.75C123.938 131.762 124.135 135.844 122.731 138.975C121.061 142.716 117.299 144.293 113.851 145.356C109.659 146.65 105.29 147.238 100.935 147.111C97.4253 147.007 93.3496 146.702 90.4053 144.367C87.1884 141.816 87.0316 137.124 89.0081 133.613C91.3049 129.53 95.8713 127.441 99.9197 126.206C104.609 124.778 109.557 124.525 114.348 125.455C114.989 125.581 115.268 124.503 114.621 124.377L114.628 124.369Z" fill="#FF2323"/>
</g>
<g opacity="0.8">
<path opacity="0.1" d="M50.1604 165.572H36.8314C35.5856 165.572 34.6166 164.554 34.6743 163.306L35.2742 149.947C35.3318 148.699 36.3931 147.681 37.6389 147.681H50.9679C52.2137 147.681 53.1827 148.699 53.125 149.947L52.5252 163.306C52.4675 164.554 51.4062 165.572 50.1604 165.572Z" fill="#0053CC"/>
<path opacity="0.1" d="M70.5144 165.572H57.1854C55.9396 165.572 54.9706 164.554 55.0283 163.306L55.6282 149.947C55.6858 148.699 56.7471 147.681 57.9929 147.681H71.3219C72.5677 147.681 73.5367 148.699 73.479 149.947L72.8792 163.306C72.8215 164.554 71.7602 165.572 70.5144 165.572Z" fill="#0053CC"/>
<path opacity="0.1" d="M90.8628 165.572H77.5338C76.288 165.572 75.319 164.554 75.3767 163.306L75.9766 149.947C76.0342 148.699 77.0955 147.681 78.3413 147.681H91.6703C92.9161 147.681 93.8851 148.699 93.8274 149.947L93.2276 163.306C93.1699 164.554 92.1086 165.572 90.8628 165.572Z" fill="#0053CC"/>
<path opacity="0.1" d="M111.217 165.572H97.8876C96.6418 165.572 95.6728 164.554 95.7305 163.306L96.3303 149.947C96.388 148.699 97.4492 147.681 98.695 147.681H112.024C113.27 147.681 114.239 148.699 114.181 149.947L113.581 163.306C113.524 164.554 112.462 165.572 111.217 165.572Z" fill="#0053CC"/>
<path opacity="0.1" d="M131.571 165.572H118.242C116.996 165.572 116.027 164.554 116.084 163.306L116.684 149.947C116.742 148.699 117.803 147.681 119.049 147.681H132.378C133.624 147.681 134.593 148.699 134.535 149.947L133.935 163.306C133.878 164.554 132.816 165.572 131.571 165.572Z" fill="#0053CC"/>
<path opacity="0.1" d="M151.925 165.572H138.596C137.35 165.572 136.381 164.554 136.438 163.306L137.038 149.947C137.096 148.699 138.157 147.681 139.403 147.681H152.732C153.978 147.681 154.947 148.699 154.889 149.947L154.289 163.306C154.232 164.554 153.17 165.572 151.925 165.572Z" fill="#0053CC"/>
</g>
<path d="M46.3946 95.3793C41.4748 95.3793 37.6221 89.6508 37.6221 82.3443C37.6221 75.0378 41.4748 69.3093 46.3946 69.3093C51.3144 69.3093 55.1672 75.0378 55.1672 82.3443C55.1672 83.09 54.5674 83.6912 53.8234 83.6912C53.0793 83.6912 52.4795 83.09 52.4795 82.3443C52.4795 76.7372 49.6937 72.003 46.4004 72.003C43.1071 72.003 40.3213 76.7372 40.3213 82.3443C40.3213 87.9514 43.1071 92.6856 46.4004 92.6856C47.1444 92.6856 47.7443 93.2868 47.7443 94.0325C47.7443 94.7781 47.1444 95.3793 46.4004 95.3793H46.3946Z" fill="#0053CC"/>
<path d="M66.7487 95.3793C61.8289 95.3793 57.9761 89.6508 57.9761 82.3443C57.9761 75.0378 61.8289 69.3093 66.7487 69.3093C71.6685 69.3093 75.5212 75.0378 75.5212 82.3443C75.5212 83.09 74.9214 83.6912 74.1774 83.6912C73.4333 83.6912 72.8335 83.09 72.8335 82.3443C72.8335 76.7372 70.0477 72.003 66.7544 72.003C63.4611 72.003 60.6753 76.7372 60.6753 82.3443C60.6753 87.9514 63.4611 92.6856 66.7544 92.6856C67.4984 92.6856 68.0983 93.2868 68.0983 94.0325C68.0983 94.7781 67.4984 95.3793 66.7544 95.3793H66.7487Z" fill="#0053CC"/>
<path d="M87.1024 95.3793C82.1826 95.3793 78.3298 89.6508 78.3298 82.3443C78.3298 75.0378 82.1826 69.3093 87.1024 69.3093C92.0222 69.3093 95.875 75.0378 95.875 82.3443C95.875 83.09 95.2752 83.6912 94.5311 83.6912C93.7871 83.6912 93.1873 83.09 93.1873 82.3443C93.1873 76.7372 90.4015 72.003 87.1082 72.003C83.8149 72.003 81.0291 76.7372 81.0291 82.3443C81.0291 87.9514 83.8149 92.6856 87.1082 92.6856C87.8522 92.6856 88.452 93.2868 88.452 94.0325C88.452 94.7781 87.8522 95.3793 87.1082 95.3793H87.1024Z" fill="#0053CC"/>
<path d="M107.457 95.3793C102.537 95.3793 98.6899 89.6508 98.6899 82.3443C98.6899 75.0378 102.543 69.3093 107.457 69.3093C112.371 69.3093 116.229 75.0378 116.229 82.3443C116.229 83.09 115.63 83.6912 114.885 83.6912C114.141 83.6912 113.542 83.09 113.542 82.3443C113.542 76.7372 110.756 72.003 107.463 72.003C104.169 72.003 101.383 76.7372 101.383 82.3443C101.383 87.9514 104.169 92.6856 107.463 92.6856C108.207 92.6856 108.806 93.2868 108.806 94.0325C108.806 94.7781 108.207 95.3793 107.463 95.3793H107.457Z" fill="#0053CC"/>
<path d="M127.805 95.3793C122.885 95.3793 119.032 89.6508 119.032 82.3443C119.032 75.0378 122.885 69.3093 127.805 69.3093C132.725 69.3093 136.572 75.0378 136.572 82.3443C136.572 83.09 135.972 83.6912 135.228 83.6912C134.484 83.6912 133.884 83.09 133.884 82.3443C133.884 76.7372 131.098 72.003 127.805 72.003C124.511 72.003 121.726 76.7372 121.726 82.3443C121.726 87.9514 124.511 92.6856 127.805 92.6856C128.549 92.6856 129.149 93.2868 129.149 94.0325C129.149 94.7781 128.549 95.3793 127.805 95.3793Z" fill="#0053CC"/>
<path d="M148.159 95.3793C143.239 95.3793 139.392 89.6508 139.392 82.3443C139.392 75.0378 143.245 69.3093 148.159 69.3093C153.073 69.3093 156.926 75.0378 156.926 82.3443C156.926 83.09 156.326 83.6912 155.582 83.6912C154.838 83.6912 154.238 83.09 154.238 82.3443C154.238 76.7372 151.452 72.003 148.159 72.003C144.866 72.003 142.08 76.7372 142.08 82.3443C142.08 87.9514 144.866 92.6856 148.159 92.6856C148.903 92.6856 149.503 93.2868 149.503 94.0325C149.503 94.7781 148.903 95.3793 148.159 95.3793Z" fill="#0053CC"/>
<path d="M58.2249 116.966C59.7964 119.044 60.021 119.452 62.1508 121.405C62.6522 121.864 63.4042 121.122 62.9028 120.659C61.1485 119.038 60.6545 118.423 59.1441 116.435C58.7376 115.9 57.8146 116.423 58.2249 116.966Z" fill="#0053CC"/>
<path d="M63.0109 121.28C65.4669 117.097 69.7783 113.527 73.8437 110.795C74.4525 110.384 73.8729 109.415 73.2558 109.83C69.0194 112.678 64.5662 116.355 62.006 120.714C61.6391 121.34 62.644 121.903 63.0151 121.276L63.0109 121.28Z" fill="#0053CC"/>
<path d="M100.5 228.864C165.449 228.864 218.1 216.39 218.1 201.003C218.1 185.615 165.449 173.141 100.5 173.141C35.5512 173.141 -17.1001 185.615 -17.1001 201.003C-17.1001 216.39 35.5512 228.864 100.5 228.864Z" fill="#F5F5F5"/>
</g>
<defs>
<clipPath id="clip0_406_5188">
<rect x="0.5" width="200" height="200" rx="24" fill="white"/>
</clipPath>
</defs>
</svg>
