<svg width="193" height="193" viewBox="0 0 193 193" fill="none" xmlns="http://www.w3.org/2000/svg">
<g clip-path="url(#clip0_1_6014)">
<rect width="193" height="193" rx="24" fill="#FAFAFA"/>
<path d="M120.466 97.9965H173.768V24.8411H120.466V97.9965Z" fill="#E0E0E0"/>
<path d="M118.278 97.9965H174.124V24.8411H118.278V97.9965Z" fill="#F0F0F0"/>
<path d="M121.281 94.5157H171.234V27.2536H121.281V94.5157Z" fill="#E0E0E0"/>
<path d="M165.356 38.8867C165.393 39.0378 165.607 39.0378 165.644 38.8867C166.17 36.749 166.749 36.1699 168.887 35.6443C169.038 35.6072 169.038 35.3928 168.887 35.3557C166.749 34.8301 166.17 34.251 165.644 32.1133C165.607 31.9622 165.393 31.9622 165.356 32.1133C164.83 34.251 164.251 34.8301 162.113 35.3557C161.962 35.3928 161.962 35.6072 162.113 35.6443C164.251 36.1699 164.83 36.749 165.356 38.8867Z" fill="white"/>
<path d="M138.356 90.8867C138.393 91.0378 138.607 91.0378 138.644 90.8867C139.17 88.749 139.749 88.1699 141.887 87.6443C142.038 87.6072 142.038 87.3928 141.887 87.3557C139.749 86.8301 139.17 86.251 138.644 84.1133C138.607 83.9622 138.393 83.9622 138.356 84.1133C137.83 86.251 137.251 86.8301 135.113 87.3557C134.962 87.3928 134.962 87.6072 135.113 87.6443C137.251 88.1699 137.83 88.749 138.356 90.8867Z" fill="white"/>
<path d="M159.918 48.9352C159.939 49.0216 160.061 49.0216 160.082 48.9352C160.383 47.7137 160.714 47.3828 161.935 47.0825C162.022 47.0613 162.022 46.9387 161.935 46.9175C160.714 46.6172 160.383 46.2863 160.082 45.0648C160.061 44.9784 159.939 44.9784 159.918 45.0648C159.617 46.2863 159.286 46.6172 158.065 46.9175C157.978 46.9387 157.978 47.0613 158.065 47.0825C159.286 47.3828 159.617 47.7137 159.918 48.9352Z" fill="white"/>
<path d="M164.918 62.9352C164.939 63.0216 165.061 63.0216 165.082 62.9352C165.383 61.7137 165.714 61.3828 166.935 61.0825C167.022 61.0613 167.022 60.9387 166.935 60.9175C165.714 60.6172 165.383 60.2863 165.082 59.0648C165.061 58.9784 164.939 58.9784 164.918 59.0648C164.617 60.2863 164.286 60.6172 163.065 60.9175C162.978 60.9387 162.978 61.0613 163.065 61.0825C164.286 61.3828 164.617 61.7137 164.918 62.9352Z" fill="white"/>
<path d="M148.918 58.9352C148.939 59.0216 149.061 59.0216 149.082 58.9352C149.383 57.7137 149.714 57.3828 150.935 57.0825C151.022 57.0613 151.022 56.9387 150.935 56.9175C149.714 56.6172 149.383 56.2863 149.082 55.0648C149.061 54.9784 148.939 54.9784 148.918 55.0648C148.617 56.2863 148.286 56.6172 147.065 56.9175C146.978 56.9387 146.978 57.0613 147.065 57.0825C148.286 57.3828 148.617 57.7137 148.918 58.9352Z" fill="white"/>
<path d="M163.438 76.9514C163.454 77.0162 163.546 77.0162 163.562 76.9514C163.787 76.0353 164.035 75.7871 164.951 75.5618C165.016 75.5459 165.016 75.4541 164.951 75.4382C164.035 75.2129 163.787 74.9647 163.562 74.0486C163.546 73.9838 163.454 73.9838 163.438 74.0486C163.213 74.9647 162.965 75.2129 162.049 75.4382C161.984 75.4541 161.984 75.5459 162.049 75.5618C162.965 75.7871 163.213 76.0353 163.438 76.9514Z" fill="white"/>
<path d="M121.281 94.5157H123.165L123.165 27.2536H121.281L121.281 94.5157Z" fill="#E0E0E0"/>
<path d="M122.963 69.4202V71.3035H171.402V69.4202H122.963Z" fill="#E0E0E0"/>
<path d="M121.281 69.4249H172.246V66.2628H121.281V69.4249Z" fill="#F0F0F0"/>
<path d="M143.646 46.0159C143.646 46.2923 143.426 46.5124 143.149 46.5124C142.873 46.5124 142.653 46.2923 142.653 46.0159C142.653 45.7395 142.873 45.5193 143.149 45.5193C143.426 45.5193 143.646 45.7395 143.646 46.0159Z" fill="#FAFAFA"/>
<path d="M128.884 35.6112C128.884 36.9182 127.826 37.977 126.519 37.977C125.212 37.977 124.153 36.9182 124.153 35.6112C124.153 34.3042 125.212 33.2455 126.519 33.2455C127.826 33.2455 128.884 34.3042 128.884 35.6112Z" fill="#FAFAFA"/>
<path d="M132.81 53.8297C132.81 54.3825 132.365 54.8276 131.812 54.8276C131.26 54.8276 130.815 54.3825 130.815 53.8297C130.815 53.277 131.26 52.8319 131.812 52.8319C132.365 52.8319 132.81 53.277 132.81 53.8297Z" fill="#FAFAFA"/>
<path d="M139.813 75.5899C139.813 76.2129 139.307 76.7142 138.689 76.7142C138.071 76.7142 137.565 76.2083 137.565 75.5899C137.565 74.9715 138.071 74.4656 138.689 74.4656C139.307 74.4656 139.813 74.9715 139.813 75.5899Z" fill="#FAFAFA"/>
<path d="M152.739 36.3044C151.984 38.3563 150.279 40.099 148.077 40.8157C144.62 41.9353 141.228 40.0849 140.507 36.6838C139.931 33.9808 141.219 31.1138 143.51 29.4929C143.07 30.6594 142.948 31.9336 143.21 33.1657C143.932 36.562 147.323 38.4078 150.78 37.2929C151.493 37.0633 152.153 36.7213 152.739 36.3044Z" fill="#FAFAFA"/>
<path opacity="0.2" d="M-28.7038 202.592C-23.3575 172.006 29.0876 135.662 74.8363 141.549C120.585 147.437 151.205 191.973 153.624 197.045" stroke="url(#paint0_linear_1_6014)" stroke-width="11.8685"/>
<path d="M17.8351 38.9652H-8.42236V67.7992H17.8351V38.9652Z" fill="#E0E0E0"/>
<path d="M20.6787 38.9652H-6.44537V67.7992H20.6787V38.9652Z" fill="#F5F5F5"/>
<path d="M18.4064 65.5319V41.2421H-4.17358V65.5319H18.4064Z" fill="white"/>
<path d="M12.9345 59.6385V47.1259H1.30257V59.6385H12.9345Z" fill="#F5F5F5"/>
<path d="M45.114 56.1578H25.6353V77.5479H45.114V56.1578Z" fill="#E0E0E0"/>
<path d="M47.2219 56.1578H27.1014V77.5479H47.2219V56.1578Z" fill="#F5F5F5"/>
<path d="M45.5353 75.8615V57.8444H28.7877V75.8615H45.5353Z" fill="white"/>
<path d="M37.1641 62.2994L32.5825 70.2352H41.7456L37.1641 62.2994Z" fill="#F5F5F5"/>
<path d="M179.385 173.536H163.869V173.653H179.385V173.536Z" fill="#EBEBEB"/>
<path d="M123.788 174.806H119.717V174.923H123.788V174.806Z" fill="#EBEBEB"/>
<path d="M163.401 169.184H154.411V169.301H163.401V169.184Z" fill="#EBEBEB"/>
<path d="M13.4317 169.971H-6.8013V170.088H13.4317V169.971Z" fill="#EBEBEB"/>
<path d="M20.5709 169.971H17.6055V170.088H20.5709V169.971Z" fill="#EBEBEB"/>
<path d="M74.0976 171.953H30.2119V172.07H74.0976V171.953Z" fill="#EBEBEB"/>
<path d="M202.855 165.994H-31.377V166.111H202.855V165.994Z" fill="#EBEBEB"/>
<path d="M79.6537 144.768H-10.8068C-12.2824 144.768 -13.4817 143.569 -13.4817 142.093V14.9377C-13.4817 13.4621 -12.2824 12.2628 -10.8068 12.2628H79.6537C81.1294 12.2628 82.3286 13.4621 82.3286 14.9377V142.093C82.3286 143.569 81.1294 144.768 79.6537 144.768ZM-10.8068 12.3799C-12.2168 12.3799 -13.3646 13.5277 -13.3646 14.9377V142.093C-13.3646 143.503 -12.2168 144.651 -10.8068 144.651H79.6537C81.0638 144.651 82.2115 143.503 82.2115 142.093V14.9377C82.2115 13.5277 81.0638 12.3799 79.6537 12.3799H-10.8068Z" fill="#EBEBEB"/>
<path d="M180.983 145.1H90.5223C89.0466 145.1 87.8474 143.901 87.8474 142.426V15.2703C87.8474 13.7946 89.0466 12.5953 90.5223 12.5953H180.983C182.458 12.5953 183.658 13.7946 183.658 15.2703V142.426C183.658 143.901 182.458 145.1 180.983 145.1ZM90.5223 12.7171C89.1122 12.7171 87.9645 13.8649 87.9645 15.275V142.43C87.9645 143.84 89.1122 144.988 90.5223 144.988H180.983C182.393 144.988 183.541 143.84 183.541 142.43V15.2703C183.541 13.8602 182.393 12.7125 180.983 12.7125H90.5223V12.7171Z" fill="#EBEBEB"/>
<path d="M79.9816 117.485C80.4219 118.618 81.7008 119.18 82.8345 118.74C83.9682 118.3 84.5304 117.021 84.09 115.887C83.6496 114.753 82.3707 114.191 81.237 114.632C80.1034 115.072 79.5412 116.351 79.9816 117.485Z" fill="#F5F5F5"/>
<path d="M152.308 87.9854C152.632 87.9854 152.894 87.7232 152.894 87.3998C152.894 87.0764 152.632 86.8142 152.308 86.8142C151.985 86.8142 151.723 87.0764 151.723 87.3998C151.723 87.7232 151.985 87.9854 152.308 87.9854Z" fill="#FAFAFA"/>
<path d="M101.948 31.1115C102.627 30.0575 100.055 27.4997 100.041 26.4597C100.022 25.4197 100.257 25.9818 100.617 24.1501C100.983 22.3138 96.9445 23.8597 96.9257 19.2547C96.9164 17.8071 93.2436 19.0158 92.4847 18.4208C91.7211 17.8306 92.4144 16.5235 90.7842 15.4554C89.1539 14.392 86.8678 16.8046 85.4109 16.2846C83.7525 15.6944 83.9914 14.6263 82.6844 15.1322C81.3774 15.6335 80.0751 17.5916 77.3486 17.7134C74.6221 17.8306 73.6758 18.3646 73.6758 19.7325C73.6758 21.1004 73.5587 22.0608 71.0384 23.8644C68.5227 25.668 69.647 28.0337 70.8323 29.9357C72.0175 31.8376 69.5299 32.5356 69.1692 33.9598C68.8132 35.3792 72.1393 37.1594 72.3735 38.5039C72.6124 39.8437 70.8323 41.7878 73.6758 43.9193C76.5241 46.0462 76.5241 43.9287 77.8264 45.1092C79.1288 46.2898 82.3284 48.7914 83.4808 48.2901C84.6285 47.7888 86.3665 47.2501 87.1957 47.4843C88.0249 47.7233 91.6508 47.5827 91.871 45.8166C92.0959 44.0552 94.1946 43.3337 95.4875 43.4977C96.7805 43.6617 96.9117 40.1435 97.1693 39.066C97.427 37.9886 99.2915 38.4758 100.411 37.0189C101.526 35.5619 99.8864 34.2034 100.041 33.5101C100.196 32.8167 101.268 32.1749 101.948 31.1209V31.1115ZM94.0306 33.4164C94.1196 33.6693 94.0821 33.9551 93.9931 34.2081C93.7495 34.9154 93.1031 35.4917 92.3957 35.6088C92.049 35.6697 91.7492 35.9086 91.6742 36.2506C91.5993 36.5926 91.4072 36.9158 91.1402 37.1453C90.7045 37.5388 90.1049 37.7122 89.5193 37.7309C89.2898 37.7403 89.0649 37.7309 88.84 37.7075C88.4137 37.6653 88.039 37.9745 87.9453 38.3961C87.8937 38.621 87.7813 38.8365 87.6173 38.9958C87.2332 39.3659 86.6383 39.4689 86.1136 39.3518C85.9074 39.305 85.7247 39.2206 85.5608 39.1129C85.2375 38.9114 84.8066 38.9302 84.5302 39.1925C84.3428 39.3659 84.0945 39.483 83.8415 39.5111C83.3356 39.5626 82.825 39.3143 82.4689 38.9489C82.3331 38.8084 82.23 38.6397 82.141 38.4617C81.9442 38.0635 81.4992 37.8761 81.0776 38.0167C80.6653 38.1525 80.1922 38.1197 79.8174 37.8855C79.4567 37.6607 79.2084 37.2765 79.1288 36.8689C79.0585 36.5129 78.8102 36.2084 78.4542 36.1522C78.0935 36.096 77.7421 35.8899 77.5219 35.5947C77.1331 35.0747 77.0909 34.3627 77.2549 33.7396C77.3252 33.4679 77.461 33.2196 77.6156 32.9854C77.8639 32.6106 77.7655 32.1187 77.4142 31.833C77.1612 31.6268 76.9738 31.327 76.9223 31.0038C76.8286 30.376 77.1472 29.7436 77.5969 29.3032C77.8124 29.0924 78.1544 28.8769 78.5104 28.6708C78.9086 28.446 79.007 27.9494 78.7915 27.5465C78.6697 27.3216 78.6135 27.0546 78.6556 26.8016C78.754 26.1973 79.2693 25.7289 79.8455 25.5181C80.2859 25.3541 80.7543 25.3119 81.2275 25.3072C81.4805 25.3072 81.7053 25.1761 81.8693 24.984C82.2909 24.4734 83.017 24.1642 83.6635 24.1267C84.1741 24.0986 84.7597 24.286 85.2282 24.6045C85.5842 24.8481 86.0714 24.7591 86.3478 24.4265C86.479 24.2626 86.6289 24.1127 86.7928 23.9815C87.2051 23.6536 87.7438 23.4662 88.2545 23.5692C88.5824 23.6395 89.0274 23.8878 89.2991 24.197C89.5006 24.4265 89.8004 24.5202 90.0955 24.45C90.5406 24.3422 90.9762 24.539 91.3557 24.8013C92.4894 25.5743 92.0584 26.4925 92.3816 26.5159C92.7095 26.5393 93.0281 26.7267 93.1593 27.0218C93.2858 27.3216 93.2061 27.6777 93.0328 27.9541C93.0328 27.9541 93.0328 27.9588 93.0281 27.9634C92.7798 28.3476 92.9344 28.8441 93.3092 29.1065C93.787 29.4391 94.1337 29.9778 94.2086 30.5587C94.2883 31.1724 94.2555 31.8939 93.9557 32.4185C93.7964 32.6949 93.8479 33.0275 93.9931 33.3086C94.0119 33.3461 94.0259 33.3836 94.04 33.421L94.0306 33.4164Z" fill="#52C41A"/>
<path d="M74.9504 33.0322L75.4282 33.9973L76.4916 34.1519L75.7233 34.9061L75.9014 35.9695L74.9504 35.4682L73.9947 35.9695L74.1774 34.9061L73.4044 34.1519L74.4725 33.9973L74.9504 33.0322Z" fill="#FFCB32"/>
<path d="M93.7263 37.328L94.1994 38.293L95.2675 38.4476L94.4946 39.1972L94.6773 40.2606L93.7263 39.7593L92.7706 40.2606L92.9533 39.1972L92.1804 38.4476L93.2485 38.293L93.7263 37.328Z" fill="#FFCB32"/>
<path d="M80.4311 42.0221L80.909 42.9918L81.9724 43.1464L81.2041 43.896L81.3821 44.9594L80.4311 44.4581L79.4755 44.9594L79.6582 43.896L78.8899 43.1464L79.9533 42.9918L80.4311 42.0221Z" fill="#F0F0F0"/>
<path d="M95.6705 21.5127C95.6705 22.3935 94.9584 23.1102 94.073 23.1102C93.1876 23.1102 92.4756 22.3981 92.4756 21.5127C92.4756 20.6273 93.1876 19.9153 94.073 19.9153C94.9584 19.9153 95.6705 20.6273 95.6705 21.5127Z" fill="#01A6FF"/>
<path d="M79.4427 21.6016C79.4427 22.5291 78.6884 23.2834 77.7609 23.2834C76.8333 23.2834 76.0791 22.5291 76.0791 21.6016C76.0791 20.674 76.8333 19.9198 77.7609 19.9198C78.6884 19.9198 79.4427 20.674 79.4427 21.6016Z" fill="#01A6FF"/>
<path d="M76.2247 38.7943C76.2247 39.2299 75.8687 39.586 75.433 39.586C74.9973 39.586 74.6413 39.2299 74.6413 38.7943C74.6413 38.3586 74.9973 38.0026 75.433 38.0026C75.8687 38.0026 76.2247 38.3586 76.2247 38.7943Z" fill="#01A6FF"/>
<path d="M88.7516 44.472C88.7516 44.9077 88.3956 45.2637 87.9599 45.2637C87.5242 45.2637 87.1682 44.9077 87.1682 44.472C87.1682 44.0363 87.5242 43.6803 87.9599 43.6803C88.3956 43.6803 88.7516 44.0363 88.7516 44.472Z" fill="#F0F0F0"/>
<path d="M97.5723 33.955C97.5723 34.3907 97.2163 34.7467 96.7806 34.7467C96.345 34.7467 95.9889 34.3907 95.9889 33.955C95.9889 33.5194 96.345 33.1633 96.7806 33.1633C97.2163 33.1633 97.5723 33.5194 97.5723 33.955Z" fill="#FAFAFA"/>
<path d="M86.5306 39.1268C86.5306 39.1268 95.1082 39.2955 93.4779 34.2689C91.8476 29.2422 85.5515 38.1243 85.5515 38.1243C84.1508 34.9153 77.4096 29.8512 77.7188 35.2667C78.028 40.6821 84.4272 39.2627 84.4272 39.2627C79.6535 43.9661 75.1516 43.952 75.1516 43.952L75.442 45.3949C81.0261 46.1023 85.4484 39.6468 85.4484 39.6468C89.5943 44.8889 95.4267 45.6947 95.4267 45.6947L95.319 44.027C91.1918 43.6569 86.5306 39.1222 86.5306 39.1222V39.1268ZM91.1871 34.8638C92.63 36.8407 86.7367 38.2086 86.7367 38.2086C86.7367 38.2086 89.7442 32.8869 91.1871 34.8638ZM80.3187 35.0652C80.642 33.7442 84.5443 38.1946 84.5443 38.1946C84.5443 38.1946 79.6863 37.6559 80.3187 35.0652Z" fill="#FFE950"/>
<path d="M85.0973 40.0873C87.6036 41.6894 85.0129 47.2313 86.2918 48.7773C87.5708 50.3232 87.7441 50.5012 86.0904 50.965C84.4367 51.4241 75.1424 47.6436 75.7701 47.0065C76.4026 46.3741 78.1921 46.7582 79.1009 44.9031C80.5953 41.8674 83.2234 38.888 85.0926 40.0873H85.0973Z" fill="#FAAD14"/>
<path d="M86.4371 39.8343C89.3837 39.4314 90.9999 45.3294 92.9768 45.6807C94.9538 46.0321 95.2021 46.0555 94.237 47.4796C93.2767 48.8991 83.7434 52.0425 83.8137 51.1477C83.8839 50.2529 85.4955 49.391 84.9895 47.3859C84.1603 44.1067 84.2353 40.1341 86.4324 39.8343H86.4371Z" fill="#FFCB32"/>
<path d="M100.566 28.5817C100.566 28.5817 101.025 27.8181 100.908 26.9889C100.791 26.1598 99.0622 25.6538 99.0622 25.6538C99.0622 25.6538 97.8863 25.6398 97.3429 26.5392L96.7948 27.4387C96.7948 27.4387 99.7462 28.8675 100.421 28.4459L100.571 28.5864L100.566 28.5817Z" fill="#FF2323"/>
<path d="M97.1881 30.9006C96.3355 29.8513 96.0685 27.9774 97.0054 27.2138C97.9423 26.4502 99.7225 27.092 100.58 28.1414C101.432 29.1907 100.706 29.8466 99.7693 30.6055C98.8324 31.3691 98.0454 31.95 97.1881 30.9006Z" fill="#FF2323"/>
<path d="M100.327 29.2517C100.327 29.2517 99.1558 29.1627 97.83 30.5821C97.83 30.5821 99.1792 27.256 100.327 29.2517Z" fill="#FF2323"/>
<path d="M99.8068 29.9263C99.8068 29.9263 99.0339 30.6758 98.7715 30.3198C98.7715 30.3198 98.0548 30.8679 98.3686 31.1068C98.6825 31.3504 99.8068 29.9263 99.8068 29.9263Z" fill="#FF2323"/>
<path d="M98.4342 25.7288C97.769 25.429 96.9445 25.607 96.3917 26.0848C95.8436 26.5627 95.5578 27.3028 95.5484 28.0336C95.5391 28.7644 95.7827 29.4765 96.1574 30.1043C96.2511 30.2682 96.5041 30.6664 96.7524 30.5868C96.9773 30.5118 96.9164 30.1698 96.921 29.9918C96.9304 29.4671 96.9726 28.9565 97.0944 28.4459C97.2115 27.9493 97.3848 27.4668 97.6097 27.0124C97.6753 26.8859 98.3217 25.682 98.4389 25.7335L98.4342 25.7288Z" fill="#FF2323"/>
<path d="M95.6797 30.8539C95.1832 30.5306 94.8787 29.9357 94.9068 29.3407C94.9255 28.9519 95.0754 28.5818 95.2347 28.2305C95.3471 27.9869 95.5204 27.7058 95.7922 27.7011C96.0826 27.6964 96.2653 28.0056 96.3824 28.2726C96.5604 28.6849 96.7244 29.1018 96.879 29.5281C97.0055 29.8748 97.2959 30.3995 97.2912 30.7695C97.2912 31.1162 96.9633 31.1349 96.6026 31.1303C96.2794 31.1303 95.9561 31.0319 95.6844 30.8539H95.6797Z" fill="#FF2323"/>
<path d="M100.327 29.2517C100.327 29.2517 99.1559 29.1627 97.8302 30.5821C97.8302 30.5821 99.1794 27.256 100.327 29.2517Z" fill="#FF4D4F"/>
<path d="M99.807 29.9263C99.807 29.9263 99.034 30.6758 98.7717 30.3198C98.7717 30.3198 98.0549 30.8679 98.3688 31.1068C98.6827 31.3504 99.807 29.9263 99.807 29.9263Z" fill="#FF4D4F"/>
<path d="M98.603 26.5205C98.9965 26.2769 99.5399 26.291 99.924 26.5533C100.21 26.7501 100.664 27.42 100.378 27.7385C99.821 27.242 99.3197 26.7922 98.6077 26.5205H98.603Z" fill="#FF4D4F"/>
<path d="M96.0262 28.3054C95.7358 28.6568 95.6327 29.158 95.7686 29.5937C95.8435 29.8326 96.6118 30.8023 96.6258 30.1652C96.6258 29.9591 96.3073 29.5234 96.237 29.3079C96.1293 28.9847 96.059 28.6474 96.0309 28.3054H96.0262Z" fill="#FF4D4F"/>
<path d="M96.9869 26.736C96.5418 26.6892 96.0874 26.9796 95.9469 27.4059C95.8532 27.181 96.3591 26.5955 96.5137 26.4081C96.9166 25.9209 97.3288 25.963 97.9519 25.8365C97.9519 25.8365 97.104 26.2441 96.9869 26.7407V26.736Z" fill="#FF4D4F"/>
<path d="M70.9126 29.2283C70.9126 29.2283 70.4816 30.0106 70.6315 30.8351C70.7814 31.6596 72.5288 32.0953 72.5288 32.0953C72.5288 32.0953 73.7046 32.0625 74.2153 31.1443L74.7259 30.2261C74.7259 30.2261 71.723 28.9144 71.0672 29.3641L70.9126 29.2283Z" fill="#FF2323"/>
<path d="M74.1961 26.7736C75.0908 27.7901 75.4281 29.6499 74.524 30.451C73.6199 31.2474 71.8116 30.6806 70.9168 29.6687C70.0221 28.6521 70.7248 27.9728 71.6289 27.1718C72.533 26.3707 73.3013 25.7617 74.1961 26.7736Z" fill="#FF2323"/>
<path d="M71.1281 28.5491C71.1281 28.5491 72.304 28.5912 73.5735 27.1202C73.5735 27.1202 72.3555 30.4979 71.1281 28.5491Z" fill="#FF2323"/>
<path d="M71.6199 27.851C71.6199 27.851 72.3648 27.0733 72.6365 27.42C72.6365 27.42 73.3298 26.8438 73.0066 26.6142C72.6834 26.3847 71.6199 27.851 71.6199 27.851Z" fill="#FF2323"/>
<path d="M73.1518 31.9922C73.8263 32.2639 74.6462 32.0578 75.1755 31.5565C75.7049 31.0552 75.9625 30.3057 75.9438 29.5749C75.9251 28.8441 75.6487 28.1414 75.2552 27.5277C75.1521 27.3684 74.8851 26.9796 74.6415 27.0686C74.4166 27.1483 74.4962 27.4902 74.4962 27.6729C74.5056 28.1976 74.4869 28.7082 74.3885 29.2236C74.2948 29.7248 74.1402 30.212 73.9294 30.6758C73.8732 30.807 73.2689 32.0343 73.1471 31.9828L73.1518 31.9922Z" fill="#FF2323"/>
<path d="M75.7048 26.7595C76.2107 27.064 76.5387 27.6449 76.534 28.2399C76.534 28.6287 76.3981 29.0035 76.2482 29.3642C76.1452 29.6125 75.9859 29.8982 75.7142 29.917C75.4237 29.9357 75.227 29.6312 75.1005 29.3689C74.9084 28.9613 74.7257 28.5537 74.5571 28.1368C74.4165 27.7948 74.1073 27.2842 74.0933 26.9141C74.0839 26.5674 74.4071 26.5393 74.7679 26.5253C75.0911 26.5159 75.419 26.5955 75.7001 26.7642L75.7048 26.7595Z" fill="#FF2323"/>
<path d="M71.1281 28.5491C71.1281 28.5491 72.304 28.5912 73.5735 27.1202C73.5735 27.1202 72.3555 30.4979 71.1281 28.5491Z" fill="#FF4D4F"/>
<path d="M71.6199 27.851C71.6199 27.851 72.3648 27.0733 72.6365 27.42C72.6365 27.42 73.3298 26.8438 73.0066 26.6142C72.6834 26.3847 71.6199 27.851 71.6199 27.851Z" fill="#FF4D4F"/>
<path d="M72.955 31.2099C72.5708 31.4722 72.0274 31.4769 71.6339 31.2286C71.3434 31.0459 70.8609 30.3901 71.1326 30.0621C71.7088 30.5353 72.2288 30.9663 72.9503 31.2099H72.955Z" fill="#FF4D4F"/>
<path d="M75.4614 29.3219C75.7378 28.9612 75.8221 28.4553 75.6675 28.0243C75.5832 27.7854 74.7774 26.8531 74.7915 27.4856C74.7915 27.6917 75.1334 28.1133 75.2131 28.3288C75.3349 28.6474 75.4192 28.9847 75.4614 29.3219Z" fill="#FF4D4F"/>
<path d="M74.5619 30.9288C75.0069 30.9616 75.4519 30.6477 75.5737 30.2214C75.6768 30.4416 75.1943 31.0459 75.0444 31.238C74.6649 31.7393 74.248 31.7158 73.6296 31.8657C73.6296 31.8657 74.4635 31.4254 74.5572 30.9241L74.5619 30.9288Z" fill="#FF4D4F"/>
<path d="M84.3481 16.5845C84.3481 16.5845 83.458 16.5845 82.8068 17.1185C82.1557 17.6479 82.6241 19.3906 82.6241 19.3906C82.6241 19.3906 83.2237 20.4025 84.2731 20.4025H85.3225C85.3225 20.4025 85.0133 17.1373 84.3012 16.7859L84.3434 16.5845H84.3481Z" fill="#FF2323"/>
<path d="M88.0863 18.2615C87.6319 19.5357 86.1703 20.735 85.0319 20.3321C83.8935 19.9292 83.5141 18.0741 83.9685 16.7999C84.4229 15.5256 85.3598 15.8067 86.4982 16.2143C87.6366 16.6218 88.5407 16.9919 88.091 18.2662L88.0863 18.2615Z" fill="#FF2323"/>
<path d="M85.0459 16.4392C85.0459 16.4392 85.5799 17.4886 87.4819 17.8821C87.4819 17.8821 83.9356 18.4583 85.0459 16.4392Z" fill="#FF2323"/>
<path d="M85.8937 16.5328C85.8937 16.5328 86.9337 16.8045 86.7651 17.2121C86.7651 17.2121 87.6036 17.54 87.6458 17.1465C87.688 16.753 85.8937 16.5328 85.8937 16.5328Z" fill="#FF2323"/>
<path d="M83.0171 19.8824C83.1061 20.6038 83.687 21.2175 84.3804 21.4423C85.0737 21.6625 85.856 21.522 86.4838 21.1519C87.1115 20.7818 87.594 20.2009 87.9407 19.5544C88.0297 19.3858 88.2405 18.9642 88.0437 18.7955C87.8657 18.6409 87.6034 18.8705 87.4488 18.9642C86.9944 19.2265 86.5353 19.4561 86.0387 19.62C85.5562 19.7793 85.0549 19.8824 84.5443 19.9245C84.4038 19.9386 83.0359 20.0042 83.0218 19.8777L83.0171 19.8824Z" fill="#FF2323"/>
<path d="M88.8309 19.5779C88.8121 20.1681 88.4608 20.7397 87.9408 21.0207C87.5988 21.2081 87.2053 21.269 86.8211 21.3159C86.5541 21.3487 86.2262 21.344 86.081 21.1144C85.9217 20.8708 86.095 20.5523 86.2637 20.3133C86.526 19.9479 86.7977 19.5919 87.0788 19.2406C87.3084 18.9548 87.6082 18.4301 87.922 18.2427C88.2219 18.0647 88.4046 18.3364 88.5873 18.6456C88.7512 18.9267 88.8402 19.2499 88.8309 19.5732V19.5779Z" fill="#FF2323"/>
<path d="M85.046 16.4392C85.046 16.4392 85.58 17.4886 87.482 17.8821C87.482 17.8821 83.9357 18.4583 85.046 16.4392Z" fill="#FF4D4F"/>
<path d="M85.8938 16.5328C85.8938 16.5328 86.9338 16.8045 86.7652 17.2121C86.7652 17.2121 87.6037 17.54 87.6459 17.1465C87.6881 16.753 85.8938 16.5328 85.8938 16.5328Z" fill="#FF4D4F"/>
<path d="M83.608 19.3344C83.1911 19.1236 82.9241 18.6551 82.9522 18.1913C82.9709 17.8493 83.3129 17.1092 83.7298 17.1888C83.5986 17.9243 83.4722 18.5848 83.608 19.3344Z" fill="#FF4D4F"/>
<path d="M86.4744 20.6038C86.9241 20.6741 87.4066 20.4961 87.7111 20.1541C87.8798 19.9667 88.3061 18.8049 87.758 19.1235C87.58 19.2265 87.3738 19.7278 87.2286 19.9011C87.0084 20.1634 86.7555 20.3977 86.4791 20.5991L86.4744 20.6038Z" fill="#FF4D4F"/>
<path d="M84.629 20.5991C84.8164 21.002 85.3036 21.2409 85.7393 21.1425C85.5987 21.3392 84.8351 21.2081 84.5915 21.1753C83.9685 21.0863 83.7905 20.7115 83.3548 20.243C83.3548 20.243 84.1418 20.7584 84.629 20.5991Z" fill="#FF4D4F"/>
<path d="M124.542 155.379H118.152V157.06H124.542V155.379Z" fill="#E6E6E6"/>
<path d="M174.143 155.379H167.753V157.06H174.143V155.379Z" fill="#E6E6E6"/>
<path d="M129.986 156.217H128.304V166.097H129.986V156.217Z" fill="#E0E0E0"/>
<path d="M169.398 109.834H123.596V113.414H169.398V109.834Z" fill="#E6E6E6"/>
<path d="M169.398 154.428H123.596V158.007H169.398V154.428Z" fill="#E6E6E6"/>
<path d="M125.343 161.515L125.202 161.665C124.687 162.204 123.82 162.204 123.305 161.665L123.165 161.515C122.738 161.07 122.504 160.48 122.504 159.866V110.79C122.504 110.176 122.743 109.586 123.165 109.141L123.305 108.991C123.82 108.452 124.687 108.452 125.202 108.991L125.343 109.141C125.769 109.586 126.003 110.176 126.003 110.79V159.866C126.003 160.48 125.765 161.07 125.343 161.515Z" fill="#F0F0F0"/>
<path d="M130.234 161.515L130.093 161.665C129.573 162.204 128.711 162.204 128.196 161.665L128.055 161.515C127.629 161.07 127.395 160.48 127.395 159.866V110.79C127.395 110.176 127.634 109.586 128.055 109.141L128.196 108.991C128.716 108.452 129.578 108.452 130.093 108.991L130.234 109.141C130.66 109.586 130.894 110.176 130.894 110.79V159.866C130.894 160.48 130.655 161.07 130.234 161.515Z" fill="#F0F0F0"/>
<path d="M135.129 161.515L134.989 161.665C134.469 162.204 133.607 162.204 133.092 161.665L132.951 161.515C132.525 161.07 132.29 160.48 132.29 159.866V110.79C132.29 110.176 132.529 109.586 132.951 109.141L133.092 108.991C133.612 108.452 134.474 108.452 134.989 108.991L135.129 109.141C135.556 109.586 135.79 110.176 135.79 110.79V159.866C135.79 160.48 135.551 161.07 135.129 161.515Z" fill="#F0F0F0"/>
<path d="M140.025 161.515L139.884 161.665C139.364 162.204 138.502 162.204 137.987 161.665L137.847 161.515C137.42 161.07 137.186 160.48 137.186 159.866V110.79C137.186 110.176 137.425 109.586 137.847 109.141L137.987 108.991C138.507 108.452 139.369 108.452 139.884 108.991L140.025 109.141C140.451 109.586 140.686 110.176 140.686 110.79V159.866C140.686 160.48 140.447 161.07 140.025 161.515Z" fill="#F0F0F0"/>
<path d="M144.92 161.515L144.78 161.665C144.26 162.204 143.398 162.204 142.882 161.665L142.742 161.515C142.315 161.07 142.081 160.48 142.081 159.866V110.79C142.081 110.176 142.32 109.586 142.742 109.141L142.882 108.991C143.402 108.452 144.264 108.452 144.78 108.991L144.92 109.141C145.346 109.586 145.581 110.176 145.581 110.79V159.866C145.581 160.48 145.342 161.07 144.92 161.515Z" fill="#F0F0F0"/>
<path d="M149.816 161.515L149.675 161.665C149.16 162.204 148.293 162.204 147.778 161.665L147.637 161.515C147.211 161.07 146.977 160.48 146.977 159.866V110.79C146.977 110.176 147.216 109.586 147.637 109.141L147.778 108.991C148.298 108.452 149.16 108.452 149.675 108.991L149.816 109.141C150.242 109.586 150.476 110.176 150.476 110.79V159.866C150.476 160.48 150.237 161.07 149.816 161.515Z" fill="#F0F0F0"/>
<path d="M154.711 161.515L154.571 161.665C154.051 162.204 153.189 162.204 152.674 161.665L152.533 161.515C152.107 161.07 151.872 160.48 151.872 159.866V110.79C151.872 110.176 152.111 109.586 152.533 109.141L152.674 108.991C153.194 108.452 154.055 108.452 154.571 108.991L154.711 109.141C155.138 109.586 155.372 110.176 155.372 110.79V159.866C155.372 160.48 155.133 161.07 154.711 161.515Z" fill="#F0F0F0"/>
<path d="M159.602 161.515L159.462 161.665C158.942 162.204 158.08 162.204 157.564 161.665L157.424 161.515C156.997 161.07 156.763 160.48 156.763 159.866V110.79C156.763 110.176 157.002 109.586 157.424 109.141L157.564 108.991C158.084 108.452 158.946 108.452 159.462 108.991L159.602 109.141C160.028 109.586 160.263 110.176 160.263 110.79V159.866C160.263 160.48 160.024 161.07 159.602 161.515Z" fill="#F0F0F0"/>
<path d="M163.336 156.217H161.654V166.097H163.336V156.217Z" fill="#E0E0E0"/>
<path d="M164.498 161.515L164.357 161.665C163.837 162.204 162.975 162.204 162.46 161.665L162.319 161.515C161.893 161.07 161.659 160.48 161.659 159.866V110.79C161.659 110.176 161.898 109.586 162.319 109.141L162.46 108.991C162.975 108.452 163.842 108.452 164.357 108.991L164.498 109.141C164.924 109.586 165.158 110.176 165.158 110.79V159.866C165.158 160.48 164.919 161.07 164.498 161.515Z" fill="#F0F0F0"/>
<path d="M169.393 161.515L169.252 161.665C168.732 162.204 167.87 162.204 167.355 161.665L167.214 161.515C166.788 161.07 166.554 160.48 166.554 159.866V110.79C166.554 110.176 166.793 109.586 167.214 109.141L167.355 108.991C167.875 108.452 168.737 108.452 169.252 108.991L169.393 109.141C169.819 109.586 170.053 110.176 170.053 110.79V159.866C170.053 160.48 169.814 161.07 169.393 161.515Z" fill="#F0F0F0"/>
<path d="M174.513 150.675H172.831V166.017H174.513V150.675Z" fill="#F5F5F5"/>
<path opacity="0.2" d="M196.498 8.61463C136.498 3.87457 112.512 88.3734 131.222 106.656C149.932 124.939 174.44 98.2373 151.08 79.2223C118.692 52.8593 55.922 116.65 18.4977 66.6142C8.58821 53.3654 0.496703 21.6149 24.9972 -12.3854" stroke="url(#paint1_linear_1_6014)" stroke-width="11.8685"/>
<path d="M85.7387 197.897C135.903 197.897 176.569 194.114 176.569 189.448C176.569 184.782 135.903 181 85.7387 181C35.5744 181 -5.0918 184.782 -5.0918 189.448C-5.0918 194.114 35.5744 197.897 85.7387 197.897Z" fill="#F5F5F5"/>
<path d="M40.3139 163.943H54.1149L54.1149 125.253H40.3139L40.3139 163.943Z" fill="#515B60"/>
<path opacity="0.2" d="M40.3139 163.943H54.1149L54.1149 125.253H40.3139L40.3139 163.943Z" fill="black"/>
<path d="M64.164 98.9817C64.787 100.701 65.4335 102.406 66.08 104.116C69.0829 112.01 72.2403 119.861 75.7397 127.549C77.5058 131.423 79.3422 135.283 81.4737 138.97C82.5325 140.797 83.7083 142.043 83.3851 144.268C83.0009 146.882 81.4035 149.295 79.0096 150.48C76.1239 151.909 72.3762 151.365 70.0198 149.173C69.3733 152.326 66.6047 154.93 63.4191 155.389C60.2289 155.844 56.8466 154.12 55.3428 151.272C54.1904 154.542 51.0282 157.006 47.5757 157.324C44.1231 157.643 40.5627 155.797 38.8294 152.794C36.726 154.846 34.1588 156.706 31.2216 156.851C28.2843 156.996 25.1081 154.752 25.2159 151.815C23.52 152.953 21.248 153.164 19.3694 152.363C17.4956 151.557 16.0808 149.763 15.7341 147.754C14.1414 148.484 12.0942 148.063 10.9183 146.76C8.18249 143.734 11.3962 139.968 13.017 137.302C15.1111 133.859 17.1302 130.364 19.0555 126.823C23.698 118.282 28.1672 109.307 30.5517 99.8343L64.1593 98.9911L64.164 98.9817Z" fill="#52C41A"/>
<path opacity="0.1" d="M64.164 98.9817C64.787 100.701 65.4335 102.406 66.08 104.116C69.0829 112.01 72.2403 119.861 75.7397 127.549C77.5058 131.423 79.3422 135.283 81.4737 138.97C82.5325 140.797 83.7083 142.043 83.3851 144.268C83.0009 146.882 81.4035 149.295 79.0096 150.48C76.1239 151.909 72.3762 151.365 70.0198 149.173C69.3733 152.326 66.6047 154.93 63.4191 155.389C60.2289 155.844 56.8466 154.12 55.3428 151.272C54.1904 154.542 51.0282 157.006 47.5757 157.324C44.1231 157.643 40.5627 155.797 38.8294 152.794C36.726 154.846 34.1588 156.706 31.2216 156.851C28.2843 156.996 25.1081 154.752 25.2159 151.815C23.52 152.953 21.248 153.164 19.3694 152.363C17.4956 151.557 16.0808 149.763 15.7341 147.754C14.1414 148.484 12.0942 148.063 10.9183 146.76C8.18249 143.734 11.3962 139.968 13.017 137.302C15.1111 133.859 17.1302 130.364 19.0555 126.823C23.698 118.282 28.1672 109.307 30.5517 99.8343L64.1593 98.9911L64.164 98.9817Z" fill="white"/>
<path d="M71.247 117.153C71.7248 118.296 44.4509 149.58 19.0788 127.244" stroke="#52C41A" stroke-width="0.84" stroke-linecap="round" stroke-linejoin="round"/>
<path d="M58.2331 129.071L58.0036 130.209L56.9308 130.664L57.9474 131.235L58.0457 132.392L58.903 131.61L60.0367 131.868L59.5542 130.814L60.1538 129.816L58.9967 129.947L58.2331 129.071Z" fill="#52C41A"/>
<path d="M28.5041 133.615L27.5812 134.323L26.4757 133.962L26.8598 135.058L26.1758 135.995L27.3376 135.967L28.0216 136.909L28.3542 135.798L29.4598 135.438L28.5041 134.777V133.615Z" fill="#52C41A"/>
<path d="M32.2242 186.21H62.2106L66.8953 163.934H27.5396L32.2242 186.21Z" fill="#52C41A"/>
<path opacity="0.4" d="M32.2242 186.21H62.2106L66.8953 163.934H27.5396L32.2242 186.21Z" fill="#FAFAFA"/>
<path d="M26.5882 166.853H67.8411C68.5087 166.853 69.0498 166.312 69.0498 165.644V164.272C69.0498 163.604 68.5087 163.063 67.8411 163.063H26.5882C25.9207 163.063 25.3795 163.604 25.3795 164.272V165.644C25.3795 166.312 25.9207 166.853 26.5882 166.853Z" fill="#52C41A"/>
<path d="M20.0019 109.26C20.1237 108.932 20.2783 108.613 20.4563 108.304C25.4502 99.5437 30.0177 90.7225 34.009 81.4329L43.6219 83.3442V84.6934C43.8233 83.7892 43.9311 83.2646 43.9311 83.2646L61.1706 82.1777C63.274 88.0523 66.3658 93.5801 69.6263 98.8832C70.8725 100.912 72.1514 102.926 73.5005 104.884C74.9013 106.922 76.5081 108.744 74.0346 110.974C72.8869 112.01 70.8256 112.061 69.9309 110.801C69.8418 112.619 69.3593 114.535 68.0101 115.757C66.6657 116.98 64.2718 117.144 63.1475 115.71C63.0351 118.376 61.2315 120.985 58.6643 121.716C56.0971 122.442 53.0052 120.953 52.2651 118.385C51.7076 120.259 50.1617 121.908 48.2269 122.208C46.2921 122.508 44.1419 121.159 43.8983 119.219C43.3221 121.379 40.9563 122.897 38.7546 122.522C36.5528 122.147 34.8241 119.931 34.9975 117.701C33.6342 119.294 31.0296 119.641 29.2963 118.456C27.5629 117.27 26.9399 114.722 27.9283 112.872C26.2044 114.113 24.101 115.415 22.096 114.708C20.9061 114.286 20.0253 113.171 19.7583 111.939C19.5569 111.021 19.6787 110.117 19.9972 109.264L20.0019 109.26Z" fill="#52C41A"/>
<path opacity="0.2" d="M20.0019 109.26C20.1237 108.932 20.2783 108.613 20.4563 108.304C25.4502 99.5437 30.0177 90.7225 34.009 81.4329L43.6219 83.3442V84.6934C43.8233 83.7892 43.9311 83.2646 43.9311 83.2646L61.1706 82.1777C63.274 88.0523 66.3658 93.5801 69.6263 98.8832C70.8725 100.912 72.1514 102.926 73.5005 104.884C74.9013 106.922 76.5081 108.744 74.0346 110.974C72.8869 112.01 70.8256 112.061 69.9309 110.801C69.8418 112.619 69.3593 114.535 68.0101 115.757C66.6657 116.98 64.2718 117.144 63.1475 115.71C63.0351 118.376 61.2315 120.985 58.6643 121.716C56.0971 122.442 53.0052 120.953 52.2651 118.385C51.7076 120.259 50.1617 121.908 48.2269 122.208C46.2921 122.508 44.1419 121.159 43.8983 119.219C43.3221 121.379 40.9563 122.897 38.7546 122.522C36.5528 122.147 34.8241 119.931 34.9975 117.701C33.6342 119.294 31.0296 119.641 29.2963 118.456C27.5629 117.27 26.9399 114.722 27.9283 112.872C26.2044 114.113 24.101 115.415 22.096 114.708C20.9061 114.286 20.0253 113.171 19.7583 111.939C19.5569 111.021 19.6787 110.117 19.9972 109.264L20.0019 109.26Z" fill="white"/>
<path d="M67.1709 94.3157C67.3209 95.0137 35.4231 116.788 24.2596 102.013" stroke="#52C41A" stroke-width="0.84" stroke-linecap="round" stroke-linejoin="round"/>
<path d="M43.3312 106.201L42.947 107.297L41.8227 107.601L42.7503 108.309L42.6894 109.47L43.6497 108.81L44.7319 109.222L44.3993 108.107L45.1301 107.203L43.9683 107.175L43.3312 106.201Z" fill="#52C41A"/>
<path d="M56.2237 64.9524C56.4251 64.9384 57.7977 68.7892 57.9102 69.0609C59.5217 72.8976 61.1894 76.7156 62.9977 80.4633C63.8924 82.3231 64.82 84.1688 65.8366 85.9677C66.2535 86.7032 66.6798 87.434 67.1483 88.1367C67.7854 89.0877 68.7411 89.781 67.434 90.7414C66.9515 91.0974 66.3566 91.2661 65.771 91.3926C65.0823 91.5471 64.3656 91.6549 63.6723 91.5284C62.9789 91.4019 62.2997 91.0084 61.9952 90.3713C61.611 91.7111 61.166 93.0556 60.3508 94.1893C59.5357 95.3183 58.299 96.2177 56.9123 96.3161C55.5257 96.4145 54.0406 95.5385 53.7221 94.1846C53.0522 95.07 52.3073 95.932 51.361 96.5129C50.4147 97.0938 49.2248 97.3702 48.1708 97.0235C47.1167 96.6768 46.2735 95.6087 46.3953 94.5032C45.6364 95.8804 44.1233 96.8689 42.5539 96.8033C40.9845 96.7377 39.4855 95.4776 39.3402 93.9129C38.4033 95.5338 36.2718 96.3583 34.4869 95.7867C32.7021 95.2152 31.4419 93.3133 31.6153 91.4488C30.8891 92.0625 29.8538 92.3716 28.9591 92.0437C28.2985 91.8001 27.7364 91.1068 27.7223 90.3854C27.7036 89.3219 28.9497 87.9353 29.4697 87.0546C30.5753 85.1948 31.6387 83.3069 32.6506 81.3955C35.1943 76.6031 37.5929 71.6093 39.0076 66.3531L56.2143 64.9618L56.2237 64.9524Z" fill="#52C41A"/>
<path opacity="0.3" d="M56.2237 64.9524C56.4251 64.9384 57.7977 68.7892 57.9102 69.0609C59.5217 72.8976 61.1894 76.7156 62.9977 80.4633C63.8924 82.3231 64.82 84.1688 65.8366 85.9677C66.2535 86.7032 66.6798 87.434 67.1483 88.1367C67.7854 89.0877 68.7411 89.781 67.434 90.7414C66.9515 91.0974 66.3566 91.2661 65.771 91.3926C65.0823 91.5471 64.3656 91.6549 63.6723 91.5284C62.9789 91.4019 62.2997 91.0084 61.9952 90.3713C61.611 91.7111 61.166 93.0556 60.3508 94.1893C59.5357 95.3183 58.299 96.2177 56.9123 96.3161C55.5257 96.4145 54.0406 95.5385 53.7221 94.1846C53.0522 95.07 52.3073 95.932 51.361 96.5129C50.4147 97.0938 49.2248 97.3702 48.1708 97.0235C47.1167 96.6768 46.2735 95.6087 46.3953 94.5032C45.6364 95.8804 44.1233 96.8689 42.5539 96.8033C40.9845 96.7377 39.4855 95.4776 39.3402 93.9129C38.4033 95.5338 36.2718 96.3583 34.4869 95.7867C32.7021 95.2152 31.4419 93.3133 31.6153 91.4488C30.8891 92.0625 29.8538 92.3716 28.9591 92.0437C28.2985 91.8001 27.7364 91.1068 27.7223 90.3854C27.7036 89.3219 28.9497 87.9353 29.4697 87.0546C30.5753 85.1948 31.6387 83.3069 32.6506 81.3955C35.1943 76.6031 37.5929 71.6093 39.0076 66.3531L56.2143 64.9618L56.2237 64.9524Z" fill="white"/>
<path d="M60.3039 74.6074C60.3039 74.6074 46.2032 94.9013 31.6292 83.2881" stroke="#52C41A" stroke-width="0.84" stroke-linecap="round" stroke-linejoin="round"/>
<path d="M46.7979 85.9583L46.2826 86.9982L45.1349 87.1669L45.9687 87.9773L45.772 89.1251L46.7979 88.5817L47.8285 89.1251L47.6318 87.9773L48.4656 87.1669L47.3132 86.9982L46.7979 85.9583Z" fill="#52C41A"/>
<path d="M47.2288 44.7382C47.2991 44.9349 46.8587 45.6891 46.7884 45.8672C46.3434 46.9821 45.8749 48.0877 45.3971 49.1839C43.5935 53.3392 41.6166 57.4195 39.5413 61.4389C38.164 64.1045 36.7399 66.7419 35.2736 69.356C34.5803 70.588 33.4044 71.9934 33.3623 73.3754C33.3248 74.6496 33.8869 75.9098 35.0347 76.5516C36.2574 77.2355 37.9111 77.0294 38.9229 76.0597C38.7871 77.8445 40.4876 79.4701 42.2771 79.4654C44.0667 79.4607 45.6829 78.0225 46.1232 76.2892C46.5074 77.6899 48.2313 78.4254 49.6273 78.0319C51.0234 77.6384 52.0399 76.3689 52.499 74.9916C52.8738 75.7646 53.8576 76.0363 54.7149 75.9566C56.5278 75.7833 58.13 74.2795 58.411 72.4806C58.3267 73.0147 63.611 73.7361 61.784 70.9956C60.9829 69.7916 60.1912 68.583 59.4089 67.3697C56.823 63.3409 54.3401 59.2418 52.0587 55.0397C50.2551 51.7136 48.5218 48.3125 47.2335 44.7475L47.2288 44.7382Z" fill="#52C41A"/>
<path opacity="0.4" d="M47.2288 44.7382C47.2991 44.9349 46.8587 45.6891 46.7884 45.8672C46.3434 46.9821 45.8749 48.0877 45.3971 49.1839C43.5935 53.3392 41.6166 57.4195 39.5413 61.4389C38.164 64.1045 36.7399 66.7419 35.2736 69.356C34.5803 70.588 33.4044 71.9934 33.3623 73.3754C33.3248 74.6496 33.8869 75.9098 35.0347 76.5516C36.2574 77.2355 37.9111 77.0294 38.9229 76.0597C38.7871 77.8445 40.4876 79.4701 42.2771 79.4654C44.0667 79.4607 45.6829 78.0225 46.1232 76.2892C46.5074 77.6899 48.2313 78.4254 49.6273 78.0319C51.0234 77.6384 52.0399 76.3689 52.499 74.9916C52.8738 75.7646 53.8576 76.0363 54.7149 75.9566C56.5278 75.7833 58.13 74.2795 58.411 72.4806C58.3267 73.0147 63.611 73.7361 61.784 70.9956C60.9829 69.7916 60.1912 68.583 59.4089 67.3697C56.823 63.3409 54.3401 59.2418 52.0587 55.0397C50.2551 51.7136 48.5218 48.3125 47.2335 44.7475L47.2288 44.7382Z" fill="white"/>
<path d="M52.4055 55.5691C52.4055 55.5691 46.1515 62.9334 39.4478 61.617" stroke="#52C41A" stroke-width="0.84" stroke-linecap="round" stroke-linejoin="round"/>
<path d="M45.1351 61.0548L44.6198 62.0948L43.472 62.2634L44.3012 63.0739L44.1044 64.2216L45.1351 63.6782L46.1657 64.2216L45.9689 63.0739L46.7981 62.2634L45.6504 62.0948L45.1351 61.0548Z" fill="#52C41A"/>
<path d="M35.0817 139.893C36.3391 139.893 37.3585 138.773 37.3585 137.391C37.3585 136.009 36.3391 134.889 35.0817 134.889C33.8243 134.889 32.805 136.009 32.805 137.391C32.805 138.773 33.8243 139.893 35.0817 139.893Z" fill="#52C41A"/>
<path d="M31.0244 108.463C31.0244 109.382 30.3451 110.126 29.5113 110.126C28.6774 110.126 27.9981 109.382 27.9981 108.463C27.9981 107.545 28.6774 106.8 29.5113 106.8C30.3451 106.8 31.0244 107.545 31.0244 108.463Z" fill="#52C41A"/>
<path d="M56.5609 110.768C56.5609 112.15 55.5396 113.27 54.2841 113.27C53.0286 113.27 52.0074 112.15 52.0074 110.768C52.0074 109.386 53.0286 108.267 54.2841 108.267C55.5396 108.267 56.5609 109.386 56.5609 110.768Z" fill="#52C41A"/>
<path d="M51.0045 68.9484C51.0045 69.6558 50.4798 70.232 49.838 70.232C49.1962 70.232 48.6715 69.6558 48.6715 68.9484C48.6715 68.241 49.1962 67.6648 49.838 67.6648C50.4798 67.6648 51.0045 68.241 51.0045 68.9484Z" fill="#52C41A"/>
<path d="M100.198 94.4326L103.801 101.96C103.801 101.96 108.042 106.828 110.18 104.262C113.706 100.019 111.591 86.8194 111.591 86.8194L108.54 86.3429L107.011 96.178C107.011 96.178 103.08 92.6356 100.198 94.4384V94.4326Z" fill="#FF4D4F"/>
<path opacity="0.2" d="M100.198 94.4326L103.801 101.96C103.801 101.96 108.042 106.828 110.18 104.262C113.706 100.019 111.591 86.8194 111.591 86.8194L108.54 86.3429L107.011 96.178C107.011 96.178 103.08 92.6356 100.198 94.4384V94.4326Z" fill="black"/>
<path d="M108.535 86.3429L107.803 82.6913L112.969 81.9966C112.969 81.9966 113.801 85.0798 111.587 86.8137L108.535 86.3371V86.3429Z" fill="#EEC1BB"/>
<path d="M110.28 79.3095L111.914 79.7516C112.588 79.9354 113.045 80.5554 113.01 81.2387L112.945 82.4272L107.796 82.6855L108.441 80.3373C108.658 79.5507 109.478 79.0914 110.28 79.3038V79.3095Z" fill="#EEC1BB"/>
<path d="M100.123 186.865C96.9893 186.669 97.6805 186.394 95.0152 186.268C92.7307 186.164 92.0512 186.061 90.206 186.009C90.1474 186.009 90.0888 186.009 90.0303 185.986C89.6729 185.889 89.4621 185.527 89.5616 185.177L90.4461 181.433L91.1784 173.579L95.7943 173.797L95.0796 181.445C95.1441 181.56 95.1968 181.703 95.3432 181.835C96.6964 183.19 98.0202 184.137 101.658 184.758C102.484 184.901 102.009 186.991 100.123 186.876V186.865Z" fill="#EEC1BB"/>
<path opacity="0.1" d="M100.123 186.865C96.9893 186.669 97.6805 186.394 95.0152 186.268C92.7307 186.164 92.0512 186.061 90.206 186.009C90.1474 186.009 90.0888 186.009 90.0303 185.986C89.6729 185.889 89.4621 185.527 89.5616 185.177L90.4461 181.433L91.1784 173.579L95.7943 173.797L95.0796 181.445C95.1441 181.56 95.1968 181.703 95.3432 181.835C96.6964 183.19 98.0202 184.137 101.658 184.758C102.484 184.901 102.009 186.991 100.123 186.876V186.865Z" fill="black"/>
<path d="M102.138 118.535C105.348 126.677 100.358 167.527 98.284 173.831C97.8798 175.066 95.9175 176.45 95.4079 177.896L90.956 177.345C90.956 177.345 89.8606 174.767 89.7258 172.798C89.4154 168.291 88.6246 119.236 88.6246 119.236L102.138 118.53V118.535Z" fill="#FF4D4F"/>
<path opacity="0.1" d="M89.726 172.804C89.4155 168.297 88.6247 119.242 88.6247 119.242L102.139 118.535C105.349 126.677 100.358 167.527 98.2841 173.832L89.7201 172.804H89.726Z" fill="black"/>
<path opacity="0.2" d="M93.8901 127.986C93.8901 127.986 95.4131 131.724 96.2684 132.838C97.1236 133.951 98.2834 173.832 98.2834 173.832C98.2834 173.832 94.4583 143.276 93.8901 127.986Z" fill="black"/>
<path d="M97.8912 184.132L102.507 184.35L103.474 173.9L98.8636 173.682L97.8912 184.132Z" fill="#EEC1BB"/>
<path d="M101.67 181.473L98.4597 181.359C98.2723 181.347 98.0965 181.473 98.0497 181.651L96.5325 184.539C96.3041 184.97 96.4095 185.969 96.6087 186.411C96.9894 187.255 100.557 186.641 102.841 186.744C105.512 186.876 104.681 186.784 107.809 186.98C109.701 187.094 110.175 185.004 109.349 184.861C105.712 184.235 104.148 183.23 102.794 181.875C102.49 181.606 102.086 181.462 101.676 181.479L101.67 181.473Z" fill="#EEC1BB"/>
<path d="M109.823 118.645C113.033 126.786 108.042 167.631 105.968 173.941C105.564 175.175 103.602 176.559 103.092 178.006L98.6404 177.454C98.6404 177.454 97.545 174.877 97.4103 172.907C97.0998 168.4 96.309 119.345 96.309 119.345L109.823 118.639V118.645Z" fill="#FF4D4F"/>
<path opacity="0.1" d="M97.4046 172.913C97.0941 168.406 96.3033 119.351 96.3033 119.351L109.817 118.645C113.027 126.786 108.036 167.631 105.963 173.941L97.3988 172.913H97.4046Z" fill="black"/>
<path d="M105.166 70.5081C106.086 71.1683 107.093 71.7023 108.159 72.0984C107.937 72.6381 107.486 73.0515 106.929 73.2353L105.166 70.5081Z" fill="#D4827D"/>
<path d="M103.649 69.8477C103.696 69.8133 103.731 69.7616 103.737 69.6984C103.866 69.0037 104.323 68.4124 104.967 68.1023C105.114 68.0449 105.184 67.8841 105.126 67.7406C105.073 67.5971 104.909 67.5282 104.762 67.5798C104.762 67.5798 104.762 67.5798 104.757 67.5798C103.942 67.953 103.357 68.6937 103.187 69.5606C103.152 69.7042 103.245 69.8477 103.392 69.8822H103.403C103.485 69.9051 103.579 69.8822 103.644 69.8305L103.649 69.8477Z" fill="#263238"/>
<path d="M96.8249 78.9995C96.9714 82.1746 96.5555 85.8376 94.3295 87.2902C94.3295 87.2902 95.1906 90.7179 102.794 91.292C111.159 91.9179 107.053 88.2433 107.053 88.2433C103.421 86.6472 101.986 83.8281 102.981 81.3248L99.0626 77.9086C98.4768 77.4378 97.6157 77.5182 97.1354 78.0866C96.9187 78.3393 96.8074 78.6665 96.8249 78.9938V78.9995Z" fill="#EEC1BB"/>
<path d="M110.877 106.892V106.938C110.83 113.167 110.877 121.992 110.877 121.992L108.974 121.504C104.68 120.407 100.281 119.77 95.8522 119.603L88.448 119.328C89.971 110.601 89.9652 106.961 88.6413 94.9036C88.1844 90.7008 89.3501 86.2167 91.6815 85.9698C91.7283 85.9698 91.7811 85.9583 91.8338 85.9583C92.3024 85.9296 92.7769 85.8952 93.2631 85.8837C93.9133 85.855 94.5752 85.8378 95.2371 85.8435C95.3894 85.8435 95.5476 85.8435 95.6999 85.8435H95.7175C96.9066 85.8435 98.0957 85.8665 99.2907 85.9181C101.593 86.0043 106.396 86.4866 106.478 86.4923C107.076 86.7679 107.62 87.1411 108.072 87.5947C108.523 88.0425 108.886 88.5765 109.126 89.1793C110.221 91.9524 112.137 96.9016 112.037 97.2346C112.037 97.2633 111.662 98.4633 111.522 99.003C111.358 99.6058 111.211 100.203 111.077 100.829L110.877 106.892Z" fill="#FF4D4F"/>
<path opacity="0.2" d="M111.076 100.829C110.731 94.5074 108.382 93.5773 107.574 89.9544C107.427 89.3113 106.086 89.518 105.119 89.5582C101.13 89.696 101.915 92.6873 103.696 96.1954C106.08 100.892 110.684 108.585 110.883 106.938L111.082 100.834L111.076 100.829Z" fill="black"/>
<path d="M105.986 80.5728H105.969V80.5843C105.599 80.9862 105.166 81.3479 104.703 81.658C104.322 81.9221 103.918 82.146 103.491 82.3297C103.227 82.4446 102.969 82.5364 102.694 82.6225C101.183 83.0876 99.4898 83.0761 97.8614 82.3871C97.4689 82.2206 97.1116 82.0312 96.7835 81.8302C96.7132 81.7843 96.6429 81.7441 96.5785 81.6924C94.3877 80.2111 93.5969 77.8284 92.0915 74.3031C91.8337 73.7003 91.6931 73.0859 91.6463 72.4716C91.4588 69.7903 93.2162 67.1665 96.0045 66.0297C96.9827 65.6278 98.0898 65.4096 99.2848 65.4326C100.825 65.4613 102.161 65.9895 103.28 66.822C103.678 67.1148 104.053 67.4478 104.393 67.8153C104.563 67.9875 104.721 68.1655 104.879 68.355C105.189 68.7339 105.476 69.1415 105.734 69.5607C105.81 69.6755 105.881 69.7903 105.945 69.9052C106.232 70.4047 106.49 70.9329 106.712 71.4668C106.935 72.0008 107.122 72.5405 107.275 73.0802C107.55 74.0333 107.72 74.9806 107.779 75.8419C107.896 77.6217 107.181 79.2982 105.98 80.5786L105.986 80.5728Z" fill="#EEC1BB"/>
<path d="M107.304 74.016C107.509 74.8312 107.562 75.6752 107.456 76.502L107.445 76.6054C107.415 76.6226 107.386 76.6341 107.357 76.6456C107.316 76.6685 107.275 76.6857 107.234 76.6972C107.199 76.7087 107.163 76.7202 107.122 76.7259C106.736 76.8121 106.402 76.6283 106.144 76.3757C105.939 76.1747 105.781 75.9279 105.67 75.7212C105.594 75.5662 105.541 75.4284 105.523 75.348C105.435 75.0379 105.418 74.7968 105.453 74.6073C105.459 74.5556 105.471 74.5155 105.482 74.4753C105.635 73.9987 106.138 73.9069 106.589 73.9126H106.595C106.677 73.9126 106.759 73.9183 106.824 73.9298C106.841 73.9298 106.859 73.9298 106.882 73.9356C106.976 73.9528 107.058 73.9643 107.122 73.9815C107.234 73.9987 107.304 74.0217 107.304 74.0217V74.016Z" fill="#263238"/>
<path d="M107.123 73.9816V74.5041C105.851 74.7625 105.471 74.5213 105.482 74.4811C105.635 74.0046 106.138 73.9127 106.59 73.9185H106.595C106.677 73.9185 106.759 73.9242 106.824 73.9357C106.841 73.9357 106.859 73.9357 106.882 73.9414C106.976 73.9586 107.058 73.9701 107.123 73.9874V73.9816Z" fill="white"/>
<path d="M107.228 76.7031C106.479 76.9499 105.928 76.2265 105.67 75.7213C105.67 75.6639 105.84 75.6868 105.963 75.7385C106.373 75.7959 107.006 76.0772 107.228 76.7031Z" fill="#BE9A96"/>
<path d="M107.351 76.6514C107.31 76.6743 107.269 76.6915 107.228 76.703C107.193 76.7145 107.157 76.726 107.116 76.7317C106.73 76.8179 106.396 76.6341 106.138 76.3815C106.337 76.3872 106.859 76.3872 107.28 76.3356L107.351 76.6514Z" fill="white"/>
<path d="M98.9565 81.4454C93.7021 83.3057 89.1682 75.9451 88.4477 72.7988C87.1707 67.2066 93.8662 65.2372 95.6821 65.9032C102.003 68.2171 102.02 80.3603 98.9565 81.4512V81.4454Z" fill="#263238"/>
<path d="M101.839 74.1481C101.839 74.1481 100.099 72.1213 98.4294 73.1433C96.7599 74.1653 99.0327 77.7652 101.434 77.5987C101.434 77.5987 103.83 76.3126 101.833 74.1481H101.839Z" fill="#EEC1BB"/>
<path d="M106.478 86.4865C106.396 86.475 106.302 86.4578 106.185 86.4405C103.895 86.1764 101.593 85.9984 99.2964 85.9066C98.1014 85.8606 96.9123 85.8377 95.7173 85.8319C95.7173 85.8319 95.7134 85.8319 95.7056 85.8319C95.5533 85.8319 95.3951 85.8319 95.2428 85.8319C95.3717 84.6951 95.196 84.1325 95.9926 83.7248C96.4788 83.4779 102.132 82.8808 104.393 84.5631C105.605 85.4702 106.373 85.5391 106.484 86.4807L106.478 86.4865Z" fill="#FF4D4F"/>
<path opacity="0.2" d="M106.478 86.4865C106.396 86.475 106.302 86.4578 106.185 86.4405C103.895 86.1764 101.593 85.9984 99.2964 85.9066C98.1014 85.8606 96.9123 85.8377 95.7173 85.8319C95.7173 85.8319 95.7134 85.8319 95.7056 85.8319C95.5533 85.8319 95.3951 85.8319 95.2428 85.8319C95.3717 84.6951 95.196 84.1325 95.9926 83.7248C96.4788 83.4779 102.132 82.8808 104.393 84.5631C105.605 85.4702 106.373 85.5391 106.484 86.4807L106.478 86.4865Z" fill="black"/>
<path opacity="0.2" d="M104.703 81.6578C104.703 81.6578 103.315 81.4052 102.325 80.7047C101.335 80.0042 100.948 79.5564 100.948 79.5564C100.948 79.5564 102.003 82.3927 102.694 82.6223C103.379 82.852 104.703 81.6578 104.703 81.6578Z" fill="black"/>
<path opacity="0.2" d="M112.406 86.073C111.738 86.0443 111.082 85.7573 110.619 85.2807C110.157 84.8099 110.127 84.1324 109.934 83.5009C109.706 82.7602 109.794 81.9277 110.168 81.2445C110.543 80.5612 111.205 80.033 111.961 79.8091C111.334 80.7679 110.994 81.9851 111.135 83.1162C111.27 84.2472 111.574 85.275 112.412 86.0673L112.406 86.073Z" fill="black"/>
<path d="M118.37 104.141C116.911 107.127 111.616 103.378 111.616 103.378C111.616 103.378 105.489 97.2286 102.501 93.4794C101.265 91.9235 100.861 89.8393 101.576 87.9963C102.367 85.9638 103.983 85.4758 106.572 86.515C108.681 87.3648 110.398 89.5465 112.044 92.1302L113.051 93.7378L112.465 87.1064L115.547 86.8652C115.547 86.8652 120.778 99.2094 118.364 104.141H118.37Z" fill="#FF4D4F"/>
<path d="M112.47 87.1066L110.883 83.7306L115.739 81.8646C115.739 81.8646 117.285 84.6722 115.557 86.8654L112.476 87.1066H112.47Z" fill="#EEC1BB"/>
<path d="M112.476 79.8724L114.175 79.9241C114.878 79.947 115.47 80.4408 115.598 81.1183L115.821 82.2896L110.883 83.7249L110.941 81.2963C110.959 80.4867 111.65 79.8437 112.482 79.8724H112.476Z" fill="#EEC1BB"/>
<path d="M88.255 68.4926C88.8525 66.6094 90.4868 65.1798 92.3086 64.3473C94.1303 63.5148 98.0785 62.022 103.186 63.9224C104.575 64.4392 103.479 68.55 99.7128 69.9912C97.481 70.8409 92.5487 72.8791 90.1412 72.4657C87.9621 72.0925 87.6809 70.2897 88.2491 68.4926H88.255Z" fill="#263238"/>
<path d="M89.1395 71.375C87.9093 71.2085 86.8842 70.0832 86.8549 68.866C86.8432 68.4641 87.0658 68.0105 87.2357 67.6431C87.3118 69.0555 87.9445 70.5827 89.1395 71.375Z" fill="#263238"/>
<path d="M106.326 69.8648C106.01 69.9968 105.67 70.0428 105.336 70.0141C105.33 69.882 105.318 69.7442 105.307 69.6122C105.605 69.6524 105.904 69.6122 106.18 69.4916C106.221 69.4686 106.267 69.4744 106.308 69.4916C106.373 69.5088 106.42 69.5547 106.437 69.6122C106.437 69.6122 106.437 69.6179 106.443 69.6236C106.478 69.727 106.426 69.8361 106.326 69.8763V69.8648Z" fill="#263238"/>
<path d="M144.927 57.0117C145.611 56.8805 146.286 56.6978 146.923 56.4683C153.669 54.0323 157.173 46.5649 154.737 39.819C153.383 36.0713 150.441 33.195 146.661 31.9161C142.866 26.7583 136.022 24.6783 129.993 26.8566C125.252 28.5665 121.696 32.6843 120.675 37.6266C114.198 39.2258 110.419 46.3913 112.683 52.6643C114.833 58.6185 121.429 61.7151 127.388 59.5648C127.524 59.5133 127.66 59.4618 127.796 59.4102C131.225 61.6963 135.567 62.2304 139.437 60.8297C141.568 60.0614 143.466 58.745 144.927 57.0211V57.0117Z" fill="white"/>
<path d="M144.927 57.0117C145.611 56.8805 146.286 56.6978 146.923 56.4683C153.669 54.0323 157.173 46.5649 154.737 39.819C153.383 36.0713 150.441 33.195 146.661 31.9161C142.866 26.7583 136.022 24.6783 129.993 26.8566C125.252 28.5665 121.696 32.6843 120.675 37.6266C120.295 37.7203 119.93 37.8328 119.583 37.9592C113.629 40.1095 110.533 46.7055 112.683 52.6643C114.833 58.6185 121.429 61.7151 127.388 59.5648C127.524 59.5133 127.66 59.4618 127.796 59.4102C131.225 61.6963 135.567 62.2304 139.437 60.8297C141.568 60.0614 143.466 58.745 144.927 57.0211V57.0117ZM127.73 58.9183C127.566 58.9886 127.397 59.0542 127.224 59.1151C121.509 61.1763 115.184 58.211 113.119 52.4957C111.057 46.7804 114.023 40.4562 119.738 38.3902C120.113 38.2544 120.516 38.1373 120.928 38.0389L121.073 38.0014L121.101 37.8515C122.047 33.0076 125.514 28.96 130.147 27.2876C136.008 25.1702 142.66 27.208 146.323 32.244L146.365 32.3049L146.436 32.3283C150.113 33.5463 152.98 36.3337 154.292 39.969C156.639 46.4712 153.261 53.6715 146.759 56.0185C146.117 56.2481 145.443 56.4308 144.754 56.5573L144.67 56.5713L144.613 56.6369C143.199 58.3281 141.348 59.621 139.268 60.3706C135.497 61.7338 131.262 61.1951 127.945 58.9324L127.842 58.8621L127.725 58.909L127.73 58.9183Z" fill="#FF2323"/>
<path d="M127.601 68.7446C128.2 68.4519 128.652 67.9397 128.865 67.3077C129.078 66.6757 129.038 65.9971 128.745 65.3984C128.453 64.7997 127.94 64.3473 127.308 64.1344C126.676 63.9216 125.997 63.9615 125.399 64.2542C124.161 64.8596 123.649 66.363 124.254 67.6004C124.547 68.1991 125.059 68.6515 125.691 68.8644C126.237 69.0506 126.809 69.044 127.342 68.8511C127.428 68.8178 127.515 68.7845 127.601 68.7446ZM127.095 64.7664C127.561 64.9261 127.934 65.2521 128.147 65.6978C128.592 66.6092 128.213 67.7068 127.308 68.1525C126.403 68.5983 125.299 68.2191 124.853 67.3143C124.407 66.4029 124.786 65.3053 125.691 64.8596C125.751 64.8263 125.818 64.7997 125.878 64.7797C126.27 64.64 126.689 64.6334 127.089 64.7731L127.095 64.7664Z" fill="#BB0002"/>
<path d="M124.161 74.8409C124.524 74.6628 124.792 74.3574 124.92 73.9821C125.047 73.6004 125.022 73.1933 124.849 72.837C124.671 72.4744 124.365 72.2072 123.989 72.08C123.606 71.9528 123.198 71.9782 122.841 72.15C122.095 72.5126 121.789 73.4159 122.153 74.1602C122.331 74.5228 122.637 74.79 123.013 74.9172C123.338 75.0317 123.689 75.0254 124.008 74.9109C124.059 74.8918 124.11 74.8727 124.161 74.8473V74.8409ZM123.778 72.678C123.995 72.7543 124.174 72.907 124.276 73.1169C124.378 73.3268 124.39 73.5559 124.32 73.7785C124.244 73.9948 124.091 74.1729 123.88 74.2747C123.676 74.3765 123.44 74.3892 123.217 74.3192C123.001 74.2429 122.822 74.0902 122.72 73.8803C122.51 73.4541 122.688 72.9324 123.115 72.7225C123.147 72.7098 123.173 72.6971 123.205 72.6843C123.389 72.6207 123.587 72.6144 123.778 72.6843V72.678Z" fill="#BB0002"/>
<path d="M134.205 38.8591C135.245 38.9041 138.684 38.9659 139.797 37.5553C140.061 37.2237 140.32 36.6954 140.067 35.8805C139.752 34.8689 138.954 34.4024 137.88 34.4699C136.475 34.5542 134.666 35.622 133.767 36.8415C133.064 35.7737 131.721 34.1664 129.855 34.4699C128.501 34.6834 127.534 35.7793 127.697 36.9146C127.787 37.5272 128.472 39.4155 133.57 38.8816L134.008 39.8651L134.205 38.8591ZM137.942 35.5939C138.499 35.5601 138.819 35.7231 138.976 36.2402C139.089 36.5998 138.993 36.7291 138.898 36.8471C138.302 37.6002 136.054 37.825 134.492 37.7801C135.009 36.8359 136.695 35.6669 137.942 35.5939ZM133.042 37.7857C129.883 38.0498 128.894 37.2518 128.821 36.7516C128.759 36.3076 129.259 35.7231 130.029 35.5995C130.091 35.5882 130.147 35.5826 130.203 35.5826C131.563 35.5039 132.603 37.027 133.042 37.7913V37.7857Z" fill="#FF4D26"/>
<path d="M145.411 54.0839H123.184V38.8142H145.411V54.0839Z" fill="#BB0002"/>
<path opacity="0.1" d="M145.411 54.0894H123.184V44.0969H145.411V54.0894Z" fill="black"/>
<path opacity="0.2" d="M132.013 54.0839H123.184V38.8142H132.013V54.0839Z" fill="#FF4D26"/>
<path d="M122.554 38.8196H146.074V44.0968H122.554V38.8196Z" fill="#BB0002"/>
<path opacity="0.1" d="M122.554 38.8196H146.074V44.0968H122.554V38.8196Z" fill="#FF4D26"/>
<path opacity="0.2" d="M122.56 38.8196H131.305V44.0968H122.56V38.8196Z" fill="#FF4D26"/>
<path d="M139.797 54.0839H137.993V38.8142H139.797V54.0839Z" fill="#FF4D26"/>
<path d="M127.63 54.0839H126.303V38.8142H127.63V54.0839Z" fill="#FF4D26"/>
<path d="M46.832 44.7895C46.9009 45.0702 47.2991 45.0702 47.368 44.7895C48.3442 40.8196 49.4195 39.7442 53.3895 38.768C53.6702 38.6991 53.6702 38.3009 53.3895 38.232C49.4195 37.2558 48.3442 36.1805 47.368 32.2105C47.2991 31.9298 46.9009 31.9298 46.832 32.2105C45.8558 36.1805 44.7804 37.2558 40.8104 38.232C40.5299 38.3009 40.5299 38.6991 40.8104 38.768C44.7804 39.7442 45.8558 40.8196 46.832 44.7895Z" fill="#FAAD14"/>
<rect x="46.6" y="43" width="1" height="4" fill="#FAAD14"/>
<path d="M46.9166 45L45.6 48.573H48.5518L47.3308 45H46.9166Z" fill="#FAAD14"/>
</g>
<defs>
<linearGradient id="paint0_linear_1_6014" x1="103.483" y1="170.079" x2="-21.0817" y2="95.8278" gradientUnits="userSpaceOnUse">
<stop stop-color="#01A6FF"/>
<stop offset="1" stop-color="#214FE2"/>
</linearGradient>
<linearGradient id="paint1_linear_1_6014" x1="141.506" y1="12.7437" x2="-13.6552" y2="77.2047" gradientUnits="userSpaceOnUse">
<stop stop-color="#01A6FF"/>
<stop offset="1" stop-color="#214FE2"/>
</linearGradient>
<clipPath id="clip0_1_6014">
<rect width="193" height="193" rx="24" fill="white"/>
</clipPath>
</defs>
</svg>
