<svg width="160" height="160" viewBox="0 0 160 160" fill="none" xmlns="http://www.w3.org/2000/svg">
<g clip-path="url(#clip0_301_23655)">
<rect width="160" height="160" rx="19.8964" fill="#FAFAFA"/>
<path d="M99.8686 81.2407H144.057V20.5938L99.8686 20.5938V81.2407Z" fill="#E0E0E0"/>
<path d="M98.0545 81.2407H144.351V20.5938L98.0545 20.5938V81.2407Z" fill="#F0F0F0"/>
<path d="M100.544 78.3552H141.955V22.5939L100.544 22.5939V78.3552Z" fill="#E0E0E0"/>
<path d="M137.082 32.2378C137.113 32.3631 137.291 32.3631 137.322 32.2378C137.757 30.4657 138.238 29.9856 140.01 29.5499C140.135 29.5191 140.135 29.3414 140.01 29.3106C138.238 28.8748 137.757 28.3948 137.322 26.6226C137.291 26.4974 137.113 26.4974 137.082 26.6226C136.647 28.3948 136.167 28.8748 134.394 29.3106C134.269 29.3414 134.269 29.5191 134.394 29.5499C136.167 29.9856 136.647 30.4657 137.082 32.2378Z" fill="white"/>
<path d="M114.699 75.3465C114.73 75.4718 114.908 75.4718 114.938 75.3465C115.374 73.5743 115.854 73.0943 117.626 72.6585C117.752 72.6277 117.752 72.45 117.626 72.4192C115.854 71.9835 115.374 71.5034 114.938 69.7313C114.908 69.606 114.73 69.606 114.699 69.7313C114.263 71.5034 113.783 71.9835 112.011 72.4192C111.886 72.45 111.886 72.6277 112.011 72.6585C113.783 73.0943 114.263 73.5743 114.699 75.3465Z" fill="white"/>
<path d="M132.574 40.5681C132.592 40.6397 132.693 40.6397 132.711 40.5681C132.96 39.5555 133.234 39.2812 134.247 39.0322C134.318 39.0146 134.318 38.913 134.247 38.8954C133.234 38.6464 132.96 38.3721 132.711 37.3595C132.693 37.2879 132.592 37.2879 132.574 37.3595C132.325 38.3721 132.051 38.6464 131.038 38.8954C130.967 38.913 130.967 39.0146 131.038 39.0322C132.051 39.2812 132.325 39.5555 132.574 40.5681Z" fill="white"/>
<path d="M136.719 52.1743C136.737 52.2459 136.838 52.2459 136.856 52.1743C137.105 51.1617 137.379 50.8874 138.392 50.6384C138.463 50.6208 138.463 50.5192 138.392 50.5016C137.379 50.2526 137.105 49.9783 136.856 48.9657C136.838 48.8941 136.737 48.8941 136.719 48.9657C136.47 49.9783 136.196 50.2526 135.183 50.5016C135.112 50.5192 135.112 50.6208 135.183 50.6384C136.196 50.8874 136.47 51.1617 136.719 52.1743Z" fill="white"/>
<path d="M123.455 48.8584C123.472 48.93 123.574 48.93 123.592 48.8584C123.841 47.8458 124.115 47.5714 125.128 47.3224C125.199 47.3049 125.199 47.2033 125.128 47.1857C124.115 46.9367 123.841 46.6624 123.592 45.6497C123.574 45.5781 123.472 45.5781 123.455 45.6497C123.206 46.6624 122.932 46.9367 121.919 47.1857C121.847 47.2033 121.847 47.3049 121.919 47.3224C122.932 47.5714 123.206 47.8458 123.455 48.8584Z" fill="white"/>
<path d="M135.493 63.794C135.506 63.8477 135.582 63.8477 135.595 63.794C135.782 63.0345 135.988 62.8287 136.747 62.642C136.801 62.6288 136.801 62.5526 136.747 62.5394C135.988 62.3527 135.782 62.1469 135.595 61.3875C135.582 61.3338 135.506 61.3338 135.493 61.3875C135.306 62.1469 135.1 62.3527 134.341 62.5394C134.287 62.5526 134.287 62.6288 134.341 62.642C135.1 62.8287 135.306 63.0345 135.493 63.794Z" fill="white"/>
<path d="M100.544 78.3552H102.105V22.5939H100.544V78.3552Z" fill="#E0E0E0"/>
<path d="M101.938 57.5506V59.1118H142.095V57.5506H101.938Z" fill="#E0E0E0"/>
<path d="M100.544 57.5544L142.794 57.5544V54.933L100.544 54.933V57.5544Z" fill="#F0F0F0"/>
<path d="M119.085 38.148C119.085 38.3771 118.902 38.5597 118.673 38.5597C118.444 38.5597 118.261 38.3771 118.261 38.148C118.261 37.9189 118.444 37.7363 118.673 37.7363C118.902 37.7363 119.085 37.9189 119.085 38.148Z" fill="#FAFAFA"/>
<path d="M106.847 29.5223C106.847 30.6058 105.969 31.4835 104.886 31.4835C103.802 31.4835 102.925 30.6058 102.925 29.5223C102.925 28.4387 103.802 27.561 104.886 27.561C105.969 27.561 106.847 28.4387 106.847 29.5223Z" fill="#FAFAFA"/>
<path d="M110.102 44.6258C110.102 45.0841 109.733 45.453 109.275 45.453C108.816 45.453 108.447 45.0841 108.447 44.6258C108.447 44.1675 108.816 43.7986 109.275 43.7986C109.733 43.7986 110.102 44.1675 110.102 44.6258Z" fill="#FAFAFA"/>
<path d="M115.907 62.6655C115.907 63.182 115.488 63.5975 114.975 63.5975C114.463 63.5975 114.043 63.1781 114.043 62.6655C114.043 62.1528 114.463 61.7334 114.975 61.7334C115.488 61.7334 115.907 62.1528 115.907 62.6655Z" fill="#FAFAFA"/>
<path d="M126.623 30.097C125.997 31.798 124.584 33.2428 122.758 33.837C119.892 34.7651 117.081 33.2311 116.483 30.4116C116.005 28.1707 117.073 25.7939 118.972 24.4502C118.607 25.4172 118.506 26.4736 118.723 27.495C119.321 30.3106 122.133 31.8408 124.999 30.9165C125.59 30.7262 126.137 30.4427 126.623 30.097Z" fill="#FAFAFA"/>
<path opacity="0.2" d="M-23.7959 167.952C-19.3637 142.596 24.114 112.466 62.0404 117.347C99.9667 122.227 125.351 159.149 127.357 163.353" stroke="url(#paint0_linear_301_23655)" stroke-width="9.83913"/>
<path d="M14.7855 32.3027H-6.9823V56.2065H14.7855V32.3027Z" fill="#E0E0E0"/>
<path d="M17.1429 32.3027H-5.34338V56.2065H17.1429V32.3027Z" fill="#F5F5F5"/>
<path d="M15.2592 54.3269L15.2592 34.1902H-3.46V54.3269H15.2592Z" fill="white"/>
<path d="M10.7229 49.4413V39.0681H1.07982V49.4413H10.7229Z" fill="#F5F5F5"/>
<path d="M37.4003 46.5557H21.2521V64.2884H37.4003V46.5557Z" fill="#E0E0E0"/>
<path d="M39.1478 46.5557H22.4675V64.2884H39.1478V46.5557Z" fill="#F5F5F5"/>
<path d="M37.7495 62.8903V47.9539H23.8655V62.8903H37.7495Z" fill="white"/>
<path d="M30.8097 51.6472L27.0115 58.2261H34.6079L30.8097 51.6472Z" fill="#F5F5F5"/>
<path d="M148.713 143.864H135.85V143.961H148.713V143.864Z" fill="#EBEBEB"/>
<path d="M102.622 144.917H99.2469V145.014H102.622V144.917Z" fill="#EBEBEB"/>
<path d="M135.462 140.256H128.01V140.353H135.462V140.256Z" fill="#EBEBEB"/>
<path d="M11.1351 140.909H-5.63831V141.006H11.1351V140.909Z" fill="#EBEBEB"/>
<path d="M17.0536 140.909H14.5952V141.006H17.0536V140.909Z" fill="#EBEBEB"/>
<path d="M61.4281 142.552H25.0461V142.649H61.4281V142.552Z" fill="#EBEBEB"/>
<path d="M168.17 137.612H-26.012V137.709H168.17V137.612Z" fill="#EBEBEB"/>
<path d="M66.0342 120.015H-8.95895C-10.1823 120.015 -11.1765 119.021 -11.1765 117.797V12.3836C-11.1765 11.1602 -10.1823 10.166 -8.95895 10.166H66.0342C67.2575 10.166 68.2517 11.1602 68.2517 12.3836V117.797C68.2517 119.021 67.2575 120.015 66.0342 120.015ZM-8.95895 10.2631C-10.1279 10.2631 -11.0794 11.2146 -11.0794 12.3836V117.797C-11.0794 118.966 -10.1279 119.918 -8.95895 119.918H66.0342C67.2031 119.918 68.1546 118.966 68.1546 117.797V12.3836C68.1546 11.2146 67.2031 10.2631 66.0342 10.2631H-8.95895Z" fill="#EBEBEB"/>
<path d="M150.038 120.29H75.0445C73.8211 120.29 72.8269 119.296 72.8269 118.073V12.6592C72.8269 11.4359 73.8211 10.4417 75.0445 10.4417H150.038C151.261 10.4417 152.255 11.4359 152.255 12.6592V118.073C152.255 119.296 151.261 120.29 150.038 120.29ZM75.0445 10.5426C73.8755 10.5426 72.924 11.4941 72.924 12.6631V118.077C72.924 119.246 73.8755 120.197 75.0445 120.197H150.038C151.207 120.197 152.158 119.246 152.158 118.077V12.6592C152.158 11.4902 151.207 10.5387 150.038 10.5387H75.0445V10.5426Z" fill="#EBEBEB"/>
<path d="M66.306 97.3965C66.6711 98.3363 67.7313 98.8023 68.6711 98.4373C69.611 98.0722 70.077 97.012 69.7119 96.0721C69.3469 95.1323 68.2866 94.6663 67.3468 95.0313C66.407 95.3964 65.9409 96.4566 66.306 97.3965Z" fill="#F5F5F5"/>
<path d="M126.266 72.9411C126.534 72.9411 126.751 72.7238 126.751 72.4557C126.751 72.1876 126.534 71.9702 126.266 71.9702C125.998 71.9702 125.78 72.1876 125.78 72.4557C125.78 72.7238 125.998 72.9411 126.266 72.9411Z" fill="#FAFAFA"/>
<path d="M84.5162 25.792C85.0794 24.9182 82.9472 22.7977 82.9356 21.9355C82.9201 21.0734 83.1142 21.5394 83.4133 20.0209C83.7162 18.4985 80.3685 19.7801 80.353 15.9625C80.3452 14.7625 77.3004 15.7644 76.6713 15.2712C76.0382 14.7819 76.613 13.6983 75.2615 12.8129C73.91 11.9313 72.0148 13.9314 70.807 13.5003C69.4322 13.0109 69.6302 12.1255 68.5467 12.5449C67.4632 12.9604 66.3835 14.5838 64.1232 14.6848C61.863 14.7819 61.0785 15.2246 61.0785 16.3586C61.0785 17.4927 60.9814 18.2888 58.892 19.784C56.8065 21.2792 57.7385 23.2404 58.7211 24.8172C59.7036 26.394 57.6414 26.9726 57.3424 28.1533C57.0472 29.33 59.8046 30.8058 59.9988 31.9204C60.1969 33.0311 58.7211 34.6428 61.0785 36.4099C63.4397 38.173 63.4397 36.4176 64.5194 37.3963C65.599 38.375 68.2515 40.4489 69.2069 40.0333C70.1584 39.6178 71.5992 39.1711 72.2867 39.3653C72.9741 39.5634 75.98 39.4469 76.1625 37.9827C76.3489 36.5225 78.0888 35.9244 79.1607 36.0603C80.2326 36.1963 80.3413 33.2797 80.5549 32.3864C80.7685 31.4932 82.3142 31.8971 83.2424 30.6893C84.1667 29.4815 82.8074 28.3552 82.9356 27.7804C83.0638 27.2056 83.9531 26.6736 84.5162 25.7998V25.792ZM77.9529 27.7028C78.0267 27.9125 77.9956 28.1494 77.9218 28.3591C77.7199 28.9455 77.1839 29.4232 76.5975 29.5203C76.3101 29.5708 76.0616 29.7689 75.9994 30.0524C75.9373 30.3359 75.778 30.6038 75.5567 30.7941C75.1955 31.1204 74.6984 31.2641 74.2129 31.2796C74.0226 31.2874 73.8362 31.2796 73.6498 31.2602C73.2964 31.2252 72.9857 31.4815 72.908 31.8311C72.8653 32.0175 72.7721 32.1961 72.6362 32.3282C72.3177 32.635 71.8245 32.7204 71.3895 32.6233C71.2187 32.5845 71.0672 32.5146 70.9313 32.4253C70.6633 32.2583 70.306 32.2738 70.0769 32.4913C69.9215 32.635 69.7157 32.7321 69.506 32.7554C69.0865 32.7981 68.6632 32.5923 68.3681 32.2893C68.2554 32.1728 68.17 32.033 68.0962 31.8854C67.9331 31.5553 67.5641 31.4 67.2146 31.5165C66.8729 31.6291 66.4806 31.6019 66.1699 31.4077C65.8709 31.2213 65.665 30.9029 65.599 30.565C65.5408 30.2698 65.3349 30.0174 65.0398 29.9708C64.7407 29.9242 64.4495 29.7533 64.2669 29.5086C63.9446 29.0776 63.9096 28.4872 64.0456 27.9707C64.1038 27.7455 64.2164 27.5396 64.3446 27.3455C64.5504 27.0348 64.4689 26.627 64.1776 26.3901C63.9679 26.2192 63.8125 25.9706 63.7698 25.7027C63.6921 25.1823 63.9562 24.658 64.3291 24.2929C64.5077 24.1182 64.7912 23.9395 65.0864 23.7686C65.4165 23.5822 65.498 23.1705 65.3194 22.8365C65.2184 22.6501 65.1718 22.4288 65.2068 22.219C65.2883 21.7181 65.7155 21.3297 66.1932 21.1549C66.5583 21.019 66.9466 20.9841 67.3389 20.9802C67.5486 20.9802 67.735 20.8714 67.871 20.7122C68.2205 20.2889 68.8224 20.0326 69.3584 20.0015C69.7817 19.9782 70.2672 20.1335 70.6555 20.3976C70.9507 20.5996 71.3546 20.5258 71.5837 20.25C71.6925 20.1141 71.8167 19.9898 71.9527 19.8811C72.2944 19.6092 72.741 19.4539 73.1644 19.5393C73.4362 19.5976 73.8052 19.8034 74.0304 20.0597C74.1974 20.25 74.446 20.3277 74.6906 20.2695C75.0596 20.1801 75.4207 20.3433 75.7353 20.5607C76.6752 21.2015 76.3179 21.9627 76.5858 21.9821C76.8577 22.0016 77.1218 22.1569 77.2305 22.4016C77.3354 22.6501 77.2694 22.9453 77.1257 23.1744C77.1257 23.1744 77.1257 23.1783 77.1218 23.1822C76.916 23.5007 77.0441 23.9123 77.3548 24.1298C77.7509 24.4055 78.0383 24.8522 78.1005 25.3337C78.1665 25.8425 78.1393 26.4406 77.8907 26.8755C77.7587 27.1047 77.8014 27.3804 77.9218 27.6134C77.9373 27.6445 77.949 27.6756 77.9607 27.7066L77.9529 27.7028Z" fill="#52C41A"/>
<path d="M62.1351 27.3843L62.5313 28.1843L63.4128 28.3125L62.7759 28.9377L62.9235 29.8193L62.1351 29.4038L61.3429 29.8193L61.4943 28.9377L60.8535 28.3125L61.739 28.1843L62.1351 27.3843Z" fill="#FFCB32"/>
<path d="M77.7005 30.9456L78.0928 31.7456L78.9783 31.8737L78.3375 32.4951L78.4889 33.3767L77.7005 32.9612L76.9083 33.3767L77.0597 32.4951L76.4189 31.8737L77.3044 31.7456L77.7005 30.9456Z" fill="#FFCB32"/>
<path d="M66.6787 34.8369L67.0748 35.6408L67.9564 35.769L67.3195 36.3904L67.4671 37.272L66.6787 36.8564L65.8865 37.272L66.0379 36.3904L65.401 35.769L66.2826 35.6408L66.6787 34.8369Z" fill="#F0F0F0"/>
<path d="M79.3123 17.8343C79.3123 18.5645 78.722 19.1587 77.988 19.1587C77.254 19.1587 76.6637 18.5683 76.6637 17.8343C76.6637 17.1003 77.254 16.51 77.988 16.51C78.722 16.51 79.3123 17.1003 79.3123 17.8343Z" fill="#01A6FF"/>
<path d="M65.8593 17.9081C65.8593 18.6771 65.234 19.3024 64.465 19.3024C63.6961 19.3024 63.0708 18.6771 63.0708 17.9081C63.0708 17.1392 63.6961 16.5139 64.465 16.5139C65.234 16.5139 65.8593 17.1392 65.8593 17.9081Z" fill="#01A6FF"/>
<path d="M63.1915 32.1612C63.1915 32.5224 62.8963 32.8176 62.5351 32.8176C62.1739 32.8176 61.8788 32.5224 61.8788 32.1612C61.8788 31.8 62.1739 31.5049 62.5351 31.5049C62.8963 31.5049 63.1915 31.8 63.1915 32.1612Z" fill="#01A6FF"/>
<path d="M73.5765 36.868C73.5765 37.2292 73.2813 37.5243 72.9201 37.5243C72.559 37.5243 72.2638 37.2292 72.2638 36.868C72.2638 36.5068 72.559 36.2117 72.9201 36.2117C73.2813 36.2117 73.5765 36.5068 73.5765 36.868Z" fill="#F0F0F0"/>
<path d="M80.8891 28.1493C80.8891 28.5104 80.5939 28.8056 80.2328 28.8056C79.8716 28.8056 79.5764 28.5104 79.5764 28.1493C79.5764 27.7881 79.8716 27.4929 80.2328 27.4929C80.5939 27.4929 80.8891 27.7881 80.8891 28.1493Z" fill="#FAFAFA"/>
<path d="M71.7353 32.4369C71.7353 32.4369 78.8462 32.5767 77.4947 28.4096C76.1432 24.2424 70.9236 31.6058 70.9236 31.6058C69.7624 28.9455 64.1738 24.7473 64.4301 29.2368C64.6864 33.7263 69.9915 32.5496 69.9915 32.5496C66.0341 36.4487 62.3019 36.4371 62.3019 36.4371L62.5427 37.6332C67.172 38.2197 70.8381 32.868 70.8381 32.868C74.2752 37.2138 79.1103 37.8818 79.1103 37.8818L79.021 36.4992C75.5995 36.1924 71.7353 32.4331 71.7353 32.4331V32.4369ZM75.5956 28.9028C76.7918 30.5417 71.9061 31.6757 71.9061 31.6757C71.9061 31.6757 74.3994 27.2639 75.5956 28.9028ZM66.5855 29.0698C66.8535 27.9746 70.0886 31.6641 70.0886 31.6641C70.0886 31.6641 66.0612 31.2175 66.5855 29.0698Z" fill="#FFE950"/>
<path d="M70.5471 33.2329C72.6248 34.5611 70.4771 39.1555 71.5374 40.4371C72.5976 41.7187 72.7413 41.8663 71.3704 42.2507C69.9995 42.6313 62.2943 39.4972 62.8147 38.9691C63.339 38.4448 64.8226 38.7632 65.576 37.2253C66.8149 34.7087 68.9936 32.2387 70.5432 33.2329H70.5471Z" fill="#FAAD14"/>
<path d="M71.6577 33.0234C74.1005 32.6894 75.4404 37.5789 77.0793 37.8702C78.7182 38.1615 78.924 38.1809 78.124 39.3615C77.3278 40.5383 69.4246 43.1442 69.4829 42.4024C69.5411 41.6607 70.8771 40.9461 70.4577 39.2839C69.7703 36.5653 69.8324 33.272 71.6538 33.0234H71.6577Z" fill="#FFCB32"/>
<path d="M83.3708 23.6946C83.3708 23.6946 83.7514 23.0616 83.6543 22.3742C83.5573 21.6868 82.1242 21.2673 82.1242 21.2673C82.1242 21.2673 81.1494 21.2557 80.6989 22.0014L80.2445 22.747C80.2445 22.747 82.6912 23.9315 83.2504 23.582L83.3747 23.6985L83.3708 23.6946Z" fill="#FF2323"/>
<path d="M80.5705 25.6172C79.8637 24.7472 79.6423 23.1938 80.4191 22.5608C81.1958 21.9277 82.6716 22.4598 83.3823 23.3297C84.0891 24.1996 83.4872 24.7434 82.7104 25.3725C81.9337 26.0055 81.2812 26.4871 80.5705 25.6172Z" fill="#FF2323"/>
<path d="M83.1726 24.2501C83.1726 24.2501 82.2017 24.1763 81.1027 25.353C81.1027 25.353 82.2212 22.5956 83.1726 24.2501Z" fill="#FF2323"/>
<path d="M82.7415 24.8093C82.7415 24.8093 82.1007 25.4307 81.8832 25.1356C81.8832 25.1356 81.289 25.5899 81.5492 25.788C81.8094 25.99 82.7415 24.8093 82.7415 24.8093Z" fill="#FF2323"/>
<path d="M81.6035 21.3295C81.052 21.0809 80.3685 21.2285 79.9102 21.6247C79.4558 22.0208 79.2189 22.6344 79.2112 23.2402C79.2034 23.8461 79.4053 24.4364 79.716 24.9568C79.7937 25.0927 80.0034 25.4229 80.2093 25.3568C80.3957 25.2947 80.3452 25.0112 80.3491 24.8636C80.3568 24.4286 80.3918 24.0053 80.4928 23.582C80.5898 23.1703 80.7335 22.7703 80.92 22.3936C80.9743 22.2888 81.5103 21.2907 81.6074 21.3334L81.6035 21.3295Z" fill="#FF2323"/>
<path d="M79.32 25.5783C78.9084 25.3104 78.6559 24.8171 78.6792 24.3239C78.6948 24.0016 78.819 23.6948 78.9511 23.4035C79.0443 23.2015 79.188 22.9685 79.4132 22.9646C79.654 22.9608 79.8055 23.2171 79.9026 23.4384C80.0501 23.7802 80.1861 24.1259 80.3142 24.4793C80.4191 24.7667 80.6599 25.2016 80.656 25.5084C80.656 25.7958 80.3841 25.8114 80.0851 25.8075C79.8171 25.8075 79.5492 25.7259 79.3239 25.5783H79.32Z" fill="#FF2323"/>
<path d="M83.1728 24.2501C83.1728 24.2501 82.2019 24.1763 81.1028 25.353C81.1028 25.353 82.2213 22.5956 83.1728 24.2501Z" fill="#FF4D4F"/>
<path d="M82.7416 24.8093C82.7416 24.8093 82.1008 25.4307 81.8833 25.1356C81.8833 25.1356 81.2891 25.5899 81.5493 25.788C81.8095 25.99 82.7416 24.8093 82.7416 24.8093Z" fill="#FF4D4F"/>
<path d="M81.7434 21.9858C82.0696 21.7839 82.5201 21.7955 82.8386 22.013C83.0755 22.1761 83.4522 22.7315 83.2153 22.9956C82.7532 22.5839 82.3376 22.2111 81.7473 21.9858H81.7434Z" fill="#FF4D4F"/>
<path d="M79.6073 23.4656C79.3665 23.7568 79.281 24.1724 79.3937 24.5336C79.4558 24.7316 80.0927 25.5356 80.1044 25.0074C80.1044 24.8365 79.8403 24.4753 79.782 24.2967C79.6927 24.0287 79.6345 23.7491 79.6111 23.4656H79.6073Z" fill="#FF4D4F"/>
<path d="M80.4037 22.1644C80.0347 22.1255 79.658 22.3663 79.5415 22.7197C79.4638 22.5333 79.8833 22.0479 80.0114 21.8925C80.3454 21.4886 80.6872 21.5236 81.2037 21.4187C81.2037 21.4187 80.5008 21.7566 80.4037 22.1682V22.1644Z" fill="#FF4D4F"/>
<path d="M58.7877 24.2307C58.7877 24.2307 58.4304 24.8793 58.5547 25.5628C58.679 26.2463 60.1276 26.6075 60.1276 26.6075C60.1276 26.6075 61.1024 26.5803 61.5257 25.8191L61.949 25.0579C61.949 25.0579 59.4596 23.9705 58.9159 24.3433L58.7877 24.2307Z" fill="#FF2323"/>
<path d="M61.5097 22.1957C62.2515 23.0384 62.5311 24.5802 61.7816 25.2443C61.0321 25.9045 59.533 25.4346 58.7912 24.5957C58.0494 23.753 58.632 23.1899 59.3815 22.5258C60.1311 21.8617 60.768 21.3568 61.5097 22.1957Z" fill="#FF2323"/>
<path d="M58.9664 23.6674C58.9664 23.6674 59.9412 23.7024 60.9937 22.4829C60.9937 22.4829 59.9839 25.283 58.9664 23.6674Z" fill="#FF2323"/>
<path d="M59.3741 23.089C59.3741 23.089 59.9916 22.4443 60.2169 22.7317C60.2169 22.7317 60.7917 22.254 60.5237 22.0637C60.2557 21.8734 59.3741 23.089 59.3741 23.089Z" fill="#FF2323"/>
<path d="M60.644 26.522C61.2033 26.7472 61.8829 26.5764 62.3218 26.1608C62.7606 25.7453 62.9742 25.1239 62.9587 24.518C62.9431 23.9122 62.714 23.3296 62.3878 22.8209C62.3023 22.6888 62.081 22.3665 61.879 22.4403C61.6926 22.5063 61.7586 22.7898 61.7586 22.9413C61.7664 23.3762 61.7509 23.7996 61.6693 24.2268C61.5916 24.6423 61.4635 25.0462 61.2887 25.4307C61.2421 25.5394 60.7411 26.5569 60.6401 26.5142L60.644 26.522Z" fill="#FF2323"/>
<path d="M62.7605 22.1841C63.1799 22.4365 63.4517 22.9181 63.4479 23.4113C63.4479 23.7336 63.3352 24.0443 63.211 24.3434C63.1255 24.5492 62.9935 24.7861 62.7682 24.8016C62.5274 24.8172 62.3643 24.5647 62.2595 24.3472C62.1002 24.0094 61.9488 23.6715 61.809 23.3258C61.6925 23.0423 61.4361 22.619 61.4245 22.3122C61.4167 22.0248 61.6847 22.0015 61.9837 21.9899C62.2517 21.9821 62.5236 22.0481 62.7566 22.1879L62.7605 22.1841Z" fill="#FF2323"/>
<path d="M58.9664 23.6674C58.9664 23.6674 59.9412 23.7024 60.9937 22.4829C60.9937 22.4829 59.9839 25.283 58.9664 23.6674Z" fill="#FF4D4F"/>
<path d="M59.3741 23.089C59.3741 23.089 59.9916 22.4443 60.2169 22.7317C60.2169 22.7317 60.7917 22.254 60.5237 22.0637C60.2557 21.8734 59.3741 23.089 59.3741 23.089Z" fill="#FF4D4F"/>
<path d="M60.4809 25.8734C60.1624 26.0909 59.7119 26.0947 59.3857 25.8889C59.1449 25.7374 58.7449 25.1937 58.9702 24.9219C59.4478 25.3141 59.8789 25.6714 60.477 25.8734H60.4809Z" fill="#FF4D4F"/>
<path d="M62.5587 24.3084C62.7878 24.0093 62.8577 23.5899 62.7296 23.2326C62.6597 23.0345 61.9917 22.2617 62.0033 22.786C62.0033 22.9569 62.2868 23.3064 62.3528 23.485C62.4538 23.7491 62.5237 24.0288 62.5587 24.3084Z" fill="#FF4D4F"/>
<path d="M61.813 25.6404C62.182 25.6676 62.5509 25.4074 62.6519 25.054C62.7373 25.2365 62.3373 25.7375 62.213 25.8967C61.8984 26.3123 61.5528 26.2928 61.0402 26.4171C61.0402 26.4171 61.7315 26.0521 61.8091 25.6365L61.813 25.6404Z" fill="#FF4D4F"/>
<path d="M69.9258 13.7488C69.9258 13.7488 69.1879 13.7488 68.6481 14.1915C68.1083 14.6304 68.4966 16.0751 68.4966 16.0751C68.4966 16.0751 68.9937 16.9139 69.8637 16.9139H70.7336C70.7336 16.9139 70.4773 14.207 69.887 13.9158L69.9219 13.7488H69.9258Z" fill="#FF2323"/>
<path d="M73.0249 15.1391C72.6482 16.1955 71.4365 17.1897 70.4928 16.8557C69.549 16.5217 69.2345 14.9838 69.6112 13.9274C69.9879 12.8711 70.7646 13.1041 71.7083 13.442C72.6521 13.7799 73.4016 14.0867 73.0288 15.143L73.0249 15.1391Z" fill="#FF2323"/>
<path d="M70.5044 13.6284C70.5044 13.6284 70.9471 14.4984 72.5239 14.8246C72.5239 14.8246 69.5839 15.3023 70.5044 13.6284Z" fill="#FF2323"/>
<path d="M71.2073 13.7061C71.2073 13.7061 72.0694 13.9313 71.9296 14.2692C71.9296 14.2692 72.6248 14.541 72.6598 14.2148C72.6947 13.8886 71.2073 13.7061 71.2073 13.7061Z" fill="#FF2323"/>
<path d="M68.8225 16.483C68.8963 17.0811 69.3779 17.5899 69.9527 17.7763C70.5274 17.9588 71.176 17.8423 71.6964 17.5355C72.2168 17.2287 72.6168 16.7471 72.9042 16.2112C72.978 16.0714 73.1528 15.7218 72.9897 15.582C72.8421 15.4539 72.6246 15.6442 72.4964 15.7218C72.1197 15.9393 71.7391 16.1296 71.3275 16.2655C70.9274 16.3976 70.5119 16.483 70.0886 16.518C69.9721 16.5296 68.838 16.584 68.8264 16.4791L68.8225 16.483Z" fill="#FF2323"/>
<path d="M73.6422 16.2304C73.6267 16.7197 73.3354 17.1935 72.9043 17.4266C72.6208 17.5819 72.2946 17.6324 71.9761 17.6712C71.7548 17.6984 71.4829 17.6945 71.3625 17.5042C71.2305 17.3023 71.3742 17.0382 71.514 16.8401C71.7315 16.5372 71.9567 16.2421 72.1897 15.9508C72.38 15.7139 72.6286 15.2789 72.8888 15.1236C73.1373 14.976 73.2888 15.2012 73.4402 15.4576C73.5762 15.6906 73.65 15.9585 73.6422 16.2265V16.2304Z" fill="#FF2323"/>
<path d="M70.5044 13.6284C70.5044 13.6284 70.9471 14.4984 72.5239 14.8246C72.5239 14.8246 69.5839 15.3023 70.5044 13.6284Z" fill="#FF4D4F"/>
<path d="M71.2073 13.7061C71.2073 13.7061 72.0694 13.9313 71.9296 14.2692C71.9296 14.2692 72.6248 14.541 72.6598 14.2148C72.6947 13.8886 71.2073 13.7061 71.2073 13.7061Z" fill="#FF4D4F"/>
<path d="M69.3124 16.0285C68.9667 15.8537 68.7453 15.4654 68.7686 15.0809C68.7842 14.7974 69.0677 14.1838 69.4133 14.2498C69.3046 14.8595 69.1997 15.4071 69.3124 16.0285Z" fill="#FF4D4F"/>
<path d="M71.6886 17.0809C72.0614 17.1392 72.4614 16.9916 72.7139 16.7081C72.8537 16.5527 73.2071 15.5896 72.7527 15.8537C72.6051 15.9391 72.4343 16.3547 72.3139 16.4984C72.1313 16.7158 71.9216 16.91 71.6925 17.077L71.6886 17.0809Z" fill="#FF4D4F"/>
<path d="M70.1588 17.0771C70.3141 17.4111 70.718 17.6092 71.0792 17.5276C70.9627 17.6908 70.3296 17.582 70.1277 17.5548C69.6112 17.481 69.4636 17.1703 69.1024 16.782C69.1024 16.782 69.7549 17.2092 70.1588 17.0771Z" fill="#FF4D4F"/>
<path d="M103.247 128.811H97.9498V130.206H103.247V128.811Z" fill="#E6E6E6"/>
<path d="M144.367 128.811H139.07V130.206H144.367V128.811Z" fill="#E6E6E6"/>
<path d="M107.76 129.507H106.366V137.697H107.76V129.507Z" fill="#E0E0E0"/>
<path d="M140.434 91.0547H102.463V94.0218H140.434V91.0547Z" fill="#E6E6E6"/>
<path d="M140.434 128.023H102.463V130.99H140.434V128.023Z" fill="#E6E6E6"/>
<path d="M103.911 133.899L103.795 134.023C103.368 134.47 102.649 134.47 102.222 134.023L102.105 133.899C101.752 133.53 101.558 133.041 101.558 132.532V91.8468C101.558 91.338 101.756 90.8487 102.105 90.4798L102.222 90.3555C102.649 89.9089 103.368 89.9089 103.795 90.3555L103.911 90.4798C104.265 90.8487 104.459 91.338 104.459 91.8468V132.532C104.459 133.041 104.261 133.53 103.911 133.899Z" fill="#F0F0F0"/>
<path d="M107.966 133.899L107.849 134.023C107.418 134.47 106.704 134.47 106.277 134.023L106.16 133.899C105.807 133.53 105.612 133.041 105.612 132.532V91.8468C105.612 91.338 105.81 90.8487 106.16 90.4798L106.277 90.3555C106.708 89.9089 107.422 89.9089 107.849 90.3555L107.966 90.4798C108.319 90.8487 108.514 91.338 108.514 91.8468V132.532C108.514 133.041 108.315 133.53 107.966 133.899Z" fill="#F0F0F0"/>
<path d="M112.025 133.899L111.908 134.023C111.477 134.47 110.762 134.47 110.335 134.023L110.219 133.899C109.865 133.53 109.671 133.041 109.671 132.532V91.8468C109.671 91.338 109.869 90.8487 110.219 90.4798L110.335 90.3555C110.766 89.9089 111.481 89.9089 111.908 90.3555L112.025 90.4798C112.378 90.8487 112.572 91.338 112.572 91.8468V132.532C112.572 133.041 112.374 133.53 112.025 133.899Z" fill="#F0F0F0"/>
<path d="M116.083 133.899L115.966 134.023C115.535 134.47 114.821 134.47 114.394 134.023L114.277 133.899C113.924 133.53 113.729 133.041 113.729 132.532V91.8468C113.729 91.338 113.928 90.8487 114.277 90.4798L114.394 90.3555C114.825 89.9089 115.539 89.9089 115.966 90.3555L116.083 90.4798C116.436 90.8487 116.631 91.338 116.631 91.8468V132.532C116.631 133.041 116.433 133.53 116.083 133.899Z" fill="#F0F0F0"/>
<path d="M120.141 133.899L120.025 134.023C119.593 134.47 118.879 134.47 118.452 134.023L118.335 133.899C117.982 133.53 117.788 133.041 117.788 132.532V91.8468C117.788 91.338 117.986 90.8487 118.335 90.4798L118.452 90.3555C118.883 89.9089 119.597 89.9089 120.025 90.3555L120.141 90.4798C120.494 90.8487 120.689 91.338 120.689 91.8468V132.532C120.689 133.041 120.491 133.53 120.141 133.899Z" fill="#F0F0F0"/>
<path d="M124.2 133.899L124.083 134.023C123.656 134.47 122.937 134.47 122.51 134.023L122.394 133.899C122.04 133.53 121.846 133.041 121.846 132.532V91.8468C121.846 91.338 122.044 90.8487 122.394 90.4798L122.51 90.3555C122.941 89.9089 123.656 89.9089 124.083 90.3555L124.2 90.4798C124.553 90.8487 124.747 91.338 124.747 91.8468V132.532C124.747 133.041 124.549 133.53 124.2 133.899Z" fill="#F0F0F0"/>
<path d="M128.258 133.899L128.142 134.023C127.711 134.47 126.996 134.47 126.569 134.023L126.452 133.899C126.099 133.53 125.905 133.041 125.905 132.532V91.8468C125.905 91.338 126.103 90.8487 126.452 90.4798L126.569 90.3555C127 89.9089 127.715 89.9089 128.142 90.3555L128.258 90.4798C128.612 90.8487 128.806 91.338 128.806 91.8468V132.532C128.806 133.041 128.608 133.53 128.258 133.899Z" fill="#F0F0F0"/>
<path d="M132.313 133.899L132.196 134.023C131.765 134.47 131.051 134.47 130.623 134.023L130.507 133.899C130.153 133.53 129.959 133.041 129.959 132.532V91.8468C129.959 91.338 130.157 90.8487 130.507 90.4798L130.623 90.3555C131.054 89.9089 131.769 89.9089 132.196 90.3555L132.313 90.4798C132.666 90.8487 132.86 91.338 132.86 91.8468V132.532C132.86 133.041 132.662 133.53 132.313 133.899Z" fill="#F0F0F0"/>
<path d="M135.408 129.507H134.014V137.697H135.408V129.507Z" fill="#E0E0E0"/>
<path d="M136.371 133.899L136.255 134.023C135.824 134.47 135.109 134.47 134.682 134.023L134.565 133.899C134.212 133.53 134.018 133.041 134.018 132.532V91.8468C134.018 91.338 134.216 90.8487 134.565 90.4798L134.682 90.3555C135.109 89.9089 135.828 89.9089 136.255 90.3555L136.371 90.4798C136.725 90.8487 136.919 91.338 136.919 91.8468V132.532C136.919 133.041 136.721 133.53 136.371 133.899Z" fill="#F0F0F0"/>
<path d="M140.429 133.899L140.313 134.023C139.882 134.47 139.167 134.47 138.74 134.023L138.624 133.899C138.27 133.53 138.076 133.041 138.076 132.532V91.8468C138.076 91.338 138.274 90.8487 138.624 90.4798L138.74 90.3555C139.171 89.9089 139.886 89.9089 140.313 90.3555L140.429 90.4798C140.783 90.8487 140.977 91.338 140.977 91.8468V132.532C140.977 133.041 140.779 133.53 140.429 133.899Z" fill="#F0F0F0"/>
<path d="M144.674 124.912H143.28V137.631H144.674V124.912Z" fill="#F5F5F5"/>
<path opacity="0.2" d="M162.9 7.14178C113.159 3.2122 93.2746 73.263 108.785 88.4197C124.296 103.576 144.614 81.4403 125.248 65.6767C98.3979 43.8213 46.3602 96.7048 15.3349 55.2243C7.11976 44.2409 0.411778 17.9192 20.7231 -10.2676" stroke="url(#paint1_linear_301_23655)" stroke-width="9.83913"/>
<path d="M71.0787 164.06C112.666 164.06 146.379 160.924 146.379 157.056C146.379 153.188 112.666 150.052 71.0787 150.052C29.4917 150.052 -4.22119 153.188 -4.22119 157.056C-4.22119 160.924 29.4917 164.06 71.0787 164.06Z" fill="#F5F5F5"/>
<path d="M33.4208 135.912H44.8621L44.8621 103.837H33.4208V135.912Z" fill="#515B60"/>
<path opacity="0.2" d="M33.4208 135.912H44.8621L44.8621 103.837H33.4208V135.912Z" fill="black"/>
<path d="M53.1929 82.0574C53.7094 83.4827 54.2454 84.8963 54.7813 86.3138C57.2707 92.8578 59.8883 99.3668 62.7894 105.74C64.2535 108.952 65.7759 112.152 67.543 115.208C68.4207 116.723 69.3955 117.756 69.1275 119.601C68.809 121.768 67.4847 123.768 65.5002 124.75C63.1078 125.935 60.0009 125.484 58.0475 123.667C57.5115 126.28 55.2163 128.44 52.5754 128.82C49.9306 129.197 47.1267 127.768 45.88 125.407C44.9246 128.117 42.3032 130.16 39.4409 130.424C36.5787 130.688 33.6271 129.158 32.1902 126.669C30.4464 128.37 28.3182 129.912 25.8831 130.032C23.4481 130.152 20.815 128.292 20.9043 125.857C19.4984 126.801 17.6149 126.976 16.0575 126.311C14.5041 125.643 13.3312 124.156 13.0438 122.49C11.7234 123.096 10.0262 122.746 9.05143 121.667C6.78338 119.158 9.44756 116.035 10.7913 113.826C12.5273 110.971 14.2011 108.074 15.7973 105.138C19.646 98.058 23.351 90.6169 25.3278 82.7642L53.189 82.0651L53.1929 82.0574Z" fill="#52C41A"/>
<path opacity="0.1" d="M53.1929 82.0574C53.7094 83.4827 54.2454 84.8963 54.7813 86.3138C57.2707 92.8578 59.8883 99.3668 62.7894 105.74C64.2535 108.952 65.7759 112.152 67.543 115.208C68.4207 116.723 69.3955 117.756 69.1275 119.601C68.809 121.768 67.4847 123.768 65.5002 124.75C63.1078 125.935 60.0009 125.484 58.0475 123.667C57.5115 126.28 55.2163 128.44 52.5754 128.82C49.9306 129.197 47.1267 127.768 45.88 125.407C44.9246 128.117 42.3032 130.16 39.4409 130.424C36.5787 130.688 33.6271 129.158 32.1902 126.669C30.4464 128.37 28.3182 129.912 25.8831 130.032C23.4481 130.152 20.815 128.292 20.9043 125.857C19.4984 126.801 17.6149 126.976 16.0575 126.311C14.5041 125.643 13.3312 124.156 13.0438 122.49C11.7234 123.096 10.0262 122.746 9.05143 121.667C6.78338 119.158 9.44756 116.035 10.7913 113.826C12.5273 110.971 14.2011 108.074 15.7973 105.138C19.646 98.058 23.351 90.6169 25.3278 82.7642L53.189 82.0651L53.1929 82.0574Z" fill="white"/>
<path d="M59.0649 97.1221C59.461 98.0697 36.8505 124.005 15.8167 105.487" stroke="#52C41A" stroke-width="0.696373" stroke-linecap="round" stroke-linejoin="round"/>
<path d="M48.2762 107.002L48.0859 107.946L47.1965 108.322L48.0393 108.796L48.1208 109.755L48.8315 109.107L49.7714 109.32L49.3714 108.447L49.8685 107.619L48.9092 107.728L48.2762 107.002Z" fill="#52C41A"/>
<path d="M23.6304 110.769L22.8653 111.355L21.9487 111.056L22.2672 111.965L21.7002 112.742L22.6633 112.719L23.2304 113.499L23.5061 112.579L24.4226 112.28L23.6304 111.732V110.769Z" fill="#52C41A"/>
<path d="M26.7143 154.371H51.5735L55.4572 135.904H22.8307L26.7143 154.371Z" fill="#52C41A"/>
<path opacity="0.4" d="M26.7143 154.371H51.5735L55.4572 135.904H22.8307L26.7143 154.371Z" fill="#FAFAFA"/>
<path d="M22.042 138.323H56.2413C56.7947 138.323 57.2433 137.875 57.2433 137.322V136.184C57.2433 135.63 56.7947 135.182 56.2413 135.182H22.042C21.4886 135.182 21.04 135.63 21.04 136.184V137.322C21.04 137.875 21.4886 138.323 22.042 138.323Z" fill="#52C41A"/>
<path d="M16.5818 90.5779C16.6828 90.306 16.811 90.0419 16.9586 89.7856C21.0985 82.5232 24.8851 75.2103 28.1939 67.509L36.1632 69.0936V70.2121C36.3302 69.4625 36.4195 69.0275 36.4195 69.0275L50.7113 68.1265C52.455 72.9966 55.0182 77.5793 57.7213 81.9756C58.7543 83.6572 59.8145 85.3272 60.933 86.9505C62.0942 88.6399 63.4263 90.1507 61.3758 91.9993C60.4243 92.8576 58.7155 92.9003 57.9737 91.8556C57.8999 93.3624 57.4999 94.9508 56.3814 95.9645C55.2668 96.9781 53.2823 97.114 52.3502 95.9256C52.257 98.1354 50.7618 100.299 48.6335 100.904C46.5053 101.506 43.9421 100.271 43.3285 98.1432C42.8663 99.6967 41.5847 101.064 39.9808 101.312C38.3768 101.561 36.5943 100.442 36.3923 98.8345C35.9146 100.625 33.9534 101.883 32.1281 101.572C30.3028 101.262 28.8697 99.4248 29.0134 97.5762C27.8832 98.8966 25.7239 99.184 24.287 98.2015C22.85 97.2189 22.3335 95.1062 23.153 93.5722C21.7238 94.6013 19.98 95.681 18.3178 95.0945C17.3314 94.745 16.6013 93.8207 16.3799 92.7993C16.2129 92.0381 16.3139 91.2886 16.578 90.5818L16.5818 90.5779Z" fill="#52C41A"/>
<path opacity="0.2" d="M16.5818 90.5779C16.6828 90.306 16.811 90.0419 16.9586 89.7856C21.0985 82.5232 24.8851 75.2103 28.1939 67.509L36.1632 69.0936V70.2121C36.3302 69.4625 36.4195 69.0275 36.4195 69.0275L50.7113 68.1265C52.455 72.9966 55.0182 77.5793 57.7213 81.9756C58.7543 83.6572 59.8145 85.3272 60.933 86.9505C62.0942 88.6399 63.4263 90.1507 61.3758 91.9993C60.4243 92.8576 58.7155 92.9003 57.9737 91.8556C57.8999 93.3624 57.4999 94.9508 56.3814 95.9645C55.2668 96.9781 53.2823 97.114 52.3502 95.9256C52.257 98.1354 50.7618 100.299 48.6335 100.904C46.5053 101.506 43.9421 100.271 43.3285 98.1432C42.8663 99.6967 41.5847 101.064 39.9808 101.312C38.3768 101.561 36.5943 100.442 36.3923 98.8345C35.9146 100.625 33.9534 101.883 32.1281 101.572C30.3028 101.262 28.8697 99.4248 29.0134 97.5762C27.8832 98.8966 25.7239 99.184 24.287 98.2015C22.85 97.2189 22.3335 95.1062 23.153 93.5722C21.7238 94.6013 19.98 95.681 18.3178 95.0945C17.3314 94.745 16.6013 93.8207 16.3799 92.7993C16.2129 92.0381 16.3139 91.2886 16.578 90.5818L16.5818 90.5779Z" fill="white"/>
<path d="M55.6857 78.189C55.81 78.7676 29.3663 96.8188 20.1116 84.5698" stroke="#52C41A" stroke-width="0.696373" stroke-linecap="round" stroke-linejoin="round"/>
<path d="M35.9222 88.042L35.6037 88.9508L34.6716 89.2032L35.4406 89.7896L35.3901 90.7528L36.1863 90.2052L37.0834 90.5469L36.8076 89.6226L37.4135 88.8731L36.4503 88.8498L35.9222 88.042Z" fill="#52C41A"/>
<path d="M46.6103 53.8467C46.7773 53.8351 47.9152 57.0274 48.0084 57.2527C49.3444 60.4334 50.727 63.5985 52.2261 66.7054C52.9678 68.2473 53.7368 69.7774 54.5795 71.2687C54.9252 71.8785 55.2786 72.4843 55.667 73.0669C56.1951 73.8552 56.9874 74.43 55.9039 75.2262C55.5038 75.5213 55.0106 75.6611 54.5252 75.766C53.9543 75.8941 53.3601 75.9835 52.7853 75.8786C52.2105 75.7738 51.6474 75.4475 51.395 74.9193C51.0765 76.0301 50.7075 77.1447 50.0318 78.0845C49.356 79.0205 48.3308 79.7661 47.1812 79.8477C46.0316 79.9293 44.8005 79.203 44.5364 78.0806C43.9811 78.8146 43.3636 79.5292 42.5791 80.0108C41.7946 80.4924 40.8081 80.7215 39.9343 80.4341C39.0605 80.1467 38.3615 79.2613 38.4624 78.3447C37.8333 79.4865 36.5789 80.306 35.2778 80.2516C33.9768 80.1972 32.7341 79.1525 32.6137 77.8554C31.8369 79.1991 30.0699 79.8826 28.5902 79.4088C27.1105 78.935 26.0658 77.3583 26.2095 75.8126C25.6076 76.3213 24.7493 76.5777 24.0075 76.3058C23.4599 76.1039 22.9939 75.5291 22.9822 74.931C22.9667 74.0494 23.9997 72.8999 24.4308 72.1697C25.3474 70.6279 26.229 69.0628 27.0678 67.4783C29.1766 63.5053 31.1651 59.3654 32.3379 55.0079L46.6025 53.8545L46.6103 53.8467Z" fill="#52C41A"/>
<path opacity="0.3" d="M46.6103 53.8467C46.7773 53.8351 47.9152 57.0274 48.0084 57.2527C49.3444 60.4334 50.727 63.5985 52.2261 66.7054C52.9678 68.2473 53.7368 69.7774 54.5795 71.2687C54.9252 71.8785 55.2786 72.4843 55.667 73.0669C56.1951 73.8552 56.9874 74.43 55.9039 75.2262C55.5038 75.5213 55.0106 75.6611 54.5252 75.766C53.9543 75.8941 53.3601 75.9835 52.7853 75.8786C52.2105 75.7738 51.6474 75.4475 51.395 74.9193C51.0765 76.0301 50.7075 77.1447 50.0318 78.0845C49.356 79.0205 48.3308 79.7661 47.1812 79.8477C46.0316 79.9293 44.8005 79.203 44.5364 78.0806C43.9811 78.8146 43.3636 79.5292 42.5791 80.0108C41.7946 80.4924 40.8081 80.7215 39.9343 80.4341C39.0605 80.1467 38.3615 79.2613 38.4624 78.3447C37.8333 79.4865 36.5789 80.306 35.2778 80.2516C33.9768 80.1972 32.7341 79.1525 32.6137 77.8554C31.8369 79.1991 30.0699 79.8826 28.5902 79.4088C27.1105 78.935 26.0658 77.3583 26.2095 75.8126C25.6076 76.3213 24.7493 76.5777 24.0075 76.3058C23.4599 76.1039 22.9939 75.5291 22.9822 74.931C22.9667 74.0494 23.9997 72.8999 24.4308 72.1697C25.3474 70.6279 26.229 69.0628 27.0678 67.4783C29.1766 63.5053 31.1651 59.3654 32.3379 55.0079L46.6025 53.8545L46.6103 53.8467Z" fill="white"/>
<path d="M49.9928 61.8508C49.9928 61.8508 38.3031 78.6748 26.2211 69.0472" stroke="#52C41A" stroke-width="0.696373" stroke-linecap="round" stroke-linejoin="round"/>
<path d="M38.7962 71.261L38.369 72.1232L37.4175 72.263L38.1088 72.9348L37.9457 73.8863L38.7962 73.4358L39.6506 73.8863L39.4875 72.9348L40.1788 72.263L39.2234 72.1232L38.7962 71.261Z" fill="#52C41A"/>
<path d="M39.1534 37.0886C39.2117 37.2517 38.8466 37.877 38.7883 38.0246C38.4194 38.9489 38.031 39.8654 37.6349 40.7742C36.1397 44.219 34.5008 47.6016 32.7804 50.9338C31.6386 53.1436 30.4579 55.3301 29.2424 57.4972C28.6676 58.5186 27.6928 59.6837 27.6578 60.8293C27.6268 61.8857 28.0928 62.9304 29.0443 63.4624C30.0579 64.0294 31.4288 63.8586 32.2677 63.0547C32.1551 64.5343 33.5649 65.8819 35.0484 65.8781C36.532 65.8742 37.8718 64.6819 38.2369 63.245C38.5553 64.4062 39.9845 65.0159 41.1418 64.6897C42.2992 64.3634 43.1419 63.311 43.5225 62.1692C43.8332 62.81 44.6488 63.0352 45.3595 62.9692C46.8624 62.8255 48.1906 61.5789 48.4237 60.0876C48.3538 60.5303 52.7345 61.1284 51.2199 58.8564C50.5558 57.8583 49.8994 56.8564 49.2509 55.8505C47.1071 52.5106 45.0488 49.1124 43.1574 45.6288C41.6622 42.8714 40.2253 40.0518 39.1573 37.0964L39.1534 37.0886Z" fill="#52C41A"/>
<path opacity="0.4" d="M39.1534 37.0886C39.2117 37.2517 38.8466 37.877 38.7883 38.0246C38.4194 38.9489 38.031 39.8654 37.6349 40.7742C36.1397 44.219 34.5008 47.6016 32.7804 50.9338C31.6386 53.1436 30.4579 55.3301 29.2424 57.4972C28.6676 58.5186 27.6928 59.6837 27.6578 60.8293C27.6268 61.8857 28.0928 62.9304 29.0443 63.4624C30.0579 64.0294 31.4288 63.8586 32.2677 63.0547C32.1551 64.5343 33.5649 65.8819 35.0484 65.8781C36.532 65.8742 37.8718 64.6819 38.2369 63.245C38.5553 64.4062 39.9845 65.0159 41.1418 64.6897C42.2992 64.3634 43.1419 63.311 43.5225 62.1692C43.8332 62.81 44.6488 63.0352 45.3595 62.9692C46.8624 62.8255 48.1906 61.5789 48.4237 60.0876C48.3538 60.5303 52.7345 61.1284 51.2199 58.8564C50.5558 57.8583 49.8994 56.8564 49.2509 55.8505C47.1071 52.5106 45.0488 49.1124 43.1574 45.6288C41.6622 42.8714 40.2253 40.0518 39.1573 37.0964L39.1534 37.0886Z" fill="white"/>
<path d="M43.4449 46.0676C43.4449 46.0676 38.2603 52.1727 32.7028 51.0814" stroke="#52C41A" stroke-width="0.696373" stroke-linecap="round" stroke-linejoin="round"/>
<path d="M37.4176 50.6155L36.9904 51.4776L36.0389 51.6175L36.7263 52.2893L36.5632 53.2408L37.4176 52.7903L38.272 53.2408L38.1089 52.2893L38.7963 51.6175L37.8448 51.4776L37.4176 50.6155Z" fill="#52C41A"/>
<path d="M29.0833 115.973C30.1257 115.973 30.9707 115.045 30.9707 113.899C30.9707 112.754 30.1257 111.825 29.0833 111.825C28.0408 111.825 27.1958 112.754 27.1958 113.899C27.1958 115.045 28.0408 115.973 29.0833 115.973Z" fill="#52C41A"/>
<path d="M25.7197 89.9178C25.7197 90.6789 25.1565 91.2964 24.4652 91.2964C23.7739 91.2964 23.2108 90.6789 23.2108 89.9178C23.2108 89.1566 23.7739 88.5391 24.4652 88.5391C25.1565 88.5391 25.7197 89.1566 25.7197 89.9178Z" fill="#52C41A"/>
<path d="M46.8898 91.8285C46.8898 92.9742 46.0431 93.9024 45.0023 93.9024C43.9615 93.9024 43.1149 92.9742 43.1149 91.8285C43.1149 90.6828 43.9615 89.7546 45.0023 89.7546C46.0431 89.7546 46.8898 90.6828 46.8898 91.8285Z" fill="#52C41A"/>
<path d="M42.2834 57.1593C42.2834 57.7458 41.8485 58.2235 41.3164 58.2235C40.7843 58.2235 40.3494 57.7458 40.3494 57.1593C40.3494 56.5729 40.7843 56.0952 41.3164 56.0952C41.8485 56.0952 42.2834 56.5729 42.2834 57.1593Z" fill="#52C41A"/>
<path d="M83.0657 78.2861L86.0522 84.5262C86.0522 84.5262 89.5681 88.5625 91.3406 86.4348C94.264 82.9174 92.5109 71.9747 92.5109 71.9747L89.9809 71.5796L88.7134 79.7331C88.7134 79.7331 85.4549 76.7963 83.0657 78.2909V78.2861Z" fill="#FF4D4F"/>
<path opacity="0.2" d="M83.0657 78.2861L86.0522 84.5262C86.0522 84.5262 89.5681 88.5625 91.3406 86.4348C94.264 82.9174 92.5109 71.9747 92.5109 71.9747L89.9809 71.5796L88.7134 79.7331C88.7134 79.7331 85.4549 76.7963 83.0657 78.2909V78.2861Z" fill="black"/>
<path d="M89.977 71.5797L89.37 68.5525L93.6531 67.9766C93.6531 67.9766 94.3427 70.5326 92.5071 71.97L89.977 71.575V71.5797Z" fill="#EEC1BB"/>
<path d="M91.4238 65.7489L92.7786 66.1154C93.3371 66.2677 93.7159 66.7818 93.6867 67.3482L93.6333 68.3335L89.3647 68.5477L89.8989 66.6009C90.0786 65.9488 90.7585 65.568 91.4238 65.7441V65.7489Z" fill="#EEC1BB"/>
<path d="M83.0036 154.914C80.4055 154.752 80.9785 154.523 78.769 154.419C76.8751 154.333 76.3118 154.247 74.7821 154.205C74.7335 154.205 74.6849 154.205 74.6364 154.186C74.3401 154.105 74.1653 153.805 74.2479 153.514L74.9811 150.411L75.5882 143.9L79.4148 144.081L78.8224 150.421C78.8758 150.516 78.9195 150.635 79.0409 150.744C80.1627 151.868 81.2602 152.653 84.2759 153.167C84.9606 153.286 84.5673 155.018 83.0036 154.923V154.914Z" fill="#EEC1BB"/>
<path opacity="0.1" d="M83.0036 154.914C80.4055 154.752 80.9785 154.523 78.769 154.419C76.8751 154.333 76.3118 154.247 74.7821 154.205C74.7335 154.205 74.6849 154.205 74.6364 154.186C74.3401 154.105 74.1653 153.805 74.2479 153.514L74.9811 150.411L75.5882 143.9L79.4148 144.081L78.8224 150.421C78.8758 150.516 78.9195 150.635 79.0409 150.744C80.1627 151.868 81.2602 152.653 84.2759 153.167C84.9606 153.286 84.5673 155.018 83.0036 154.923V154.914Z" fill="black"/>
<path d="M84.6743 98.2677C87.3355 105.017 83.198 138.883 81.4789 144.109C81.1438 145.132 79.517 146.28 79.0945 147.479L75.4038 147.022C75.4038 147.022 74.4957 144.885 74.384 143.252C74.1267 139.516 73.4711 98.8484 73.4711 98.8484L84.6743 98.2629V98.2677Z" fill="#FF4D4F"/>
<path opacity="0.1" d="M74.3842 143.257C74.1268 139.521 73.4712 98.8533 73.4712 98.8533L84.6744 98.2678C87.3356 105.017 83.1981 138.883 81.479 144.109L74.3793 143.257H74.3842Z" fill="black"/>
<path opacity="0.2" d="M77.8363 106.103C77.8363 106.103 79.0989 109.201 79.8079 110.125C80.5169 111.048 81.4784 144.109 81.4784 144.109C81.4784 144.109 78.3074 118.778 77.8363 106.103Z" fill="black"/>
<path d="M81.1532 152.648L84.9799 152.829L85.7811 144.166L81.9593 143.985L81.1532 152.648Z" fill="#EEC1BB"/>
<path d="M84.2857 150.444L81.6245 150.349C81.4691 150.34 81.3234 150.444 81.2846 150.592L80.0268 152.986C79.8374 153.343 79.9248 154.171 80.09 154.538C80.4056 155.238 83.363 154.728 85.2569 154.814C87.4713 154.923 86.7818 154.847 89.375 155.009C90.9435 155.104 91.3369 153.372 90.6521 153.253C87.6365 152.734 86.3399 151.901 85.2181 150.778C84.9656 150.554 84.6305 150.435 84.2905 150.449L84.2857 150.444Z" fill="#EEC1BB"/>
<path d="M91.0448 98.3583C93.7059 105.108 89.5685 138.969 87.8494 144.2C87.5143 145.223 85.8875 146.37 85.465 147.57L81.7743 147.113C81.7743 147.113 80.8662 144.976 80.7545 143.343C80.4971 139.606 79.8416 98.939 79.8416 98.939L91.0448 98.3535V98.3583Z" fill="#FF4D4F"/>
<path opacity="0.1" d="M80.7498 143.348C80.4924 139.611 79.8368 98.9436 79.8368 98.9436L91.04 98.3582C93.7012 105.108 89.5637 138.969 87.8446 144.2L80.7449 143.348H80.7498Z" fill="black"/>
<path d="M87.184 58.4521C87.9464 58.9995 88.7816 59.4422 89.6655 59.7706C89.4809 60.218 89.107 60.5607 88.6457 60.713L87.184 58.4521Z" fill="#D4827D"/>
<path d="M85.9268 57.9048C85.9656 57.8762 85.9947 57.8334 85.9996 57.781C86.1064 57.2051 86.4852 56.7148 87.0194 56.4578C87.1408 56.4102 87.1991 56.2769 87.1505 56.1579C87.1068 56.0389 86.9708 55.9818 86.8494 56.0247C86.8494 56.0247 86.8494 56.0247 86.8446 56.0247C86.1696 56.3341 85.6839 56.9481 85.5431 57.6668C85.514 57.7858 85.5917 57.9048 85.7131 57.9333H85.7228C85.7908 57.9524 85.8685 57.9333 85.9219 57.8905L85.9268 57.9048Z" fill="#263238"/>
<path d="M80.2692 65.4919C80.3906 68.124 80.0458 71.1608 78.2004 72.365C78.2004 72.365 78.9143 75.2066 85.2176 75.6826C92.1522 76.2014 88.7481 73.1551 88.7481 73.1551C85.7372 71.8319 84.5475 69.4949 85.373 67.4196L82.1242 64.5875C81.6386 64.1972 80.9248 64.2639 80.5266 64.7351C80.3469 64.9445 80.2546 65.2158 80.2692 65.4871V65.4919Z" fill="#EEC1BB"/>
<path d="M91.9189 88.6148V88.6529C91.88 93.8172 91.9189 101.133 91.9189 101.133L90.3406 100.728C86.781 99.8193 83.1341 99.291 79.4628 99.1529L73.3246 98.9245C74.5872 91.6896 74.5823 88.6719 73.4848 78.6764C73.1061 75.1922 74.0724 71.4748 76.0052 71.2702C76.044 71.2702 76.0877 71.2607 76.1315 71.2607C76.5199 71.2369 76.9133 71.2083 77.3163 71.1988C77.8554 71.175 78.4041 71.1607 78.9529 71.1655C79.0792 71.1655 79.2103 71.1655 79.3365 71.1655H79.3511C80.3369 71.1655 81.3227 71.1845 82.3134 71.2273C84.2218 71.2987 88.2039 71.6986 88.2719 71.7033C88.7672 71.9318 89.2189 72.2412 89.5928 72.6172C89.9667 72.9885 90.2678 73.4311 90.4669 73.9309C91.375 76.2299 92.963 80.3328 92.8804 80.6089C92.8804 80.6327 92.5696 81.6275 92.4531 82.0749C92.3171 82.5746 92.1957 83.0697 92.084 83.5885L91.9189 88.6148Z" fill="#FF4D4F"/>
<path opacity="0.2" d="M92.0839 83.5884C91.7974 78.3479 89.8501 77.5768 89.1799 74.5734C89.0585 74.0403 87.9465 74.2117 87.1452 74.245C83.8381 74.3592 84.4889 76.8391 85.9651 79.7473C87.9416 83.6408 91.7586 90.0189 91.9237 88.6528L92.0888 83.5932L92.0839 83.5884Z" fill="black"/>
<path d="M87.864 66.7961H87.8494V66.8056C87.5434 67.1388 87.1841 67.4386 86.8005 67.6957C86.4848 67.9146 86.1497 68.1002 85.7952 68.2525C85.5767 68.3477 85.363 68.4239 85.1348 68.4953C83.8819 68.8808 82.4785 68.8713 81.1284 68.3001C80.8031 68.1621 80.5068 68.005 80.2349 67.8384C80.1766 67.8004 80.1184 67.767 80.0649 67.7242C78.2487 66.4962 77.5931 64.5209 76.3451 61.5984C76.1314 61.0986 76.0149 60.5893 75.976 60.08C75.8206 57.8572 77.2775 55.682 79.589 54.7395C80.4 54.4064 81.3178 54.2255 82.3085 54.2445C83.5857 54.2683 84.6929 54.7062 85.6204 55.3964C85.9506 55.6391 86.2614 55.9152 86.5431 56.2198C86.6839 56.3626 86.815 56.5102 86.9461 56.6673C87.2035 56.9814 87.4415 57.3193 87.6551 57.6668C87.7183 57.762 87.7766 57.8572 87.83 57.9524C88.0679 58.3665 88.2816 58.8044 88.4661 59.2471C88.6507 59.6897 88.8061 60.1371 88.9323 60.5845C89.1606 61.3747 89.3014 62.16 89.35 62.874C89.4471 64.3495 88.8546 65.7394 87.8591 66.8008L87.864 66.7961Z" fill="#EEC1BB"/>
<path d="M88.9566 61.3603C89.1265 62.0362 89.1702 62.7359 89.0828 63.4213L89.0731 63.507C89.0488 63.5212 89.0246 63.5308 89.0003 63.5403C88.9663 63.5593 88.9323 63.5736 88.8983 63.5831C88.8692 63.5926 88.84 63.6022 88.806 63.6069C88.4855 63.6783 88.2087 63.526 87.9951 63.3166C87.8251 63.15 87.694 62.9453 87.6017 62.774C87.5386 62.6454 87.4949 62.5312 87.4803 62.4646C87.4075 62.2075 87.3929 62.0076 87.422 61.8506C87.4269 61.8077 87.4366 61.7744 87.4463 61.7411C87.5726 61.346 87.9902 61.2699 88.3641 61.2746H88.369C88.437 61.2746 88.505 61.2794 88.5584 61.2889C88.5729 61.2889 88.5875 61.2889 88.6069 61.2937C88.6846 61.3079 88.7526 61.3175 88.806 61.3317C88.8983 61.346 88.9566 61.3651 88.9566 61.3651V61.3603Z" fill="#263238"/>
<path d="M88.8062 61.3319V61.765C87.7524 61.9792 87.4368 61.7793 87.4465 61.746C87.5728 61.3509 87.9904 61.2747 88.3643 61.2795H88.3692C88.4372 61.2795 88.5052 61.2843 88.5586 61.2938C88.5731 61.2938 88.5877 61.2938 88.6071 61.2985C88.6848 61.3128 88.7528 61.3223 88.8062 61.3366V61.3319Z" fill="white"/>
<path d="M88.8938 63.5879C88.2722 63.7926 87.8157 63.1928 87.6021 62.774C87.6021 62.7264 87.7429 62.7454 87.8449 62.7883C88.1848 62.8359 88.7093 63.0691 88.8938 63.5879Z" fill="#BE9A96"/>
<path d="M88.9953 63.545C88.9614 63.564 88.9274 63.5783 88.8934 63.5878C88.8642 63.5973 88.8351 63.6069 88.8011 63.6116C88.4806 63.683 88.2038 63.5307 87.9901 63.3213C88.1552 63.326 88.5874 63.326 88.9371 63.2832L88.9953 63.545Z" fill="white"/>
<path d="M82.0364 67.5195C77.6804 69.0617 73.9217 62.9596 73.3244 60.3513C72.2658 55.7153 77.8164 54.0827 79.3218 54.6348C84.5616 56.553 84.5762 66.6199 82.0364 67.5243V67.5195Z" fill="#263238"/>
<path d="M84.4256 61.4699C84.4256 61.4699 82.9834 59.7897 81.5993 60.6369C80.2153 61.4842 82.0995 64.4685 84.0906 64.3305C84.0906 64.3305 86.0767 63.2643 84.4208 61.4699H84.4256Z" fill="#EEC1BB"/>
<path d="M88.2718 71.6984C88.2038 71.6889 88.1261 71.6746 88.029 71.6604C86.1302 71.4414 84.2217 71.2938 82.3181 71.2177C81.3275 71.1796 80.3417 71.1606 79.351 71.1558C79.351 71.1558 79.3478 71.1558 79.3413 71.1558C79.215 71.1558 79.0839 71.1558 78.9576 71.1558C79.0645 70.2134 78.9188 69.7469 79.5792 69.409C79.9823 69.2043 84.6685 68.7093 86.543 70.1039C87.5482 70.8559 88.1844 70.9131 88.2766 71.6937L88.2718 71.6984Z" fill="#FF4D4F"/>
<path opacity="0.2" d="M88.2718 71.6984C88.2038 71.6889 88.1261 71.6746 88.029 71.6604C86.1302 71.4414 84.2217 71.2938 82.3181 71.2177C81.3275 71.1796 80.3417 71.1606 79.351 71.1558C79.351 71.1558 79.3478 71.1558 79.3413 71.1558C79.215 71.1558 79.0839 71.1558 78.9576 71.1558C79.0645 70.2134 78.9188 69.7469 79.5792 69.409C79.9823 69.2043 84.6685 68.7093 86.543 70.1039C87.5482 70.8559 88.1844 70.9131 88.2766 71.6937L88.2718 71.6984Z" fill="black"/>
<path opacity="0.2" d="M86.8004 67.6957C86.8004 67.6957 85.6495 67.4863 84.8288 66.9056C84.0081 66.3249 83.6876 65.9536 83.6876 65.9536C83.6876 65.9536 84.5617 68.3049 85.1348 68.4953C85.7029 68.6857 86.8004 67.6957 86.8004 67.6957Z" fill="black"/>
<path opacity="0.2" d="M93.1863 71.356C92.6327 71.3322 92.0888 71.0942 91.7051 70.6992C91.3215 70.3089 91.2972 69.7472 91.137 69.2236C90.9476 68.6096 91.0204 67.9194 91.3312 67.353C91.642 66.7866 92.1907 66.3487 92.8172 66.1631C92.2976 66.958 92.0159 67.967 92.1325 68.9047C92.2442 69.8424 92.4967 70.6944 93.1911 71.3512L93.1863 71.356Z" fill="black"/>
<path d="M98.1304 86.3351C96.9212 88.8101 92.5312 85.702 92.5312 85.702C92.5312 85.702 87.4517 80.6043 84.975 77.4962C83.9504 76.2063 83.6153 74.4785 84.2077 72.9506C84.8633 71.2656 86.2036 70.861 88.3501 71.7226C90.0983 72.427 91.5212 74.2357 92.8857 76.3776L93.721 77.7103L93.2354 72.2128L95.7897 72.0129C95.7897 72.0129 100.126 82.2464 98.1255 86.3351H98.1304Z" fill="#FF4D4F"/>
<path d="M93.2396 72.2129L91.9236 69.4141L95.9494 67.8672C95.9494 67.8672 97.2314 70.1947 95.7988 72.0129L93.2445 72.2129H93.2396Z" fill="#EEC1BB"/>
<path d="M93.2445 66.2156L94.6528 66.2584C95.2355 66.2775 95.726 66.6868 95.8328 67.2485L96.0173 68.2195L91.9236 69.4094L91.9721 67.396C91.9867 66.7249 92.5597 66.1918 93.2493 66.2156H93.2445Z" fill="#EEC1BB"/>
<path d="M73.1646 56.7815C73.66 55.2203 75.0148 54.0351 76.5251 53.345C78.0354 52.6548 81.3084 51.4172 85.543 52.9927C86.6939 53.4211 85.7858 56.8291 82.6633 58.0238C80.8131 58.7283 76.7242 60.418 74.7283 60.0753C72.9218 59.7659 72.6887 58.2713 73.1598 56.7815H73.1646Z" fill="#263238"/>
<path d="M73.8979 59.171C72.8781 59.033 72.0283 58.1001 72.004 57.091C71.9943 56.7578 72.1788 56.3818 72.3197 56.0771C72.3828 57.2481 72.9073 58.5142 73.8979 59.171Z" fill="#263238"/>
<path d="M88.1459 57.9191C87.8836 58.0286 87.602 58.0667 87.3252 58.0429C87.3203 57.9334 87.3106 57.8192 87.3009 57.7097C87.5486 57.743 87.7962 57.7097 88.0245 57.6097C88.0585 57.5907 88.0973 57.5954 88.1313 57.6097C88.1847 57.624 88.2236 57.6621 88.2381 57.7097C88.2381 57.7097 88.2381 57.7144 88.243 57.7192C88.2721 57.8049 88.2284 57.8953 88.1459 57.9286V57.9191Z" fill="#263238"/>
<path d="M120.147 47.2636C120.714 47.1549 121.273 47.0034 121.801 46.8131C127.394 44.7936 130.299 38.6031 128.279 33.0107C127.157 29.9037 124.718 27.5192 121.584 26.4589C118.438 22.1831 112.764 20.4587 107.766 22.2646C103.836 23.6821 100.888 27.0959 100.041 31.1931C94.6721 32.5189 91.5393 38.4591 93.4159 43.6596C95.1985 48.5957 100.667 51.1628 105.607 49.3802C105.719 49.3375 105.832 49.2948 105.945 49.252C108.787 51.1473 112.387 51.59 115.595 50.4288C117.362 49.7919 118.935 48.7006 120.147 47.2714V47.2636Z" fill="white"/>
<path d="M120.147 47.2636C120.714 47.1549 121.273 47.0034 121.801 46.8131C127.394 44.7936 130.299 38.6031 128.279 33.0107C127.157 29.9037 124.718 27.5192 121.584 26.4589C118.438 22.1831 112.764 20.4587 107.766 22.2646C103.836 23.6821 100.888 27.0959 100.041 31.1931C99.7268 31.2708 99.4239 31.364 99.1365 31.4688C94.2004 33.2514 91.6333 38.7196 93.4159 43.6596C95.1985 48.5957 100.667 51.1628 105.607 49.3802C105.719 49.3375 105.832 49.2948 105.945 49.252C108.787 51.1473 112.387 51.59 115.595 50.4288C117.362 49.7919 118.935 48.7006 120.147 47.2714V47.2636ZM105.89 48.8443C105.754 48.9025 105.614 48.9569 105.471 49.0074C100.733 50.7162 95.4898 48.2578 93.7771 43.5198C92.0683 38.7817 94.5266 33.5388 99.2647 31.8261C99.5754 31.7135 99.9094 31.6164 100.251 31.5349L100.372 31.5038L100.395 31.3795C101.179 27.3638 104.053 24.0084 107.894 22.6219C112.753 20.8665 118.267 22.5559 121.304 26.7308L121.339 26.7813L121.398 26.8007C124.446 27.8105 126.823 30.1212 127.91 33.1349C129.856 38.5254 127.056 44.4946 121.666 46.4403C121.133 46.6306 120.574 46.782 120.003 46.8869L119.933 46.8986L119.887 46.9529C118.714 48.3549 117.18 49.4268 115.456 50.0482C112.329 51.1783 108.818 50.7317 106.069 48.8559L105.983 48.7977L105.886 48.8365L105.89 48.8443Z" fill="#FF2323"/>
<path d="M105.783 56.9902C106.28 56.7476 106.655 56.3229 106.831 55.799C107.008 55.2751 106.975 54.7125 106.732 54.2162C106.489 53.7198 106.065 53.3448 105.541 53.1683C105.017 52.9919 104.454 53.025 103.957 53.2676C102.931 53.7695 102.507 55.0159 103.009 56.0417C103.251 56.538 103.676 56.913 104.2 57.0895C104.653 57.2439 105.127 57.2384 105.568 57.0785C105.64 57.0509 105.712 57.0233 105.783 56.9902ZM105.364 53.6923C105.75 53.8246 106.059 54.0949 106.236 54.4644C106.605 55.2199 106.291 56.1299 105.541 56.4994C104.79 56.8689 103.875 56.5546 103.505 55.8045C103.136 55.049 103.45 54.139 104.2 53.7695C104.25 53.7419 104.305 53.7198 104.355 53.7033C104.68 53.5875 105.028 53.582 105.359 53.6978L105.364 53.6923Z" fill="#BB0002"/>
<path d="M102.931 62.0441C103.233 61.8964 103.455 61.6433 103.56 61.3321C103.666 61.0157 103.645 60.6782 103.502 60.3829C103.354 60.0823 103.101 59.8608 102.789 59.7553C102.472 59.6498 102.133 59.6709 101.837 59.8133C101.219 60.1139 100.965 60.8628 101.267 61.4798C101.415 61.7804 101.668 62.0019 101.98 62.1074C102.25 62.2023 102.54 62.1971 102.805 62.1021C102.847 62.0863 102.889 62.0705 102.931 62.0494V62.0441ZM102.614 60.251C102.794 60.3143 102.942 60.4409 103.027 60.6149C103.111 60.7889 103.122 60.9788 103.064 61.1634C103 61.3427 102.873 61.4904 102.699 61.5747C102.53 61.6591 102.334 61.6697 102.149 61.6117C101.969 61.5484 101.821 61.4218 101.737 61.2478C101.563 60.8944 101.71 60.462 102.065 60.2879C102.091 60.2774 102.112 60.2668 102.139 60.2563C102.292 60.2035 102.456 60.1983 102.614 60.2563V60.251Z" fill="#BB0002"/>
<path d="M111.258 32.2148C112.12 32.252 114.971 32.3033 115.894 31.1338C116.113 30.859 116.327 30.421 116.117 29.7454C115.857 28.9068 115.195 28.5201 114.305 28.576C113.14 28.6459 111.64 29.5311 110.895 30.5421C110.312 29.6569 109.199 28.3244 107.652 28.576C106.529 28.753 105.728 29.6616 105.863 30.6027C105.937 31.1105 106.506 32.676 110.732 32.2334L111.095 33.0487L111.258 32.2148ZM114.356 29.5078C114.818 29.4799 115.083 29.615 115.214 30.0436C115.307 30.3418 115.228 30.449 115.148 30.5468C114.654 31.1711 112.791 31.3575 111.496 31.3202C111.924 30.5375 113.322 29.5684 114.356 29.5078ZM110.294 31.3249C107.675 31.5438 106.855 30.8823 106.795 30.4676C106.743 30.0995 107.158 29.615 107.796 29.5125C107.848 29.5032 107.894 29.4985 107.941 29.4985C109.068 29.4333 109.93 30.6959 110.294 31.3295V31.3249Z" fill="#FF4D26"/>
<path d="M120.548 44.8362H102.121V32.1774H120.548V44.8362Z" fill="#BB0002"/>
<path opacity="0.1" d="M120.548 44.8408H102.121V36.5569H120.548V44.8408Z" fill="black"/>
<path opacity="0.2" d="M109.441 44.8362H102.121V32.1774H109.441V44.8362Z" fill="#FF4D26"/>
<path d="M101.6 32.1821H121.098V36.557H101.6V32.1821Z" fill="#BB0002"/>
<path opacity="0.1" d="M101.6 32.1821H121.098V36.557H101.6V32.1821Z" fill="#FF4D26"/>
<path opacity="0.2" d="M101.605 32.1821H108.854V36.557H101.605V32.1821Z" fill="#FF4D26"/>
<path d="M115.894 44.8362H114.398V32.1774H115.894V44.8362Z" fill="#FF4D26"/>
<path d="M105.807 44.8362H104.707V32.1774H105.807V44.8362Z" fill="#FF4D26"/>
<path d="M38.8245 37.1312C38.8816 37.3638 39.2117 37.3638 39.2688 37.1312C40.0781 33.84 40.9696 32.9485 44.2608 32.1392C44.4935 32.0821 44.4935 31.752 44.2608 31.6949C40.9696 30.8856 40.0781 29.9941 39.2688 26.703C39.2117 26.4703 38.8816 26.4703 38.8245 26.703C38.0152 29.9941 37.1237 30.8856 33.8325 31.6949C33.5999 31.752 33.5999 32.0821 33.8325 32.1392C37.1237 32.9485 38.0152 33.84 38.8245 37.1312Z" fill="#FAAD14"/>
<rect x="38.6322" y="35.6477" width="0.829016" height="3.31606" fill="#FAAD14"/>
<path d="M38.8946 37.3057L37.8031 40.2677H40.2502L39.2379 37.3057H38.8946Z" fill="#FAAD14"/>
</g>
<defs>
<linearGradient id="paint0_linear_301_23655" x1="85.789" y1="140.998" x2="-17.4771" y2="79.4427" gradientUnits="userSpaceOnUse">
<stop stop-color="#01A6FF"/>
<stop offset="1" stop-color="#214FE2"/>
</linearGradient>
<linearGradient id="paint1_linear_301_23655" x1="117.31" y1="10.5649" x2="-11.3204" y2="64.0041" gradientUnits="userSpaceOnUse">
<stop stop-color="#01A6FF"/>
<stop offset="1" stop-color="#214FE2"/>
</linearGradient>
<clipPath id="clip0_301_23655">
<rect width="160" height="160" rx="19.8964" fill="white"/>
</clipPath>
</defs>
</svg>
