<svg width="160" height="160" viewBox="0 0 160 160" fill="none" xmlns="http://www.w3.org/2000/svg">
<g clip-path="url(#clip0_78_2201)">
<rect width="160" height="160" rx="19.8964" fill="#FAFAFA"/>
<path d="M99.8686 81.2407H144.057V20.5938L99.8686 20.5938V81.2407Z" fill="#E0E0E0"/>
<path d="M98.0547 81.2407H144.352V20.5938L98.0547 20.5938V81.2407Z" fill="#F0F0F0"/>
<path d="M100.544 78.3552H141.956V22.5939L100.544 22.5939V78.3552Z" fill="#E0E0E0"/>
<path d="M137.083 32.2378C137.113 32.3631 137.291 32.3631 137.322 32.2378C137.758 30.4657 138.238 29.9856 140.01 29.5499C140.135 29.5191 140.135 29.3414 140.01 29.3106C138.238 28.8748 137.758 28.3948 137.322 26.6226C137.291 26.4974 137.113 26.4974 137.083 26.6226C136.647 28.3948 136.167 28.8748 134.395 29.3106C134.269 29.3414 134.269 29.5191 134.395 29.5499C136.167 29.9856 136.647 30.4657 137.083 32.2378Z" fill="white"/>
<path d="M114.699 75.3465C114.73 75.4718 114.907 75.4718 114.938 75.3465C115.374 73.5743 115.854 73.0943 117.626 72.6585C117.751 72.6277 117.751 72.45 117.626 72.4192C115.854 71.9835 115.374 71.5034 114.938 69.7313C114.907 69.606 114.73 69.606 114.699 69.7313C114.263 71.5034 113.783 71.9835 112.011 72.4192C111.886 72.45 111.886 72.6277 112.011 72.6585C113.783 73.0943 114.263 73.5743 114.699 75.3465Z" fill="white"/>
<path d="M132.574 40.5681C132.592 40.6397 132.693 40.6397 132.711 40.5681C132.96 39.5555 133.234 39.2812 134.247 39.0322C134.318 39.0146 134.318 38.913 134.247 38.8954C133.234 38.6464 132.96 38.3721 132.711 37.3595C132.693 37.2879 132.592 37.2879 132.574 37.3595C132.325 38.3721 132.051 38.6464 131.038 38.8954C130.966 38.913 130.966 39.0146 131.038 39.0322C132.051 39.2812 132.325 39.5555 132.574 40.5681Z" fill="white"/>
<path d="M136.72 52.1743C136.737 52.2459 136.839 52.2459 136.856 52.1743C137.105 51.1617 137.38 50.8874 138.392 50.6384C138.464 50.6208 138.464 50.5192 138.392 50.5016C137.38 50.2526 137.105 49.9783 136.856 48.9657C136.839 48.8941 136.737 48.8941 136.72 48.9657C136.471 49.9783 136.196 50.2526 135.184 50.5016C135.112 50.5192 135.112 50.6208 135.184 50.6384C136.196 50.8874 136.471 51.1617 136.72 52.1743Z" fill="white"/>
<path d="M123.455 48.8584C123.472 48.93 123.574 48.93 123.592 48.8584C123.841 47.8458 124.115 47.5714 125.128 47.3224C125.199 47.3049 125.199 47.2033 125.128 47.1857C124.115 46.9367 123.841 46.6624 123.592 45.6497C123.574 45.5781 123.472 45.5781 123.455 45.6497C123.206 46.6624 122.932 46.9367 121.919 47.1857C121.847 47.2033 121.847 47.3049 121.919 47.3224C122.932 47.5714 123.206 47.8458 123.455 48.8584Z" fill="white"/>
<path d="M135.493 63.794C135.506 63.8477 135.582 63.8477 135.596 63.794C135.782 63.0345 135.988 62.8287 136.748 62.642C136.801 62.6288 136.801 62.5526 136.748 62.5394C135.988 62.3527 135.782 62.1469 135.596 61.3875C135.582 61.3338 135.506 61.3338 135.493 61.3875C135.306 62.1469 135.101 62.3527 134.341 62.5394C134.287 62.5526 134.287 62.6288 134.341 62.642C135.101 62.8287 135.306 63.0345 135.493 63.794Z" fill="white"/>
<path d="M100.544 78.3552H102.105V22.5939H100.544V78.3552Z" fill="#E0E0E0"/>
<path d="M101.938 57.5506V59.1118H142.095V57.5506H101.938Z" fill="#E0E0E0"/>
<path d="M100.544 57.5544L142.794 57.5544V54.933L100.544 54.933V57.5544Z" fill="#F0F0F0"/>
<path d="M119.085 38.148C119.085 38.3771 118.902 38.5597 118.673 38.5597C118.444 38.5597 118.261 38.3771 118.261 38.148C118.261 37.9189 118.444 37.7363 118.673 37.7363C118.902 37.7363 119.085 37.9189 119.085 38.148Z" fill="#FAFAFA"/>
<path d="M106.847 29.5223C106.847 30.6058 105.97 31.4835 104.886 31.4835C103.803 31.4835 102.925 30.6058 102.925 29.5223C102.925 28.4387 103.803 27.561 104.886 27.561C105.97 27.561 106.847 28.4387 106.847 29.5223Z" fill="#FAFAFA"/>
<path d="M110.102 44.6258C110.102 45.0841 109.733 45.453 109.274 45.453C108.816 45.453 108.447 45.0841 108.447 44.6258C108.447 44.1675 108.816 43.7986 109.274 43.7986C109.733 43.7986 110.102 44.1675 110.102 44.6258Z" fill="#FAFAFA"/>
<path d="M115.908 62.6655C115.908 63.182 115.488 63.5975 114.976 63.5975C114.463 63.5975 114.043 63.1781 114.043 62.6655C114.043 62.1528 114.463 61.7334 114.976 61.7334C115.488 61.7334 115.908 62.1528 115.908 62.6655Z" fill="#FAFAFA"/>
<path d="M126.623 30.097C125.998 31.798 124.584 33.2428 122.759 33.837C119.892 34.7651 117.081 33.2311 116.483 30.4116C116.005 28.1707 117.073 25.7939 118.972 24.4502C118.607 25.4172 118.506 26.4736 118.724 27.495C119.322 30.3106 122.133 31.8408 124.999 30.9165C125.59 30.7262 126.137 30.4427 126.623 30.097Z" fill="#FAFAFA"/>
<path opacity="0.2" d="M-23.7958 167.952C-19.3636 142.596 24.1142 112.466 62.0405 117.347C99.9669 122.227 125.351 159.149 127.357 163.353" stroke="url(#paint0_linear_78_2201)" stroke-width="9.83913"/>
<path d="M14.7854 32.3027H-6.98242V56.2065H14.7854V32.3027Z" fill="#E0E0E0"/>
<path d="M17.143 32.3027H-5.34326V56.2065H17.143V32.3027Z" fill="#F5F5F5"/>
<path d="M15.2593 54.3269L15.2593 34.1902H-3.45988V54.3269H15.2593Z" fill="white"/>
<path d="M10.7227 49.4413V39.0681H1.07957V49.4413H10.7227Z" fill="#F5F5F5"/>
<path d="M37.4001 46.5557H21.252V64.2884H37.4001V46.5557Z" fill="#E0E0E0"/>
<path d="M39.1475 46.5557H22.4673V64.2884H39.1475V46.5557Z" fill="#F5F5F5"/>
<path d="M37.7495 62.8903V47.9539H23.8655V62.8903H37.7495Z" fill="white"/>
<path d="M30.8094 51.6472L27.0112 58.2261H34.6076L30.8094 51.6472Z" fill="#F5F5F5"/>
<path d="M148.713 143.864H135.85V143.961H148.713V143.864Z" fill="#EBEBEB"/>
<path d="M102.621 144.917H99.2466V145.014H102.621V144.917Z" fill="#EBEBEB"/>
<path d="M135.462 140.256H128.009V140.353H135.462V140.256Z" fill="#EBEBEB"/>
<path d="M11.1348 140.909H-5.63867V141.006H11.1348V140.909Z" fill="#EBEBEB"/>
<path d="M17.0536 140.909H14.5952V141.006H17.0536V140.909Z" fill="#EBEBEB"/>
<path d="M61.4279 142.552H25.0459V142.649H61.4279V142.552Z" fill="#EBEBEB"/>
<path d="M168.17 137.612H-26.0122V137.709H168.17V137.612Z" fill="#EBEBEB"/>
<path d="M66.0339 120.015H-8.9592C-10.1825 120.015 -11.1768 119.021 -11.1768 117.797V12.3836C-11.1768 11.1602 -10.1825 10.166 -8.9592 10.166H66.0339C67.2573 10.166 68.2515 11.1602 68.2515 12.3836V117.797C68.2515 119.021 67.2573 120.015 66.0339 120.015ZM-8.9592 10.2631C-10.1282 10.2631 -11.0797 11.2146 -11.0797 12.3836V117.797C-11.0797 118.966 -10.1282 119.918 -8.9592 119.918H66.0339C67.2029 119.918 68.1544 118.966 68.1544 117.797V12.3836C68.1544 11.2146 67.2029 10.2631 66.0339 10.2631H-8.9592Z" fill="#EBEBEB"/>
<path d="M150.037 120.29H75.0442C73.8209 120.29 72.8267 119.296 72.8267 118.073V12.6592C72.8267 11.4359 73.8209 10.4417 75.0442 10.4417H150.037C151.261 10.4417 152.255 11.4359 152.255 12.6592V118.073C152.255 119.296 151.261 120.29 150.037 120.29ZM75.0442 10.5426C73.8752 10.5426 72.9238 11.4941 72.9238 12.6631V118.077C72.9238 119.246 73.8752 120.197 75.0442 120.197H150.037C151.206 120.197 152.158 119.246 152.158 118.077V12.6592C152.158 11.4902 151.206 10.5387 150.037 10.5387H75.0442V10.5426Z" fill="#EBEBEB"/>
<path d="M66.306 97.3965C66.6711 98.3363 67.7313 98.8023 68.6711 98.4373C69.611 98.0722 70.077 97.012 69.7119 96.0721C69.3469 95.1323 68.2866 94.6663 67.3468 95.0313C66.407 95.3964 65.9409 96.4566 66.306 97.3965Z" fill="#F5F5F5"/>
<path d="M126.266 72.9411C126.534 72.9411 126.751 72.7238 126.751 72.4557C126.751 72.1876 126.534 71.9702 126.266 71.9702C125.998 71.9702 125.78 72.1876 125.78 72.4557C125.78 72.7238 125.998 72.9411 126.266 72.9411Z" fill="#FAFAFA"/>
<path d="M84.5158 25.792C85.0789 24.9182 82.9468 22.7977 82.9351 21.9355C82.9196 21.0734 83.1138 21.5394 83.4128 20.0209C83.7157 18.4985 80.368 19.7801 80.3525 15.9625C80.3447 14.7625 77.2999 15.7644 76.6708 15.2712C76.0378 14.7819 76.6125 13.6983 75.261 12.8129C73.9095 11.9313 72.0143 13.9314 70.8065 13.5003C69.4317 13.0109 69.6297 12.1255 68.5462 12.5449C67.4627 12.9604 66.383 14.5838 64.1227 14.6848C61.8625 14.7819 61.078 15.2246 61.078 16.3586C61.078 17.4927 60.9809 18.2888 58.8915 19.784C56.806 21.2792 57.738 23.2404 58.7206 24.8172C59.7032 26.394 57.641 26.9726 57.3419 28.1533C57.0468 29.33 59.8041 30.8058 59.9983 31.9204C60.1964 33.0311 58.7206 34.6428 61.078 36.4099C63.4392 38.173 63.4392 36.4176 64.5189 37.3963C65.5985 38.375 68.2511 40.4489 69.2064 40.0333C70.1579 39.6178 71.5988 39.1711 72.2862 39.3653C72.9736 39.5634 75.9795 39.4469 76.162 37.9827C76.3485 36.5225 78.0883 35.9244 79.1602 36.0603C80.2321 36.1963 80.3408 33.2797 80.5544 32.3864C80.768 31.4932 82.3137 31.8971 83.2419 30.6893C84.1662 29.4815 82.8069 28.3552 82.9351 27.7804C83.0633 27.2056 83.9526 26.6736 84.5158 25.7998V25.792ZM77.9524 27.7028C78.0262 27.9125 77.9951 28.1494 77.9213 28.3591C77.7194 28.9455 77.1834 29.4232 76.597 29.5203C76.3096 29.5708 76.0611 29.7689 75.9989 30.0524C75.9368 30.3359 75.7776 30.6038 75.5562 30.7941C75.195 31.1204 74.6979 31.2641 74.2125 31.2796C74.0222 31.2874 73.8357 31.2796 73.6493 31.2602C73.2959 31.2252 72.9852 31.4815 72.9075 31.8311C72.8648 32.0175 72.7716 32.1961 72.6357 32.3282C72.3172 32.635 71.824 32.7204 71.389 32.6233C71.2182 32.5845 71.0667 32.5146 70.9308 32.4253C70.6628 32.2583 70.3055 32.2738 70.0764 32.4913C69.921 32.635 69.7152 32.7321 69.5055 32.7554C69.086 32.7981 68.6627 32.5923 68.3676 32.2893C68.2549 32.1728 68.1695 32.033 68.0957 31.8854C67.9326 31.5553 67.5637 31.4 67.2141 31.5165C66.8724 31.6291 66.4801 31.6019 66.1694 31.4077C65.8704 31.2213 65.6646 30.9029 65.5985 30.565C65.5403 30.2698 65.3344 30.0174 65.0393 29.9708C64.7402 29.9242 64.449 29.7533 64.2664 29.5086C63.9441 29.0776 63.9091 28.4872 64.0451 27.9707C64.1033 27.7455 64.216 27.5396 64.3441 27.3455C64.5499 27.0348 64.4684 26.627 64.1771 26.3901C63.9674 26.2192 63.8121 25.9706 63.7693 25.7027C63.6917 25.1823 63.9557 24.658 64.3286 24.2929C64.5072 24.1182 64.7907 23.9395 65.0859 23.7686C65.416 23.5822 65.4976 23.1705 65.3189 22.8365C65.2179 22.6501 65.1713 22.4288 65.2063 22.219C65.2878 21.7181 65.715 21.3297 66.1927 21.1549C66.5578 21.019 66.9462 20.9841 67.3384 20.9802C67.5481 20.9802 67.7345 20.8714 67.8705 20.7122C68.22 20.2889 68.822 20.0326 69.3579 20.0015C69.7812 19.9782 70.2667 20.1335 70.655 20.3976C70.9502 20.5996 71.3541 20.5258 71.5832 20.25C71.692 20.1141 71.8162 19.9898 71.9522 19.8811C72.2939 19.6092 72.7405 19.4539 73.1639 19.5393C73.4357 19.5976 73.8047 19.8034 74.0299 20.0597C74.1969 20.25 74.4455 20.3277 74.6901 20.2695C75.0591 20.1801 75.4203 20.3433 75.7348 20.5607C76.6747 21.2015 76.3174 21.9627 76.5854 21.9821C76.8572 22.0016 77.1213 22.1569 77.23 22.4016C77.3349 22.6501 77.2689 22.9453 77.1252 23.1744C77.1252 23.1744 77.1252 23.1783 77.1213 23.1822C76.9155 23.5007 77.0436 23.9123 77.3543 24.1298C77.7504 24.4055 78.0378 24.8522 78.1 25.3337C78.166 25.8425 78.1388 26.4406 77.8903 26.8755C77.7582 27.1047 77.8009 27.3804 77.9213 27.6134C77.9369 27.6445 77.9485 27.6756 77.9602 27.7066L77.9524 27.7028Z" fill="#52C41A"/>
<path d="M62.1346 27.3843L62.5308 28.1843L63.4123 28.3125L62.7754 28.9377L62.923 29.8193L62.1346 29.4038L61.3424 29.8193L61.4938 28.9377L60.853 28.3125L61.7385 28.1843L62.1346 27.3843Z" fill="#FFCB32"/>
<path d="M77.7001 30.9456L78.0923 31.7456L78.9778 31.8737L78.337 32.4951L78.4884 33.3767L77.7001 32.9612L76.9078 33.3767L77.0593 32.4951L76.4185 31.8737L77.3039 31.7456L77.7001 30.9456Z" fill="#FFCB32"/>
<path d="M66.6781 34.8369L67.0742 35.6408L67.9558 35.769L67.3189 36.3904L67.4665 37.272L66.6781 36.8564L65.8858 37.272L66.0373 36.3904L65.4004 35.769L66.282 35.6408L66.6781 34.8369Z" fill="#F0F0F0"/>
<path d="M79.3117 17.8343C79.3117 18.5645 78.7214 19.1587 77.9874 19.1587C77.2534 19.1587 76.6631 18.5683 76.6631 17.8343C76.6631 17.1003 77.2534 16.51 77.9874 16.51C78.7214 16.51 79.3117 17.1003 79.3117 17.8343Z" fill="#01A6FF"/>
<path d="M65.8588 17.9081C65.8588 18.6771 65.2335 19.3024 64.4645 19.3024C63.6956 19.3024 63.0703 18.6771 63.0703 17.9081C63.0703 17.1392 63.6956 16.5139 64.4645 16.5139C65.2335 16.5139 65.8588 17.1392 65.8588 17.9081Z" fill="#01A6FF"/>
<path d="M63.1911 32.1612C63.1911 32.5224 62.8959 32.8176 62.5348 32.8176C62.1736 32.8176 61.8784 32.5224 61.8784 32.1612C61.8784 31.8 62.1736 31.5049 62.5348 31.5049C62.8959 31.5049 63.1911 31.8 63.1911 32.1612Z" fill="#01A6FF"/>
<path d="M73.5759 36.868C73.5759 37.2292 73.2807 37.5243 72.9195 37.5243C72.5583 37.5243 72.2632 37.2292 72.2632 36.868C72.2632 36.5068 72.5583 36.2117 72.9195 36.2117C73.2807 36.2117 73.5759 36.5068 73.5759 36.868Z" fill="#F0F0F0"/>
<path d="M80.8884 28.1493C80.8884 28.5104 80.5932 28.8056 80.232 28.8056C79.8708 28.8056 79.5757 28.5104 79.5757 28.1493C79.5757 27.7881 79.8708 27.4929 80.232 27.4929C80.5932 27.4929 80.8884 27.7881 80.8884 28.1493Z" fill="#FAFAFA"/>
<path d="M71.7346 32.4369C71.7346 32.4369 78.8456 32.5767 77.4941 28.4096C76.1426 24.2424 70.923 31.6058 70.923 31.6058C69.7618 28.9455 64.1732 24.7473 64.4295 29.2368C64.6858 33.7263 69.9909 32.5496 69.9909 32.5496C66.0335 36.4487 62.3013 36.4371 62.3013 36.4371L62.5421 37.6332C67.1714 38.2197 70.8375 32.868 70.8375 32.868C74.2745 37.2138 79.1097 37.8818 79.1097 37.8818L79.0204 36.4992C75.5989 36.1924 71.7346 32.4331 71.7346 32.4331V32.4369ZM75.595 28.9028C76.7911 30.5417 71.9055 31.6757 71.9055 31.6757C71.9055 31.6757 74.3988 27.2639 75.595 28.9028ZM66.5849 29.0698C66.8529 27.9746 70.088 31.6641 70.088 31.6641C70.088 31.6641 66.0606 31.2175 66.5849 29.0698Z" fill="#FFE950"/>
<path d="M70.5466 33.2329C72.6243 34.5611 70.4767 39.1555 71.5369 40.4371C72.5971 41.7187 72.7408 41.8663 71.3699 42.2507C69.999 42.6313 62.2938 39.4972 62.8142 38.9691C63.3385 38.4448 64.8221 38.7632 65.5755 37.2253C66.8144 34.7087 68.9931 32.2387 70.5427 33.2329H70.5466Z" fill="#FAAD14"/>
<path d="M71.6571 33.0234C74.0999 32.6894 75.4398 37.5789 77.0787 37.8702C78.7176 38.1615 78.9234 38.1809 78.1234 39.3615C77.3272 40.5383 69.424 43.1442 69.4823 42.4024C69.5405 41.6607 70.8765 40.9461 70.457 39.2839C69.7696 36.5653 69.8318 33.272 71.6532 33.0234H71.6571Z" fill="#FFCB32"/>
<path d="M83.37 23.6946C83.37 23.6946 83.7506 23.0616 83.6535 22.3742C83.5564 21.6868 82.1233 21.2673 82.1233 21.2673C82.1233 21.2673 81.1485 21.2557 80.698 22.0014L80.2437 22.747C80.2437 22.747 82.6903 23.9315 83.2496 23.582L83.3739 23.6985L83.37 23.6946Z" fill="#FF2323"/>
<path d="M80.5699 25.6172C79.8631 24.7472 79.6417 23.1938 80.4185 22.5608C81.1952 21.9277 82.671 22.4598 83.3817 23.3297C84.0885 24.1996 83.4865 24.7434 82.7098 25.3725C81.9331 26.0055 81.2806 26.4871 80.5699 25.6172Z" fill="#FF2323"/>
<path d="M83.172 24.2501C83.172 24.2501 82.2011 24.1763 81.1021 25.353C81.1021 25.353 82.2205 22.5956 83.172 24.2501Z" fill="#FF2323"/>
<path d="M82.7411 24.8093C82.7411 24.8093 82.1003 25.4307 81.8828 25.1356C81.8828 25.1356 81.2886 25.5899 81.5488 25.788C81.809 25.99 82.7411 24.8093 82.7411 24.8093Z" fill="#FF2323"/>
<path d="M81.603 21.3295C81.0515 21.0809 80.368 21.2285 79.9097 21.6247C79.4553 22.0208 79.2184 22.6344 79.2107 23.2402C79.2029 23.8461 79.4048 24.4364 79.7155 24.9568C79.7932 25.0927 80.0029 25.4229 80.2088 25.3568C80.3952 25.2947 80.3447 25.0112 80.3486 24.8636C80.3563 24.4286 80.3913 24.0053 80.4923 23.582C80.5894 23.1703 80.7331 22.7703 80.9195 22.3936C80.9738 22.2888 81.5098 21.2907 81.6069 21.3334L81.603 21.3295Z" fill="#FF2323"/>
<path d="M79.3195 25.5783C78.9079 25.3104 78.6554 24.8171 78.6787 24.3239C78.6943 24.0016 78.8185 23.6948 78.9506 23.4035C79.0438 23.2015 79.1875 22.9685 79.4127 22.9646C79.6535 22.9608 79.805 23.2171 79.9021 23.4384C80.0497 23.7802 80.1856 24.1259 80.3137 24.4793C80.4186 24.7667 80.6594 25.2016 80.6555 25.5084C80.6555 25.7958 80.3836 25.8114 80.0846 25.8075C79.8166 25.8075 79.5487 25.7259 79.3234 25.5783H79.3195Z" fill="#FF2323"/>
<path d="M83.172 24.2501C83.172 24.2501 82.2011 24.1763 81.1021 25.353C81.1021 25.353 82.2205 22.5956 83.172 24.2501Z" fill="#FF4D4F"/>
<path d="M82.7411 24.8093C82.7411 24.8093 82.1003 25.4307 81.8828 25.1356C81.8828 25.1356 81.2886 25.5899 81.5488 25.788C81.809 25.99 82.7411 24.8093 82.7411 24.8093Z" fill="#FF4D4F"/>
<path d="M81.7427 21.9858C82.0689 21.7839 82.5194 21.7955 82.8379 22.013C83.0748 22.1761 83.4515 22.7315 83.2146 22.9956C82.7524 22.5839 82.3369 22.2111 81.7466 21.9858H81.7427Z" fill="#FF4D4F"/>
<path d="M79.6064 23.4656C79.3656 23.7568 79.2802 24.1724 79.3928 24.5336C79.455 24.7316 80.0919 25.5356 80.1035 25.0074C80.1035 24.8365 79.8394 24.4753 79.7812 24.2967C79.6919 24.0287 79.6336 23.7491 79.6103 23.4656H79.6064Z" fill="#FF4D4F"/>
<path d="M80.4029 22.1644C80.034 22.1255 79.6573 22.3663 79.5408 22.7197C79.4631 22.5333 79.8825 22.0479 80.0107 21.8925C80.3447 21.4886 80.6864 21.5236 81.203 21.4187C81.203 21.4187 80.5 21.7566 80.4029 22.1682V22.1644Z" fill="#FF4D4F"/>
<path d="M58.7871 24.2307C58.7871 24.2307 58.4298 24.8793 58.5541 25.5628C58.6784 26.2463 60.127 26.6075 60.127 26.6075C60.127 26.6075 61.1018 26.5803 61.5251 25.8191L61.9484 25.0579C61.9484 25.0579 59.459 23.9705 58.9153 24.3433L58.7871 24.2307Z" fill="#FF2323"/>
<path d="M61.5091 22.1957C62.2509 23.0384 62.5305 24.5802 61.781 25.2443C61.0314 25.9045 59.5324 25.4346 58.7906 24.5957C58.0488 23.753 58.6314 23.1899 59.3809 22.5258C60.1304 21.8617 60.7674 21.3568 61.5091 22.1957Z" fill="#FF2323"/>
<path d="M58.9658 23.6674C58.9658 23.6674 59.9406 23.7024 60.9931 22.4829C60.9931 22.4829 59.9833 25.283 58.9658 23.6674Z" fill="#FF2323"/>
<path d="M59.3735 23.089C59.3735 23.089 59.991 22.4443 60.2163 22.7317C60.2163 22.7317 60.7911 22.254 60.5231 22.0637C60.2551 21.8734 59.3735 23.089 59.3735 23.089Z" fill="#FF2323"/>
<path d="M60.6435 26.522C61.2028 26.7472 61.8824 26.5764 62.3213 26.1608C62.7601 25.7453 62.9737 25.1239 62.9582 24.518C62.9426 23.9122 62.7135 23.3296 62.3873 22.8209C62.3018 22.6888 62.0805 22.3665 61.8785 22.4403C61.6921 22.5063 61.7581 22.7898 61.7581 22.9413C61.7659 23.3762 61.7504 23.7996 61.6688 24.2268C61.5911 24.6423 61.463 25.0462 61.2882 25.4307C61.2416 25.5394 60.7406 26.5569 60.6396 26.5142L60.6435 26.522Z" fill="#FF2323"/>
<path d="M62.76 22.1841C63.1794 22.4365 63.4513 22.9181 63.4474 23.4113C63.4474 23.7336 63.3347 24.0443 63.2105 24.3434C63.125 24.5492 62.993 24.7861 62.7677 24.8016C62.5269 24.8172 62.3638 24.5647 62.259 24.3472C62.0997 24.0094 61.9483 23.6715 61.8085 23.3258C61.692 23.0423 61.4356 22.619 61.424 22.3122C61.4162 22.0248 61.6842 22.0015 61.9832 21.9899C62.2512 21.9821 62.5231 22.0481 62.7561 22.1879L62.76 22.1841Z" fill="#FF2323"/>
<path d="M58.9658 23.6674C58.9658 23.6674 59.9406 23.7024 60.9931 22.4829C60.9931 22.4829 59.9833 25.283 58.9658 23.6674Z" fill="#FF4D4F"/>
<path d="M59.3735 23.089C59.3735 23.089 59.991 22.4443 60.2163 22.7317C60.2163 22.7317 60.7911 22.254 60.5231 22.0637C60.2551 21.8734 59.3735 23.089 59.3735 23.089Z" fill="#FF4D4F"/>
<path d="M60.48 25.8734C60.1616 26.0909 59.7111 26.0947 59.3848 25.8889C59.1441 25.7374 58.744 25.1937 58.9693 24.9219C59.447 25.3141 59.8781 25.6714 60.4761 25.8734H60.48Z" fill="#FF4D4F"/>
<path d="M62.5579 24.3084C62.7871 24.0093 62.857 23.5899 62.7288 23.2326C62.6589 23.0345 61.9909 22.2617 62.0026 22.786C62.0026 22.9569 62.2861 23.3064 62.3521 23.485C62.4531 23.7491 62.523 24.0288 62.5579 24.3084Z" fill="#FF4D4F"/>
<path d="M61.8124 25.6404C62.1813 25.6676 62.5503 25.4074 62.6513 25.054C62.7367 25.2365 62.3367 25.7375 62.2124 25.8967C61.8978 26.3123 61.5522 26.2928 61.0396 26.4171C61.0396 26.4171 61.7308 26.0521 61.8085 25.6365L61.8124 25.6404Z" fill="#FF4D4F"/>
<path d="M69.9252 13.7488C69.9252 13.7488 69.1873 13.7488 68.6475 14.1915C68.1077 14.6304 68.496 16.0751 68.496 16.0751C68.496 16.0751 68.9931 16.9139 69.8631 16.9139H70.733C70.733 16.9139 70.4767 14.207 69.8864 13.9158L69.9213 13.7488H69.9252Z" fill="#FF2323"/>
<path d="M73.0245 15.1391C72.6478 16.1955 71.4361 17.1897 70.4924 16.8557C69.5487 16.5217 69.2341 14.9838 69.6108 13.9274C69.9875 12.8711 70.7643 13.1041 71.708 13.442C72.6517 13.7799 73.4012 14.0867 73.0284 15.143L73.0245 15.1391Z" fill="#FF2323"/>
<path d="M70.5041 13.6284C70.5041 13.6284 70.9469 14.4984 72.5236 14.8246C72.5236 14.8246 69.5837 15.3023 70.5041 13.6284Z" fill="#FF2323"/>
<path d="M71.207 13.7061C71.207 13.7061 72.0692 13.9313 71.9294 14.2692C71.9294 14.2692 72.6246 14.541 72.6595 14.2148C72.6945 13.8886 71.207 13.7061 71.207 13.7061Z" fill="#FF2323"/>
<path d="M68.8218 16.483C68.8956 17.0811 69.3771 17.5899 69.9519 17.7763C70.5267 17.9588 71.1753 17.8423 71.6957 17.5355C72.2161 17.2287 72.6161 16.7471 72.9035 16.2112C72.9773 16.0714 73.152 15.7218 72.9889 15.582C72.8413 15.4539 72.6239 15.6442 72.4957 15.7218C72.119 15.9393 71.7384 16.1296 71.3267 16.2655C70.9267 16.3976 70.5112 16.483 70.0878 16.518C69.9713 16.5296 68.8373 16.584 68.8257 16.4791L68.8218 16.483Z" fill="#FF2323"/>
<path d="M73.6415 16.2304C73.6259 16.7197 73.3347 17.1935 72.9036 17.4266C72.6201 17.5819 72.2938 17.6324 71.9754 17.6712C71.754 17.6984 71.4822 17.6945 71.3618 17.5042C71.2297 17.3023 71.3734 17.0382 71.5132 16.8401C71.7307 16.5372 71.956 16.2421 72.189 15.9508C72.3793 15.7139 72.6278 15.2789 72.888 15.1236C73.1366 14.976 73.2881 15.2012 73.4395 15.4576C73.5754 15.6906 73.6492 15.9585 73.6415 16.2265V16.2304Z" fill="#FF2323"/>
<path d="M70.5036 13.6284C70.5036 13.6284 70.9464 14.4984 72.5231 14.8246C72.5231 14.8246 69.5832 15.3023 70.5036 13.6284Z" fill="#FF4D4F"/>
<path d="M71.2065 13.7061C71.2065 13.7061 72.0687 13.9313 71.9289 14.2692C71.9289 14.2692 72.6241 14.541 72.659 14.2148C72.694 13.8886 71.2065 13.7061 71.2065 13.7061Z" fill="#FF4D4F"/>
<path d="M69.3115 16.0285C68.9659 15.8537 68.7445 15.4654 68.7678 15.0809C68.7833 14.7974 69.0668 14.1838 69.4125 14.2498C69.3037 14.8595 69.1989 15.4071 69.3115 16.0285Z" fill="#FF4D4F"/>
<path d="M71.688 17.0809C72.0608 17.1392 72.4608 16.9916 72.7133 16.7081C72.8531 16.5527 73.2065 15.5896 72.7521 15.8537C72.6045 15.9391 72.4336 16.3547 72.3132 16.4984C72.1307 16.7158 71.921 16.91 71.6919 17.077L71.688 17.0809Z" fill="#FF4D4F"/>
<path d="M70.1584 17.0771C70.3137 17.4111 70.7176 17.6092 71.0788 17.5276C70.9623 17.6908 70.3293 17.582 70.1273 17.5548C69.6108 17.481 69.4632 17.1703 69.1021 16.782C69.1021 16.782 69.7545 17.2092 70.1584 17.0771Z" fill="#FF4D4F"/>
<path d="M103.247 128.811H97.9497V130.206H103.247V128.811Z" fill="#E6E6E6"/>
<path d="M144.367 128.811H139.07V130.206H144.367V128.811Z" fill="#E6E6E6"/>
<path d="M107.76 129.507H106.366V137.697H107.76V129.507Z" fill="#E0E0E0"/>
<path d="M140.433 91.0547H102.463V94.0218H140.433V91.0547Z" fill="#E6E6E6"/>
<path d="M140.433 128.023H102.463V130.99H140.433V128.023Z" fill="#E6E6E6"/>
<path d="M103.911 133.899L103.795 134.023C103.367 134.47 102.649 134.47 102.222 134.023L102.105 133.899C101.752 133.53 101.558 133.041 101.558 132.532V91.8468C101.558 91.338 101.756 90.8487 102.105 90.4798L102.222 90.3555C102.649 89.9089 103.367 89.9089 103.795 90.3555L103.911 90.4798C104.265 90.8487 104.459 91.338 104.459 91.8468V132.532C104.459 133.041 104.261 133.53 103.911 133.899Z" fill="#F0F0F0"/>
<path d="M107.966 133.899L107.849 134.023C107.418 134.47 106.704 134.47 106.276 134.023L106.16 133.899C105.806 133.53 105.612 133.041 105.612 132.532V91.8468C105.612 91.338 105.81 90.8487 106.16 90.4798L106.276 90.3555C106.707 89.9089 107.422 89.9089 107.849 90.3555L107.966 90.4798C108.319 90.8487 108.513 91.338 108.513 91.8468V132.532C108.513 133.041 108.315 133.53 107.966 133.899Z" fill="#F0F0F0"/>
<path d="M112.024 133.899L111.908 134.023C111.477 134.47 110.762 134.47 110.335 134.023L110.218 133.899C109.865 133.53 109.671 133.041 109.671 132.532V91.8468C109.671 91.338 109.869 90.8487 110.218 90.4798L110.335 90.3555C110.766 89.9089 111.481 89.9089 111.908 90.3555L112.024 90.4798C112.378 90.8487 112.572 91.338 112.572 91.8468V132.532C112.572 133.041 112.374 133.53 112.024 133.899Z" fill="#F0F0F0"/>
<path d="M116.083 133.899L115.966 134.023C115.535 134.47 114.821 134.47 114.394 134.023L114.277 133.899C113.924 133.53 113.729 133.041 113.729 132.532V91.8468C113.729 91.338 113.928 90.8487 114.277 90.4798L114.394 90.3555C114.825 89.9089 115.539 89.9089 115.966 90.3555L116.083 90.4798C116.436 90.8487 116.631 91.338 116.631 91.8468V132.532C116.631 133.041 116.433 133.53 116.083 133.899Z" fill="#F0F0F0"/>
<path d="M120.141 133.899L120.025 134.023C119.593 134.47 118.879 134.47 118.452 134.023L118.335 133.899C117.982 133.53 117.788 133.041 117.788 132.532V91.8468C117.788 91.338 117.986 90.8487 118.335 90.4798L118.452 90.3555C118.883 89.9089 119.597 89.9089 120.025 90.3555L120.141 90.4798C120.494 90.8487 120.689 91.338 120.689 91.8468V132.532C120.689 133.041 120.491 133.53 120.141 133.899Z" fill="#F0F0F0"/>
<path d="M124.199 133.899L124.083 134.023C123.655 134.47 122.937 134.47 122.51 134.023L122.393 133.899C122.04 133.53 121.846 133.041 121.846 132.532V91.8468C121.846 91.338 122.044 90.8487 122.393 90.4798L122.51 90.3555C122.941 89.9089 123.655 89.9089 124.083 90.3555L124.199 90.4798C124.553 90.8487 124.747 91.338 124.747 91.8468V132.532C124.747 133.041 124.549 133.53 124.199 133.899Z" fill="#F0F0F0"/>
<path d="M128.258 133.899L128.141 134.023C127.71 134.47 126.996 134.47 126.568 134.023L126.452 133.899C126.098 133.53 125.904 133.041 125.904 132.532V91.8468C125.904 91.338 126.102 90.8487 126.452 90.4798L126.568 90.3555C126.999 89.9089 127.714 89.9089 128.141 90.3555L128.258 90.4798C128.611 90.8487 128.805 91.338 128.805 91.8468V132.532C128.805 133.041 128.607 133.53 128.258 133.899Z" fill="#F0F0F0"/>
<path d="M132.312 133.899L132.196 134.023C131.765 134.47 131.05 134.47 130.623 134.023L130.507 133.899C130.153 133.53 129.959 133.041 129.959 132.532V91.8468C129.959 91.338 130.157 90.8487 130.507 90.4798L130.623 90.3555C131.054 89.9089 131.769 89.9089 132.196 90.3555L132.312 90.4798C132.666 90.8487 132.86 91.338 132.86 91.8468V132.532C132.86 133.041 132.662 133.53 132.312 133.899Z" fill="#F0F0F0"/>
<path d="M135.408 129.507H134.014V137.697H135.408V129.507Z" fill="#E0E0E0"/>
<path d="M136.371 133.899L136.255 134.023C135.823 134.47 135.109 134.47 134.682 134.023L134.565 133.899C134.212 133.53 134.018 133.041 134.018 132.532V91.8468C134.018 91.338 134.216 90.8487 134.565 90.4798L134.682 90.3555C135.109 89.9089 135.827 89.9089 136.255 90.3555L136.371 90.4798C136.724 90.8487 136.919 91.338 136.919 91.8468V132.532C136.919 133.041 136.721 133.53 136.371 133.899Z" fill="#F0F0F0"/>
<path d="M140.429 133.899L140.313 134.023C139.882 134.47 139.167 134.47 138.74 134.023L138.623 133.899C138.27 133.53 138.076 133.041 138.076 132.532V91.8468C138.076 91.338 138.274 90.8487 138.623 90.4798L138.74 90.3555C139.171 89.9089 139.885 89.9089 140.313 90.3555L140.429 90.4798C140.783 90.8487 140.977 91.338 140.977 91.8468V132.532C140.977 133.041 140.779 133.53 140.429 133.899Z" fill="#F0F0F0"/>
<path d="M144.674 124.912H143.28V137.631H144.674V124.912Z" fill="#F5F5F5"/>
<path opacity="0.2" d="M162.9 7.14178C113.159 3.2122 93.2746 73.263 108.785 88.4197C124.296 103.576 144.614 81.4403 125.248 65.6767C98.3979 43.8213 46.3602 96.7048 15.3349 55.2243C7.11976 44.2409 0.411778 17.9192 20.7231 -10.2676" stroke="url(#paint1_linear_78_2201)" stroke-width="9.83913"/>
<path d="M71.0787 164.06C112.666 164.06 146.379 160.924 146.379 157.056C146.379 153.188 112.666 150.052 71.0787 150.052C29.4917 150.052 -4.22119 153.188 -4.22119 157.056C-4.22119 160.924 29.4917 164.06 71.0787 164.06Z" fill="#F5F5F5"/>
<path d="M33.4211 135.912H44.8623L44.8623 103.837H33.4211V135.912Z" fill="#515B60"/>
<path opacity="0.2" d="M33.4211 135.912H44.8623L44.8623 103.837H33.4211V135.912Z" fill="black"/>
<path d="M53.1928 82.0574C53.7093 83.4827 54.2453 84.8963 54.7812 86.3138C57.2706 92.8578 59.8882 99.3668 62.7893 105.74C64.2534 108.952 65.7758 112.152 67.5428 115.208C68.4205 116.723 69.3953 117.756 69.1274 119.601C68.8089 121.768 67.4846 123.768 65.5 124.75C63.1077 125.935 60.0008 125.484 58.0473 123.667C57.5114 126.28 55.2162 128.44 52.5753 128.82C49.9305 129.197 47.1265 127.768 45.8799 125.407C44.9245 128.117 42.3031 130.16 39.4408 130.424C36.5786 130.688 33.627 129.158 32.19 126.669C30.4463 128.37 28.3181 129.912 25.883 130.032C23.448 130.152 20.8149 128.292 20.9042 125.857C19.4983 126.801 17.6147 126.976 16.0574 126.311C14.5039 125.643 13.3311 124.156 13.0437 122.49C11.7233 123.096 10.0261 122.746 9.05131 121.667C6.78326 119.158 9.44744 116.035 10.7912 113.826C12.5272 110.971 14.201 108.074 15.7972 105.138C19.6459 98.058 23.3509 90.6169 25.3277 82.7642L53.1889 82.0651L53.1928 82.0574Z" fill="#52C41A"/>
<path opacity="0.1" d="M53.1928 82.0574C53.7093 83.4827 54.2453 84.8963 54.7812 86.3138C57.2706 92.8578 59.8882 99.3668 62.7893 105.74C64.2534 108.952 65.7758 112.152 67.5428 115.208C68.4205 116.723 69.3953 117.756 69.1274 119.601C68.8089 121.768 67.4846 123.768 65.5 124.75C63.1077 125.935 60.0008 125.484 58.0473 123.667C57.5114 126.28 55.2162 128.44 52.5753 128.82C49.9305 129.197 47.1265 127.768 45.8799 125.407C44.9245 128.117 42.3031 130.16 39.4408 130.424C36.5786 130.688 33.627 129.158 32.19 126.669C30.4463 128.37 28.3181 129.912 25.883 130.032C23.448 130.152 20.8149 128.292 20.9042 125.857C19.4983 126.801 17.6147 126.976 16.0574 126.311C14.5039 125.643 13.3311 124.156 13.0437 122.49C11.7233 123.096 10.0261 122.746 9.05131 121.667C6.78326 119.158 9.44744 116.035 10.7912 113.826C12.5272 110.971 14.201 108.074 15.7972 105.138C19.6459 98.058 23.3509 90.6169 25.3277 82.7642L53.1889 82.0651L53.1928 82.0574Z" fill="white"/>
<path d="M59.0646 97.1221C59.4608 98.0697 36.8502 124.005 15.8164 105.487" stroke="#52C41A" stroke-width="0.696373" stroke-linecap="round" stroke-linejoin="round"/>
<path d="M48.2759 107.002L48.0856 107.946L47.1963 108.322L48.039 108.796L48.1206 109.755L48.8313 109.107L49.7711 109.32L49.3711 108.447L49.8682 107.619L48.909 107.728L48.2759 107.002Z" fill="#52C41A"/>
<path d="M23.6304 110.769L22.8653 111.355L21.9487 111.056L22.2672 111.965L21.7002 112.742L22.6633 112.719L23.2304 113.499L23.5061 112.579L24.4226 112.28L23.6304 111.732V110.769Z" fill="#52C41A"/>
<path d="M26.7142 154.371H51.5734L55.457 135.904H22.8306L26.7142 154.371Z" fill="#52C41A"/>
<path opacity="0.4" d="M26.7142 154.371H51.5734L55.457 135.904H22.8306L26.7142 154.371Z" fill="#FAFAFA"/>
<path d="M22.0418 138.323H56.2412C56.7946 138.323 57.2432 137.875 57.2432 137.322V136.184C57.2432 135.63 56.7946 135.182 56.2412 135.182H22.0418C21.4885 135.182 21.0399 135.63 21.0399 136.184V137.322C21.0399 137.875 21.4885 138.323 22.0418 138.323Z" fill="#52C41A"/>
<path d="M16.5818 90.5779C16.6828 90.306 16.811 90.0419 16.9586 89.7856C21.0985 82.5232 24.8851 75.2103 28.1939 67.509L36.1632 69.0936V70.2121C36.3302 69.4625 36.4195 69.0275 36.4195 69.0275L50.7113 68.1265C52.455 72.9966 55.0182 77.5793 57.7213 81.9756C58.7543 83.6572 59.8145 85.3272 60.933 86.9505C62.0942 88.6399 63.4263 90.1507 61.3758 91.9993C60.4243 92.8576 58.7155 92.9003 57.9737 91.8556C57.8999 93.3624 57.4999 94.9508 56.3814 95.9645C55.2668 96.9781 53.2823 97.114 52.3502 95.9256C52.257 98.1354 50.7618 100.299 48.6335 100.904C46.5053 101.506 43.9421 100.271 43.3285 98.1432C42.8663 99.6967 41.5847 101.064 39.9808 101.312C38.3768 101.561 36.5943 100.442 36.3923 98.8345C35.9146 100.625 33.9534 101.883 32.1281 101.572C30.3028 101.262 28.8697 99.4248 29.0134 97.5762C27.8832 98.8966 25.7239 99.184 24.287 98.2015C22.85 97.2189 22.3335 95.1062 23.153 93.5722C21.7238 94.6013 19.98 95.681 18.3178 95.0945C17.3314 94.745 16.6013 93.8207 16.3799 92.7993C16.2129 92.0381 16.3139 91.2886 16.578 90.5818L16.5818 90.5779Z" fill="#52C41A"/>
<path opacity="0.2" d="M16.5818 90.5779C16.6828 90.306 16.811 90.0419 16.9586 89.7856C21.0985 82.5232 24.8851 75.2103 28.1939 67.509L36.1632 69.0936V70.2121C36.3302 69.4625 36.4195 69.0275 36.4195 69.0275L50.7113 68.1265C52.455 72.9966 55.0182 77.5793 57.7213 81.9756C58.7543 83.6572 59.8145 85.3272 60.933 86.9505C62.0942 88.6399 63.4263 90.1507 61.3758 91.9993C60.4243 92.8576 58.7155 92.9003 57.9737 91.8556C57.8999 93.3624 57.4999 94.9508 56.3814 95.9645C55.2668 96.9781 53.2823 97.114 52.3502 95.9256C52.257 98.1354 50.7618 100.299 48.6335 100.904C46.5053 101.506 43.9421 100.271 43.3285 98.1432C42.8663 99.6967 41.5847 101.064 39.9808 101.312C38.3768 101.561 36.5943 100.442 36.3923 98.8345C35.9146 100.625 33.9534 101.883 32.1281 101.572C30.3028 101.262 28.8697 99.4248 29.0134 97.5762C27.8832 98.8966 25.7239 99.184 24.287 98.2015C22.85 97.2189 22.3335 95.1062 23.153 93.5722C21.7238 94.6013 19.98 95.681 18.3178 95.0945C17.3314 94.745 16.6013 93.8207 16.3799 92.7993C16.2129 92.0381 16.3139 91.2886 16.578 90.5818L16.5818 90.5779Z" fill="white"/>
<path d="M55.6855 78.189C55.8098 78.7676 29.366 96.8188 20.1113 84.5698" stroke="#52C41A" stroke-width="0.696373" stroke-linecap="round" stroke-linejoin="round"/>
<path d="M35.9219 88.042L35.6035 88.9508L34.6714 89.2032L35.4403 89.7896L35.3899 90.7528L36.186 90.2052L37.0831 90.5469L36.8074 89.6226L37.4132 88.8731L36.4501 88.8498L35.9219 88.042Z" fill="#52C41A"/>
<path d="M46.6102 53.8467C46.7772 53.8351 47.9151 57.0274 48.0083 57.2527C49.3443 60.4334 50.7268 63.5985 52.2259 66.7054C52.9677 68.2473 53.7367 69.7774 54.5794 71.2687C54.9251 71.8785 55.2785 72.4843 55.6668 73.0669C56.195 73.8552 56.9873 74.43 55.9037 75.2262C55.5037 75.5213 55.0105 75.6611 54.525 75.766C53.9542 75.8941 53.36 75.9835 52.7852 75.8786C52.2104 75.7738 51.6473 75.4475 51.3948 74.9193C51.0764 76.0301 50.7074 77.1447 50.0317 78.0845C49.3559 79.0205 48.3306 79.7661 47.1811 79.8477C46.0315 79.9293 44.8004 79.203 44.5363 78.0806C43.981 78.8146 43.3635 79.5292 42.579 80.0108C41.7945 80.4924 40.808 80.7215 39.9342 80.4341C39.0604 80.1467 38.3613 79.2613 38.4623 78.3447C37.8332 79.4865 36.5787 80.306 35.2777 80.2516C33.9767 80.1972 32.7339 79.1525 32.6135 77.8554C31.8368 79.1991 30.0698 79.8826 28.5901 79.4088C27.1104 78.935 26.0657 77.3583 26.2094 75.8126C25.6074 76.3213 24.7492 76.5777 24.0074 76.3058C23.4598 76.1039 22.9938 75.5291 22.9821 74.931C22.9666 74.0494 23.9996 72.8999 24.4307 72.1697C25.3472 70.6279 26.2288 69.0628 27.0677 67.4783C29.1765 63.5053 31.1649 59.3654 32.3378 55.0079L46.6024 53.8545L46.6102 53.8467Z" fill="#52C41A"/>
<path opacity="0.3" d="M46.6102 53.8467C46.7772 53.8351 47.9151 57.0274 48.0083 57.2527C49.3443 60.4334 50.7268 63.5985 52.2259 66.7054C52.9677 68.2473 53.7367 69.7774 54.5794 71.2687C54.9251 71.8785 55.2785 72.4843 55.6668 73.0669C56.195 73.8552 56.9873 74.43 55.9037 75.2262C55.5037 75.5213 55.0105 75.6611 54.525 75.766C53.9542 75.8941 53.36 75.9835 52.7852 75.8786C52.2104 75.7738 51.6473 75.4475 51.3948 74.9193C51.0764 76.0301 50.7074 77.1447 50.0317 78.0845C49.3559 79.0205 48.3306 79.7661 47.1811 79.8477C46.0315 79.9293 44.8004 79.203 44.5363 78.0806C43.981 78.8146 43.3635 79.5292 42.579 80.0108C41.7945 80.4924 40.808 80.7215 39.9342 80.4341C39.0604 80.1467 38.3613 79.2613 38.4623 78.3447C37.8332 79.4865 36.5787 80.306 35.2777 80.2516C33.9767 80.1972 32.7339 79.1525 32.6135 77.8554C31.8368 79.1991 30.0698 79.8826 28.5901 79.4088C27.1104 78.935 26.0657 77.3583 26.2094 75.8126C25.6074 76.3213 24.7492 76.5777 24.0074 76.3058C23.4598 76.1039 22.9938 75.5291 22.9821 74.931C22.9666 74.0494 23.9996 72.8999 24.4307 72.1697C25.3472 70.6279 26.2288 69.0628 27.0677 67.4783C29.1765 63.5053 31.1649 59.3654 32.3378 55.0079L46.6024 53.8545L46.6102 53.8467Z" fill="white"/>
<path d="M49.993 61.8508C49.993 61.8508 38.3032 78.6748 26.2212 69.0472" stroke="#52C41A" stroke-width="0.696373" stroke-linecap="round" stroke-linejoin="round"/>
<path d="M38.7962 71.261L38.369 72.1232L37.4175 72.263L38.1088 72.9348L37.9457 73.8863L38.7962 73.4358L39.6506 73.8863L39.4875 72.9348L40.1788 72.263L39.2234 72.1232L38.7962 71.261Z" fill="#52C41A"/>
<path d="M39.1533 37.0886C39.2115 37.2517 38.8465 37.877 38.7882 38.0246C38.4193 38.9489 38.0309 39.8654 37.6348 40.7742C36.1396 44.219 34.5007 47.6016 32.7802 50.9338C31.6384 53.1436 30.4578 55.3301 29.2422 57.4972C28.6675 58.5186 27.6927 59.6837 27.6577 60.8293C27.6266 61.8857 28.0927 62.9304 29.0442 63.4624C30.0578 64.0294 31.4287 63.8586 32.2676 63.0547C32.155 64.5343 33.5647 65.8819 35.0483 65.8781C36.5318 65.8742 37.8717 64.6819 38.2367 63.245C38.5552 64.4062 39.9844 65.0159 41.1417 64.6897C42.299 64.3634 43.1418 63.311 43.5224 62.1692C43.8331 62.81 44.6486 63.0352 45.3593 62.9692C46.8623 62.8255 48.1905 61.5789 48.4235 60.0876C48.3536 60.5303 52.7344 61.1284 51.2198 58.8564C50.5557 57.8583 49.8993 56.8564 49.2508 55.8505C47.107 52.5106 45.0487 49.1124 43.1573 45.6288C41.6621 42.8714 40.2252 40.0518 39.1572 37.0964L39.1533 37.0886Z" fill="#52C41A"/>
<path opacity="0.4" d="M39.1533 37.0886C39.2115 37.2517 38.8465 37.877 38.7882 38.0246C38.4193 38.9489 38.0309 39.8654 37.6348 40.7742C36.1396 44.219 34.5007 47.6016 32.7802 50.9338C31.6384 53.1436 30.4578 55.3301 29.2422 57.4972C28.6675 58.5186 27.6927 59.6837 27.6577 60.8293C27.6266 61.8857 28.0927 62.9304 29.0442 63.4624C30.0578 64.0294 31.4287 63.8586 32.2676 63.0547C32.155 64.5343 33.5647 65.8819 35.0483 65.8781C36.5318 65.8742 37.8717 64.6819 38.2367 63.245C38.5552 64.4062 39.9844 65.0159 41.1417 64.6897C42.299 64.3634 43.1418 63.311 43.5224 62.1692C43.8331 62.81 44.6486 63.0352 45.3593 62.9692C46.8623 62.8255 48.1905 61.5789 48.4235 60.0876C48.3536 60.5303 52.7344 61.1284 51.2198 58.8564C50.5557 57.8583 49.8993 56.8564 49.2508 55.8505C47.107 52.5106 45.0487 49.1124 43.1573 45.6288C41.6621 42.8714 40.2252 40.0518 39.1572 37.0964L39.1533 37.0886Z" fill="white"/>
<path d="M43.4448 46.0676C43.4448 46.0676 38.2601 52.1727 32.7026 51.0814" stroke="#52C41A" stroke-width="0.696373" stroke-linecap="round" stroke-linejoin="round"/>
<path d="M37.4178 50.6155L36.9906 51.4776L36.0391 51.6175L36.7265 52.2893L36.5634 53.2408L37.4178 52.7903L38.2722 53.2408L38.109 52.2893L38.7965 51.6175L37.845 51.4776L37.4178 50.6155Z" fill="#52C41A"/>
<path d="M29.0833 115.973C30.1257 115.973 30.9707 115.045 30.9707 113.899C30.9707 112.754 30.1257 111.825 29.0833 111.825C28.0408 111.825 27.1958 112.754 27.1958 113.899C27.1958 115.045 28.0408 115.973 29.0833 115.973Z" fill="#52C41A"/>
<path d="M25.7198 89.9178C25.7198 90.6789 25.1566 91.2964 24.4654 91.2964C23.7741 91.2964 23.2109 90.6789 23.2109 89.9178C23.2109 89.1566 23.7741 88.5391 24.4654 88.5391C25.1566 88.5391 25.7198 89.1566 25.7198 89.9178Z" fill="#52C41A"/>
<path d="M46.8896 91.8285C46.8896 92.9742 46.043 93.9024 45.0022 93.9024C43.9614 93.9024 43.1147 92.9742 43.1147 91.8285C43.1147 90.6828 43.9614 89.7546 45.0022 89.7546C46.043 89.7546 46.8896 90.6828 46.8896 91.8285Z" fill="#52C41A"/>
<path d="M42.2832 57.1593C42.2832 57.7458 41.8482 58.2235 41.3162 58.2235C40.7841 58.2235 40.3491 57.7458 40.3491 57.1593C40.3491 56.5729 40.7841 56.0952 41.3162 56.0952C41.8482 56.0952 42.2832 56.5729 42.2832 57.1593Z" fill="#52C41A"/>
<path d="M83.0659 78.2861L86.0525 84.5262C86.0525 84.5262 89.5683 88.5625 91.3408 86.4348C94.2642 82.9174 92.5112 71.9747 92.5112 71.9747L89.9811 71.5796L88.7136 79.7331C88.7136 79.7331 85.4552 76.7963 83.0659 78.2909V78.2861Z" fill="#FF4D4F"/>
<path opacity="0.2" d="M83.0659 78.2861L86.0525 84.5262C86.0525 84.5262 89.5683 88.5625 91.3408 86.4348C94.2642 82.9174 92.5112 71.9747 92.5112 71.9747L89.9811 71.5796L88.7136 79.7331C88.7136 79.7331 85.4552 76.7963 83.0659 78.2909V78.2861Z" fill="black"/>
<path d="M89.9776 71.5797L89.3706 68.5525L93.6538 67.9766C93.6538 67.9766 94.3433 70.5326 92.5077 71.97L89.9776 71.575V71.5797Z" fill="#EEC1BB"/>
<path d="M91.4242 65.7489L92.7791 66.1154C93.3376 66.2677 93.7164 66.7818 93.6872 67.3482L93.6338 68.3335L89.3652 68.5477L89.8994 66.6009C90.0791 65.9488 90.759 65.568 91.4242 65.7441V65.7489Z" fill="#EEC1BB"/>
<path d="M83.0042 154.914C80.4061 154.752 80.9791 154.523 78.7696 154.419C76.8757 154.333 76.3124 154.247 74.7827 154.205C74.7341 154.205 74.6855 154.205 74.637 154.186C74.3407 154.105 74.1659 153.805 74.2485 153.514L74.9818 150.411L75.5888 143.9L79.4155 144.081L78.823 150.421C78.8764 150.516 78.9201 150.635 79.0415 150.744C80.1633 151.868 81.2608 152.653 84.2765 153.167C84.9612 153.286 84.5679 155.018 83.0042 154.923V154.914Z" fill="#EEC1BB"/>
<path opacity="0.1" d="M83.0042 154.914C80.4061 154.752 80.9791 154.523 78.7696 154.419C76.8757 154.333 76.3124 154.247 74.7827 154.205C74.7341 154.205 74.6855 154.205 74.637 154.186C74.3407 154.105 74.1659 153.805 74.2485 153.514L74.9818 150.411L75.5888 143.9L79.4155 144.081L78.823 150.421C78.8764 150.516 78.9201 150.635 79.0415 150.744C80.1633 151.868 81.2608 152.653 84.2765 153.167C84.9612 153.286 84.5679 155.018 83.0042 154.923V154.914Z" fill="black"/>
<path d="M84.6749 98.2677C87.3361 105.017 83.1986 138.883 81.4795 144.109C81.1444 145.132 79.5176 146.28 79.0951 147.479L75.4044 147.022C75.4044 147.022 74.4963 144.885 74.3846 143.252C74.1273 139.516 73.4717 98.8484 73.4717 98.8484L84.6749 98.2629V98.2677Z" fill="#FF4D4F"/>
<path opacity="0.1" d="M74.3846 143.257C74.1273 139.521 73.4717 98.8533 73.4717 98.8533L84.6749 98.2678C87.3361 105.017 83.1986 138.883 81.4795 144.109L74.3798 143.257H74.3846Z" fill="black"/>
<path opacity="0.2" d="M77.8369 106.103C77.8369 106.103 79.0995 109.201 79.8085 110.125C80.5175 111.048 81.479 144.109 81.479 144.109C81.479 144.109 78.308 118.778 77.8369 106.103Z" fill="black"/>
<path d="M81.1538 152.648L84.9805 152.829L85.7817 144.166L81.9599 143.985L81.1538 152.648Z" fill="#EEC1BB"/>
<path d="M84.2864 150.444L81.6252 150.349C81.4698 150.34 81.3242 150.444 81.2853 150.592L80.0276 152.986C79.8382 153.343 79.9256 154.171 80.0907 154.538C80.4063 155.238 83.3637 154.728 85.2577 154.814C87.4721 154.923 86.7825 154.847 89.3757 155.009C90.9442 155.104 91.3376 153.372 90.6529 153.253C87.6372 152.734 86.3406 151.901 85.2188 150.778C84.9663 150.554 84.6312 150.435 84.2913 150.449L84.2864 150.444Z" fill="#EEC1BB"/>
<path d="M91.0455 98.3583C93.7067 105.108 89.5692 138.969 87.8501 144.2C87.515 145.223 85.8882 146.37 85.4657 147.57L81.775 147.113C81.775 147.113 80.8669 144.976 80.7552 143.343C80.4979 139.606 79.8423 98.939 79.8423 98.939L91.0455 98.3535V98.3583Z" fill="#FF4D4F"/>
<path opacity="0.1" d="M80.7504 143.348C80.493 139.611 79.8374 98.9436 79.8374 98.9436L91.0406 98.3582C93.7018 105.108 89.5643 138.969 87.8452 144.2L80.7455 143.348H80.7504Z" fill="black"/>
<path d="M87.1846 58.4521C87.947 58.9995 88.7823 59.4422 89.6661 59.7706C89.4815 60.218 89.1076 60.5607 88.6463 60.713L87.1846 58.4521Z" fill="#D4827D"/>
<path d="M85.9274 57.9048C85.9662 57.8762 85.9954 57.8334 86.0002 57.781C86.107 57.2051 86.4858 56.7148 87.02 56.4578C87.1414 56.4102 87.1997 56.2769 87.1511 56.1579C87.1074 56.0389 86.9714 55.9818 86.85 56.0247C86.85 56.0247 86.8501 56.0247 86.8452 56.0247C86.1702 56.3341 85.6846 56.9481 85.5437 57.6668C85.5146 57.7858 85.5923 57.9048 85.7137 57.9333H85.7234C85.7914 57.9524 85.8691 57.9333 85.9225 57.8905L85.9274 57.9048Z" fill="#263238"/>
<path d="M80.2699 65.4919C80.3913 68.124 80.0465 71.1608 78.2012 72.365C78.2012 72.365 78.915 75.2066 85.2184 75.6826C92.153 76.2014 88.7488 73.1551 88.7488 73.1551C85.738 71.8319 84.5482 69.4949 85.3738 67.4196L82.125 64.5875C81.6394 64.1972 80.9255 64.2639 80.5273 64.7351C80.3476 64.9445 80.2553 65.2158 80.2699 65.4871V65.4919Z" fill="#EEC1BB"/>
<path d="M91.9195 88.6148V88.6529C91.8806 93.8172 91.9195 101.133 91.9195 101.133L90.3412 100.728C86.7816 99.8193 83.1347 99.291 79.4634 99.1529L73.3252 98.9245C74.5878 91.6896 74.5829 88.6719 73.4854 78.6764C73.1067 75.1922 74.073 71.4748 76.0058 71.2702C76.0446 71.2702 76.0884 71.2607 76.1321 71.2607C76.5206 71.2369 76.9139 71.2083 77.317 71.1988C77.856 71.175 78.4048 71.1607 78.9535 71.1655C79.0798 71.1655 79.2109 71.1655 79.3371 71.1655H79.3517C80.3375 71.1655 81.3233 71.1845 82.314 71.2273C84.2224 71.2987 88.2045 71.6986 88.2725 71.7033C88.7678 71.9318 89.2195 72.2412 89.5934 72.6172C89.9673 72.9885 90.2684 73.4311 90.4675 73.9309C91.3756 76.2299 92.9636 80.3328 92.881 80.6089C92.881 80.6327 92.5702 81.6275 92.4537 82.0749C92.3177 82.5746 92.1963 83.0697 92.0846 83.5885L91.9195 88.6148Z" fill="#FF4D4F"/>
<path opacity="0.2" d="M92.0849 83.5884C91.7984 78.3479 89.8511 77.5768 89.1809 74.5734C89.0595 74.0403 87.9474 74.2117 87.1462 74.245C83.8391 74.3592 84.4898 76.8391 85.9661 79.7473C87.9426 83.6408 91.7595 90.0189 91.9246 88.6528L92.0898 83.5932L92.0849 83.5884Z" fill="black"/>
<path d="M87.8646 66.7961H87.85V66.8056C87.5441 67.1388 87.1847 67.4386 86.8011 67.6957C86.4854 67.9146 86.1503 68.1002 85.7958 68.2525C85.5773 68.3477 85.3636 68.4239 85.1354 68.4953C83.8825 68.8808 82.4791 68.8713 81.129 68.3001C80.8037 68.1621 80.5075 68.005 80.2355 67.8384C80.1772 67.8004 80.119 67.767 80.0655 67.7242C78.2493 66.4962 77.5937 64.5209 76.3457 61.5984C76.132 61.0986 76.0155 60.5893 75.9767 60.08C75.8213 57.8572 77.2781 55.682 79.5896 54.7395C80.4006 54.4064 81.3184 54.2255 82.3091 54.2445C83.5863 54.2683 84.6935 54.7062 85.621 55.3964C85.9512 55.6391 86.262 55.9152 86.5437 56.2198C86.6845 56.3626 86.8156 56.5102 86.9468 56.6673C87.2041 56.9814 87.4421 57.3193 87.6557 57.6668C87.7189 57.762 87.7772 57.8572 87.8306 57.9524C88.0685 58.3665 88.2822 58.8044 88.4667 59.2471C88.6513 59.6897 88.8067 60.1371 88.9329 60.5845C89.1612 61.3747 89.302 62.16 89.3506 62.874C89.4477 64.3495 88.8552 65.7394 87.8597 66.8008L87.8646 66.7961Z" fill="#EEC1BB"/>
<path d="M88.9573 61.3603C89.1273 62.0362 89.171 62.7359 89.0836 63.4213L89.0739 63.507C89.0496 63.5212 89.0253 63.5308 89.001 63.5403C88.967 63.5593 88.933 63.5736 88.899 63.5831C88.8699 63.5926 88.8408 63.6022 88.8068 63.6069C88.4863 63.6783 88.2095 63.526 87.9958 63.3166C87.8258 63.15 87.6947 62.9453 87.6024 62.774C87.5393 62.6454 87.4956 62.5312 87.481 62.4646C87.4082 62.2075 87.3936 62.0076 87.4228 61.8506C87.4276 61.8077 87.4373 61.7744 87.447 61.7411C87.5733 61.346 87.9909 61.2699 88.3648 61.2746H88.3697C88.4377 61.2746 88.5057 61.2794 88.5591 61.2889C88.5737 61.2889 88.5882 61.2889 88.6077 61.2937C88.6854 61.3079 88.7533 61.3175 88.8068 61.3317C88.899 61.346 88.9573 61.3651 88.9573 61.3651V61.3603Z" fill="#263238"/>
<path d="M88.8067 61.3319V61.765C87.7529 61.9792 87.4373 61.7793 87.447 61.746C87.5733 61.3509 87.9909 61.2747 88.3648 61.2795H88.3697C88.4377 61.2795 88.5056 61.2843 88.5591 61.2938C88.5736 61.2938 88.5882 61.2938 88.6076 61.2985C88.6853 61.3128 88.7533 61.3223 88.8067 61.3366V61.3319Z" fill="white"/>
<path d="M88.8948 63.5879C88.2732 63.7926 87.8167 63.1928 87.603 62.774C87.603 62.7264 87.7439 62.7454 87.8458 62.7883C88.1858 62.8359 88.7102 63.0691 88.8948 63.5879Z" fill="#BE9A96"/>
<path d="M88.996 63.545C88.962 63.564 88.928 63.5783 88.894 63.5878C88.8648 63.5973 88.8357 63.6069 88.8017 63.6116C88.4812 63.683 88.2044 63.5307 87.9907 63.3213C88.1558 63.326 88.588 63.326 88.9377 63.2832L88.996 63.545Z" fill="white"/>
<path d="M82.0371 67.5195C77.6811 69.0617 73.9225 62.9596 73.3252 60.3513C72.2665 55.7153 77.8171 54.0827 79.3225 54.6348C84.5623 56.553 84.5769 66.6199 82.0371 67.5243V67.5195Z" fill="#263238"/>
<path d="M84.4263 61.4699C84.4263 61.4699 82.984 59.7897 81.6 60.6369C80.2159 61.4842 82.1001 64.4685 84.0912 64.3305C84.0912 64.3305 86.0774 63.2643 84.4214 61.4699H84.4263Z" fill="#EEC1BB"/>
<path d="M88.2727 71.6984C88.2047 71.6889 88.127 71.6746 88.0298 71.6604C86.1311 71.4414 84.2226 71.2938 82.319 71.2177C81.3283 71.1796 80.3425 71.1606 79.3518 71.1558C79.3518 71.1558 79.3486 71.1558 79.3421 71.1558C79.2159 71.1558 79.0848 71.1558 78.9585 71.1558C79.0653 70.2134 78.9196 69.7469 79.5801 69.409C79.9831 69.2043 84.6694 68.7093 86.5438 70.1039C87.5491 70.8559 88.1852 70.9131 88.2775 71.6937L88.2727 71.6984Z" fill="#FF4D4F"/>
<path opacity="0.2" d="M88.2727 71.6984C88.2047 71.6889 88.127 71.6746 88.0298 71.6604C86.1311 71.4414 84.2226 71.2938 82.319 71.2177C81.3283 71.1796 80.3425 71.1606 79.3518 71.1558C79.3518 71.1558 79.3486 71.1558 79.3421 71.1558C79.2159 71.1558 79.0848 71.1558 78.9585 71.1558C79.0653 70.2134 78.9196 69.7469 79.5801 69.409C79.9831 69.2043 84.6694 68.7093 86.5438 70.1039C87.5491 70.8559 88.1852 70.9131 88.2775 71.6937L88.2727 71.6984Z" fill="black"/>
<path opacity="0.2" d="M86.8008 67.6957C86.8008 67.6957 85.6499 67.4863 84.8292 66.9056C84.0085 66.3249 83.688 65.9536 83.688 65.9536C83.688 65.9536 84.5621 68.3049 85.1351 68.4953C85.7033 68.6857 86.8008 67.6957 86.8008 67.6957Z" fill="black"/>
<path opacity="0.2" d="M93.1868 71.356C92.6332 71.3322 92.0893 71.0942 91.7056 70.6992C91.322 70.3089 91.2977 69.7472 91.1375 69.2236C90.9481 68.6096 91.0209 67.9194 91.3317 67.353C91.6425 66.7866 92.1912 66.3487 92.8177 66.1631C92.2981 66.958 92.0164 67.967 92.133 68.9047C92.2447 69.8424 92.4972 70.6944 93.1916 71.3512L93.1868 71.356Z" fill="black"/>
<path d="M98.1308 86.3351C96.9216 88.8101 92.5316 85.702 92.5316 85.702C92.5316 85.702 87.452 80.6043 84.9754 77.4962C83.9507 76.2063 83.6157 74.4785 84.2081 72.9506C84.8637 71.2656 86.204 70.861 88.3504 71.7226C90.0986 72.427 91.5215 74.2357 92.8861 76.3776L93.7214 77.7103L93.2357 72.2128L95.7901 72.0129C95.7901 72.0129 100.127 82.2464 98.1259 86.3351H98.1308Z" fill="#FF4D4F"/>
<path d="M93.2398 72.2129L91.9238 69.4141L95.9496 67.8672C95.9496 67.8672 97.2316 70.1947 95.7991 72.0129L93.2447 72.2129H93.2398Z" fill="#EEC1BB"/>
<path d="M93.2447 66.2156L94.653 66.2584C95.2357 66.2775 95.7262 66.6868 95.833 67.2485L96.0176 68.2195L91.9238 69.4094L91.9724 67.396C91.987 66.7249 92.56 66.1918 93.2496 66.2156H93.2447Z" fill="#EEC1BB"/>
<path d="M73.1651 56.7815C73.6605 55.2203 75.0153 54.0351 76.5256 53.345C78.0359 52.6548 81.3089 51.4172 85.5435 52.9927C86.6944 53.4211 85.7863 56.8291 82.6638 58.0238C80.8136 58.7283 76.7247 60.418 74.7288 60.0753C72.9223 59.7659 72.6892 58.2713 73.1603 56.7815H73.1651Z" fill="#263238"/>
<path d="M73.8982 59.171C72.8784 59.033 72.0286 58.1001 72.0043 57.091C71.9946 56.7578 72.1791 56.3818 72.3199 56.0771C72.3831 57.2481 72.9075 58.5142 73.8982 59.171Z" fill="#263238"/>
<path d="M88.1462 57.9191C87.884 58.0286 87.6023 58.0667 87.3255 58.0429C87.3207 57.9334 87.311 57.8192 87.3013 57.7097C87.5489 57.743 87.7966 57.7097 88.0248 57.6097C88.0588 57.5907 88.0977 57.5954 88.1317 57.6097C88.1851 57.624 88.2239 57.6621 88.2385 57.7097C88.2385 57.7097 88.2385 57.7144 88.2434 57.7192C88.2725 57.8049 88.2288 57.8953 88.1462 57.9286V57.9191Z" fill="#263238"/>
<path d="M120.147 47.2636C120.714 47.1549 121.273 47.0034 121.802 46.8131C127.394 44.7936 130.299 38.6031 128.279 33.0107C127.157 29.9037 124.718 27.5192 121.584 26.4589C118.438 22.1831 112.764 20.4587 107.766 22.2646C103.836 23.6821 100.888 27.0959 100.042 31.1931C94.6722 32.5189 91.5394 38.4591 93.416 43.6596C95.1986 48.5957 100.667 51.1628 105.607 49.3802C105.719 49.3375 105.832 49.2948 105.945 49.252C108.787 51.1473 112.388 51.59 115.595 50.4288C117.363 49.7919 118.935 48.7006 120.147 47.2714V47.2636Z" fill="white"/>
<path d="M120.147 47.2636C120.714 47.1549 121.273 47.0034 121.802 46.8131C127.394 44.7936 130.299 38.6031 128.279 33.0107C127.157 29.9037 124.718 27.5192 121.584 26.4589C118.438 22.1831 112.764 20.4587 107.766 22.2646C103.836 23.6821 100.888 27.0959 100.042 31.1931C99.7269 31.2708 99.424 31.364 99.1366 31.4688C94.2005 33.2514 91.6334 38.7196 93.416 43.6596C95.1986 48.5957 100.667 51.1628 105.607 49.3802C105.719 49.3375 105.832 49.2948 105.945 49.252C108.787 51.1473 112.388 51.59 115.595 50.4288C117.363 49.7919 118.935 48.7006 120.147 47.2714V47.2636ZM105.89 48.8443C105.754 48.9025 105.615 48.9569 105.471 49.0074C100.733 50.7162 95.4899 48.2578 93.7772 43.5198C92.0684 38.7817 94.5267 33.5388 99.2648 31.8261C99.5755 31.7135 99.9095 31.6164 100.251 31.5349L100.372 31.5038L100.395 31.3795C101.179 27.3638 104.053 24.0084 107.894 22.6219C112.753 20.8665 118.267 22.5559 121.304 26.7308L121.339 26.7813L121.398 26.8007C124.446 27.8105 126.823 30.1212 127.911 33.1349C129.856 38.5254 127.056 44.4946 121.666 46.4403C121.134 46.6306 120.574 46.782 120.003 46.8869L119.934 46.8986L119.887 46.9529C118.714 48.3549 117.18 49.4268 115.456 50.0482C112.329 51.1783 108.819 50.7317 106.069 48.8559L105.983 48.7977L105.886 48.8365L105.89 48.8443Z" fill="#FF2323"/>
<path d="M105.783 56.9902C106.28 56.7476 106.655 56.3229 106.831 55.799C107.008 55.2751 106.975 54.7125 106.732 54.2162C106.489 53.7198 106.065 53.3448 105.541 53.1683C105.017 52.9919 104.454 53.025 103.957 53.2676C102.931 53.7695 102.507 55.0159 103.009 56.0417C103.251 56.538 103.676 56.913 104.2 57.0895C104.653 57.2439 105.127 57.2384 105.568 57.0785C105.64 57.0509 105.712 57.0233 105.783 56.9902ZM105.364 53.6923C105.75 53.8246 106.059 54.0949 106.236 54.4644C106.605 55.2199 106.291 56.1299 105.541 56.4994C104.79 56.8689 103.875 56.5546 103.505 55.8045C103.136 55.049 103.45 54.139 104.2 53.7695C104.25 53.7419 104.305 53.7198 104.355 53.7033C104.68 53.5875 105.028 53.582 105.359 53.6978L105.364 53.6923Z" fill="#BB0002"/>
<path d="M102.932 62.0441C103.233 61.8964 103.455 61.6433 103.561 61.3321C103.666 61.0157 103.645 60.6782 103.502 60.3829C103.354 60.0823 103.101 59.8608 102.789 59.7553C102.472 59.6498 102.133 59.6709 101.837 59.8133C101.219 60.1139 100.965 60.8628 101.267 61.4798C101.415 61.7804 101.668 62.0019 101.98 62.1074C102.25 62.2023 102.54 62.1971 102.805 62.1021C102.847 62.0863 102.889 62.0705 102.932 62.0494V62.0441ZM102.614 60.251C102.794 60.3143 102.942 60.4409 103.027 60.6149C103.111 60.7889 103.122 60.9788 103.064 61.1634C103 61.3427 102.873 61.4904 102.699 61.5747C102.53 61.6591 102.334 61.6697 102.149 61.6117C101.97 61.5484 101.822 61.4218 101.737 61.2478C101.563 60.8944 101.711 60.462 102.065 60.2879C102.091 60.2774 102.112 60.2668 102.139 60.2563C102.292 60.2035 102.456 60.1983 102.614 60.2563V60.251Z" fill="#BB0002"/>
<path d="M111.258 32.2148C112.12 32.252 114.971 32.3033 115.894 31.1338C116.113 30.859 116.327 30.421 116.117 29.7454C115.857 28.9068 115.195 28.5201 114.305 28.576C113.14 28.6459 111.64 29.5311 110.895 30.5421C110.312 29.6569 109.199 28.3244 107.652 28.576C106.529 28.753 105.728 29.6616 105.863 30.6027C105.937 31.1105 106.506 32.676 110.732 32.2334L111.095 33.0487L111.258 32.2148ZM114.356 29.5078C114.818 29.4799 115.083 29.615 115.214 30.0436C115.307 30.3418 115.228 30.449 115.148 30.5468C114.654 31.1711 112.791 31.3575 111.496 31.3202C111.924 30.5375 113.322 29.5684 114.356 29.5078ZM110.294 31.3249C107.675 31.5438 106.855 30.8823 106.795 30.4676C106.743 30.0995 107.158 29.615 107.796 29.5125C107.848 29.5032 107.894 29.4985 107.941 29.4985C109.068 29.4333 109.93 30.6959 110.294 31.3295V31.3249Z" fill="#FF4D26"/>
<path d="M120.548 44.8362H102.121V32.1774H120.548V44.8362Z" fill="#BB0002"/>
<path opacity="0.1" d="M120.548 44.8408H102.121V36.5569H120.548V44.8408Z" fill="black"/>
<path opacity="0.2" d="M109.441 44.8362H102.121V32.1774H109.441V44.8362Z" fill="#FF4D26"/>
<path d="M101.599 32.1821H121.098V36.557H101.599V32.1821Z" fill="#BB0002"/>
<path opacity="0.1" d="M101.599 32.1821H121.098V36.557H101.599V32.1821Z" fill="#FF4D26"/>
<path opacity="0.2" d="M101.604 32.1821H108.854V36.557H101.604V32.1821Z" fill="#FF4D26"/>
<path d="M115.894 44.8362H114.398V32.1774H115.894V44.8362Z" fill="#FF4D26"/>
<path d="M105.807 44.8362H104.708V32.1774H105.807V44.8362Z" fill="#FF4D26"/>
<path d="M38.8246 37.1312C38.8817 37.3638 39.2118 37.3638 39.269 37.1312C40.0782 33.84 40.9697 32.9485 44.2609 32.1392C44.4936 32.0821 44.4936 31.752 44.2609 31.6949C40.9697 30.8856 40.0782 29.9941 39.269 26.703C39.2118 26.4703 38.8817 26.4703 38.8246 26.703C38.0153 29.9941 37.1238 30.8856 33.8326 31.6949C33.6001 31.752 33.6001 32.0821 33.8326 32.1392C37.1238 32.9485 38.0153 33.84 38.8246 37.1312Z" fill="#FAAD14"/>
<rect x="38.6323" y="35.6477" width="0.829016" height="3.31606" fill="#FAAD14"/>
<path d="M38.8947 37.3057L37.8032 40.2677H40.2503L39.238 37.3057H38.8947Z" fill="#FAAD14"/>
</g>
<defs>
<linearGradient id="paint0_linear_78_2201" x1="85.7891" y1="140.998" x2="-17.477" y2="79.4427" gradientUnits="userSpaceOnUse">
<stop stop-color="#01A6FF"/>
<stop offset="1" stop-color="#214FE2"/>
</linearGradient>
<linearGradient id="paint1_linear_78_2201" x1="117.31" y1="10.5649" x2="-11.3204" y2="64.0041" gradientUnits="userSpaceOnUse">
<stop stop-color="#01A6FF"/>
<stop offset="1" stop-color="#214FE2"/>
</linearGradient>
<clipPath id="clip0_78_2201">
<rect width="160" height="160" rx="19.8964" fill="white"/>
</clipPath>
</defs>
</svg>
